<svg  viewBox="0 0 4122 1020" fill="none" xmlns="http://www.w3.org/2000/svg">
<path d="M1503.21 454.379H1439L1426.79 491H1387.85L1454.02 313.266H1487.95L1554.48 491H1515.54L1503.21 454.379ZM1448.89 424.716H1493.32L1470.98 358.188L1448.89 424.716ZM1626.14 443.148C1626.14 434.929 1628.41 427.32 1632.97 420.321C1637.61 413.323 1646.07 405.551 1658.36 397.006C1653.07 389.926 1648.92 383.293 1645.91 377.108C1642.9 370.842 1641.39 364.332 1641.39 357.577C1641.39 343.743 1645.75 332.512 1654.46 323.886C1663.25 315.178 1675.05 310.824 1689.86 310.824C1703.12 310.824 1713.99 314.771 1722.45 322.665C1730.99 330.559 1735.27 340.406 1735.27 352.206C1735.27 366.366 1728.11 378.858 1713.78 389.682L1700.11 399.569L1730.75 435.214C1735.55 425.774 1737.95 415.357 1737.95 403.964H1767.98C1767.98 427.076 1762.65 445.793 1751.99 460.116L1778.6 491H1738.56L1729.41 480.502C1716.3 489.128 1701.25 493.441 1684.24 493.441C1666.66 493.441 1652.58 488.843 1642 479.647C1631.43 470.37 1626.14 458.204 1626.14 443.148ZM1685.95 465.121C1694.41 465.121 1702.43 462.761 1710 458.041L1674.96 417.514L1672.4 419.345C1665.16 425.53 1661.54 432.813 1661.54 441.195C1661.54 448.275 1663.77 454.053 1668.25 458.529C1672.81 462.924 1678.71 465.121 1685.95 465.121ZM1673.01 357.089C1673.01 363.192 1676.59 370.883 1683.75 380.16L1693.15 373.935C1697.95 370.842 1701.25 367.831 1703.04 364.901C1704.91 361.972 1705.85 358.472 1705.85 354.403C1705.85 350.334 1704.34 346.794 1701.33 343.783C1698.32 340.772 1694.45 339.267 1689.73 339.267C1684.69 339.267 1680.62 340.894 1677.53 344.149C1674.52 347.405 1673.01 351.718 1673.01 357.089ZM1931.31 313.266H1967.93V436.312C1967.93 447.624 1965.41 457.634 1960.36 466.342C1955.4 474.968 1948.36 481.641 1939.25 486.361C1930.13 491.081 1919.84 493.441 1908.36 493.441C1889.56 493.441 1874.91 488.681 1864.42 479.159C1853.92 469.556 1848.67 456.007 1848.67 438.51H1885.54C1885.54 447.217 1887.37 453.646 1891.03 457.797C1894.69 461.947 1900.47 464.022 1908.36 464.022C1915.36 464.022 1920.94 461.622 1925.09 456.82C1929.24 452.019 1931.31 445.183 1931.31 436.312V313.266ZM2100.5 491H2063.88V313.266H2100.5V491ZM2279.09 491H2242.47L2171.18 374.057V491H2134.56V313.266H2171.18L2242.59 430.453V313.266H2279.09V491ZM2441.2 342.929H2386.76V491H2350.13V342.929H2296.42V313.266H2441.2V342.929ZM2569.13 413.974H2498.82V461.581H2581.34V491H2462.2V313.266H2581.09V342.929H2498.82V385.287H2569.13V413.974ZM2639.44 461.581H2717.2V491H2602.82V313.266H2639.44V461.581ZM2774.94 461.581H2852.7V491H2738.32V313.266H2774.94V461.581ZM2912.76 491H2876.14V313.266H2912.76V491ZM3101.23 444.369C3101.23 437.452 3098.79 432.162 3093.91 428.5C3089.03 424.757 3080.24 420.85 3067.54 416.781C3054.85 412.631 3044.8 408.562 3037.39 404.574C3017.21 393.669 3007.12 378.98 3007.12 360.507C3007.12 350.904 3009.8 342.359 3015.17 334.872C3020.63 327.304 3028.4 321.404 3038.49 317.172C3048.66 312.94 3060.05 310.824 3072.67 310.824C3085.36 310.824 3096.68 313.144 3106.6 317.782C3116.53 322.34 3124.22 328.809 3129.68 337.191C3135.21 345.574 3137.98 355.095 3137.98 365.756H3101.36C3101.36 357.618 3098.79 351.311 3093.66 346.835C3088.54 342.278 3081.34 339.999 3072.06 339.999C3063.11 339.999 3056.15 341.911 3051.18 345.736C3046.22 349.48 3043.74 354.444 3043.74 360.629C3043.74 366.407 3046.63 371.249 3052.41 375.155C3058.26 379.062 3066.85 382.724 3078.16 386.142C3099 392.408 3114.17 400.18 3123.69 409.457C3133.22 418.734 3137.98 430.29 3137.98 444.125C3137.98 459.506 3132.16 471.591 3120.52 480.38C3108.88 489.088 3093.22 493.441 3073.52 493.441C3059.85 493.441 3047.4 490.959 3036.17 485.995C3024.94 480.95 3016.35 474.073 3010.41 465.365C3004.55 456.658 3001.62 446.566 3001.62 435.092H3038.37C3038.37 454.704 3050.09 464.511 3073.52 464.511C3082.23 464.511 3089.03 462.761 3093.91 459.262C3098.79 455.681 3101.23 450.717 3101.23 444.369ZM3224.16 393.344L3261.15 313.266H3301.18L3242.83 426.547V491H3205.6V426.547L3147.25 313.266H3187.41L3224.16 393.344ZM3407.63 444.369C3407.63 437.452 3405.19 432.162 3400.31 428.5C3395.42 424.757 3386.63 420.85 3373.94 416.781C3361.24 412.631 3351.19 408.562 3343.79 404.574C3323.6 393.669 3313.51 378.98 3313.51 360.507C3313.51 350.904 3316.2 342.359 3321.57 334.872C3327.02 327.304 3334.79 321.404 3344.89 317.172C3355.06 312.94 3366.45 310.824 3379.07 310.824C3391.76 310.824 3403.07 313.144 3413 317.782C3422.93 322.34 3430.62 328.809 3436.07 337.191C3441.61 345.574 3444.37 355.095 3444.37 365.756H3407.75C3407.75 357.618 3405.19 351.311 3400.06 346.835C3394.93 342.278 3387.73 339.999 3378.46 339.999C3369.5 339.999 3362.55 341.911 3357.58 345.736C3352.62 349.48 3350.13 354.444 3350.13 360.629C3350.13 366.407 3353.02 371.249 3358.8 375.155C3364.66 379.062 3373.25 382.724 3384.56 386.142C3405.39 392.408 3420.57 400.18 3430.09 409.457C3439.61 418.734 3444.37 430.29 3444.37 444.125C3444.37 459.506 3438.55 471.591 3426.92 480.38C3415.28 489.088 3399.61 493.441 3379.92 493.441C3366.25 493.441 3353.8 490.959 3342.57 485.995C3331.34 480.95 3322.75 474.073 3316.81 465.365C3310.95 456.658 3308.02 446.566 3308.02 435.092H3344.76C3344.76 454.704 3356.48 464.511 3379.92 464.511C3388.63 464.511 3395.42 462.761 3400.31 459.262C3405.19 455.681 3407.63 450.717 3407.63 444.369ZM3603.06 342.929H3548.62V491H3512V342.929H3458.29V313.266H3603.06V342.929ZM3730.99 413.974H3660.68V461.581H3743.2V491H3624.06V313.266H3742.96V342.929H3660.68V385.287H3730.99V413.974ZM3812.54 313.266L3858.19 442.172L3903.6 313.266H3951.7V491H3914.95V442.416L3918.62 358.554L3870.64 491H3845.5L3797.64 358.676L3801.31 442.416V491H3764.69V313.266H3812.54ZM4075.84 444.369C4075.84 437.452 4073.4 432.162 4068.52 428.5C4063.64 424.757 4054.85 420.85 4042.15 416.781C4029.46 412.631 4019.41 408.562 4012 404.574C3991.82 393.669 3981.73 378.98 3981.73 360.507C3981.73 350.904 3984.41 342.359 3989.78 334.872C3995.24 327.304 4003.01 321.404 4013.1 317.172C4023.27 312.94 4034.66 310.824 4047.28 310.824C4059.97 310.824 4071.29 313.144 4081.21 317.782C4091.14 322.34 4098.83 328.809 4104.29 337.191C4109.82 345.574 4112.59 355.095 4112.59 365.756H4075.96C4075.96 357.618 4073.4 351.311 4068.27 346.835C4063.15 342.278 4055.95 339.999 4046.67 339.999C4037.72 339.999 4030.76 341.911 4025.79 345.736C4020.83 349.48 4018.35 354.444 4018.35 360.629C4018.35 366.407 4021.24 371.249 4027.01 375.155C4032.87 379.062 4041.46 382.724 4052.77 386.142C4073.6 392.408 4088.78 400.18 4098.3 409.457C4107.83 418.734 4112.59 430.29 4112.59 444.125C4112.59 459.506 4106.77 471.591 4095.13 480.38C4083.49 489.088 4067.83 493.441 4048.13 493.441C4034.46 493.441 4022.01 490.959 4010.78 485.995C3999.55 480.95 3990.96 474.073 3985.02 465.365C3979.16 456.658 3976.23 446.566 3976.23 435.092H4012.98C4012.98 454.704 4024.7 464.511 4048.13 464.511C4056.84 464.511 4063.64 462.761 4068.52 459.262C4073.4 455.681 4075.84 450.717 4075.84 444.369ZM1431.07 714.42V784H1407.63V606.266H1473.18C1492.63 606.266 1507.85 611.23 1518.84 621.158C1529.9 631.087 1535.44 644.229 1535.44 660.587C1535.44 677.84 1530.03 691.145 1519.2 700.504C1508.46 709.781 1493.04 714.42 1472.94 714.42H1431.07ZM1431.07 695.255H1473.18C1485.71 695.255 1495.32 692.325 1501.99 686.466C1508.66 680.525 1512 671.98 1512 660.831C1512 650.252 1508.66 641.788 1501.99 635.44C1495.32 629.093 1486.16 625.797 1474.52 625.553H1431.07V695.255ZM1630.53 712.101H1588.78V784H1565.22V606.266H1624.06C1644.08 606.266 1659.46 610.823 1670.2 619.938C1681.03 629.052 1686.44 642.317 1686.44 659.732C1686.44 670.8 1683.43 680.444 1677.41 688.663C1671.46 696.882 1663.16 703.027 1652.5 707.096L1694.25 782.535V784H1669.1L1630.53 712.101ZM1588.78 692.936H1624.79C1636.43 692.936 1645.67 689.924 1652.5 683.902C1659.42 677.88 1662.88 669.824 1662.88 659.732C1662.88 648.746 1659.58 640.323 1652.99 634.464C1646.48 628.604 1637.04 625.634 1624.67 625.553H1588.78V692.936ZM1744.54 784H1721.11V606.266H1744.54V784ZM1846.35 752.872L1897.13 606.266H1922.77L1856.85 784H1836.1L1770.3 606.266H1795.81L1846.35 752.872ZM2035.56 737.613H1961.1L1944.37 784H1920.2L1988.07 606.266H2008.58L2076.58 784H2052.53L2035.56 737.613ZM1968.18 718.326H2028.6L1998.33 635.196L1968.18 718.326ZM2207.43 625.553H2150.31V784H2126.99V625.553H2069.98V606.266H2207.43V625.553ZM2334.27 701.847H2257.24V764.835H2346.72V784H2233.8V606.266H2345.5V625.553H2257.24V682.682H2334.27V701.847ZM2461.46 764.835H2545.69V784H2437.9V606.266H2461.46V764.835ZM2597.57 784H2574.13V606.266H2597.57V784ZM2670.81 606.266L2728.92 751.285L2787.02 606.266H2817.42V784H2793.98V714.786L2796.18 640.079L2737.83 784H2719.89L2661.66 640.445L2663.98 714.786V784H2640.54V606.266H2670.81ZM2883.95 784H2860.51V606.266H2883.95V784ZM3046.06 625.553H2988.93V784H2965.61V625.553H2908.61V606.266H3046.06V625.553ZM3172.89 701.847H3095.86V764.835H3185.34V784H3072.42V606.266H3184.12V625.553H3095.86V682.682H3172.89V701.847ZM3214.51 784V606.266H3264.69C3280.15 606.266 3293.82 609.684 3305.7 616.52C3317.58 623.355 3326.74 633.08 3333.17 645.694C3339.68 658.308 3342.97 672.794 3343.05 689.151V700.504C3343.05 717.268 3339.8 731.957 3333.29 744.571C3326.86 757.185 3317.62 766.869 3305.58 773.624C3293.62 780.379 3279.66 783.837 3263.71 784H3214.51ZM3237.95 625.553V764.835H3262.61C3280.68 764.835 3294.71 759.22 3304.72 747.989C3314.82 736.759 3319.86 720.768 3319.86 700.016V689.64C3319.86 669.457 3315.1 653.792 3305.58 642.643C3296.14 631.412 3282.71 625.715 3265.3 625.553H3237.95Z" fill="#3881CE"/>
<rect x="190" y="571" width="99" height="99" rx="15" fill="#A0A0A0"/>
<rect x="249" y="409" width="108" height="109" rx="15" fill="#A0A0A0"/>
<rect x="390" y="353" width="135" height="134" rx="19" fill="#A0A0A0"/>
<rect x="319" y="549" width="192" height="191" rx="25" fill="#A0A0A0"/>
<rect x="269" y="756" width="59" height="59" rx="10" fill="#A0A0A0"/>
<path d="M556 504C556 484.67 571.67 469 591 469H767.786C790.042 469 806.646 489.5 802.022 511.271L789.743 569.084C787.975 577.408 783.235 584.803 776.409 589.886L611.903 712.376C588.814 729.567 556 713.088 556 684.303V504Z" fill="#A0A0A0"/>
<path d="M817 281C817 269.954 825.954 261 837 261H961.676C977.222 261 986.824 277.959 978.826 291.29L894.826 431.29C891.212 437.314 884.701 441 877.676 441H837C825.954 441 817 432.046 817 421V281Z" fill="#A0A0A0"/>
<rect x="468" y="271" width="59" height="59" rx="10" fill="#A0A0A0"/>
<rect x="574" y="234" width="181" height="180" rx="20" fill="#A0A0A0"/>
<path d="M559.669 701.25C560.52 695.979 563.481 691.282 567.87 688.242L789.297 534.872C791.045 533.661 792.321 531.884 792.91 529.84V529.84C795.866 519.571 811 521.706 811 532.393V692.226C811 709.774 796.774 724 779.226 724H579.044C566.959 724 557.745 713.181 559.669 701.25V701.25Z" fill="#D4B036"/>
<path d="M942.029 346.131C942.675 345.378 943.265 344.578 943.793 343.738L960.062 317.827C970.736 300.828 997 308.39 997 328.462V419.706C997 430.472 988.478 439.307 977.719 439.694L903.65 442.358C886.226 442.985 876.399 422.571 887.757 409.342L942.029 346.131Z" fill="#D4B036"/>
<rect x="846" y="614" width="180" height="180" rx="16" fill="#D4B036"/>
<rect x="1002" y="449" width="133" height="131" rx="16" fill="#D4B036"/>
<rect x="1021" y="341" width="80" height="78" rx="16" fill="#D4B036"/>
<rect x="1059" y="619" width="94" height="94" rx="16" fill="#D4B036"/>
<rect x="852" y="479" width="105" height="106" rx="16" fill="#D4B036"/>
<rect x="372" y="771" width="154" height="156" rx="16" fill="#D4B036"/>
<rect x="561" y="753" width="107" height="106" rx="16" fill="#D4B036"/>
<rect x="419" y="960" width="58" height="60" rx="13" fill="#D4B036"/>
<rect x="723" y="746" width="58" height="60" rx="13" fill="#D4B036"/>
<path fill-rule="evenodd" clip-rule="evenodd" d="M677.902 631.832C952.364 422.626 1105.9 162.566 1020.84 50.9707C996.775 19.3986 956.19 3.09247 904.143 0.678896C970.416 0.0958576 1022.3 18.2312 1051.85 57.1064C1143 176.98 987.369 448.661 704.249 663.923C421.13 879.184 117.731 956.511 26.5881 836.637C1.30443 803.383 -4.98891 758.447 5.16161 706.274C-0.0564729 746.999 6.66862 781.996 26.9265 808.573C111.989 920.168 403.441 841.038 677.902 631.832Z" fill="#D4B036"/>
<path fill-rule="evenodd" clip-rule="evenodd" d="M662.173 611.197C936.635 401.99 1093.69 146.549 1012.98 40.6528C1003.8 28.6152 991.947 19.0282 977.741 11.7974C1002.68 19.6797 1022.72 32.7271 1036.8 51.243C1120.38 161.176 961.985 422.245 683.007 634.358C404.029 846.471 110.115 929.303 26.5305 819.371C17.7058 807.764 11.5784 794.473 8.00549 779.732C11.004 786.326 14.6831 792.511 19.0618 798.255C99.7806 904.152 387.711 820.403 662.173 611.197Z" fill="white"/>
</svg>
