<?xml version="1.0" encoding="UTF-8" standalone="no" ?>
<!DOCTYPE svg PUBLIC "-//W3C//DTD SVG 1.1//EN" "http://www.w3.org/Graphics/SVG/1.1/DTD/svg11.dtd">
<svg xmlns="http://www.w3.org/2000/svg" xmlns:xlink="http://www.w3.org/1999/xlink" version="1.1" width="1000" height="450" viewBox="0 0 1000 450" xml:space="preserve">
<desc>Created with Fabric.js 4.6.0</desc>
<defs>
</defs>
<g transform="matrix(1.21 0 0 1.35 677.28 315.71)" id="ApBT1_TStbLByPXN4DSBu"  >
<path style="stroke: none; stroke-width: 1; stroke-dasharray: none; stroke-linecap: butt; stroke-dashoffset: 0; stroke-linejoin: miter; stroke-miterlimit: 4; fill: rgb(204,204,204); fill-rule: nonzero; opacity: 1;" vector-effect="non-scaling-stroke"  transform=" translate(-673.7, -609.2)" d="M 876.70437 521.703 L 470.70437000000004 521.703 C 467.1145191260999 521.703 464.20437000000004 524.6131491260999 464.20437000000004 528.203 C 464.20437000000004 531.7928508739001 467.1145191260999 534.703 470.70437000000004 534.703 L 482.20437000000004 534.703 L 482.20437000000004 690.203 C 482.20437000000004 693.7928508739001 485.1145191260999 696.703 488.70437000000004 696.703 C 492.2942208739002 696.703 495.20437000000004 693.7928508739001 495.20437000000004 690.203 L 495.30315 534.703 L 851.20437 534.703 L 851.20437 690.203 C 851.20437 693.7928508739001 854.1145191260999 696.703 857.70437 696.703 C 861.2942208739001 696.703 864.20437 693.7928508739001 864.20437 690.203 L 864.20437 538.13036 L 866.0954800000001 534.70299 L 876.70437 534.70299 C 880.2942208739001 534.70299 883.20437 531.7928408739001 883.20437 528.20299 C 883.20437 524.6131391260999 880.2942208739001 521.70299 876.70437 521.70299 Z" stroke-linecap="round" />
</g>
<g transform="matrix(1.21 0 0 1.35 629.8 144.42)" id="4jeQdfr_Id_YyMuh7bezS"  >
<path style="stroke: none; stroke-width: 1; stroke-dasharray: none; stroke-linecap: butt; stroke-dashoffset: 0; stroke-linejoin: miter; stroke-miterlimit: 4; fill: rgb(63,61,86); fill-rule: nonzero; opacity: 1;" vector-effect="non-scaling-stroke"  transform=" translate(-634.3, -482.27)" d="M 695.79406 525.10473 L 572.81224 525.10473 C 567.8540434230633 525.0991199094485 563.8360300905515 521.0811065769367 563.83042 516.12291 L 563.83042 448.41382 C 563.8360300905514 443.45562342306334 567.8540434230633 439.43761009055146 572.81224 439.43199999999996 L 695.79406 439.43199999999996 C 700.7522565769366 439.4376100905514 704.7702699094484 443.45562342306334 704.7758799999999 448.41382 L 704.7758799999999 516.12291 C 704.7702699094484 521.0811065769367 700.7522565769366 525.0991199094485 695.79406 525.10473 Z" stroke-linecap="round" />
</g>
<g transform="matrix(1.21 0 0 1.35 629.8 144.42)" id="iLYL0W6sJGjriSBUudBwS"  >
<path style="stroke: none; stroke-width: 1; stroke-dasharray: none; stroke-linecap: butt; stroke-dashoffset: 0; stroke-linejoin: miter; stroke-miterlimit: 4; fill: rgb(255,255,255); fill-rule: nonzero; opacity: 1;" vector-effect="non-scaling-stroke"  transform=" translate(-634.3, -482.27)" d="M 695.79338 446.34472 L 572.81292 446.34472 C 571.6707199720083 446.34713506535184 570.7454112576248 447.27251977751365 570.7430899999999 448.41472 L 570.7430899999999 516.12472 C 570.745438652663 517.26690884293 571.6707313538146 518.1922775405446 572.81292 518.1947200000001 L 695.79338 518.1947200000001 C 696.9355686461853 518.1922775405446 697.8608613473369 517.26690884293 697.86321 516.12472 L 697.86321 448.41472000000005 C 697.8608887423752 447.27251977751365 696.9355800279917 446.34713506535184 695.79338 446.34472 Z" stroke-linecap="round" />
</g>
<g transform="matrix(1.21 0 0 1.35 627.45 175.65)" id="XI9kGSrppV6QGuBTPrQCq"  >
<path style="stroke: none; stroke-width: 1; stroke-dasharray: none; stroke-linecap: butt; stroke-dashoffset: 0; stroke-linejoin: miter; stroke-miterlimit: 4; fill: rgb(47,46,65); fill-rule: nonzero; opacity: 1;" vector-effect="non-scaling-stroke"  transform=" translate(-632.35, -505.41)" d="M 644.792 494.28284 C 644.792 494.28284 630.06974 490.89037 621.97249 497.10984 C 613.87524 503.32931 632.27808 517.46464 632.27808 517.46464 Z" stroke-linecap="round" />
</g>
<g transform="matrix(1.21 0 0 1.35 630.66 133.25)" id="fLCaZk3GJmJDm-ND__Dby"  >
<path style="stroke: none; stroke-width: 1; stroke-dasharray: none; stroke-linecap: butt; stroke-dashoffset: 0; stroke-linejoin: miter; stroke-miterlimit: 4; fill: rgb(160,97,106); fill-rule: nonzero; opacity: 1;" vector-effect="non-scaling-stroke"  transform=" translate(-13.89, -13.89)" d="M 0 13.88708 C 0 6.217459999999999 6.21746 0 13.88708 0 C 21.5567 0 27.77416 6.21746 27.77416 13.88708 C 27.77416 21.5567 21.5567 27.77416 13.88708 27.77416 C 6.217459999999999 27.77416 0 21.5567 0 13.88708 z" stroke-linecap="round" />
</g>
<g transform="matrix(1.21 0 0 1.35 631.2 119.45)" id="xFfl6axLGpilUByEeZDAJ"  >
<path style="stroke: none; stroke-width: 1; stroke-dasharray: none; stroke-linecap: butt; stroke-dashoffset: 0; stroke-linejoin: miter; stroke-miterlimit: 4; fill: rgb(47,46,65); fill-rule: nonzero; opacity: 1;" vector-effect="non-scaling-stroke"  transform=" translate(-635.46, -463.76)" d="M 624.28574 454.49178 C 626.1738209477203 451.28692067151275 629.6992871973616 449.41116999318723 633.4121600000001 449.636 C 635.3169222027415 449.8748714422301 637.1756736735771 450.3951754585302 638.9276400000001 451.17990000000003 L 648.0059100000001 454.72117000000003 C 650.35503 455.63751 652.9278200000001 456.75996000000004 653.9471800000001 459.06625 C 654.8932800000001 461.20680000000004 654.1874100000001 463.67891000000003 653.4728700000002 465.90748 L 650.0763400000002 476.50078 C 649.7001306616502 474.1032228266563 649.0544623469211 471.75579914729553 648.1516000000001 469.5031 C 647.2340005227286 467.2352944720046 645.5759322174614 465.34477044557997 643.4472100000002 464.13917000000004 C 641.0891200000002 462.92947000000004 638.3097600000002 462.95452000000006 635.6625500000001 463.08192 C 631.9134100000001 463.26235 627.8370300000001 463.73934 625.1732400000001 466.38373 C 623.7591914729652 467.8855072571644 622.8005119787998 469.75784448480744 622.4086800000001 471.78302 C 622.0230278522904 473.7973775883768 621.8289154289422 475.8437177598869 621.8289400000001 477.89466000000004 C 620.2915196080113 475.2519263815904 618.9964498196034 472.47546338164807 617.9595800000001 469.59925000000004 C 617.1066678458055 467.4575988544659 616.6206435331351 465.1875640655629 616.52191 462.88444000000004 C 616.4327908892769 460.56159806887155 617.2034964126185 458.2874866118764 618.68649 456.49744000000004 C 620.2220962158757 454.71314839571426 622.6362777358431 453.9533285559636 624.917 454.53650000000005 Z" stroke-linecap="round" />
</g>
<g transform="matrix(1.21 0 0 1.35 633.59 175.58)" id="Egrs4IsHFgdFFilglRQmb"  >
<path style="stroke: none; stroke-width: 1; stroke-dasharray: none; stroke-linecap: butt; stroke-dashoffset: 0; stroke-linejoin: miter; stroke-miterlimit: 4; fill: rgb(252,195,29); fill-rule: nonzero; opacity: 1;" vector-effect="non-scaling-stroke"  transform=" translate(-637.45, -505.36)" d="M 668.183 506.3247 C 667.9163887331831 505.3657173357496 667.1005894720134 504.6602063843173 666.1131799999999 504.5347 C 666.081210808683 504.5124558825933 666.0477671159592 504.49240971312855 666.01308 504.4747 L 645.28167 492.8565 C 644.0518793711517 492.16737598362994 642.4975756172639 492.56745723149527 641.75334 493.7647 L 636.0834199999999 502.94476000000003 L 627.54342 494.40476 L 627.4076799999999 494.26895 C 626.5029299016328 493.36429709498236 625.079263623295 493.23979386418216 624.03122 493.97367 L 606.99313 505.90476 C 606.96335 505.90476 606.9330699999999 505.91476 606.90329 505.91476 C 605.2234425924092 506.19475362146864 603.9636009132571 507.60414921934273 603.87301 509.30476 L 603.43307 518.19476 L 671.47307 518.19476 Z" stroke-linecap="round" />
</g>
<g transform="matrix(1.21 0 0 1.35 629.81 195.7)" id="0QAUbU1lJZfE5Ju9yU3zg"  >
<path style="stroke: none; stroke-width: 1; stroke-dasharray: none; stroke-linecap: butt; stroke-dashoffset: 0; stroke-linejoin: miter; stroke-miterlimit: 4; fill: rgb(63,61,86); fill-rule: nonzero; opacity: 1;" vector-effect="non-scaling-stroke"  transform=" translate(-634.31, -520.27)" d="M 706.1577 516.81382 L 693.03042 516.81382 C 693.030414477229 516.0506641746072 692.4117558253929 515.4320055227711 691.6486000000001 515.432 L 687.5031500000001 515.432 C 686.7399964621857 515.432011045389 686.1213410453892 516.0506664621855 686.1213300000002 516.81382 L 681.9758800000002 516.81382 C 681.9758689546112 516.0506664621855 681.3572135378147 515.432011045389 680.5940600000002 515.432 L 676.4486 515.432 C 675.6854480798531 515.4320110455055 675.0667955226829 516.050668079793 675.0667900000001 516.81382 L 670.9213300000001 516.81382 C 670.9213244772291 516.0506641746072 670.302665825393 515.4320055227711 669.5395100000002 515.432 L 665.3940600000002 515.432 C 664.6309064621857 515.432011045389 664.0122510453892 516.0506664621855 664.0122400000002 516.81382 L 659.8667900000003 516.81382 C 659.8667789552004 516.0506781775209 659.2481418220594 515.4320276131683 658.485 515.432 L 654.33954 515.432 C 653.5763880798531 515.4320110455055 652.9577355226829 516.050668079793 652.9577300000001 516.81382 L 648.8122700000001 516.81382 C 648.8122644772291 516.0506641746072 648.193605825393 515.4320055227711 647.4304500000002 515.432 L 643.285 515.432 C 642.5218441746072 515.4320055227711 641.9031855227711 516.0506641746072 641.90318 516.81382 L 637.7577 516.81382 C 637.757688954611 516.0506664621855 637.1390335378145 515.432011045389 636.37588 515.432 L 632.2304200000001 515.432 C 631.4672664621856 515.432011045389 630.8486110453891 516.0506664621855 630.8486000000001 516.81382 L 626.7031500000002 516.81382 C 626.7031444772291 516.0506641746072 626.084485825393 515.4320055227711 625.3213300000002 515.432 L 621.1758800000002 515.432 C 620.4127241746074 515.4320055227711 619.7940655227713 516.0506641746072 619.7940600000003 516.81382 L 615.6486 516.81382 C 615.6485944773171 516.050668079793 615.0299419201469 515.4320110455055 614.26679 515.432 L 610.1213300000001 515.432 C 609.3581764621856 515.432011045389 608.7395210453891 516.0506664621855 608.7395100000001 516.81382 L 604.5940600000001 516.81382 C 604.5940489546111 516.0506664621855 603.9753935378146 515.432011045389 603.2122400000002 515.432 L 599.0667900000002 515.432 C 598.3036341746074 515.4320055227711 597.6849755227713 516.0506641746072 597.6849700000002 516.81382 L 593.5395100000003 516.81382 C 593.5395044773175 516.050668079793 592.9208519201472 515.4320110455055 592.1577000000003 515.432 L 588.0122400000004 515.432 C 587.2490864621859 515.432011045389 586.6304310453894 516.0506664621855 586.6304200000004 516.81382 L 582.485 516.81382 C 582.484988954611 516.0506664621855 581.8663335378145 515.432011045389 581.1031800000001 515.432 L 576.9577 515.432 C 576.1945441746072 515.4320055227711 575.5758855227712 516.0506641746072 575.5758800000001 516.81382 L 562.4486 516.81382 C 560.1616424156831 516.8173719932937 558.3095785227172 518.6723146572915 558.3095785227172 520.9592749999999 C 558.3095785227172 523.2462353427085 560.1616424156831 525.1011780067063 562.4486 525.10473 L 706.1577 525.10473 C 708.4471715776098 525.10473 710.3031550000001 523.2487465776098 710.3031550000001 520.9592749999999 C 710.3031550000001 518.6698034223901 708.4471715776098 516.81382 706.1577 516.81382 Z" stroke-linecap="round" />
</g>
<g transform="matrix(1.21 0 0 1.35 467.32 177.12)" id="Dy_MxeX8u3lPlIrcdCvg8"  >
<path style="stroke: none; stroke-width: 1; stroke-dasharray: none; stroke-linecap: butt; stroke-dashoffset: 0; stroke-linejoin: miter; stroke-miterlimit: 4; fill: rgb(242,242,242); fill-rule: nonzero; opacity: 1;" vector-effect="non-scaling-stroke"  transform=" translate(-499.47, -506.5)" d="M 541.07906 492.73994 L 541.07906 520.26566 L 472.11681 520.26566 C 467.0856147043543 520.4407333462132 462.3598299509579 517.8565104735218 459.7923305402063 513.526207533164 C 457.2248311294547 509.19590459280624 457.2248311294547 503.80969540719383 459.79233054020625 499.47939246683603 C 462.3598299509579 495.1490895264783 467.0856147043543 492.5648666537869 472.11681 492.73994000000005 Z" stroke-linecap="round" />
</g>
<g transform="matrix(1.21 0 0 1.35 467.45 177.27)" id="sCR39OgZvU03MQJIGLn2A"  >
<path style="stroke: none; stroke-width: 1; stroke-dasharray: none; stroke-linecap: butt; stroke-dashoffset: 0; stroke-linejoin: miter; stroke-miterlimit: 4; fill: rgb(40,88,235); fill-rule: nonzero; opacity: 1;" vector-effect="non-scaling-stroke"  transform=" translate(-499.58, -506.61)" d="M 542.773 520.05392 C 542.7727737309763 520.6385190696016 542.2989190696017 521.1123737309762 541.71432 521.1125999999999 L 470.88852 521.1125999999999 C 462.87821788696294 521.1125999999999 456.384585 514.618967113037 456.384585 506.6086649999999 C 456.384585 498.59836288696283 462.87821788696294 492.1047299999999 470.88852 492.1047299999999 L 541.71432 492.1047299999999 C 542.2990128189509 492.1047299999999 542.773 492.57871718104906 542.773 493.1634099999999 C 542.773 493.74810281895077 542.2990128189509 494.2220899999999 541.71432 494.2220899999999 L 470.88852 494.2220899999999 C 464.0519494595836 494.2282327483482 458.51306950018915 499.7720916999141 458.51306950018915 506.608665 C 458.51306950018915 513.4452383000857 464.0519494595836 518.9890972516516 470.88852 518.99524 L 541.71432 518.99524 C 542.2989167841265 518.9954717835933 542.7727682164067 519.4693232158735 542.773 520.05392 Z" stroke-linecap="round" />
</g>
<g transform="matrix(1.21 0 0 1.35 472.79 166.84)" id="TpDL4TsskNZ2r9MUVi_Zc"  >
<path style="stroke: none; stroke-width: 1; stroke-dasharray: none; stroke-linecap: butt; stroke-dashoffset: 0; stroke-linejoin: miter; stroke-miterlimit: 4; fill: rgb(204,204,204); fill-rule: nonzero; opacity: 1;" vector-effect="non-scaling-stroke"  transform=" translate(-504.02, -498.88)" d="M 541.07906 499.092 L 466.97135 499.092 C 466.8953576929614 499.0925222468948 466.8249133754304 499.0522803902466 466.786765663602 498.98655478219985 C 466.74861795177355 498.9208291741531 466.74861795177355 498.8397008258469 466.786765663602 498.7739752178001 C 466.8249133754304 498.70824960975335 466.8953576929614 498.66800775310514 466.97135 498.66853 L 541.07906 498.66853 C 541.1954301641861 498.66932973827966 541.2893448797307 498.76389208779955 541.2893448797307 498.88026499999995 C 541.2893448797307 498.9966379122004 541.1954301641861 499.0912002617203 541.07906 499.092 Z" stroke-linecap="round" />
</g>
<g transform="matrix(1.21 0 0 1.35 472.79 173.69)" id="283Bcgqjj09emymzZ4MAh"  >
<path style="stroke: none; stroke-width: 1; stroke-dasharray: none; stroke-linecap: butt; stroke-dashoffset: 0; stroke-linejoin: miter; stroke-miterlimit: 4; fill: rgb(204,204,204); fill-rule: nonzero; opacity: 1;" vector-effect="non-scaling-stroke"  transform=" translate(-504.02, -503.96)" d="M 541.07906 504.1737 L 466.97135 504.1737 C 466.8953576929614 504.17422224689483 466.8249133754304 504.1339803902466 466.786765663602 504.06825478219986 C 466.74861795177355 504.0025291741531 466.74861795177355 503.9214008258469 466.786765663602 503.8556752178001 C 466.8249133754304 503.78994960975336 466.8953576929614 503.74970775310516 466.97135 503.75023 L 541.07906 503.75023 C 541.1954301641861 503.75102973827967 541.2893448797307 503.84559208779956 541.2893448797307 503.96196499999996 C 541.2893448797307 504.0783379122004 541.1954301641861 504.1729002617203 541.07906 504.1737 Z" stroke-linecap="round" />
</g>
<g transform="matrix(1.21 0 0 1.35 472.79 180.55)" id="q6FRecXOxdLfms6UCZtLo"  >
<path style="stroke: none; stroke-width: 1; stroke-dasharray: none; stroke-linecap: butt; stroke-dashoffset: 0; stroke-linejoin: miter; stroke-miterlimit: 4; fill: rgb(204,204,204); fill-rule: nonzero; opacity: 1;" vector-effect="non-scaling-stroke"  transform=" translate(-504.02, -509.04)" d="M 541.07906 509.25537 L 466.97135 509.25537 C 466.8953576929614 509.25589224689486 466.8249133754304 509.21565039024665 466.786765663602 509.1499247821999 C 466.74861795177355 509.0841991741531 466.74861795177355 509.0030708258469 466.786765663602 508.93734521780016 C 466.8249133754304 508.8716196097534 466.8953576929614 508.8313777531052 466.97135 508.8319 L 541.07906 508.8319 C 541.1954301641861 508.8326997382797 541.2893448797307 508.9272620877996 541.2893448797307 509.043635 C 541.2893448797307 509.16000791220046 541.1954301641861 509.25457026172035 541.07906 509.25537 Z" stroke-linecap="round" />
</g>
<g transform="matrix(1.21 0 0 1.35 472.79 187.42)" id="BmLPSCSyd5nDUiqN1ppU6"  >
<path style="stroke: none; stroke-width: 1; stroke-dasharray: none; stroke-linecap: butt; stroke-dashoffset: 0; stroke-linejoin: miter; stroke-miterlimit: 4; fill: rgb(204,204,204); fill-rule: nonzero; opacity: 1;" vector-effect="non-scaling-stroke"  transform=" translate(-504.02, -514.13)" d="M 541.07906 514.337 L 466.97135 514.337 C 466.89535769296043 514.3375222468964 466.8249133754279 514.2972803902485 466.78676566359854 514.2315547822011 C 466.7486179517692 514.1658291741537 466.7486179517692 514.0847008258463 466.78676566359854 514.0189752177989 C 466.8249133754279 513.9532496097515 466.89535769296043 513.9130077531037 466.97135 513.91353 L 541.07906 513.91353 C 541.1954301641845 513.9143297382819 541.2893448797266 514.0088920878012 541.2893448797266 514.125265 C 541.2893448797266 514.2416379121988 541.1954301641845 514.3362002617181 541.07906 514.337 Z" stroke-linecap="round" />
</g>
<g transform="matrix(1.21 0 0 1.35 451.65 137.99)" id="iFA8jBc9Udg14WyGND6ov"  >
<path style="stroke: none; stroke-width: 1; stroke-dasharray: none; stroke-linecap: butt; stroke-dashoffset: 0; stroke-linejoin: miter; stroke-miterlimit: 4; fill: rgb(242,242,242); fill-rule: nonzero; opacity: 1;" vector-effect="non-scaling-stroke"  transform=" translate(-486.47, -477.5)" d="M 528.07906 463.73994 L 528.07906 491.26565999999997 L 459.11681 491.26565999999997 C 454.0856147043543 491.4407333462131 449.3598299509579 488.8565104735218 446.7923305402063 484.526207533164 C 444.2248311294547 480.1959045928062 444.2248311294547 474.8096954071938 446.79233054020625 470.479392466836 C 449.3598299509579 466.1490895264782 454.0856147043543 463.56486665378685 459.11681 463.73994 Z" stroke-linecap="round" />
</g>
<g transform="matrix(1.21 0 0 1.35 451.78 138.14)" id="ql9F_luI_KT5_bY6PqAbU"  >
<path style="stroke: none; stroke-width: 1; stroke-dasharray: none; stroke-linecap: butt; stroke-dashoffset: 0; stroke-linejoin: miter; stroke-miterlimit: 4; fill: rgb(63,61,86); fill-rule: nonzero; opacity: 1;" vector-effect="non-scaling-stroke"  transform=" translate(-486.58, -477.61)" d="M 529.773 491.05392 C 529.7727737309763 491.63851906960167 529.2989190696017 492.1123737309763 528.71432 492.1126 L 457.88852 492.1126 C 449.87821788696294 492.1126 443.384585 485.61896711303706 443.384585 477.608665 C 443.384585 469.5983628869629 449.87821788696294 463.10472999999996 457.88852 463.10472999999996 L 528.71432 463.10472999999996 C 529.2990128189509 463.10472999999996 529.773 463.5787171810491 529.773 464.16340999999994 C 529.773 464.7481028189508 529.2990128189509 465.22209 528.71432 465.22209 L 457.88852 465.22209 C 451.0519494595957 465.2282327483653 445.51306950022 470.7720916999262 445.51306950022 477.608665 C 445.51306950022 484.44523830007375 451.0519494595957 489.98909725163463 457.88852 489.99523999999997 L 528.71432 489.99523999999997 C 529.2989167841265 489.99547178359336 529.7727682164067 490.46932321587354 529.773 491.05392 Z" stroke-linecap="round" />
</g>
<g transform="matrix(1.21 0 0 1.35 457.13 127.7)" id="e3Cwet7Ztj6UER5ALTeNJ"  >
<path style="stroke: none; stroke-width: 1; stroke-dasharray: none; stroke-linecap: butt; stroke-dashoffset: 0; stroke-linejoin: miter; stroke-miterlimit: 4; fill: rgb(204,204,204); fill-rule: nonzero; opacity: 1;" vector-effect="non-scaling-stroke"  transform=" translate(-491.02, -469.88)" d="M 528.07906 470.092 L 453.97135 470.092 C 453.8953576929614 470.0925222468948 453.8249133754304 470.0522803902466 453.786765663602 469.98655478219985 C 453.74861795177355 469.9208291741531 453.74861795177355 469.8397008258469 453.786765663602 469.7739752178001 C 453.8249133754304 469.70824960975335 453.8953576929614 469.66800775310514 453.97135 469.66853 L 528.07906 469.66853 C 528.1954301641861 469.66932973827966 528.2893448797307 469.76389208779955 528.2893448797307 469.88026499999995 C 528.2893448797307 469.9966379122004 528.1954301641861 470.0912002617203 528.07906 470.092 Z" stroke-linecap="round" />
</g>
<g transform="matrix(1.21 0 0 1.35 457.13 134.55)" id="XUEWdg4VtiCI_GY7RLTG_"  >
<path style="stroke: none; stroke-width: 1; stroke-dasharray: none; stroke-linecap: butt; stroke-dashoffset: 0; stroke-linejoin: miter; stroke-miterlimit: 4; fill: rgb(204,204,204); fill-rule: nonzero; opacity: 1;" vector-effect="non-scaling-stroke"  transform=" translate(-491.02, -474.96)" d="M 528.07906 475.1737 L 453.97135 475.1737 C 453.8953576929614 475.17422224689483 453.8249133754304 475.1339803902466 453.786765663602 475.06825478219986 C 453.74861795177355 475.0025291741531 453.74861795177355 474.9214008258469 453.786765663602 474.8556752178001 C 453.8249133754304 474.78994960975336 453.8953576929614 474.74970775310516 453.97135 474.75023 L 528.07906 474.75023 C 528.1954301641861 474.75102973827967 528.2893448797307 474.84559208779956 528.2893448797307 474.96196499999996 C 528.2893448797307 475.0783379122004 528.1954301641861 475.1729002617203 528.07906 475.1737 Z" stroke-linecap="round" />
</g>
<g transform="matrix(1.21 0 0 1.35 457.13 141.41)" id="T2BsjIi5pQGz3HsV65d7J"  >
<path style="stroke: none; stroke-width: 1; stroke-dasharray: none; stroke-linecap: butt; stroke-dashoffset: 0; stroke-linejoin: miter; stroke-miterlimit: 4; fill: rgb(204,204,204); fill-rule: nonzero; opacity: 1;" vector-effect="non-scaling-stroke"  transform=" translate(-491.02, -480.04)" d="M 528.07906 480.25537 L 453.97135 480.25537 C 453.8953576929614 480.25589224689486 453.8249133754304 480.21565039024665 453.786765663602 480.1499247821999 C 453.74861795177355 480.0841991741531 453.74861795177355 480.0030708258469 453.786765663602 479.93734521780016 C 453.8249133754304 479.8716196097534 453.8953576929614 479.8313777531052 453.97135 479.8319 L 528.07906 479.8319 C 528.1954301641861 479.8326997382797 528.2893448797307 479.9272620877996 528.2893448797307 480.043635 C 528.2893448797307 480.16000791220046 528.1954301641861 480.25457026172035 528.07906 480.25537 Z" stroke-linecap="round" />
</g>
<g transform="matrix(1.21 0 0 1.35 457.13 148.28)" id="r8rHNg3524e4EUYNRJR0E"  >
<path style="stroke: none; stroke-width: 1; stroke-dasharray: none; stroke-linecap: butt; stroke-dashoffset: 0; stroke-linejoin: miter; stroke-miterlimit: 4; fill: rgb(204,204,204); fill-rule: nonzero; opacity: 1;" vector-effect="non-scaling-stroke"  transform=" translate(-491.02, -485.13)" d="M 528.07906 485.337 L 453.97135 485.337 C 453.8953576929614 485.3375222468948 453.8249133754304 485.2972803902466 453.786765663602 485.23155478219985 C 453.74861795177355 485.1658291741531 453.74861795177355 485.0847008258469 453.786765663602 485.0189752178001 C 453.8249133754304 484.95324960975336 453.8953576929614 484.91300775310515 453.97135 484.91353 L 528.07906 484.91353 C 528.1954301641861 484.91432973827966 528.2893448797307 485.00889208779955 528.2893448797307 485.12526499999996 C 528.2893448797307 485.2416379122004 528.1954301641861 485.3362002617203 528.07906 485.337 Z" stroke-linecap="round" />
</g>
<g transform="matrix(1.21 0 0 1.35 538.82 308.83)" id="XY1nkuxV568AG77ok4aFH"  >
<path style="stroke: none; stroke-width: 1; stroke-dasharray: none; stroke-linecap: butt; stroke-dashoffset: 0; stroke-linejoin: miter; stroke-miterlimit: 4; fill: rgb(204,204,204); fill-rule: nonzero; opacity: 1;" vector-effect="non-scaling-stroke"  transform=" translate(-558.8, -604.1)" d="M 608.30315 618.10473 L 608.30315 594.10473 C 608.3031058189114 591.8956093013418 606.5122706986582 590.1047741810886 604.30315 590.10473 L 513.30315 590.10473 C 511.09402930134166 590.1047741810886 509.3031941810885 591.8956093013418 509.30314999999996 594.10473 L 509.30314999999996 618.10473 Z" stroke-linecap="round" />
</g>
<g transform="matrix(1.21 0 0 1.35 538.82 360.78)" id="FDejxX2wEwJ_JDUzsYWIy"  >
<path style="stroke: none; stroke-width: 1; stroke-dasharray: none; stroke-linecap: butt; stroke-dashoffset: 0; stroke-linejoin: miter; stroke-miterlimit: 4; fill: rgb(204,204,204); fill-rule: nonzero; opacity: 1;" vector-effect="non-scaling-stroke"  transform=" translate(-49.5, -15.5)" d="M 0 31 L 0 0 L 99 0 L 99 31 z" stroke-linecap="round" />
</g>
<g transform="matrix(1.21 0 0 1.35 538.82 412.73)" id="mdH44uADfaM2GwUumn1eB"  >
<path style="stroke: none; stroke-width: 1; stroke-dasharray: none; stroke-linecap: butt; stroke-dashoffset: 0; stroke-linejoin: miter; stroke-miterlimit: 4; fill: rgb(204,204,204); fill-rule: nonzero; opacity: 1;" vector-effect="non-scaling-stroke"  transform=" translate(-558.8, -681.1)" d="M 509.30315 667.10473 L 509.30315 691.10473 C 509.30319418108854 693.3138506986583 511.09402930134166 695.1046858189114 513.30315 695.10473 L 604.30315 695.10473 C 606.5122706986582 695.1046858189114 608.3031058189114 693.3138506986583 608.30315 691.10473 L 608.30315 667.10473 Z" stroke-linecap="round" />
</g>
<g transform="matrix(1.21 0 0 1.35 538.21 310.17)" id="zWBDUME9uSP3W0GmJI4XW"  >
<path style="stroke: none; stroke-width: 1; stroke-dasharray: none; stroke-linecap: butt; stroke-dashoffset: 0; stroke-linejoin: miter; stroke-miterlimit: 4; fill: rgb(255,255,255); fill-rule: nonzero; opacity: 1;" vector-effect="non-scaling-stroke"  transform=" translate(-3, -3)" d="M 0 3 C 0 1.34315 1.34315 0 3 0 C 4.65685 0 6 1.34315 6 3 C 6 4.65685 4.65685 6 3 6 C 1.34315 6 0 4.65685 0 3 z" stroke-linecap="round" />
</g>
<g transform="matrix(1.21 0 0 1.35 538.21 364.15)" id="Rt41CePybuMVfkhsHj2pY"  >
<path style="stroke: none; stroke-width: 1; stroke-dasharray: none; stroke-linecap: butt; stroke-dashoffset: 0; stroke-linejoin: miter; stroke-miterlimit: 4; fill: rgb(255,255,255); fill-rule: nonzero; opacity: 1;" vector-effect="non-scaling-stroke"  transform=" translate(-3, -3)" d="M 0 3 C 0 1.34315 1.34315 0 3 0 C 4.65685 0 6 1.34315 6 3 C 6 4.65685 4.65685 6 3 6 C 1.34315 6 0 4.65685 0 3 z" stroke-linecap="round" />
</g>
<g transform="matrix(1.21 0 0 1.35 538.4 416.99)" id="e3EoKo4w_2W11cNvGRKot"  >
<path style="stroke: none; stroke-width: 1; stroke-dasharray: none; stroke-linecap: butt; stroke-dashoffset: 0; stroke-linejoin: miter; stroke-miterlimit: 4; fill: rgb(255,255,255); fill-rule: nonzero; opacity: 1;" vector-effect="non-scaling-stroke"  transform=" translate(-3, -3)" d="M 0 3 C 0 1.34315 1.34315 0 3 0 C 4.65685 0 6 1.34315 6 3 C 6 4.65685 4.65685 6 3 6 C 1.34315 6 0 4.65685 0 3 z" stroke-linecap="round" />
</g>
<g transform="matrix(1.21 0 0 1.35 534.8 271.58)" id="snAGEC5vS4DPvIo73yXi7"  >
<path style="stroke: none; stroke-width: 1; stroke-dasharray: none; stroke-linecap: butt; stroke-dashoffset: 0; stroke-linejoin: miter; stroke-miterlimit: 4; fill: rgb(242,242,242); fill-rule: nonzero; opacity: 1;" vector-effect="non-scaling-stroke"  transform=" translate(-555.47, -576.5)" d="M 597.07906 562.73994 L 597.07906 590.26566 L 528.11681 590.26566 C 523.0856147043544 590.4407333462132 518.3598299509579 587.8565104735218 515.7923305402063 583.526207533164 C 513.2248311294546 579.1959045928063 513.2248311294546 573.8096954071939 515.7923305402063 569.4793924668361 C 518.3598299509579 565.1490895264783 523.0856147043543 562.5648666537869 528.11681 562.73994 Z" stroke-linecap="round" />
</g>
<g transform="matrix(1.21 0 0 1.35 534.92 271.73)" id="aMVuWG3_rm8n3ENLut5ub"  >
<path style="stroke: none; stroke-width: 1; stroke-dasharray: none; stroke-linecap: butt; stroke-dashoffset: 0; stroke-linejoin: miter; stroke-miterlimit: 4; fill: rgb(63,61,86); fill-rule: nonzero; opacity: 1;" vector-effect="non-scaling-stroke"  transform=" translate(-555.57, -576.61)" d="M 598.773 590.05392 C 598.7727737309763 590.6385190696016 598.2989190696017 591.1123737309762 597.71432 591.1125999999999 L 526.8885200000001 591.1125999999999 C 521.7038945795333 591.116905013319 516.9112602168778 588.3534125002634 514.3177039618553 583.8641113034487 C 511.72414770683264 579.3748101066338 511.72414770683264 573.842519893366 514.3177039618553 569.3532186965512 C 516.9112602168778 564.8639174997364 521.7038945795334 562.1004249866809 526.8885200000001 562.1047299999999 L 597.71432 562.1047299999999 C 598.2990127410214 562.1047301102087 598.7729998004493 562.5787172589785 598.7729998004493 563.1634099999999 C 598.7729998004493 563.7481027410213 598.2990127410214 564.222089889791 597.71432 564.2220899999999 L 526.8885200000001 564.2220899999999 C 520.0519494595958 564.2282327483653 514.5130695002201 569.772091699926 514.5130695002201 576.6086649999999 C 514.5130695002201 583.4452383000737 520.0519494595958 588.9890972516345 526.8885200000001 588.9952399999999 L 597.71432 588.9952399999999 C 598.2989167841265 588.9954717835932 598.7727682164067 589.4693232158735 598.773 590.05392 Z" stroke-linecap="round" />
</g>
<g transform="matrix(1.21 0 0 1.35 540.29 261.3)" id="kEb2zQdWppdDn8AZ0i3gC"  >
<path style="stroke: none; stroke-width: 1; stroke-dasharray: none; stroke-linecap: butt; stroke-dashoffset: 0; stroke-linejoin: miter; stroke-miterlimit: 4; fill: rgb(204,204,204); fill-rule: nonzero; opacity: 1;" vector-effect="non-scaling-stroke"  transform=" translate(-560.02, -568.88)" d="M 597.07906 569.092 L 522.97135 569.092 C 522.8953576929605 569.0925222468964 522.824913375428 569.0522803902485 522.7867656635987 568.9865547822011 C 522.7486179517692 568.9208291741537 522.7486179517692 568.8397008258463 522.7867656635987 568.7739752177989 C 522.824913375428 568.7082496097515 522.8953576929605 568.6680077531037 522.97135 568.66853 L 597.07906 568.66853 C 597.1954301641845 568.6693297382819 597.2893448797266 568.7638920878012 597.2893448797266 568.880265 C 597.2893448797266 568.9966379121988 597.1954301641845 569.0912002617181 597.07906 569.092 Z" stroke-linecap="round" />
</g>
<g transform="matrix(1.21 0 0 1.35 540.29 268.15)" id="FLYEvpxuTMHEw8Ye2U6eH"  >
<path style="stroke: none; stroke-width: 1; stroke-dasharray: none; stroke-linecap: butt; stroke-dashoffset: 0; stroke-linejoin: miter; stroke-miterlimit: 4; fill: rgb(204,204,204); fill-rule: nonzero; opacity: 1;" vector-effect="non-scaling-stroke"  transform=" translate(-560.02, -573.96)" d="M 597.07906 574.1737 L 522.97135 574.1737 C 522.8953576929605 574.1742222468964 522.824913375428 574.1339803902486 522.7867656635987 574.0682547822012 C 522.7486179517692 574.0025291741538 522.7486179517692 573.9214008258464 522.7867656635987 573.855675217799 C 522.824913375428 573.7899496097516 522.8953576929605 573.7497077531037 522.97135 573.7502300000001 L 597.07906 573.7502300000001 C 597.1954301641845 573.751029738282 597.2893448797266 573.8455920878013 597.2893448797266 573.9619650000001 C 597.2893448797266 574.0783379121989 597.1954301641845 574.1729002617182 597.07906 574.1737 Z" stroke-linecap="round" />
</g>
<g transform="matrix(1.21 0 0 1.35 540.29 275.01)" id="-bXWLWEyISxED_ZNEZFUG"  >
<path style="stroke: none; stroke-width: 1; stroke-dasharray: none; stroke-linecap: butt; stroke-dashoffset: 0; stroke-linejoin: miter; stroke-miterlimit: 4; fill: rgb(204,204,204); fill-rule: nonzero; opacity: 1;" vector-effect="non-scaling-stroke"  transform=" translate(-560.02, -579.04)" d="M 597.07906 579.25537 L 522.97135 579.25537 C 522.8953576929605 579.2558922468963 522.824913375428 579.2156503902485 522.7867656635987 579.1499247822011 C 522.7486179517692 579.0841991741537 522.7486179517692 579.0030708258463 522.7867656635987 578.9373452177989 C 522.824913375428 578.8716196097515 522.8953576929605 578.8313777531037 522.97135 578.8319 L 597.07906 578.8319 C 597.1954301641845 578.8326997382819 597.2893448797266 578.9272620878012 597.2893448797266 579.043635 C 597.2893448797266 579.1600079121988 597.1954301641845 579.2545702617181 597.07906 579.25537 Z" stroke-linecap="round" />
</g>
<g transform="matrix(1.21 0 0 1.35 540.29 281.88)" id="25pZ32a5sPKf3hg2WKM2C"  >
<path style="stroke: none; stroke-width: 1; stroke-dasharray: none; stroke-linecap: butt; stroke-dashoffset: 0; stroke-linejoin: miter; stroke-miterlimit: 4; fill: rgb(204,204,204); fill-rule: nonzero; opacity: 1;" vector-effect="non-scaling-stroke"  transform=" translate(-560.02, -584.13)" d="M 597.07906 584.337 L 522.97135 584.337 C 522.8953576929605 584.3375222468964 522.824913375428 584.2972803902485 522.7867656635987 584.2315547822011 C 522.7486179517692 584.1658291741537 522.7486179517692 584.0847008258463 522.7867656635987 584.0189752177989 C 522.824913375428 583.9532496097515 522.8953576929605 583.9130077531037 522.97135 583.91353 L 597.07906 583.91353 C 597.1954301641845 583.9143297382819 597.2893448797266 584.0088920878012 597.2893448797266 584.125265 C 597.2893448797266 584.2416379121988 597.1954301641845 584.3362002617181 597.07906 584.337 Z" stroke-linecap="round" />
</g>
<g transform="matrix(1.21 0 0 1.35 757.04 193.45)" id="TDjudxwkfeTpB0BYGcent"  >
<path style="stroke: none; stroke-width: 1; stroke-dasharray: none; stroke-linecap: butt; stroke-dashoffset: 0; stroke-linejoin: miter; stroke-miterlimit: 4; fill: rgb(63,61,86); fill-rule: nonzero; opacity: 1;" vector-effect="non-scaling-stroke"  transform=" translate(-739.89, -518.6)" d="M 759.56292 513.10473 L 728.143 513.10473 C 727.8448244739122 513.1044810534997 727.5505984124127 513.1729168596773 727.28314 513.3047300000001 L 719.35296 517.2747300000001 C 718.8194841012246 517.5014855912233 718.4731206396375 518.0250623083652 718.4731206396375 518.6047300000001 C 718.4731206396375 519.1843976916349 718.8194841012246 519.7079744087769 719.35296 519.9347300000001 L 727.28314 523.9047300000001 C 727.5505984124127 524.0365431403228 727.8448244739122 524.1049789465004 728.143 524.1047300000001 L 759.56293 524.1047300000001 C 760.4639508309889 524.1568638940303 761.239495499351 523.4750095744322 761.30316 522.5747300000002 L 761.30316 514.6347900000002 C 761.2395266998135 513.734482360322 760.4639664013621 513.0525914773123 759.56292 513.10473 Z" stroke-linecap="round" />
</g>
<g transform="matrix(1.21 0 0 1.35 778.02 193.45)" id="INNER4Lk1Ql7BP1urhEQD"  >
<path style="stroke: none; stroke-width: 1; stroke-dasharray: none; stroke-linecap: butt; stroke-dashoffset: 0; stroke-linejoin: miter; stroke-miterlimit: 4; fill: rgb(40,88,235); fill-rule: nonzero; opacity: 1;" vector-effect="non-scaling-stroke"  transform=" translate(-757.3, -518.6)" d="M 761.30315 514.63476 L 761.30315 522.5747 C 761.239485499351 523.474979574432 760.4639408309888 524.1568338940301 759.56292 524.1047 L 753.30315 524.1047 L 753.30315 513.1047 L 759.56292 513.1047 C 760.4639626130017 513.0525671655305 761.2395166742382 513.7344564829973 761.30315 514.63476 Z" stroke-linecap="round" />
</g>
<g transform="matrix(1.21 0 0 1.35 825.86 141.06)" id="vv_X0L_pv2ug3F2HLB7Ey"  >
<path style="stroke: none; stroke-width: 1; stroke-dasharray: none; stroke-linecap: butt; stroke-dashoffset: 0; stroke-linejoin: miter; stroke-miterlimit: 4; fill: rgb(255,184,184); fill-rule: nonzero; opacity: 1;" vector-effect="non-scaling-stroke"  transform=" translate(-796.99, -479.78)" d="M 759.3265 453.70453 C 762.2049762024174 452.4623332018896 765.4766628262684 452.5070457251456 768.3201173456266 453.82744132096536 C 771.1635718649848 455.14783691678514 773.3087323005813 457.61850874444116 774.217 460.61913 C 774.3568523233574 461.0894661512979 774.4638401996835 461.5689552125679 774.53719 462.05413 L 818.47513 483.84229 L 828.6434800000001 477.10375999999997 L 841.2952600000001 491.66907999999995 L 825.76934 504.2789 C 821.9353741620456 507.3684868311293 816.5286301111785 507.57701307476015 812.4680900000001 504.7919 L 767.8889100000001 473.96371 C 767.5571808090284 474.10439121393455 767.2184368657911 474.2279209889763 766.8740200000001 474.33380999999997 C 763.8729128373197 475.24148210739014 760.6271171060022 474.8257357694687 757.9516652671728 473.19096657642336 C 755.2762134283433 471.5561973833781 753.4252429427343 468.85768979429514 752.8635400000001 465.77304999999996 C 752.7812561539243 465.3304076309404 752.7269717339157 464.8830162358387 752.7010100000001 464.43353999999994 C 752.4477193558475 459.8233634329584 755.0910965724745 455.5428014532461 759.3265 453.70453 Z" stroke-linecap="round" />
</g>
<g transform="matrix(1.21 0 0 1.35 836.53 305.12)" id="yTJUG3_He90GyFVmaBLQu"  >
<path style="stroke: none; stroke-width: 1; stroke-dasharray: none; stroke-linecap: butt; stroke-dashoffset: 0; stroke-linejoin: miter; stroke-miterlimit: 4; fill: rgb(63,61,86); fill-rule: nonzero; opacity: 1;" vector-effect="non-scaling-stroke"  transform=" translate(-805.84, -601.35)" d="M 850.84106 587.8533 L 802.83129 587.8533 C 802.83129 589.2333 753.35129 590.3533 753.35129 590.3533 C 752.5746654825351 590.9380720701108 751.8668569849128 591.6090251168742 751.2414299999999 592.3533 C 749.362026983695 594.5948135018638 748.3348041963286 597.4281505010024 748.3410399999999 600.3533 L 748.3410399999999 602.3533 C 748.343578721653 609.2558075264607 753.9385324735392 614.8507612783469 760.8410399999999 614.8533 L 850.8410399999999 614.8533 C 857.7421130342152 614.8473011347464 863.3350411347463 609.2543730342153 863.3410399999999 602.3533 L 863.3410399999999 600.3533 C 863.3314832688936 593.453710837832 857.7406491468683 587.8628677704577 850.84106 587.8533 Z" stroke-linecap="round" />
</g>
<g transform="matrix(1.21 0 0 1.35 835.65 379.34)" id="jostD9Z2H-Iq2tBGHViaG"  >
<path style="stroke: none; stroke-width: 1; stroke-dasharray: none; stroke-linecap: butt; stroke-dashoffset: 0; stroke-linejoin: miter; stroke-miterlimit: 4; fill: rgb(63,61,86); fill-rule: nonzero; opacity: 1;" vector-effect="non-scaling-stroke"  transform=" translate(-6.5, -42)" d="M 0 84 L 0 0 L 13 0 L 13 84 z" stroke-linecap="round" />
</g>
<g transform="matrix(1.21 0 0 1.35 836.26 427.48)" id="1GG29EIS6On7j_aEjkV_8"  >
<path style="stroke: none; stroke-width: 1; stroke-dasharray: none; stroke-linecap: butt; stroke-dashoffset: 0; stroke-linejoin: miter; stroke-miterlimit: 4; fill: rgb(63,61,86); fill-rule: nonzero; opacity: 1;" vector-effect="non-scaling-stroke"  transform=" translate(-805.62, -692.03)" d="M 761.6175 697.9 C 761.6175 699.30463 781.31697 698.44331 805.6175 698.44331 C 829.9180299999999 698.44331 849.6175 699.30463 849.6175 697.9 C 849.6175 696.49537 829.9180299999999 685.35669 805.6175 685.35669 C 781.31697 685.35669 761.6175 696.49539 761.6175 697.9 Z" stroke-linecap="round" />
</g>
<g transform="matrix(1.21 0 0 1.35 786.47 400.67)" id="FqQlgnLpglHrg2Xd8kO4H"  >
<path style="stroke: none; stroke-width: 1; stroke-dasharray: none; stroke-linecap: butt; stroke-dashoffset: 0; stroke-linejoin: miter; stroke-miterlimit: 4; fill: rgb(255,184,184); fill-rule: nonzero; opacity: 1;" vector-effect="non-scaling-stroke"  transform=" translate(-510.31, -472.09)" d="M 519.353 487.993 L 507.09399999999994 487.992 L 501.2609999999999 456.195 L 519.3549999999999 456.19599999999997 z" stroke-linecap="round" />
</g>
<g transform="matrix(1.21 0 0 1.35 777.31 427.43)" id="yExwVkXU6uHlJbD_sM9Gb"  >
<path style="stroke: none; stroke-width: 1; stroke-dasharray: none; stroke-linecap: butt; stroke-dashoffset: 0; stroke-linejoin: miter; stroke-miterlimit: 4; fill: rgb(47,46,65); fill-rule: nonzero; opacity: 1;" vector-effect="non-scaling-stroke"  transform=" translate(-756.71, -691.99)" d="M 776.47983 699.93835 L 736.94931 699.9368900000001 L 736.94931 699.4368900000001 C 736.9492622582952 695.3561518688941 738.5703244504008 691.4425399531252 741.455864559762 688.5570448527639 C 744.3414046691231 685.6715497524026 748.2550418701352 684.0505486059573 752.33578 684.0506600000001 L 752.33678 684.0506600000001 L 776.4805799999999 684.0516600000001 Z" stroke-linecap="round" />
</g>
<g transform="matrix(1.21 0 0 1.35 811.9 321)" id="wd2qe5OY_rpkhlRAGvFos"  >
<path style="stroke: none; stroke-width: 1; stroke-dasharray: none; stroke-linecap: butt; stroke-dashoffset: 0; stroke-linejoin: miter; stroke-miterlimit: 4; fill: rgb(47,46,65); fill-rule: nonzero; opacity: 1;" vector-effect="non-scaling-stroke"  transform=" translate(-785.41, -613.12)" d="M 755.01663 668.33665 L 730.57571 613.529 C 726.3440685015221 603.9495589200692 730.1825645175526 592.7264087367504 739.3943099999999 587.74482 L 792.4077399999999 559.31709 L 816.5988999999998 557.25947 L 838.9135999999999 555.23115 L 839.0744899999999 555.50361 C 839.2802999999999 555.85127 844.0781499999998 564.13838 840.8349899999998 573.22529 C 838.3749899999998 580.1178699999999 831.9760999999999 585.50166 821.8161899999998 589.2272399999999 C 798.1018299999998 597.92256 770.7070599999997 605.3542399999999 760.0298099999998 608.14524 C 759.075340904843 608.3892976948781 758.2706963296152 609.0296749523372 757.8186299999998 609.90501 C 757.3655380781877 610.7696959010444 757.2943756174833 611.7843763732712 757.6223399999998 612.7038399999999 L 780.3288799999998 663.7184799999999 C 780.8095181721109 665.0297852191878 780.6540516642574 666.4899313013606 779.9080811352261 667.6706354980909 C 779.1621106061947 668.8513396948213 777.9102024101863 669.6187524163181 776.5195599999998 669.7477799999999 L 759.553 670.98313 Q 759.33694 671.0036399999999 759.12283 671.0036399999999 C 757.3476704831311 671.0030366266362 755.7389855831694 669.9581906519276 755.01663 668.33665 Z" stroke-linecap="round" />
</g>
<g transform="matrix(1.21 0 0 1.35 793.71 400.67)" id="axvk7gAEjrbM184VG9xax"  >
<path style="stroke: none; stroke-width: 1; stroke-dasharray: none; stroke-linecap: butt; stroke-dashoffset: 0; stroke-linejoin: miter; stroke-miterlimit: 4; fill: rgb(255,184,184); fill-rule: nonzero; opacity: 1;" vector-effect="non-scaling-stroke"  transform=" translate(-516.31, -472.09)" d="M 525.353 487.993 L 513.0939999999999 487.992 L 507.2609999999999 456.195 L 525.3549999999999 456.19599999999997 z" stroke-linecap="round" />
</g>
<g transform="matrix(1.21 0 0 1.35 784.54 427.43)" id="0Z-mah3_JOgl0ozpFFSI_"  >
<path style="stroke: none; stroke-width: 1; stroke-dasharray: none; stroke-linecap: butt; stroke-dashoffset: 0; stroke-linejoin: miter; stroke-miterlimit: 4; fill: rgb(47,46,65); fill-rule: nonzero; opacity: 1;" vector-effect="non-scaling-stroke"  transform=" translate(-762.71, -691.99)" d="M 782.47983 699.93835 L 742.94931 699.9368900000001 L 742.94931 699.4368900000001 C 742.9492622582952 695.3561518688941 744.5703244504008 691.4425399531252 747.455864559762 688.5570448527639 C 750.3414046691231 685.6715497524026 754.2550418701352 684.0505486059573 758.33578 684.0506600000001 L 758.33678 684.0506600000001 L 782.4805799999999 684.0516600000001 Z" stroke-linecap="round" />
</g>
<g transform="matrix(1.21 0 0 1.35 820.34 325.04)" id="6YLUhzDlkL2hJjiak7qcA"  >
<path style="stroke: none; stroke-width: 1; stroke-dasharray: none; stroke-linecap: butt; stroke-dashoffset: 0; stroke-linejoin: miter; stroke-miterlimit: 4; fill: rgb(47,46,65); fill-rule: nonzero; opacity: 1;" vector-effect="non-scaling-stroke"  transform=" translate(-792.41, -616.12)" d="M 762.01663 671.33665 L 737.57571 616.529 C 733.3440685015221 606.9495589200692 737.1825645175526 595.7264087367504 746.3943099999999 590.74482 L 799.4077399999999 562.31709 L 823.5988999999998 560.25947 L 845.9135999999999 558.23115 L 846.0744899999999 558.50361 C 846.2802999999999 558.85127 851.0781499999998 567.13838 847.8349899999998 576.22529 C 845.3749899999998 583.1178699999999 838.9760999999999 588.50166 828.8161899999998 592.2272399999999 C 805.1018299999998 600.92256 777.7070599999997 608.3542399999999 767.0298099999998 611.14524 C 766.075340904843 611.3892976948781 765.2706963296152 612.0296749523372 764.8186299999998 612.90501 C 764.3655380781877 613.7696959010444 764.2943756174833 614.7843763732712 764.6223399999998 615.7038399999999 L 787.3288799999998 666.7184799999999 C 787.8095181721109 668.0297852191878 787.6540516642574 669.4899313013606 786.9080811352261 670.6706354980909 C 786.1621106061947 671.8513396948213 784.9102024101863 672.6187524163181 783.5195599999998 672.7477799999999 L 766.553 673.98313 Q 766.33694 674.0036399999999 766.12283 674.0036399999999 C 764.3476704831311 674.0030366266362 762.7389855831694 672.9581906519276 762.01663 671.33665 Z" stroke-linecap="round" />
</g>
<g transform="matrix(1.21 0 0 1.35 780.19 127.89)" id="ZstuOO6SeMHaIQ4VTNq2O"  >
<path style="stroke: none; stroke-width: 1; stroke-dasharray: none; stroke-linecap: butt; stroke-dashoffset: 0; stroke-linejoin: miter; stroke-miterlimit: 4; fill: rgb(204,204,204); fill-rule: nonzero; opacity: 1;" vector-effect="non-scaling-stroke"  transform=" translate(-759.1, -470.02)" d="M 749.83452 503.90591 C 739.5641080999059 490.2446258301336 731.4449825701428 475.0919655985519 725.75912 458.97418 C 725.07889868706 456.9831651365612 725.9383610767055 454.79224859908305 727.79091 453.7948 L 762.9361700000001 434.96321 C 764.0882942485913 434.34116162515363 765.4629480104726 434.2853604670877 766.6617000000001 434.81198 C 767.8827853660688 435.3425793726886 768.7909241607944 436.40667624955034 769.1230100000001 437.69598 C 773.2136686895564 453.2275626846437 780.9029070513512 467.5781426469612 791.5686400000002 479.58671000000004 C 792.4583855229617 480.57716108751464 792.8414795468242 481.92267626875906 792.6068800000002 483.23325000000006 C 792.3813847661814 484.5230136954366 791.5735345091705 485.63664342923914 790.4174800000002 486.25136000000003 L 755.27223 505.083 C 753.4156668081599 506.0729646047191 751.115473029121 505.5750463458622 749.83452 503.90591 Z" stroke-linecap="round" />
</g>
<g transform="matrix(1.21 0 0 1.35 780.19 127.89)" id="aJhM8EzVLjednixW4ID1S"  >
<path style="stroke: none; stroke-width: 1; stroke-dasharray: none; stroke-linecap: butt; stroke-dashoffset: 0; stroke-linejoin: miter; stroke-miterlimit: 4; fill: rgb(255,255,255); fill-rule: nonzero; opacity: 1;" vector-effect="non-scaling-stroke"  transform=" translate(-759.1, -470.02)" d="M 752.23284 502.10375 C 752.6228918688578 502.5905105107475 753.3039380721738 502.73116441477805 753.85491 502.43874999999997 L 789.0004200000001 483.60675 C 789.3463936665761 483.42641844451487 789.5879172557804 483.0944336158099 789.653 482.70975 C 789.7273001363552 482.3036228802011 789.6070087763081 481.8861452379307 789.328 481.58182 C 778.3479237012607 469.21949888677136 770.4321291101066 454.4460676372061 766.2210699999999 438.45682 C 766.1222751809341 438.0563420837558 765.841771982907 437.72516729253306 765.4630099999999 437.56182 C 765.1061604721563 437.4022240824597 764.6951196556662 437.4192158179277 764.3526599999999 437.60772000000003 L 729.20793 456.4392 C 728.6586998273567 456.73596560521344 728.3984372791623 457.3816067489065 728.58831 457.97631 C 734.1724090140885 473.80559332549376 742.1462301347706 488.6870188845398 752.2328399999999 502.10374999999993 Z" stroke-linecap="round" />
</g>
<g transform="matrix(1.21 0 0 1.35 888.7 158.26)" id="Lgk8DtZFi0kC-sEDN8bce"  >
<path style="stroke: none; stroke-width: 1; stroke-dasharray: none; stroke-linecap: butt; stroke-dashoffset: 0; stroke-linejoin: miter; stroke-miterlimit: 4; fill: rgb(108,99,255); fill-rule: nonzero; opacity: 1;" vector-effect="non-scaling-stroke"  transform=" translate(-849.14, -492.53)" d="M 866.59251 498.88255 L 839.0678499999999 509.34191999999996 L 832.3478499999999 490.67527999999993 C 830.5055569845724 485.5577711693461 832.6177751426324 479.8572735634424 837.3498499999998 477.1757799999999 L 837.3498499999998 477.1757799999999 C 842.1403828290089 474.46113943701107 848.1946119220888 475.64309982388784 851.6123399999998 479.9602299999999 Z" stroke-linecap="round" />
</g>
<g transform="matrix(1.21 0 0 1.35 858.67 201.42)" id="eGVyy2H5kH7olM5HqGSp-"  >
<path style="stroke: none; stroke-width: 1; stroke-dasharray: none; stroke-linecap: butt; stroke-dashoffset: 0; stroke-linejoin: miter; stroke-miterlimit: 4; fill: rgb(40,88,235); fill-rule: nonzero; opacity: 1;" vector-effect="non-scaling-stroke"  transform=" translate(-824.22, -524.51)" d="M 796.58273 572.84256 C 795.4109134082175 572.0136258134149 794.6519887621785 570.7209478428831 794.49923 569.2937300000001 C 790.97384 536.3840600000001 793.42941 510.6296700000001 802.00509 490.55887000000007 C 805.0653350622415 483.54526076605214 811.170076594642 478.32018290238653 818.57199 476.3791800000001 L 840.8215 475.2561300000001 L 840.93673 475.3118000000001 C 851.2462744003751 480.3614009484035 857.0251280106874 491.57359463807 855.156 502.90018 C 847.99975 521.76346 842.0075599999999 541.40311 846.5773899999999 557.24637 C 846.9645730586586 558.5847193177401 846.789850148223 560.0230446425645 846.0935 561.2297699999999 C 845.4181053077708 562.3964733304437 844.2905179362525 563.2321355362342 842.9777799999999 563.5388499999999 L 800.59933 573.6199 C 799.2109691904636 573.9501742752474 797.7476226115597 573.6669701151006 796.58273 572.84256 Z" stroke-linecap="round" />
</g>
<g transform="matrix(1.21 0 0 1.35 869.73 90.59)" id="9Cg5-NzYngh6WZ7ORjiIQ"  >
<path style="stroke: none; stroke-width: 1; stroke-dasharray: none; stroke-linecap: butt; stroke-dashoffset: 0; stroke-linejoin: miter; stroke-miterlimit: 4; fill: rgb(255,184,184); fill-rule: nonzero; opacity: 1;" vector-effect="non-scaling-stroke"  transform=" translate(-24.56, -24.56)" d="M 0 24.56103 C 0 10.99635 10.99635 0 24.56103 0 C 38.12571 0 49.12206 10.99635 49.12206 24.56103 C 49.12206 38.12571 38.12571 49.12206 24.56103 49.12206 C 10.99635 49.12206 0 38.12571 0 24.56103 z" stroke-linecap="round" />
</g>
<g transform="matrix(1.21 0 0 1.35 774.32 118.13)" id="KKXZL_VnOX2KUUiOi534t"  >
<path style="stroke: none; stroke-width: 1; stroke-dasharray: none; stroke-linecap: butt; stroke-dashoffset: 0; stroke-linejoin: miter; stroke-miterlimit: 4; fill: rgb(204,204,204); fill-rule: nonzero; opacity: 1;" vector-effect="non-scaling-stroke"  transform=" translate(-754.22, -462.78)" d="M 765.24342 461.83787 L 746.10182 470.28744 C 744.5860300541678 470.95457784588456 742.8162632569254 470.2687708438186 742.14582 468.75444 L 741.67239 467.68192999999997 C 741.0052521541154 466.1661400541679 741.6910591561814 464.39637325692536 743.20539 463.72592999999995 L 762.34699 455.27635999999995 C 763.8627799458321 454.6092221541154 765.6325467430746 455.2950291561814 766.30299 456.80935999999997 L 766.77642 457.88187 C 767.4435578458846 459.39765994583206 766.7577508438186 461.16742674307466 765.24342 461.83787 Z" stroke-linecap="round" />
</g>
<g transform="matrix(1.21 0 0 1.35 782.75 135.67)" id="p2eP1aY_VtOAqPHPjK8-p"  >
<path style="stroke: none; stroke-width: 1; stroke-dasharray: none; stroke-linecap: butt; stroke-dashoffset: 0; stroke-linejoin: miter; stroke-miterlimit: 4; fill: rgb(204,204,204); fill-rule: nonzero; opacity: 1;" vector-effect="non-scaling-stroke"  transform=" translate(-761.22, -475.78)" d="M 772.24342 474.83787 L 753.10182 483.28744 C 751.5860300541678 483.95457784588456 749.8162632569254 483.2687708438186 749.14582 481.75444 L 748.67239 480.68192999999997 C 748.0052521541154 479.1661400541679 748.6910591561814 477.39637325692536 750.20539 476.72592999999995 L 769.34699 468.27635999999995 C 770.8627799458321 467.6092221541154 772.6325467430746 468.2950291561814 773.30299 469.80935999999997 L 773.77642 470.88187 C 774.4435578458846 472.39765994583206 773.7577508438186 474.16742674307466 772.24342 474.83787 Z" stroke-linecap="round" />
</g>
<g transform="matrix(1.21 0 0 1.35 797.1 167.32)" id="2t9MAZWef6rDkb9JAFNiK"  >
<path style="stroke: none; stroke-width: 1; stroke-dasharray: none; stroke-linecap: butt; stroke-dashoffset: 0; stroke-linejoin: miter; stroke-miterlimit: 4; fill: rgb(255,184,184); fill-rule: nonzero; opacity: 1;" vector-effect="non-scaling-stroke"  transform=" translate(-773.13, -499.24)" d="M 787.00509 525.615 L 744.33078 491.949 C 743.9908642560637 492.06856930831384 743.6450281503951 492.1705905255805 743.29464 492.25466 C 740.2484944590478 492.967191825073 737.0430643235936 492.3523385118115 734.47677 490.56325 C 731.892563718037 488.77230310331277 730.2063915650947 485.9537708203485 729.85031 482.82986 C 729.2611350562171 477.7475397893199 732.2465517614937 472.9278911771429 737.05931 471.19167 C 740.0102331535097 470.1332030917651 743.2725346043992 470.3836972231343 746.0272703403514 471.8802702012465 C 748.7820060763036 473.3768431793588 750.767591521185 475.97738322085036 751.48558 479.02907 C 751.595518460238 479.50721950765677 751.6720367638861 479.992442453694 751.7145800000001 480.48122 L 794.196 504.98856 L 804.76778 498.90213 L 816.47871 514.23413 L 800.06465 525.93335 C 796.1187257838086 528.7225659366203 790.8104095621345 528.5931623228465 787.00508 525.61499 Z" stroke-linecap="round" />
</g>
<g transform="matrix(1.21 0 0 1.35 845.4 168.7)" id="6t4Pvk4Bkaa2wkDLSA0fh"  >
<path style="stroke: none; stroke-width: 1; stroke-dasharray: none; stroke-linecap: butt; stroke-dashoffset: 0; stroke-linejoin: miter; stroke-miterlimit: 4; fill: rgb(40,88,235); fill-rule: nonzero; opacity: 1;" vector-effect="non-scaling-stroke"  transform=" translate(-813.21, -500.26)" d="M 821.686 519.00884 L 797.33731 502.45145999999994 L 808.78019 486.24459999999993 C 811.9172959292601 481.80146791478916 817.7989965524665 480.26438884532854 822.70881 482.60459999999995 L 822.70881 482.60459999999995 C 827.6792984699549 484.9737121390978 830.1813941485347 490.6119924861221 828.60322 495.88719999999995 Z" stroke-linecap="round" />
</g>
<g transform="matrix(1.21 0 0 1.35 896.69 128.89)" id="DxxC79T-iS5Gmqgk_OhAl"  >
<path style="stroke: none; stroke-width: 1; stroke-dasharray: none; stroke-linecap: butt; stroke-dashoffset: 0; stroke-linejoin: miter; stroke-miterlimit: 4; fill: rgb(47,46,65); fill-rule: nonzero; opacity: 1;" vector-effect="non-scaling-stroke"  transform=" translate(-855.77, -470.76)" d="M 824.39127 438.72667 C 818.0785599999999 443.04718 809.78982 447.48841 803.34236 442.88742 C 799.10884 439.86633 797.77499 434.27197 799.49176 429.36256000000003 C 802.57902 420.53399 811.06119 416.64725000000004 819.17228 413.66797 C 829.71669 409.79492000000005 841.19801 406.71373 852.0834 409.48742000000004 C 862.96879 412.2611100000001 872.5889999999999 422.80034000000006 870.62398 433.86035000000004 C 869.0437599999999 442.75458000000003 860.6539799999999 450.15527000000003 861.84498 459.10993 C 863.04365 468.12208000000004 873.17877 472.86582000000004 882.1264699999999 474.47651 C 891.0741699999999 476.0872 901.0868599999999 476.60473 907.51721 483.03171000000003 C 915.7203099999999 491.23051000000004 913.6718599999999 505.88496000000004 905.95307 514.5412600000001 C 898.2342800000001 523.1975600000001 886.58624 527.1213700000001 875.29927 529.7888300000001 C 860.34473 533.3230500000001 844.17022 535.1804400000001 829.96718 529.31505 C 815.76414 523.44966 804.71153 507.66072 808.82592 492.85529 C 810.56383 486.60149 814.65783 481.31619 818.61446 476.17078000000004 C 822.57109 471.02537000000007 826.5775600000001 465.64478 828.08684 459.3319 C 829.34456 454.07117 828.41366 447.96321 824.92502 444.01706 C 823.6232372071797 442.6000300194815 823.3831861567448 440.5054322478039 824.33063 438.83063000000004 Z" stroke-linecap="round" />
</g>
<g transform="matrix(0.47 0 0 0.47 179.53 226.75)" id="lmq_fL1GeV0DDv_QF08QS"  >
<path style="stroke: none; stroke-width: 1; stroke-dasharray: none; stroke-linecap: butt; stroke-dashoffset: 0; stroke-linejoin: miter; stroke-miterlimit: 4; fill: rgb(242,242,242); fill-rule: nonzero; opacity: 1;" vector-effect="non-scaling-stroke"  transform=" translate(-542.17, -430.27)" d="M 578.47505 103.95771 L 555.40662 116.54435000000001 L 271.19846 271.61447 L 248.13 284.2011 C 224.82348885424003 296.95172329929426 216.23635021930644 326.16202807939 228.93449999999999 349.49717 L 440.57765 737.39072 C 453.32820330526124 760.6972674750496 482.5385005295956 769.2844623032535 505.87365 756.58633 L 505.93323 756.55382 L 836.15907 576.37545 L 836.21865 576.34294 C 859.5251586899882 563.5923512041356 868.112313113175 534.3820696846151 855.41418 511.04694 L 643.77106 123.15338 C 631.0205013418451 99.84683694121995 601.8102220092121 91.25962184680542 578.47505 103.95771000000002 Z" stroke-linecap="round" />
</g>
<g transform="matrix(0.47 0 0 0.47 179.53 226.75)" id="M0cDszySNzOiGOVNtZ-LH"  >
<path style="stroke: none; stroke-width: 1; stroke-dasharray: none; stroke-linecap: butt; stroke-dashoffset: 0; stroke-linejoin: miter; stroke-miterlimit: 4; fill: rgb(255,255,255); fill-rule: nonzero; opacity: 1;" vector-effect="non-scaling-stroke"  transform=" translate(-542.17, -430.27)" d="M 585.11115 116.11916 L 557.78815 131.02715999999998 L 282.08828 281.455 L 254.7657 296.36278 C 238.1685281628692 305.442714863675 232.05337307055373 326.2440794638336 241.09605000000002 342.86158 L 452.73916 730.75513 C 461.8191403986469 747.3522538803851 482.62049366711756 753.4673474856056 499.23796000000004 744.42465 L 499.29754 744.39215 L 829.5234 564.21377 L 829.5834 564.18103 C 846.180312330791 555.1010099256507 852.2952730853111 534.2998426500512 843.25266 517.68252 L 631.60954 129.789 C 622.529722068294 113.1919492171781 601.7285978648603 107.07672587974501 585.11115 116.11916 Z" stroke-linecap="round" />
</g>
<g transform="matrix(0.47 0 0 0.47 171.15 147.43)" id="9-UtBOdsvdYF1wMvdk-Wl"  >
<path style="stroke: none; stroke-width: 1; stroke-dasharray: none; stroke-linecap: butt; stroke-dashoffset: 0; stroke-linejoin: miter; stroke-miterlimit: 4; fill: rgb(242,242,242); fill-rule: nonzero; opacity: 1;" vector-effect="non-scaling-stroke"  transform=" translate(-524.25, -263.09)" d="M 589.66653 236.52147 L 466.505 303.72109 C 462.61964364785536 305.8410350122255 457.7513850122255 304.40988635214467 455.63144 300.52453 C 453.5114949877745 296.6391736478554 454.94264364785533 291.77091501222554 458.828 289.65097000000003 L 581.98957 222.45135000000005 C 585.8749263521446 220.33140498777453 590.7431849877745 221.7625536478554 592.86313 225.64791000000002 C 594.9830750122255 229.53326635214466 593.5519263521446 234.40152498777454 589.66657 236.52147000000005 Z" stroke-linecap="round" />
</g>
<g transform="matrix(0.47 0 0 0.47 184 154.94)" id="BOwYKWbS11C0Ckdt6QgjP"  >
<path style="stroke: none; stroke-width: 1; stroke-dasharray: none; stroke-linecap: butt; stroke-dashoffset: 0; stroke-linejoin: miter; stroke-miterlimit: 4; fill: rgb(242,242,242); fill-rule: nonzero; opacity: 1;" vector-effect="non-scaling-stroke"  transform=" translate(-551.71, -278.91)" d="M 631.641 244.43106 L 479.45984 327.46442 C 475.57448364785535 329.58436501222553 470.7062250122255 328.1532163521447 468.58628 324.26786000000004 C 466.4663349877745 320.3825036478554 467.8974836478553 315.51424501222556 471.78283999999996 313.39430000000004 L 623.96403 230.36094000000003 C 627.8493863521446 228.2409949877745 632.7176449877745 229.6721436478554 634.83759 233.5575 C 636.9575350122255 237.44285635214464 635.5263863521446 242.31111498777452 631.64103 244.43106000000003 Z" stroke-linecap="round" />
</g>
<g transform="matrix(0.47 0 0 0.47 106.04 190.75)" id="ZMpnAjZ5pc6eDmBhVqZOp"  >
<path style="stroke: none; stroke-width: 1; stroke-dasharray: none; stroke-linecap: butt; stroke-dashoffset: 0; stroke-linejoin: miter; stroke-miterlimit: 4; fill: rgb(242,242,242); fill-rule: nonzero; opacity: 1;" vector-effect="non-scaling-stroke"  transform=" translate(-385.11, -354.41)" d="M 415.87223 275.74837 L 302.32433000000003 337.70256 C 300.463107125101 338.7186943184384 299.7775404822877 341.0509307015214 300.79282 342.91262 L 349.14436 431.53 C 350.1604001092154 433.391290028311 352.49263909430977 434.07695038406325 354.35436 433.0617 L 467.90225999999996 371.10751 C 469.7634873089197 370.09141024775016 470.44906719362655 367.75918613243886 469.43378999999993 365.89751 L 421.08224999999993 277.28016 C 420.0662185369142 275.4188528357205 417.73398308496417 274.73315586278324 415.87223 275.74837 Z" stroke-linecap="round" />
</g>
<g transform="matrix(0.47 0 0 0.47 189.47 206.46)" id="yf_oy2yvO8tHdFs3gn0l1"  >
<path style="stroke: none; stroke-width: 1; stroke-dasharray: none; stroke-linecap: butt; stroke-dashoffset: 0; stroke-linejoin: miter; stroke-miterlimit: 4; fill: rgb(242,242,242); fill-rule: nonzero; opacity: 1;" vector-effect="non-scaling-stroke"  transform=" translate(-563.41, -387.5)" d="M 650.7763 348.96263 L 483.723 440.11051 C 479.8376436478554 442.2304550122255 474.96938501222553 440.79930635214464 472.84944 436.91395 C 470.7294949877745 433.02859364785536 472.16064364785535 428.1603350122255 476.046 426.04039 L 643.0992699999999 334.89251 C 646.9846263521446 332.7725649877745 651.8528849877745 334.20371364785535 653.9728299999999 338.08907 C 656.0927750122254 341.97442635214463 654.6616263521446 346.8426849877745 650.77627 348.96263 Z" stroke-linecap="round" />
</g>
<g transform="matrix(0.47 0 0 0.47 202.32 213.97)" id="aLQhu7raKkA0DayVxRi3G"  >
<path style="stroke: none; stroke-width: 1; stroke-dasharray: none; stroke-linecap: butt; stroke-dashoffset: 0; stroke-linejoin: miter; stroke-miterlimit: 4; fill: rgb(242,242,242); fill-rule: nonzero; opacity: 1;" vector-effect="non-scaling-stroke"  transform=" translate(-590.88, -403.33)" d="M 692.7508 356.87223 L 496.67791 463.85384 C 492.79255364785536 465.9737850122255 487.9242950122255 464.54263635214465 485.80435 460.65728 C 483.6844049877745 456.7719236478554 485.11555364785534 451.90366501222553 489.00091 449.78372 L 685.07384 342.80211 C 688.9591963521447 340.6821649877745 693.8274549877746 342.11331364785536 695.9474 345.99867 C 698.0673450122255 349.88402635214464 696.6361963521447 354.7522849877745 692.75084 356.87223 Z" stroke-linecap="round" />
</g>
<g transform="matrix(0.47 0 0 0.47 122.42 250.7)" id="jpmxfZpcW6eE_3cyoVoBy"  >
<path style="stroke: none; stroke-width: 1; stroke-dasharray: none; stroke-linecap: butt; stroke-dashoffset: 0; stroke-linejoin: miter; stroke-miterlimit: 4; fill: rgb(242,242,242); fill-rule: nonzero; opacity: 1;" vector-effect="non-scaling-stroke"  transform=" translate(-34, -34)" d="M 0 34 C 0 15.22232 15.22232 0 34 0 C 52.777680000000004 0 68 15.22232 68 34 C 68 52.777680000000004 52.777680000000004 68 34 68 C 15.22232 68 0 52.777680000000004 0 34 z" stroke-linecap="round" />
</g>
<g transform="matrix(0.47 0 0 0.47 272.4 275.42)" id="30P1zOqEGrR3WSET9zXEf"  >
<path style="stroke: none; stroke-width: 1; stroke-dasharray: none; stroke-linecap: butt; stroke-dashoffset: 0; stroke-linejoin: miter; stroke-miterlimit: 4; fill: rgb(230,230,230); fill-rule: nonzero; opacity: 1;" vector-effect="non-scaling-stroke"  transform=" translate(-740.65, -532.85)" d="M 928.81234 263.78816 L 552.494 263.78816 C 525.9276477663357 263.8180680774159 504.3988418341266 285.34692769184227 504.369 311.91328 L 504.369 753.78907 C 504.3988473966796 780.3554102838555 525.9276597533776 801.8842494816702 552.494 801.91413 L 928.81234 801.91413 C 955.3786802466224 801.8842494816702 976.9074926033204 780.3554102838555 976.93734 753.78907 L 976.93734 311.91328 C 976.9074981658733 285.3469276918423 955.3786922336643 263.81806807741583 928.81234 263.78816 Z" stroke-linecap="round" />
</g>
<g transform="matrix(0.47 0 0 0.47 272.4 275.42)" id="gLd-VhhIfsSTtF6FD6qza"  >
<path style="stroke: none; stroke-width: 1; stroke-dasharray: none; stroke-linecap: butt; stroke-dashoffset: 0; stroke-linejoin: miter; stroke-miterlimit: 4; fill: rgb(255,255,255); fill-rule: nonzero; opacity: 1;" vector-effect="non-scaling-stroke"  transform=" translate(-740.65, -532.85)" d="M 928.81283 277.64235 L 552.494 277.64235 C 533.5754652706943 277.66355077730947 518.2442394192744 292.99474531403735 518.2230000000001 311.91328000000004 L 518.2230000000001 753.78907 C 518.2442394192744 772.7076046859627 533.5754652706943 788.0387992226905 552.494 788.06 L 928.81283 788.06 C 947.7311789729697 788.0385897912854 963.062134041277 772.7074692030201 963.0833399999999 753.7891199999999 L 963.0833399999999 311.91328 C 963.0621560906445 292.99491355220846 947.7311961867543 277.6637657607392 928.81283 277.64235 Z" stroke-linecap="round" />
</g>
<g transform="matrix(0.47 0 0 0.47 302.51 201.71)" id="p3PaNX_0hm7ApZ9Bi8VGy"  >
<path style="stroke: none; stroke-width: 1; stroke-dasharray: none; stroke-linecap: butt; stroke-dashoffset: 0; stroke-linejoin: miter; stroke-miterlimit: 4; fill: rgb(40,88,235); fill-rule: nonzero; opacity: 1;" vector-effect="non-scaling-stroke"  transform=" translate(-805, -377.5)" d="M 875.14319 385.51745 L 734.84151 385.51745 C 730.4154365021097 385.51745 726.827395 381.9294084978902 726.827395 377.503335 C 726.827395 373.07726150210976 730.4154365021097 369.48922 734.84151 369.48922 L 875.14319 369.48922 C 878.0084898278077 369.48601931926254 880.6575064956685 371.0128006416138 882.0910811612006 373.49369101120624 C 883.5246558267327 375.9745813807986 883.5246558267327 379.0320886192014 882.0910811612006 381.51297898879375 C 880.6575064956685 383.9938693583862 878.0084898278077 385.52065068073745 875.14319 385.51745 Z" stroke-linecap="round" />
</g>
<g transform="matrix(0.47 0 0 0.47 310.24 214.55)" id="HmKJqMfHY1oauFaw9wgt6"  >
<path style="stroke: none; stroke-width: 1; stroke-dasharray: none; stroke-linecap: butt; stroke-dashoffset: 0; stroke-linejoin: miter; stroke-miterlimit: 4; fill: rgb(40,88,235); fill-rule: nonzero; opacity: 1;" vector-effect="non-scaling-stroke"  transform=" translate(-821.52, -404.55)" d="M 908.20141 412.56508 L 734.84151 412.56508 C 731.9783441572115 412.56508015907434 729.3326697475462 411.0375994571244 727.9010867802313 408.5580251285341 C 726.4695038129162 406.07845079994377 726.4695038129162 403.0234892000563 727.9010867802313 400.543914871466 C 729.3326697475462 398.0643405428757 731.9783441572115 396.53685984092573 734.84151 396.53686000000005 L 908.20141 396.53686000000005 C 912.6274805625835 396.5368602459076 916.215519554745 400.12489943741645 916.215519554745 404.55097 C 916.215519554745 408.9770405625836 912.6274805625835 412.5650797540925 908.20141 412.56508 Z" stroke-linecap="round" />
</g>
<g transform="matrix(0.47 0 0 0.47 224.9 208.13)" id="jLgtRYV4BYKjD6wWjp-mf"  >
<path style="stroke: none; stroke-width: 1; stroke-dasharray: none; stroke-linecap: butt; stroke-dashoffset: 0; stroke-linejoin: miter; stroke-miterlimit: 4; fill: rgb(230,230,230); fill-rule: nonzero; opacity: 1;" vector-effect="non-scaling-stroke"  transform=" translate(-639.12, -391.03)" d="M 703.79234 336.71073 L 574.44224 336.71073 C 572.3217120098619 336.7112599756075 570.6028416184333 338.43020198962 570.6024 340.55073 L 570.6024 441.50073 C 570.6028140274802 443.62126944185115 572.3217005772411 445.3402276148692 574.44224 445.34072999999995 L 703.79234 445.34072999999995 C 705.9128771362059 445.34022209666387 707.631760454219 443.6212671555282 707.63218 441.50073 L 707.63218 340.55073 C 707.631732863541 338.4302042758711 705.912865703657 336.7112654935379 703.79234 336.71073 Z" stroke-linecap="round" />
</g>
<g transform="matrix(0.47 0 0 0.47 200.75 219.04)" id="ycaDjHXJUCeQ7npCiaZ3D"  >
<path style="stroke: none; stroke-width: 1; stroke-dasharray: none; stroke-linecap: butt; stroke-dashoffset: 0; stroke-linejoin: miter; stroke-miterlimit: 4; fill: rgb(47,46,65); fill-rule: nonzero; opacity: 1;" vector-effect="non-scaling-stroke"  transform=" translate(-587.51, -414.02)" d="M 609.92406 398.70111 C 609.9772570377628 407.22322285826573 606.8362210074105 415.456133743819 601.1200600000001 421.77711000000005 C 595.4640600000001 427.98423 587.0438800000001 432.10071000000005 578.5467900000001 430.39754000000005 C 570.7226300000001 428.82925000000006 564.3646000000001 421.99084000000005 565.1577900000001 413.71804000000003 C 565.4241530552464 410.0911549956403 567.2747458615212 406.76578700741004 570.2165692896918 404.6278162336351 C 573.1583927178625 402.48984545986013 576.8926710113027 401.75640724233654 580.4245900000001 402.62289000000004 C 587.85724 404.55174000000005 590.81874 415.26384 584.6251000000001 420.29189 C 583.1389 421.49839000000003 581.0037400000001 419.3883 582.5037800000001 418.17057 C 586.5981800000001 414.84672 585.3332800000002 407.57517 580.3913400000001 405.75157 C 574.6376300000002 403.62846 568.5415600000001 408.19481 568.1277900000001 414.07711 C 567.6372200000001 421.05139 572.9800000000001 426.30357 579.5320100000001 427.54011 C 586.6199000000001 428.87781 593.6473300000001 425.25011 598.4500900000002 420.24293 C 603.9543761660384 414.42844597561174 606.9916366830846 406.7073992770137 606.9240900000002 398.7011 C 606.952091482523 397.8928880490912 607.6153931219209 397.2521693178712 608.4240900000002 397.2521693178712 C 609.2327868780795 397.2521693178712 609.8960885174774 397.8928880490912 609.9240900000002 398.7011 Z" stroke-linecap="round" />
</g>
<g transform="matrix(0.47 0 0 0.47 224.94 195.43)" id="Mk8C6htXRqznPHILPmsV3"  >
<path style="stroke: none; stroke-width: 1; stroke-dasharray: none; stroke-linecap: butt; stroke-dashoffset: 0; stroke-linejoin: miter; stroke-miterlimit: 4; fill: rgb(40,88,235); fill-rule: nonzero; opacity: 1;" vector-effect="non-scaling-stroke"  transform=" translate(-53.52, -53.52)" d="M 0 53.51916 C 0 23.96134 23.96134 0 53.51916 0 C 83.07697999999999 0 107.03832 23.96134 107.03832 53.51916 C 107.03832 83.07697999999999 83.07697999999999 107.03832 53.51916 107.03832 C 23.96134 107.03832 0 83.07697999999999 0 53.51916 z" stroke-linecap="round" />
</g>
<g transform="matrix(0.47 0 0 0.47 226.88 198.18)" id="ARM6-iCexDIfi2LaAaRxS"  >
<path style="stroke: none; stroke-width: 1; stroke-dasharray: none; stroke-linecap: butt; stroke-dashoffset: 0; stroke-linejoin: miter; stroke-miterlimit: 4; fill: rgb(47,46,65); fill-rule: nonzero; opacity: 1;" vector-effect="non-scaling-stroke"  transform=" translate(-643.35, -370.07)" d="M 636.47981 387.08916 L 636.42415 385.08916 C 640.14485 384.98564 643.42515 384.75224 645.8899700000001 382.95146 C 647.3039553984364 381.85968573379273 648.1731342222389 380.2068684748539 648.2713100000001 378.42314 C 648.3590949089291 377.33136533971145 647.9328250723004 376.26108539365094 647.1184800000001 375.52861 C 645.4822500000001 374.14677 642.8494800000001 374.59404 640.9304800000001 375.47392 L 639.2757000000001 376.23271 L 642.4490400000002 353.04228 L 644.4304800000002 353.31377 L 641.7312600000002 373.04033 C 644.3386900000003 372.27373 646.7547000000003 372.60381 648.4094900000002 374.00127 C 649.6974708865018 375.1257113310731 650.3857210057788 376.78762625074614 650.2698400000003 378.49345 C 650.1516610873707 380.89094335997845 648.9803801524922 383.1137675390143 647.0696400000003 384.56669999999997 C 643.90266 386.88115 639.78694 386.99638 636.47981 387.08916 Z" stroke-linecap="round" />
</g>
<g transform="matrix(0.47 0 0 0.47 234.48 191.52)" id="dAgx7h_eYV6LHAAf-Ko6D"  >
<path style="stroke: none; stroke-width: 1; stroke-dasharray: none; stroke-linecap: butt; stroke-dashoffset: 0; stroke-linejoin: miter; stroke-miterlimit: 4; fill: rgb(47,46,65); fill-rule: nonzero; opacity: 1;" vector-effect="non-scaling-stroke"  transform=" translate(-5.39, -1)" d="M 0 2 L 0 0 L 10.77148 0 L 10.77148 2 z" stroke-linecap="round" />
</g>
<g transform="matrix(0.47 0 0 0.47 218.57 191.52)" id="pOGvHKii4AhFkSrthxW_6"  >
<path style="stroke: none; stroke-width: 1; stroke-dasharray: none; stroke-linecap: butt; stroke-dashoffset: 0; stroke-linejoin: miter; stroke-miterlimit: 4; fill: rgb(47,46,65); fill-rule: nonzero; opacity: 1;" vector-effect="non-scaling-stroke"  transform=" translate(-5.39, -1)" d="M 0 2 L 0 0 L 10.77148 0 L 10.77148 2 z" stroke-linecap="round" />
</g>
<g transform="matrix(0.47 0 0 0.47 224.44 229.8)" id="vbQ6QrCVyph3iUnjcNvE5"  >
<path style="stroke: none; stroke-width: 1; stroke-dasharray: none; stroke-linecap: butt; stroke-dashoffset: 0; stroke-linejoin: miter; stroke-miterlimit: 4; fill: rgb(47,46,65); fill-rule: nonzero; opacity: 1;" vector-effect="non-scaling-stroke"  transform=" translate(-638.14, -436.71)" d="M 609.57212 445.34074 C 613.5836644137214 442.79533454166716 617.9192102023902 440.8008033320134 622.46226 439.41074 C 622.0287821111908 437.8697015141244 622.0357106032268 436.2380416396523 622.48226 434.70074 C 623.7207328679647 430.71219985230385 627.4361296393381 428.01412708527886 631.61214 428.07074 L 644.6521399999999 428.07074 C 648.8349018429557 428.0174205561568 652.55603839208 430.71767122155853 653.8025299999999 434.71074 C 654.2489383219782 436.2446808472932 654.2557050988278 437.87314224987523 653.82206 439.41074 C 658.3644164244324 440.802622480469 662.699725326056 442.79704471223897 666.7121999999999 445.34074 Z" stroke-linecap="round" />
</g>
<g transform="matrix(0.47 0 0 0.47 250.17 192.73)" id="qGhafuFIRnkDDOwXUspCw"  >
<path style="stroke: none; stroke-width: 1; stroke-dasharray: none; stroke-linecap: butt; stroke-dashoffset: 0; stroke-linejoin: miter; stroke-miterlimit: 4; fill: rgb(63,61,86); fill-rule: nonzero; opacity: 1;" vector-effect="non-scaling-stroke"  transform=" translate(-693.14, -358.57)" d="M 700.52232 344.39072 C 699.5472248719121 343.20990943377126 698.3474450842767 342.2343930459653 696.99253 341.52072 C 695.8038271145725 340.900120469815 694.483379469696 340.5743041890346 693.14243 340.57072 C 691.3008096835854 340.59337923713434 689.5130436698707 341.19514866791894 688.03257 342.29072 C 683.96226 345.17072 681.14243 351.38072 681.14243 358.57072000000005 C 681.14243 367.59072000000003 685.58238 375.07072000000005 691.35243 376.37077000000005 C 691.9400136626901 376.5025387431653 692.540253776325 376.56960467764964 693.14243 376.57077000000004 C 699.7523 376.57077000000004 705.14243 368.50077000000005 705.14243 358.57077000000004 C 705.14243 352.81077 703.33238 347.68076 700.52232 344.39072 Z" stroke-linecap="round" />
</g>
<g transform="matrix(0.47 0 0 0.47 200.11 192.73)" id="9XG1KKEkjU7uxQ8gJFTb1"  >
<path style="stroke: none; stroke-width: 1; stroke-dasharray: none; stroke-linecap: butt; stroke-dashoffset: 0; stroke-linejoin: miter; stroke-miterlimit: 4; fill: rgb(63,61,86); fill-rule: nonzero; opacity: 1;" vector-effect="non-scaling-stroke"  transform=" translate(-586.14, -358.57)" d="M 590.6024 341.86076 L 590.59263 341.86076 C 589.2556368559156 341.0307046138711 587.716074144538 340.58442446968047 586.14243 340.57076 C 584.8014838658421 340.5743454000771 583.4810397462718 340.9001616572534 582.29234 341.52076 C 580.9374249157232 342.2344330459653 579.7376451280878 343.20994943377127 578.7625499999999 344.39076 L 578.7522999999999 344.40076 C 575.9524899999999 347.69076 574.1424299999999 352.82076 574.1424299999999 358.57076 C 574.1424299999999 366.33076 577.4222199999999 372.95076 582.0223199999999 375.48076000000003 C 583.2815321918414 376.1863779262909 584.6990228896617 376.5613836568719 586.1424299999999 376.57076 C 586.4633657293438 376.5707228399357 586.7839871980359 376.55068399814246 587.1024299999999 376.51076 L 587.1121899999999 376.51076 C 593.27235 375.77076 598.1424599999999 368.01076 598.1424599999999 358.57076 C 598.14243 351.01072 595.01255 344.52073 590.6024 341.86076 Z" stroke-linecap="round" />
</g>
<g transform="matrix(0.47 0 0 0.47 225.14 180.45)" id="zqzFsTstfiRab-eidSy0j"  >
<path style="stroke: none; stroke-width: 1; stroke-dasharray: none; stroke-linecap: butt; stroke-dashoffset: 0; stroke-linejoin: miter; stroke-miterlimit: 4; fill: rgb(63,61,86); fill-rule: nonzero; opacity: 1;" vector-effect="non-scaling-stroke"  transform=" translate(-639.64, -332.69)" d="M 582.77242 373.76 C 583.2554906624715 373.75955452192244 583.7088346312091 373.52668252126915 583.9905611159015 373.13426991798747 C 584.2722876005939 372.7418573147058 584.3479734598359 372.237851587169 584.19393 371.78 C 576.3356659028227 348.4114331349912 583.9721548694476 322.6243989450097 603.2879220758679 307.3030618893624 C 622.6036892822881 291.98172483371513 649.4520282953744 290.41526759170443 670.41850716629 303.386350649831 C 691.3849860372056 316.3574337079575 701.9685237638356 341.08142661447766 696.8811900000001 365.20529999999997 C 696.710219209995 366.0159269872591 697.2287630127408 366.8116692099948 698.03939 366.98263999999995 C 698.8500169872592 367.1536107900051 699.6457592099949 366.6350669872591 699.81673 365.82444 C 705.1688681218974 340.4609456894401 694.0430586592282 314.464584924811 671.9989817705712 300.82600361132216 C 649.9549048819141 287.18742229783334 621.7258487300687 288.83508669944223 601.4181598158827 304.945642154867 C 581.1104709016968 321.0561976102918 573.0846014244996 348.17039736502113 581.35116 372.739 C 581.5569352700139 373.34890889131105 582.1287335762555 373.7596754439986 582.77242 373.76 Z" stroke-linecap="round" />
</g>
<g transform="matrix(0.47 0 0 0.47 226.9 182.77)" id="Gw8BL4teRAz-ETcjzAv4q"  >
<path style="stroke: none; stroke-width: 1; stroke-dasharray: none; stroke-linecap: butt; stroke-dashoffset: 0; stroke-linejoin: miter; stroke-miterlimit: 4; fill: rgb(47,46,65); fill-rule: nonzero; opacity: 1;" vector-effect="non-scaling-stroke"  transform=" translate(-643.41, -337.58)" d="M 666.10324 329.57746 C 668.22248 332.47024 667.17771 336.36866999999995 664.94487 338.86274 C 662.03939 342.10814999999997 657.4061 342.31289999999996 653.3830700000001 341.71054 C 648.8687600000001 341.03463 644.0804700000001 338.91963999999996 639.5101400000001 340.34494 C 635.6147700000001 341.55974000000003 632.8359600000001 345.09287 628.7890400000001 345.98031000000003 C 625.2000400000001 346.76731 620.9082300000001 345.72554 619.6500400000001 341.90015000000005 C 619.0454500000001 340.06192000000004 621.9414600000001 339.27405000000005 622.5428800000001 341.10264000000006 C 623.3568300000001 343.5774200000001 626.8715300000001 343.52807000000007 628.8843300000001 342.84276000000006 C 632.1112200000001 341.74409 634.5980700000001 339.07171000000005 637.7697300000001 337.7952700000001 C 641.5090600000001 336.2903600000001 645.5659400000001 336.96978000000007 649.3729600000001 337.8270800000001 C 652.9612700000001 338.6350800000001 657.0909600000001 339.83308000000005 660.6656300000002 338.32373000000007 C 663.3107800000001 337.2068300000001 665.4154800000002 333.6887300000001 663.5128000000002 331.0916200000001 C 662.3706100000002 329.5325200000001 664.9726500000002 328.03424000000007 666.1032200000002 329.5774600000001 Z" stroke-linecap="round" />
</g>
<g transform="matrix(0.47 0 0 0.47 290.71 262.43)" id="Jw2XNbBaJfqM_WtWvrJh4"  >
<path style="stroke: none; stroke-width: 1; stroke-dasharray: none; stroke-linecap: butt; stroke-dashoffset: 0; stroke-linejoin: miter; stroke-miterlimit: 4; fill: rgb(230,230,230); fill-rule: nonzero; opacity: 1;" vector-effect="non-scaling-stroke"  transform=" translate(-779.78, -505.48)" d="M 874.932 513.49157 L 684.63034 513.49157 C 680.2042665021098 513.49157 676.6162250000001 509.90352849789025 676.6162250000001 505.477455 C 676.6162250000001 501.0513815021098 680.2042665021098 497.46334 684.63034 497.46334 L 874.932 497.46334 C 879.3545778675275 497.4682802368482 882.9371678396503 501.0548743732298 882.9371678396503 505.477455 C 882.9371678396503 509.90003562677026 879.3545778675275 513.4866297631518 874.932 513.49157 Z" stroke-linecap="round" />
</g>
<g transform="matrix(0.47 0 0 0.47 298.45 275.26)" id="N--Rb-s10vKuYJpWdWNEn"  >
<path style="stroke: none; stroke-width: 1; stroke-dasharray: none; stroke-linecap: butt; stroke-dashoffset: 0; stroke-linejoin: miter; stroke-miterlimit: 4; fill: rgb(230,230,230); fill-rule: nonzero; opacity: 1;" vector-effect="non-scaling-stroke"  transform=" translate(-796.31, -532.53)" d="M 907.99023 540.5392 L 684.63034 540.5392 C 681.7650401721924 540.5424006807375 679.1160235043316 539.0156193583862 677.6824488387995 536.5347289887939 C 676.2488741732674 534.0538386192014 676.2488741732674 530.9963313807987 677.6824488387995 528.5154410112062 C 679.1160235043316 526.0345506416139 681.7650401721924 524.5077693192626 684.63034 524.51097 L 907.99023 524.51097 C 910.8555298278077 524.5077693192626 913.5045464956685 526.0345506416139 914.9381211612006 528.5154410112062 C 916.3716958267327 530.9963313807987 916.3716958267327 534.0538386192014 914.9381211612006 536.5347289887939 C 913.5045464956685 539.0156193583862 910.8555298278077 540.5424006807375 907.99023 540.5392 Z" stroke-linecap="round" />
</g>
<g transform="matrix(0.47 0 0 0.47 290.71 308.55)" id="bZmCS0Rqe0w2JBbI0FrUd"  >
<path style="stroke: none; stroke-width: 1; stroke-dasharray: none; stroke-linecap: butt; stroke-dashoffset: 0; stroke-linejoin: miter; stroke-miterlimit: 4; fill: rgb(230,230,230); fill-rule: nonzero; opacity: 1;" vector-effect="non-scaling-stroke"  transform=" translate(-779.78, -602.69)" d="M 874.932 610.705 L 684.63034 610.705 C 680.2042692635335 610.705 676.6162300000001 607.1169607364665 676.6162300000001 602.6908900000001 C 676.6162300000001 598.2648192635336 680.2042692635335 594.67678 684.63034 594.67678 L 874.932 594.67678 C 879.3580707364665 594.67678 882.94611 598.2648192635336 882.9461100000001 602.69089 C 882.9461100000001 607.1169607364665 879.3580707364665 610.705 874.932 610.705 Z" stroke-linecap="round" />
</g>
<g transform="matrix(0.47 0 0 0.47 298.45 321.39)" id="NSZo2ggzvqZj2ERzeptLR"  >
<path style="stroke: none; stroke-width: 1; stroke-dasharray: none; stroke-linecap: butt; stroke-dashoffset: 0; stroke-linejoin: miter; stroke-miterlimit: 4; fill: rgb(230,230,230); fill-rule: nonzero; opacity: 1;" vector-effect="non-scaling-stroke"  transform=" translate(-796.31, -629.74)" d="M 907.99023 637.75267 L 684.63034 637.75267 C 680.2042665021098 637.75267 676.6162250000001 634.1646284978901 676.6162250000001 629.7385549999999 C 676.6162250000001 625.3124815021098 680.2042665021098 621.72444 684.63034 621.72444 L 907.99023 621.72444 C 912.4163034978902 621.72444 916.004345 625.3124815021098 916.004345 629.7385549999999 C 916.0043450000001 634.1646284978901 912.4163034978902 637.75267 907.99023 637.75267 Z" stroke-linecap="round" />
</g>
<g transform="matrix(0.47 0 0 0.47 210.95 268.7)" id="aAsSVHA2TK_m9n7mHnM67"  >
<path style="stroke: none; stroke-width: 1; stroke-dasharray: none; stroke-linecap: butt; stroke-dashoffset: 0; stroke-linejoin: miter; stroke-miterlimit: 4; fill: rgb(230,230,230); fill-rule: nonzero; opacity: 1;" vector-effect="non-scaling-stroke"  transform=" translate(-34, -34)" d="M 0 34 C 0 15.22232 15.22232 0 34 0 C 52.777680000000004 0 68 15.22232 68 34 C 68 52.777680000000004 52.777680000000004 68 34 68 C 15.22232 68 0 52.777680000000004 0 34 z" stroke-linecap="round" />
</g>
<g transform="matrix(0.47 0 0 0.47 210.95 315.2)" id="Pimc9kEC5ySmTxwJ7HE3F"  >
<path style="stroke: none; stroke-width: 1; stroke-dasharray: none; stroke-linecap: butt; stroke-dashoffset: 0; stroke-linejoin: miter; stroke-miterlimit: 4; fill: rgb(230,230,230); fill-rule: nonzero; opacity: 1;" vector-effect="non-scaling-stroke"  transform=" translate(-34, -34)" d="M 0 34 C 0 15.22232 15.22232 0 34 0 C 52.777680000000004 0 68 15.22232 68 34 C 68 52.777680000000004 52.777680000000004 68 34 68 C 15.22232 68 0 52.777680000000004 0 34 z" stroke-linecap="round" />
</g>
<g transform="matrix(0.47 0 0 0.47 290.71 355.05)" id="xCeHsn2f8pdV1Khs4gQj0"  >
<path style="stroke: none; stroke-width: 1; stroke-dasharray: none; stroke-linecap: butt; stroke-dashoffset: 0; stroke-linejoin: miter; stroke-miterlimit: 4; fill: rgb(230,230,230); fill-rule: nonzero; opacity: 1;" vector-effect="non-scaling-stroke"  transform=" translate(-779.78, -700.69)" d="M 874.932 708.705 L 684.63034 708.705 C 680.2042692635335 708.705 676.6162300000001 705.1169607364665 676.6162300000001 700.6908900000001 C 676.6162300000001 696.2648192635336 680.2042692635335 692.67678 684.63034 692.67678 L 874.932 692.67678 C 879.3580707364665 692.67678 882.94611 696.2648192635336 882.9461100000001 700.69089 C 882.9461100000001 705.1169607364665 879.3580707364665 708.705 874.932 708.705 Z" stroke-linecap="round" />
</g>
<g transform="matrix(0.47 0 0 0.47 298.45 367.88)" id="lB9OuKBedZSe8ySHqDV-i"  >
<path style="stroke: none; stroke-width: 1; stroke-dasharray: none; stroke-linecap: butt; stroke-dashoffset: 0; stroke-linejoin: miter; stroke-miterlimit: 4; fill: rgb(230,230,230); fill-rule: nonzero; opacity: 1;" vector-effect="non-scaling-stroke"  transform=" translate(-796.31, -727.74)" d="M 907.99023 735.75267 L 684.63034 735.75267 C 680.2042665021098 735.75267 676.6162250000001 732.1646284978901 676.6162250000001 727.7385549999999 C 676.6162250000001 723.3124815021098 680.2042665021098 719.72444 684.63034 719.72444 L 907.99023 719.72444 C 912.4163034978902 719.72444 916.004345 723.3124815021098 916.004345 727.7385549999999 C 916.0043450000001 732.1646284978901 912.4163034978902 735.75267 907.99023 735.75267 Z" stroke-linecap="round" />
</g>
<g transform="matrix(0.47 0 0 0.47 210.95 361.69)" id="cpsSqZ_gAMU9lHOHpG7Mi"  >
<path style="stroke: none; stroke-width: 1; stroke-dasharray: none; stroke-linecap: butt; stroke-dashoffset: 0; stroke-linejoin: miter; stroke-miterlimit: 4; fill: rgb(230,230,230); fill-rule: nonzero; opacity: 1;" vector-effect="non-scaling-stroke"  transform=" translate(-34, -34)" d="M 0 34 C 0 15.22232 15.22232 0 34 0 C 52.777680000000004 0 68 15.22232 68 34 C 68 52.777680000000004 52.777680000000004 68 34 68 C 15.22232 68 0 52.777680000000004 0 34 z" stroke-linecap="round" />
</g>
</svg>