<?xml version="1.0" encoding="UTF-8" standalone="no" ?>
<!DOCTYPE svg PUBLIC "-//W3C//DTD SVG 1.1//EN" "http://www.w3.org/Graphics/SVG/1.1/DTD/svg11.dtd">
<svg xmlns="http://www.w3.org/2000/svg" xmlns:xlink="http://www.w3.org/1999/xlink" version="1.1" width="1000" height="650" viewBox="0 0 1000 650" xml:space="preserve">
<desc>Created with Fabric.js 4.6.0</desc>
<defs>
</defs>
<g transform="matrix(1.84 0 0 2.15 506.14 453.46)" id="ApBT1_TStbLByPXN4DSBu"  >
<path style="stroke: none; stroke-width: 1; stroke-dasharray: none; stroke-linecap: butt; stroke-dashoffset: 0; stroke-linejoin: miter; stroke-miterlimit: 4; fill: rgb(204,204,204); fill-rule: nonzero; opacity: 1;" vector-effect="non-scaling-stroke"  transform=" translate(-673.7, -609.2)" d="M 876.70437 521.703 L 470.70437000000004 521.703 C 467.1145191260999 521.703 464.20437000000004 524.6131491260999 464.20437000000004 528.203 C 464.20437000000004 531.7928508739001 467.1145191260999 534.703 470.70437000000004 534.703 L 482.20437000000004 534.703 L 482.20437000000004 690.203 C 482.20437000000004 693.7928508739001 485.1145191260999 696.703 488.70437000000004 696.703 C 492.2942208739002 696.703 495.20437000000004 693.7928508739001 495.20437000000004 690.203 L 495.30315 534.703 L 851.20437 534.703 L 851.20437 690.203 C 851.20437 693.7928508739001 854.1145191260999 696.703 857.70437 696.703 C 861.2942208739001 696.703 864.20437 693.7928508739001 864.20437 690.203 L 864.20437 538.13036 L 866.0954800000001 534.70299 L 876.70437 534.70299 C 880.2942208739001 534.70299 883.20437 531.7928408739001 883.20437 528.20299 C 883.20437 524.6131391260999 880.2942208739001 521.70299 876.70437 521.70299 Z" stroke-linecap="round" />
</g>
<g transform="matrix(1.84 0 0 2.15 433.68 180.8)" id="4jeQdfr_Id_YyMuh7bezS"  >
<path style="stroke: none; stroke-width: 1; stroke-dasharray: none; stroke-linecap: butt; stroke-dashoffset: 0; stroke-linejoin: miter; stroke-miterlimit: 4; fill: rgb(63,61,86); fill-rule: nonzero; opacity: 1;" vector-effect="non-scaling-stroke"  transform=" translate(-634.3, -482.27)" d="M 695.79406 525.10473 L 572.81224 525.10473 C 567.8540434230633 525.0991199094485 563.8360300905515 521.0811065769367 563.83042 516.12291 L 563.83042 448.41382 C 563.8360300905514 443.45562342306334 567.8540434230633 439.43761009055146 572.81224 439.43199999999996 L 695.79406 439.43199999999996 C 700.7522565769366 439.4376100905514 704.7702699094484 443.45562342306334 704.7758799999999 448.41382 L 704.7758799999999 516.12291 C 704.7702699094484 521.0811065769367 700.7522565769366 525.0991199094485 695.79406 525.10473 Z" stroke-linecap="round" />
</g>
<g transform="matrix(1.84 0 0 2.15 433.68 180.8)" id="iLYL0W6sJGjriSBUudBwS"  >
<path style="stroke: none; stroke-width: 1; stroke-dasharray: none; stroke-linecap: butt; stroke-dashoffset: 0; stroke-linejoin: miter; stroke-miterlimit: 4; fill: rgb(255,255,255); fill-rule: nonzero; opacity: 1;" vector-effect="non-scaling-stroke"  transform=" translate(-634.3, -482.27)" d="M 695.79338 446.34472 L 572.81292 446.34472 C 571.6707199720083 446.34713506535184 570.7454112576248 447.27251977751365 570.7430899999999 448.41472 L 570.7430899999999 516.12472 C 570.745438652663 517.26690884293 571.6707313538146 518.1922775405446 572.81292 518.1947200000001 L 695.79338 518.1947200000001 C 696.9355686461853 518.1922775405446 697.8608613473369 517.26690884293 697.86321 516.12472 L 697.86321 448.41472000000005 C 697.8608887423752 447.27251977751365 696.9355800279917 446.34713506535184 695.79338 446.34472 Z" stroke-linecap="round" />
</g>
<g transform="matrix(1.84 0 0 2.15 430.09 230.51)" id="XI9kGSrppV6QGuBTPrQCq"  >
<path style="stroke: none; stroke-width: 1; stroke-dasharray: none; stroke-linecap: butt; stroke-dashoffset: 0; stroke-linejoin: miter; stroke-miterlimit: 4; fill: rgb(47,46,65); fill-rule: nonzero; opacity: 1;" vector-effect="non-scaling-stroke"  transform=" translate(-632.35, -505.41)" d="M 644.792 494.28284 C 644.792 494.28284 630.06974 490.89037 621.97249 497.10984 C 613.87524 503.32931 632.27808 517.46464 632.27808 517.46464 Z" stroke-linecap="round" />
</g>
<g transform="matrix(1.84 0 0 2.15 435 163.01)" id="fLCaZk3GJmJDm-ND__Dby"  >
<path style="stroke: none; stroke-width: 1; stroke-dasharray: none; stroke-linecap: butt; stroke-dashoffset: 0; stroke-linejoin: miter; stroke-miterlimit: 4; fill: rgb(160,97,106); fill-rule: nonzero; opacity: 1;" vector-effect="non-scaling-stroke"  transform=" translate(-13.89, -13.89)" d="M 0 13.88708 C 0 6.217459999999999 6.21746 0 13.88708 0 C 21.5567 0 27.77416 6.21746 27.77416 13.88708 C 27.77416 21.5567 21.5567 27.77416 13.88708 27.77416 C 6.217459999999999 27.77416 0 21.5567 0 13.88708 z" stroke-linecap="round" />
</g>
<g transform="matrix(1.84 0 0 2.15 435.81 141.04)" id="xFfl6axLGpilUByEeZDAJ"  >
<path style="stroke: none; stroke-width: 1; stroke-dasharray: none; stroke-linecap: butt; stroke-dashoffset: 0; stroke-linejoin: miter; stroke-miterlimit: 4; fill: rgb(47,46,65); fill-rule: nonzero; opacity: 1;" vector-effect="non-scaling-stroke"  transform=" translate(-635.46, -463.76)" d="M 624.28574 454.49178 C 626.1738209477203 451.28692067151275 629.6992871973616 449.41116999318723 633.4121600000001 449.636 C 635.3169222027415 449.8748714422301 637.1756736735771 450.3951754585302 638.9276400000001 451.17990000000003 L 648.0059100000001 454.72117000000003 C 650.35503 455.63751 652.9278200000001 456.75996000000004 653.9471800000001 459.06625 C 654.8932800000001 461.20680000000004 654.1874100000001 463.67891000000003 653.4728700000002 465.90748 L 650.0763400000002 476.50078 C 649.7001306616502 474.1032228266563 649.0544623469211 471.75579914729553 648.1516000000001 469.5031 C 647.2340005227286 467.2352944720046 645.5759322174614 465.34477044557997 643.4472100000002 464.13917000000004 C 641.0891200000002 462.92947000000004 638.3097600000002 462.95452000000006 635.6625500000001 463.08192 C 631.9134100000001 463.26235 627.8370300000001 463.73934 625.1732400000001 466.38373 C 623.7591914729652 467.8855072571644 622.8005119787998 469.75784448480744 622.4086800000001 471.78302 C 622.0230278522904 473.7973775883768 621.8289154289422 475.8437177598869 621.8289400000001 477.89466000000004 C 620.2915196080113 475.2519263815904 618.9964498196034 472.47546338164807 617.9595800000001 469.59925000000004 C 617.1066678458055 467.4575988544659 616.6206435331351 465.1875640655629 616.52191 462.88444000000004 C 616.4327908892769 460.56159806887155 617.2034964126185 458.2874866118764 618.68649 456.49744000000004 C 620.2220962158757 454.71314839571426 622.6362777358431 453.9533285559636 624.917 454.53650000000005 Z" stroke-linecap="round" />
</g>
<g transform="matrix(1.84 0 0 2.15 439.47 230.4)" id="Egrs4IsHFgdFFilglRQmb"  >
<path style="stroke: none; stroke-width: 1; stroke-dasharray: none; stroke-linecap: butt; stroke-dashoffset: 0; stroke-linejoin: miter; stroke-miterlimit: 4; fill: rgb(252,195,29); fill-rule: nonzero; opacity: 1;" vector-effect="non-scaling-stroke"  transform=" translate(-637.45, -505.36)" d="M 668.183 506.3247 C 667.9163887331831 505.3657173357496 667.1005894720134 504.6602063843173 666.1131799999999 504.5347 C 666.081210808683 504.5124558825933 666.0477671159592 504.49240971312855 666.01308 504.4747 L 645.28167 492.8565 C 644.0518793711517 492.16737598362994 642.4975756172639 492.56745723149527 641.75334 493.7647 L 636.0834199999999 502.94476000000003 L 627.54342 494.40476 L 627.4076799999999 494.26895 C 626.5029299016328 493.36429709498236 625.079263623295 493.23979386418216 624.03122 493.97367 L 606.99313 505.90476 C 606.96335 505.90476 606.9330699999999 505.91476 606.90329 505.91476 C 605.2234425924092 506.19475362146864 603.9636009132571 507.60414921934273 603.87301 509.30476 L 603.43307 518.19476 L 671.47307 518.19476 Z" stroke-linecap="round" />
</g>
<g transform="matrix(1.84 0 0 2.15 433.7 262.43)" id="0QAUbU1lJZfE5Ju9yU3zg"  >
<path style="stroke: none; stroke-width: 1; stroke-dasharray: none; stroke-linecap: butt; stroke-dashoffset: 0; stroke-linejoin: miter; stroke-miterlimit: 4; fill: rgb(63,61,86); fill-rule: nonzero; opacity: 1;" vector-effect="non-scaling-stroke"  transform=" translate(-634.31, -520.27)" d="M 706.1577 516.81382 L 693.03042 516.81382 C 693.030414477229 516.0506641746072 692.4117558253929 515.4320055227711 691.6486000000001 515.432 L 687.5031500000001 515.432 C 686.7399964621857 515.432011045389 686.1213410453892 516.0506664621855 686.1213300000002 516.81382 L 681.9758800000002 516.81382 C 681.9758689546112 516.0506664621855 681.3572135378147 515.432011045389 680.5940600000002 515.432 L 676.4486 515.432 C 675.6854480798531 515.4320110455055 675.0667955226829 516.050668079793 675.0667900000001 516.81382 L 670.9213300000001 516.81382 C 670.9213244772291 516.0506641746072 670.302665825393 515.4320055227711 669.5395100000002 515.432 L 665.3940600000002 515.432 C 664.6309064621857 515.432011045389 664.0122510453892 516.0506664621855 664.0122400000002 516.81382 L 659.8667900000003 516.81382 C 659.8667789552004 516.0506781775209 659.2481418220594 515.4320276131683 658.485 515.432 L 654.33954 515.432 C 653.5763880798531 515.4320110455055 652.9577355226829 516.050668079793 652.9577300000001 516.81382 L 648.8122700000001 516.81382 C 648.8122644772291 516.0506641746072 648.193605825393 515.4320055227711 647.4304500000002 515.432 L 643.285 515.432 C 642.5218441746072 515.4320055227711 641.9031855227711 516.0506641746072 641.90318 516.81382 L 637.7577 516.81382 C 637.757688954611 516.0506664621855 637.1390335378145 515.432011045389 636.37588 515.432 L 632.2304200000001 515.432 C 631.4672664621856 515.432011045389 630.8486110453891 516.0506664621855 630.8486000000001 516.81382 L 626.7031500000002 516.81382 C 626.7031444772291 516.0506641746072 626.084485825393 515.4320055227711 625.3213300000002 515.432 L 621.1758800000002 515.432 C 620.4127241746074 515.4320055227711 619.7940655227713 516.0506641746072 619.7940600000003 516.81382 L 615.6486 516.81382 C 615.6485944773171 516.050668079793 615.0299419201469 515.4320110455055 614.26679 515.432 L 610.1213300000001 515.432 C 609.3581764621856 515.432011045389 608.7395210453891 516.0506664621855 608.7395100000001 516.81382 L 604.5940600000001 516.81382 C 604.5940489546111 516.0506664621855 603.9753935378146 515.432011045389 603.2122400000002 515.432 L 599.0667900000002 515.432 C 598.3036341746074 515.4320055227711 597.6849755227713 516.0506641746072 597.6849700000002 516.81382 L 593.5395100000003 516.81382 C 593.5395044773175 516.050668079793 592.9208519201472 515.4320110455055 592.1577000000003 515.432 L 588.0122400000004 515.432 C 587.2490864621859 515.432011045389 586.6304310453894 516.0506664621855 586.6304200000004 516.81382 L 582.485 516.81382 C 582.484988954611 516.0506664621855 581.8663335378145 515.432011045389 581.1031800000001 515.432 L 576.9577 515.432 C 576.1945441746072 515.4320055227711 575.5758855227712 516.0506641746072 575.5758800000001 516.81382 L 562.4486 516.81382 C 560.1616424156831 516.8173719932937 558.3095785227172 518.6723146572915 558.3095785227172 520.9592749999999 C 558.3095785227172 523.2462353427085 560.1616424156831 525.1011780067063 562.4486 525.10473 L 706.1577 525.10473 C 708.4471715776098 525.10473 710.3031550000001 523.2487465776098 710.3031550000001 520.9592749999999 C 710.3031550000001 518.6698034223901 708.4471715776098 516.81382 706.1577 516.81382 Z" stroke-linecap="round" />
</g>
<g transform="matrix(1.84 0 0 2.15 185.71 232.85)" id="Dy_MxeX8u3lPlIrcdCvg8"  >
<path style="stroke: none; stroke-width: 1; stroke-dasharray: none; stroke-linecap: butt; stroke-dashoffset: 0; stroke-linejoin: miter; stroke-miterlimit: 4; fill: rgb(242,242,242); fill-rule: nonzero; opacity: 1;" vector-effect="non-scaling-stroke"  transform=" translate(-499.47, -506.5)" d="M 541.07906 492.73994 L 541.07906 520.26566 L 472.11681 520.26566 C 467.0856147043543 520.4407333462132 462.3598299509579 517.8565104735218 459.7923305402063 513.526207533164 C 457.2248311294547 509.19590459280624 457.2248311294547 503.80969540719383 459.79233054020625 499.47939246683603 C 462.3598299509579 495.1490895264783 467.0856147043543 492.5648666537869 472.11681 492.73994000000005 Z" stroke-linecap="round" />
</g>
<g transform="matrix(1.84 0 0 2.15 185.91 233.08)" id="sCR39OgZvU03MQJIGLn2A"  >
<path style="stroke: none; stroke-width: 1; stroke-dasharray: none; stroke-linecap: butt; stroke-dashoffset: 0; stroke-linejoin: miter; stroke-miterlimit: 4; fill: rgb(40,88,235); fill-rule: nonzero; opacity: 1;" vector-effect="non-scaling-stroke"  transform=" translate(-499.58, -506.61)" d="M 542.773 520.05392 C 542.7727737309763 520.6385190696016 542.2989190696017 521.1123737309762 541.71432 521.1125999999999 L 470.88852 521.1125999999999 C 462.87821788696294 521.1125999999999 456.384585 514.618967113037 456.384585 506.6086649999999 C 456.384585 498.59836288696283 462.87821788696294 492.1047299999999 470.88852 492.1047299999999 L 541.71432 492.1047299999999 C 542.2990128189509 492.1047299999999 542.773 492.57871718104906 542.773 493.1634099999999 C 542.773 493.74810281895077 542.2990128189509 494.2220899999999 541.71432 494.2220899999999 L 470.88852 494.2220899999999 C 464.0519494595836 494.2282327483482 458.51306950018915 499.7720916999141 458.51306950018915 506.608665 C 458.51306950018915 513.4452383000857 464.0519494595836 518.9890972516516 470.88852 518.99524 L 541.71432 518.99524 C 542.2989167841265 518.9954717835933 542.7727682164067 519.4693232158735 542.773 520.05392 Z" stroke-linecap="round" />
</g>
<g transform="matrix(1.84 0 0 2.15 194.07 216.48)" id="TpDL4TsskNZ2r9MUVi_Zc"  >
<path style="stroke: none; stroke-width: 1; stroke-dasharray: none; stroke-linecap: butt; stroke-dashoffset: 0; stroke-linejoin: miter; stroke-miterlimit: 4; fill: rgb(204,204,204); fill-rule: nonzero; opacity: 1;" vector-effect="non-scaling-stroke"  transform=" translate(-504.02, -498.88)" d="M 541.07906 499.092 L 466.97135 499.092 C 466.8953576929614 499.0925222468948 466.8249133754304 499.0522803902466 466.786765663602 498.98655478219985 C 466.74861795177355 498.9208291741531 466.74861795177355 498.8397008258469 466.786765663602 498.7739752178001 C 466.8249133754304 498.70824960975335 466.8953576929614 498.66800775310514 466.97135 498.66853 L 541.07906 498.66853 C 541.1954301641861 498.66932973827966 541.2893448797307 498.76389208779955 541.2893448797307 498.88026499999995 C 541.2893448797307 498.9966379122004 541.1954301641861 499.0912002617203 541.07906 499.092 Z" stroke-linecap="round" />
</g>
<g transform="matrix(1.84 0 0 2.15 194.07 227.39)" id="283Bcgqjj09emymzZ4MAh"  >
<path style="stroke: none; stroke-width: 1; stroke-dasharray: none; stroke-linecap: butt; stroke-dashoffset: 0; stroke-linejoin: miter; stroke-miterlimit: 4; fill: rgb(204,204,204); fill-rule: nonzero; opacity: 1;" vector-effect="non-scaling-stroke"  transform=" translate(-504.02, -503.96)" d="M 541.07906 504.1737 L 466.97135 504.1737 C 466.8953576929614 504.17422224689483 466.8249133754304 504.1339803902466 466.786765663602 504.06825478219986 C 466.74861795177355 504.0025291741531 466.74861795177355 503.9214008258469 466.786765663602 503.8556752178001 C 466.8249133754304 503.78994960975336 466.8953576929614 503.74970775310516 466.97135 503.75023 L 541.07906 503.75023 C 541.1954301641861 503.75102973827967 541.2893448797307 503.84559208779956 541.2893448797307 503.96196499999996 C 541.2893448797307 504.0783379122004 541.1954301641861 504.1729002617203 541.07906 504.1737 Z" stroke-linecap="round" />
</g>
<g transform="matrix(1.84 0 0 2.15 194.07 238.3)" id="q6FRecXOxdLfms6UCZtLo"  >
<path style="stroke: none; stroke-width: 1; stroke-dasharray: none; stroke-linecap: butt; stroke-dashoffset: 0; stroke-linejoin: miter; stroke-miterlimit: 4; fill: rgb(204,204,204); fill-rule: nonzero; opacity: 1;" vector-effect="non-scaling-stroke"  transform=" translate(-504.02, -509.04)" d="M 541.07906 509.25537 L 466.97135 509.25537 C 466.8953576929614 509.25589224689486 466.8249133754304 509.21565039024665 466.786765663602 509.1499247821999 C 466.74861795177355 509.0841991741531 466.74861795177355 509.0030708258469 466.786765663602 508.93734521780016 C 466.8249133754304 508.8716196097534 466.8953576929614 508.8313777531052 466.97135 508.8319 L 541.07906 508.8319 C 541.1954301641861 508.8326997382797 541.2893448797307 508.9272620877996 541.2893448797307 509.043635 C 541.2893448797307 509.16000791220046 541.1954301641861 509.25457026172035 541.07906 509.25537 Z" stroke-linecap="round" />
</g>
<g transform="matrix(1.84 0 0 2.15 194.07 249.24)" id="BmLPSCSyd5nDUiqN1ppU6"  >
<path style="stroke: none; stroke-width: 1; stroke-dasharray: none; stroke-linecap: butt; stroke-dashoffset: 0; stroke-linejoin: miter; stroke-miterlimit: 4; fill: rgb(204,204,204); fill-rule: nonzero; opacity: 1;" vector-effect="non-scaling-stroke"  transform=" translate(-504.02, -514.13)" d="M 541.07906 514.337 L 466.97135 514.337 C 466.89535769296043 514.3375222468964 466.8249133754279 514.2972803902485 466.78676566359854 514.2315547822011 C 466.7486179517692 514.1658291741537 466.7486179517692 514.0847008258463 466.78676566359854 514.0189752177989 C 466.8249133754279 513.9532496097515 466.89535769296043 513.9130077531037 466.97135 513.91353 L 541.07906 513.91353 C 541.1954301641845 513.9143297382819 541.2893448797266 514.0088920878012 541.2893448797266 514.125265 C 541.2893448797266 514.2416379121988 541.1954301641845 514.3362002617181 541.07906 514.337 Z" stroke-linecap="round" />
</g>
<g transform="matrix(1.84 0 0 2.15 161.8 170.56)" id="iFA8jBc9Udg14WyGND6ov"  >
<path style="stroke: none; stroke-width: 1; stroke-dasharray: none; stroke-linecap: butt; stroke-dashoffset: 0; stroke-linejoin: miter; stroke-miterlimit: 4; fill: rgb(242,242,242); fill-rule: nonzero; opacity: 1;" vector-effect="non-scaling-stroke"  transform=" translate(-486.47, -477.5)" d="M 528.07906 463.73994 L 528.07906 491.26565999999997 L 459.11681 491.26565999999997 C 454.0856147043543 491.4407333462131 449.3598299509579 488.8565104735218 446.7923305402063 484.526207533164 C 444.2248311294547 480.1959045928062 444.2248311294547 474.8096954071938 446.79233054020625 470.479392466836 C 449.3598299509579 466.1490895264782 454.0856147043543 463.56486665378685 459.11681 463.73994 Z" stroke-linecap="round" />
</g>
<g transform="matrix(1.84 0 0 2.15 162 170.79)" id="ql9F_luI_KT5_bY6PqAbU"  >
<path style="stroke: none; stroke-width: 1; stroke-dasharray: none; stroke-linecap: butt; stroke-dashoffset: 0; stroke-linejoin: miter; stroke-miterlimit: 4; fill: rgb(63,61,86); fill-rule: nonzero; opacity: 1;" vector-effect="non-scaling-stroke"  transform=" translate(-486.58, -477.61)" d="M 529.773 491.05392 C 529.7727737309763 491.63851906960167 529.2989190696017 492.1123737309763 528.71432 492.1126 L 457.88852 492.1126 C 449.87821788696294 492.1126 443.384585 485.61896711303706 443.384585 477.608665 C 443.384585 469.5983628869629 449.87821788696294 463.10472999999996 457.88852 463.10472999999996 L 528.71432 463.10472999999996 C 529.2990128189509 463.10472999999996 529.773 463.5787171810491 529.773 464.16340999999994 C 529.773 464.7481028189508 529.2990128189509 465.22209 528.71432 465.22209 L 457.88852 465.22209 C 451.0519494595957 465.2282327483653 445.51306950022 470.7720916999262 445.51306950022 477.608665 C 445.51306950022 484.44523830007375 451.0519494595957 489.98909725163463 457.88852 489.99523999999997 L 528.71432 489.99523999999997 C 529.2989167841265 489.99547178359336 529.7727682164067 490.46932321587354 529.773 491.05392 Z" stroke-linecap="round" />
</g>
<g transform="matrix(1.84 0 0 2.15 170.17 154.18)" id="e3Cwet7Ztj6UER5ALTeNJ"  >
<path style="stroke: none; stroke-width: 1; stroke-dasharray: none; stroke-linecap: butt; stroke-dashoffset: 0; stroke-linejoin: miter; stroke-miterlimit: 4; fill: rgb(204,204,204); fill-rule: nonzero; opacity: 1;" vector-effect="non-scaling-stroke"  transform=" translate(-491.02, -469.88)" d="M 528.07906 470.092 L 453.97135 470.092 C 453.8953576929614 470.0925222468948 453.8249133754304 470.0522803902466 453.786765663602 469.98655478219985 C 453.74861795177355 469.9208291741531 453.74861795177355 469.8397008258469 453.786765663602 469.7739752178001 C 453.8249133754304 469.70824960975335 453.8953576929614 469.66800775310514 453.97135 469.66853 L 528.07906 469.66853 C 528.1954301641861 469.66932973827966 528.2893448797307 469.76389208779955 528.2893448797307 469.88026499999995 C 528.2893448797307 469.9966379122004 528.1954301641861 470.0912002617203 528.07906 470.092 Z" stroke-linecap="round" />
</g>
<g transform="matrix(1.84 0 0 2.15 170.17 165.09)" id="XUEWdg4VtiCI_GY7RLTG_"  >
<path style="stroke: none; stroke-width: 1; stroke-dasharray: none; stroke-linecap: butt; stroke-dashoffset: 0; stroke-linejoin: miter; stroke-miterlimit: 4; fill: rgb(204,204,204); fill-rule: nonzero; opacity: 1;" vector-effect="non-scaling-stroke"  transform=" translate(-491.02, -474.96)" d="M 528.07906 475.1737 L 453.97135 475.1737 C 453.8953576929614 475.17422224689483 453.8249133754304 475.1339803902466 453.786765663602 475.06825478219986 C 453.74861795177355 475.0025291741531 453.74861795177355 474.9214008258469 453.786765663602 474.8556752178001 C 453.8249133754304 474.78994960975336 453.8953576929614 474.74970775310516 453.97135 474.75023 L 528.07906 474.75023 C 528.1954301641861 474.75102973827967 528.2893448797307 474.84559208779956 528.2893448797307 474.96196499999996 C 528.2893448797307 475.0783379122004 528.1954301641861 475.1729002617203 528.07906 475.1737 Z" stroke-linecap="round" />
</g>
<g transform="matrix(1.84 0 0 2.15 170.17 176.01)" id="T2BsjIi5pQGz3HsV65d7J"  >
<path style="stroke: none; stroke-width: 1; stroke-dasharray: none; stroke-linecap: butt; stroke-dashoffset: 0; stroke-linejoin: miter; stroke-miterlimit: 4; fill: rgb(204,204,204); fill-rule: nonzero; opacity: 1;" vector-effect="non-scaling-stroke"  transform=" translate(-491.02, -480.04)" d="M 528.07906 480.25537 L 453.97135 480.25537 C 453.8953576929614 480.25589224689486 453.8249133754304 480.21565039024665 453.786765663602 480.1499247821999 C 453.74861795177355 480.0841991741531 453.74861795177355 480.0030708258469 453.786765663602 479.93734521780016 C 453.8249133754304 479.8716196097534 453.8953576929614 479.8313777531052 453.97135 479.8319 L 528.07906 479.8319 C 528.1954301641861 479.8326997382797 528.2893448797307 479.9272620877996 528.2893448797307 480.043635 C 528.2893448797307 480.16000791220046 528.1954301641861 480.25457026172035 528.07906 480.25537 Z" stroke-linecap="round" />
</g>
<g transform="matrix(1.84 0 0 2.15 170.17 186.94)" id="r8rHNg3524e4EUYNRJR0E"  >
<path style="stroke: none; stroke-width: 1; stroke-dasharray: none; stroke-linecap: butt; stroke-dashoffset: 0; stroke-linejoin: miter; stroke-miterlimit: 4; fill: rgb(204,204,204); fill-rule: nonzero; opacity: 1;" vector-effect="non-scaling-stroke"  transform=" translate(-491.02, -485.13)" d="M 528.07906 485.337 L 453.97135 485.337 C 453.8953576929614 485.3375222468948 453.8249133754304 485.2972803902466 453.786765663602 485.23155478219985 C 453.74861795177355 485.1658291741531 453.74861795177355 485.0847008258469 453.786765663602 485.0189752178001 C 453.8249133754304 484.95324960975336 453.8953576929614 484.91300775310515 453.97135 484.91353 L 528.07906 484.91353 C 528.1954301641861 484.91432973827966 528.2893448797307 485.00889208779955 528.2893448797307 485.12526499999996 C 528.2893448797307 485.2416379122004 528.1954301641861 485.3362002617203 528.07906 485.337 Z" stroke-linecap="round" />
</g>
<g transform="matrix(1.84 0 0 2.15 294.83 442.51)" id="XY1nkuxV568AG77ok4aFH"  >
<path style="stroke: none; stroke-width: 1; stroke-dasharray: none; stroke-linecap: butt; stroke-dashoffset: 0; stroke-linejoin: miter; stroke-miterlimit: 4; fill: rgb(204,204,204); fill-rule: nonzero; opacity: 1;" vector-effect="non-scaling-stroke"  transform=" translate(-558.8, -604.1)" d="M 608.30315 618.10473 L 608.30315 594.10473 C 608.3031058189114 591.8956093013418 606.5122706986582 590.1047741810886 604.30315 590.10473 L 513.30315 590.10473 C 511.09402930134166 590.1047741810886 509.3031941810885 591.8956093013418 509.30314999999996 594.10473 L 509.30314999999996 618.10473 Z" stroke-linecap="round" />
</g>
<g transform="matrix(1.84 0 0 2.15 294.83 525.2)" id="FDejxX2wEwJ_JDUzsYWIy"  >
<path style="stroke: none; stroke-width: 1; stroke-dasharray: none; stroke-linecap: butt; stroke-dashoffset: 0; stroke-linejoin: miter; stroke-miterlimit: 4; fill: rgb(204,204,204); fill-rule: nonzero; opacity: 1;" vector-effect="non-scaling-stroke"  transform=" translate(-49.5, -15.5)" d="M 0 31 L 0 0 L 99 0 L 99 31 z" stroke-linecap="round" />
</g>
<g transform="matrix(1.84 0 0 2.15 294.83 607.9)" id="mdH44uADfaM2GwUumn1eB"  >
<path style="stroke: none; stroke-width: 1; stroke-dasharray: none; stroke-linecap: butt; stroke-dashoffset: 0; stroke-linejoin: miter; stroke-miterlimit: 4; fill: rgb(204,204,204); fill-rule: nonzero; opacity: 1;" vector-effect="non-scaling-stroke"  transform=" translate(-558.8, -681.1)" d="M 509.30315 667.10473 L 509.30315 691.10473 C 509.30319418108854 693.3138506986583 511.09402930134166 695.1046858189114 513.30315 695.10473 L 604.30315 695.10473 C 606.5122706986582 695.1046858189114 608.3031058189114 693.3138506986583 608.30315 691.10473 L 608.30315 667.10473 Z" stroke-linecap="round" />
</g>
<g transform="matrix(1.84 0 0 2.15 293.9 444.65)" id="zWBDUME9uSP3W0GmJI4XW"  >
<path style="stroke: none; stroke-width: 1; stroke-dasharray: none; stroke-linecap: butt; stroke-dashoffset: 0; stroke-linejoin: miter; stroke-miterlimit: 4; fill: rgb(255,255,255); fill-rule: nonzero; opacity: 1;" vector-effect="non-scaling-stroke"  transform=" translate(-3, -3)" d="M 0 3 C 0 1.34315 1.34315 0 3 0 C 4.65685 0 6 1.34315 6 3 C 6 4.65685 4.65685 6 3 6 C 1.34315 6 0 4.65685 0 3 z" stroke-linecap="round" />
</g>
<g transform="matrix(1.84 0 0 2.15 293.9 530.58)" id="Rt41CePybuMVfkhsHj2pY"  >
<path style="stroke: none; stroke-width: 1; stroke-dasharray: none; stroke-linecap: butt; stroke-dashoffset: 0; stroke-linejoin: miter; stroke-miterlimit: 4; fill: rgb(255,255,255); fill-rule: nonzero; opacity: 1;" vector-effect="non-scaling-stroke"  transform=" translate(-3, -3)" d="M 0 3 C 0 1.34315 1.34315 0 3 0 C 4.65685 0 6 1.34315 6 3 C 6 4.65685 4.65685 6 3 6 C 1.34315 6 0 4.65685 0 3 z" stroke-linecap="round" />
</g>
<g transform="matrix(1.84 0 0 2.15 294.19 614.69)" id="e3EoKo4w_2W11cNvGRKot"  >
<path style="stroke: none; stroke-width: 1; stroke-dasharray: none; stroke-linecap: butt; stroke-dashoffset: 0; stroke-linejoin: miter; stroke-miterlimit: 4; fill: rgb(255,255,255); fill-rule: nonzero; opacity: 1;" vector-effect="non-scaling-stroke"  transform=" translate(-3, -3)" d="M 0 3 C 0 1.34315 1.34315 0 3 0 C 4.65685 0 6 1.34315 6 3 C 6 4.65685 4.65685 6 3 6 C 1.34315 6 0 4.65685 0 3 z" stroke-linecap="round" />
</g>
<g transform="matrix(1.84 0 0 2.15 288.7 383.21)" id="snAGEC5vS4DPvIo73yXi7"  >
<path style="stroke: none; stroke-width: 1; stroke-dasharray: none; stroke-linecap: butt; stroke-dashoffset: 0; stroke-linejoin: miter; stroke-miterlimit: 4; fill: rgb(242,242,242); fill-rule: nonzero; opacity: 1;" vector-effect="non-scaling-stroke"  transform=" translate(-555.47, -576.5)" d="M 597.07906 562.73994 L 597.07906 590.26566 L 528.11681 590.26566 C 523.0856147043544 590.4407333462132 518.3598299509579 587.8565104735218 515.7923305402063 583.526207533164 C 513.2248311294546 579.1959045928063 513.2248311294546 573.8096954071939 515.7923305402063 569.4793924668361 C 518.3598299509579 565.1490895264783 523.0856147043543 562.5648666537869 528.11681 562.73994 Z" stroke-linecap="round" />
</g>
<g transform="matrix(1.84 0 0 2.15 288.88 383.45)" id="aMVuWG3_rm8n3ENLut5ub"  >
<path style="stroke: none; stroke-width: 1; stroke-dasharray: none; stroke-linecap: butt; stroke-dashoffset: 0; stroke-linejoin: miter; stroke-miterlimit: 4; fill: rgb(63,61,86); fill-rule: nonzero; opacity: 1;" vector-effect="non-scaling-stroke"  transform=" translate(-555.57, -576.61)" d="M 598.773 590.05392 C 598.7727737309763 590.6385190696016 598.2989190696017 591.1123737309762 597.71432 591.1125999999999 L 526.8885200000001 591.1125999999999 C 521.7038945795333 591.116905013319 516.9112602168778 588.3534125002634 514.3177039618553 583.8641113034487 C 511.72414770683264 579.3748101066338 511.72414770683264 573.842519893366 514.3177039618553 569.3532186965512 C 516.9112602168778 564.8639174997364 521.7038945795334 562.1004249866809 526.8885200000001 562.1047299999999 L 597.71432 562.1047299999999 C 598.2990127410214 562.1047301102087 598.7729998004493 562.5787172589785 598.7729998004493 563.1634099999999 C 598.7729998004493 563.7481027410213 598.2990127410214 564.222089889791 597.71432 564.2220899999999 L 526.8885200000001 564.2220899999999 C 520.0519494595958 564.2282327483653 514.5130695002201 569.772091699926 514.5130695002201 576.6086649999999 C 514.5130695002201 583.4452383000737 520.0519494595958 588.9890972516345 526.8885200000001 588.9952399999999 L 597.71432 588.9952399999999 C 598.2989167841265 588.9954717835932 598.7727682164067 589.4693232158735 598.773 590.05392 Z" stroke-linecap="round" />
</g>
<g transform="matrix(1.84 0 0 2.15 297.07 366.85)" id="kEb2zQdWppdDn8AZ0i3gC"  >
<path style="stroke: none; stroke-width: 1; stroke-dasharray: none; stroke-linecap: butt; stroke-dashoffset: 0; stroke-linejoin: miter; stroke-miterlimit: 4; fill: rgb(204,204,204); fill-rule: nonzero; opacity: 1;" vector-effect="non-scaling-stroke"  transform=" translate(-560.02, -568.88)" d="M 597.07906 569.092 L 522.97135 569.092 C 522.8953576929605 569.0925222468964 522.824913375428 569.0522803902485 522.7867656635987 568.9865547822011 C 522.7486179517692 568.9208291741537 522.7486179517692 568.8397008258463 522.7867656635987 568.7739752177989 C 522.824913375428 568.7082496097515 522.8953576929605 568.6680077531037 522.97135 568.66853 L 597.07906 568.66853 C 597.1954301641845 568.6693297382819 597.2893448797266 568.7638920878012 597.2893448797266 568.880265 C 597.2893448797266 568.9966379121988 597.1954301641845 569.0912002617181 597.07906 569.092 Z" stroke-linecap="round" />
</g>
<g transform="matrix(1.84 0 0 2.15 297.07 377.76)" id="FLYEvpxuTMHEw8Ye2U6eH"  >
<path style="stroke: none; stroke-width: 1; stroke-dasharray: none; stroke-linecap: butt; stroke-dashoffset: 0; stroke-linejoin: miter; stroke-miterlimit: 4; fill: rgb(204,204,204); fill-rule: nonzero; opacity: 1;" vector-effect="non-scaling-stroke"  transform=" translate(-560.02, -573.96)" d="M 597.07906 574.1737 L 522.97135 574.1737 C 522.8953576929605 574.1742222468964 522.824913375428 574.1339803902486 522.7867656635987 574.0682547822012 C 522.7486179517692 574.0025291741538 522.7486179517692 573.9214008258464 522.7867656635987 573.855675217799 C 522.824913375428 573.7899496097516 522.8953576929605 573.7497077531037 522.97135 573.7502300000001 L 597.07906 573.7502300000001 C 597.1954301641845 573.751029738282 597.2893448797266 573.8455920878013 597.2893448797266 573.9619650000001 C 597.2893448797266 574.0783379121989 597.1954301641845 574.1729002617182 597.07906 574.1737 Z" stroke-linecap="round" />
</g>
<g transform="matrix(1.84 0 0 2.15 297.07 388.67)" id="-bXWLWEyISxED_ZNEZFUG"  >
<path style="stroke: none; stroke-width: 1; stroke-dasharray: none; stroke-linecap: butt; stroke-dashoffset: 0; stroke-linejoin: miter; stroke-miterlimit: 4; fill: rgb(204,204,204); fill-rule: nonzero; opacity: 1;" vector-effect="non-scaling-stroke"  transform=" translate(-560.02, -579.04)" d="M 597.07906 579.25537 L 522.97135 579.25537 C 522.8953576929605 579.2558922468963 522.824913375428 579.2156503902485 522.7867656635987 579.1499247822011 C 522.7486179517692 579.0841991741537 522.7486179517692 579.0030708258463 522.7867656635987 578.9373452177989 C 522.824913375428 578.8716196097515 522.8953576929605 578.8313777531037 522.97135 578.8319 L 597.07906 578.8319 C 597.1954301641845 578.8326997382819 597.2893448797266 578.9272620878012 597.2893448797266 579.043635 C 597.2893448797266 579.1600079121988 597.1954301641845 579.2545702617181 597.07906 579.25537 Z" stroke-linecap="round" />
</g>
<g transform="matrix(1.84 0 0 2.15 297.07 399.61)" id="25pZ32a5sPKf3hg2WKM2C"  >
<path style="stroke: none; stroke-width: 1; stroke-dasharray: none; stroke-linecap: butt; stroke-dashoffset: 0; stroke-linejoin: miter; stroke-miterlimit: 4; fill: rgb(204,204,204); fill-rule: nonzero; opacity: 1;" vector-effect="non-scaling-stroke"  transform=" translate(-560.02, -584.13)" d="M 597.07906 584.337 L 522.97135 584.337 C 522.8953576929605 584.3375222468964 522.824913375428 584.2972803902485 522.7867656635987 584.2315547822011 C 522.7486179517692 584.1658291741537 522.7486179517692 584.0847008258463 522.7867656635987 584.0189752177989 C 522.824913375428 583.9532496097515 522.8953576929605 583.9130077531037 522.97135 583.91353 L 597.07906 583.91353 C 597.1954301641845 583.9143297382819 597.2893448797266 584.0088920878012 597.2893448797266 584.125265 C 597.2893448797266 584.2416379121988 597.1954301641845 584.3362002617181 597.07906 584.337 Z" stroke-linecap="round" />
</g>
<g transform="matrix(1.84 0 0 2.15 627.87 258.84)" id="TDjudxwkfeTpB0BYGcent"  >
<path style="stroke: none; stroke-width: 1; stroke-dasharray: none; stroke-linecap: butt; stroke-dashoffset: 0; stroke-linejoin: miter; stroke-miterlimit: 4; fill: rgb(63,61,86); fill-rule: nonzero; opacity: 1;" vector-effect="non-scaling-stroke"  transform=" translate(-739.89, -518.6)" d="M 759.56292 513.10473 L 728.143 513.10473 C 727.8448244739122 513.1044810534997 727.5505984124127 513.1729168596773 727.28314 513.3047300000001 L 719.35296 517.2747300000001 C 718.8194841012246 517.5014855912233 718.4731206396375 518.0250623083652 718.4731206396375 518.6047300000001 C 718.4731206396375 519.1843976916349 718.8194841012246 519.7079744087769 719.35296 519.9347300000001 L 727.28314 523.9047300000001 C 727.5505984124127 524.0365431403228 727.8448244739122 524.1049789465004 728.143 524.1047300000001 L 759.56293 524.1047300000001 C 760.4639508309889 524.1568638940303 761.239495499351 523.4750095744322 761.30316 522.5747300000002 L 761.30316 514.6347900000002 C 761.2395266998135 513.734482360322 760.4639664013621 513.0525914773123 759.56292 513.10473 Z" stroke-linecap="round" />
</g>
<g transform="matrix(1.84 0 0 2.15 659.89 258.84)" id="INNER4Lk1Ql7BP1urhEQD"  >
<path style="stroke: none; stroke-width: 1; stroke-dasharray: none; stroke-linecap: butt; stroke-dashoffset: 0; stroke-linejoin: miter; stroke-miterlimit: 4; fill: rgb(40,88,235); fill-rule: nonzero; opacity: 1;" vector-effect="non-scaling-stroke"  transform=" translate(-757.3, -518.6)" d="M 761.30315 514.63476 L 761.30315 522.5747 C 761.239485499351 523.474979574432 760.4639408309888 524.1568338940301 759.56292 524.1047 L 753.30315 524.1047 L 753.30315 513.1047 L 759.56292 513.1047 C 760.4639626130017 513.0525671655305 761.2395166742382 513.7344564829973 761.30315 514.63476 Z" stroke-linecap="round" />
</g>
<g transform="matrix(1.84 0 0 2.15 732.89 175.45)" id="vv_X0L_pv2ug3F2HLB7Ey"  >
<path style="stroke: none; stroke-width: 1; stroke-dasharray: none; stroke-linecap: butt; stroke-dashoffset: 0; stroke-linejoin: miter; stroke-miterlimit: 4; fill: rgb(255,184,184); fill-rule: nonzero; opacity: 1;" vector-effect="non-scaling-stroke"  transform=" translate(-796.99, -479.78)" d="M 759.3265 453.70453 C 762.2049762024174 452.4623332018896 765.4766628262684 452.5070457251456 768.3201173456266 453.82744132096536 C 771.1635718649848 455.14783691678514 773.3087323005813 457.61850874444116 774.217 460.61913 C 774.3568523233574 461.0894661512979 774.4638401996835 461.5689552125679 774.53719 462.05413 L 818.47513 483.84229 L 828.6434800000001 477.10375999999997 L 841.2952600000001 491.66907999999995 L 825.76934 504.2789 C 821.9353741620456 507.3684868311293 816.5286301111785 507.57701307476015 812.4680900000001 504.7919 L 767.8889100000001 473.96371 C 767.5571808090284 474.10439121393455 767.2184368657911 474.2279209889763 766.8740200000001 474.33380999999997 C 763.8729128373197 475.24148210739014 760.6271171060022 474.8257357694687 757.9516652671728 473.19096657642336 C 755.2762134283433 471.5561973833781 753.4252429427343 468.85768979429514 752.8635400000001 465.77304999999996 C 752.7812561539243 465.3304076309404 752.7269717339157 464.8830162358387 752.7010100000001 464.43353999999994 C 752.4477193558475 459.8233634329584 755.0910965724745 455.5428014532461 759.3265 453.70453 Z" stroke-linecap="round" />
</g>
<g transform="matrix(1.84 0 0 2.15 749.17 436.6)" id="yTJUG3_He90GyFVmaBLQu"  >
<path style="stroke: none; stroke-width: 1; stroke-dasharray: none; stroke-linecap: butt; stroke-dashoffset: 0; stroke-linejoin: miter; stroke-miterlimit: 4; fill: rgb(63,61,86); fill-rule: nonzero; opacity: 1;" vector-effect="non-scaling-stroke"  transform=" translate(-805.84, -601.35)" d="M 850.84106 587.8533 L 802.83129 587.8533 C 802.83129 589.2333 753.35129 590.3533 753.35129 590.3533 C 752.5746654825351 590.9380720701108 751.8668569849128 591.6090251168742 751.2414299999999 592.3533 C 749.362026983695 594.5948135018638 748.3348041963286 597.4281505010024 748.3410399999999 600.3533 L 748.3410399999999 602.3533 C 748.343578721653 609.2558075264607 753.9385324735392 614.8507612783469 760.8410399999999 614.8533 L 850.8410399999999 614.8533 C 857.7421130342152 614.8473011347464 863.3350411347463 609.2543730342153 863.3410399999999 602.3533 L 863.3410399999999 600.3533 C 863.3314832688936 593.453710837832 857.7406491468683 587.8628677704577 850.84106 587.8533 Z" stroke-linecap="round" />
</g>
<g transform="matrix(1.84 0 0 2.15 747.84 554.76)" id="jostD9Z2H-Iq2tBGHViaG"  >
<path style="stroke: none; stroke-width: 1; stroke-dasharray: none; stroke-linecap: butt; stroke-dashoffset: 0; stroke-linejoin: miter; stroke-miterlimit: 4; fill: rgb(63,61,86); fill-rule: nonzero; opacity: 1;" vector-effect="non-scaling-stroke"  transform=" translate(-6.5, -42)" d="M 0 84 L 0 0 L 13 0 L 13 84 z" stroke-linecap="round" />
</g>
<g transform="matrix(1.84 0 0 2.15 748.76 631.39)" id="1GG29EIS6On7j_aEjkV_8"  >
<path style="stroke: none; stroke-width: 1; stroke-dasharray: none; stroke-linecap: butt; stroke-dashoffset: 0; stroke-linejoin: miter; stroke-miterlimit: 4; fill: rgb(63,61,86); fill-rule: nonzero; opacity: 1;" vector-effect="non-scaling-stroke"  transform=" translate(-805.62, -692.03)" d="M 761.6175 697.9 C 761.6175 699.30463 781.31697 698.44331 805.6175 698.44331 C 829.9180299999999 698.44331 849.6175 699.30463 849.6175 697.9 C 849.6175 696.49537 829.9180299999999 685.35669 805.6175 685.35669 C 781.31697 685.35669 761.6175 696.49539 761.6175 697.9 Z" stroke-linecap="round" />
</g>
<g transform="matrix(1.84 0 0 2.15 672.78 588.7)" id="FqQlgnLpglHrg2Xd8kO4H"  >
<path style="stroke: none; stroke-width: 1; stroke-dasharray: none; stroke-linecap: butt; stroke-dashoffset: 0; stroke-linejoin: miter; stroke-miterlimit: 4; fill: rgb(255,184,184); fill-rule: nonzero; opacity: 1;" vector-effect="non-scaling-stroke"  transform=" translate(-510.31, -472.09)" d="M 519.353 487.993 L 507.09399999999994 487.992 L 501.2609999999999 456.195 L 519.3549999999999 456.19599999999997 z" stroke-linecap="round" />
</g>
<g transform="matrix(1.84 0 0 2.15 658.8 631.3)" id="yExwVkXU6uHlJbD_sM9Gb"  >
<path style="stroke: none; stroke-width: 1; stroke-dasharray: none; stroke-linecap: butt; stroke-dashoffset: 0; stroke-linejoin: miter; stroke-miterlimit: 4; fill: rgb(47,46,65); fill-rule: nonzero; opacity: 1;" vector-effect="non-scaling-stroke"  transform=" translate(-756.71, -691.99)" d="M 776.47983 699.93835 L 736.94931 699.9368900000001 L 736.94931 699.4368900000001 C 736.9492622582952 695.3561518688941 738.5703244504008 691.4425399531252 741.455864559762 688.5570448527639 C 744.3414046691231 685.6715497524026 748.2550418701352 684.0505486059573 752.33578 684.0506600000001 L 752.33678 684.0506600000001 L 776.4805799999999 684.0516600000001 Z" stroke-linecap="round" />
</g>
<g transform="matrix(1.84 0 0 2.15 711.59 461.88)" id="wd2qe5OY_rpkhlRAGvFos"  >
<path style="stroke: none; stroke-width: 1; stroke-dasharray: none; stroke-linecap: butt; stroke-dashoffset: 0; stroke-linejoin: miter; stroke-miterlimit: 4; fill: rgb(47,46,65); fill-rule: nonzero; opacity: 1;" vector-effect="non-scaling-stroke"  transform=" translate(-785.41, -613.12)" d="M 755.01663 668.33665 L 730.57571 613.529 C 726.3440685015221 603.9495589200692 730.1825645175526 592.7264087367504 739.3943099999999 587.74482 L 792.4077399999999 559.31709 L 816.5988999999998 557.25947 L 838.9135999999999 555.23115 L 839.0744899999999 555.50361 C 839.2802999999999 555.85127 844.0781499999998 564.13838 840.8349899999998 573.22529 C 838.3749899999998 580.1178699999999 831.9760999999999 585.50166 821.8161899999998 589.2272399999999 C 798.1018299999998 597.92256 770.7070599999997 605.3542399999999 760.0298099999998 608.14524 C 759.075340904843 608.3892976948781 758.2706963296152 609.0296749523372 757.8186299999998 609.90501 C 757.3655380781877 610.7696959010444 757.2943756174833 611.7843763732712 757.6223399999998 612.7038399999999 L 780.3288799999998 663.7184799999999 C 780.8095181721109 665.0297852191878 780.6540516642574 666.4899313013606 779.9080811352261 667.6706354980909 C 779.1621106061947 668.8513396948213 777.9102024101863 669.6187524163181 776.5195599999998 669.7477799999999 L 759.553 670.98313 Q 759.33694 671.0036399999999 759.12283 671.0036399999999 C 757.3476704831311 671.0030366266362 755.7389855831694 669.9581906519276 755.01663 668.33665 Z" stroke-linecap="round" />
</g>
<g transform="matrix(1.84 0 0 2.15 683.82 588.7)" id="axvk7gAEjrbM184VG9xax"  >
<path style="stroke: none; stroke-width: 1; stroke-dasharray: none; stroke-linecap: butt; stroke-dashoffset: 0; stroke-linejoin: miter; stroke-miterlimit: 4; fill: rgb(255,184,184); fill-rule: nonzero; opacity: 1;" vector-effect="non-scaling-stroke"  transform=" translate(-516.31, -472.09)" d="M 525.353 487.993 L 513.0939999999999 487.992 L 507.2609999999999 456.195 L 525.3549999999999 456.19599999999997 z" stroke-linecap="round" />
</g>
<g transform="matrix(1.84 0 0 2.15 669.84 631.3)" id="0Z-mah3_JOgl0ozpFFSI_"  >
<path style="stroke: none; stroke-width: 1; stroke-dasharray: none; stroke-linecap: butt; stroke-dashoffset: 0; stroke-linejoin: miter; stroke-miterlimit: 4; fill: rgb(47,46,65); fill-rule: nonzero; opacity: 1;" vector-effect="non-scaling-stroke"  transform=" translate(-762.71, -691.99)" d="M 782.47983 699.93835 L 742.94931 699.9368900000001 L 742.94931 699.4368900000001 C 742.9492622582952 695.3561518688941 744.5703244504008 691.4425399531252 747.455864559762 688.5570448527639 C 750.3414046691231 685.6715497524026 754.2550418701352 684.0505486059573 758.33578 684.0506600000001 L 758.33678 684.0506600000001 L 782.4805799999999 684.0516600000001 Z" stroke-linecap="round" />
</g>
<g transform="matrix(1.84 0 0 2.15 724.47 468.32)" id="6YLUhzDlkL2hJjiak7qcA"  >
<path style="stroke: none; stroke-width: 1; stroke-dasharray: none; stroke-linecap: butt; stroke-dashoffset: 0; stroke-linejoin: miter; stroke-miterlimit: 4; fill: rgb(47,46,65); fill-rule: nonzero; opacity: 1;" vector-effect="non-scaling-stroke"  transform=" translate(-792.41, -616.12)" d="M 762.01663 671.33665 L 737.57571 616.529 C 733.3440685015221 606.9495589200692 737.1825645175526 595.7264087367504 746.3943099999999 590.74482 L 799.4077399999999 562.31709 L 823.5988999999998 560.25947 L 845.9135999999999 558.23115 L 846.0744899999999 558.50361 C 846.2802999999999 558.85127 851.0781499999998 567.13838 847.8349899999998 576.22529 C 845.3749899999998 583.1178699999999 838.9760999999999 588.50166 828.8161899999998 592.2272399999999 C 805.1018299999998 600.92256 777.7070599999997 608.3542399999999 767.0298099999998 611.14524 C 766.075340904843 611.3892976948781 765.2706963296152 612.0296749523372 764.8186299999998 612.90501 C 764.3655380781877 613.7696959010444 764.2943756174833 614.7843763732712 764.6223399999998 615.7038399999999 L 787.3288799999998 666.7184799999999 C 787.8095181721109 668.0297852191878 787.6540516642574 669.4899313013606 786.9080811352261 670.6706354980909 C 786.1621106061947 671.8513396948213 784.9102024101863 672.6187524163181 783.5195599999998 672.7477799999999 L 766.553 673.98313 Q 766.33694 674.0036399999999 766.12283 674.0036399999999 C 764.3476704831311 674.0030366266362 762.7389855831694 672.9581906519276 762.01663 671.33665 Z" stroke-linecap="round" />
</g>
<g transform="matrix(1.84 0 0 2.15 663.2 154.48)" id="ZstuOO6SeMHaIQ4VTNq2O"  >
<path style="stroke: none; stroke-width: 1; stroke-dasharray: none; stroke-linecap: butt; stroke-dashoffset: 0; stroke-linejoin: miter; stroke-miterlimit: 4; fill: rgb(204,204,204); fill-rule: nonzero; opacity: 1;" vector-effect="non-scaling-stroke"  transform=" translate(-759.1, -470.02)" d="M 749.83452 503.90591 C 739.5641080999059 490.2446258301336 731.4449825701428 475.0919655985519 725.75912 458.97418 C 725.07889868706 456.9831651365612 725.9383610767055 454.79224859908305 727.79091 453.7948 L 762.9361700000001 434.96321 C 764.0882942485913 434.34116162515363 765.4629480104726 434.2853604670877 766.6617000000001 434.81198 C 767.8827853660688 435.3425793726886 768.7909241607944 436.40667624955034 769.1230100000001 437.69598 C 773.2136686895564 453.2275626846437 780.9029070513512 467.5781426469612 791.5686400000002 479.58671000000004 C 792.4583855229617 480.57716108751464 792.8414795468242 481.92267626875906 792.6068800000002 483.23325000000006 C 792.3813847661814 484.5230136954366 791.5735345091705 485.63664342923914 790.4174800000002 486.25136000000003 L 755.27223 505.083 C 753.4156668081599 506.0729646047191 751.115473029121 505.5750463458622 749.83452 503.90591 Z" stroke-linecap="round" />
</g>
<g transform="matrix(1.84 0 0 2.15 663.2 154.48)" id="aJhM8EzVLjednixW4ID1S"  >
<path style="stroke: none; stroke-width: 1; stroke-dasharray: none; stroke-linecap: butt; stroke-dashoffset: 0; stroke-linejoin: miter; stroke-miterlimit: 4; fill: rgb(255,255,255); fill-rule: nonzero; opacity: 1;" vector-effect="non-scaling-stroke"  transform=" translate(-759.1, -470.02)" d="M 752.23284 502.10375 C 752.6228918688578 502.5905105107475 753.3039380721738 502.73116441477805 753.85491 502.43874999999997 L 789.0004200000001 483.60675 C 789.3463936665761 483.42641844451487 789.5879172557804 483.0944336158099 789.653 482.70975 C 789.7273001363552 482.3036228802011 789.6070087763081 481.8861452379307 789.328 481.58182 C 778.3479237012607 469.21949888677136 770.4321291101066 454.4460676372061 766.2210699999999 438.45682 C 766.1222751809341 438.0563420837558 765.841771982907 437.72516729253306 765.4630099999999 437.56182 C 765.1061604721563 437.4022240824597 764.6951196556662 437.4192158179277 764.3526599999999 437.60772000000003 L 729.20793 456.4392 C 728.6586998273567 456.73596560521344 728.3984372791623 457.3816067489065 728.58831 457.97631 C 734.1724090140885 473.80559332549376 742.1462301347706 488.6870188845398 752.2328399999999 502.10374999999993 Z" stroke-linecap="round" />
</g>
<g transform="matrix(1.84 0 0 2.15 828.8 202.83)" id="Lgk8DtZFi0kC-sEDN8bce"  >
<path style="stroke: none; stroke-width: 1; stroke-dasharray: none; stroke-linecap: butt; stroke-dashoffset: 0; stroke-linejoin: miter; stroke-miterlimit: 4; fill: rgb(108,99,255); fill-rule: nonzero; opacity: 1;" vector-effect="non-scaling-stroke"  transform=" translate(-849.14, -492.53)" d="M 866.59251 498.88255 L 839.0678499999999 509.34191999999996 L 832.3478499999999 490.67527999999993 C 830.5055569845724 485.5577711693461 832.6177751426324 479.8572735634424 837.3498499999998 477.1757799999999 L 837.3498499999998 477.1757799999999 C 842.1403828290089 474.46113943701107 848.1946119220888 475.64309982388784 851.6123399999998 479.9602299999999 Z" stroke-linecap="round" />
</g>
<g transform="matrix(1.84 0 0 2.15 782.97 271.53)" id="eGVyy2H5kH7olM5HqGSp-"  >
<path style="stroke: none; stroke-width: 1; stroke-dasharray: none; stroke-linecap: butt; stroke-dashoffset: 0; stroke-linejoin: miter; stroke-miterlimit: 4; fill: rgb(40,88,235); fill-rule: nonzero; opacity: 1;" vector-effect="non-scaling-stroke"  transform=" translate(-824.22, -524.51)" d="M 796.58273 572.84256 C 795.4109134082175 572.0136258134149 794.6519887621785 570.7209478428831 794.49923 569.2937300000001 C 790.97384 536.3840600000001 793.42941 510.6296700000001 802.00509 490.55887000000007 C 805.0653350622415 483.54526076605214 811.170076594642 478.32018290238653 818.57199 476.3791800000001 L 840.8215 475.2561300000001 L 840.93673 475.3118000000001 C 851.2462744003751 480.3614009484035 857.0251280106874 491.57359463807 855.156 502.90018 C 847.99975 521.76346 842.0075599999999 541.40311 846.5773899999999 557.24637 C 846.9645730586586 558.5847193177401 846.789850148223 560.0230446425645 846.0935 561.2297699999999 C 845.4181053077708 562.3964733304437 844.2905179362525 563.2321355362342 842.9777799999999 563.5388499999999 L 800.59933 573.6199 C 799.2109691904636 573.9501742752474 797.7476226115597 573.6669701151006 796.58273 572.84256 Z" stroke-linecap="round" />
</g>
<g transform="matrix(1.84 0 0 2.15 799.85 95.11)" id="9Cg5-NzYngh6WZ7ORjiIQ"  >
<path style="stroke: none; stroke-width: 1; stroke-dasharray: none; stroke-linecap: butt; stroke-dashoffset: 0; stroke-linejoin: miter; stroke-miterlimit: 4; fill: rgb(255,184,184); fill-rule: nonzero; opacity: 1;" vector-effect="non-scaling-stroke"  transform=" translate(-24.56, -24.56)" d="M 0 24.56103 C 0 10.99635 10.99635 0 24.56103 0 C 38.12571 0 49.12206 10.99635 49.12206 24.56103 C 49.12206 38.12571 38.12571 49.12206 24.56103 49.12206 C 10.99635 49.12206 0 38.12571 0 24.56103 z" stroke-linecap="round" />
</g>
<g transform="matrix(1.84 0 0 2.15 654.23 138.94)" id="KKXZL_VnOX2KUUiOi534t"  >
<path style="stroke: none; stroke-width: 1; stroke-dasharray: none; stroke-linecap: butt; stroke-dashoffset: 0; stroke-linejoin: miter; stroke-miterlimit: 4; fill: rgb(204,204,204); fill-rule: nonzero; opacity: 1;" vector-effect="non-scaling-stroke"  transform=" translate(-754.22, -462.78)" d="M 765.24342 461.83787 L 746.10182 470.28744 C 744.5860300541678 470.95457784588456 742.8162632569254 470.2687708438186 742.14582 468.75444 L 741.67239 467.68192999999997 C 741.0052521541154 466.1661400541679 741.6910591561814 464.39637325692536 743.20539 463.72592999999995 L 762.34699 455.27635999999995 C 763.8627799458321 454.6092221541154 765.6325467430746 455.2950291561814 766.30299 456.80935999999997 L 766.77642 457.88187 C 767.4435578458846 459.39765994583206 766.7577508438186 461.16742674307466 765.24342 461.83787 Z" stroke-linecap="round" />
</g>
<g transform="matrix(1.84 0 0 2.15 667.1 166.86)" id="p2eP1aY_VtOAqPHPjK8-p"  >
<path style="stroke: none; stroke-width: 1; stroke-dasharray: none; stroke-linecap: butt; stroke-dashoffset: 0; stroke-linejoin: miter; stroke-miterlimit: 4; fill: rgb(204,204,204); fill-rule: nonzero; opacity: 1;" vector-effect="non-scaling-stroke"  transform=" translate(-761.22, -475.78)" d="M 772.24342 474.83787 L 753.10182 483.28744 C 751.5860300541678 483.95457784588456 749.8162632569254 483.2687708438186 749.14582 481.75444 L 748.67239 480.68192999999997 C 748.0052521541154 479.1661400541679 748.6910591561814 477.39637325692536 750.20539 476.72592999999995 L 769.34699 468.27635999999995 C 770.8627799458321 467.6092221541154 772.6325467430746 468.2950291561814 773.30299 469.80935999999997 L 773.77642 470.88187 C 774.4435578458846 472.39765994583206 773.7577508438186 474.16742674307466 772.24342 474.83787 Z" stroke-linecap="round" />
</g>
<g transform="matrix(1.84 0 0 2.15 689 217.25)" id="2t9MAZWef6rDkb9JAFNiK"  >
<path style="stroke: none; stroke-width: 1; stroke-dasharray: none; stroke-linecap: butt; stroke-dashoffset: 0; stroke-linejoin: miter; stroke-miterlimit: 4; fill: rgb(255,184,184); fill-rule: nonzero; opacity: 1;" vector-effect="non-scaling-stroke"  transform=" translate(-773.13, -499.24)" d="M 787.00509 525.615 L 744.33078 491.949 C 743.9908642560637 492.06856930831384 743.6450281503951 492.1705905255805 743.29464 492.25466 C 740.2484944590478 492.967191825073 737.0430643235936 492.3523385118115 734.47677 490.56325 C 731.892563718037 488.77230310331277 730.2063915650947 485.9537708203485 729.85031 482.82986 C 729.2611350562171 477.7475397893199 732.2465517614937 472.9278911771429 737.05931 471.19167 C 740.0102331535097 470.1332030917651 743.2725346043992 470.3836972231343 746.0272703403514 471.8802702012465 C 748.7820060763036 473.3768431793588 750.767591521185 475.97738322085036 751.48558 479.02907 C 751.595518460238 479.50721950765677 751.6720367638861 479.992442453694 751.7145800000001 480.48122 L 794.196 504.98856 L 804.76778 498.90213 L 816.47871 514.23413 L 800.06465 525.93335 C 796.1187257838086 528.7225659366203 790.8104095621345 528.5931623228465 787.00508 525.61499 Z" stroke-linecap="round" />
</g>
<g transform="matrix(1.84 0 0 2.15 762.72 219.44)" id="6t4Pvk4Bkaa2wkDLSA0fh"  >
<path style="stroke: none; stroke-width: 1; stroke-dasharray: none; stroke-linecap: butt; stroke-dashoffset: 0; stroke-linejoin: miter; stroke-miterlimit: 4; fill: rgb(40,88,235); fill-rule: nonzero; opacity: 1;" vector-effect="non-scaling-stroke"  transform=" translate(-813.21, -500.26)" d="M 821.686 519.00884 L 797.33731 502.45145999999994 L 808.78019 486.24459999999993 C 811.9172959292601 481.80146791478916 817.7989965524665 480.26438884532854 822.70881 482.60459999999995 L 822.70881 482.60459999999995 C 827.6792984699549 484.9737121390978 830.1813941485347 490.6119924861221 828.60322 495.88719999999995 Z" stroke-linecap="round" />
</g>
<g transform="matrix(1.84 0 0 2.15 840.99 156.08)" id="DxxC79T-iS5Gmqgk_OhAl"  >
<path style="stroke: none; stroke-width: 1; stroke-dasharray: none; stroke-linecap: butt; stroke-dashoffset: 0; stroke-linejoin: miter; stroke-miterlimit: 4; fill: rgb(47,46,65); fill-rule: nonzero; opacity: 1;" vector-effect="non-scaling-stroke"  transform=" translate(-855.77, -470.76)" d="M 824.39127 438.72667 C 818.0785599999999 443.04718 809.78982 447.48841 803.34236 442.88742 C 799.10884 439.86633 797.77499 434.27197 799.49176 429.36256000000003 C 802.57902 420.53399 811.06119 416.64725000000004 819.17228 413.66797 C 829.71669 409.79492000000005 841.19801 406.71373 852.0834 409.48742000000004 C 862.96879 412.2611100000001 872.5889999999999 422.80034000000006 870.62398 433.86035000000004 C 869.0437599999999 442.75458000000003 860.6539799999999 450.15527000000003 861.84498 459.10993 C 863.04365 468.12208000000004 873.17877 472.86582000000004 882.1264699999999 474.47651 C 891.0741699999999 476.0872 901.0868599999999 476.60473 907.51721 483.03171000000003 C 915.7203099999999 491.23051000000004 913.6718599999999 505.88496000000004 905.95307 514.5412600000001 C 898.2342800000001 523.1975600000001 886.58624 527.1213700000001 875.29927 529.7888300000001 C 860.34473 533.3230500000001 844.17022 535.1804400000001 829.96718 529.31505 C 815.76414 523.44966 804.71153 507.66072 808.82592 492.85529 C 810.56383 486.60149 814.65783 481.31619 818.61446 476.17078000000004 C 822.57109 471.02537000000007 826.5775600000001 465.64478 828.08684 459.3319 C 829.34456 454.07117 828.41366 447.96321 824.92502 444.01706 C 823.6232372071797 442.6000300194815 823.3831861567448 440.5054322478039 824.33063 438.83063000000004 Z" stroke-linecap="round" />
</g>
</svg>