<?xml version="1.0" encoding="utf-8"?>
<!-- Generator: Adobe Illustrator 22.0.1, SVG Export Plug-In . SVG Version: 6.00 Build 0)  -->
<svg version="1.1" id="OBJECTS" xmlns="http://www.w3.org/2000/svg" xmlns:xlink="http://www.w3.org/1999/xlink" x="0px" y="0px"
	 viewBox="0 0 500 500" style="enable-background:new 0 0 500 500;" xml:space="preserve">
<style type="text/css">
	.st0{fill:#D4E1F7;}
	.st1{fill:#001030;}
	.st2{fill:#2A3554;}
	.st3{fill:#FFF9FF;}
	.st4{fill:#2BD184;}
	.st5{fill:#005DB1;}
	.st6{fill:#FF5767;}
	.st7{fill:#F9AF8B;}
	.st8{fill:#021019;}
	.st9{fill:#4A5180;}
	.st10{fill:#FC8664;}
	.st11{fill:#004386;}
	.st12{fill:#FD664D;}
	.st13{fill:#E22445;}
</style>
<g>
	<ellipse class="st0" cx="252.8" cy="445.6" rx="241.3" ry="17.4"/>
	<path class="st0" d="M216.3,143.3c-19.5-70.8-107.5-93.6-157.9-40.7c-0.7,0.8-1.4,1.5-2.2,2.3c-72.3,78.6-40.1,274.9,112.1,319.6
		c157.9,46.4,308.4-38.9,317.2-119c8.8-80.1-60.8-105.3-168.8-82.9C255.7,235.3,228.4,187.4,216.3,143.3z"/>
	<g>
		<rect x="222.3" y="357.9" class="st1" width="57.4" height="67.4"/>
		<path class="st2" d="M313.4,442.9H188.7v-5.5c0-6.6,5.4-12,12-12h100.6c6.6,0,12,5.4,12,12V442.9z"/>
		<g>
			<path class="st2" d="M441.4,110v244.1c0,4.1-3.3,7.4-7.4,7.4H63.5c-4.1,0-7.4-3.3-7.4-7.4V110c0-4.1,3.3-7.4,7.4-7.4H434
				C438.1,102.6,441.4,106,441.4,110z"/>
			<path class="st3" d="M431.2,120.5v223.2c0,4.1-3.4,7.5-7.5,7.5H73.8c-0.9,0-1.8-0.2-2.6-0.5c-2.9-1-4.9-3.8-4.9-7V120.5
				c0-4.1,3.4-7.5,7.5-7.5h349.9c1,0,2,0.2,2.8,0.6C429.2,114.7,431.2,117.4,431.2,120.5z"/>
			<g>
				<path class="st0" d="M431.2,120.5v11.1H66.3v-11.1c0-4.1,3.4-7.5,7.5-7.5h349.9C427.8,113,431.2,116.3,431.2,120.5z"/>
				<path class="st3" d="M115.8,122.4L115.8,122.4c0,1.4,1.1,2.5,2.5,2.5h246.4c1.4,0,2.5-1.1,2.5-2.5l0,0c0-1.4-1.1-2.5-2.5-2.5
					H118.2C116.9,120,115.8,121.1,115.8,122.4z"/>
				<g>
					<path class="st2" d="M87.7,122.4v1.8c0,0.5-0.6,0.8-1,0.6l-1.6-0.9l-1.6-0.9c-0.5-0.3-0.5-0.9,0-1.2l1.6-0.9l1.6-0.9
						c0.5-0.3,1,0.1,1,0.6V122.4z"/>
					<path class="st2" d="M95.9,122.4v1.8c0,0.5,0.6,0.8,1,0.6l1.6-0.9l1.6-0.9c0.5-0.3,0.5-0.9,0-1.2l-1.6-0.9l-1.6-0.9
						c-0.5-0.3-1,0.1-1,0.6V122.4z"/>
				</g>
				<g>
					<circle class="st4" cx="398.9" cy="122.3" r="3.6"/>
					<circle class="st5" cx="385.4" cy="122.3" r="3.6"/>
					<path class="st6" d="M416,122.3c0,2-1.6,3.6-3.6,3.6c-2,0-3.6-1.6-3.6-3.6c0-2,1.6-3.6,3.6-3.6
						C414.4,118.7,416,120.3,416,122.3z"/>
				</g>
			</g>
			<g>
				<path class="st0" d="M275.6,230.3c-0.5,0-1-0.1-1.5-0.4l-0.5-0.3c-0.3-0.2-0.5-0.3-0.7-0.5l-3.8-2.6c-6.8-4.7-13.5-9.3-20.3-14
					c-6.8,4.8-13.5,9.7-20.3,14.5l-3.2,2.3c-0.2,0.1-0.4,0.3-0.6,0.4l-0.3,0.2c-0.9,0.6-2.1,0.6-3,0c-0.9-0.6-1.3-1.8-1-2.8l0.1-0.3
					c0.1-0.3,0.1-0.5,0.2-0.7l1.2-3.9c2.3-7.4,4.5-14.7,6.8-22.1c-7-5-13.9-10-20.8-15.1l-4.5-3.2c-0.4-0.3-1-0.7-1.4-1.5
					c-0.4-0.8-0.4-1.8,0-2.6s1.3-1.3,2.2-1.3l0.6,0c0.4,0,0.9,0,1.3,0l7-0.2c7.7-0.2,15.3-0.4,23-0.5c2.3-7.5,4.6-15,6.9-22.5
					l1.9-6.2c0.3-1,1.3-1.8,2.4-1.8c1.1-0.1,2.1,0.6,2.6,1.6l0.1,0.3c0.1,0.2,0.2,0.4,0.3,0.6l1.8,4.6c3,8,6.1,15.9,9.1,23.9
					c7.5-0.2,15-0.3,22.5-0.4l5.6-0.1c0.4,0,1.1,0,2,0.2c1,0.3,1.7,1.1,1.9,2.1c0.2,1-0.2,2-1,2.6l-0.2,0.1
					c-0.2,0.1-0.3,0.2-0.5,0.3l-4.5,3.1c-6.5,4.5-13,9.1-19.6,13.6c2.9,8,5.7,15.9,8.6,23.9l1.6,4.4c0.1,0.2,0.1,0.4,0.2,0.7
					l0.1,0.4c0.3,1.1-0.1,2.2-1,2.9C276.7,230.1,276.2,230.3,275.6,230.3z"/>
			</g>
			<g>
				<g>
					<path class="st6" d="M192.3,258.1c-0.1,0-0.2,0-0.3-0.1l-0.1-0.1c-0.1,0-0.1-0.1-0.1-0.1l-0.8-0.5c-1.3-0.9-2.7-1.9-4-2.8
						c-1.3,1-2.7,1.9-4,2.9l-0.6,0.4c0,0-0.1,0-0.1,0.1l-0.1,0c-0.2,0.1-0.4,0.1-0.6,0c-0.2-0.1-0.3-0.3-0.2-0.6l0-0.1
						c0-0.1,0-0.1,0-0.1l0.2-0.8c0.5-1.5,0.9-2.9,1.4-4.4c-1.4-1-2.8-2-4.1-3l-0.9-0.6c-0.1-0.1-0.2-0.1-0.3-0.3
						c-0.1-0.2-0.1-0.4,0-0.5c0.1-0.2,0.3-0.3,0.4-0.3l0.1,0c0.1,0,0.2,0,0.3,0l1.4,0c1.5,0,3-0.1,4.6-0.1c0.5-1.5,0.9-3,1.4-4.5
						l0.4-1.2c0.1-0.2,0.3-0.4,0.5-0.4c0.2,0,0.4,0.1,0.5,0.3l0,0.1c0,0,0,0.1,0.1,0.1l0.3,0.9c0.6,1.6,1.2,3.2,1.8,4.7
						c1.5,0,3-0.1,4.5-0.1l1.1,0c0.1,0,0.2,0,0.4,0c0.2,0.1,0.3,0.2,0.4,0.4c0,0.2,0,0.4-0.2,0.5l0,0c0,0-0.1,0-0.1,0.1l-0.9,0.6
						c-1.3,0.9-2.6,1.8-3.9,2.7c0.6,1.6,1.1,3.2,1.7,4.7l0.3,0.9c0,0,0,0.1,0,0.1l0,0.1c0.1,0.2,0,0.4-0.2,0.6
						C192.5,258.1,192.4,258.1,192.3,258.1z"/>
					<path class="st6" d="M222.7,258.1c-0.1,0-0.2,0-0.3-0.1l-0.1-0.1c-0.1,0-0.1-0.1-0.1-0.1l-0.8-0.5c-1.3-0.9-2.7-1.9-4-2.8
						c-1.3,1-2.7,1.9-4,2.9l-0.6,0.4c0,0-0.1,0-0.1,0.1l-0.1,0c-0.2,0.1-0.4,0.1-0.6,0c-0.2-0.1-0.3-0.3-0.2-0.6l0-0.1
						c0-0.1,0-0.1,0-0.1l0.2-0.8c0.5-1.5,0.9-2.9,1.4-4.4c-1.4-1-2.8-2-4.1-3l-0.9-0.6c-0.1-0.1-0.2-0.1-0.3-0.3
						c-0.1-0.2-0.1-0.4,0-0.5c0.1-0.2,0.3-0.3,0.4-0.3l0.1,0c0.1,0,0.2,0,0.3,0l1.4,0c1.5,0,3-0.1,4.6-0.1c0.5-1.5,0.9-3,1.4-4.5
						l0.4-1.2c0.1-0.2,0.3-0.4,0.5-0.4c0.2,0,0.4,0.1,0.5,0.3l0,0.1c0,0,0,0.1,0.1,0.1l0.3,0.9c0.6,1.6,1.2,3.2,1.8,4.7
						c1.5,0,3-0.1,4.5-0.1l1.1,0c0.1,0,0.2,0,0.4,0c0.2,0.1,0.3,0.2,0.4,0.4c0,0.2,0,0.4-0.2,0.5l0,0c0,0-0.1,0-0.1,0.1l-0.9,0.6
						c-1.3,0.9-2.6,1.8-3.9,2.7c0.6,1.6,1.1,3.2,1.7,4.7l0.3,0.9c0,0,0,0.1,0,0.1l0,0.1c0.1,0.2,0,0.4-0.2,0.6
						C223,258.1,222.9,258.1,222.7,258.1z"/>
					<path class="st6" d="M253.2,258.1c-0.1,0-0.2,0-0.3-0.1l-0.1-0.1c-0.1,0-0.1-0.1-0.1-0.1l-0.8-0.5c-1.3-0.9-2.7-1.9-4-2.8
						c-1.3,1-2.7,1.9-4,2.9l-0.6,0.4c0,0-0.1,0-0.1,0.1l-0.1,0c-0.2,0.1-0.4,0.1-0.6,0s-0.3-0.3-0.2-0.6l0-0.1c0-0.1,0-0.1,0-0.1
						l0.2-0.8c0.5-1.5,0.9-2.9,1.4-4.4c-1.4-1-2.8-2-4.1-3l-0.9-0.6c-0.1-0.1-0.2-0.1-0.3-0.3c-0.1-0.2-0.1-0.4,0-0.5
						c0.1-0.2,0.3-0.3,0.4-0.3l0.1,0c0.1,0,0.2,0,0.3,0l1.4,0c1.5,0,3-0.1,4.6-0.1c0.5-1.5,0.9-3,1.4-4.5l0.4-1.2
						c0.1-0.2,0.3-0.4,0.5-0.4c0.2,0,0.4,0.1,0.5,0.3l0,0.1c0,0,0,0.1,0.1,0.1l0.3,0.9c0.6,1.6,1.2,3.2,1.8,4.7c1.5,0,3-0.1,4.5-0.1
						l1.1,0c0.1,0,0.2,0,0.4,0c0.2,0.1,0.3,0.2,0.4,0.4c0,0.2,0,0.4-0.2,0.5l0,0c0,0-0.1,0-0.1,0.1l-0.9,0.6
						c-1.3,0.9-2.6,1.8-3.9,2.7c0.6,1.6,1.1,3.2,1.7,4.7l0.3,0.9c0,0,0,0.1,0,0.1l0,0.1c0.1,0.2,0,0.4-0.2,0.6
						C253.4,258.1,253.3,258.1,253.2,258.1z"/>
					<path class="st6" d="M283.6,258.1c-0.1,0-0.2,0-0.3-0.1l-0.1-0.1c-0.1,0-0.1-0.1-0.1-0.1l-0.8-0.5c-1.3-0.9-2.7-1.9-4-2.8
						c-1.3,1-2.7,1.9-4,2.9l-0.6,0.4c0,0-0.1,0-0.1,0.1l-0.1,0c-0.2,0.1-0.4,0.1-0.6,0s-0.3-0.3-0.2-0.6l0-0.1c0-0.1,0-0.1,0-0.1
						l0.2-0.8c0.5-1.5,0.9-2.9,1.4-4.4c-1.4-1-2.8-2-4.1-3l-0.9-0.6c-0.1-0.1-0.2-0.1-0.3-0.3c-0.1-0.2-0.1-0.4,0-0.5
						c0.1-0.2,0.3-0.3,0.4-0.3l0.1,0c0.1,0,0.2,0,0.3,0l1.4,0c1.5,0,3-0.1,4.6-0.1c0.5-1.5,0.9-3,1.4-4.5l0.4-1.2
						c0.1-0.2,0.3-0.4,0.5-0.4c0.2,0,0.4,0.1,0.5,0.3l0,0.1c0,0,0,0.1,0.1,0.1l0.3,0.9c0.6,1.6,1.2,3.2,1.8,4.7c1.5,0,3-0.1,4.5-0.1
						l1.1,0c0.1,0,0.2,0,0.4,0c0.2,0.1,0.3,0.2,0.4,0.4c0,0.2,0,0.4-0.2,0.5l0,0c0,0-0.1,0-0.1,0.1l-0.9,0.6
						c-1.3,0.9-2.6,1.8-3.9,2.7c0.6,1.6,1.1,3.2,1.7,4.7l0.3,0.9c0,0,0,0.1,0,0.1l0,0.1c0.1,0.2,0,0.4-0.2,0.6
						C283.8,258.1,283.7,258.1,283.6,258.1z"/>
					<path class="st0" d="M314.1,258.1c-0.1,0-0.2,0-0.3-0.1l-0.1-0.1c-0.1,0-0.1-0.1-0.1-0.1l-0.8-0.5c-1.3-0.9-2.7-1.9-4-2.8
						c-1.3,1-2.7,1.9-4,2.9l-0.6,0.4c0,0-0.1,0-0.1,0.1l-0.1,0c-0.2,0.1-0.4,0.1-0.6,0s-0.3-0.3-0.2-0.6l0-0.1c0-0.1,0-0.1,0-0.1
						l0.2-0.8c0.5-1.5,0.9-2.9,1.4-4.4c-1.4-1-2.8-2-4.1-3l-0.9-0.6c-0.1-0.1-0.2-0.1-0.3-0.3c-0.1-0.2-0.1-0.4,0-0.5
						c0.1-0.2,0.3-0.3,0.4-0.3l0.1,0c0.1,0,0.2,0,0.3,0l1.4,0c1.5,0,3-0.1,4.6-0.1c0.5-1.5,0.9-3,1.4-4.5l0.4-1.2
						c0.1-0.2,0.3-0.4,0.5-0.4c0.2,0,0.4,0.1,0.5,0.3l0,0.1c0,0,0,0.1,0.1,0.1l0.3,0.9c0.6,1.6,1.2,3.2,1.8,4.7c1.5,0,3-0.1,4.5-0.1
						l1.1,0c0.1,0,0.2,0,0.4,0c0.2,0.1,0.3,0.2,0.4,0.4c0,0.2,0,0.4-0.2,0.5l0,0c0,0-0.1,0-0.1,0.1l-0.9,0.6
						c-1.3,0.9-2.6,1.8-3.9,2.7c0.6,1.6,1.1,3.2,1.7,4.7l0.3,0.9c0,0,0,0.1,0,0.1l0,0.1c0.1,0.2,0,0.4-0.2,0.6
						C314.3,258.1,314.2,258.1,314.1,258.1z"/>
				</g>
			</g>
			<g>
				<g>
					<path class="st0" d="M167.8,170.9H99.2c-1.7,0-3.1-1.6-3.1-3.5l0,0c0-1.9,1.4-3.5,3.1-3.5h68.6c1.7,0,3.1,1.6,3.1,3.5l0,0
						C170.9,169.3,169.5,170.9,167.8,170.9z"/>
					<path class="st0" d="M167.8,188.4H99.2c-1.7,0-3.1-1.6-3.1-3.5l0,0c0-1.9,1.4-3.5,3.1-3.5h68.6c1.7,0,3.1,1.6,3.1,3.5l0,0
						C170.9,186.8,169.5,188.4,167.8,188.4z"/>
					<path class="st0" d="M167.8,205.9H99.2c-1.7,0-3.1-1.6-3.1-3.5l0,0c0-1.9,1.4-3.5,3.1-3.5h68.6c1.7,0,3.1,1.6,3.1,3.5l0,0
						C170.9,204.3,169.5,205.9,167.8,205.9z"/>
					<path class="st0" d="M167.8,223.4H99.2c-1.7,0-3.1-1.6-3.1-3.5l0,0c0-1.9,1.4-3.5,3.1-3.5h68.6c1.7,0,3.1,1.6,3.1,3.5l0,0
						C170.9,221.8,169.5,223.4,167.8,223.4z"/>
				</g>
				<g>
					<path class="st0" d="M167.8,279.2H99.2c-1.7,0-3.1-1.6-3.1-3.5l0,0c0-1.9,1.4-3.5,3.1-3.5h68.6c1.7,0,3.1,1.6,3.1,3.5l0,0
						C170.9,277.6,169.5,279.2,167.8,279.2z"/>
					<path class="st0" d="M167.8,296.7H99.2c-1.7,0-3.1-1.6-3.1-3.5l0,0c0-1.9,1.4-3.5,3.1-3.5h68.6c1.7,0,3.1,1.6,3.1,3.5l0,0
						C170.9,295.1,169.5,296.7,167.8,296.7z"/>
					<path class="st0" d="M167.8,314.2H99.2c-1.7,0-3.1-1.6-3.1-3.5l0,0c0-1.9,1.4-3.5,3.1-3.5h68.6c1.7,0,3.1,1.6,3.1,3.5l0,0
						C170.9,312.6,169.5,314.2,167.8,314.2z"/>
					<path class="st0" d="M167.8,331.7H99.2c-1.7,0-3.1-1.6-3.1-3.5l0,0c0-1.9,1.4-3.5,3.1-3.5h68.6c1.7,0,3.1,1.6,3.1,3.5l0,0
						C170.9,330.1,169.5,331.7,167.8,331.7z"/>
				</g>
				<g>
					<path class="st0" d="M396.1,170.9h-68.6c-1.7,0-3.1-1.6-3.1-3.5l0,0c0-1.9,1.4-3.5,3.1-3.5h68.6c1.7,0,3.1,1.6,3.1,3.5l0,0
						C399.2,169.3,397.8,170.9,396.1,170.9z"/>
					<path class="st0" d="M396.1,188.4h-68.6c-1.7,0-3.1-1.6-3.1-3.5l0,0c0-1.9,1.4-3.5,3.1-3.5h68.6c1.7,0,3.1,1.6,3.1,3.5l0,0
						C399.2,186.8,397.8,188.4,396.1,188.4z"/>
					<path class="st0" d="M396.1,205.9h-68.6c-1.7,0-3.1-1.6-3.1-3.5l0,0c0-1.9,1.4-3.5,3.1-3.5h68.6c1.7,0,3.1,1.6,3.1,3.5l0,0
						C399.2,204.3,397.8,205.9,396.1,205.9z"/>
					<path class="st0" d="M396.1,223.4h-68.6c-1.7,0-3.1-1.6-3.1-3.5l0,0c0-1.9,1.4-3.5,3.1-3.5h68.6c1.7,0,3.1,1.6,3.1,3.5l0,0
						C399.2,221.8,397.8,223.4,396.1,223.4z"/>
				</g>
				<g>
					<path class="st0" d="M396.1,279.2h-68.6c-1.7,0-3.1-1.6-3.1-3.5l0,0c0-1.9,1.4-3.5,3.1-3.5h68.6c1.7,0,3.1,1.6,3.1,3.5l0,0
						C399.2,277.6,397.8,279.2,396.1,279.2z"/>
					<path class="st0" d="M396.1,296.7h-68.6c-1.7,0-3.1-1.6-3.1-3.5l0,0c0-1.9,1.4-3.5,3.1-3.5h68.6c1.7,0,3.1,1.6,3.1,3.5l0,0
						C399.2,295.1,397.8,296.7,396.1,296.7z"/>
					<path class="st0" d="M396.1,314.2h-68.6c-1.7,0-3.1-1.6-3.1-3.5l0,0c0-1.9,1.4-3.5,3.1-3.5h68.6c1.7,0,3.1,1.6,3.1,3.5l0,0
						C399.2,312.6,397.8,314.2,396.1,314.2z"/>
					<path class="st0" d="M396.1,331.7h-68.6c-1.7,0-3.1-1.6-3.1-3.5l0,0c0-1.9,1.4-3.5,3.1-3.5h68.6c1.7,0,3.1,1.6,3.1,3.5l0,0
						C399.2,330.1,397.8,331.7,396.1,331.7z"/>
				</g>
				<g>
					<path class="st0" d="M283.9,279.2h-68.6c-1.7,0-3.1-1.6-3.1-3.5l0,0c0-1.9,1.4-3.5,3.1-3.5h68.6c1.7,0,3.1,1.6,3.1,3.5l0,0
						C287.1,277.6,285.7,279.2,283.9,279.2z"/>
					<path class="st0" d="M283.9,296.7h-68.6c-1.7,0-3.1-1.6-3.1-3.5l0,0c0-1.9,1.4-3.5,3.1-3.5h68.6c1.7,0,3.1,1.6,3.1,3.5l0,0
						C287.1,295.1,285.7,296.7,283.9,296.7z"/>
					<path class="st0" d="M283.9,314.2h-68.6c-1.7,0-3.1-1.6-3.1-3.5l0,0c0-1.9,1.4-3.5,3.1-3.5h68.6c1.7,0,3.1,1.6,3.1,3.5l0,0
						C287.1,312.6,285.7,314.2,283.9,314.2z"/>
					<path class="st0" d="M283.9,331.7h-68.6c-1.7,0-3.1-1.6-3.1-3.5l0,0c0-1.9,1.4-3.5,3.1-3.5h68.6c1.7,0,3.1,1.6,3.1,3.5l0,0
						C287.1,330.1,285.7,331.7,283.9,331.7z"/>
				</g>
			</g>
		</g>
	</g>
	<g>
		<g>
			<polygon class="st7" points="97.1,428 97.1,437.9 104.5,437.9 105.1,427.4 			"/>
			<path class="st2" d="M114.5,291.6c0,0-0.4,6.7-1,16.4c-1.4,22.3-3.7,60.6-4.9,71.7c-2,19.7-2.1,49.6-2.1,49.6H95.6
				c-1.2-25.1-3.5-103.6-4.1-125.5c-0.1-3.6-0.2-5.7-0.2-5.7l18.3-5.2l1.4-0.4L114.5,291.6z"/>
			<path class="st8" d="M111.1,292.6l3.4-1c0,0-0.4,7.5-1,17.3c-8.7,0.5-18-3.1-21.9-5c-0.1-3.6-0.2-5.7-0.2-5.7l18.3-5.2
				L111.1,292.6z"/>
			<g>
				<polygon class="st9" points="94.4,425.5 94.9,430.4 107.9,430.4 108.3,425.5 				"/>
			</g>
			<g>
				<g>
					<path class="st6" d="M99.2,436.9c0,0-1.6-2.1-2.9-2c-1.3,0.1-11.1,8.1-14.4,8.8c-3.4,0.7-2.7,3.2-2.1,4.4
						c0.6,1.3,27-0.8,27-0.8s0.6-7.9-0.3-10.2C105.6,434.6,101.8,437.4,99.2,436.9z"/>
					<g>
						<g>
							<path class="st3" d="M93.8,442.5c0.1,0,0.3,0,0.4,0c0.2-0.1,0.3-0.4,0.2-0.6c0-0.1-1.1-1.9-2.5-2.5c-1.9-0.9-3.3,0.1-3.4,0.2
								c-0.2,0.2-0.2,0.5-0.1,0.7c0.2,0.2,0.5,0.2,0.7,0.1c0,0,1-0.7,2.4-0.1c1.1,0.6,2.1,2.2,2.1,2.2
								C93.6,442.3,93.7,442.4,93.8,442.5z"/>
						</g>
						<g>
							<path class="st3" d="M95.2,441.1c0.1,0,0.3,0,0.4,0c0.2-0.1,0.3-0.4,0.2-0.6c0-0.1-1.1-1.9-2.5-2.5c-1.9-0.9-3.3,0.1-3.4,0.2
								c-0.2,0.2-0.2,0.5-0.1,0.7c0.2,0.2,0.5,0.2,0.7,0.1c0,0,1-0.7,2.4-0.1c1.1,0.6,2.1,2.2,2.1,2.2C95,441,95.1,441.1,95.2,441.1
								z"/>
						</g>
						<g>
							<path class="st3" d="M91.9,443.6c0.1,0,0.3,0,0.4,0c0.2-0.1,0.3-0.4,0.2-0.6c0-0.1-1.1-1.9-2.5-2.5c-1.9-0.9-3.3,0.1-3.4,0.2
								c-0.2,0.2-0.2,0.5-0.1,0.7c0.2,0.2,0.5,0.2,0.7,0.1c0,0,1-0.7,2.4-0.1c1.1,0.6,2.1,2.2,2.1,2.2
								C91.7,443.4,91.8,443.5,91.9,443.6z"/>
						</g>
					</g>
				</g>
			</g>
		</g>
		<g>
			<polygon class="st7" points="126.7,429.2 127,437.5 134.6,437.1 134.8,428.3 			"/>
			<g>
				<g>
					<path class="st6" d="M130.4,435.2c0,0,3.5-0.8,4.5-0.7c1,0.1,7.1,7.6,9.3,8.1c3.9,1,3.7,7.1,1.2,7.3c-7,0.6-18.8-2.9-18.8-2.9
						s-0.7-8-0.2-10.5C127,434.1,128.4,435.8,130.4,435.2z"/>
					<g>
						<g>
							<path class="st3" d="M135.8,442.2c-0.1,0-0.3,0-0.4-0.1c-0.2-0.2-0.3-0.5-0.1-0.7c0.1-0.1,1.3-1.8,2.8-2.3
								c2-0.7,3.3,0.5,3.4,0.6c0.2,0.2,0.2,0.5,0,0.7c-0.2,0.2-0.5,0.2-0.7,0c0,0-1-0.9-2.4-0.4c-1.2,0.4-2.4,2-2.4,2
								C136.1,442.1,136,442.2,135.8,442.2z"/>
						</g>
						<g>
							<path class="st3" d="M134.6,440.7c-0.1,0-0.3,0-0.4-0.1c-0.2-0.2-0.3-0.5-0.1-0.7c0.1-0.1,1.3-1.8,2.8-2.3
								c2-0.7,3.3,0.5,3.4,0.6c0.2,0.2,0.2,0.5,0,0.7c-0.2,0.2-0.5,0.2-0.7,0c0,0-1-0.9-2.4-0.4c-1.2,0.4-2.4,2-2.4,2
								C134.8,440.6,134.7,440.6,134.6,440.7z"/>
						</g>
						<g>
							<path class="st3" d="M137.6,443.5c-0.1,0-0.3,0-0.4-0.1c-0.2-0.2-0.3-0.5-0.1-0.7c0.1-0.1,1.3-1.8,2.8-2.3
								c2-0.7,3.3,0.5,3.4,0.6c0.2,0.2,0.2,0.5,0,0.7c-0.2,0.2-0.5,0.2-0.7,0c0,0-1-0.9-2.4-0.4c-1.2,0.4-2.4,2-2.4,2
								C137.9,443.4,137.8,443.5,137.6,443.5z"/>
						</g>
					</g>
				</g>
			</g>
			<path class="st2" d="M140.2,298.3c0,0-0.1,3.5-0.3,9.3c-0.7,25.8-2.8,98-4,121.9h-9.8c-0.6-0.1-1.7-31.4-1.5-46.8
				c0.1-9.4-3.6-50.3-5.9-73.9c-1-10.1-1.6-17-1.6-17l2.9,0.8l1.5,0.4L140.2,298.3z"/>
			<path class="st8" d="M140.2,298.3c0,0-0.1,3.5-0.3,9.3c-7.4,1.1-14.6,1.4-21.2,1.1c-1-10.1-1.6-17-1.6-17l2.9,0.8l1.5,0.4
				L140.2,298.3z"/>
			<g>
				<polygon class="st9" points="123.8,425.6 124.3,430.6 137.3,430.6 137.7,425.6 				"/>
			</g>
		</g>
		<g>
			<g>
				<g>
					<path class="st7" d="M132,226.9l8.7,29.5l0.2,0.6c0,0.1,0,0.3,0,0.4c0.3,7.3,7,30,6.5,33.8c-0.6,3.9-0.7,9.3,0.6,11.8
						c1.3,2.4,2.5,6.4,3.5,4.3c1-2-1-7.7,0.1-7.8c1.1-0.2,3.7,4.7,2.8,10c-0.9,5.3,2.3,6.7,2.1,4.1c-0.2-2.6,1.9-5.8,1.8-9.8
						c-0.1-3.8-4.2-12.2-4.2-12.2s-0.2-23-2.5-34.1c-2.3-11.1-10.3-42.3-10.3-42.3C136.3,214.1,132,226.9,132,226.9z"/>
					<g>
						<g>
							<path class="st10" d="M140.8,255.1l0.2,0.5c0,0.1,0,0.3,0,0.4c1.6-0.6,3.2-1,4.3-1.2c0.3,0,0.4-0.3,0.4-0.6
								c0-0.3-0.3-0.4-0.6-0.4C144,254.1,142.4,254.6,140.8,255.1z"/>
						</g>
					</g>
				</g>
			</g>
			<g>
				<path class="st5" d="M141.4,298.4c-12.3,8-37.1,7.9-51.3,0.5c1.4-8.4,4.9-30.1,4.5-41.3c0-1.2-0.1-2.5-0.2-3.7
					c-0.1-1.1-0.1-2.1-0.2-3.1c-1.2-18.7-4.4-33.9-2.8-35.9c0.7-0.9,1.8-1.8,3.2-2.7c0.6-0.4,1.1-0.8,1.8-1.1
					c1.5-0.9,3.1-1.8,4.7-2.7c3.9-2.1,7.8-4,9.8-5.3c2,0.9,3.5,1.3,5.2,1.3c0,0,0.1,0,0.1,0c0,0,0.1,0,0.1,0c1.7,0,3.3-0.5,5.2-1.3
					c1.8,1.2,5.3,2.9,8.8,4.8c2.6,1.4,5.2,2.8,7.3,4.2c1.3,0.9,2.4,1.8,3.1,2.7c0.8,1,0.4,5.3-0.2,11.6c-0.7,6.2-1.6,14.5-2.2,23.6
					c-0.2,2.5-0.3,5.1-0.4,7.7C137.8,268.8,140.1,290,141.4,298.4z"/>
				<g>
					<path class="st11" d="M132.3,276.9C132.3,276.9,132.3,276.9,132.3,276.9c-9.9,0-18.3-4.5-23.7-8.3c-5.8-4.1-9.3-8.2-9.3-8.2
						c-0.2-0.2-0.1-0.5,0.1-0.7c0.2-0.2,0.5-0.1,0.7,0.1c0,0,3.5,4.1,9.1,8.1c5.2,3.7,13.5,8.1,23.1,8.1c0.3,0,0.5,0.2,0.5,0.5
						C132.8,276.7,132.5,276.9,132.3,276.9z"/>
				</g>
				<g>
					<path class="st11" d="M122,280.2c-8.6,0-17.1-4.9-17.5-5.1c-0.2-0.1-0.3-0.4-0.2-0.6c0.1-0.2,0.4-0.3,0.6-0.2
						c0.1,0.1,10.2,5.8,19.1,4.9c0.3,0,0.5,0.2,0.5,0.4c0,0.3-0.2,0.5-0.4,0.5C123.4,280.2,122.7,280.2,122,280.2z"/>
				</g>
				<g>
					<path class="st11" d="M114.4,227c-0.2,0-0.4-0.2-0.5-0.4c0-0.3,0.1-0.5,0.4-0.6c12.1-2.3,15.7-10,15.7-10.1
						c0.1-0.2,0.4-0.3,0.6-0.2c0.2,0.1,0.3,0.4,0.2,0.6C130.7,216.7,127,224.7,114.4,227C114.4,227,114.4,227,114.4,227z"/>
				</g>
				<path class="st7" d="M130.6,207.8c-2.4,5.5-8,12.9-15.7,11.5c-7.4-1.3-11.2-6.9-13.7-11c3.9-2.1,7.8-4,9.8-5.3
					c2,0.9,3.5,1.3,5.2,1.3c0,0,0.1,0,0.1,0c0,0,0.1,0,0.1,0c1.7,0,3.2-0.5,5.2-1.3C123.6,204.2,127.1,205.9,130.6,207.8z"/>
			</g>
			<path class="st2" d="M116.6,204.5L116.6,204.5c0,0-0.1,0-0.1,0C116.5,204.5,116.5,204.5,116.6,204.5z"/>
			<g>
				<path class="st2" d="M126.2,159c0,0.7-0.1,1.3-0.2,2c-0.3,1.2-0.8,2.3-1.4,3.2c-1.7,2.4-4.4,3.9-7.5,3.9c-2.9,0-5.5-1.3-7.1-3.4
					c-0.8-1.1-1.5-2.3-1.8-3.7c-0.1-0.6-0.2-1.3-0.2-2c0-5,4.1-9.1,9.1-9.1S126.2,153.9,126.2,159z"/>
				<path class="st6" d="M126,161c-0.3,1.2-0.8,2.3-1.4,3.2l-0.5,0.5h-14.2c-0.8-1.1-1.5-2.3-1.8-3.7c1.5-0.8,4.7-2,8.9-2
					C121.2,159,124.4,160.2,126,161z"/>
				<g>
					<g>
						<path class="st10" d="M104.3,181.5c0,0-2.3-3.1-4-0.5c-1.7,2.5,0.7,10,4.9,8.2L104.3,181.5z"/>
						<g>
							<path class="st12" d="M104.2,186.9c-0.2,0-0.3-0.1-0.3-0.3c-0.7-2.3-3.1-3.3-3.1-3.3c-0.2-0.1-0.3-0.3-0.2-0.5
								c0.1-0.2,0.3-0.3,0.5-0.2c0.1,0,2.8,1.1,3.5,3.7C104.6,186.6,104.5,186.8,104.2,186.9C104.3,186.9,104.3,186.9,104.2,186.9z"
								/>
						</g>
						<g>
							<path class="st12" d="M101.8,185.7c-0.1,0-0.1,0-0.2-0.1c-0.2-0.1-0.2-0.3-0.1-0.5c0,0,0.4-0.7,1.3-1.1
								c0.2-0.1,0.4,0,0.5,0.2c0.1,0.2,0,0.4-0.2,0.5c-0.7,0.3-1,0.8-1,0.8C102,185.6,101.9,185.7,101.8,185.7z"/>
						</g>
					</g>
					<g>
						<path class="st10" d="M128,181.5c0,0,2.3-3.1,4-0.5c1.7,2.5-0.7,10-4.9,8.2L128,181.5z"/>
						<g>
							<path class="st12" d="M128,186.9c0.2,0,0.3-0.1,0.3-0.3c0.7-2.3,3.1-3.3,3.1-3.3c0.2-0.1,0.3-0.3,0.2-0.5
								c-0.1-0.2-0.3-0.3-0.5-0.2c-0.1,0-2.8,1.1-3.5,3.7C127.6,186.6,127.8,186.8,128,186.9C128,186.9,128,186.9,128,186.9z"/>
						</g>
						<g>
							<path class="st12" d="M130.5,185.7c0.1,0,0.1,0,0.2-0.1c0.2-0.1,0.2-0.3,0.1-0.5c0,0-0.4-0.7-1.3-1.1c-0.2-0.1-0.4,0-0.5,0.2
								c-0.1,0.2,0,0.4,0.2,0.5c0.7,0.3,1,0.8,1,0.8C130.2,185.6,130.3,185.7,130.5,185.7z"/>
						</g>
					</g>
					<path class="st7" d="M121.8,195.5v7.5c0,0-2.2,3.8-5.2,4.1c-3,0.3-5.7-3.3-5.7-3.3v-7.7L121.8,195.5z"/>
					<path class="st10" d="M121.8,195.5v3.3c-2,2.2-5.6,3-10.9,2.3l0-5L121.8,195.5z"/>
					<path class="st7" d="M129.7,176.4c-0.1,2.9-0.4,6.5-1,9.4c-0.1,0.7-0.3,1.4-0.5,2c-1.6,5.5-5.5,14.9-16.5,11
						c-4.9-1.7-7.1-7.1-8.1-12.7c-0.7-3.7-0.8-7.5-0.7-10.2c0.1-2.8,1.6-5.3,4-6.6c6.5-3.7,13.3-2.3,17.9-0.6
						C127.8,170,129.8,173,129.7,176.4z"/>
					<ellipse class="st2" cx="110.4" cy="181.9" rx="0.9" ry="1.4"/>
					<path class="st2" d="M122.6,181.9c0,0.8-0.4,1.4-0.9,1.4s-0.9-0.6-0.9-1.4s0.4-1.4,0.9-1.4S122.6,181.1,122.6,181.9z"/>
					<path class="st2" d="M108.6,177.6c0.8-0.2,2.3-0.6,3.9-0.6c0.4,0,0.8,0.4,0.7,0.8l0,0c-0.1,0.3-0.4,0.6-0.7,0.6
						c-1.1-0.1-4,0.1-5.4,0.7c0-0.2,0.1-0.5,0.3-0.7C107.7,178,108.1,177.8,108.6,177.6z"/>
					<path class="st2" d="M123.4,177.7c-0.8-0.2-2.3-0.6-3.9-0.6c-0.4,0-0.8,0.4-0.7,0.8l0,0c0.1,0.3,0.4,0.6,0.7,0.6
						c1.1-0.1,4,0.1,5.4,0.7c0-0.2-0.1-0.5-0.3-0.7C124.2,178,123.8,177.8,123.4,177.7z"/>
					<g>
						<path class="st10" d="M116.3,188.5c-0.3,0-0.5,0-0.8-0.2c-0.2-0.1-0.5-0.4-0.5-0.9c-0.1-1.3,0.2-5.4,0.2-5.6
							c0-0.2,0.2-0.3,0.4-0.3c0.2,0,0.3,0.2,0.3,0.4c0,0-0.3,4.2-0.2,5.4c0,0.2,0.1,0.3,0.2,0.3c0.3,0.2,1.1,0,1.4-0.1
							c0.2-0.1,0.4,0,0.5,0.2c0.1,0.2,0,0.4-0.2,0.5C117.4,188.3,116.9,188.5,116.3,188.5z"/>
					</g>
					<path class="st3" d="M111.8,190.8c0.3,1.3,1.2,3.8,4.2,3.8c3,0,3.9-2.3,4.1-3.8H111.8z"/>
					<g>
						<path class="st10" d="M115.9,196.7c-0.9,0-1.6-0.5-1.7-0.5c-0.2-0.1-0.2-0.3-0.1-0.5c0.1-0.2,0.3-0.2,0.5-0.1l0,0
							c0,0,0.6,0.4,1.3,0.4c0.7,0,1.4-0.4,1.4-0.4c0.2-0.1,0.4,0,0.5,0.1c0.1,0.2,0,0.4-0.1,0.5
							C117.6,196.2,116.8,196.7,115.9,196.7z"/>
					</g>
				</g>
				<path class="st2" d="M131.1,175.8c-0.1,0.3-0.4,0.5-0.9,0.7c0,0.8-0.1,1.7-0.1,2.6c-0.4,5.1-1.7,6-2,4.8
					c-0.2-0.8-0.2-5.7-0.1-7.2c-1-0.1-1.9-0.2-1.9-0.2l-1.2-5l-0.4,4.9c-1.8,0.6-5.9-0.4-5.9-0.4l-1.4-4.9l-0.9,4.7
					c-2.7,1.3-6,0.4-6,0.4l-0.8-5.1l-1.8,5.1c0,0-1.7,0.6-3.2,0.8c0,1.6-0.1,5.9-0.9,5.7c-0.8-0.3-1.3-3.7-1.2-5.8
					c-0.3-0.1-0.5-0.4-0.5-0.7c0-1.2-0.2-4.9,0.9-7.4c1.4-3.4,3.2-5.4,5.8-6.6c6.1-2.8,14.8-1.6,17.3,0
					C132.6,166.6,131.1,175.8,131.1,175.8z"/>
			</g>
			<path class="st7" d="M94.3,250.8c-1.2-18.7-4.4-33.9-2.8-35.9c0.7-0.9,1.8-1.8,3.2-2.7C96.1,218.9,99.8,239.1,94.3,250.8z"/>
			<path class="st7" d="M140.8,226.3c-0.7,6.2-1.6,14.5-2.2,23.6c-4.8-11.7-2.1-31.1-0.7-37.8c1.3,0.9,2.4,1.8,3.1,2.7
				C141.8,215.7,141.4,220,140.8,226.3z"/>
			<g>
				<g>
					<path class="st7" d="M97,234.8l-5.4,17.4l-5.9,16.5c-1,3.5-4.8,5.2-8,3.8c-0.1,0-0.1-0.1-0.2-0.1c-5.6-2.7-2.5-13.7-2.5-13.7
						l1.1-0.1c0.4-1.2,1.6-4.3,3.1-8.2c0.2-0.5,0.4-1,0.6-1.5c0.3-0.8,0.6-1.7,1-2.5c0.5-1.2,1-2.5,1.5-3.8
						c3.7-9.5,6.7-19.8,6.7-19.8l2.5-7.5L97,234.8z"/>
					<g>
						<path class="st10" d="M81.8,262.2C81.8,262.2,81.7,262.2,81.8,262.2c-0.3,0-0.5-0.2-0.5-0.4c-0.8-5.2-1.7-9.1-2.2-11.4
							c0.2-0.5,0.4-1,0.6-1.5c0.5,2,1.5,6.4,2.5,12.8C82.2,261.9,82,262.1,81.8,262.2z"/>
					</g>
					<path class="st7" d="M81,262.4c0,0-0.8-12.6-3.5-15.3c-2.7-2.7-5.1-3.7-7.7-3.6S65,244,65.1,245c0,0-5.8-0.9-8.4,0.6
						c-2.6,1.5,7.7,2.8,10.7,2.9c3,0.1,4.6,1.8,4.8,3.6c0.1,1.8,1.9,13.8,1.9,13.8L81,262.4z"/>
				</g>
				<g>
					<path class="st1" d="M84,245.8l-38.4,0.3c-1.4,0-2.6-1.2-2.6-2.6l0,0c0-1.4,1.2-2.6,2.6-2.6l38.4-0.3c1.4,0,2.6,1.2,2.6,2.6
						l0,0C86.7,244.6,85.5,245.8,84,245.8z"/>
					<path class="st2" d="M43.1,246.1l-8.4-30.6c-0.5-1.7,0.8-3.4,2.6-3.4l18-0.1c1.2,0,2.3,0.8,2.6,2l9.2,32.1L43.1,246.1z"/>
					<path class="st1" d="M57.9,213.9l9.2,31.8l2.1,0L60,213.8c-0.3-1.2-1.4-2-2.6-2l-2.1,0C56.5,211.9,57.6,212.7,57.9,213.9z"/>
					<path class="st9" d="M53.4,230.3c0.5,2-0.8,3.7-2.8,3.7c-2,0-4.1-1.6-4.5-3.6c-0.5-2,0.8-3.7,2.8-3.7
						C50.9,226.7,52.9,228.3,53.4,230.3z"/>
				</g>
			</g>
		</g>
	</g>
	<g>
		<g>
			<path class="st13" d="M370.1,246.2c-4.4,12.1-13.2,23.3-13.2,23.3c-5.6,2.3-20.5,6.7-25.5,5.5c0.5-3.4,0.3-5.9,0-10.2
				c6.9,0.1,19.8-6.8,19.8-6.8c10.7-23.5,15.2-42.2,15.2-42.2C371.7,228.8,370.1,246.2,370.1,246.2z"/>
			<g>
				<path class="st7" d="M383.1,426.1l-1.1,9.7c0,0-3.2,1.8-8.1,0.8l1-11.3L383.1,426.1z"/>
				<g>
					<path class="st5" d="M376.2,435.5c0,0-1.6-2.3-2.9-2.2c-1.3,0-11.8,7.8-15.3,8.3c-3.5,0.5-2.9,3.1-2.3,4.5
						c0.6,1.3,27.8,0.5,27.8,0.5s1-8.1,0.2-10.6C382.9,433.4,378.9,436.2,376.2,435.5z"/>
					<g>
						<g>
							<path class="st3" d="M370.4,440.9c0.1,0,0.3,0,0.4,0c0.2-0.1,0.3-0.4,0.2-0.7c0-0.1-1-2-2.5-2.7c-1.9-1-3.4,0-3.5,0
								c-0.2,0.2-0.3,0.5-0.1,0.7c0.2,0.2,0.5,0.3,0.7,0.1c0,0,1.1-0.7,2.4,0c1.1,0.6,2,2.3,2.1,2.3
								C370.2,440.8,370.3,440.9,370.4,440.9z"/>
						</g>
						<g>
							<path class="st3" d="M371.9,439.6c0.1,0,0.3,0,0.4,0c0.2-0.1,0.3-0.4,0.2-0.7c0-0.1-1-2-2.5-2.7c-1.9-1-3.4,0-3.5,0
								c-0.2,0.2-0.3,0.5-0.1,0.7c0.2,0.2,0.5,0.3,0.7,0.1c0,0,1.1-0.7,2.4,0c1.2,0.6,2,2.3,2.1,2.3
								C371.7,439.5,371.8,439.6,371.9,439.6z"/>
						</g>
						<g>
							<g>
								<path class="st3" d="M368.4,442c0.1,0,0.3,0,0.4,0c0.2-0.1,0.3-0.4,0.2-0.7c0-0.1-1-2-2.5-2.7c-1.9-1-3.4,0-3.5,0
									c-0.2,0.2-0.3,0.5-0.1,0.7c0.2,0.2,0.5,0.3,0.7,0.1c0,0,1.1-0.7,2.4,0c1.2,0.6,2,2.3,2.1,2.3
									C368.2,441.9,368.3,441.9,368.4,442z"/>
							</g>
						</g>
					</g>
				</g>
			</g>
			<g>
				<path class="st7" d="M424.2,413.4l6.3,7.4c0,0-0.9,3.5-5,6.5l-7.5-8.5L424.2,413.4z"/>
				<g>
					<path class="st5" d="M426.3,424.8c0,0-2.7-0.4-3.6,0.6c-0.9,1-2.5,13.9-4.5,16.8c-2,2.9,0.3,4.3,1.6,4.8
						c1.4,0.5,19.5-19.8,19.5-19.8s-5.1-6.3-7.5-7.4C429.4,418.6,428.6,423.3,426.3,424.8z"/>
					<g>
						<g>
							<path class="st3" d="M426.2,432.8c0.1-0.1,0.2-0.2,0.2-0.3c0.1-0.3-0.1-0.5-0.3-0.6c-0.1,0-2.1-0.6-3.7-0.1
								c-2,0.6-2.3,2.5-2.4,2.5c0,0.3,0.1,0.5,0.4,0.6c0.3,0,0.5-0.1,0.6-0.4c0,0,0.2-1.3,1.7-1.8c1.2-0.4,3.1,0.1,3.1,0.1
								C426,432.9,426.1,432.9,426.2,432.8z"/>
						</g>
						<g>
							<path class="st3" d="M426.3,430.8c0.1-0.1,0.2-0.2,0.2-0.3c0.1-0.3-0.1-0.5-0.3-0.6c-0.1,0-2.1-0.6-3.7-0.1
								c-2,0.6-2.3,2.5-2.4,2.5c0,0.3,0.1,0.5,0.4,0.6c0.3,0,0.5-0.1,0.6-0.4c0,0,0.2-1.3,1.7-1.8c1.3-0.4,3.1,0.1,3.1,0.1
								C426,430.9,426.2,430.9,426.3,430.8z"/>
						</g>
						<g>
							<path class="st3" d="M425.6,435c0.1-0.1,0.2-0.2,0.2-0.3c0.1-0.3-0.1-0.5-0.3-0.6c-0.1,0-2.1-0.6-3.7-0.1
								c-2,0.6-2.3,2.5-2.4,2.5c0,0.3,0.1,0.5,0.4,0.6c0.3,0,0.5-0.1,0.6-0.4c0,0,0.2-1.3,1.7-1.8c1.3-0.4,3.1,0.1,3.1,0.1
								C425.3,435.1,425.5,435,425.6,435z"/>
						</g>
					</g>
				</g>
			</g>
			<g>
				<path class="st8" d="M389,310.9l4.8,52.2c0,0,7.2,8.1,12.6,18c4.6,8.3,18.7,32.8,18.7,32.8l-6.4,4.9L374.7,376l-9.8-65.7
					L389,310.9z"/>
				<path class="st2" d="M416.5,419.4c0.7,1.7,1.9,2.8,3.3,3.7l8.5-7.2c-0.7-1.5-1.7-2.8-2.9-3.9L416.5,419.4z"/>
			</g>
			<g>
				<path class="st2" d="M421.5,313c0,0-11.3,27.8-26,49.5c0,0-2.2,21.1-6,32.4c-1.6,4.9-4.7,27.7-4.7,27.7h-11.3l2.9-64.9l11.8-47
					L421.5,313z"/>
				<path class="st9" d="M372.5,422.3c-0.7,1.9-0.5,3.9,0,5.8l12.9,0.4c0.5-1.9,0.7-3.7,0.5-5.6L372.5,422.3z"/>
			</g>
			<g>
				<g>
					<g>
						<path class="st6" d="M421.9,298.3c0,0.4,0,0.8,0,1.2c0,7.1,0,12.5-0.1,15.2c-6.8,1.8-13.7,3-20.5,3.6c-0.3,0-0.6,0-0.9,0.1
							c-0.2,0-0.3,0-0.5,0c-0.4,0-0.7,0-1.1,0.1c-0.4,0-0.8,0-1.2,0.1c-4.6,0.2-9.3,0.1-13.9-0.3c-0.9-0.1-1.9-0.2-2.8-0.3
							c-0.1,0-0.1,0-0.2,0c-0.2,0-0.5-0.1-0.7-0.1c-0.1,0-0.3,0-0.4-0.1c-5.4-0.6-10.8-1.7-16.2-3.2c0-1.2,0-3,0-5.3
							c0-0.4,0-0.9,0-1.3v0c0-3.3,0-7.3,0.1-11.9c0-0.4,0-0.8,0-1.2c0-3.1,0.1-6.3,0.1-9.8c0-0.4,0-0.8,0-1.2
							c0-3.5,0.1-7.1,0.2-10.8c0-2.3,0.1-4.5,0.1-6.8c0-2.3,0.1-4.6,0.2-6.9c0-0.5,0-1,0-1.5c0.5-21.7,1.4-41.7,3-43.9
							c1-1.5,3.5-3.4,6.3-5.2c0.3-0.2,0.7-0.4,1.1-0.7c1.2-0.8,11-4.1,12.3-4.8l10.4-0.7c0.1,0,10,3.4,10.1,3.4
							c0.4,0.2,0.9,0.5,1.3,0.7c3.7,2.1,7.3,4.4,9.4,6.3c0.3,0.3,0.6,0.6,0.8,0.8c0.2,0.2,0.4,0.4,0.5,0.6c0.1,0.2,0.2,0.5,0.4,0.9
							c1.3,4.6,1.9,22.5,2.2,42.1c0,1.4,0,2.8,0.1,4.2c0,0.6,0,1.2,0,1.9c0,0.4,0,0.9,0,1.3c0,0.2,0,0.4,0,0.6c0,1.1,0,2.1,0,3.2
							c0,0.8,0,1.6,0,2.3C421.9,281,421.9,290.5,421.9,298.3z"/>
					</g>
				</g>
			</g>
			<g>
				<g>
					<g>
						<path class="st13" d="M392.2,213.1c-4.5,0-7.7-4.1-7.8-4.3c-0.2-0.2-0.2-0.6,0.1-0.8c0.2-0.2,0.6-0.2,0.8,0.1
							c0,0.1,3,3.9,7,3.9c3.9,0,6.3-4.3,6.3-4.3c0.2-0.3,0.5-0.4,0.7-0.2c0.3,0.2,0.3,0.5,0.2,0.8
							C399.4,208.4,396.7,213.1,392.2,213.1z"/>
					</g>
				</g>
				<g>
					<path class="st13" d="M373.1,252.5c-0.1,0-0.2,0-0.2-0.1c-0.3-0.1-0.4-0.5-0.2-0.8l2-4.2c0.1-0.3,0.5-0.4,0.7-0.3
						c0.3,0.1,0.4,0.5,0.2,0.8l-2,4.2C373.5,252.3,373.3,252.5,373.1,252.5z"/>
				</g>
				<g>
					<path class="st13" d="M369,249.1c-0.1,0-0.2,0.1-0.2,0.1c-0.3,0-0.6-0.2-0.6-0.5l-0.4-4.6c0-0.3,0.2-0.6,0.5-0.6
						c0.3,0,0.6,0.2,0.6,0.5l0.4,4.6C369.3,248.7,369.2,248.9,369,249.1z"/>
				</g>
				<g>
					<path class="st13" d="M379.6,241.9c-0.3,0-0.5-0.2-0.5-0.5l-0.7-4.6c0-0.3,0.2-0.6,0.5-0.7c0.3-0.1,0.6,0.2,0.6,0.5l0.7,4.6
						C380.2,241.5,380,241.8,379.6,241.9C379.7,241.9,379.6,241.9,379.6,241.9z"/>
				</g>
				<g>
					<path class="st13" d="M397.2,243.6c-0.1,0-0.2,0-0.3-0.1c-0.3-0.2-0.3-0.5-0.2-0.8l2.2-4c0.2-0.3,0.5-0.4,0.8-0.2
						c0.3,0.2,0.3,0.5,0.2,0.8l-2.2,4C397.6,243.5,397.4,243.6,397.2,243.6z"/>
				</g>
				<g>
					<path class="st13" d="M375.6,225.6c-0.1,0-0.2,0-0.3-0.1l-3.7-2.5c-0.3-0.2-0.3-0.5-0.2-0.8c0.2-0.3,0.5-0.3,0.8-0.2l3.7,2.5
						c0.3,0.2,0.3,0.5,0.2,0.8C375.9,225.5,375.7,225.6,375.6,225.6z"/>
				</g>
				<g>
					<path class="st13" d="M391.8,262.9c-0.1,0-0.2,0-0.2-0.1c-0.3-0.1-0.4-0.5-0.2-0.8l2-4.2c0.1-0.3,0.5-0.4,0.7-0.3
						c0.3,0.1,0.4,0.5,0.2,0.8l-2,4.2C392.2,262.8,392,262.9,391.8,262.9z"/>
				</g>
				<g>
					<path class="st13" d="M383.2,228.8c-0.2,0-0.4-0.1-0.5-0.3c-0.2-0.3-0.1-0.6,0.2-0.8l3.7-2.5c0.3-0.2,0.6-0.1,0.8,0.2
						c0.2,0.3,0.1,0.6-0.2,0.8l-3.7,2.5C383.4,228.7,383.3,228.8,383.2,228.8z"/>
				</g>
				<g>
					<path class="st13" d="M374.4,211.5c0,0.1,0,0.2-0.1,0.3c-0.1,0.2-0.3,0.3-0.4,0.3c-0.3,0-0.6-0.2-0.6-0.5l-0.2-2.7
						c0.3-0.2,0.7-0.4,1.1-0.7L374.4,211.5z"/>
				</g>
				<g>
					<path class="st13" d="M369.5,237c-0.2,0-0.4-0.1-0.5-0.3c-0.2-0.3-0.1-0.6,0.2-0.8l3.7-2.5c0.3-0.2,0.6-0.1,0.8,0.2
						c0.2,0.3,0.1,0.6-0.2,0.8l-3.7,2.5C369.7,236.9,369.6,237,369.5,237z"/>
				</g>
				<g>
					<path class="st13" d="M398.9,216.7c-0.1,0-0.2,0-0.3-0.1c-0.3-0.2-0.3-0.5-0.2-0.8l2.1-3.4c0.2-0.3,0.5-0.3,0.8-0.2
						c0.3,0.2,0.3,0.5,0.2,0.8l-2.1,3.4C399.3,216.6,399.1,216.7,398.9,216.7z"/>
				</g>
				<g>
					<path class="st13" d="M400.8,275.7c-0.1,0-0.3-0.1-0.4-0.2l-3-3.4c-0.2-0.2-0.2-0.6,0-0.8c0.2-0.2,0.6-0.2,0.8,0l3,3.4
						c0.2,0.2,0.2,0.6,0,0.8C401.1,275.6,400.9,275.7,400.8,275.7z"/>
				</g>
				<g>
					<path class="st13" d="M389.7,275c-0.1,0-0.3-0.1-0.4-0.2l-3-3.4c-0.2-0.2-0.2-0.6,0-0.8c0.2-0.2,0.6-0.2,0.8,0l3,3.4
						c0.2,0.2,0.2,0.6,0,0.8C390,274.9,389.9,275,389.7,275z"/>
				</g>
				<g>
					<path class="st13" d="M381.8,297.7c-0.1-0.1,0-0.3,0-0.5l1.9-4.2c0.1-0.3,0.5-0.4,0.7-0.3c0.3,0.1,0.4,0.5,0.3,0.8l-1.9,4.2
						c-0.1,0.3-0.5,0.4-0.7,0.3C381.9,297.9,381.8,297.8,381.8,297.7z"/>
				</g>
				<g>
					<path class="st13" d="M413.5,311.5c-0.1-0.1,0-0.3,0-0.5l1.9-4.2c0.1-0.3,0.5-0.4,0.7-0.3c0.3,0.1,0.4,0.5,0.3,0.8l-1.9,4.2
						c-0.1,0.3-0.5,0.4-0.7,0.3C413.7,311.8,413.6,311.6,413.5,311.5z"/>
				</g>
				<g>
					<path class="st13" d="M399.9,318.4c-0.4,0-0.7,0-1.1,0.1l-0.4-2.6c0-0.3,0.2-0.6,0.5-0.7c0.3,0,0.6,0.2,0.6,0.5L399.9,318.4z"
						/>
				</g>
				<g>
					<path class="st13" d="M404.3,310.5c-0.1-0.1-0.2-0.2-0.2-0.4l-0.7-4.6c0-0.3,0.2-0.6,0.5-0.7c0.3-0.1,0.6,0.2,0.6,0.5l0.7,4.6
						c0,0.3-0.2,0.6-0.5,0.7C404.5,310.7,404.4,310.6,404.3,310.5z"/>
				</g>
				<g>
					<path class="st13" d="M377.8,272.1c-0.1,0-0.2,0-0.3-0.1c-0.3-0.2-0.4-0.5-0.2-0.8l2.2-4c0.2-0.3,0.5-0.4,0.7-0.2
						c0.3,0.2,0.4,0.5,0.2,0.8l-2.2,4C378.2,272,378,272.1,377.8,272.1z"/>
				</g>
				<g>
					<path class="st13" d="M384.2,262c-0.2,0-0.4-0.1-0.5-0.3l-2-4.1c-0.1-0.3,0-0.6,0.2-0.8c0.3-0.1,0.6,0,0.7,0.3l2,4.1
						c0.1,0.3,0,0.6-0.2,0.8C384.4,262,384.3,262,384.2,262z"/>
				</g>
				<g>
					<path class="st13" d="M366.9,261.4c-0.1,0.1-0.1,0.1-0.2,0.2c-0.2,0.1-0.4,0.1-0.6-0.1l-2.2-2c0-0.5,0-1,0-1.5l2.9,2.6
						C367.1,260.8,367.1,261.2,366.9,261.4z"/>
				</g>
				<g>
					<path class="st13" d="M384.2,218.2c-0.2,0-0.4-0.1-0.5-0.3l-2-4.1c-0.1-0.3,0-0.6,0.2-0.8c0.3-0.1,0.6,0,0.7,0.3l2,4.1
						c0.1,0.3,0,0.6-0.2,0.8C384.4,218.2,384.3,218.2,384.2,218.2z"/>
				</g>
				<g>
					<path class="st13" d="M397,233.3c0,0-0.1,0-0.1,0c-0.3-0.1-0.5-0.4-0.4-0.7l0.8-4.6c0.1-0.3,0.3-0.5,0.6-0.5
						c0.3,0.1,0.5,0.4,0.4,0.7l-0.8,4.6C397.5,233.1,397.2,233.3,397,233.3z"/>
				</g>
				<g>
					<path class="st13" d="M389.9,237.3c0,0-0.1,0-0.1,0c-0.3-0.1-0.5-0.4-0.4-0.7l0.8-4.6c0.1-0.3,0.3-0.5,0.6-0.5
						c0.3,0.1,0.5,0.4,0.4,0.7l-0.8,4.6C390.4,237.1,390.1,237.3,389.9,237.3z"/>
				</g>
				<g>
					<path class="st13" d="M395,222.3c-0.2,0-0.4-0.1-0.5-0.3l-2.3-3.9c-0.2-0.3-0.1-0.6,0.2-0.8c0.3-0.2,0.6-0.1,0.8,0.2l2.3,3.9
						c0.2,0.3,0.1,0.6-0.2,0.8C395.2,222.2,395.1,222.3,395,222.3z"/>
				</g>
				<g>
					<path class="st13" d="M373.6,262.8c-0.1-0.2-0.2-0.4-0.1-0.7l1.9-4.2c0.1-0.3,0.5-0.4,0.7-0.3c0.3,0.1,0.4,0.5,0.3,0.8
						l-1.9,4.2c-0.1,0.3-0.5,0.4-0.7,0.3C373.7,262.9,373.6,262.8,373.6,262.8z"/>
				</g>
				<g>
					<path class="st13" d="M387.7,250.6c-0.2,0-0.4-0.1-0.5-0.4l-1.6-4.3c-0.1-0.3,0-0.6,0.3-0.8c0.3-0.1,0.6,0,0.7,0.3l1.6,4.3
						c0.1,0.3,0,0.6-0.3,0.8C387.8,250.6,387.7,250.6,387.7,250.6z"/>
				</g>
				<g>
					<path class="st13" d="M405.1,277.4c-0.1,0-0.2,0-0.2-0.1c-0.3-0.1-0.4-0.5-0.2-0.8l2-4.2c0.1-0.3,0.5-0.4,0.7-0.3
						c0.3,0.1,0.4,0.5,0.2,0.8l-2,4.2C405.5,277.2,405.3,277.4,405.1,277.4z"/>
				</g>
				<g>
					<path class="st13" d="M376.2,307.2c0,0.1,0,0.2-0.1,0.3c-0.1,0.3-0.5,0.4-0.7,0.3l-3.9-2.1c-0.3-0.1-0.4-0.5-0.2-0.8
						c0.1-0.3,0.5-0.4,0.7-0.3l3.9,2.1C376.1,306.8,376.2,307,376.2,307.2z"/>
				</g>
				<g>
					<path class="st13" d="M365.7,309.9c0,0.1,0,0.2-0.1,0.3c-0.1,0.3-0.5,0.4-0.7,0.3l-1.7-0.9c0-0.4,0-0.9,0-1.3l2.2,1.2
						C365.6,309.4,365.7,309.6,365.7,309.9z"/>
				</g>
				<g>
					<path class="st13" d="M382,315l-1.3,3c-0.2,0-0.5-0.1-0.7-0.1c-0.1,0-0.3,0-0.4-0.1l1.5-3.4c0.1-0.3,0.5-0.4,0.7-0.3
						C382,314.4,382.1,314.7,382,315z"/>
				</g>
				<g>
					<path class="st13" d="M412.2,266.8c-0.3,0-0.5-0.2-0.5-0.5l-0.7-4.6c0-0.3,0.2-0.6,0.5-0.7c0.3-0.1,0.6,0.2,0.6,0.5l0.7,4.6
						C412.8,266.4,412.6,266.7,412.2,266.8C412.3,266.8,412.3,266.8,412.2,266.8z"/>
				</g>
				<g>
					<path class="st13" d="M412.7,232.9c-0.1,0-0.2,0-0.3-0.1c-0.3-0.2-0.3-0.5-0.2-0.8l2.2-4c0.2-0.3,0.5-0.4,0.8-0.2
						c0.3,0.2,0.3,0.5,0.2,0.8l-2.2,4C413.1,232.8,412.9,232.9,412.7,232.9z"/>
				</g>
				<g>
					<path class="st13" d="M405.6,249.2c-0.1,0-0.2,0-0.3-0.1l-3.7-2.5c-0.3-0.2-0.3-0.5-0.2-0.8c0.2-0.3,0.5-0.3,0.8-0.2l3.7,2.5
						c0.3,0.2,0.3,0.5,0.2,0.8C405.9,249.1,405.7,249.2,405.6,249.2z"/>
				</g>
				<g>
					<path class="st13" d="M366.9,276.5c-0.1,0-0.2,0-0.2-0.1c-0.3-0.1-0.4-0.5-0.2-0.8l2-4.2c0.1-0.3,0.5-0.4,0.7-0.3
						c0.3,0.1,0.4,0.5,0.2,0.8l-2,4.2C367.3,276.3,367.1,276.5,366.9,276.5z"/>
				</g>
				<g>
					<path class="st13" d="M411.8,255.5c-0.2,0-0.4-0.1-0.5-0.3c-0.2-0.3-0.1-0.6,0.2-0.8l3.7-2.5c0.3-0.2,0.6-0.1,0.8,0.2
						c0.2,0.3,0.1,0.6-0.2,0.8l-3.7,2.5C412,255.4,411.9,255.5,411.8,255.5z"/>
				</g>
				<g>
					<path class="st13" d="M402.9,261.3c-0.1,0.1-0.3,0.2-0.5,0.1c-0.3-0.1-0.5-0.4-0.4-0.7l1.1-4.5c0.1-0.3,0.4-0.5,0.7-0.4
						c0.3,0.1,0.5,0.4,0.4,0.7l-1.1,4.5C403.1,261.2,403,261.3,402.9,261.3z"/>
				</g>
				<g>
					<path class="st13" d="M418.5,214l-1,1.5c-0.1,0.2-0.3,0.3-0.5,0.3c-0.1,0-0.2,0-0.3-0.1c-0.3-0.2-0.3-0.5-0.2-0.8l1.1-1.7
						C418,213.4,418.3,213.7,418.5,214z"/>
				</g>
				<g>
					<path class="st13" d="M375.3,291c-0.1,0-0.3-0.1-0.4-0.2l-3-3.4c-0.2-0.2-0.2-0.6,0-0.8c0.2-0.2,0.6-0.2,0.8,0l3,3.4
						c0.2,0.2,0.2,0.6,0,0.8C375.5,290.9,375.4,291,375.3,291z"/>
				</g>
				<g>
					<path class="st13" d="M395.3,302.7c-0.1,0-0.3-0.1-0.4-0.2l-3-3.4c-0.2-0.2-0.2-0.6,0-0.8c0.2-0.2,0.6-0.2,0.8,0l3,3.4
						c0.2,0.2,0.2,0.6,0,0.8C395.6,302.6,395.4,302.7,395.3,302.7z"/>
				</g>
				<g>
					<path class="st13" d="M400.9,298c-0.1-0.1-0.1-0.3-0.1-0.4l0.5-4.6c0-0.3,0.3-0.5,0.6-0.5c0.3,0,0.5,0.3,0.5,0.7l-0.5,4.6
						c0,0.3-0.3,0.5-0.6,0.5C401.1,298.2,401,298.1,400.9,298z"/>
				</g>
				<g>
					<path class="st13" d="M389.5,311c-0.1,0-0.3-0.1-0.4-0.2l-3-3.4c-0.2-0.2-0.2-0.6,0-0.8c0.2-0.2,0.6-0.2,0.8,0l3,3.4
						c0.2,0.2,0.2,0.6,0,0.8C389.7,311,389.6,311,389.5,311z"/>
				</g>
				<g>
					<path class="st13" d="M421.9,298.3c0,0.4,0,0.8,0,1.2l-3.4,0.3c-0.3,0-0.6-0.2-0.6-0.5c0-0.3,0.2-0.6,0.5-0.6L421.9,298.3z"/>
				</g>
				<g>
					<path class="st13" d="M382.1,283.9c-0.1,0-0.3-0.1-0.4-0.2l-3-3.4c-0.2-0.2-0.2-0.6,0-0.8c0.2-0.2,0.6-0.2,0.8,0l3,3.4
						c0.2,0.2,0.2,0.6,0,0.8C382.3,283.8,382.2,283.9,382.1,283.9z"/>
				</g>
				<g>
					<path class="st13" d="M396.6,282.4c0,0.2-0.1,0.3-0.2,0.4l-3.3,3c-0.2,0.2-0.6,0.2-0.8-0.1c-0.2-0.2-0.2-0.6,0.1-0.8l3.3-3
						c0.2-0.2,0.6-0.2,0.8,0.1C396.5,282.1,396.6,282.3,396.6,282.4z"/>
				</g>
				<g>
					<path class="st13" d="M412.4,298.9c-0.1,0-0.2,0-0.3-0.1c-0.3-0.2-0.4-0.5-0.2-0.8l2.2-4c0.2-0.3,0.5-0.4,0.7-0.2
						c0.3,0.2,0.4,0.5,0.2,0.8l-2.2,4C412.8,298.8,412.6,298.9,412.4,298.9z"/>
				</g>
				<g>
					<path class="st13" d="M416.2,286.9c-0.2,0-0.4-0.1-0.5-0.3l-2-4.1c-0.1-0.3,0-0.6,0.2-0.8c0.3-0.1,0.6,0,0.7,0.3l2,4.1
						c0.1,0.3,0,0.6-0.2,0.8C416.4,286.9,416.3,286.9,416.2,286.9z"/>
				</g>
				<g>
					<path class="st13" d="M410.2,240c-0.2,0-0.4-0.1-0.5-0.3l-2-4.1c-0.1-0.3,0-0.6,0.2-0.8c0.3-0.1,0.6,0,0.7,0.3l2,4.1
						c0.1,0.3,0,0.6-0.2,0.8C410.4,240,410.3,240,410.2,240z"/>
				</g>
				<g>
					<path class="st13" d="M412.4,222.6c0,0-0.1,0-0.1,0c-0.3-0.1-0.5-0.4-0.4-0.7l0.8-4.6c0.1-0.3,0.3-0.5,0.6-0.5
						c0.3,0.1,0.5,0.4,0.4,0.7l-0.8,4.6C412.9,222.4,412.7,222.6,412.4,222.6z"/>
				</g>
				<g>
					<path class="st13" d="M405.3,226.7c0,0-0.1,0-0.1,0c-0.3-0.1-0.5-0.4-0.4-0.7l0.8-4.6c0.1-0.3,0.3-0.5,0.6-0.5
						c0.3,0.1,0.5,0.4,0.4,0.7l-0.8,4.6C405.8,226.5,405.6,226.7,405.3,226.7z"/>
				</g>
				<g>
					<path class="st13" d="M408.6,210.7c-0.1,0-0.2,0-0.3,0c-0.2-0.1-0.3-0.2-0.4-0.4l-0.9-4.2c0.4,0.2,0.9,0.5,1.3,0.7l0.7,3.2
						C409.1,210.3,408.9,210.7,408.6,210.7z"/>
				</g>
				<g>
					<path class="st13" d="M405.5,287.7c-0.1-0.2-0.2-0.4-0.1-0.7l1.9-4.2c0.1-0.3,0.5-0.4,0.7-0.3c0.3,0.1,0.4,0.5,0.3,0.8
						l-1.9,4.2c-0.1,0.3-0.5,0.4-0.7,0.3C405.6,287.8,405.6,287.7,405.5,287.7z"/>
				</g>
				<g>
					<path class="st13" d="M367,295.6l-3.7,0.6c0-0.4,0-0.8,0-1.2l3.5-0.6c0.3,0,0.6,0.2,0.6,0.5C367.5,295.2,367.3,295.5,367,295.6
						z"/>
				</g>
				<g>
					<path class="st13" d="M365.9,284.8l-2.4,0.4c0-0.4,0-0.8,0-1.2l2.2-0.4c0.3-0.1,0.6,0.2,0.6,0.5
						C366.4,284.5,366.2,284.8,365.9,284.8z"/>
				</g>
				<g>
					<path class="st13" d="M419.7,275.5c-0.2,0-0.4-0.1-0.5-0.4l-1.6-4.3c-0.1-0.3,0-0.6,0.3-0.8c0.3-0.1,0.6,0,0.7,0.3l1.6,4.3
						c0.1,0.3,0,0.6-0.3,0.8C419.8,275.5,419.7,275.5,419.7,275.5z"/>
				</g>
			</g>
			<g>
				<g>
					<g>
						<path class="st13" d="M421.7,261.8c-1-4.3-2.3-9-3.6-13.1c0,0,0,0,0,0c-0.4-1.3-0.8-2.5-1.2-3.5c0,0,0,0,0-0.1
							c-0.1-0.3-0.2-0.7-0.4-1c0-0.1,0-0.1,0-0.2v0c0-0.2,0.1-0.4,0.3-0.5c0.3-0.1,0.5,0,0.6,0.3c1.3,3.6,2.9,8.7,4.2,13.8
							C421.6,259,421.6,260.4,421.7,261.8z"/>
					</g>
				</g>
			</g>
			<g>
				<path class="st2" d="M378.3,174.5c0,0-5.8-2-5.2-6.6c0.5-3.9,4.8-1.4,4.4-4.4c-0.4-3-1.2-5.7,2.5-6.5c3.2-0.7,3.3,1.7,7.5-1.7
					c5-4,8.8,5.3,13.3,5.5c6.6,0.4,7.4,4.3,8,7.5c0.6,3.1-2.5,6.8-2.5,6.8L378.3,174.5z"/>
				<g>
					<path class="st10" d="M379.3,181.1c0,0-2.4-3.3-4.3-0.6c-1.8,2.7,0.8,10.6,5.2,8.7L379.3,181.1z"/>
					<g>
						<path class="st12" d="M379.2,186.8c-0.2,0-0.3-0.1-0.4-0.3c-0.7-2.5-3.2-3.4-3.3-3.5c-0.2-0.1-0.3-0.3-0.2-0.5
							c0.1-0.2,0.3-0.3,0.5-0.2c0.1,0,2.9,1.1,3.7,4c0.1,0.2-0.1,0.4-0.3,0.5C379.3,186.8,379.3,186.8,379.2,186.8z"/>
					</g>
					<g>
						<g>
							<path class="st12" d="M376.7,185.6c-0.1,0-0.1,0-0.2-0.1c-0.2-0.1-0.2-0.3-0.1-0.5c0,0,0.5-0.7,1.4-1.1
								c0.2-0.1,0.4,0,0.5,0.2c0.1,0.2,0,0.4-0.2,0.5c-0.7,0.3-1.1,0.9-1.1,0.9C376.9,185.5,376.8,185.6,376.7,185.6z"/>
						</g>
					</g>
				</g>
				<g>
					<path class="st10" d="M404.4,181.1c0,0,2.4-3.3,4.3-0.6c1.8,2.7-0.8,10.6-5.2,8.7L404.4,181.1z"/>
					<g>
						<path class="st12" d="M404.5,186.8c0.2,0,0.3-0.1,0.4-0.3c0.7-2.5,3.2-3.4,3.3-3.5c0.2-0.1,0.3-0.3,0.2-0.5
							c-0.1-0.2-0.3-0.3-0.5-0.2c-0.1,0-2.9,1.1-3.7,4c-0.1,0.2,0.1,0.4,0.3,0.5C404.4,186.8,404.4,186.8,404.5,186.8z"/>
					</g>
					<g>
						<g>
							<g>
								<path class="st12" d="M407,185.6c0.1,0,0.1,0,0.2-0.1c0.2-0.1,0.2-0.3,0.1-0.5c0,0-0.5-0.7-1.4-1.1c-0.2-0.1-0.4,0-0.5,0.2
									c-0.1,0.2,0,0.4,0.2,0.5c0.7,0.3,1.1,0.9,1.1,0.9C406.8,185.5,406.9,185.6,407,185.6z"/>
							</g>
						</g>
					</g>
				</g>
				<path class="st7" d="M397.9,196v7.9c0,0-2.4,4-5.5,4.3c-3.2,0.3-6-3.5-6-3.5v-8.2L397.9,196z"/>
				<path class="st10" d="M397.9,196v3.5c-2.1,2.4-5.9,3-11.6,2.1v-5.1L397.9,196z"/>
				<path class="st7" d="M406.2,175.7c-0.1,3.1-0.4,6.9-1,10v0c0,0,0,0,0,0c0,0,0,0,0,0c-0.1,0.7-0.3,1.5-0.5,2.1
					c-0.1,0.4-0.2,0.8-0.4,1.2c-1.9,5.9-6.2,14.4-17.1,10.5c-4.6-1.6-7-6.4-8.2-11.5c-0.1-0.3-0.1-0.6-0.2-0.9
					c0-0.2-0.1-0.4-0.1-0.6l-0.1-0.3c0,0,0-0.1,0-0.1c0,0,0,0,0,0c-0.7-4-0.8-8-0.8-10.8c0.1-2.9,1.6-5.6,4.2-7
					c6.9-3.9,14.1-2.4,18.9-0.6C404.2,168.9,406.4,172.1,406.2,175.7z"/>
				<path class="st2" d="M405.2,185.7l-1.7-0.1c0,0-1,2-2.4,4.2c-1.4-3.1-8.2-0.8-8.2-0.8c-0.4,0.1-0.9,0.2-1.3,0.2
					c-0.4,0-0.9-0.1-1.3-0.2l0,0c0,0-6.9-2.2-8.2,1.1c-0.8-1.3-1.5-2.7-1.8-4.2l-1.6,0.3c0,0,0,0,0,0c0,0,0,0.1,0,0.1l0.1,0.3
					c0,0.2,0.1,0.4,0.1,0.6c0.1,0.3,0.1,0.6,0.2,0.9c1.2,5.1,3.6,9.9,8.2,11.5c10.9,3.9,15.3-4.6,17.1-10.5
					C404.7,187.4,405.1,186,405.2,185.7C405.2,185.7,405.2,185.7,405.2,185.7C405.2,185.7,405.2,185.7,405.2,185.7
					C405.2,185.7,405.2,185.7,405.2,185.7L405.2,185.7z M398,193.7L398,193.7C398,193.7,398,193.7,398,193.7
					c-0.5,0.5-1.1,0.9-1.6,1.2c-3,1.6-3.3,1.4-4.5,1.4c-1.2,0.1-2.9-0.3-4.6-1.2c-0.5-0.3-1.3-0.9-2.2-1.7c0,0-1.2-4.2,6.6-3.1
					C399.4,189,398.1,192.9,398,193.7z"/>
				<path class="st2" d="M398.1,181.4c0,0.8-0.4,1.5-1,1.5c-0.5,0-1-0.7-1-1.5c0-0.8,0.4-1.5,1-1.5
					C397.7,179.9,398.1,180.6,398.1,181.4z"/>
				<path class="st2" d="M386.3,181.4c0,0.8-0.4,1.5-1,1.5c-0.5,0-1-0.7-1-1.5c0-0.8,0.4-1.5,1-1.5
					C385.9,179.9,386.3,180.6,386.3,181.4z"/>
				<path class="st2" d="M401.2,176.4c0,0-3.9-1.8-7.1-0.7l0.2,1.7c0,0,4.6-0.1,6.8,0.9C401.3,177.8,401.4,177.1,401.2,176.4z"/>
				<path class="st2" d="M382,176.4c0,0,4-1.8,7.1-0.6l-0.2,1.7c0,0-4.6-0.2-6.8,0.9C381.9,177.8,381.8,177.1,382,176.4z"/>
				<g>
					<path class="st10" d="M391.9,188.2c0.6,0,1.3-0.2,1.4-0.3c0.2-0.1,0.3-0.3,0.2-0.5c-0.1-0.2-0.3-0.3-0.5-0.2
						c-0.3,0.1-1.2,0.4-1.5,0.1c-0.1,0-0.2-0.1-0.2-0.3c-0.1-1.3,0.2-5.7,0.2-5.8c0-0.2-0.1-0.4-0.3-0.4c-0.2,0-0.4,0.1-0.4,0.3
						c0,0.2-0.4,4.5-0.2,5.9c0.1,0.5,0.3,0.8,0.5,0.9C391.3,188.2,391.6,188.2,391.9,188.2z"/>
				</g>
				<path class="st3" d="M387.2,191.1c0.3,1.4,1.2,4.1,4.4,4.1c3.2,0,4.1-2.4,4.4-4.1H387.2z"/>
				<path class="st2" d="M406.2,175.7c-0.1,3.1-0.4,6.9-1,10l-1.7-0.1c0,0,0.4-2.6,0.6-4.3c0.2-1.7,0.5-4.8-0.9-5.2
					c-1.4-0.4-0.6-4-2.6-5.6c-2-1.6-6.5-2-9.4-0.2c-3,1.8-6.3-0.1-7.6,0.2c-1.4,0.3-3.2,2.2-2.7,3.9c0.5,1.8-1,2.8-1.4,4.6
					c-0.4,1.8,0.8,6.7,0.8,6.7l-1.6,0.3c-0.7-4-0.8-8-0.8-10.8c0.1-2.9,1.6-5.6,4.2-7c6.9-3.9,14.1-2.4,18.9-0.6
					C404.2,168.9,406.4,172.1,406.2,175.7z"/>
			</g>
			<g>
				<path class="st11" d="M398.4,257.1l-0.2,0.2c-0.1,0.1-0.3,0.3-0.4,0.4l-4.2,3.6c-6.1,5.3-12.2,10.6-18.3,15.8
					c3.8,7.8,7.5,15.5,11.2,23.2l2.1,4.3c0.1,0.2,0.2,0.4,0.3,0.7l0.1,0.4c0.4,1,0.2,2.2-0.7,3c-0.4,0.4-1,0.6-1.5,0.7
					c-0.5,0.1-1,0-1.5-0.3l-0.5-0.3c-0.3-0.2-0.5-0.3-0.8-0.4l-4.1-2.2c-7.3-4-14.7-8-22-12c-6.3,5.6-12.6,11.2-18.9,16.8l-3,2.6
					c-0.2,0.1-0.3,0.3-0.5,0.5l-0.3,0.3c-0.9,0.7-2.1,0.8-3,0.3c-0.1,0-0.1-0.1-0.2-0.1l0,0l-3.1-1.8l2,0.2c-0.1-0.3-0.1-0.7,0-1
					l0-0.3c0-0.3,0.1-0.5,0.1-0.7l0.8-4.1c1.5-7.7,3-15.4,4.6-23c-7.6-4.3-15.1-8.7-22.6-13l-4.9-2.8c-0.5-0.3-1-0.7-1.6-1.4
					c-0.5-0.8-0.6-1.8-0.2-2.6c0.4-0.9,1.2-1.4,2.1-1.6l0.6-0.1c0.4-0.1,0.9-0.1,1.3-0.2l7.1-0.9c7.7-1,15.5-2,23.2-3
					c1.5-7.8,3.1-15.7,4.6-23.5l1.3-6.5c0.1-0.7,0.5-1.3,1.1-1.6l-0.3-2l3,1.7v0c0.5,0.2,0.9,0.6,1.2,1.1l0.2,0.3
					c0.1,0.2,0.2,0.4,0.3,0.6l2.3,4.5c3.9,7.7,7.8,15.5,11.7,23.2c7.6-1,15.2-1.9,22.7-2.8l5.4-0.7l-0.2-1.7l3.4,2l0,0
					c0.6,0.3,1.1,0.9,1.3,1.6C399.5,255.3,399.2,256.4,398.4,257.1z"/>
				<g>
					<path class="st5" d="M383.5,307.4c-0.5,0.1-1,0-1.5-0.3l-0.5-0.3c-0.3-0.1-0.5-0.3-0.8-0.4l-4.1-2.2c-7.3-4-14.7-8-22-12
						c-6.3,5.6-12.6,11.2-19,16.8l-3,2.6c-0.2,0.1-0.3,0.3-0.5,0.5l-0.3,0.3c-0.9,0.7-2.1,0.8-3,0.3c-1-0.5-1.5-1.6-1.4-2.7l0-0.3
						c0-0.3,0.1-0.5,0.1-0.7l0.8-4.1c1.5-7.7,3-15.4,4.6-23c-7.6-4.3-15.1-8.7-22.6-13l-4.9-2.8c-0.5-0.3-1-0.7-1.6-1.4
						c-0.5-0.8-0.6-1.8-0.2-2.6c0.4-0.9,1.2-1.4,2.1-1.6l0.6-0.1c0.4,0,0.9-0.1,1.3-0.2l7.1-0.9c7.7-1,15.5-2,23.2-3
						c1.5-7.8,3.1-15.7,4.6-23.5l1.3-6.5c0.2-1.1,1.1-1.9,2.2-2.1c1.1-0.2,2.2,0.4,2.7,1.3l0.2,0.3c0.1,0.2,0.2,0.4,0.3,0.6l2.3,4.5
						c3.9,7.7,7.8,15.5,11.7,23.2c7.6-1,15.2-1.9,22.7-2.8l5.6-0.7c0.5-0.1,1.1-0.1,2,0c1,0.2,1.9,0.9,2.2,1.9c0.3,1,0,2.1-0.8,2.8
						l-0.2,0.2c-0.1,0.1-0.3,0.3-0.4,0.4l-4.2,3.6c-6.1,5.3-12.2,10.6-18.3,15.8c3.8,7.8,7.5,15.5,11.2,23.2l2.1,4.3
						c0.1,0.2,0.2,0.4,0.3,0.7l0.1,0.4c0.4,1,0.2,2.2-0.7,3C384.6,307.1,384,307.4,383.5,307.4z"/>
				</g>
			</g>
			<path class="st7" d="M313.4,269.5c0,0,3.3-3.2,5.5-3.2c2.2,0-1.7,4.9-1.7,4.9s4.7-6,6.3-5.1c1.6,0.8-2.7,6.8-2.7,6.8
				s3.8-3.6,5.1-3c1.3,0.5-1.7,5-1.7,5s3.3-2.5,4.3-2.2c1,0.3-1.1,4.3-2.8,6c-1.8,1.6-3.4-1.2-3.4-1.2s-2.7-0.9-3-2.2
				c0,0-2.6-0.5-3.4-1.8C316,273.4,312,272.2,313.4,269.5z"/>
			<g>
				<g>
					<path class="st7" d="M383.9,291.1l-1.7,0.6c-1.5,0.5-3,0-4.2-1.1c-0.5-0.5-1.3-1.4-1.7-1.7c-1.2-0.8-4-1.8-4.8-1.6
						c-0.8,0.2-0.1,1.7,0.7,2.2c0.8,0.5,2,1,2.8,1.7c0.8,0.8-3,4.2-4.6,5.3c-1.7,1.1-5.2,1.2-5,2.8c0.2,1.6,2.7,1,2.7,1
						s-0.2,1.6,2.2,2c0,0,0.1,1.4,1.6,1.7c0,0,0.4,1.7,2.1,1.6c1.6-0.1,6.8-0.4,13.9-9.1L383.9,291.1z"/>
				</g>
				<path class="st13" d="M383.5,290.2c0,0,24.9-16.9,33.3-26.3c0,0-0.2-12.1-0.8-21.7c-0.4-6.3-0.1-12.6,0.8-18.8
					c0.5-3.5,1.3-6.8,2.3-8.8c0,0,6.6,2.6,8.9,25.4c1.3,12.4,1.4,22.2,1.3,27.3c0,2.6-1,5-2.8,6.9c-5.5,5.8-19.1,18.3-37.7,23.1
					C388.7,297.3,384.2,293.1,383.5,290.2z"/>
			</g>
		</g>
	</g>
	<g>
		<g>
			<g>
				<g>
					<path class="st0" d="M480.2,413.3h-9.5c-0.3,0-0.6-0.1-0.8-0.4s-0.3-0.6-0.3-0.9l0.9-6.9h-3.6l-0.9,7.1c-0.1,0.6-0.5,1-1.1,1
						h-9.5c-0.3,0-0.6-0.1-0.8-0.4s-0.3-0.6-0.3-0.9l0.9-6.9h-5.9c-0.6,0-1.1-0.5-1.1-1.1v-8.9c0-0.6,0.5-1.1,1.1-1.1h7.3l0.6-5.2
						h-5.9c-0.6,0-1.1-0.5-1.1-1.1v-8.9c0-0.6,0.5-1.1,1.1-1.1h7.3l0.9-7.1c0.1-0.6,0.5-1,1.1-1h9.5c0.3,0,0.6,0.1,0.8,0.4
						c0.2,0.2,0.3,0.6,0.3,0.9l-0.9,6.9h3.6l0.9-7.1c0.1-0.6,0.5-1,1.1-1h9.5c0.3,0,0.6,0.1,0.8,0.4c0.2,0.2,0.3,0.6,0.3,0.9
						l-0.9,6.9h5.9c0.6,0,1.1,0.5,1.1,1.1v8.9c0,0.6-0.5,1.1-1.1,1.1h-7.3l-0.6,5.2h5.9c0.6,0,1.1,0.5,1.1,1.1v8.9
						c0,0.6-0.5,1.1-1.1,1.1h-7.3l-0.9,7.1C481.3,412.9,480.8,413.3,480.2,413.3z M472,411.1h7.2l0.9-7.1c0.1-0.6,0.5-1,1.1-1h7.2
						v-6.6h-6c-0.3,0-0.6-0.1-0.8-0.4c-0.2-0.2-0.3-0.6-0.3-0.9l0.9-7.5c0.1-0.6,0.5-1,1.1-1h7.2V380h-6c-0.3,0-0.6-0.1-0.8-0.4
						c-0.2-0.2-0.3-0.6-0.3-0.9l0.9-6.9h-7.2L476,379c-0.1,0.6-0.5,1-1.1,1H469c-0.3,0-0.6-0.1-0.8-0.4c-0.2-0.2-0.3-0.6-0.3-0.9
						l0.9-6.9h-7.2l-0.9,7.1c-0.1,0.6-0.5,1-1.1,1h-7.2v6.6h6c0.3,0,0.6,0.1,0.8,0.4c0.2,0.2,0.3,0.6,0.3,0.9l-0.9,7.5
						c-0.1,0.6-0.5,1-1.1,1h-7.2v6.6h6c0.3,0,0.6,0.1,0.8,0.4c0.2,0.2,0.3,0.6,0.3,0.9l-0.9,6.9h7.2l0.9-7.1c0.1-0.6,0.5-1,1.1-1
						h5.9c0.3,0,0.6,0.1,0.8,0.4c0.2,0.2,0.3,0.6,0.3,0.9L472,411.1z M472.9,396.3H467c-0.3,0-0.6-0.1-0.8-0.4
						c-0.2-0.2-0.3-0.6-0.3-0.9l0.9-7.5c0.1-0.6,0.5-1,1.1-1h5.9c0.3,0,0.6,0.1,0.8,0.4c0.2,0.2,0.3,0.6,0.3,0.9l-0.9,7.5
						C473.9,395.9,473.5,396.3,472.9,396.3z M468.3,394.1h3.6l0.6-5.2h-3.6L468.3,394.1z"/>
				</g>
			</g>
		</g>
		<g>
			<path class="st0" d="M177.7,77.8c-0.3,0-0.6-0.1-0.8-0.3l-15.1-15.1c-2.3-2.3-3.6-5.5-3.6-8.8c0-3.3,1.3-6.5,3.6-8.8
				c2.1-2.1,4.7-3.1,7.4-2.8c3,0.3,6,2.2,8.5,5.3c2.5-3.1,5.4-5,8.5-5.3c2.7-0.3,5.3,0.7,7.4,2.8c2.3,2.3,3.6,5.5,3.6,8.8
				c0,3.3-1.3,6.5-3.6,8.8l-15.1,15.1C178.2,77.7,178,77.8,177.7,77.8z M168.3,44.2c-1.8,0-3.5,0.8-5,2.2c-1.9,1.9-3,4.5-3,7.3
				c0,2.7,1.1,5.3,3,7.3l14.3,14.3L192,60.9c1.9-1.9,3-4.5,3-7.3c0-2.7-1.1-5.3-3-7.3c-1.6-1.6-3.6-2.4-5.6-2.2
				c-2.8,0.3-5.5,2.3-7.8,5.6c-0.2,0.3-0.5,0.5-0.9,0.5c-0.4,0-0.7-0.2-0.9-0.5c-2.3-3.3-5-5.3-7.8-5.6
				C168.8,44.2,168.6,44.2,168.3,44.2z"/>
		</g>
		<g>
			<g>
				<g>
					<g>
						<path class="st4" d="M7.6,131.7H6.5c-0.2,0-0.4-0.1-0.5-0.3c-0.1-0.2-0.1-0.4,0-0.5l0.5-0.9c0.1-0.3,0.5-0.3,0.7-0.2
							c0.3,0.1,0.3,0.5,0.2,0.7l-0.1,0.1h0.1c0.3,0,0.5,0.2,0.5,0.5C8.1,131.4,7.9,131.7,7.6,131.7z"/>
					</g>
					<g>
						<path class="st4" d="M8,129.1c-0.1,0-0.2,0-0.3-0.1c-0.3-0.1-0.3-0.5-0.2-0.7l0.9-1.6c0.1-0.3,0.5-0.3,0.7-0.2
							c0.3,0.1,0.3,0.5,0.2,0.7l-0.9,1.6C8.4,129,8.2,129.1,8,129.1z M9.9,125.8c-0.1,0-0.2,0-0.3-0.1c-0.3-0.1-0.3-0.5-0.2-0.7
							l0.9-1.6c0.1-0.3,0.5-0.3,0.7-0.2c0.3,0.1,0.3,0.5,0.2,0.7l-0.9,1.6C10.3,125.7,10.1,125.8,9.9,125.8z M11.8,122.5
							c-0.1,0-0.2,0-0.3-0.1c-0.3-0.1-0.3-0.5-0.2-0.7l0.9-1.6c0.1-0.3,0.5-0.3,0.7-0.2c0.3,0.1,0.3,0.5,0.2,0.7l-0.9,1.6
							C12.2,122.4,12,122.5,11.8,122.5z"/>
					</g>
					<g>
						<path class="st4" d="M14.8,119.2c-0.2,0-0.4-0.1-0.5-0.3l-0.1-0.1l-0.1,0.1c-0.1,0.3-0.5,0.3-0.7,0.2
							c-0.3-0.1-0.3-0.5-0.2-0.7l0.5-0.9c0.1-0.2,0.3-0.3,0.5-0.3c0.2,0,0.4,0.1,0.5,0.3l0.5,0.9c0.1,0.3,0.1,0.6-0.2,0.7
							C14.9,119.2,14.8,119.2,14.8,119.2z"/>
					</g>
					<g>
						<path class="st4" d="M20.4,129.1c-0.2,0-0.4-0.1-0.5-0.3l-0.9-1.6c-0.1-0.3-0.1-0.6,0.2-0.7c0.3-0.1,0.6-0.1,0.7,0.2l0.9,1.6
							c0.1,0.3,0.1,0.6-0.2,0.7C20.6,129.1,20.5,129.1,20.4,129.1z M18.6,125.8c-0.2,0-0.4-0.1-0.5-0.3l-0.9-1.6
							c-0.1-0.3-0.1-0.6,0.2-0.7c0.3-0.1,0.6-0.1,0.7,0.2L19,125c0.1,0.3,0.1,0.6-0.2,0.7C18.7,125.8,18.6,125.8,18.6,125.8z
							 M16.7,122.5c-0.2,0-0.4-0.1-0.5-0.3l-0.9-1.6c-0.1-0.3-0.1-0.6,0.2-0.7c0.3-0.1,0.6-0.1,0.7,0.2l0.9,1.6
							c0.1,0.3,0.1,0.6-0.2,0.7C16.8,122.5,16.7,122.5,16.7,122.5z"/>
					</g>
					<g>
						<path class="st4" d="M21.9,131.7h-1.1c-0.3,0-0.5-0.2-0.5-0.5c0-0.3,0.2-0.5,0.5-0.5H21l-0.1-0.1c-0.1-0.3-0.1-0.6,0.2-0.7
							c0.3-0.1,0.6-0.1,0.7,0.2l0.5,0.9c0.1,0.2,0.1,0.4,0,0.5C22.3,131.6,22.1,131.7,21.9,131.7z"/>
					</g>
					<g>
						<path class="st4" d="M19,131.7h-1.9c-0.3,0-0.5-0.2-0.5-0.5c0-0.3,0.2-0.5,0.5-0.5H19c0.3,0,0.5,0.2,0.5,0.5
							C19.5,131.4,19.3,131.7,19,131.7z M15.2,131.7h-1.9c-0.3,0-0.5-0.2-0.5-0.5c0-0.3,0.2-0.5,0.5-0.5h1.9c0.3,0,0.5,0.2,0.5,0.5
							C15.7,131.4,15.5,131.7,15.2,131.7z M11.4,131.7H9.5c-0.3,0-0.5-0.2-0.5-0.5c0-0.3,0.2-0.5,0.5-0.5h1.9c0.3,0,0.5,0.2,0.5,0.5
							C11.9,131.4,11.7,131.7,11.4,131.7z"/>
					</g>
				</g>
			</g>
			<g>
				<path class="st5" d="M31.3,156.2C31.3,156.2,31.2,156.2,31.3,156.2c-0.8-0.1-1.6-0.3-2.3-0.6c-0.3-0.1-0.4-0.4-0.3-0.7
					c0.1-0.3,0.4-0.4,0.7-0.3c0.6,0.3,1.2,0.5,1.9,0.6c0.3,0,0.5,0.3,0.5,0.6C31.8,156,31.6,156.2,31.3,156.2z M33.4,156.2
					c-0.3,0-0.5-0.2-0.5-0.5c0-0.3,0.2-0.6,0.5-0.6c0.7-0.1,1.3-0.3,1.9-0.6c0.3-0.1,0.6,0,0.7,0.3c0.1,0.3,0,0.6-0.3,0.7
					C35,155.9,34.3,156.1,33.4,156.2C33.5,156.2,33.4,156.2,33.4,156.2z M37.3,154.4c-0.1,0-0.3-0.1-0.4-0.2
					c-0.2-0.2-0.2-0.6,0.1-0.8c0.5-0.4,0.9-0.9,1.3-1.5c0.2-0.2,0.5-0.3,0.7-0.2c0.2,0.2,0.3,0.5,0.2,0.7c-0.4,0.6-0.9,1.2-1.5,1.7
					C37.5,154.4,37.4,154.4,37.3,154.4z M27.5,154.4c-0.1,0-0.2,0-0.3-0.1c-0.6-0.5-1.1-1.1-1.5-1.7c-0.2-0.2-0.1-0.6,0.2-0.7
					c0.2-0.2,0.6-0.1,0.7,0.2c0.4,0.6,0.8,1.1,1.3,1.5c0.2,0.2,0.2,0.5,0.1,0.8C27.8,154.4,27.6,154.4,27.5,154.4z M39.5,150.9
					c0,0-0.1,0-0.2,0c-0.3-0.1-0.4-0.4-0.4-0.7c0.2-0.6,0.3-1.3,0.3-2c0-0.3,0.2-0.5,0.5-0.5c0.3,0,0.5,0.2,0.5,0.5
					c0,0.8-0.1,1.5-0.3,2.3C40,150.8,39.8,150.9,39.5,150.9z M25.2,150.9c-0.2,0-0.4-0.2-0.5-0.4c-0.2-0.7-0.3-1.5-0.3-2.3
					c0-0.3,0.2-0.5,0.5-0.5c0.3,0,0.5,0.2,0.5,0.5c0,0.7,0.1,1.3,0.3,2c0.1,0.3-0.1,0.6-0.4,0.7C25.3,150.9,25.2,150.9,25.2,150.9z
					 M39.5,146.7c-0.2,0-0.4-0.2-0.5-0.4c-0.2-0.6-0.5-1.2-0.8-1.8c-0.2-0.2-0.1-0.6,0.2-0.7c0.2-0.2,0.6-0.1,0.7,0.2
					c0.4,0.6,0.7,1.3,0.9,2.1c0.1,0.3-0.1,0.6-0.4,0.7C39.6,146.7,39.6,146.7,39.5,146.7z M25.2,146.7c0,0-0.1,0-0.2,0
					c-0.3-0.1-0.4-0.4-0.4-0.7c0.2-0.7,0.5-1.4,0.9-2.1c0.2-0.2,0.5-0.3,0.7-0.2c0.2,0.2,0.3,0.5,0.2,0.7c-0.4,0.6-0.6,1.2-0.8,1.8
					C25.6,146.5,25.4,146.7,25.2,146.7z M37.3,143.1c-0.1,0-0.2,0-0.3-0.1c-0.5-0.4-1.1-0.8-1.7-1.1c-0.3-0.1-0.4-0.4-0.3-0.7
					c0.1-0.3,0.4-0.4,0.7-0.3c0.7,0.3,1.3,0.7,1.9,1.2c0.2,0.2,0.2,0.5,0.1,0.8C37.5,143.1,37.4,143.1,37.3,143.1z M27.5,143.1
					c-0.1,0-0.3-0.1-0.4-0.2c-0.2-0.2-0.2-0.6,0.1-0.8c0.6-0.5,1.2-0.9,1.9-1.2c0.3-0.1,0.6,0,0.7,0.3c0.1,0.3,0,0.6-0.3,0.7
					c-0.6,0.3-1.2,0.6-1.7,1.1C27.7,143.1,27.6,143.1,27.5,143.1z M33.4,141.4C33.4,141.4,33.4,141.4,33.4,141.4
					c-0.7-0.1-1.4-0.1-2.1,0c-0.3,0-0.6-0.2-0.6-0.5c0-0.3,0.2-0.6,0.5-0.6c0.7-0.1,1.5-0.1,2.3,0c0.3,0,0.5,0.3,0.5,0.6
					C33.9,141.2,33.7,141.4,33.4,141.4z"/>
			</g>
			<g>
				<path class="st6" d="M31.3,112.8C31.3,112.8,31.2,112.8,31.3,112.8c-0.8-0.1-1.6-0.3-2.3-0.6c-0.3-0.1-0.4-0.4-0.3-0.7
					c0.1-0.3,0.4-0.4,0.7-0.3c0.6,0.3,1.2,0.5,1.9,0.6c0.3,0,0.5,0.3,0.5,0.6C31.8,112.6,31.6,112.8,31.3,112.8z M33.4,112.8
					c-0.3,0-0.5-0.2-0.5-0.5c0-0.3,0.2-0.6,0.5-0.6c0.7-0.1,1.3-0.3,1.9-0.6c0.3-0.1,0.6,0,0.7,0.3c0.1,0.3,0,0.6-0.3,0.7
					C35,112.5,34.3,112.7,33.4,112.8C33.5,112.8,33.4,112.8,33.4,112.8z M37.3,111.1c-0.1,0-0.3-0.1-0.4-0.2
					c-0.2-0.2-0.2-0.6,0.1-0.8c0.5-0.4,0.9-0.9,1.3-1.5c0.2-0.2,0.5-0.3,0.7-0.2c0.2,0.2,0.3,0.5,0.2,0.7c-0.4,0.6-0.9,1.2-1.5,1.7
					C37.5,111,37.4,111.1,37.3,111.1z M27.5,111.1c-0.1,0-0.2,0-0.3-0.1c-0.6-0.5-1.1-1.1-1.5-1.7c-0.2-0.2-0.1-0.6,0.2-0.7
					c0.2-0.2,0.6-0.1,0.7,0.2c0.4,0.6,0.8,1.1,1.3,1.5c0.2,0.2,0.2,0.5,0.1,0.8C27.8,111,27.6,111.1,27.5,111.1z M39.5,107.5
					c0,0-0.1,0-0.2,0c-0.3-0.1-0.4-0.4-0.4-0.7c0.2-0.6,0.3-1.3,0.3-2c0-0.3,0.2-0.5,0.5-0.5c0.3,0,0.5,0.2,0.5,0.5
					c0,0.8-0.1,1.5-0.3,2.3C40,107.4,39.8,107.5,39.5,107.5z M25.2,107.5c-0.2,0-0.4-0.2-0.5-0.4c-0.2-0.7-0.3-1.5-0.3-2.3
					c0-0.3,0.2-0.5,0.5-0.5c0.3,0,0.5,0.2,0.5,0.5c0,0.7,0.1,1.3,0.3,2c0.1,0.3-0.1,0.6-0.4,0.7C25.3,107.5,25.2,107.5,25.2,107.5z
					 M39.5,103.3c-0.2,0-0.4-0.2-0.5-0.4c-0.2-0.6-0.5-1.2-0.8-1.8c-0.2-0.2-0.1-0.6,0.2-0.7c0.2-0.2,0.6-0.1,0.7,0.2
					c0.4,0.6,0.7,1.3,0.9,2.1c0.1,0.3-0.1,0.6-0.4,0.7C39.6,103.3,39.6,103.3,39.5,103.3z M25.2,103.3c0,0-0.1,0-0.2,0
					c-0.3-0.1-0.4-0.4-0.4-0.7c0.2-0.7,0.5-1.4,0.9-2.1c0.2-0.2,0.5-0.3,0.7-0.2c0.2,0.2,0.3,0.5,0.2,0.7c-0.4,0.6-0.6,1.2-0.8,1.8
					C25.6,103.1,25.4,103.3,25.2,103.3z M37.3,99.8c-0.1,0-0.2,0-0.3-0.1c-0.5-0.4-1.1-0.8-1.7-1.1c-0.3-0.1-0.4-0.4-0.3-0.7
					c0.1-0.3,0.4-0.4,0.7-0.3c0.7,0.3,1.3,0.7,1.9,1.2c0.2,0.2,0.2,0.5,0.1,0.8C37.5,99.7,37.4,99.8,37.3,99.8z M27.5,99.8
					c-0.1,0-0.3-0.1-0.4-0.2c-0.2-0.2-0.2-0.6,0.1-0.8c0.6-0.5,1.2-0.9,1.9-1.2c0.3-0.1,0.6,0,0.7,0.3c0.1,0.3,0,0.6-0.3,0.7
					c-0.6,0.3-1.2,0.6-1.7,1.1C27.7,99.7,27.6,99.8,27.5,99.8z M33.4,98C33.4,98,33.4,98,33.4,98c-0.7-0.1-1.4-0.1-2.1,0
					c-0.3,0-0.6-0.2-0.6-0.5c0-0.3,0.2-0.6,0.5-0.6c0.7-0.1,1.5-0.1,2.3,0c0.3,0,0.5,0.3,0.5,0.6C33.9,97.8,33.7,98,33.4,98z"/>
			</g>
		</g>
		<g>
			<g>
				<g>
					<g>
						<path class="st4" d="M378,75.3h1.1c0.2,0,0.4-0.1,0.5-0.3c0.1-0.2,0.1-0.4,0-0.5l-0.5-0.9c-0.1-0.3-0.5-0.3-0.7-0.2
							c-0.3,0.1-0.3,0.5-0.2,0.7l0.1,0.1H378c-0.3,0-0.5,0.2-0.5,0.5S377.7,75.3,378,75.3z"/>
					</g>
					<g>
						<path class="st4" d="M377.1,72.4l-0.9-1.6c-0.1-0.3-0.1-0.6,0.2-0.7c0.3-0.1,0.6-0.1,0.7,0.2l0.9,1.6c0.1,0.3,0.1,0.6-0.2,0.7
							c-0.1,0-0.2,0.1-0.3,0.1C377.4,72.7,377.2,72.6,377.1,72.4z M375.2,69.2l-0.9-1.6c-0.1-0.3-0.1-0.6,0.2-0.7
							c0.3-0.1,0.6-0.1,0.7,0.2l0.9,1.6c0.1,0.3,0.1,0.6-0.2,0.7c-0.1,0-0.2,0.1-0.3,0.1C375.5,69.4,375.3,69.3,375.2,69.2z
							 M373.3,65.9l-0.9-1.6c-0.1-0.3-0.1-0.6,0.2-0.7c0.3-0.1,0.6-0.1,0.7,0.2l0.9,1.6c0.1,0.3,0.1,0.6-0.2,0.7
							c-0.1,0-0.2,0.1-0.3,0.1C373.6,66.1,373.4,66,373.3,65.9z"/>
					</g>
					<g>
						<path class="st4" d="M370.8,62.9c0.2,0,0.4-0.1,0.5-0.3l0.1-0.1l0.1,0.1c0.1,0.3,0.5,0.3,0.7,0.2c0.3-0.1,0.3-0.5,0.2-0.7
							l-0.5-0.9c-0.1-0.2-0.3-0.3-0.5-0.3c-0.2,0-0.4,0.1-0.5,0.3l-0.5,0.9c-0.1,0.3-0.1,0.6,0.2,0.7
							C370.6,62.8,370.7,62.9,370.8,62.9z"/>
					</g>
					<g>
						<path class="st4" d="M364.8,72.6c-0.3-0.1-0.3-0.5-0.2-0.7l0.9-1.6c0.1-0.3,0.5-0.3,0.7-0.2c0.3,0.1,0.3,0.5,0.2,0.7l-0.9,1.6
							c-0.1,0.2-0.3,0.3-0.5,0.3C365,72.7,364.9,72.7,364.8,72.6z M366.7,69.4c-0.3-0.1-0.3-0.5-0.2-0.7l0.9-1.6
							c0.1-0.3,0.5-0.3,0.7-0.2c0.3,0.1,0.3,0.5,0.2,0.7l-0.9,1.6c-0.1,0.2-0.3,0.3-0.5,0.3C366.9,69.4,366.8,69.4,366.7,69.4z
							 M368.6,66.1c-0.3-0.1-0.3-0.5-0.2-0.7l0.9-1.6c0.1-0.3,0.5-0.3,0.7-0.2c0.3,0.1,0.3,0.5,0.2,0.7l-0.9,1.6
							c-0.1,0.2-0.3,0.3-0.5,0.3C368.8,66.1,368.7,66.1,368.6,66.1z"/>
					</g>
					<g>
						<path class="st4" d="M363.6,75.3h1.1c0.3,0,0.5-0.2,0.5-0.5s-0.2-0.5-0.5-0.5h-0.1l0.1-0.1c0.1-0.3,0.1-0.6-0.2-0.7
							c-0.3-0.1-0.6-0.1-0.7,0.2l-0.5,0.9c-0.1,0.2-0.1,0.4,0,0.5C363.3,75.2,363.4,75.3,363.6,75.3z"/>
					</g>
					<g>
						<path class="st4" d="M366,74.7c0-0.3,0.2-0.5,0.5-0.5h1.9c0.3,0,0.5,0.2,0.5,0.5s-0.2,0.5-0.5,0.5h-1.9
							C366.3,75.3,366,75,366,74.7z M369.8,74.7c0-0.3,0.2-0.5,0.5-0.5h1.9c0.3,0,0.5,0.2,0.5,0.5s-0.2,0.5-0.5,0.5h-1.9
							C370.1,75.3,369.8,75,369.8,74.7z M373.6,74.7c0-0.3,0.2-0.5,0.5-0.5h1.9c0.3,0,0.5,0.2,0.5,0.5s-0.2,0.5-0.5,0.5h-1.9
							C373.9,75.3,373.6,75,373.6,74.7z"/>
					</g>
				</g>
			</g>
			<g>
				<g>
					<path class="st6" d="M346.8,70.4h1.1c0.2,0,0.4-0.1,0.5-0.3s0.1-0.4,0-0.5l-0.5-0.9c-0.1-0.3-0.5-0.3-0.7-0.2
						c-0.3,0.1-0.3,0.5-0.2,0.7l0.1,0.1h-0.1c-0.3,0-0.5,0.2-0.5,0.5S346.5,70.4,346.8,70.4z"/>
				</g>
				<g>
					<path class="st6" d="M346,67.6l-0.9-1.6c-0.1-0.3-0.1-0.6,0.2-0.7c0.3-0.1,0.6-0.1,0.7,0.2l0.9,1.6c0.1,0.3,0.1,0.6-0.2,0.7
						c-0.1,0-0.2,0.1-0.3,0.1C346.2,67.9,346.1,67.8,346,67.6z M344.1,64.3l-0.9-1.6c-0.1-0.3-0.1-0.6,0.2-0.7
						c0.3-0.1,0.6-0.1,0.7,0.2l0.9,1.6c0.1,0.3,0.1,0.6-0.2,0.7c-0.1,0-0.2,0.1-0.3,0.1C344.3,64.6,344.2,64.5,344.1,64.3z
						 M342.2,61l-0.9-1.6c-0.1-0.3-0.1-0.6,0.2-0.7c0.3-0.1,0.6-0.1,0.7,0.2l0.9,1.6c0.1,0.3,0.1,0.6-0.2,0.7
						c-0.1,0-0.2,0.1-0.3,0.1C342.4,61.3,342.3,61.2,342.2,61z"/>
				</g>
				<g>
					<path class="st6" d="M339.7,58c0.2,0,0.4-0.1,0.5-0.3l0.1-0.1l0.1,0.1c0.1,0.3,0.5,0.3,0.7,0.2c0.3-0.1,0.3-0.5,0.2-0.7
						l-0.5-0.9c-0.1-0.2-0.3-0.3-0.5-0.3s-0.4,0.1-0.5,0.3l-0.5,0.9c-0.1,0.3-0.1,0.6,0.2,0.7C339.5,58,339.6,58,339.7,58z"/>
				</g>
				<g>
					<path class="st6" d="M333.7,67.8c-0.3-0.1-0.3-0.5-0.2-0.7l0.9-1.6c0.1-0.3,0.5-0.3,0.7-0.2c0.3,0.1,0.3,0.5,0.2,0.7l-0.9,1.6
						c-0.1,0.2-0.3,0.3-0.5,0.3C333.9,67.9,333.8,67.8,333.7,67.8z M335.6,64.5c-0.3-0.1-0.3-0.5-0.2-0.7l0.9-1.6
						c0.1-0.3,0.5-0.3,0.7-0.2c0.3,0.1,0.3,0.5,0.2,0.7l-0.9,1.6c-0.1,0.2-0.3,0.3-0.5,0.3C335.8,64.6,335.7,64.5,335.6,64.5z
						 M337.5,61.2c-0.3-0.1-0.3-0.5-0.2-0.7l0.9-1.6c0.1-0.3,0.5-0.3,0.7-0.2c0.3,0.1,0.3,0.5,0.2,0.7l-0.9,1.6
						c-0.1,0.2-0.3,0.3-0.5,0.3C337.7,61.3,337.6,61.3,337.5,61.2z"/>
				</g>
				<g>
					<path class="st6" d="M332.5,70.4h1.1c0.3,0,0.5-0.2,0.5-0.5s-0.2-0.5-0.5-0.5h-0.1l0.1-0.1c0.1-0.3,0.1-0.6-0.2-0.7
						c-0.3-0.1-0.6-0.1-0.7,0.2l-0.5,0.9c-0.1,0.2-0.1,0.4,0,0.5S332.3,70.4,332.5,70.4z"/>
				</g>
				<g>
					<path class="st6" d="M334.9,69.9c0-0.3,0.2-0.5,0.5-0.5h1.9c0.3,0,0.5,0.2,0.5,0.5s-0.2,0.5-0.5,0.5h-1.9
						C335.2,70.4,334.9,70.2,334.9,69.9z M338.7,69.9c0-0.3,0.2-0.5,0.5-0.5h1.9c0.3,0,0.5,0.2,0.5,0.5s-0.2,0.5-0.5,0.5h-1.9
						C339,70.4,338.7,70.2,338.7,69.9z M342.5,69.9c0-0.3,0.2-0.5,0.5-0.5h1.9c0.3,0,0.5,0.2,0.5,0.5s-0.2,0.5-0.5,0.5H343
						C342.8,70.4,342.5,70.2,342.5,69.9z"/>
				</g>
			</g>
			<g>
				<g>
					<path class="st5" d="M361.9,52.5c0-0.3,0.2-0.6,0.5-0.6c0.7-0.1,1.3-0.3,1.9-0.6c0.3-0.1,0.6,0,0.7,0.3c0.1,0.3,0,0.6-0.3,0.7
						c-0.7,0.3-1.4,0.5-2.2,0.6c0,0-0.1,0-0.1,0C362.2,52.9,362,52.8,361.9,52.5z M360.3,52.9c-0.8-0.1-1.5-0.3-2.2-0.6
						c-0.3-0.1-0.4-0.4-0.3-0.7c0.1-0.3,0.4-0.4,0.7-0.3c0.6,0.3,1.2,0.5,1.9,0.6c0.3,0,0.5,0.3,0.5,0.6
						C360.8,52.8,360.6,52.9,360.3,52.9C360.3,52.9,360.3,52.9,360.3,52.9z M356.2,51.1c-0.6-0.5-1.1-1.1-1.5-1.7
						c-0.2-0.2-0.1-0.6,0.2-0.7c0.2-0.2,0.6-0.1,0.7,0.2c0.4,0.6,0.8,1.1,1.3,1.5c0.2,0.2,0.2,0.5,0.1,0.8c-0.1,0.1-0.3,0.2-0.4,0.2
						C356.4,51.2,356.3,51.2,356.2,51.1z M365.9,51c-0.2-0.2-0.2-0.6,0.1-0.8c0.5-0.4,0.9-0.9,1.3-1.5c0.2-0.2,0.5-0.3,0.7-0.2
						c0.2,0.2,0.3,0.5,0.2,0.7c-0.4,0.6-0.9,1.2-1.5,1.7c-0.1,0.1-0.2,0.1-0.3,0.1C366.1,51.2,366,51.1,365.9,51z M353.7,47.3
						c-0.2-0.7-0.3-1.5-0.3-2.3c0-0.3,0.2-0.5,0.5-0.5s0.5,0.2,0.5,0.5c0,0.7,0.1,1.3,0.3,2c0.1,0.3-0.1,0.6-0.4,0.7
						c-0.1,0-0.1,0-0.2,0C354,47.7,353.8,47.5,353.7,47.3z M368.4,47.6c-0.3-0.1-0.4-0.4-0.4-0.7c0.2-0.6,0.3-1.3,0.3-2
						c0-0.3,0.2-0.5,0.5-0.5s0.5,0.2,0.5,0.5c0,0.8-0.1,1.5-0.3,2.3c-0.1,0.2-0.3,0.4-0.5,0.4C368.5,47.7,368.5,47.6,368.4,47.6z
						 M354.1,43.4c-0.3-0.1-0.4-0.4-0.4-0.7c0.2-0.7,0.5-1.4,0.9-2.1c0.2-0.2,0.5-0.3,0.7-0.2c0.2,0.2,0.3,0.5,0.2,0.7
						c-0.4,0.6-0.6,1.2-0.8,1.8c-0.1,0.2-0.3,0.4-0.5,0.4C354.2,43.4,354.1,43.4,354.1,43.4z M368.1,43.1c-0.2-0.6-0.5-1.2-0.8-1.8
						c-0.2-0.2-0.1-0.6,0.2-0.7c0.2-0.2,0.6-0.1,0.7,0.2c0.4,0.6,0.7,1.3,0.9,2.1c0.1,0.3-0.1,0.6-0.4,0.7c-0.1,0-0.1,0-0.2,0
						C368.3,43.4,368.1,43.3,368.1,43.1z M356.1,39.7c-0.2-0.2-0.2-0.6,0.1-0.8c0.6-0.5,1.2-0.9,1.9-1.2c0.3-0.1,0.6,0,0.7,0.3
						c0.1,0.3,0,0.6-0.3,0.7c-0.6,0.3-1.2,0.6-1.7,1.1c-0.1,0.1-0.2,0.1-0.3,0.1C356.4,39.9,356.2,39.8,356.1,39.7z M365.9,39.8
						c-0.5-0.4-1.1-0.8-1.7-1.1c-0.3-0.1-0.4-0.4-0.3-0.7c0.1-0.3,0.4-0.4,0.7-0.3c0.7,0.3,1.3,0.7,1.9,1.2c0.2,0.2,0.2,0.5,0.1,0.8
						c-0.1,0.1-0.3,0.2-0.4,0.2C366.2,39.9,366,39.9,365.9,39.8z M359.8,37.7c0-0.3,0.2-0.6,0.5-0.6c0.7-0.1,1.5-0.1,2.3,0
						c0.3,0,0.5,0.3,0.5,0.6c0,0.3-0.3,0.5-0.6,0.5c-0.7-0.1-1.3-0.1-2,0c0,0-0.1,0-0.1,0C360.1,38.1,359.8,38,359.8,37.7z"/>
				</g>
			</g>
		</g>
		<g>
			<g>
				<path class="st6" d="M17.5,177.5v15.6c0,2.1,1.7,3.7,3.7,3.7h28.4l8.6,3.1c0.9,0.3,1.7-0.5,1.4-1.4l-3.2-8.4v-12.7
					c0-2.1-1.7-3.7-3.7-3.7H21.3C19.2,173.7,17.5,175.4,17.5,177.5z"/>
			</g>
			<g>
				<g>
					<path class="st13" d="M42.2,185.7c0,1.5,1.2,2.7,2.7,2.7c1.5,0,2.7-1.2,2.7-2.7c0-1.5-1.2-2.7-2.7-2.7
						C43.4,183,42.2,184.2,42.2,185.7z"/>
					<circle class="st13" cx="36.3" cy="185.7" r="2.7"/>
					<circle class="st13" cx="27.8" cy="185.7" r="2.7"/>
				</g>
			</g>
		</g>
	</g>
	<g>
		<g>
			<path class="st6" d="M318.3,91.3l-10.6-4.3H214c-1.5,0-2.7-1.2-2.7-2.7V65.3c0-1.5,1.2-2.7,2.7-2.7h99.2c1.5,0,2.7,1.2,2.7,2.7
				v13.9l3.2,11.3C319.3,91,318.8,91.5,318.3,91.3z"/>
			<g>
				<path class="st3" d="M231.5,81.9c-0.1,0-0.2,0-0.2-0.1l-0.1-0.1c0,0-0.1-0.1-0.1-0.1l-0.6-0.4c-1.1-0.8-2.3-1.6-3.4-2.3
					c-1.1,0.8-2.3,1.6-3.4,2.4l-0.5,0.4c0,0-0.1,0-0.1,0.1l-0.1,0c-0.2,0.1-0.4,0.1-0.5,0c-0.2-0.1-0.2-0.3-0.2-0.5l0-0.1
					c0,0,0-0.1,0-0.1l0.2-0.7c0.4-1.2,0.8-2.5,1.1-3.7c-1.2-0.8-2.3-1.7-3.5-2.5l-0.7-0.5c-0.1-0.1-0.2-0.1-0.2-0.3
					c-0.1-0.1-0.1-0.3,0-0.4c0.1-0.1,0.2-0.2,0.4-0.2l0.1,0c0.1,0,0.1,0,0.2,0l1.2,0c1.3,0,2.6-0.1,3.9-0.1c0.4-1.3,0.8-2.5,1.2-3.8
					l0.3-1c0.1-0.2,0.2-0.3,0.4-0.3c0.2,0,0.4,0.1,0.4,0.3l0,0c0,0,0,0.1,0,0.1l0.3,0.8c0.5,1.3,1,2.7,1.5,4c1.3,0,2.5,0,3.8-0.1
					l0.9,0c0.1,0,0.2,0,0.3,0c0.2,0,0.3,0.2,0.3,0.3c0,0.2,0,0.3-0.2,0.4l0,0c0,0-0.1,0-0.1,0.1l-0.8,0.5c-1.1,0.8-2.2,1.5-3.3,2.3
					c0.5,1.3,1,2.7,1.4,4l0.3,0.7c0,0,0,0.1,0,0.1l0,0.1c0.1,0.2,0,0.4-0.2,0.5C231.6,81.9,231.6,81.9,231.5,81.9z"/>
				<path class="st3" d="M249.9,81.9c-0.1,0-0.2,0-0.2-0.1l-0.1-0.1c0,0-0.1-0.1-0.1-0.1l-0.6-0.4c-1.1-0.8-2.3-1.6-3.4-2.3
					c-1.1,0.8-2.3,1.6-3.4,2.4l-0.5,0.4c0,0-0.1,0-0.1,0.1l-0.1,0c-0.2,0.1-0.4,0.1-0.5,0c-0.2-0.1-0.2-0.3-0.2-0.5l0-0.1
					c0,0,0-0.1,0-0.1l0.2-0.7c0.4-1.2,0.8-2.5,1.1-3.7c-1.2-0.8-2.3-1.7-3.5-2.5l-0.7-0.5c-0.1-0.1-0.2-0.1-0.2-0.3
					c-0.1-0.1-0.1-0.3,0-0.4c0.1-0.1,0.2-0.2,0.4-0.2l0.1,0c0.1,0,0.1,0,0.2,0l1.2,0c1.3,0,2.6-0.1,3.9-0.1c0.4-1.3,0.8-2.5,1.2-3.8
					l0.3-1c0.1-0.2,0.2-0.3,0.4-0.3c0.2,0,0.4,0.1,0.4,0.3l0,0c0,0,0,0.1,0,0.1l0.3,0.8c0.5,1.3,1,2.7,1.5,4c1.3,0,2.5,0,3.8-0.1
					l0.9,0c0.1,0,0.2,0,0.3,0c0.2,0,0.3,0.2,0.3,0.3c0,0.2,0,0.3-0.2,0.4l0,0c0,0-0.1,0-0.1,0.1l-0.8,0.5c-1.1,0.8-2.2,1.5-3.3,2.3
					c0.5,1.3,1,2.7,1.4,4l0.3,0.7c0,0,0,0.1,0,0.1l0,0.1c0.1,0.2,0,0.4-0.2,0.5C250.1,81.9,250,81.9,249.9,81.9z"/>
				<path class="st3" d="M268.3,81.9c-0.1,0-0.2,0-0.2-0.1l-0.1-0.1c0,0-0.1-0.1-0.1-0.1l-0.6-0.4c-1.1-0.8-2.3-1.6-3.4-2.3
					c-1.1,0.8-2.3,1.6-3.4,2.4l-0.5,0.4c0,0-0.1,0-0.1,0.1l-0.1,0c-0.2,0.1-0.4,0.1-0.5,0c-0.2-0.1-0.2-0.3-0.2-0.5l0-0.1
					c0,0,0-0.1,0-0.1l0.2-0.7c0.4-1.2,0.8-2.5,1.1-3.7c-1.2-0.8-2.3-1.7-3.5-2.5l-0.7-0.5c-0.1-0.1-0.2-0.1-0.2-0.3
					c-0.1-0.1-0.1-0.3,0-0.4c0.1-0.1,0.2-0.2,0.4-0.2l0.1,0c0.1,0,0.1,0,0.2,0l1.2,0c1.3,0,2.6-0.1,3.9-0.1c0.4-1.3,0.8-2.5,1.2-3.8
					l0.3-1c0.1-0.2,0.2-0.3,0.4-0.3c0.2,0,0.4,0.1,0.4,0.3l0,0c0,0,0,0.1,0,0.1l0.3,0.8c0.5,1.3,1,2.7,1.5,4c1.3,0,2.5,0,3.8-0.1
					l0.9,0c0.1,0,0.2,0,0.3,0c0.2,0,0.3,0.2,0.3,0.3c0,0.2,0,0.3-0.2,0.4l0,0c0,0-0.1,0-0.1,0.1l-0.8,0.5c-1.1,0.8-2.2,1.5-3.3,2.3
					c0.5,1.3,1,2.7,1.4,4l0.3,0.7c0,0,0,0.1,0,0.1l0,0.1c0.1,0.2,0,0.4-0.2,0.5C268.5,81.9,268.4,81.9,268.3,81.9z"/>
				<path class="st13" d="M286.8,81.9c-0.1,0-0.2,0-0.2-0.1l-0.1-0.1c0,0-0.1-0.1-0.1-0.1l-0.6-0.4c-1.1-0.8-2.3-1.6-3.4-2.3
					c-1.1,0.8-2.3,1.6-3.4,2.4l-0.5,0.4c0,0-0.1,0-0.1,0.1l-0.1,0c-0.2,0.1-0.4,0.1-0.5,0c-0.2-0.1-0.2-0.3-0.2-0.5l0-0.1
					c0,0,0-0.1,0-0.1l0.2-0.7c0.4-1.2,0.8-2.5,1.1-3.7c-1.2-0.8-2.3-1.7-3.5-2.5l-0.7-0.5c-0.1-0.1-0.2-0.1-0.2-0.3
					c-0.1-0.1-0.1-0.3,0-0.4s0.2-0.2,0.4-0.2l0.1,0c0.1,0,0.1,0,0.2,0l1.2,0c1.3,0,2.6-0.1,3.9-0.1c0.4-1.3,0.8-2.5,1.2-3.8l0.3-1
					c0.1-0.2,0.2-0.3,0.4-0.3c0.2,0,0.4,0.1,0.4,0.3l0,0c0,0,0,0.1,0,0.1l0.3,0.8c0.5,1.3,1,2.7,1.5,4c1.3,0,2.5,0,3.8-0.1l0.9,0
					c0.1,0,0.2,0,0.3,0c0.2,0,0.3,0.2,0.3,0.3c0,0.2,0,0.3-0.2,0.4l0,0c0,0-0.1,0-0.1,0.1l-0.8,0.5c-1.1,0.8-2.2,1.5-3.3,2.3
					c0.5,1.3,1,2.7,1.4,4l0.3,0.7c0,0,0,0.1,0,0.1l0,0.1c0.1,0.2,0,0.4-0.2,0.5C287,81.9,286.9,81.9,286.8,81.9z"/>
				<path class="st13" d="M305.2,81.9c-0.1,0-0.2,0-0.2-0.1l-0.1-0.1c0,0-0.1-0.1-0.1-0.1l-0.6-0.4c-1.1-0.8-2.3-1.6-3.4-2.3
					c-1.1,0.8-2.3,1.6-3.4,2.4l-0.5,0.4c0,0-0.1,0-0.1,0.1l-0.1,0c-0.2,0.1-0.4,0.1-0.5,0c-0.2-0.1-0.2-0.3-0.2-0.5l0-0.1
					c0,0,0-0.1,0-0.1l0.2-0.7c0.4-1.2,0.8-2.5,1.1-3.7c-1.2-0.8-2.3-1.7-3.5-2.5l-0.7-0.5c-0.1-0.1-0.2-0.1-0.2-0.3
					c-0.1-0.1-0.1-0.3,0-0.4s0.2-0.2,0.4-0.2l0.1,0c0.1,0,0.1,0,0.2,0l1.2,0c1.3,0,2.6-0.1,3.9-0.1c0.4-1.3,0.8-2.5,1.2-3.8l0.3-1
					c0.1-0.2,0.2-0.3,0.4-0.3c0.2,0,0.4,0.1,0.4,0.3l0,0c0,0,0,0.1,0,0.1l0.3,0.8c0.5,1.3,1,2.7,1.5,4c1.3,0,2.5,0,3.8-0.1l0.9,0
					c0.1,0,0.2,0,0.3,0c0.2,0,0.3,0.2,0.3,0.3c0,0.2,0,0.3-0.2,0.4l0,0c0,0-0.1,0-0.1,0.1l-0.8,0.5c-1.1,0.8-2.2,1.5-3.3,2.3
					c0.5,1.3,1,2.7,1.4,4l0.3,0.7c0,0,0,0.1,0,0.1l0,0.1c0.1,0.2,0,0.4-0.2,0.5C305.4,81.9,305.3,81.9,305.2,81.9z"/>
			</g>
		</g>
	</g>
	<g>
		<g>
			<path class="st6" d="M59,445.7v-39.1c0-4.7-34.7-4.7-34.7,0v39.1C24.2,449.2,59,449.2,59,445.7z"/>
			<g>
				<path class="st13" d="M59,410.6v2.3c-3.6,0.9-9.4,2-17.2,2c-8,0-14-1.1-17.5-2.1v-2.3c3.3,0.9,9.3,2.2,17.5,2.2
					C49.7,412.7,55.6,411.6,59,410.6z"/>
			</g>
			<ellipse class="st2" cx="41.6" cy="406.1" rx="15.6" ry="2"/>
		</g>
		<g>
			<g>
				<g>
					<g>
						<path class="st5" d="M37.8,406.1H45c0.4-2.1,4.6-24.5,0.8-43.7c-4-20.1-16.2-32.1-23.7-23.5c-7.6,8.6,1.9,25.4,9,37.5
							C37.8,388,37.8,404.4,37.8,406.1z"/>
					</g>
				</g>
				<g>
					<path class="st11" d="M40.5,406.1h1.9c1.9-31.4-12.3-55.5-12.4-55.7c-0.3-0.4-0.8-0.6-1.3-0.3c-0.4,0.3-0.6,0.8-0.3,1.3
						C28.5,351.7,42.4,375.3,40.5,406.1z"/>
				</g>
			</g>
			<g>
				<g>
					<g>
						<path class="st5" d="M70.9,344.4c-16.2,0-25.3,49.3-24.2,62.1h6.9c0.6-3.2,3.2-11.9,15.4-31.6
							C74.7,365.8,87.6,344.4,70.9,344.4z"/>
					</g>
				</g>
				<g>
					<path class="st11" d="M68.1,358.1c-0.5-0.3-1-0.1-1.3,0.4c-0.1,0.3-13.9,24.8-17.2,48h1.9c3.3-22.8,16.8-46.8,16.9-47.1
						C68.7,359,68.5,358.4,68.1,358.1z"/>
				</g>
			</g>
			<g>
				<g>
					<path class="st5" d="M36.7,406.5c0.3-9.1-12.4-46.2-23.3-43.5c-11.9,2.9,1.1,20.4,5.9,26.9c7.7,10.3,10.7,14.8,11.9,16.6H36.7z
						"/>
				</g>
				<g>
					<path class="st11" d="M34.7,406.5c-3.7-15.3-16.9-33.1-17.5-33.9c-0.3-0.4-0.9-0.5-1.3-0.2c-0.4,0.3-0.5,0.9-0.2,1.3
						c0.1,0.2,13.3,17.9,17,32.8H34.7z"/>
				</g>
			</g>
		</g>
	</g>
</g>
</svg>
