<?xml version="1.0" encoding="UTF-8" standalone="no" ?>
<!DOCTYPE svg PUBLIC "-//W3C//DTD SVG 1.1//EN" "http://www.w3.org/Graphics/SVG/1.1/DTD/svg11.dtd">
<svg xmlns="http://www.w3.org/2000/svg" xmlns:xlink="http://www.w3.org/1999/xlink" version="1.1" width="1000" height="650" viewBox="0 0 1000 650" xml:space="preserve">
<desc>Created with Fabric.js 4.6.0</desc>
<defs>
</defs>
<g transform="matrix(1.07 0 0 1.07 700.11 245.15)" id="cEjnETHNYj9Cxhcp8t4wW"  >
<path style="stroke: none; stroke-width: 1; stroke-dasharray: none; stroke-linecap: butt; stroke-dashoffset: 0; stroke-linejoin: miter; stroke-miterlimit: 4; fill: rgb(40,88,235); fill-rule: nonzero; opacity: 0.1;" vector-effect="non-scaling-stroke"  transform=" translate(-786.37, -298.95)" d="M 824 293.65 C 824.8652106012441 292.41790897449545 825.3423059352134 290.955280943349 825.37 289.45 C 825.37 280.33 806.79 272.95 783.87 272.95 C 760.95 272.95 742.37 280.33 742.37 289.45 C 742.411536396888 291.1552779647696 743.0123623228462 292.799643656866 744.08 294.13 C 718.5600000000001 296.98 701.37 302.32 701.37 308.45 C 701.37 317.56 739.37 324.95 786.37 324.95 C 833.37 324.95 871.37 317.56 871.37 308.45 C 871.32 302 852 296.35 824 293.65 Z" stroke-linecap="round" />
</g>
<g transform="matrix(1.07 0 0 1.07 466.38 243.07)" id="vetvTjpq_bVZsYImLdYzo"  >
<path style="stroke: none; stroke-width: 1; stroke-dasharray: none; stroke-linecap: butt; stroke-dashoffset: 0; stroke-linejoin: miter; stroke-miterlimit: 4; fill: rgb(40,88,235); fill-rule: nonzero; opacity: 1;" vector-effect="non-scaling-stroke"  transform=" translate(-567.33, -297)" d="M 718 257 C 703.65 186.28 642.15 133 567.33 133 C 507.88000000000005 133 456.63000000000005 166.82 431 216 C 369.5 222.15 321.33 274.42 321.33 338 C 321.33 405.64 376.66999999999996 461 444.33 461 L 710.8299999999999 461 C 767.1999999999999 461 813.3299999999999 414.87 813.3299999999999 358.5 C 813.5547814625367 304.7173782147595 771.6911078082584 260.1441811528771 718 257 Z M 600.12 317.45 L 600.12 395.35 L 534.52 395.35 L 534.52 317.45000000000005 L 464.82 317.45000000000005 L 567.32 215 L 669.82 317.5 Z" stroke-linecap="round" />
</g>
<g transform="matrix(1.07 0 0 1.07 350.33 255.05)" id="6JK1NQMEz3Hfn9IYRHsZt"  >
<path style="stroke: none; stroke-width: 1; stroke-dasharray: none; stroke-linecap: butt; stroke-dashoffset: 0; stroke-linejoin: miter; stroke-miterlimit: 4; fill: rgb(70,69,91); fill-rule: nonzero; opacity: 1;" vector-effect="non-scaling-stroke"  transform=" translate(-458.58, -308.23)" d="M 454.34 298.47 C 453.3504527508305 300.3386486521195 451.6940537185497 301.76657885236165 449.7 302.47 C 449.12592409551064 302.62760440940485 448.59114692435776 302.90350855503146 448.13 303.28000000000003 C 447.5114349103072 304.03405389086186 447.4013254912016 305.08402585161855 447.85 305.95000000000005 C 448.3085296946014 306.78900767183 448.90329767877444 307.54598510623197 449.61 308.19000000000005 C 453.55905747792303 312.37521981832765 456.1703252862283 317.6430174102822 457.11 323.32000000000005 C 457.2011410016433 324.7749048525445 457.6290571411184 326.1887397773703 458.36 327.45000000000005 C 460.03000000000003 329.74000000000007 463.6 329.59000000000003 466.12 328.28000000000003 C 466.8889786574706 327.9290625572265 467.5564368453309 327.3889030959169 468.06 326.71000000000004 C 468.4810096591289 325.97519178567705 468.7465023417474 325.1616949761153 468.84 324.32000000000005 C 469.2982461948964 322.23315321338384 469.5494632032912 320.1061825423077 469.59 317.97 C 469.59 313.97 468.03 310.08000000000004 467.31 306.12 C 466.31 300.49 466.79 294.42 464.17 289.34000000000003 C 463.923433381717 288.73201384788257 463.5196381632451 288.20052270562036 463 287.8 C 462.3416018685471 287.4537437323494 461.6032128959618 287.2881237758817 460.86 287.32 C 458.5 287.23 456.12 287.21 453.75 287.26 C 453.09 287.26 452.31 287.36 451.97 287.93 C 451.7279080510516 288.5762704858498 451.8255174833256 289.3008328100372 452.23 289.86 C 453.68 292.73 456.06 295 454.34 298.47 Z" stroke-linecap="round" />
</g>
<g transform="matrix(1.07 0 0 1.07 457.4 449.38)" id="DuT1o3TE4xjpHoit2yVHi"  >
<linearGradient id="SVGID_9" gradientUnits="userSpaceOnUse" gradientTransform="matrix(0.99 -0.1 0.1 0.99 -58.47 81.57)"  x1="517.81" y1="472.14" x2="647.31" y2="472.14">
<stop offset="0%" style="stop-color:rgb(128,128,128);stop-opacity: 0.25"/>
<stop offset="54%" style="stop-color:rgb(128,128,128);stop-opacity: 0.12"/>
<stop offset="100%" style="stop-color:rgb(128,128,128);stop-opacity: 0.1"/>
</linearGradient>
<path style="stroke: none; stroke-width: 1; stroke-dasharray: none; stroke-linecap: butt; stroke-dashoffset: 0; stroke-linejoin: miter; stroke-miterlimit: 4; fill: url(#SVGID_9); fill-rule: nonzero; opacity: 1;" vector-effect="non-scaling-stroke"  transform=" translate(-558.91, -490.34)" d="M 612.69 305.71 C 610.1790531464193 303.63456175273967 606.601530589199 303.4595521168347 603.9000000000001 305.28 C 601.9000000000001 306.76 601.0300000000001 309.21999999999997 600.21 311.53999999999996 C 599.01 314.96999999999997 597.07 318.29999999999995 596.75 321.92999999999995 C 595.86 331.92999999999995 588.85 340.34 586.75 350.13999999999993 C 585.98 353.63999999999993 585.83 357.31999999999994 584.38 360.5899999999999 C 583.6857173700628 362.02544448686734 582.8834097561686 363.4060821724437 581.98 364.7199999999999 C 578.4636398133662 370.24850186785847 575.4515119175328 376.08198955945585 572.98 382.15 C 571.24 382.6799999999999 569.8100000000001 384.3499999999999 568.4200000000001 385.6799999999999 C 566.6370772591282 387.3851656165233 564.5043840376054 388.6818430952092 562.1700000000001 389.4799999999999 C 561.218445338751 389.6927376032521 560.3308564964249 390.1279645645472 559.58 390.7499999999999 C 558.58 391.8099999999999 558.58 393.51999999999987 557.75 394.7499999999999 C 557.1598930593315 395.5556651206291 556.3755621515274 396.19895406694195 555.47 396.6199999999999 C 555.4087472319978 396.3358990664335 555.3620199049542 396.0488597717369 555.33 395.7599999999999 C 555.12 394.2299999999999 554.95 392.6999999999999 554.7900000000001 391.1699999999999 C 559.5997505789752 384.15161173346456 558.5995165332715 374.6790562582622 552.4300000000001 368.8199999999999 C 552.244899497709 366.43266317413014 552.3152987314122 364.03238453929356 552.6400000000001 361.65999999999985 C 552.9408129824858 360.49602250538703 552.5528563665222 359.2623204666228 551.6400000000001 358.47999999999985 C 551.1500000000001 358.16999999999985 550.5500000000001 358.09999999999985 550.0300000000001 357.83999999999986 C 549.2759827193508 357.3343499799563 548.6356888093189 356.6770269765725 548.1500000000001 355.90999999999985 C 545.2484190285123 352.62239131947547 540.399844059532 351.9043967683198 536.6700000000001 354.20999999999987 C 533.8700000000001 356.07999999999987 532.3900000000001 359.39999999999986 530.0000000000001 361.78999999999985 C 528.7600000000001 363.01999999999987 527.2900000000001 363.98999999999984 526.0600000000001 365.21999999999986 C 523.6001351296904 367.8572793449608 522.0024879404795 371.18164129107015 521.48 374.74999999999983 C 520.9666535661444 378.2988774319626 520.8225502027481 381.89140779384155 521.0500000000001 385.46999999999986 C 521.0251229789611 386.5547769769796 521.1805709998456 387.6361545135667 521.5100000000001 388.66999999999985 C 521.8665128046015 389.517975318362 522.3597295486408 390.3017169938216 522.9700000000001 390.98999999999984 C 525.9000867954254 394.81197368700475 529.7734276102024 397.8065761496748 534.2100000000002 399.67999999999984 C 534.2407823617397 399.8919950108883 534.2574856072976 400.10579655403035 534.2600000000001 400.3199999999998 C 534.2600000000001 400.6499999999998 534.2600000000001 400.97999999999985 534.1800000000001 401.3199999999998 L 533.69 401.23999999999984 C 531.8900000000001 401.0199999999998 529.99 401.23999999999984 528.32 400.54999999999984 C 525.47 399.3199999999998 524.32 395.6999999999998 521.5100000000001 394.27999999999986 C 521.2767240503629 394.1570910740354 521.0322909418314 394.0566391116252 520.7800000000001 393.97999999999985 C 520.1136501119744 389.31932610812953 518.7412427375225 384.78734696497645 516.71 380.53999999999985 C 515.71 378.53999999999985 514.58 376.45999999999987 514.46 374.1999999999999 C 514.5220757837515 372.098819530626 514.9942619635721 370.03003259889425 515.85 368.1099999999999 C 518.1104349040049 361.2410216880288 519.894664295092 354.22438925116995 521.19 347.1099999999999 Q 522.5500000000001 340.4199999999999 523.9300000000001 333.7299999999999 C 525.1714411935976 332.6010555437079 526.2666279049489 331.32109806817147 527.19 329.9199999999999 C 529.1170409472733 327.13315550515756 530.2444488684649 323.871972469318 530.45 320.4899999999999 C 530.6302042930022 317.08357025408395 529.4421771342727 313.74629396274366 527.1500000000001 311.2199999999999 C 526.1366905035464 309.98653450746565 524.6359075467041 309.2562264992698 523.0400000000001 309.2199999999999 C 521.6660157425954 309.3820296202261 520.4205822209175 310.1061188770156 519.6 311.2199999999999 C 518.3784976094788 312.92988803005346 517.4959205556714 314.8579794399095 517 316.9 C 516 320.21999999999997 515 323.67999999999995 515.45 327.12 C 515.86 329.97 517.25 333.06 515.83 335.56 C 511.15000000000003 343.75 507.92 352.96 504.45000000000005 361.74 C 503.55504056253307 363.8465401539323 502.82615281262406 366.019829316505 502.27000000000004 368.24 C 501.57525174742887 371.81804897559635 501.45373527486066 375.48379589807075 501.91 379.1 C 502.73326547783233 385.88123161734956 504.0399246366668 392.5949867326908 505.82000000000005 399.19000000000005 C 506.55000000000007 402.19 507.41 405.36 509.13000000000005 407.83 C 508.5196822348206 411.1806411978019 508.37163699621874 414.5991403436998 508.69000000000005 417.99 C 508.7307227502914 418.77366392044246 508.93510947866315 419.5401141518364 509.2900000000001 420.24 C 509.8636552312797 421.0454340346425 510.5585522690259 421.7571975053437 511.3500000000001 422.35 C 513.5203500792518 424.3689628027012 514.7125052808505 427.2272186988889 514.6200000000001 430.19 C 514.6682761656875 432.9283002382847 515.1997717245869 435.63655786324904 516.1900000000002 438.19 C 518.5800000000002 445.32 520.9800000000001 452.45 523.0700000000002 459.68 C 523.5230810317831 461.0184745627217 523.7725308879884 462.41741632387334 523.8100000000002 463.83 C 523.8100000000002 465.83 522.8600000000001 467.83 523.3000000000002 469.83 C 523.635500556143 470.7337804377136 523.9094596803991 471.65922772331004 524.1200000000002 472.59999999999997 C 524.1360350401117 473.326708275171 524.0416255587393 474.0516382214234 523.8400000000003 474.74999999999994 C 522.5400000000003 480.3999999999999 518.7800000000003 493.42999999999995 519.4300000000003 499.19999999999993 L 520.7200000000003 498.74999999999994 C 520.1700000000003 506.38999999999993 517.8100000000003 513.8699999999999 516.9500000000003 521.51 C 516.3849155641354 527.0725444651972 516.4452927075412 532.6809102304427 517.1300000000002 538.23 C 517.5027902455671 540.7104698532573 517.716559875448 543.2122425529576 517.7700000000002 545.72 C 517.7700000000002 547.97 517.4100000000002 550.19 517.3200000000002 552.4300000000001 C 517.274937267267 555.4389551187835 517.4520854215081 558.4471313228777 517.8500000000001 561.4300000000001 C 518.2415808832802 566.1096612575701 518.987046423521 570.7529421337788 520.0800000000002 575.32 C 522.1600000000002 583.08 520.7600000000001 591.1600000000001 520.9900000000001 599.2 C 521.2584596004644 604.8085743469117 521.2016977969027 610.4279928995265 520.8200000000002 616.0300000000001 C 520.6100000000001 618.4000000000001 520.2800000000002 620.7600000000001 520.2100000000002 623.1400000000001 C 520.0000000000001 630.2 522.0900000000001 637.2300000000001 521.3500000000001 644.2500000000001 C 521.0000000000001 647.5400000000001 520.1600000000001 651.2500000000001 522.2300000000001 653.8400000000001 C 522.8900000000001 654.6500000000001 523.7800000000001 655.2300000000001 524.4800000000001 656.0000000000001 C 525.2546583677907 656.7286400538338 525.5856575497037 657.8129477187209 525.3500000000001 658.8500000000001 C 525.0800000000002 659.6400000000001 524.3500000000001 660.2200000000001 524.1800000000002 661.0500000000002 C 523.9900000000001 662.3500000000001 525.4200000000002 663.2500000000002 526.6600000000002 663.6700000000002 L 527.0100000000002 663.7700000000002 C 526.9574857830535 664.6474476467869 527.2811608931444 665.5057322083763 527.9000000000002 666.1300000000002 C 528.6754456909446 666.7223948743367 529.5993879485585 667.0892034110673 530.5700000000002 667.1900000000002 L 546.5700000000002 670.2900000000002 C 550.1400000000002 670.9800000000002 554.0200000000002 671.6300000000002 557.3700000000001 670.4200000000002 C 557.4992202098347 670.9039273138711 557.7586188174525 671.3431756227708 558.1200000000001 671.6900000000002 C 558.892617184 672.2806967634124 559.812872150039 672.6474149077737 560.7800000000001 672.7500000000001 L 576.7800000000001 675.8500000000001 C 580.8600000000001 676.6400000000001 585.34 677.3700000000001 588.9800000000001 675.3500000000001 C 590.0294086102521 674.7896512313291 590.9150586595074 673.966031146613 591.5500000000002 672.9600000000002 C 592.5841124037637 671.0306341180109 592.7122332849012 668.7427612405546 591.9000000000002 666.7100000000002 C 591.5934676949428 665.6811193242081 590.9706716937036 664.7749161538657 590.1200000000002 664.1200000000001 C 588.9845941272665 663.4961449272816 587.6914912050718 663.2180582773473 586.4000000000002 663.3200000000002 C 585.3035150783187 663.399874745508 584.2030923773714 663.232419117103 583.1800000000002 662.8300000000002 C 582.8662258841211 662.6654342897994 582.5929660519583 662.4331634324609 582.3800000000002 662.1500000000002 C 583.1800000000002 661.1500000000002 583.9500000000003 660.1500000000002 584.6800000000002 659.1500000000002 C 583.9900000000001 658.9900000000002 583.6800000000002 658.0400000000002 583.5100000000002 657.3400000000003 C 581.4500000000003 646.9600000000003 584.3400000000003 636.3400000000003 584.7600000000002 625.7400000000002 C 584.9727734367693 620.4328893723626 584.556543849603 615.1192487555531 583.5200000000002 609.9100000000002 C 583.1300000000002 607.9100000000002 582.6600000000002 606.0100000000002 582.3800000000002 604.0300000000002 C 580.9100000000002 593.7000000000002 584.8400000000003 583.2100000000002 583.5900000000003 572.8500000000003 C 583.0000000000002 568.0100000000002 585.0800000000003 562.9500000000003 585.8200000000003 558.1300000000002 C 586.4700000000003 553.8500000000003 586.0500000000003 549.4900000000002 585.6300000000002 545.1300000000002 L 582.3200000000003 511.1300000000002 C 581.8700000000002 506.54000000000025 581.4000000000003 501.8400000000002 579.4400000000003 497.6600000000002 C 578.4611866820761 495.32292816237566 577.997331144949 492.80241903048625 578.0800000000003 490.2700000000002 C 582.0800000000003 487.9800000000002 585.7600000000002 484.8300000000002 590.2800000000003 484.8200000000002 C 591.1500000000003 481.5200000000002 588.6500000000003 471.11000000000024 587.1900000000003 468.0300000000002 C 581.4951599532043 455.8874645302359 579.2433207378008 442.4144787483669 580.6800000000003 429.08000000000027 C 581.2100000000003 424.2900000000002 579.3000000000003 419.4600000000002 579.9400000000003 414.68000000000023 C 580.0357685029218 413.5604945107453 580.34822945593 412.47027748992286 580.8600000000002 411.47000000000025 C 581.3843599278862 410.46278802152267 582.3884229062243 409.7946709269143 583.5200000000002 409.7000000000003 C 583.2400000000002 406.83000000000027 582.8700000000002 403.9400000000003 582.3800000000002 401.0700000000003 C 584.0258332225806 399.3907810640586 585.3779711247281 397.4470828297215 586.3800000000002 395.3200000000003 C 588.4600000000003 390.97000000000025 589.3800000000002 386.1700000000003 590.5900000000003 381.5100000000003 C 592.7900000000003 373.3000000000003 596.1500000000002 365.46000000000026 598.8100000000003 357.40000000000026 C 601.4700000000004 349.34000000000026 600.9500000000003 340.8200000000003 602.8600000000002 332.54000000000025 C 603.9384612245669 327.97842922755626 606.7316252091744 324.00712299815916 610.6600000000002 321.4500000000003 C 612.1800000000002 320.4500000000003 613.9100000000002 319.6800000000003 614.9600000000002 318.2000000000003 C 615.7514010033007 316.9833701978704 616.1686183773127 315.56135431477946 616.1600000000002 314.1100000000003 C 616.3422623535654 310.9277770487803 615.0649946799471 307.8358322480905 612.69 305.71 Z M 551.57 655.59 C 551.87 655.1800000000001 552.1600000000001 654.77 552.4300000000001 654.34 C 551.3700000000001 654.2800000000001 550.0300000000001 653.6600000000001 549.9000000000001 652.6 C 549.8679725512009 651.538766174369 549.9857999418867 650.4783196581963 550.2500000000001 649.45 C 550.5512907443783 647.6116550139852 550.4385510500009 645.7292437533206 549.9200000000001 643.94 C 549.5500000000001 642.7 549.0000000000001 641.5100000000001 548.6 640.2700000000001 C 548.2087161177119 638.885864918081 547.8981927453981 637.4801623401871 547.6700000000001 636.0600000000001 C 546.689727099993 630.9806928634376 545.1642305493116 626.0219908888049 543.1200000000001 621.2700000000001 C 541.1200000000001 616.6600000000001 542.6700000000001 611.6300000000001 542.6900000000002 606.6000000000001 C 542.6900000000002 604.2300000000001 542.3300000000002 601.8100000000002 542.9300000000002 599.5100000000001 C 543.2800000000002 598.1500000000001 543.9300000000002 596.8900000000001 544.3000000000002 595.5100000000001 C 545.1200000000002 592.3400000000001 544.0900000000001 589.0100000000001 543.0800000000002 585.9000000000001 C 547.0300000000002 576.5600000000001 547.5600000000002 565.9000000000001 548.3700000000001 555.7400000000001 Q 549.0500000000001 547.2200000000001 549.7300000000001 538.7400000000001 C 549.9300000000002 536.2100000000002 550.1600000000001 533.5800000000002 551.4900000000001 531.4200000000001 C 553.852132183776 538.6425020895762 555.2607146524691 546.1426154252663 555.6800000000002 553.73 C 555.7215126188036 555.9228222734806 555.9760423895901 558.1064197807557 556.4400000000002 560.25 C 557.0700000000002 562.62 558.3000000000002 564.77 559.1200000000001 567.07 C 560.9400000000002 572.13 560.7500000000001 577.6600000000001 561.5700000000002 582.97 C 561.9000000000002 585.12 562.4000000000002 587.24 562.7200000000001 589.39 C 564.1000000000001 598.88 561.8700000000001 608.49 559.6500000000001 617.8199999999999 C 558.2900000000001 623.54 558.5100000000001 629.8699999999999 558.2 635.7399999999999 C 557.9100000000001 641.3699999999999 557.61 646.9999999999999 557.75 652.6399999999999 C 557.75 654.3599999999999 557.86 656.1199999999999 557.84 657.8699999999999 C 557.2958286064577 657.8048662786889 556.7480309398061 657.7748042116166 556.2 657.7799999999999 C 555.1035150783185 657.8598747455077 554.0030923773712 657.6924191171026 552.98 657.2899999999998 C 552.3465918421824 656.8815564646229 551.8542925505958 656.2880041272492 551.57 655.59 Z" stroke-linecap="round" />
</g>
<g transform="matrix(1.07 0 0 1.07 474.42 639.19)" id="arxLERWE8upYRsZVYQgpC"  >
<path style="stroke: none; stroke-width: 1; stroke-dasharray: none; stroke-linecap: butt; stroke-dashoffset: 0; stroke-linejoin: miter; stroke-miterlimit: 4; fill: rgb(63,61,86); fill-rule: nonzero; opacity: 1;" vector-effect="non-scaling-stroke"  transform=" translate(-574.86, -668.23)" d="M 586.45 663.39 C 587.7401245903945 663.2907945988375 589.0315382050837 663.5650464148601 590.1700000000001 664.18 C 591.0155352961854 664.8355406388831 591.6373440124055 665.7368139466628 591.95 666.76 C 592.7578292743358 668.780802037568 592.6259289578105 671.0560824976288 591.59 672.97 C 590.9541595995271 673.9701753919534 590.0683027790803 674.7870939384354 589.02 675.34 C 585.38 677.34 580.9 676.63 576.8199999999999 675.85 L 560.8199999999999 672.78 C 559.855592510949 672.6958041058699 558.9324383538116 672.3500534852191 558.15 671.78 C 557.1535043970929 670.6846219195442 556.9645537432991 669.0765312489598 557.68 667.78 C 558.3775958834503 666.517487264646 559.417487264646 665.4775958834504 560.68 664.78 C 565.28 661.92 570.68 660.78 575.9599999999999 660.17 C 577.9599999999999 659.93 579.8299999999999 659.29 581.3299999999999 660.68 C 582.1299999999999 661.41 582.0899999999999 662.3199999999999 583.2099999999999 662.91 C 584.2412768556779 663.3073955409997 585.3478015638196 663.471325127391 586.45 663.39 Z" stroke-linecap="round" />
</g>
<g transform="matrix(1.07 0 0 1.07 442.15 633.32)" id="It1P2EsCLy6DMjdPb-pnT"  >
<path style="stroke: none; stroke-width: 1; stroke-dasharray: none; stroke-linecap: butt; stroke-dashoffset: 0; stroke-linejoin: miter; stroke-miterlimit: 4; fill: rgb(63,61,86); fill-rule: nonzero; opacity: 1;" vector-effect="non-scaling-stroke"  transform=" translate(-544.62, -662.72)" d="M 556.22 657.89 C 557.5069466458642 657.7904599626605 558.7952510296092 658.0647889284714 559.9300000000001 658.68 C 560.7814580090342 659.3299170154509 561.404703987053 660.2332735453883 561.71 661.26 C 562.5265635350479 663.2783996423804 562.3981887277332 665.5561355093062 561.36 667.47 C 560.7213351826213 668.4678116345258 559.836175081333 669.284087681239 558.79 669.84 C 555.15 671.84 550.67 671.13 546.5799999999999 670.35 L 530.5799999999999 667.27 C 529.6154795194795 667.1863033151659 528.692195607041 666.840504097024 527.91 666.27 C 526.910218155661 665.1768977905338 526.717223525721 663.5686092077003 527.43 662.27 C 528.1493107382026 661.0069084642114 529.2051923724497 659.9683363649519 530.4799999999999 659.27 C 535.0699999999999 656.42 540.4799999999999 655.3199999999999 545.7599999999999 654.67 C 547.7599999999999 654.42 549.6299999999999 653.79 551.1299999999999 655.17 C 551.9199999999998 655.9 551.8899999999999 656.81 552.9999999999999 657.4 C 554.0236216762145 657.8004486454118 555.123595874189 657.9678360233645 556.22 657.89 Z" stroke-linecap="round" />
</g>
<g transform="matrix(1.07 0 0 1.07 449.46 541.48)" id="EojmTq6DDwYZ6wZa5aFpu"  >
<path style="stroke: none; stroke-width: 1; stroke-dasharray: none; stroke-linecap: butt; stroke-dashoffset: 0; stroke-linejoin: miter; stroke-miterlimit: 4; fill: rgb(70,69,91); fill-rule: nonzero; opacity: 1;" vector-effect="non-scaling-stroke"  transform=" translate(-551.47, -576.66)" d="M 552.28 487.89 C 543.0312329731963 487.9277305123756 533.7972476967619 488.63289551177036 524.65 490 C 524.0453354047421 490.05603078935206 523.4540600059489 490.21145175132057 522.9 490.46 C 520.9599999999999 491.46 520.9 494.18 520.9499999999999 496.35999999999996 C 521.0799999999999 505.22999999999996 518.05 513.8199999999999 517.05 522.62 C 516.4765056574614 528.1451942018639 516.5335391425436 533.7177011854932 517.2199999999999 539.23 C 517.582904534979 541.6982095855558 517.7966258224477 544.1860589474975 517.8599999999999 546.6800000000001 C 517.8599999999999 548.9000000000001 517.4899999999999 551.11 517.3999999999999 553.34 C 517.3535621395885 556.3154319787913 517.527370062035 559.2902214206645 517.9199999999998 562.24 C 518.3116997236709 566.8899688381792 519.0571915404141 571.503326269146 520.1499999999999 576.04 C 522.2199999999999 583.75 520.8199999999998 591.78 521.0399999999998 599.76 C 521.3068485467388 605.3321961597737 521.2434041086532 610.9153067113102 520.8499999999998 616.48 C 520.6399999999998 618.84 520.3099999999998 621.1800000000001 520.2399999999998 623.5500000000001 C 520.0299999999997 630.5500000000001 522.1099999999998 637.5500000000001 521.3699999999998 644.5500000000001 C 521.0199999999998 647.8100000000001 520.1699999999997 651.5500000000001 522.2399999999998 654.07 C 522.8999999999997 654.87 523.7899999999997 655.45 524.4799999999998 656.22 C 525.2478883478403 656.940434281996 525.5818732103859 658.0107039551533 525.3599999999998 659.0400000000001 C 525.0799999999998 659.83 524.3099999999998 660.4100000000001 524.1899999999998 661.2300000000001 C 523.9899999999998 662.5200000000001 525.4199999999998 663.4200000000002 526.6599999999999 663.8300000000002 C 536.3612989189944 666.8066746996544 546.8637128400301 663.031669773404 552.4499999999998 654.5600000000002 C 551.3899999999999 654.5000000000002 550.0499999999998 653.8800000000002 549.9199999999998 652.8300000000002 C 549.8879831140414 651.7753617889452 550.0058251021293 650.7215177240455 550.2699999999999 649.7000000000002 C 550.5765717011757 647.875251949305 550.4637204699354 646.004657298142 549.9399999999998 644.2300000000001 C 549.5799999999998 642.9900000000001 549.0199999999999 641.8100000000002 548.6299999999999 640.5800000000002 C 548.2398014502237 639.2057288605412 547.9292846187637 637.8100725643017 547.6999999999999 636.4000000000002 C 546.7261392520738 631.3493814138533 545.2037868843182 626.420178813411 543.16 621.7000000000002 C 541.16 617.1200000000001 542.7199999999999 612.1200000000001 542.74 607.1400000000002 C 542.74 604.7800000000002 542.39 602.3700000000002 542.98 600.0900000000003 C 543.33 598.7300000000002 543.98 597.4800000000002 544.36 596.0900000000003 C 545.1800000000001 592.9400000000003 544.15 589.6400000000002 543.14 586.5500000000003 C 547.14 577.2700000000003 547.64 566.6300000000003 548.4499999999999 556.5500000000003 L 549.8199999999999 539.5500000000003 C 550.02 537.0400000000003 550.26 534.4200000000003 551.5799999999999 532.2800000000003 C 553.9418878612373 539.4510945807842 555.3506280772199 546.9016156276037 555.77 554.4400000000003 C 555.8031909686227 556.6229152650742 556.0544392537507 558.7970504257153 556.52 560.9300000000003 C 557.15 563.2700000000003 558.37 565.4100000000003 559.1999999999999 567.7000000000003 C 561.0099999999999 572.7000000000003 560.8199999999999 578.2100000000003 561.64 583.4900000000002 C 561.97 585.6300000000002 562.46 587.7300000000002 562.78 589.8700000000002 C 564.16 599.3000000000002 561.92 608.8700000000002 559.6899999999999 618.1200000000002 C 558.3299999999999 623.8000000000002 558.54 630.1200000000002 558.2299999999999 635.9300000000002 C 557.93 641.5200000000002 557.6299999999999 647.1100000000001 557.7699999999999 652.7100000000002 C 557.8899999999999 657.8600000000001 558.2899999999998 663.3900000000001 555.5199999999999 667.7100000000002 C 558.6199999999999 669.2900000000002 561.8199999999998 670.9000000000002 565.2799999999999 671.2000000000002 C 569.3056217069042 671.413697574632 573.278951338719 670.2107304554717 576.5099999999999 667.8000000000002 C 579.7078886166566 665.393962832137 582.4883229871865 662.4783919186897 584.7399999999999 659.1700000000002 C 584.0399999999998 659.0100000000002 583.7399999999999 658.0600000000002 583.5699999999999 657.3700000000002 C 581.51 647.0600000000003 584.41 636.4700000000003 584.8399999999999 625.9700000000003 C 585.0519600288638 620.6998182834043 584.6390852361225 615.423077029832 583.6099999999999 610.2500000000002 C 583.2199999999999 608.2500000000002 582.7399999999999 606.3600000000002 582.4599999999999 604.4000000000002 C 581.0099999999999 594.1400000000002 584.9399999999999 583.7100000000002 583.6999999999999 573.4000000000002 C 583.1199999999999 568.5800000000002 585.1999999999999 563.5600000000002 585.9399999999999 558.7600000000002 C 586.5899999999999 554.5100000000002 586.18 550.1800000000002 585.76 545.9000000000002 L 582.47 512.1500000000002 C 582.03 507.5800000000002 581.5600000000001 502.9100000000002 579.6 498.7600000000002 C 577.26 493.7600000000002 578.71 487.6000000000002 578.46 482.0900000000002 C 570.1996707505838 485.726180993294 561.3031732903671 487.6971391777575 552.28 487.89 Z" stroke-linecap="round" />
</g>
<g transform="matrix(1.07 0 0 1.07 494.71 306.56)" id="3A6NCF2aJEqBWCC-GygRf"  >
<path style="stroke: none; stroke-width: 1; stroke-dasharray: none; stroke-linecap: butt; stroke-dashoffset: 0; stroke-linejoin: miter; stroke-miterlimit: 4; fill: rgb(160,97,106); fill-rule: nonzero; opacity: 1;" vector-effect="non-scaling-stroke"  transform=" translate(-593.88, -356.51)" d="M 571.6 387.94 C 574.3216954372438 380.50666141611623 577.8564805993014 373.3968468586568 582.14 366.74 C 583.0432495327758 365.43295940708106 583.8455728743343 364.0589806846621 584.54 362.63 C 586 359.39 586.15 355.73 586.92 352.25 C 589.0699999999999 342.51 596.0899999999999 334.15 596.99 324.25 C 597.3100000000001 320.64 599.25 317.33 600.46 313.92 C 601.27 311.61 602.19 309.17 604.1500000000001 307.7 C 606.8517882722822 305.8983300359406 610.4125242118166 306.0686613679001 612.9300000000001 308.12 C 615.3549782427912 310.22004871079594 616.6666938049029 313.32752135230584 616.48 316.53000000000003 C 616.4839258332555 317.971318089002 616.0668543219218 319.382410035681 615.28 320.59000000000003 C 614.22 322.06000000000006 612.5 322.85 610.98 323.82000000000005 C 607.0600606201051 326.3470370065353 604.2633412743768 330.28607833854693 603.1700000000001 334.82000000000005 C 601.2500000000001 343.05000000000007 601.7700000000001 351.50000000000006 599.1 359.51000000000005 C 596.43 367.52000000000004 593.1 375.32000000000005 590.87 383.51000000000005 C 589.62 388.14000000000004 588.73 392.91 586.64 397.2300000000001 C 584.55 401.5500000000001 581 405.4500000000001 576.33 406.56000000000006 C 576.0356255374812 403.5864856149989 575.265832643072 400.67950455321716 574.0500000000001 397.95000000000005 C 572.65 394.79 570.42 391.15 571.6 387.94 Z" stroke-linecap="round" />
</g>
<g transform="matrix(1.07 0 0 1.07 411.86 312.31)" id="8t6QuFSjuFbgvkF68owmy"  >
<path style="stroke: none; stroke-width: 1; stroke-dasharray: none; stroke-linecap: butt; stroke-dashoffset: 0; stroke-linejoin: miter; stroke-miterlimit: 4; fill: rgb(160,97,106); fill-rule: nonzero; opacity: 1;" vector-effect="non-scaling-stroke"  transform=" translate(-516.24, -361.89)" d="M 521.29 399.35 C 520.9038520378585 393.50703605819183 519.3964197029053 387.79305268043015 516.8499999999999 382.52 C 515.8499999999999 380.52000000000004 514.7299999999999 378.52000000000004 514.6099999999999 376.23 C 514.6710787273868 374.14156181831487 515.1434238874214 372.0856710138478 515.9999999999999 370.18 C 518.2641288984336 363.3419286229241 520.0517429436153 356.3551978407279 521.3499999999999 349.27000000000004 L 524.1099999999999 335.96999999999997 C 525.3450284162676 334.84880626056287 526.4366476142997 333.579169162544 527.3599999999999 332.19 C 529.2903996232236 329.42653604030005 530.4218262986767 326.1844969121668 530.6299999999999 322.82 C 530.8162780450693 319.42951392253883 529.6305753218566 316.106663129827 527.3399999999999 313.59999999999997 C 526.3145559237923 312.3899982477427 524.8159156793226 311.68261088174 523.2299999999999 311.65999999999997 C 521.8560157425952 311.82202962022615 520.6105822209173 312.54611887701566 519.7899999999998 313.65999999999997 C 518.5883124143668 315.3456168021772 517.7225425344418 317.24691536201254 517.2399999999999 319.26 C 516.2399999999999 322.56 515.2399999999999 325.99 515.68 329.40999999999997 C 516.0799999999999 332.23999999999995 517.4799999999999 335.30999999999995 516.05 337.78999999999996 C 511.35999999999996 345.93999999999994 508.12999999999994 355.08 504.65 363.78999999999996 C 503.75991855148595 365.88368054341345 503.03438780253134 368.04355549191433 502.47999999999996 370.25 C 501.7783661281145 373.80671898796425 501.6500793819002 377.4527633540547 502.09999999999997 381.04999999999995 C 502.91856042387786 387.8015879455837 504.2219266057968 394.48551708362953 505.9999999999999 401.0499999999999 C 506.99999999999994 405.16999999999996 508.24999999999994 409.65 511.7099999999999 412.11999999999995 C 514.56 407.56 517.44 403.09 521.29 399.35 Z" stroke-linecap="round" />
</g>
<g transform="matrix(1.07 0 0 1.07 438.07 335.19)" id="9GpSiu8H2OCHvDjzLuL4g"  >
<path style="stroke: none; stroke-width: 1; stroke-dasharray: none; stroke-linecap: butt; stroke-dashoffset: 0; stroke-linejoin: miter; stroke-miterlimit: 4; fill: rgb(160,97,106); fill-rule: nonzero; opacity: 1;" vector-effect="non-scaling-stroke"  transform=" translate(-17.17, -17.17)" d="M 0 17.17 C 0 7.687270000000002 7.68727 0 17.17 0 C 26.652730000000002 0 34.34 7.68727 34.34 17.17 C 34.34 26.652730000000002 26.652730000000005 34.34 17.17 34.34 C 7.687270000000002 34.34 0 26.652730000000005 0 17.17 z" stroke-linecap="round" />
</g>
<g transform="matrix(1.07 0 0 1.07 444.62 357.86)" id="AGWQUue2fv1ovHnJ8J4CH"  >
<path style="stroke: none; stroke-width: 1; stroke-dasharray: none; stroke-linecap: butt; stroke-dashoffset: 0; stroke-linejoin: miter; stroke-miterlimit: 4; fill: rgb(160,97,106); fill-rule: nonzero; opacity: 1;" vector-effect="non-scaling-stroke"  transform=" translate(-546.94, -404.59)" d="M 534.39 402.16 C 534.29 405.29 532.93 408.22 531.59 411.06 C 530.7800000000001 412.77 529.72 414.68 527.87 415.06 C 533.0769722024523 417.14275011216955 538.4810942687556 418.6939643196701 544 419.69 C 545.8891299460043 420.11356822803623 547.8348559199334 420.2250421119593 549.76 420.02 C 551.378849152718 419.7305350375927 552.9331517530042 419.15486740785707 554.35 418.32 C 560.6469842455589 414.74914113053285 564.950836875138 408.4796043093808 566.02 401.32 C 563.9015486589759 401.5967070784573 561.7601673369895 401.6536765345978 559.63 401.49 C 558.424834717851 401.52291505769125 557.2534572129936 401.0894695589519 556.36 400.28000000000003 C 555.7966288396785 399.496487802831 555.4766350730972 398.56433204800726 555.44 397.6 Q 554.87 393.34000000000003 554.5300000000001 389.06 C 550.3070251408323 389.22352298087867 546.1520454133994 390.176624453049 542.2800000000001 391.87 C 540.6800000000001 392.57 539.1200000000001 393.38 537.4700000000001 393.98 C 536.4700000000001 394.34000000000003 533.5800000000002 394.41 532.8800000000001 395.06 C 531.8 396.09 534.45 400 534.39 402.16 Z" stroke-linecap="round" />
</g>
<g transform="matrix(1.07 0 0 1.07 447.54 397.93)" id="4ENWdLa1VeTJYcExncUpp"  >
<path style="stroke: none; stroke-width: 1; stroke-dasharray: none; stroke-linecap: butt; stroke-dashoffset: 0; stroke-linejoin: miter; stroke-miterlimit: 4; fill: rgb(47,46,65); fill-rule: nonzero; opacity: 1;" vector-effect="non-scaling-stroke"  transform=" translate(-549.67, -442.13)" d="M 543 411.76 C 542.1366592909766 407.20053776855394 538.4572082730967 403.70224134127 533.86 403.07 C 532.0600000000001 402.86 530.16 403.07 528.49 402.4 C 525.64 401.16999999999996 524.44 397.58 521.6800000000001 396.16999999999996 C 518.9200000000001 394.75999999999993 515.34 396.06999999999994 513.3000000000001 398.42999999999995 C 511.2600000000001 400.78999999999996 510.4 404 509.78 407 C 508.8184929860015 411.1602805041359 508.50480097855376 415.44403157358346 508.84999999999997 419.7 C 508.8975139834743 420.4806070449693 509.10515339958397 421.24308621232285 509.46 421.94 C 510.0329935687363 422.7398174591109 510.72421977852747 423.4479028447507 511.51 424.04 C 513.6786697918161 426.03500401877227 514.8722272540672 428.87472177299657 514.78 431.82 C 514.8152617364104 434.5587209457167 515.3437038992836 437.2686807553229 516.3399999999999 439.82 C 518.7299999999999 446.9 521.1299999999999 453.99 523.2099999999999 461.17 C 523.6639740787623 462.4979113863367 523.9134898372153 463.8871072306964 523.9499999999999 465.29 C 523.9 467.29 522.9499999999999 469.29 523.4399999999999 471.24 C 523.7663109284996 472.13913211496134 524.0368250340005 473.0575442015386 524.2499999999999 473.99 C 524.2665789140256 474.7134508720529 524.1721486760155 475.43516769113006 523.9699999999999 476.13 C 522.66 481.75 518.8999999999999 494.69 519.55 500.42 C 528.0799999999999 497.28000000000003 540.9499999999999 495.42 549.99 494.42 C 552.4764881838394 494.1335456529337 554.9770746363769 493.9866487184722 557.48 493.98 C 563.48 493.98 569.77 495.11 575.37 492.91 C 580.5600000000001 490.91 584.87 486.09000000000003 590.45 486.07000000000005 C 591.32 482.80000000000007 588.82 472.46000000000004 587.37 469.40000000000003 C 581.6816382238434 457.3482319855368 579.4388934532589 443.9575228537597 580.89 430.7100000000001 C 581.41 425.95000000000005 579.51 421.15000000000003 580.16 416.40000000000003 C 580.2524235029371 415.28750154201356 580.5615606184981 414.20382308196963 581.0699999999999 413.21000000000004 C 581.6033697367025 412.20640620131576 582.6079263546095 411.54046417371444 583.7399999999999 411.44000000000005 C 583.0752998978322 403.99264657796886 581.6170282545804 396.6375937382119 579.3899999999999 389.5 C 578.5799999999999 386.96000000000004 577.1199999999999 384.02000000000004 574.4599999999999 383.8500000000001 C 572.06 383.69000000000005 570.29 385.8500000000001 568.56 387.5400000000001 C 566.7741981010994 389.2343622430555 564.6417193971496 390.520673397278 562.31 391.31000000000006 C 561.3546608391256 391.5205216206829 560.4633245324709 391.9559051243181 559.7099999999999 392.58000000000004 C 558.7099999999999 393.63000000000005 558.7099999999999 395.34000000000003 557.8799999999999 396.58000000000004 C 556.4399999999998 398.80000000000007 552.7599999999999 399.01000000000005 551.8799999999999 401.49000000000007 C 551.6951282820448 402.21930489753174 551.5647685413044 402.96135265251627 551.4899999999999 403.7100000000001 C 551.0813255728867 405.16990343835175 550.2622319765625 406.48184148670146 549.1299999999999 407.49000000000007 C 547.4725712437428 409.39986375646805 545.3659474050236 410.8672836245481 543 411.76 Z" stroke-linecap="round" />
</g>
<g transform="matrix(1.07 0 0 1.07 434.37 330.44)" id="oTzNpD6hIWsm4oSRN2_G2"  >
<path style="stroke: none; stroke-width: 1; stroke-dasharray: none; stroke-linecap: butt; stroke-dashoffset: 0; stroke-linejoin: miter; stroke-miterlimit: 4; fill: rgb(70,69,91); fill-rule: nonzero; opacity: 1;" vector-effect="non-scaling-stroke"  transform=" translate(-537.33, -378.88)" d="M 552.79 363.74 C 553.0908280615746 362.5850455429742 552.7019113260391 361.3599578260374 551.79 360.59000000000003 C 551.2628968734267 360.3424803616227 550.7220052291917 360.1254559364667 550.17 359.94000000000005 C 549.4197034710372 359.4290303719075 548.7830641346069 358.7685596164664 548.3 358 C 545.3943724482934 354.72441999183457 540.5529653209592 354.015303690708 536.8299999999999 356.32 C 534.02 358.18 532.55 361.48 530.15 363.84999999999997 C 528.92 365.08 527.4499999999999 366.03999999999996 526.2099999999999 367.27 C 523.7544418716592 369.8837800033724 522.1533778264806 373.18357648864253 521.6199999999999 376.72999999999996 C 521.1066377459779 380.25873791298505 520.9625256049543 383.8313784323152 521.1899999999999 387.39 C 521.16028684405 388.4685099232284 521.3158782791722 389.54412027907273 521.65 390.57 C 522.0090641204044 391.41058690708394 522.5021373356028 392.18734608171144 523.11 392.87 C 526.158201948034 396.85196940610524 530.2443037365998 399.91741071403857 534.92 401.73 C 539.62 403.39000000000004 545.11 403.19 549.31 400.5 C 549.7306184326964 400.26717692752493 550.0771769275249 399.92061843269636 550.31 399.5 C 550.5098000049996 398.8755937664054 550.5098000049996 398.20440623359457 550.31 397.58 C 549.80898499438 395.0891201671834 550.0488687825762 392.50602372327415 551 390.15 C 551.8337667382515 388.50946438533424 552.5749290588653 386.82348703438834 553.22 385.09999999999997 C 553.6309068121943 383.125567247269 553.6850945755064 381.09352612306964 553.38 379.09999999999997 C 552.89 374 552 368.86 552.79 363.74 Z" stroke-linecap="round" />
</g>
<g transform="matrix(1.07 0 0 1.07 723.5 32.8)" id="KHsb9UUfbSI3Qo_vF4eBW"  >
<path style="stroke: none; stroke-width: 1; stroke-dasharray: none; stroke-linecap: butt; stroke-dashoffset: 0; stroke-linejoin: miter; stroke-miterlimit: 4; fill: rgb(40,88,235); fill-rule: nonzero; opacity: 0.1;" vector-effect="non-scaling-stroke"  transform=" translate(-808.29, -99.95)" d="M 846 94.65 C 846.8652106012441 93.41790897449546 847.3423059352134 91.95528094334904 847.37 90.45 C 847.37 81.33 828.79 73.95 805.87 73.95 C 782.95 73.95 764.37 81.33 764.37 90.45 C 764.3886785292628 92.14596948755772 764.9610620154955 93.78937728852007 766 95.13 C 740.48 97.97999999999999 723.29 103.32 723.29 109.44999999999999 C 723.29 118.55999999999999 761.29 125.94999999999999 808.29 125.94999999999999 C 855.29 125.94999999999999 893.29 118.55999999999999 893.29 109.44999999999999 C 893.32 103 874 97.35 846 94.65 Z" stroke-linecap="round" />
</g>
<g transform="matrix(1.07 0 0 1.07 180.44 52.01)" id="bAUJMqLivSNMWlSWWlG9c"  >
<path style="stroke: none; stroke-width: 1; stroke-dasharray: none; stroke-linecap: butt; stroke-dashoffset: 0; stroke-linejoin: miter; stroke-miterlimit: 4; fill: rgb(40,88,235); fill-rule: nonzero; opacity: 0.1;" vector-effect="non-scaling-stroke"  transform=" translate(-299.37, -117.95)" d="M 337 112.65 C 337.8652106012442 111.41790897449546 338.3423059352134 109.95528094334904 338.37 108.45 C 338.37 99.33 319.79 91.95 296.87 91.95 C 273.95 91.95 255.37 99.33 255.37 108.45 C 255.41153639688793 110.1552779647696 256.01236232284623 111.799643656866 257.08 113.13 C 231.55999999999997 115.97999999999999 214.36999999999998 121.32 214.36999999999998 127.44999999999999 C 214.36999999999998 136.56 252.41999999999996 143.95 299.37 143.95 C 346.32000000000005 143.95 384.37 136.56 384.37 127.44999999999999 C 384.32 121 365 115.35 337 112.65 Z" stroke-linecap="round" />
</g>
<g transform="matrix(1.07 0 0 1.07 560.23 40.46)" id="aj0ePC0fUks4NSstGXuf9"  >
<path style="stroke: rgb(108,99,255); stroke-width: 3; stroke-dasharray: none; stroke-linecap: butt; stroke-dashoffset: 0; stroke-linejoin: miter; stroke-miterlimit: 10; fill: none; fill-rule: nonzero; opacity: 0.1;" vector-effect="non-scaling-stroke"  transform=" translate(-655.28, -107.13)" d="M 628.74 98.79 C 631.07 97.44000000000001 634.22 98.73 635.82 100.91000000000001 C 637.4200000000001 103.09000000000002 637.82 105.91000000000001 638.2700000000001 108.53000000000002 C 639.1600000000001 114.45000000000002 639.8100000000001 121.24000000000001 635.82 125.69000000000001 C 642.34 105.92000000000002 661.09 90.78000000000002 681.82 88.57000000000002" stroke-linecap="round" />
</g>
<g transform="matrix(1.07 0 0 1.07 674.39 177)" id="tug60tZmwA5BoMRuFkxdP"  >
<path style="stroke: rgb(108,99,255); stroke-width: 3; stroke-dasharray: none; stroke-linecap: butt; stroke-dashoffset: 0; stroke-linejoin: miter; stroke-miterlimit: 10; fill: none; fill-rule: nonzero; opacity: 0.1;" vector-effect="non-scaling-stroke"  transform=" translate(-762.26, -235.1)" d="M 745.21 229.77 C 746.71 228.9 748.73 229.77 749.76 231.13000000000002 C 750.6772543833326 232.61056550044094 751.2195901251184 234.29249280091574 751.34 236.03000000000003 C 751.9100000000001 239.84000000000003 752.34 244.20000000000002 749.77 247.03000000000003 C 754.2446187141616 234.07697744890075 765.7156734362702 224.8108496581484 779.3199999999999 223.16000000000003" stroke-linecap="round" />
</g>
<g transform="matrix(1.07 0 0 1.07 614.69 513.04)" id="7qV-I4MC0eKKnP4vXc3BT"  >
<path style="stroke: none; stroke-width: 1; stroke-dasharray: none; stroke-linecap: butt; stroke-dashoffset: 0; stroke-linejoin: miter; stroke-miterlimit: 4; fill: rgb(40,88,235); fill-rule: nonzero; opacity: 0.1;" vector-effect="non-scaling-stroke"  transform=" translate(-706.32, -550)" d="M 708.32 566 L 708.32 541.7 L 719.5200000000001 552.9000000000001 L 722.32 550.0000000000001 L 706.32 534.0000000000001 L 690.32 550.0000000000001 L 693.12 552.7900000000001 L 704.32 541.7 L 704.32 566 Z" stroke-linecap="round" />
</g>
<g transform="matrix(1.07 0 0 1.07 356.46 598.41)" id="_k6zodGGQCfiFYVx8BbIB"  >
<path style="stroke: none; stroke-width: 1; stroke-dasharray: none; stroke-linecap: butt; stroke-dashoffset: 0; stroke-linejoin: miter; stroke-miterlimit: 4; fill: rgb(40,88,235); fill-rule: nonzero; opacity: 0.1;" vector-effect="non-scaling-stroke"  transform=" translate(-464.32, -630)" d="M 466.32 646 L 466.32 621.7 L 477.52 632.9000000000001 L 480.32 630.0000000000001 L 464.32 614.0000000000001 L 448.32 630.0000000000001 L 451.12 632.7900000000001 L 462.32 621.7 L 462.32 646 Z" stroke-linecap="round" />
</g>
<g transform="matrix(1.07 0 0 1.07 546.4 674.17)" id="OQc7KjxgERNP0MZn3lr7J"  >
<path style="stroke: none; stroke-width: 1; stroke-dasharray: none; stroke-linecap: butt; stroke-dashoffset: 0; stroke-linejoin: miter; stroke-miterlimit: 4; fill: rgb(40,88,235); fill-rule: nonzero; opacity: 0.1;" vector-effect="non-scaling-stroke"  transform=" translate(-642.32, -701)" d="M 644.32 717 L 644.32 692.7 L 655.5200000000001 703.9000000000001 L 658.32 701.0000000000001 L 642.32 685.0000000000001 L 626.32 701.0000000000001 L 629.12 703.7900000000001 L 640.32 692.7 L 640.32 717 Z" stroke-linecap="round" />
</g>
<g transform="matrix(1.07 0 0 1.07 273.11 83.37)" id="3nLw7sNveQECzUMsq2tww"  >
<path style="stroke: none; stroke-width: 1; stroke-dasharray: none; stroke-linecap: butt; stroke-dashoffset: 0; stroke-linejoin: miter; stroke-miterlimit: 4; fill: rgb(47,46,65); fill-rule: nonzero; opacity: 1;" vector-effect="non-scaling-stroke"  transform=" translate(-591.89, -583.81)" d="M 579.81065 526.78274 C 574.79799 528.47558 570.25675 532.43502 569.23026 537.62527 C 568.75444 540.03119 569.0461700000001 542.53227 568.64575 544.95188 C 567.7171000000001 550.56349 563.31217 554.8490999999999 559.24937 558.82988 C 555.18657 562.8106600000001 550.99097 567.43605 550.69445 573.11624 C 550.36975 579.33624 554.88065 585.16324 554.1000799999999 591.3425699999999 C 553.1932099999999 598.5216599999999 545.61061 603.1735699999999 543.73619 610.1627299999999 C 542.48455 614.8297299999999 544.0183 619.8569299999999 546.54169 623.9775699999999 C 551.35027 631.8298799999999 559.5695900000001 637.1607999999999 568.32254 640.01857 C 577.07549 642.87634 586.3976 643.47762 595.60476 643.57409 C 606.81555 643.69155 618.9875300000001 642.7290899999999 627.4107600000001 635.3300899999999 C 632.222181741295 631.0658680276483 635.243795490761 625.1404473870415 635.86976 618.7418899999999 C 636.6699600000001 610.1712499999999 633.09281 601.3154799999999 635.56025 593.06878 C 637.11312 587.8787799999999 641.00734 583.13878 640.42617 577.7527799999999 C 639.85794 572.4865299999999 635.25844 568.75371 632.1030499999999 564.4993199999999 C 629.1569499999999 560.5270999999999 627.36925 555.8361299999999 625.61718 551.2113799999998 L 619.6223699999999 535.3875499999998 C 618.4438899999999 532.2768499999999 617.1497999999999 529.0052299999998 614.52352 526.9635499999998 C 609.60687 523.1414499999998 601.7011 523.8923999999998 595.952 524.6806999999998 C 590.61855 525.412 584.93966 525.0506 579.81065 526.78274 Z" stroke-linecap="round" />
</g>
<g transform="matrix(1.07 0 0 1.07 270.3 95.05)" id="PgeCL5vWm6fFmMjLCd0rm"  >
<path style="stroke: none; stroke-width: 1; stroke-dasharray: none; stroke-linecap: butt; stroke-dashoffset: 0; stroke-linejoin: miter; stroke-miterlimit: 4; fill: rgb(255,185,185); fill-rule: nonzero; opacity: 1;" vector-effect="non-scaling-stroke"  transform=" translate(-589.25, -594.76)" d="M 581.68806 572.87747 C 581.68806 572.87747 584.3455399999999 581.51428 564.4144399999999 591.47983 C 544.4833399999999 601.44538 566.4075499999999 612.07531 566.4075499999999 612.07531 L 589.6605 617.39031 C 589.6605 617.39031 613.57782 614.06846 616.2352999999999 610.08223 C 618.8927799999999 606.096 623.54338 592.8086099999999 622.2146399999999 590.8154999999999 C 621.2204706942623 589.3964359749681 620.1093079013799 588.0630446375116 618.8927799999999 586.8292799999999 C 618.8927799999999 586.8292799999999 602.9478999999999 584.1718 603.6122699999999 576.8637299999999 C 604.2766399999998 569.5556599999999 581.68806 572.87747 581.68806 572.87747 Z" stroke-linecap="round" />
</g>
<g transform="matrix(1.07 0 0 1.07 270.3 95.05)" id="VvueLVu8Z7MxJXmluLEL_"  >
<path style="stroke: none; stroke-width: 1; stroke-dasharray: none; stroke-linecap: butt; stroke-dashoffset: 0; stroke-linejoin: miter; stroke-miterlimit: 4; fill: rgb(0,0,0); fill-rule: nonzero; opacity: 0.1;" vector-effect="non-scaling-stroke"  transform=" translate(-589.25, -594.76)" d="M 581.68806 572.87747 C 581.68806 572.87747 584.3455399999999 581.51428 564.4144399999999 591.47983 C 544.4833399999999 601.44538 566.4075499999999 612.07531 566.4075499999999 612.07531 L 589.6605 617.39031 C 589.6605 617.39031 613.57782 614.06846 616.2352999999999 610.08223 C 618.8927799999999 606.096 623.54338 592.8086099999999 622.2146399999999 590.8154999999999 C 621.2204706942623 589.3964359749681 620.1093079013799 588.0630446375116 618.8927799999999 586.8292799999999 C 618.8927799999999 586.8292799999999 602.9478999999999 584.1718 603.6122699999999 576.8637299999999 C 604.2766399999998 569.5556599999999 581.68806 572.87747 581.68806 572.87747 Z" stroke-linecap="round" />
</g>
<g transform="matrix(1.07 0 0 1.07 276.05 63.55)" id="HLHIjZ4Ham6V1WbqX55gN"  >
<path style="stroke: none; stroke-width: 1; stroke-dasharray: none; stroke-linecap: butt; stroke-dashoffset: 0; stroke-linejoin: miter; stroke-miterlimit: 4; fill: rgb(255,185,185); fill-rule: nonzero; opacity: 1;" vector-effect="non-scaling-stroke"  transform=" translate(-21.26, -21.26)" d="M 0 21.25984 C 0 9.51835 9.51835 0 21.25984 0 C 33.00133 0 42.51968 9.51835 42.51968 21.25984 C 42.51968 33.00133 33.00133 42.51968 21.25984 42.51968 C 9.51835 42.51968 0 33.00133 0 21.25984 z" stroke-linecap="round" />
</g>
<g transform="matrix(1.07 0 0 1.07 274.99 135.79)" id="BEOZe6g9dI6GMeSFvhnOo"  >
<path style="stroke: none; stroke-width: 1; stroke-dasharray: none; stroke-linecap: butt; stroke-dashoffset: 0; stroke-linejoin: miter; stroke-miterlimit: 4; fill: rgb(255,101,132); fill-rule: nonzero; opacity: 1;" vector-effect="non-scaling-stroke"  transform=" translate(-593.65, -632.94)" d="M 592.318 610.08219 C 592.318 610.08219 566.71433 608.20974 566.2287699999999 590.54361 C 566.2287699999999 590.54361 557.1063899999999 589.48672 554.44891 592.1442 C 551.79143 594.8016799999999 543.1546099999999 596.7947899999999 543.1546099999999 603.43849 C 543.1546099999999 610.0821900000001 557.7707599999999 630.0133 557.7707599999999 630.0133 C 557.7707599999999 630.0133 565.7431999999999 656.5880999999999 562.4213499999998 661.2386899999999 C 559.0994999999998 665.8892799999999 558.4351299999998 677.8479399999999 558.4351299999998 677.8479399999999 C 558.4351299999998 677.8479399999999 591.6536299999998 675.1904599999999 596.9685899999998 677.8479399999999 C 602.2835499999999 680.5054199999998 623.5433999999998 680.5054199999998 624.8721399999998 677.8479399999999 C 626.2008799999999 675.1904599999999 623.5433999999998 641.9719399999999 623.5433999999998 641.9719399999999 C 623.5433999999998 641.9719399999999 629.5227299999998 633.9994999999999 628.1939899999998 624.6983199999999 L 644.13885 606.096 C 644.13885 606.096 638.15952 588.158 628.85834 588.158 C 628.85834 588.158 616.23534 584.83615 615.90312 586.49708 C 615.5708999999999 588.15801 622.21464 606.76034 592.318 610.08219 Z" stroke-linecap="round" />
</g>
<g transform="matrix(1.07 0 0 1.07 230.13 175.8)" id="da_F8GaFkFPO8aTAzp9YJ"  >
<path style="stroke: none; stroke-width: 1; stroke-dasharray: none; stroke-linecap: butt; stroke-dashoffset: 0; stroke-linejoin: miter; stroke-miterlimit: 4; fill: rgb(255,185,185); fill-rule: nonzero; opacity: 1;" vector-effect="non-scaling-stroke"  transform=" translate(-551.61, -670.43)" d="M 532.52467 668.54676 C 532.52467 668.54676 538.504 677.84794 553.78452 679.84105 C 569.0650400000001 681.83416 571.72252 676.5192 570.39377 675.19046 C 569.06502 673.8617200000001 553.12015 667.88239 553.12015 667.88239 L 543.81896 660.57432 Z" stroke-linecap="round" />
</g>
<g transform="matrix(1.07 0 0 1.07 312.93 175.84)" id="xXKYtQ4hLKv461YofPIC-"  >
<path style="stroke: none; stroke-width: 1; stroke-dasharray: none; stroke-linecap: butt; stroke-dashoffset: 0; stroke-linejoin: miter; stroke-miterlimit: 4; fill: rgb(255,185,185); fill-rule: nonzero; opacity: 1;" vector-effect="non-scaling-stroke"  transform=" translate(-629.2, -670.47)" d="M 641.48137 660.57432 L 624.2077499999999 670.53987 C 624.2077499999999 670.53987 601.61916 669.2111299999999 610.2559699999999 675.85487 C 618.8927799999999 682.4986100000001 634.8376699999999 679.84109 634.8376699999999 679.84109 L 650.1181799999999 672.53302 Z" stroke-linecap="round" />
</g>
<g transform="matrix(1.07 0 0 1.07 284.73 209.8)" id="UriqO_RLNG9J11L9MMAGv"  >
<path style="stroke: none; stroke-width: 1; stroke-dasharray: none; stroke-linecap: butt; stroke-dashoffset: 0; stroke-linejoin: miter; stroke-miterlimit: 4; fill: rgb(47,46,65); fill-rule: nonzero; opacity: 1;" vector-effect="non-scaling-stroke"  transform=" translate(-602.78, -702.29)" d="M 555.11326 677.84794 C 555.11326 677.84794 539.16837 717.04578 558.43511 723.02511 C 577.70185 729.00444 630.85145 727.6757 642.81011 719.70326 C 654.76877 711.73082 658.0906200000001 701.1009 656.09751 697.77905 C 654.1044 694.4572 640.817 685.1560499999999 631.5158200000001 684.4916499999999 C 622.2146400000001 683.8272499999999 555.11326 677.84794 555.11326 677.84794 Z" stroke-linecap="round" />
</g>
<g transform="matrix(1.07 0 0 1.07 284.73 209.8)" id="PU9ZIWyRK7CB8cRXC9tr4"  >
<path style="stroke: none; stroke-width: 1; stroke-dasharray: none; stroke-linecap: butt; stroke-dashoffset: 0; stroke-linejoin: miter; stroke-miterlimit: 4; fill: rgb(0,0,0); fill-rule: nonzero; opacity: 0.05;" vector-effect="non-scaling-stroke"  transform=" translate(-602.78, -702.29)" d="M 555.11326 677.84794 C 555.11326 677.84794 539.16837 717.04578 558.43511 723.02511 C 577.70185 729.00444 630.85145 727.6757 642.81011 719.70326 C 654.76877 711.73082 658.0906200000001 701.1009 656.09751 697.77905 C 654.1044 694.4572 640.817 685.1560499999999 631.5158200000001 684.4916499999999 C 622.2146400000001 683.8272499999999 555.11326 677.84794 555.11326 677.84794 Z" stroke-linecap="round" />
</g>
<g transform="matrix(1.07 0 0 1.07 316.11 202.76)" id="7Hrcj-r9-xghs_4f-Er-3"  >
<path style="stroke: none; stroke-width: 1; stroke-dasharray: none; stroke-linecap: butt; stroke-dashoffset: 0; stroke-linejoin: miter; stroke-miterlimit: 4; fill: rgb(47,46,65); fill-rule: nonzero; opacity: 1;" vector-effect="non-scaling-stroke"  transform=" translate(-632.18, -695.7)" d="M 630.37766 680.28318 C 630.37766 680.28318 686.65853 659.90995 685.99416 684.49165 C 685.3297899999999 709.0733500000001 650.11816 715.71704 650.11816 715.71704 L 639.48824 717.04578 L 581.02367 719.03889 C 581.02367 719.03889 583.01678 708.4089700000001 578.3661900000001 707.08023 C 578.3661900000001 707.08023 593.6467000000001 703.09401 594.3110700000001 702.4296400000001 C 594.97544 701.7652700000001 632.84454 688.47787 635.5020200000001 687.8135000000001 C 638.1595000000002 687.1491300000001 646.1319400000001 681.8341600000001 652.1112700000001 682.4985 C 652.1112700000001 682.4985 658.7549700000001 677.1835 666.0630400000001 678.51228 L 645.4675700000001 679.8410200000001 Z" stroke-linecap="round" />
</g>
<g transform="matrix(1.07 0 0 1.07 316.11 202.76)" id="L6HmGRlf9CpW6xynIqekA"  >
<path style="stroke: none; stroke-width: 1; stroke-dasharray: none; stroke-linecap: butt; stroke-dashoffset: 0; stroke-linejoin: miter; stroke-miterlimit: 4; fill: rgb(0,0,0); fill-rule: nonzero; opacity: 0.1;" vector-effect="non-scaling-stroke"  transform=" translate(-632.18, -695.7)" d="M 630.37766 680.28318 C 630.37766 680.28318 686.65853 659.90995 685.99416 684.49165 C 685.3297899999999 709.0733500000001 650.11816 715.71704 650.11816 715.71704 L 639.48824 717.04578 L 581.02367 719.03889 C 581.02367 719.03889 583.01678 708.4089700000001 578.3661900000001 707.08023 C 578.3661900000001 707.08023 593.6467000000001 703.09401 594.3110700000001 702.4296400000001 C 594.97544 701.7652700000001 632.84454 688.47787 635.5020200000001 687.8135000000001 C 638.1595000000002 687.1491300000001 646.1319400000001 681.8341600000001 652.1112700000001 682.4985 C 652.1112700000001 682.4985 658.7549700000001 677.1835 666.0630400000001 678.51228 L 645.4675700000001 679.8410200000001 Z" stroke-linecap="round" />
</g>
<g transform="matrix(1.07 0 0 1.07 332.17 193.29)" id="_cgHqj0ACLw7XIIimuFfQ"  >
<path style="stroke: none; stroke-width: 1; stroke-dasharray: none; stroke-linecap: butt; stroke-dashoffset: 0; stroke-linejoin: miter; stroke-miterlimit: 4; fill: rgb(47,46,65); fill-rule: nonzero; opacity: 1;" vector-effect="non-scaling-stroke"  transform=" translate(-561.23, -536.32)" d="M 534.434 533.081 L 541.53 549.2710000000001 L 584.7139999999999 533.9900000000001 L 588.036 525.3540000000002 L 576.741 523.3600000000001 L 554.035 527.3470000000001 L 544.187 530.0040000000001 z" stroke-linecap="round" />
</g>
<g transform="matrix(1.07 0 0 1.07 332.17 193.29)" id="GHJrGIs8FUarpkdQbkdQS"  >
<path style="stroke: none; stroke-width: 1; stroke-dasharray: none; stroke-linecap: butt; stroke-dashoffset: 0; stroke-linejoin: miter; stroke-miterlimit: 4; fill: rgb(0,0,0); fill-rule: nonzero; opacity: 0.1;" vector-effect="non-scaling-stroke"  transform=" translate(-561.23, -536.32)" d="M 534.434 533.081 L 541.53 549.2710000000001 L 584.7139999999999 533.9900000000001 L 588.036 525.3540000000002 L 576.741 523.3600000000001 L 554.035 527.3470000000001 L 544.187 530.0040000000001 z" stroke-linecap="round" />
</g>
<g transform="matrix(1.07 0 0 1.07 225.71 204.4)" id="0Non3LVa9WB7bHPWYo2_J"  >
<path style="stroke: none; stroke-width: 1; stroke-dasharray: none; stroke-linecap: butt; stroke-dashoffset: 0; stroke-linejoin: miter; stroke-miterlimit: 4; fill: rgb(47,46,65); fill-rule: nonzero; opacity: 1;" vector-effect="non-scaling-stroke"  transform=" translate(-547.47, -697.23)" d="M 528.53845 703.094 C 528.53845 703.094 541.1614500000001 719.0388800000001 555.77763 723.0251000000001 C 570.39381 727.0113200000001 578.36621 721.69636 578.36621 721.69636 L 573.71562 703.094 L 571.7225099999999 691.13534 L 563.0857 685.156 L 545.81207 677.18355 L 525.2166 670.53985 C 525.2166 670.53985 516.57979 669.21111 516.57979 670.53985 C 516.57979 671.86859 524.55223 691.7997 524.55223 691.7997 Z" stroke-linecap="round" />
</g>
<g transform="matrix(1.07 0 0 1.07 239.76 231)" id="Vs95zKvFyXiFmCI3BRAZT"  >
<path style="stroke: none; stroke-width: 1; stroke-dasharray: none; stroke-linecap: butt; stroke-dashoffset: 0; stroke-linejoin: miter; stroke-miterlimit: 4; fill: rgb(242,242,242); fill-rule: nonzero; opacity: 1;" vector-effect="non-scaling-stroke"  transform=" translate(-560.63, -722.16)" d="M 543.819 711.73082 C 543.819 711.73082 546.4764799999999 730.99755 549.7983399999999 732.32629 C 553.1202 733.6550299999999 563.08574 730.9975499999999 565.74322 729.66881 C 568.4006999999999 728.3400700000001 577.43376 722.20962 577.43376 722.20962 C 577.43376 722.20962 545.81207 710.40208 543.819 711.73082 Z" stroke-linecap="round" />
</g>
<g transform="matrix(1.07 0 0 1.07 289.7 231.21)" id="m7HsQb4zKgh1kNHEaLhQ1"  >
<path style="stroke: none; stroke-width: 1; stroke-dasharray: none; stroke-linecap: butt; stroke-dashoffset: 0; stroke-linejoin: miter; stroke-miterlimit: 4; fill: rgb(255,185,185); fill-rule: nonzero; opacity: 1;" vector-effect="non-scaling-stroke"  transform=" translate(-521.43, -571.86)" d="M 518.277 563.223 L 530.9000000000001 565.216 L 529.5710000000001 580.496 L 511.96400000000017 576.22 z" stroke-linecap="round" />
</g>
<g transform="matrix(1.07 0 0 1.07 307.04 232.86)" id="mwod4-KP7DGTsq4VIMI1I"  >
<path style="stroke: none; stroke-width: 1; stroke-dasharray: none; stroke-linecap: butt; stroke-dashoffset: 0; stroke-linejoin: miter; stroke-miterlimit: 4; fill: rgb(242,242,242); fill-rule: nonzero; opacity: 1;" vector-effect="non-scaling-stroke"  transform=" translate(-623.68, -723.9)" d="M 612.18567 717.97655 C 612.18567 717.97655 606.2697499999999 725.0182199999999 612.2490799999999 729.0044399999999 L 616.2352999999999 732.32629 C 616.2352999999999 732.32629 629.52271 734.9837699999999 630.8514499999999 736.31251 C 632.1801899999998 737.64125 637.4951499999999 734.3194 637.4951499999999 734.3194 C 637.4951499999999 734.3194 638.1595199999998 714.3883 637.4951499999999 713.0595599999999 C 636.8307799999999 711.7308199999999 628.8583399999999 710.40208 628.1939699999998 711.7308199999999 C 627.5295999999997 713.0595599999998 619.5571499999999 715.0526699999999 614.9065599999998 713.7239299999999 Z" stroke-linecap="round" />
</g>
<g transform="matrix(1.07 0 0 1.07 231.87 204.88)" id="2CgmUU7Nz-Uu1E9zP-7O9"  >
<path style="stroke: none; stroke-width: 1; stroke-dasharray: none; stroke-linecap: butt; stroke-dashoffset: 0; stroke-linejoin: miter; stroke-miterlimit: 4; fill: rgb(47,46,65); fill-rule: nonzero; opacity: 1;" vector-effect="non-scaling-stroke"  transform=" translate(-553.24, -697.68)" d="M 559.09948 682.49853 C 559.09948 682.49853 512.59357 655.25936 505.28547999999995 665.2249099999999 C 497.9773899999999 675.1904599999998 490.00496999999996 689.1422399999999 511.26480999999995 699.7721599999999 C 532.52465 710.4020799999998 598.9616599999999 732.3262899999999 598.9616599999999 732.3262899999999 C 598.9616599999999 732.3262899999999 608.92721 717.0457799999998 608.92721 713.0595599999998 C 608.92721 713.0595599999998 573.7156 697.1146799999998 567.73627 695.7859399999998 C 561.75694 694.4571999999997 537.83961 679.1766799999998 534.51776 677.8479399999998 C 531.1959099999999 676.5191999999997 526.54532 672.5329399999997 526.54532 672.5329399999997 Z" stroke-linecap="round" />
</g>
<g transform="matrix(1.07 0 0 1.07 222.15 140.12)" id="zz2QofnTn7fAfphggRix6"  >
<path style="stroke: none; stroke-width: 1; stroke-dasharray: none; stroke-linecap: butt; stroke-dashoffset: 0; stroke-linejoin: miter; stroke-miterlimit: 4; fill: rgb(255,101,132); fill-rule: nonzero; opacity: 1;" vector-effect="non-scaling-stroke"  transform=" translate(-544.13, -636.99)" d="M 545.81207 600.11664 L 543.15459 602.10975 C 543.15459 602.10975 537.17526 617.39027 536.51089 626.02708 C 535.84652 634.6638899999999 527.87408 661.2386899999999 528.53845 664.56054 C 529.20282 667.88239 529.86719 670.53987 533.8534500000001 673.86172 C 533.8534500000001 673.86172 539.1684500000001 661.90306 548.4696 663.89617 L 559.7638900000001 622.70523 Z" stroke-linecap="round" />
</g>
<g transform="matrix(1.07 0 0 1.07 325.84 141.89)" id="4QZqv4my5NEoMCMYQYDbN"  >
<path style="stroke: none; stroke-width: 1; stroke-dasharray: none; stroke-linecap: butt; stroke-dashoffset: 0; stroke-linejoin: miter; stroke-miterlimit: 4; fill: rgb(255,101,132); fill-rule: nonzero; opacity: 1;" vector-effect="non-scaling-stroke"  transform=" translate(-641.3, -638.65)" d="M 638.82389 600.11664 L 644.1388900000001 606.09597 C 644.1388900000001 606.09597 647.4607400000001 614.06842 647.4607400000001 616.06153 C 647.4607400000001 618.05464 654.1044400000001 647.2869199999999 654.7688100000001 648.6156599999999 C 655.4331800000002 649.9444 658.0906600000002 666.5536599999999 654.7688100000001 670.53987 C 651.4469600000001 674.52608 645.4676300000001 677.1835699999999 645.4676300000001 677.1835699999999 C 645.4676300000001 677.1835699999999 649.4538500000001 663.2317999999999 636.8308200000001 662.56743 L 638.1595600000002 657.2524299999999 L 626.2009000000002 617.3902299999999 Z" stroke-linecap="round" />
</g>
<g transform="matrix(1.07 0 0 1.07 274.11 168.83)" id="0t7jjEXb3rS9onL_vabcZ"  >
<path style="stroke: none; stroke-width: 1; stroke-dasharray: none; stroke-linecap: butt; stroke-dashoffset: 0; stroke-linejoin: miter; stroke-miterlimit: 4; fill: rgb(63,61,86); fill-rule: nonzero; opacity: 1;" vector-effect="non-scaling-stroke"  transform=" translate(-592.82, -663.9)" d="M 547.14082 645.85762 L 547.14082 680.85252 C 547.1408129011255 685.4505340170285 550.8321104054919 689.1969239852335 555.42962 689.26503 L 628.61473 690.3492600000001 C 633.183393389389 690.4169418739184 636.9709715651528 686.8258888342774 637.14658 682.2601000000001 L 638.4926899999999 647.2611 C 638.5797912602895 644.9964592341565 637.7495820246754 642.7924498927275 636.1900269997255 641.1480738554362 C 634.6304719747757 639.5036978181448 632.4734771440884 638.5580351656131 630.2073999999999 638.5251900000001 L 555.67617 637.4450300000001 C 553.4238854548465 637.4123857366096 551.2525685689924 638.2842507538282 549.6483006815977 639.8654451965656 C 548.044032794203 641.4466396393028 547.1408056574957 643.6050988968661 547.14082 645.85762 Z" stroke-linecap="round" />
</g>
<g transform="matrix(1.07 0 0 1.07 277.38 49.67)" id="snKEe4Q2h-znu08wKDk4Z"  >
<path style="stroke: none; stroke-width: 1; stroke-dasharray: none; stroke-linecap: butt; stroke-dashoffset: 0; stroke-linejoin: miter; stroke-miterlimit: 4; fill: rgb(47,46,65); fill-rule: nonzero; opacity: 1;" vector-effect="non-scaling-stroke"  transform=" translate(-22.88, -12.32)" d="M 0 12.32222 C 0 5.51685 10.24557 0 22.88412 0 C 35.52267 0 45.76824 5.51685 45.76824 12.32222 C 45.76824 19.127589999999998 35.52267 24.64444 22.88412 24.64444 C 10.245569999999999 24.64444 0 19.127589999999998 0 12.32222 z" stroke-linecap="round" />
</g>
<g transform="matrix(1.07 0 0 1.07 273.22 169.18)" id="kQ_cePP4FrR0l4sR_KSXr"  >
<path style="stroke: none; stroke-width: 1; stroke-dasharray: none; stroke-linecap: butt; stroke-dashoffset: 0; stroke-linejoin: miter; stroke-miterlimit: 4; fill: rgb(242,242,242); fill-rule: nonzero; opacity: 1;" vector-effect="non-scaling-stroke"  transform=" translate(-5.31, -5.31)" d="M 0 5.31496 C 0 2.3795900000000003 2.37959 0 5.31496 0 C 8.25033 0 10.62992 2.37959 10.62992 5.31496 C 10.62992 8.25033 8.25033 10.62992 5.31496 10.62992 C 2.3795900000000003 10.62992 0 8.25033 0 5.31496 z" stroke-linecap="round" />
</g>
<g transform="matrix(-0.62 0 0 0.72 380.79 549.61)" id="YiZ7--33MbRfJGbRtw-aB"  >
<path style="stroke: none; stroke-width: 1; stroke-dasharray: none; stroke-linecap: butt; stroke-dashoffset: 0; stroke-linejoin: miter; stroke-miterlimit: 4; fill: rgb(242,242,242); fill-rule: nonzero; opacity: 1;" vector-effect="non-scaling-stroke"  transform=" translate(-309.36, -737.58)" d="M 292.871 732.64839 C 285.89189999999996 755.96155 296.72335999999996 779.79679 296.72335999999996 779.79679 C 296.72335999999996 779.79679 318.87013999999994 765.834 325.84921999999995 742.52079 C 332.82829999999996 719.2075800000001 321.99685999999997 695.37238 321.99685999999997 695.37238 C 321.99685999999997 695.37238 299.85012 709.33525 292.871 732.64839 Z" stroke-linecap="round" />
</g>
<g transform="matrix(-0.62 0 0 0.72 394.87 549.5)" id="B_kL8JnkCbEZpFaK2OHBH"  >
<path style="stroke: none; stroke-width: 1; stroke-dasharray: none; stroke-linecap: butt; stroke-dashoffset: 0; stroke-linejoin: miter; stroke-miterlimit: 4; fill: rgb(242,242,242); fill-rule: nonzero; opacity: 1;" vector-effect="non-scaling-stroke"  transform=" translate(-286.76, -737.43)" d="M 303.4675 733.27893 C 309.34137999999996 756.89478 297.39979999999997 780.1937399999999 297.39979999999997 780.1937399999999 C 297.39979999999997 780.1937399999999 275.9348 765.20385 270.06098 741.588 C 264.18715999999995 717.9721499999999 276.12861999999996 694.6732099999999 276.12861999999996 694.6732099999999 C 276.12861999999996 694.6732099999999 297.59362 709.66308 303.4675 733.27893 Z" stroke-linecap="round" />
</g>
<g transform="matrix(-0.62 0 0 0.72 179.36 551.16)" id="tealIbnw2q1A2bgSA5Kqg"  >
<path style="stroke: none; stroke-width: 1; stroke-dasharray: none; stroke-linecap: butt; stroke-dashoffset: 0; stroke-linejoin: miter; stroke-miterlimit: 4; fill: rgb(255,184,184); fill-rule: nonzero; opacity: 1;" vector-effect="non-scaling-stroke"  transform=" translate(-415.72, -621.62)" d="M 435.535 638.619 L 439.97700000000003 627.192 L 398.01700000000005 604.619 L 391.46100000000007 621.484 z" stroke-linecap="round" />
</g>
<g transform="matrix(-0.62 0 0 0.72 160.97 554.88)" id="HceDsAelb_JGg6HitOSNj"  >
<path style="stroke: none; stroke-width: 1; stroke-dasharray: none; stroke-linecap: butt; stroke-dashoffset: 0; stroke-linejoin: miter; stroke-miterlimit: 4; fill: rgb(47,46,65); fill-rule: nonzero; opacity: 1;" vector-effect="non-scaling-stroke"  transform=" translate(-662.24, -744.91)" d="M 676.33666 726.91969 C 672.533429528319 725.4391073828856 668.2976433429454 725.5310227558049 664.5622191122284 727.1751920668542 C 660.8267948815113 728.8193613779034 657.8981181058244 731.8809272170668 656.4212200000001 735.6855899999999 L 653.4243200000001 743.3885899999999 L 648.80411 755.2786799999999 L 647.67466 758.1940699999999 L 662.48072 763.9536099999999 L 676.80218 727.1044299999999 Z" stroke-linecap="round" />
</g>
<g transform="matrix(-0.62 0 0 0.72 219.15 536.79)" id="uZkDYjSwD8Qbng2Q7_a4K"  >
<path style="stroke: none; stroke-width: 1; stroke-dasharray: none; stroke-linecap: butt; stroke-dashoffset: 0; stroke-linejoin: miter; stroke-miterlimit: 4; fill: rgb(47,46,65); fill-rule: nonzero; opacity: 1;" vector-effect="non-scaling-stroke"  transform=" translate(-568.85, -719.73)" d="M 648.80588 734.73787 L 646.87373 739.8614200000001 L 642.05191 752.64966 L 641.93624 752.9694900000001 C 629.65133 754.5479600000001 616.18385 751.4534900000001 603.7274199999999 746.64625 C 598.7436395045671 744.7239338198013 593.862349025801 742.5457857676945 589.1030099999999 740.12049 C 582.0587499999999 736.56119 575.7515 732.80461 570.7197799999999 729.59171 C 563.1438999999999 724.72938 558.4594399999999 721.07847 558.4594399999999 721.07847 C 558.4594399999999 721.07847 557.2218699999999 722.19682 554.9824399999999 724.11458 C 551.9809299999998 726.68272 547.1847599999999 730.6930500000001 541.1095599999999 735.4137300000001 Q 537.6333199999999 738.1338300000001 533.6447799999999 741.1040700000001 C 514.0436599999998 755.6429100000001 488.88921999999985 716.8479700000001 488.88921999999985 716.8479700000001 C 488.88921999999985 716.8479700000001 495.9637799999999 712.3439700000001 497.81195999999983 711.4693900000001 C 503.7631499999998 708.6538300000001 517.7442499999999 702.0100900000001 529.8062899999999 696.1059400000001 C 536.0205399999999 693.0595200000001 541.7180999999998 690.2033900000001 545.5434199999999 688.1734600000001 C 559.0892099999999 680.9614600000001 575.9276299999999 694.6081800000001 575.9276299999999 694.6081800000001 Z" stroke-linecap="round" />
</g>
<g transform="matrix(-0.62 0 0 0.72 219.15 536.79)" id="eX1y6QMknVSxJr_Fbd2b4"  >
<path style="stroke: none; stroke-width: 1; stroke-dasharray: none; stroke-linecap: butt; stroke-dashoffset: 0; stroke-linejoin: miter; stroke-miterlimit: 4; fill: rgb(0,0,0); fill-rule: nonzero; opacity: 0.14;" vector-effect="non-scaling-stroke"  transform=" translate(-568.85, -719.73)" d="M 648.80588 734.73787 L 646.87373 739.8614200000001 L 642.05191 752.64966 L 641.93624 752.9694900000001 C 629.65133 754.5479600000001 616.18385 751.4534900000001 603.7274199999999 746.64625 C 598.7436395045671 744.7239338198013 593.862349025801 742.5457857676945 589.1030099999999 740.12049 C 582.0587499999999 736.56119 575.7515 732.80461 570.7197799999999 729.59171 C 563.1438999999999 724.72938 558.4594399999999 721.07847 558.4594399999999 721.07847 C 558.4594399999999 721.07847 557.2218699999999 722.19682 554.9824399999999 724.11458 C 551.9809299999998 726.68272 547.1847599999999 730.6930500000001 541.1095599999999 735.4137300000001 Q 537.6333199999999 738.1338300000001 533.6447799999999 741.1040700000001 C 514.0436599999998 755.6429100000001 488.88921999999985 716.8479700000001 488.88921999999985 716.8479700000001 C 488.88921999999985 716.8479700000001 495.9637799999999 712.3439700000001 497.81195999999983 711.4693900000001 C 503.7631499999998 708.6538300000001 517.7442499999999 702.0100900000001 529.8062899999999 696.1059400000001 C 536.0205399999999 693.0595200000001 541.7180999999998 690.2033900000001 545.5434199999999 688.1734600000001 C 559.0892099999999 680.9614600000001 575.9276299999999 694.6081800000001 575.9276299999999 694.6081800000001 Z" stroke-linecap="round" />
</g>
<g transform="matrix(-0.62 0 0 0.72 309.53 447.68)" id="BFRfIWikS__Az_oPeOIq2"  >
<path style="stroke: none; stroke-width: 1; stroke-dasharray: none; stroke-linecap: butt; stroke-dashoffset: 0; stroke-linejoin: miter; stroke-miterlimit: 4; fill: rgb(47,46,65); fill-rule: nonzero; opacity: 1;" vector-effect="non-scaling-stroke"  transform=" translate(-423.75, -595.69)" d="M 452.746 627.18653 L 394.746 627.18653 C 392.261879164951 627.1837304415061 390.2487995584939 625.170650835049 390.246 622.68653 L 390.246 597.68653 C 390.246 579.1849908806684 405.2444608806684 564.18653 423.746 564.18653 C 442.2475391193316 564.18653 457.246 579.1849908806684 457.246 597.68653 L 457.246 622.68653 C 457.2432004415061 625.170650835049 455.230120835049 627.1837304415061 452.746 627.18653 Z" stroke-linecap="round" />
</g>
<g transform="matrix(-0.62 0 0 0.72 260.8 506.71)" id="hSdGMn4f7bZaUwsexBIU8"  >
<path style="stroke: none; stroke-width: 1; stroke-dasharray: none; stroke-linecap: butt; stroke-dashoffset: 0; stroke-linejoin: miter; stroke-miterlimit: 4; fill: rgb(255,184,184); fill-rule: nonzero; opacity: 1;" vector-effect="non-scaling-stroke"  transform=" translate(-501.99, -677.86)" d="M 507.9036 658.58833 C 505.17036250697 659.068295594107 502.79010086984897 660.7342594696653 501.403291577884 663.1379470850909 C 500.0164822859189 665.5416347005166 499.7655810792367 668.4361346021059 500.7181 671.0426 L 484.94658 685.54839 L 491.42411999999996 697.28269 L 513.4088499999999 676.48489 C 517.7773837712846 674.5520324863587 520.0098408308319 669.6572387536359 518.6053061295848 665.0913535435275 C 517.2007714283378 660.5254683334191 512.6031959264158 657.7316949509216 507.9035999999999 658.5883299999999 Z" stroke-linecap="round" />
</g>
<g transform="matrix(-0.62 0 0 0.72 286.5 510.54)" id="eR50KRs9nrFCZUeofzBPN"  >
<path style="stroke: none; stroke-width: 1; stroke-dasharray: none; stroke-linecap: butt; stroke-dashoffset: 0; stroke-linejoin: miter; stroke-miterlimit: 4; fill: rgb(204,204,204); fill-rule: nonzero; opacity: 1;" vector-effect="non-scaling-stroke"  transform=" translate(-460.72, -683.21)" d="M 460.44794 724.54 Q 459.37932 724.54 458.30756 724.4477099999999 C 449.65889153431215 723.7260453640597 441.990199144858 718.6046963379551 438.01 710.89248 L 412.74266 662.25967 C 409.3031440005952 655.6397629185243 411.6787955129187 647.4853973239193 418.1355735647953 643.7486263560463 C 424.5923516166719 640.0118553881733 432.84624366775915 642.0145197053974 436.87255 648.29483 L 460.18334 700.5985400000001 L 491.90258 674.82654 L 510.2683 681.97595 L 479.25219 716.21765 C 474.43120603728636 721.5097292066813 467.60670321629806 724.5301049755767 460.44794 724.54 Z" stroke-linecap="round" />
</g>
<g transform="matrix(-0.62 0 0 0.72 247.38 487.25)" id="n6sIePyYCsBol0DSBtjJS"  >
<path style="stroke: none; stroke-width: 1; stroke-dasharray: none; stroke-linecap: butt; stroke-dashoffset: 0; stroke-linejoin: miter; stroke-miterlimit: 4; fill: rgb(63,61,86); fill-rule: nonzero; opacity: 1;" vector-effect="non-scaling-stroke"  transform=" translate(-523.52, -650.77)" d="M 553.91347 649.39517 L 525.81178 621.2934300000001 C 523.7646856907495 619.2463679983729 520.4457243092505 619.2463679983729 518.39863 621.2934300000001 L 493.11873 646.57334 C 491.07166914223404 648.6204308778176 491.07166914223404 651.9393891221824 493.11873 653.98648 L 519.3752000000001 680.2429500000001 C 521.3175909800719 682.1853468336052 524.4300383713638 682.2987888453212 526.50868 680.50295 L 553.6338000000001 657.0683200000001 C 554.68580517699 656.159449180901 555.3336747558601 654.869895401965 555.4348844245281 653.4833465708048 C 555.5360940931962 652.0967977396447 555.0823532567454 650.7268330710016 554.17348 649.67483 Q 554.04859 649.53036 553.91347 649.39517 Z" stroke-linecap="round" />
</g>
<g transform="matrix(-0.62 0 0 0.72 247.37 487.58)" id="P-LV5hLrkg5EszJ4qzt55"  >
<path style="stroke: none; stroke-width: 1; stroke-dasharray: none; stroke-linecap: butt; stroke-dashoffset: 0; stroke-linejoin: miter; stroke-miterlimit: 4; fill: rgb(242,242,242); fill-rule: nonzero; opacity: 1;" vector-effect="non-scaling-stroke"  transform=" translate(-306.54, -533.12)" d="M 332.935 536.213 L 304.009 507.28799999999995 L 280.13800000000003 531.159 L 307.94100000000003 558.961 z" stroke-linecap="round" />
</g>
<g transform="matrix(-0.62 0 0 0.72 247.67 487.41)" id="rGwi1gC9Up3KckK4Zr5O9"  >
<path style="stroke: none; stroke-width: 1; stroke-dasharray: none; stroke-linecap: butt; stroke-dashoffset: 0; stroke-linejoin: miter; stroke-miterlimit: 4; fill: rgb(40,88,235); fill-rule: nonzero; opacity: 1;" vector-effect="non-scaling-stroke"  transform=" translate(-11.75, -11.75)" d="M 0 11.74605 C 0 5.25889 5.25889 0 11.74605 0 C 18.23321 0 23.4921 5.25889 23.4921 11.74605 C 23.4921 18.23321 18.23321 23.4921 11.74605 23.4921 C 5.25889 23.4921 0 18.23321 0 11.74605 z" stroke-linecap="round" />
</g>
<g transform="matrix(-0.62 0 0 0.72 246.11 487.17)" id="0b8_lsH06hfLOKzWFXbVF"  >
<path style="stroke: none; stroke-width: 1; stroke-dasharray: none; stroke-linecap: butt; stroke-dashoffset: 0; stroke-linejoin: miter; stroke-miterlimit: 4; fill: rgb(0,0,0); fill-rule: nonzero; opacity: 0.1;" vector-effect="non-scaling-stroke"  transform=" translate(-525.56, -650.66)" d="M 528.28786 661.00711 C 532.3376758689883 657.2017639372799 533.1666209089386 651.0790755216668 530.2744573635066 646.3338613793712 C 527.3822938180746 641.5886472370755 521.5605109557084 639.5195151442889 516.32234 641.3751100000001 C 520.0714455193958 638.749691245666 525.0041764414028 638.5412056166522 528.9614459801618 640.8409085602478 C 532.9187155189207 643.1406115038435 535.1796957547314 647.5296055776267 534.7547416760548 652.0868009719661 C 534.3297875973782 656.6439963663055 531.2963058002271 660.5392869578767 526.98207 662.0676800000001 C 527.4419494623063 661.7455913541476 527.8783157823968 661.3911721687514 528.28786 661.00711 Z" stroke-linecap="round" />
</g>
<g transform="matrix(-0.62 0 0 0.72 248.99 489.08)" id="0_1dEY9fImWvWbogXW2T3"  >
<path style="stroke: none; stroke-width: 1; stroke-dasharray: none; stroke-linecap: butt; stroke-dashoffset: 0; stroke-linejoin: miter; stroke-miterlimit: 4; fill: rgb(242,242,242); fill-rule: nonzero; opacity: 1;" vector-effect="non-scaling-stroke"  transform=" translate(-520.95, -653.32)" d="M 517.2848 648.66159 C 515.88405 649.9777600000001 515.8099500000001 654.71573 517.94874 656.99198 C 520.08753 659.26823 523.62935 658.22086 525.0301000000001 656.9047 C 526.4308500000001 655.5885400000001 525.1602300000001 654.50192 523.02138 652.22562 C 520.88253 649.9493200000001 518.68562 647.34543 517.2848 648.66159 Z" stroke-linecap="round" />
</g>
<g transform="matrix(-0.62 0 0 0.72 243.84 487.55)" id="BrYLkcbb15weW4OcbLk3H"  >
<path style="stroke: none; stroke-width: 1; stroke-dasharray: none; stroke-linecap: butt; stroke-dashoffset: 0; stroke-linejoin: miter; stroke-miterlimit: 4; fill: rgb(47,46,65); fill-rule: nonzero; opacity: 1;" vector-effect="non-scaling-stroke"  transform=" translate(-3.48, -3.48)" d="M 0 3.4803 C 0 1.5581800000000001 1.55818 0 3.4803 0 C 5.40242 0 6.9606 1.55818 6.9606 3.4803 C 6.9606 5.40242 5.40242 6.9606 3.4803 6.9606 C 1.5581800000000001 6.9606 0 5.40242 0 3.4803 z" stroke-linecap="round" />
</g>
<g transform="matrix(-0.62 0 0 0.72 247.74 482.76)" id="cA0ZaHDt-b5rgNM0tTOwg"  >
<path style="stroke: none; stroke-width: 1; stroke-dasharray: none; stroke-linecap: butt; stroke-dashoffset: 0; stroke-linejoin: miter; stroke-miterlimit: 4; fill: rgb(47,46,65); fill-rule: nonzero; opacity: 1;" vector-effect="non-scaling-stroke"  transform=" translate(-3.48, -3.48)" d="M 0 3.4803 C 0 1.5581800000000001 1.55818 0 3.4803 0 C 5.40242 0 6.9606 1.55818 6.9606 3.4803 C 6.9606 5.40242 5.40242 6.9606 3.4803 6.9606 C 1.5581800000000001 6.9606 0 5.40242 0 3.4803 z" stroke-linecap="round" />
</g>
<g transform="matrix(-0.62 0 0 0.72 243.84 487.55)" id="uEdyVtuUhKN2GllM2Y97j"  >
<path style="stroke: none; stroke-width: 1; stroke-dasharray: none; stroke-linecap: butt; stroke-dashoffset: 0; stroke-linejoin: miter; stroke-miterlimit: 4; fill: rgb(242,242,242); fill-rule: nonzero; opacity: 1;" vector-effect="non-scaling-stroke"  transform=" translate(-0.87, -0.87)" d="M 0 0.87007 C 0 0.38954 0.38954 0 0.87007 0 C 1.3506 0 1.74014 0.38954 1.74014 0.87007 C 1.74014 1.3506 1.3506 1.74014 0.87007 1.74014 C 0.38954 1.74014 0 1.3506 0 0.87007 z" stroke-linecap="round" />
</g>
<g transform="matrix(-0.62 0 0 0.72 243.61 486)" id="YQTIkSwl49zuP0Vr73gX-"  >
<path style="stroke: none; stroke-width: 1; stroke-dasharray: none; stroke-linecap: butt; stroke-dashoffset: 0; stroke-linejoin: miter; stroke-miterlimit: 4; fill: rgb(242,242,242); fill-rule: nonzero; opacity: 1;" vector-effect="non-scaling-stroke"  transform=" translate(-0.44, -0.44)" d="M 0 0.43504 C 0 0.19476999999999997 0.19477 0 0.43504 0 C 0.67531 0 0.87008 0.19477 0.87008 0.43504 C 0.87008 0.67531 0.67531 0.87008 0.43504 0.87008 C 0.19476999999999997 0.87008 0 0.67531 0 0.43504 z" stroke-linecap="round" />
</g>
<g transform="matrix(-0.62 0 0 0.72 247.5 481.23)" id="qsK4XJL9NjL5TdxXACyTz"  >
<path style="stroke: none; stroke-width: 1; stroke-dasharray: none; stroke-linecap: butt; stroke-dashoffset: 0; stroke-linejoin: miter; stroke-miterlimit: 4; fill: rgb(242,242,242); fill-rule: nonzero; opacity: 1;" vector-effect="non-scaling-stroke"  transform=" translate(-0.44, -0.44)" d="M 0 0.43504 C 0 0.19476999999999997 0.19477 0 0.43504 0 C 0.67531 0 0.87008 0.19477 0.87008 0.43504 C 0.87008 0.67531 0.67531 0.87008 0.43504 0.87008 C 0.19476999999999997 0.87008 0 0.67531 0 0.43504 z" stroke-linecap="round" />
</g>
<g transform="matrix(-0.62 0 0 0.72 247.74 482.76)" id="BsUvxG6_6lqwzRLr7Z3rR"  >
<path style="stroke: none; stroke-width: 1; stroke-dasharray: none; stroke-linecap: butt; stroke-dashoffset: 0; stroke-linejoin: miter; stroke-miterlimit: 4; fill: rgb(242,242,242); fill-rule: nonzero; opacity: 1;" vector-effect="non-scaling-stroke"  transform=" translate(-0.87, -0.87)" d="M 0 0.87007 C 0 0.38954 0.38954 0 0.87007 0 C 1.3506 0 1.74014 0.38954 1.74014 0.87007 C 1.74014 1.3506 1.3506 1.74014 0.87007 1.74014 C 0.38954 1.74014 0 1.3506 0 0.87007 z" stroke-linecap="round" />
</g>
<g transform="matrix(-0.62 0 0 0.72 180.85 561.7)" id="y_P-DlBIny5ZMMimpWSFk"  >
<path style="stroke: none; stroke-width: 1; stroke-dasharray: none; stroke-linecap: butt; stroke-dashoffset: 0; stroke-linejoin: miter; stroke-miterlimit: 4; fill: rgb(255,184,184); fill-rule: nonzero; opacity: 1;" vector-effect="non-scaling-stroke"  transform=" translate(-413.33, -636.3)" d="M 431.99 654.69 L 437.297 643.639 L 397.196 617.909 L 389.363 634.22 z" stroke-linecap="round" />
</g>
<g transform="matrix(-0.62 0 0 0.72 162.52 567.21)" id="vDEcsGmTIq3n5_NFx60yP"  >
<path style="stroke: none; stroke-width: 1; stroke-dasharray: none; stroke-linecap: butt; stroke-dashoffset: 0; stroke-linejoin: miter; stroke-miterlimit: 4; fill: rgb(47,46,65); fill-rule: nonzero; opacity: 1;" vector-effect="non-scaling-stroke"  transform=" translate(-659.75, -762.08)" d="M 675.01215 744.90787 C 671.3339064028892 743.1394876000085 667.1035817243106 742.9057223383005 663.2528889590002 744.2580601287481 C 659.4021961936897 745.6103979191956 656.2469746760905 748.4379180798048 654.48215 752.11787 L 650.90231 759.5678700000001 L 645.3823100000001 771.0678700000001 L 644.03222 773.8878700000001 L 658.3520400000001 780.7678700000001 L 675.4621500000001 745.1278700000001 Z" stroke-linecap="round" />
</g>
<g transform="matrix(-0.62 0 0 0.72 240.56 549.7)" id="NpAqKc62i--6V5NXFpQjC"  >
<path style="stroke: none; stroke-width: 1; stroke-dasharray: none; stroke-linecap: butt; stroke-dashoffset: 0; stroke-linejoin: miter; stroke-miterlimit: 4; fill: rgb(47,46,65); fill-rule: nonzero; opacity: 1;" vector-effect="non-scaling-stroke"  transform=" translate(-534.48, -737.7)" d="M 646.9621 750.58786 L 644.64203 755.54786 L 638.85203 767.92786 L 638.71214 768.23786 C 626.34226 768.86786 613.15232 764.74786 601.10203 758.99786 C 596.2806660871234 756.6983441187641 591.5811438264236 754.1516262358679 587.0222 751.36786 C 580.2722 747.2778599999999 574.2722 743.0478599999999 569.5022 739.45786 C 562.32226 734.02786 557.93213 730.02786 557.93213 730.02786 C 557.93213 730.02786 556.6123 731.04786 554.2321800000001 732.78786 C 551.0422300000001 735.1178600000001 545.9521800000001 738.7478600000001 539.53218 742.9878600000001 Q 535.85724 745.4328600000001 531.65229 748.0878600000001 C 510.99214 761.0778600000001 481.61229 776.89786 456.62202 780.2378600000001 C 412.73213000000004 786.1078600000001 423.0622 727.53786 423.0622 727.53786 L 457.99214 709.39786 L 472.82221 712.40786 L 489.33221 715.7478600000001 L 495.18206999999995 716.9378600000001 C 495.18206999999995 716.9378600000001 496.29216999999994 716.5178600000002 498.20206999999994 715.7878600000001 C 504.35196999999994 713.4378600000001 518.80216 707.8878600000002 531.2821499999999 702.9278100000001 C 537.7120799999999 700.3678100000002 543.6122199999999 697.9578100000001 547.5821499999998 696.2278100000001 C 561.6419699999998 690.0778100000001 577.3821499999998 704.9778100000001 577.3821499999998 704.9778100000001 Z" stroke-linecap="round" />
</g>
<g transform="matrix(-0.62 0 0 0.72 346.69 567.17)" id="Dmu9EqTWwPqfCmfgImPeA"  >
<path style="stroke: none; stroke-width: 1; stroke-dasharray: none; stroke-linecap: butt; stroke-dashoffset: 0; stroke-linejoin: miter; stroke-miterlimit: 4; fill: rgb(255,184,184); fill-rule: nonzero; opacity: 1;" vector-effect="non-scaling-stroke"  transform=" translate(-364.11, -762.02)" d="M 359.14474 781.63626 C 361.8495137640291 781.0156282693749 364.14046635916407 779.2288283859186 365.4011501747091 776.7566509697809 C 366.661833990254 774.2844735536431 366.76274860547466 771.3808665111683 365.67674 768.82713 L 380.67716 753.5253 L 373.60158 742.1416 L 352.72158 764.0482800000001 C 348.45878488111725 766.2043998945805 346.48235865291434 771.2080973632891 348.1210942013307 775.6952814499667 C 349.75982974974715 780.1824655366443 354.4957430200935 782.7347928059509 359.14478 781.63628 Z" stroke-linecap="round" />
</g>
<g transform="matrix(-0.62 0 0 0.72 304.42 454.31)" id="ET_XvMGj_a4bzlogeNUYM"  >
<path style="stroke: none; stroke-width: 1; stroke-dasharray: none; stroke-linecap: butt; stroke-dashoffset: 0; stroke-linejoin: miter; stroke-miterlimit: 4; fill: rgb(255,184,184); fill-rule: nonzero; opacity: 1;" vector-effect="non-scaling-stroke"  transform=" translate(-23.39, -23.39)" d="M 0 23.38625 C 0 10.47038 10.47038 0 23.38625 0 C 36.30212 0 46.7725 10.47038 46.7725 23.38625 C 46.7725 36.30212 36.30212 46.7725 23.38625 46.7725 C 10.47038 46.7725 0 36.30212 0 23.38625 z" stroke-linecap="round" />
</g>
<g transform="matrix(-0.62 0 0 0.72 300.84 513.54)" id="OpBOUUocIcKpL8XawyVKX"  >
<path style="stroke: none; stroke-width: 1; stroke-dasharray: none; stroke-linecap: butt; stroke-dashoffset: 0; stroke-linejoin: miter; stroke-miterlimit: 4; fill: rgb(204,204,204); fill-rule: nonzero; opacity: 1;" vector-effect="non-scaling-stroke"  transform=" translate(-437.71, -687.37)" d="M 401.53314 669.83389 L 421.905 727.58975 L 421.78267999999997 727.7918999999999 C 418.94919 732.4759799999999 418.02315999999996 736.2543 419.10495 738.71817 C 419.68181723701997 739.9859036532547 420.78487007432665 740.9374696661903 422.1235 741.32217 L 470.33223999999996 707.62539 L 468.64423999999997 694.1200200000001 L 468.73823999999996 693.96914 C 473.39790999999997 686.51358 474.90669999999994 679.7616300000001 473.22335 673.9017600000001 C 471.03902 666.29776 464.09785999999997 662.8456100000001 464.02803 662.8114300000001 L 463.86003 662.67911 L 439.81512 633.414 L 407.673 639.12442 Z" stroke-linecap="round" />
</g>
<g transform="matrix(-0.62 0 0 0.72 324.57 526.46)" id="Id-YL67BoXlUF3hdRhiTf"  >
<path style="stroke: none; stroke-width: 1; stroke-dasharray: none; stroke-linecap: butt; stroke-dashoffset: 0; stroke-linejoin: miter; stroke-miterlimit: 4; fill: rgb(204,204,204); fill-rule: nonzero; opacity: 1;" vector-effect="non-scaling-stroke"  transform=" translate(-399.61, -705.36)" d="M 370.55316 771.20938 L 356.9057 754.4125 L 389.80511 700.10293 L 405.14374000000004 652.69034 L 405.61957 652.84414 L 405.14374000000004 652.69034 C 407.4319448899536 645.6173231558357 413.62618718188384 640.5219748147617 421.0077084794451 639.640730109877 C 428.38922977700645 638.7594854049922 435.60890449761695 642.2534100201777 439.4978944944197 648.5889609592049 C 443.3868844912224 654.9245118982319 443.23439646245924 662.9437362802471 439.10736 669.12686 L 410.94769 711.3158599999999 Z" stroke-linecap="round" />
</g>
<g transform="matrix(-0.62 0 0 0.72 301.8 441.21)" id="mMEA16RtTCHL1UlbFqmDo"  >
<path style="stroke: none; stroke-width: 1; stroke-dasharray: none; stroke-linecap: butt; stroke-dashoffset: 0; stroke-linejoin: miter; stroke-miterlimit: 4; fill: rgb(47,46,65); fill-rule: nonzero; opacity: 1;" vector-effect="non-scaling-stroke"  transform=" translate(-436.17, -586.69)" d="M 465.17131 600.18653 L 429.70573 600.18653 L 429.34196000000003 595.0947299999999 L 427.52360000000004 600.18653 L 422.06267 600.18653 L 421.34196000000003 590.0947299999999 L 417.73796000000004 600.18653 L 407.17131 600.18653 L 407.17131 599.68653 C 407.18770498334953 585.0578781212078 419.0424082765291 573.2030629901495 433.67106 573.18653 L 438.67131 573.18653 C 453.3000023189393 573.2030627251766 465.1547772748234 585.0578376810607 465.17131 599.68653 Z" stroke-linecap="round" />
</g>
<g transform="matrix(-0.62 0 0 0.72 312.94 456.57)" id="yHPFDLg3TKf_QxerPe-Q-"  >
<path style="stroke: none; stroke-width: 1; stroke-dasharray: none; stroke-linecap: butt; stroke-dashoffset: 0; stroke-linejoin: miter; stroke-miterlimit: 4; fill: rgb(47,46,65); fill-rule: nonzero; opacity: 1;" vector-effect="non-scaling-stroke"  transform=" translate(-418.28, -608.07)" d="M 429.41548 631.85328 C 429.1484785887823 631.8530146361179 428.88200786503864 631.8294890310923 428.61909 631.7829700000001 L 402.64961000000005 627.2009700000001 L 402.64961000000005 584.281 L 431.237 584.281 L 430.52923000000004 585.1062 C 420.68207000000007 596.59057 428.10077000000007 615.2126499999999 433.39935 625.29077 C 434.19634553892854 626.7970739744553 434.05939556272415 628.6268833303674 433.04706000000004 629.99777 C 432.20432661725033 631.1630844065423 430.8535889032707 631.8532268061773 429.41548 631.85328 Z" stroke-linecap="round" />
</g>
<g transform="matrix(0.74 0 0 0.75 759.22 495.43)" id="HCPzioJasvYjY62-DcndG"  >
<path style="stroke: none; stroke-width: 1; stroke-dasharray: none; stroke-linecap: butt; stroke-dashoffset: 0; stroke-linejoin: miter; stroke-miterlimit: 4; fill: rgb(63,61,86); fill-rule: nonzero; opacity: 1;" vector-effect="non-scaling-stroke"  transform=" translate(-114, -114)" d="M 0 113.99999 C 0 51.03953 51.03953 0 113.99999 0 C 176.96044999999998 0 227.99998 51.03953 227.99998 113.99999 C 227.99998 176.96044999999998 176.96044999999998 227.99998 113.99999 227.99998 C 51.03953 227.99998 0 176.96044999999998 0 113.99999 z" stroke-linecap="round" />
</g>
<g transform="matrix(0.74 0 0 0.75 767.92 498.59)" id="wqzaTKO3im82ICEx_m-uz"  >
<path style="stroke: none; stroke-width: 1; stroke-dasharray: none; stroke-linecap: butt; stroke-dashoffset: 0; stroke-linejoin: miter; stroke-miterlimit: 4; fill: rgb(242,242,242); fill-rule: nonzero; opacity: 1;" vector-effect="non-scaling-stroke"  transform=" translate(-816.91, -446.99)" d="M 775.99213 398.48812 L 775.99213 495.47934 C 775.9415191423626 496.3944494565538 776.3962411534541 497.2637566200294 777.176791890181 497.744097461287 C 777.9573426269079 498.2244383025447 778.9382940832776 498.2386260468098 779.73241 497.78105999999997 L 856.61574 449.28544 C 857.3796699829761 448.77573384077624 857.8384614881946 447.91808234006004 857.8384614881946 446.99972 C 857.8384614881946 446.08135765993995 857.3796699829761 445.22370615922375 856.61574 444.714 L 779.73241 396.21837 C 778.945428224882 395.7472387160962 777.9623745393785 395.7501892801158 777.17823505026 396.2260361700349 C 776.3940955611416 396.701883059954 775.9375861348115 397.57251639154765 775.99213 398.48812 Z" stroke-linecap="round" />
</g>
</svg>