<?xml version="1.0" encoding="UTF-8" standalone="no" ?>
<!DOCTYPE svg PUBLIC "-//W3C//DTD SVG 1.1//EN" "http://www.w3.org/Graphics/SVG/1.1/DTD/svg11.dtd">
<svg xmlns="http://www.w3.org/2000/svg" xmlns:xlink="http://www.w3.org/1999/xlink" version="1.1" width="1000" height="450" viewBox="0 0 1000 450" xml:space="preserve">
<desc>Created with Fabric.js 4.6.0</desc>
<defs>
</defs>
<g transform="matrix(0.62 0 0 0.52 625.22 277.24)" id="XGQ5rctOML331o_cx3SEy"  >
<linearGradient id="SVGID_151" gradientUnits="userSpaceOnUse" gradientTransform="matrix(1 0 0 1 324.01 120.75)"  x1="477.09" y1="779.22" x2="477.09" y2="120.78">
<stop offset="0%" style="stop-color:rgb(128,128,128);stop-opacity: 0.25"/>
<stop offset="54%" style="stop-color:rgb(128,128,128);stop-opacity: 0.12"/>
<stop offset="100%" style="stop-color:rgb(128,128,128);stop-opacity: 0.1"/>
</linearGradient>
<path style="stroke: none; stroke-width: 1; stroke-dasharray: none; stroke-linecap: butt; stroke-dashoffset: 0; stroke-linejoin: miter; stroke-miterlimit: 4; fill: url(#SVGID_151); fill-rule: nonzero; opacity: 0.7;" vector-effect="non-scaling-stroke"  transform=" translate(-477.04, -449.98)" d="M 506.4 473.94 L 505.81 473.8 L 505.81 451.2 C 552.4492671563171 439.6818929360291 587.75513123899 401.5056333994804 595.6 354.11 L 595.89 354.11 C 601.66 354.11 606.33 345.34000000000003 606.33 334.53000000000003 C 606.33 327.82000000000005 604.5300000000001 321.91 601.7900000000001 318.38000000000005 Q 602.4100000000001 312.18000000000006 602.4200000000001 305.81000000000006 C 602.4576910041737 271.6355909343628 588.5018622531004 238.9358772190695 563.8000000000001 215.32000000000008 C 562.121761210853 206.96400820423565 559.1278466265833 198.92735586472452 554.9300000000001 191.51 C 546.0300000000001 175.83000000000004 531.22 159.51000000000005 537.2600000000001 142.51000000000005 L 498.1600000000001 146.51000000000005 L 497.80000000000007 120.75000000000004 C 485.6000000000001 122.94000000000004 480.49000000000007 137.08000000000004 473.25000000000006 147.15000000000003 C 455.84000000000003 171.37000000000003 420.90000000000003 174.74000000000004 397.7900000000001 193.60000000000002 C 389.94000000000005 200.01000000000002 372.2800000000001 219.50000000000003 375.6000000000001 232.28000000000003 C 360.06874157082297 253.64774839129555 351.7212194603445 279.3941116791932 351.7600000000001 305.81000000000006 Q 351.7600000000001 312.1700000000001 352.3900000000001 318.38000000000005 C 349.6500000000001 321.91 347.8500000000001 327.82000000000005 347.8500000000001 334.53000000000003 C 347.8500000000001 345.35 352.5300000000001 354.11 358.2900000000001 354.11 L 358.5800000000001 354.11 C 366.42486876101015 401.5056333994805 401.730732843683 439.6818929360291 448.3700000000001 451.20000000000005 L 448.3700000000001 473.80000000000007 L 447.78000000000014 473.94000000000005 C 434.32 472.37 298.48 462 328.27 685.4 L 346.53999999999996 752.76 L 350.60999999999996 752.6 C 351.7103139018033 766.5536368679874 362.7093340103952 777.6818807476503 376.6491678257292 778.9450932107884 C 390.5890016410632 780.2083056739266 403.40928129176103 771.2385406339508 407 757.71 C 432.87 757.62 462.09000000000003 757.5400000000001 477 757.5400000000001 C 491.90999999999997 757.5400000000001 521.18 757.6300000000001 547 757.71 C 550.5330853871448 771.3124118661932 563.3907857774205 780.3600870747854 577.3873010968999 779.0928618217283 C 591.3838164163793 777.8256365686713 602.4074277527708 766.6157802310346 603.44 752.6 L 607.5100000000001 752.76 L 625.7800000000001 685.4 C 655.71 462 519.86 472.37 506.4 473.94 Z" stroke-linecap="round" />
</g>
<g transform="matrix(0.62 0 0 0.52 633.51 436.1)" id="7peEPvzD5fU6nmO217Vdu"  >
<path style="stroke: none; stroke-width: 1; stroke-dasharray: none; stroke-linecap: butt; stroke-dashoffset: 0; stroke-linejoin: miter; stroke-miterlimit: 4; fill: rgb(224,224,224); fill-rule: nonzero; opacity: 1;" vector-effect="non-scaling-stroke"  transform=" translate(-322.81, -10.94)" d="M 0 21.88 L 0 0 L 645.61 0 L 645.61 21.88 z" stroke-linecap="round" />
</g>
<g transform="matrix(0.62 0 0 0.52 633.51 444.09)" id="mKw2R14VJVxphFk4GACFY"  >
<path style="stroke: none; stroke-width: 1; stroke-dasharray: none; stroke-linecap: butt; stroke-dashoffset: 0; stroke-linejoin: miter; stroke-miterlimit: 4; fill: rgb(224,224,224); fill-rule: nonzero; opacity: 1;" vector-effect="non-scaling-stroke"  transform=" translate(-295.44, -4.47)" d="M 0 8.95 L 0 0 L 590.89 0 L 590.89 8.95 z" stroke-linecap="round" />
</g>
<g transform="matrix(0.62 0 0 0.52 633.51 442.54)" id="G0rUrnkUrIJFm9qPPSkA5"  >
<path style="stroke: none; stroke-width: 1; stroke-dasharray: none; stroke-linecap: butt; stroke-dashoffset: 0; stroke-linejoin: miter; stroke-miterlimit: 4; fill: rgb(0,0,0); fill-rule: nonzero; opacity: 0.1;" vector-effect="non-scaling-stroke"  transform=" translate(-295.44, -1.49)" d="M 0 2.98 L 0 0 L 590.89 0 L 590.89 2.98 z" stroke-linecap="round" />
</g>
<g transform="matrix(0.62 0 0 0.52 625.25 428.04)" id="nFGyxUJFx49Ws-_SDbMOp"  >
<path style="stroke: none; stroke-width: 1; stroke-dasharray: none; stroke-linecap: butt; stroke-dashoffset: 0; stroke-linejoin: miter; stroke-miterlimit: 4; fill: rgb(0,0,0); fill-rule: nonzero; opacity: 0.1;" vector-effect="non-scaling-stroke"  transform=" translate(-477.09, -741.31)" d="M 361 747.61 C 361 747.61 447.63 747.27 477.09000000000003 747.27 C 506.55000000000007 747.27 593.1800000000001 747.61 593.1800000000001 747.61 L 593.1800000000001 735 L 361 735 Z" stroke-linecap="round" />
</g>
<g transform="matrix(0.62 0 0 0.52 625.26 358.71)" id="EyvG4dvDDXaT8VXL7476A"  >
<path style="stroke: none; stroke-width: 1; stroke-dasharray: none; stroke-linecap: butt; stroke-dashoffset: 0; stroke-linejoin: miter; stroke-miterlimit: 4; fill: rgb(40,88,235); fill-rule: nonzero; opacity: 1;" vector-effect="non-scaling-stroke"  transform=" translate(-477.1, -607.36)" d="M 593.19 745.08 C 593.19 745.08 506.56000000000006 744.74 477.1 744.74 C 447.64 744.74 361.01 745.08 361.01 745.08 L 361.01 585.74 C 361.00999976214524 521.6291684320354 412.97916866989004 469.65552251111797 477.0899999999999 469.65 L 477.09 469.65 C 507.8807148797909 469.64734768584765 537.4112297262415 481.8770523804591 559.1844907701814 503.6484380358508 C 580.9577518141214 525.4198236912425 593.1900001142353 554.9492850059737 593.19 585.7399999999998 Z" stroke-linecap="round" />
</g>
<g transform="matrix(0.62 0 0 0.52 625.26 280.89)" id="FAu6u-ykz3_t7bXXvUgWD"  >
<path style="stroke: none; stroke-width: 1; stroke-dasharray: none; stroke-linecap: butt; stroke-dashoffset: 0; stroke-linejoin: miter; stroke-miterlimit: 4; fill: rgb(253,183,151); fill-rule: nonzero; opacity: 1;" vector-effect="non-scaling-stroke"  transform=" translate(-309.5, -336.25)" d="M 298.5 290.83 L 320.5 290.83 C 329.7562924071641 290.83 337.26 298.3337075928359 337.26 307.59 L 337.26 353.91999999999996 C 337.26 369.2514246553028 324.83142465530284 381.67999999999995 309.5 381.67999999999995 L 309.5 381.67999999999995 C 294.16857534469716 381.67999999999995 281.74 369.2514246553028 281.74 353.91999999999996 L 281.74 307.59 C 281.74 298.3337075928359 289.2437075928359 290.83 298.5 290.83 Z" stroke-linecap="round" />
</g>
<g transform="matrix(0.62 0 0 0.52 625.25 269.78)" id="dYMa7YqoVqoGWo-xagUS-"  >
<path style="stroke: none; stroke-width: 1; stroke-dasharray: none; stroke-linecap: butt; stroke-dashoffset: 0; stroke-linejoin: miter; stroke-miterlimit: 4; fill: rgb(0,0,0); fill-rule: nonzero; opacity: 0.1;" vector-effect="non-scaling-stroke"  transform=" translate(-477.09, -435.58)" d="M 449.33 453.67 C 467.5646516039818 458.1573565017371 486.61534839601813 458.1573565017371 504.8499999999999 453.67 L 504.84999999999997 414.13 L 449.33 414.13 Z" stroke-linecap="round" />
</g>
<g transform="matrix(0.62 0 0 0.52 625.26 205.12)" id="PWi267vFAvFiuuW2Bn3Yy"  >
<path style="stroke: none; stroke-width: 1; stroke-dasharray: none; stroke-linecap: butt; stroke-dashoffset: 0; stroke-linejoin: miter; stroke-miterlimit: 4; fill: rgb(51,51,51); fill-rule: nonzero; opacity: 1;" vector-effect="non-scaling-stroke"  transform=" translate(-121.14, -121.14)" d="M 0 121.14 C 0 54.236230000000006 54.23623 0 121.14 0 C 188.04377 0 242.28 54.23623 242.28 121.14 C 242.28 188.04377 188.04377 242.28 121.14 242.28 C 54.236230000000006 242.28 0 188.04377 0 121.14 z" stroke-linecap="round" />
</g>
<g transform="matrix(0.62 0 0 0.52 625.26 219.49)" id="augHAmxCMKKww6KxsZA8v"  >
<path style="stroke: none; stroke-width: 1; stroke-dasharray: none; stroke-linecap: butt; stroke-dashoffset: 0; stroke-linejoin: miter; stroke-miterlimit: 4; fill: rgb(253,183,151); fill-rule: nonzero; opacity: 1;" vector-effect="non-scaling-stroke"  transform=" translate(-116.09, -116.09)" d="M 0 116.09 C 0 51.975260000000006 51.97526 0 116.09 0 C 180.20474000000002 0 232.18 51.97526 232.18 116.09 C 232.18 180.20474000000002 180.20474000000002 232.18 116.09 232.18 C 51.975260000000006 232.18 0 180.20474000000002 0 116.09 z" stroke-linecap="round" />
</g>
<g transform="matrix(0.62 0 0 0.52 621.16 142.5)" id="XtnSq7CpdmnQ1FGKQGPZw"  >
<path style="stroke: none; stroke-width: 1; stroke-dasharray: none; stroke-linecap: butt; stroke-dashoffset: 0; stroke-linejoin: miter; stroke-miterlimit: 4; fill: rgb(51,51,51); fill-rule: nonzero; opacity: 1;" vector-effect="non-scaling-stroke"  transform=" translate(-470.5, -189.69)" d="M 400.44 202.19 C 422.77 183.96 456.55 180.71 473.38 157.29 C 480.38 147.56 485.31 133.89 497.11 131.76999999999998 L 497.46000000000004 156.67 L 535.25 152.79 C 529.42 169.20999999999998 543.73 185.01999999999998 552.33 200.17 C 558.671811782648 211.37539739957109 562.1384317029618 223.97753998402206 562.4200000000001 236.85 C 549.3000000000001 244.73 533.0300000000001 236.13 518.4200000000001 231.54 C 504.2200000000001 227.07999999999998 489.13000000000005 226.62 474.25000000000006 226.2 C 466.62000000000006 225.98 458.90000000000003 225.78 451.45000000000005 227.45 C 444.9200000000001 228.92 438.81000000000006 231.79 432.63000000000005 234.38 C 422.58000000000004 238.59 390.84000000000003 254.47 381.50000000000006 244.23 C 370.92 232.62 391.82 209.23 400.44 202.19 Z" stroke-linecap="round" />
</g>
<g transform="matrix(0.62 0 0 0.52 633.35 178.1)" id="IxhLhpsJ3ScGmQdrhv0XM"  >
<path style="stroke: none; stroke-width: 1; stroke-dasharray: none; stroke-linecap: butt; stroke-dashoffset: 0; stroke-linejoin: miter; stroke-miterlimit: 4; fill: rgb(0,0,0); fill-rule: nonzero; opacity: 0.1;" vector-effect="non-scaling-stroke"  transform=" translate(-490.15, -258.45)" d="M 406.75 280.2 C 412.91 283.93 420.15 285.4 427.28 286.38 C 457.01648762435883 290.441773606665 487.2963567273099 287.03954112318735 515.39 276.48 C 519.99 288.14000000000004 531.22 296.15000000000003 543.16 299.96000000000004 C 555.0999999999999 303.77000000000004 567.85 303.96000000000004 580.38 304.11 C 583.14 304.11 586.1 304.11 588.38 302.58000000000004 C 593.96 298.81000000000006 591.26 290.18000000000006 588.01 284.28000000000003 L 571.84 255 C 567.0600000000001 246.34 562.14 237.5 554.74 230.94 C 545.46 222.73 533.14 218.88 520.99 216.45 C 492.27214518085475 210.73643306009618 462.623275358239 211.72541313612754 434.34999999999997 219.34 C 404.13 227.47 365.31 255.12 406.75 280.2 Z" stroke-linecap="round" />
</g>
<g transform="matrix(0.62 0 0 0.52 633.35 176.78)" id="Ov8pEdZpLS0gByJsmN99E"  >
<path style="stroke: none; stroke-width: 1; stroke-dasharray: none; stroke-linecap: butt; stroke-dashoffset: 0; stroke-linejoin: miter; stroke-miterlimit: 4; fill: rgb(51,51,51); fill-rule: nonzero; opacity: 1;" vector-effect="non-scaling-stroke"  transform=" translate(-490.15, -255.91)" d="M 406.75 277.68 C 412.91 281.41 420.15 282.88 427.28 283.86 C 457.01648762435883 287.921773606665 487.2963567273099 284.51954112318737 515.39 273.96000000000004 C 519.99 285.62000000000006 531.22 293.63000000000005 543.16 297.44000000000005 C 555.0999999999999 301.25000000000006 567.85 301.44000000000005 580.38 301.59000000000003 C 583.14 301.59000000000003 586.1 301.59000000000003 588.38 300.06000000000006 C 593.96 296.2900000000001 591.26 287.6600000000001 588.01 281.76000000000005 L 571.84 252.44000000000005 C 567.0600000000001 243.78000000000006 562.14 234.94000000000005 554.74 228.38000000000005 C 545.46 220.17000000000004 533.14 216.32000000000005 520.99 213.89000000000004 C 492.27214518085475 208.17643306009623 462.623275358239 209.1654131361276 434.34999999999997 216.78000000000006 C 404.13 224.94 365.31 252.59 406.75 277.68 Z" stroke-linecap="round" />
</g>
<g transform="matrix(0.62 0 0 0.52 696.51 219.49)" id="7S0pnxgCDOqTzff5NRdKE"  >
<path style="stroke: none; stroke-width: 1; stroke-dasharray: none; stroke-linecap: butt; stroke-dashoffset: 0; stroke-linejoin: miter; stroke-miterlimit: 4; fill: rgb(253,183,151); fill-rule: nonzero; opacity: 1;" vector-effect="non-scaling-stroke"  transform=" translate(-10.1, -18.93)" d="M 0 18.93 C 0 8.475249999999999 4.52192 0 10.1 0 C 15.67808 0 20.2 8.47525 20.2 18.93 C 20.2 29.38475 15.67808 37.86 10.1 37.86 C 4.52192 37.86 0 29.384749999999997 0 18.93 z" stroke-linecap="round" />
</g>
<g transform="matrix(0.62 0 0 0.52 554.01 219.49)" id="HCmN6WhJbb4bMxmntm9hY"  >
<path style="stroke: none; stroke-width: 1; stroke-dasharray: none; stroke-linecap: butt; stroke-dashoffset: 0; stroke-linejoin: miter; stroke-miterlimit: 4; fill: rgb(253,183,151); fill-rule: nonzero; opacity: 1;" vector-effect="non-scaling-stroke"  transform=" translate(-10.1, -18.93)" d="M 0 18.93 C 0 8.475249999999999 4.52192 0 10.1 0 C 15.67808 0 20.2 8.47525 20.2 18.93 C 20.2 29.38475 15.67808 37.86 10.1 37.86 C 4.52192 37.86 0 29.384749999999997 0 18.93 z" stroke-linecap="round" />
</g>
<g transform="matrix(0.62 0 0 0.52 679.63 358.85)" id="B95mqvl90aCssfRi2nFQ1"  >
<path style="stroke: none; stroke-width: 1; stroke-dasharray: none; stroke-linecap: butt; stroke-dashoffset: 0; stroke-linejoin: miter; stroke-miterlimit: 4; fill: rgb(40,88,235); fill-rule: nonzero; opacity: 1;" vector-effect="non-scaling-stroke"  transform=" translate(-564.73, -607.64)" d="M 504.39 473.27 C 504.39 473.27 651.23 450.4 620.95 677.54 L 603.2900000000001 742.65 L 552.8100000000001 740.65 C 552.8100000000001 740.65 585.6200000000001 664.9399999999999 565.4300000000001 614.46 C 545.24 563.9800000000001 504.39 473.27 504.39 473.27 Z" stroke-linecap="round" />
</g>
<g transform="matrix(0.62 0 0 0.52 570.88 358.85)" id="AcjntwaUTSEiI-YmeDrKf"  >
<path style="stroke: none; stroke-width: 1; stroke-dasharray: none; stroke-linecap: butt; stroke-dashoffset: 0; stroke-linejoin: miter; stroke-miterlimit: 4; fill: rgb(40,88,235); fill-rule: nonzero; opacity: 1;" vector-effect="non-scaling-stroke"  transform=" translate(-389.47, -607.64)" d="M 449.8 473.27 C 449.8 473.27 303 450.4 333.24 677.54 L 350.90000000000003 742.65 L 401.38000000000005 740.65 C 401.38000000000005 740.65 368.57000000000005 664.9399999999999 388.76000000000005 614.46 C 408.95000000000005 563.9800000000001 449.8 473.27 449.8 473.27 Z" stroke-linecap="round" />
</g>
<g transform="matrix(0.62 0 0 0.52 570.33 367.17)" id="c2xvI86mpbDZ6uxczgfkA"  >
<path style="stroke: none; stroke-width: 1; stroke-dasharray: none; stroke-linecap: butt; stroke-dashoffset: 0; stroke-linejoin: miter; stroke-miterlimit: 4; fill: rgb(0,0,0); fill-rule: nonzero; opacity: 0.1;" vector-effect="non-scaling-stroke"  transform=" translate(-388.59, -623.72)" d="M 386.24 573.36 C 386.24 573.36 376.14 651.36 393.81 674.07" stroke-linecap="round" />
</g>
<g transform="matrix(0.62 0 0 0.52 680.18 367.68)" id="d_xyquOrkQ2o_MIfiJCh_"  >
<path style="stroke: none; stroke-width: 1; stroke-dasharray: none; stroke-linecap: butt; stroke-dashoffset: 0; stroke-linejoin: miter; stroke-miterlimit: 4; fill: rgb(0,0,0); fill-rule: nonzero; opacity: 0.1;" vector-effect="non-scaling-stroke"  transform=" translate(-565.6, -624.72)" d="M 567.95 575.36 C 567.95 575.36 578.0500000000001 651.36 560.38 674.07" stroke-linecap="round" />
</g>
<g transform="matrix(0.62 0 0 0.52 683.95 427.6)" id="W3VX7lUUgQp3JVAwh86lz"  >
<path style="stroke: none; stroke-width: 1; stroke-dasharray: none; stroke-linecap: butt; stroke-dashoffset: 0; stroke-linejoin: miter; stroke-miterlimit: 4; fill: rgb(253,183,151); fill-rule: nonzero; opacity: 1;" vector-effect="non-scaling-stroke"  transform=" translate(-27.76, -27.76)" d="M 0 27.76 C 0 12.428580000000002 12.42858 0 27.76 0 C 43.09142 0 55.52 12.42858 55.52 27.76 C 55.52 43.09142 43.09142 55.52 27.76 55.52 C 12.428580000000002 55.52 0 43.09142 0 27.76 z" stroke-linecap="round" />
</g>
<g transform="matrix(0.62 0 0 0.52 566.56 427.6)" id="-TYlsyMSPnncivIGp1ksP"  >
<path style="stroke: none; stroke-width: 1; stroke-dasharray: none; stroke-linecap: butt; stroke-dashoffset: 0; stroke-linejoin: miter; stroke-miterlimit: 4; fill: rgb(253,183,151); fill-rule: nonzero; opacity: 1;" vector-effect="non-scaling-stroke"  transform=" translate(-27.76, -27.76)" d="M 0 27.76 C 0 12.428580000000002 12.42858 0 27.76 0 C 43.09142 0 55.52 12.42858 55.52 27.76 C 55.52 43.09142 43.09142 55.52 27.76 55.52 C 12.428580000000002 55.52 0 43.09142 0 27.76 z" stroke-linecap="round" />
</g>
<g transform="matrix(0.62 0 0 0.52 625.21 387.39)" id="2uLcmBfQAwj7CEvV_FBFt"  >
<linearGradient id="SVGID_152" gradientUnits="userSpaceOnUse" gradientTransform="matrix(1 0 0 1 0 0)"  x1="309.42" y1="623" x2="309.42" y2="461">
<stop offset="0%" style="stop-color:rgb(128,128,128);stop-opacity: 0.25"/>
<stop offset="54%" style="stop-color:rgb(128,128,128);stop-opacity: 0.12"/>
<stop offset="100%" style="stop-color:rgb(128,128,128);stop-opacity: 0.1"/>
</linearGradient>
<path style="stroke: none; stroke-width: 1; stroke-dasharray: none; stroke-linecap: butt; stroke-dashoffset: 0; stroke-linejoin: miter; stroke-miterlimit: 4; fill: url(#SVGID_152); fill-rule: nonzero; opacity: 0.7;" vector-effect="non-scaling-stroke"  transform=" translate(-91.39, -81)" d="M 0 162 L 0 0 L 182.77 0 L 182.77 162 z" stroke-linecap="round" />
</g>
<g transform="matrix(0.62 0 0 0.52 625.21 387.39)" id="DildEiPv-nNyHHCxRAVUU"  >
<path style="stroke: none; stroke-width: 1; stroke-dasharray: none; stroke-linecap: butt; stroke-dashoffset: 0; stroke-linejoin: miter; stroke-miterlimit: 4; fill: rgb(224,224,224); fill-rule: nonzero; opacity: 1;" vector-effect="non-scaling-stroke"  transform=" translate(-88, -78)" d="M 0 156 L 0 0 L 176 0 L 176 156 z" stroke-linecap="round" />
</g>
<g transform="matrix(0.62 0 0 0.52 625.2 387.5)" id="eBp1aJaGEZD5k5JPIRTJn"  >
<path style="stroke: none; stroke-width: 1; stroke-dasharray: none; stroke-linecap: butt; stroke-dashoffset: 0; stroke-linejoin: miter; stroke-miterlimit: 4; fill: rgb(103,98,166); fill-rule: nonzero; opacity: 1;" vector-effect="non-scaling-stroke"  transform=" translate(-477, -663)" d="M 443.45 729.71 L 443.45 718 C 443.45915777725645 717.6590488683112 443.31780039159946 717.3313454813103 443.06351714417957 717.1040316692229 C 442.8092338967597 716.8767178571354 442.46779690678744 716.7728323325889 442.13 716.82 C 440.4648897148355 716.8521335337814 438.8228916309669 717.2158888028787 437.3 717.8900000000001 L 437.3 729.6800000000001 L 434 729.6800000000001 L 434 708 L 437.29 708 L 437.29 715.16 C 438.9783488515926 714.5006478516443 440.76812199428963 714.1386332462217 442.58000000000004 714.0899999999999 C 445.58000000000004 714.0899999999999 446.69000000000005 715.93 446.69000000000005 718.4499999999999 L 446.69000000000005 729.6999999999999 L 443.43000000000006 729.6999999999999 Z M 452.86 722.63 C 452.97 726.55 453.74 727.32 456.15000000000003 727.32 C 458.10167078089347 727.2295145250674 460.0231378504064 726.8032735906332 461.83000000000004 726.0600000000001 L 462.38000000000005 728.5300000000001 C 460.37228975306635 729.5120498536164 458.1745569596567 730.0444199091629 455.94000000000005 730.09 C 450.45000000000005 730.09 449.6000000000001 727.09 449.6000000000001 722.27 C 449.5358821881435 719.8401917418536 449.81188858556374 717.413355003561 450.4200000000001 715.06 C 452.5460001526146 714.3348693612746 454.7846448218056 713.9961939196421 457.0300000000001 714.06 C 461.5300000000001 714.06 462.9000000000001 716.56 462.9000000000001 720.92 L 462.9000000000001 722.5899999999999 L 452.9000000000001 722.5899999999999 Z M 457.03000000000003 716.84 C 455.744576472126 716.8178833033969 454.4596813183089 716.9082274938996 453.19000000000005 717.11 C 452.9691612643506 718.1764003875825 452.84863546493324 719.2611325823381 452.83000000000004 720.35 L 459.69000000000005 720.35 C 459.69000000000005 718.07 459.28000000000003 716.84 457.03000000000003 716.84 Z M 469.03000000000003 717.9100000000001 L 469.03000000000003 729.7 L 465.74 729.7 L 465.74 716.43 C 468.10697527224494 715.1987494045693 470.7067295227429 714.4798134322822 473.37 714.3199999999999 L 473.37 717.06 C 471.89080889278557 717.1126606745697 470.4293261809936 717.3995568189168 469.04 717.91 Z M 482.03000000000003 730.09 C 477.12 730.09 474.90000000000003 727.6800000000001 474.90000000000003 722.1600000000001 C 474.90000000000003 716.32 477.83000000000004 714.1000000000001 482.03000000000003 714.1000000000001 C 486.94000000000005 714.1000000000001 489.16 716.5100000000001 489.16 722.0300000000001 C 489.16 727.8700000000001 486.22 730.09 482.03000000000003 730.09 Z M 482.03000000000003 716.84 C 479.51000000000005 716.84 478.11 718.2900000000001 478.11 722.1600000000001 C 478.11 726.3800000000001 479.29 727.32 482.03000000000003 727.32 C 484.55 727.32 485.95000000000005 725.8900000000001 485.95000000000005 722.0300000000001 C 485.95000000000005 717.8100000000001 484.77000000000004 716.8500000000001 482.03000000000003 716.8500000000001 Z M 505.03000000000003 729.7 L 501.16 729.7 C 500.2482402758968 727.1262405352156 498.85324241537546 724.7503317703374 497.05 722.7 L 495.32 722.7 L 495.32 729.7 L 492.1 729.7 L 492.1 708 L 495.39000000000004 708 L 495.39000000000004 720.45 L 496.93000000000006 720.45 C 498.5694381966014 718.6983119826323 499.8803222954792 716.6659335347598 500.80000000000007 714.45 L 504.50000000000006 714.45 C 503.2982544352887 716.8977881575576 501.7151824182969 719.1390670899299 499.81000000000006 721.09 C 501.87901800480853 723.7498695199497 503.65276963016987 726.6267672412351 505.1000000000001 729.6700000000001 Z M 511.20000000000005 730.08 C 508.20000000000005 730.08 507.09000000000003 728.24 507.09000000000003 725.72 L 507.09000000000003 714.49 L 510.35 714.49 L 510.35 726.15 C 510.34084222274356 726.4909511316888 510.48219960840055 726.8186545186896 510.73648285582044 727.0459683307771 C 510.99076610324033 727.2732821428646 511.33220309321257 727.3771676674111 511.67 727.3299999999999 C 513.3901562227718 727.2998296892047 515.0881495804019 726.9364591106718 516.6700000000001 726.2599999999999 L 516.6700000000001 714.49 L 520 714.49 L 520 727.71 C 517.3498878355364 729.257140271921 514.3386471415921 730.0780741609917 511.27 730.09 Z M 509.75000000000006 702.47 L 444.18 702.47 C 441.4836687735279 702.4753090498252 438.895808582034 701.4086003858323 436.98639939617067 699.5048181425599 C 435.07699021030726 697.6010358992875 434.0026486477333 695.0163351522992 434 692.32 L 434 606.07 C 434 600.4587869417192 438.5487869417192 595.9100000000001 444.16 595.9100000000001 L 509.79 595.9100000000001 C 512.492443496447 595.8993695521751 515.0879918712295 596.9647808236399 517.0036075588661 598.871015435431 C 518.9192232465025 600.777250047222 519.9973636176455 603.3675368813992 520 606.07 L 520 692.32 C 520.0000013060393 695.0163330423815 518.9282032047839 697.6020854189454 517.0206702333421 699.5077427434143 C 515.1131372619003 701.4134000678832 512.5263317363425 702.4826538711051 509.83 702.48 Z" stroke-linecap="round" />
</g>
<g transform="matrix(0.62 0 0 0.52 626.36 380.32)" id="i0TY-F1CvPaVVDRvja34U"  >
<path style="stroke: none; stroke-width: 1; stroke-dasharray: none; stroke-linecap: butt; stroke-dashoffset: 0; stroke-linejoin: miter; stroke-miterlimit: 4; fill: rgb(255,255,255); fill-rule: nonzero; opacity: 1;" vector-effect="non-scaling-stroke"  transform=" translate(-478.88, -649.13)" d="M 487.89 687.82 L 487.89 645.5 C 487.89 645.5 490.64 635.37 453.98 649.64 C 453.91 649.8199999999999 453.91 610.5 453.91 610.5 L 465.91 610.43 L 465.91 635.62 C 465.91 635.62 499.45000000000005 622.41 499.45000000000005 645.62 L 499.45000000000005 687.8 L 487.89 687.8 Z M 494.71999999999997 625.6700000000001 L 482 625.6700000000001 C 486.57 620.08 490.71 610.5000000000001 490.71 610.5000000000001 L 503.84999999999997 610.5000000000001 C 503.84999999999997 610.5000000000001 501.59999999999997 616.7400000000001 494.7 625.6700000000001 Z M 454.13 687.7400000000001 L 454.13 663.6400000000001 L 466.18 675.69 L 454.13 687.74 Z" stroke-linecap="round" />
</g>
<g transform="matrix(0.62 0 0 0.52 913.13 349.09)" id="vRhll40piLbDamrLbppSP"  >
<linearGradient id="SVGID_153" gradientUnits="userSpaceOnUse" gradientTransform="matrix(1 0 0 1 0 0)"  x1="773.42" y1="549" x2="773.42" y2="387">
<stop offset="0%" style="stop-color:rgb(128,128,128);stop-opacity: 0.25"/>
<stop offset="54%" style="stop-color:rgb(128,128,128);stop-opacity: 0.12"/>
<stop offset="100%" style="stop-color:rgb(128,128,128);stop-opacity: 0.1"/>
</linearGradient>
<path style="stroke: none; stroke-width: 1; stroke-dasharray: none; stroke-linecap: butt; stroke-dashoffset: 0; stroke-linejoin: miter; stroke-miterlimit: 4; fill: url(#SVGID_153); fill-rule: nonzero; opacity: 0.7;" vector-effect="non-scaling-stroke"  transform=" translate(-91.39, -81)" d="M 0 162 L 0 0 L 182.77 0 L 182.77 162 z" stroke-linecap="round" />
</g>
<g transform="matrix(0.62 0 0 0.52 913.12 349.09)" id="qZuAVk4FKwYQKFT6KKC-i"  >
<path style="stroke: none; stroke-width: 1; stroke-dasharray: none; stroke-linecap: butt; stroke-dashoffset: 0; stroke-linejoin: miter; stroke-miterlimit: 4; fill: rgb(224,224,224); fill-rule: nonzero; opacity: 1;" vector-effect="non-scaling-stroke"  transform=" translate(-88, -78)" d="M 0 156 L 0 0 L 176 0 L 176 156 z" stroke-linecap="round" />
</g>
<g transform="matrix(0.62 0 0 0.52 913.11 338.45)" id="IEtRb78Dpm2cVE14RhvhR"  >
<path style="stroke: none; stroke-width: 1; stroke-dasharray: none; stroke-linecap: butt; stroke-dashoffset: 0; stroke-linejoin: miter; stroke-miterlimit: 4; fill: rgb(37,47,62); fill-rule: nonzero; opacity: 1;" vector-effect="non-scaling-stroke"  transform=" translate(-941, -568.23)" d="M 909.6 577 C 909.5641736678659 578.4384386371 909.7428001824333 579.8741913768298 910.13 581.26 C 910.5545563040201 582.4460238509776 911.0659412613385 583.5991467939504 911.66 584.71 C 911.874578136824 585.0373708473861 911.992426764556 585.4186458194603 912 585.8100000000001 C 911.9408863451425 586.4067026362707 911.603565224528 586.940485508452 911.09 587.2500000000001 L 908.09 589.2500000000001 C 907.7243868976293 589.5125616078111 907.2897667038015 589.6620709544878 906.84 589.6800000000001 C 906.293317818646 589.6437646211162 905.7798272852884 589.4048488868458 905.4 589.0100000000001 C 904.7561540367697 588.3166276675292 904.1801914451111 587.5631882307665 903.68 586.7600000000001 C 903.1999999999999 585.9500000000002 902.68 585.0400000000001 902.1999999999999 583.9300000000001 C 898.7790637349151 588.189189968822 893.5821972465538 590.6289120915541 888.1199999999999 590.5400000000001 C 884.1199999999999 590.5400000000001 880.8899999999999 589.3900000000001 878.5399999999998 587.09 C 873.5118153421166 581.5988866243204 873.8740702293535 573.0747160678567 879.3499999999998 568.0300000000001 C 882.2699999999998 565.5400000000001 886.1499999999997 564.2900000000001 891.0799999999998 564.2900000000001 C 892.7799368502479 564.302653236045 894.4770988538006 564.4296062993028 896.1599999999999 564.6700000000001 C 897.9299999999998 564.9100000000001 899.7499999999999 565.2900000000001 901.6699999999998 565.72 L 901.6699999999998 562.22 C 901.6699999999998 558.58 900.8999999999999 556.0400000000001 899.4199999999998 554.5600000000001 C 897.9399999999998 553.08 895.2999999999998 552.36 891.6099999999999 552.36 C 889.8680797664987 552.3592755624496 888.1323566429473 552.5674280453513 886.4399999999999 552.98 C 884.6802049697458 553.4000863979278 882.9525135315776 553.9447937565765 881.27 554.61 C 880.7240776963522 554.8529784223131 880.1628861250018 555.0600848355494 879.59 555.23 C 879.3407193098262 555.3107729395861 879.081758800737 555.3578566685113 878.82 555.37 C 878.1500000000001 555.37 877.82 554.89 877.82 553.89 L 877.82 551.54 C 877.7675382593463 550.9588513423881 877.8856951442964 550.3750173226348 878.1600000000001 549.86 C 878.5217360638867 549.4258476626243 878.980853671271 549.0832225824868 879.5000000000001 548.86 C 881.4097188674183 547.9103444726162 883.4231840634587 547.1854970020415 885.5000000000001 546.7 C 887.9399087061352 546.0735172558719 890.451045103743 545.7676090735663 892.9700000000001 545.7900000000001 C 898.6700000000002 545.7900000000001 902.8400000000001 547.08 905.5200000000001 549.6700000000001 C 908.2 552.2600000000001 909.5200000000001 556.1800000000001 909.5200000000001 561.45 L 909.5200000000001 577 Z M 890.16 584.28 C 891.8390355111391 584.2619130131334 893.5040092257989 583.9714713509412 895.0899999999999 583.42 C 896.8484307982432 582.8109509856306 898.4169976338911 581.752599296523 899.6399999999999 580.3499999999999 C 900.4131928390705 579.4663226535008 900.9711165153865 578.4155093490283 901.2699999999999 577.2799999999999 C 901.5997448181532 575.9148271176025 901.7609463133875 574.5143891277545 901.7499999999999 573.1099999999999 L 901.7499999999999 571.1099999999999 C 900.296300866576 570.757758279121 898.8239883913612 570.4873335387755 897.3399999999999 570.3 C 895.847511469154 570.10962602498 894.3445785423985 570.012770347478 892.8399999999999 570.01 C 889.6299999999999 570.01 887.28 570.63 885.6999999999999 571.93 C 883.2385991471865 573.7184917914808 882.2544538127864 576.9178291456278 883.28511156224 579.7805099957955 C 884.3157693116935 582.6431908459631 887.113433924915 584.480954230295 890.15 584.29 Z M 928.62 589.4499999999999 C 927.9751804296177 589.5162308056109 927.3282870758594 589.3456215694549 926.8 588.9699999999999 C 926.3003461138477 588.4509942404554 925.9542164051597 587.8037316852088 925.8 587.0999999999999 L 914.55 550.0999999999999 C 914.3318589436485 549.4790800199186 914.1875334286403 548.8346498133708 914.12 548.18 C 914.0716855881983 547.8583158183753 914.1751948840165 547.5324039610018 914.4002662802412 547.2975468518978 C 914.6253376764658 547.0626897427937 914.9465519331509 546.9454118062508 915.27 546.9799999999999 L 919.96 546.9799999999999 C 920.6215145418897 546.899169758341 921.2891981323595 547.0705537815633 921.83 547.4599999999999 C 922.3288060968665 547.9796217873037 922.6748005200805 548.6266313587139 922.83 549.3299999999999 L 930.83 581.04 L 938.3000000000001 549.3299999999999 C 938.39794085938 548.6261161177964 938.7165401527913 547.971412075292 939.21 547.4599999999999 C 939.7855670235311 547.1067346899711 940.455904245106 546.9391503845773 941.13 546.9799999999999 L 944.96 546.9799999999999 C 945.6366071534216 546.9081736375188 946.316794329325 547.0782204314947 946.88 547.4599999999999 C 947.381195155768 547.9659653406128 947.7011184257738 548.6233900822731 947.79 549.3299999999999 L 955.36 581.42 L 963.65 549.3299999999999 C 963.8140190629168 548.6299245106233 964.158829831201 547.9851283739316 964.65 547.4599999999999 C 965.2069082941957 547.1063177668354 965.8615954476518 546.9382697274457 966.52 546.9799999999999 L 970.97 546.9799999999999 C 971.300556941429 546.9324972931792 971.634171427963 547.043548149656 971.8703116391534 547.2796883608465 C 972.106451850344 547.515828572037 972.2175027068208 547.849443058571 972.1700000000001 548.18 C 972.1576028666503 548.4389537978017 972.1241592234732 548.6964698502661 972.07 548.9499999999999 C 971.9936119535611 549.3595581152201 971.8798014228054 549.7612423414168 971.73 550.15 L 960.19 587.15 C 960.0479385195154 587.8581542365079 959.7000810633809 588.5086476794793 959.19 589.02 C 958.648831781831 589.3672432140658 958.0120299740355 589.5351909435942 957.37 589.5 L 953.25 589.5 C 952.5733928465785 589.5718263624811 951.893205670675 589.4017795685052 951.33 589.02 C 950.8293455680252 588.4936472025321 950.5104345226622 587.8207799419858 950.4200000000001 587.1 L 943.0000000000001 556.21 L 935.6200000000001 587.0500000000001 C 935.5086640714466 587.7645167676485 935.1925730221036 588.431434146482 934.7100000000002 588.97 C 934.1427198273949 589.3425741944029 933.4658703614297 589.5117865608942 932.7900000000002 589.45 Z M 990.16 590.7399999999999 C 987.6747884746108 590.7437046769732 985.1977680325991 590.4550545983647 982.78 589.8799999999999 C 980.8655619646856 589.4899181306736 979.0122834666271 588.8441296159236 977.27 587.9599999999999 C 976.6553821873698 587.6689598396698 976.1404848982337 587.2027690508573 975.79 586.6199999999999 C 975.602806960098 586.1978347395731 975.5041102051451 585.7417876649636 975.5 585.2799999999999 L 975.5 582.8399999999998 C 975.5 581.8399999999998 975.88 581.3599999999998 976.6 581.3599999999998 C 976.8923414505164 581.359974912598 977.1827610598981 581.4072525234275 977.46 581.4999999999998 C 977.75 581.5999999999998 978.1800000000001 581.7899999999997 978.6600000000001 581.9799999999998 C 980.352066517594 582.7254416245645 982.118689452899 583.2886155394245 983.9300000000001 583.6599999999997 C 985.8062960477738 584.0392194662293 987.7157653658002 584.2301663980319 989.6300000000001 584.2299999999998 C 992.0657172612407 584.3748966112557 994.4926756785165 583.827097425642 996.6300000000001 582.6499999999997 C 998.2173463254904 581.6909991907214 999.1679630970001 579.9539283833443 999.1200000000001 578.0999999999998 C 999.154619325987 576.8558707793148 998.690111605846 575.6495910409641 997.8300000000002 574.7499999999998 C 996.4286828572558 573.5602391613351 994.7727572644309 572.7083270278363 992.9900000000001 572.2599999999998 L 986 570.1 C 982.5 569 979.92 567.37 978.34 565.21 C 976.8006897607555 563.2230510802257 975.9605321190105 560.7834301456186 975.95 558.27 C 975.909581909198 556.4146092971424 976.3542435766822 554.5808107924788 977.24 552.9499999999999 C 978.0952624805653 551.4080310106771 979.2718069991182 550.0677933417168 980.69 549.02 C 982.1885434108175 547.8882630608265 983.8838289923929 547.0440108412021 985.69 546.53 C 987.6399959991753 545.9697911666816 989.6612600779923 545.6969205160414 991.69 545.72 C 992.7630443767175 545.7115000204217 993.8354508244479 545.7749757914712 994.9000000000001 545.9100000000001 C 996.0000000000001 546.0500000000001 997.0100000000001 546.2500000000001 998.0100000000001 546.44 C 999.0100000000001 546.63 999.8800000000001 546.9200000000001 1000.7400000000001 547.21 C 1001.4347906398568 547.4262516258057 1002.1050938908432 547.7144820237298 1002.7400000000001 548.07 C 1003.305431753029 548.3546458761642 1003.7980573466696 548.765167204198 1004.1800000000002 549.2700000000001 C 1004.4910963934105 549.7360025602645 1004.6420348467092 550.2906136212222 1004.6100000000001 550.8500000000001 L 1004.6100000000001 553.1000000000001 C 1004.6100000000001 554.1000000000001 1004.2300000000001 554.6300000000001 1003.5100000000001 554.6300000000001 C 1002.8723806921166 554.5585332443437 1002.2544755469546 554.3650135010787 1001.69 554.0600000000001 C 998.7944683148036 552.7792594032704 995.6557584909084 552.1412825151526 992.49 552.19 C 990.2850774688791 552.0594703738892 988.08545902628 552.5221844575757 986.12 553.5300000000001 C 984.6303810251407 554.4156152543857 983.7616605778795 556.0603926345335 983.87 557.7900000000001 C 983.8440977653686 559.0766506720726 984.3678715570692 560.3133387913657 985.3100000000001 561.19 C 986.8652991322388 562.4226039462742 988.6599731732821 563.3182382400017 990.58 563.82 L 997.38 565.98 C 1000.83 567.08 1003.32 568.61 1004.8 570.58 C 1006.2617089334686 572.5084221265184 1007.0361527249077 574.8704756904075 1007 577.2900000000001 C 1007.0239647728739 579.2155939274656 1006.5958265628223 581.1199526857755 1005.75 582.85 C 1004.8985158686544 584.4879384831735 1003.7048873132378 585.9237031169745 1002.25 587.0600000000001 C 1000.6674408137419 588.290192503795 998.8604839057282 589.2004640288847 996.93 589.74 C 994.7109785291435 590.4205068885299 992.4009548305756 590.7577366255471 990.0799999999999 590.74 Z" stroke-linecap="round" />
</g>
<g transform="matrix(0.62 0 0 0.52 909.19 363.71)" id="oj-HFkBXwOWoEbLRyXrcu"  >
<path style="stroke: none; stroke-width: 1; stroke-dasharray: none; stroke-linecap: butt; stroke-dashoffset: 0; stroke-linejoin: miter; stroke-miterlimit: 4; fill: rgb(255,153,0); fill-rule: nonzero; opacity: 1;" vector-effect="non-scaling-stroke"  transform=" translate(-934.69, -617.03)" d="M 999.21 614 C 983.45 625.64 960.5600000000001 631.82 940.88 631.82 C 914.5853416721292 631.9558175206159 889.187175651372 622.2701366848427 869.66 604.6600000000001 C 868.18 603.32 869.52 601.5000000000001 871.29 602.5500000000001 C 909.6342001826555 624.6671790328649 956.1215500669662 627.5573732901206 996.91 610.36 C 999.54 609.16 1001.8 612.08 999.2099999999999 614 Z" stroke-linecap="round" />
</g>
<g transform="matrix(0.62 0 0 0.52 949.44 361.46)" id="NtlRRlo8jWjlejYpBNhkv"  >
<path style="stroke: none; stroke-width: 1; stroke-dasharray: none; stroke-linecap: butt; stroke-dashoffset: 0; stroke-linejoin: miter; stroke-miterlimit: 4; fill: rgb(255,153,0); fill-rule: nonzero; opacity: 1;" vector-effect="non-scaling-stroke"  transform=" translate(-999.53, -612.68)" d="M 1005.77 606.55 C 1003.77 603.9599999999999 992.46 605.3 987.3299999999999 605.93 C 985.8 606.12 985.56 604.78 986.9499999999999 603.77 C 995.9499999999999 597.4499999999999 1010.7499999999999 599.27 1012.4799999999999 601.38 C 1014.2099999999999 603.49 1011.9999999999999 618.38 1003.5699999999999 625.38 C 1002.28 626.48 1001.03 625.91 1001.5699999999999 624.47 C 1003.52 619.76 1007.78 609.08 1005.77 606.55 Z" stroke-linecap="round" />
</g>
<g transform="matrix(0.62 0 0 0.52 845.49 208.29)" id="u2WWuP4MkedAAP_Z91tTz"  >
<linearGradient id="SVGID_154" gradientUnits="userSpaceOnUse" gradientTransform="matrix(1 0 0 1 0 0)"  x1="664.42" y1="277" x2="664.42" y2="115">
<stop offset="0%" style="stop-color:rgb(128,128,128);stop-opacity: 0.25"/>
<stop offset="54%" style="stop-color:rgb(128,128,128);stop-opacity: 0.12"/>
<stop offset="100%" style="stop-color:rgb(128,128,128);stop-opacity: 0.1"/>
</linearGradient>
<path style="stroke: none; stroke-width: 1; stroke-dasharray: none; stroke-linecap: butt; stroke-dashoffset: 0; stroke-linejoin: miter; stroke-miterlimit: 4; fill: url(#SVGID_154); fill-rule: nonzero; opacity: 0.7;" vector-effect="non-scaling-stroke"  transform=" translate(-91.39, -81)" d="M 0 162 L 0 0 L 182.77 0 L 182.77 162 z" stroke-linecap="round" />
</g>
<g transform="matrix(0.62 0 0 0.52 845.49 208.29)" id="oTvgd2gE9JHcu9V23k1HK"  >
<path style="stroke: none; stroke-width: 1; stroke-dasharray: none; stroke-linecap: butt; stroke-dashoffset: 0; stroke-linejoin: miter; stroke-miterlimit: 4; fill: rgb(224,224,224); fill-rule: nonzero; opacity: 1;" vector-effect="non-scaling-stroke"  transform=" translate(-88, -78)" d="M 0 156 L 0 0 L 176 0 L 176 156 z" stroke-linecap="round" />
</g>
<g transform="matrix(0.62 0 0 0.52 844.97 208.09)" id="SdpFiZVPh96cYEc0__CvD"  >
<path style="stroke: none; stroke-width: 1; stroke-dasharray: none; stroke-linecap: butt; stroke-dashoffset: 0; stroke-linejoin: miter; stroke-miterlimit: 4; fill: rgb(202,201,194); fill-rule: nonzero; opacity: 1;" vector-effect="non-scaling-stroke"  transform=" translate(-831.18, -316.41)" d="M 807.53 357.41 L 783.87 316.41 L 807.53 275.41 L 854.8399999999999 275.41 L 878.4999999999999 316.41 L 854.8399999999999 357.41 L 807.53 357.41" stroke-linecap="round" />
</g>
<g transform="matrix(0.62 0 0 0.52 845.48 208.25)" id="2paYI8SUtEVdwv_YRKDvY"  >
<path style="stroke: none; stroke-width: 1; stroke-dasharray: none; stroke-linecap: butt; stroke-dashoffset: 0; stroke-linejoin: miter; stroke-miterlimit: 4; fill: rgb(255,255,255); fill-rule: nonzero; opacity: 1;" vector-effect="non-scaling-stroke"  transform=" translate(-832, -316.7)" d="M 832 335.14 C 821.8158692131202 335.13999999999993 813.5600000000001 326.8841307868798 813.5600000000001 316.69999999999993 C 813.5600000000001 306.51586921312014 821.8158692131202 298.26 832.0000000000001 298.26 C 842.1841307868799 298.26 850.44 306.5158692131202 850.44 316.7 C 850.4289771841475 326.87956149110806 842.1795614911081 335.12897718414746 832 335.14" stroke-linecap="round" />
</g>
<g transform="matrix(0.62 0 0 0.52 843.89 192.72)" id="62Lq2nF4aX9_-MANZsy9f"  >
<path style="stroke: none; stroke-width: 1; stroke-dasharray: none; stroke-linecap: butt; stroke-dashoffset: 0; stroke-linejoin: miter; stroke-miterlimit: 4; fill: rgb(80,114,170); fill-rule: nonzero; opacity: 1;" vector-effect="non-scaling-stroke"  transform=" translate(-829.44, -286.72)" d="M 869.08 261.72 C 867.3188570384293 259.0267745307847 864.3828656049968 257.3305064080556 861.1700000000001 257.15000000000003 L 802.8700000000001 257.15000000000003 C 799.6571343950034 257.33050640805567 796.7211429615709 259.0267745307847 794.9600000000002 261.72 L 777.9600000000002 291.22 C 777.7938217341649 293.068039388376 778.1617301005061 294.9249353883061 779.0200000000001 296.57000000000005 L 790.5500000000001 316.28000000000003 L 811.1300000000001 280.72 L 876.19 280.72 C 877.8819939271883 280.7868448003069 879.5253714120643 281.3047158564653 880.95 282.22 L 869.11 261.71000000000004" stroke-linecap="round" />
</g>
<g transform="matrix(0.62 0 0 0.52 817.72 201.21)" id="tKKxlP3WhrsvDL5jQmmzQ"  >
<path style="stroke: none; stroke-width: 1; stroke-dasharray: none; stroke-linecap: butt; stroke-dashoffset: 0; stroke-linejoin: miter; stroke-miterlimit: 4; fill: rgb(77,103,150); fill-rule: nonzero; opacity: 1;" vector-effect="non-scaling-stroke"  transform=" translate(-787.26, -303.11)" d="M 778.67 289.94 L 777.92 291.23 C 777.7543876546381 293.07800934700373 778.1222647225152 294.93474737827063 778.9799999999999 296.58000000000004 L 790.5099999999999 316.29 L 796.6399999999999 305.69 L 778.6399999999999 289.93" stroke-linecap="round" />
</g>
<g transform="matrix(0.62 0 0 0.52 845.32 183.43)" id="XMfqV7GGuOMo_wMB7BLTT"  >
<path style="stroke: none; stroke-width: 1; stroke-dasharray: none; stroke-linecap: butt; stroke-dashoffset: 0; stroke-linejoin: miter; stroke-miterlimit: 4; fill: rgb(255,255,255); fill-rule: nonzero; opacity: 1;" vector-effect="non-scaling-stroke"  transform=" translate(-831.74, -268.76)" d="M 804.37 272.32 C 802.9301144084772 272.32 801.6320092246368 271.4526338463856 801.0809888642598 270.12235301921976 C 800.5299685038827 268.79207219205387 800.8345469930772 267.26085272487455 801.8526998589758 266.2426998589759 C 802.8708527248745 265.2245469930773 804.4020721920538 264.9199685038828 805.7323530192197 265.4709888642598 C 807.0626338463856 266.0220092246368 807.93 267.32011440847714 807.93 268.76 C 807.93 270.7261337093976 806.3361337093976 272.31999999999994 804.37 272.32 M 862.67 268.76 C 862.6842906235963 269.9371901187474 862.0694722522725 271.0325826030257 861.0571410161514 271.63355370546975 C 860.0448097800302 272.2345248079138 858.7887628758688 272.24977272177307 857.7621410161513 271.6735537054697 C 856.7355191564338 271.09733468916636 856.0942906235963 270.01719011874735 856.0799999999999 268.84 C 856.0799999999999 268.84 856.0799999999999 268.78 856.0799999999999 268.76 C 856.0799999999999 266.9402217493075 857.5552217493075 265.465 859.375 265.465 C 861.1947782506924 265.465 862.67 266.9402217493075 862.67 268.76 Z" stroke-linecap="round" />
</g>
<g transform="matrix(0.62 0 0 0.52 868.1 214.38)" id="W4OCGTnGCLzprI1JzK8qV"  >
<path style="stroke: none; stroke-width: 1; stroke-dasharray: none; stroke-linecap: butt; stroke-dashoffset: 0; stroke-linejoin: miter; stroke-miterlimit: 4; fill: rgb(204,66,50); fill-rule: nonzero; opacity: 1;" vector-effect="non-scaling-stroke"  transform=" translate(-868.45, -328.56)" d="M 898.22 312.21 L 880.9100000000001 282.21 C 879.4853714120643 281.29471585646525 877.8419939271884 280.77684480030683 876.1500000000001 280.71 L 852.7 280.71 L 873 316.49 L 840.88 373.24 C 840.0605455076434 374.5518950638555 838.9261648093783 375.638150520376 837.58 376.40000000000003 L 861.1800000000001 376.40000000000003 C 864.3928656049968 376.2194935919444 867.3288570384293 374.5232254692154 869.09 371.83000000000004 L 898.24 321.34000000000003 C 899.690803145149 318.46957163101285 899.690803145149 315.0804283689872 898.24 312.21000000000004" stroke-linecap="round" />
</g>
<g transform="matrix(0.62 0 0 0.52 867.32 192.41)" id="O3i4yZAYd1mEipyqxRoVp"  >
<path style="stroke: none; stroke-width: 1; stroke-dasharray: none; stroke-linecap: butt; stroke-dashoffset: 0; stroke-linejoin: miter; stroke-miterlimit: 4; fill: rgb(178,63,51); fill-rule: nonzero; opacity: 1;" vector-effect="non-scaling-stroke"  transform=" translate(-867.2, -286.11)" d="M 881.7 283.58 L 880.9200000000001 282.22999999999996 C 879.4955793846358 281.31427207241273 877.8520779583763 280.7963619590957 876.1600000000001 280.72999999999996 L 852.7 280.72999999999996 L 858.8100000000001 291.48999999999995 L 881.7 283.56999999999994" stroke-linecap="round" />
</g>
<g transform="matrix(0.62 0 0 0.52 871.05 220.52)" id="5n5I0KBsr8JhTWrL1YmbV"  >
<path style="stroke: none; stroke-width: 1; stroke-dasharray: none; stroke-linecap: butt; stroke-dashoffset: 0; stroke-linejoin: miter; stroke-miterlimit: 4; fill: rgb(255,255,255); fill-rule: nonzero; opacity: 1;" vector-effect="non-scaling-stroke"  transform=" translate(-873.21, -340.41)" d="M 859.37 367.68 C 857.9301144084772 367.68 856.6320092246368 366.8126338463856 856.0809888642598 365.4823530192198 C 855.5299685038827 364.1520721920539 855.8345469930772 362.62085272487457 856.8526998589758 361.60269985897594 C 857.8708527248745 360.5845469930773 859.4020721920538 360.2799685038828 860.7323530192197 360.83098886425984 C 862.0626338463856 361.3820092246368 862.93 362.68011440847715 862.93 364.12 C 862.93 366.0861337093976 861.3361337093976 367.67999999999995 859.37 367.68 M 887.0600000000001 320.26 C 885.6201144084772 320.26 884.3220092246369 319.3926338463856 883.7709888642598 318.06235301921976 C 883.2199685038828 316.73207219205386 883.5245469930773 315.20085272487455 884.5426998589759 314.1826998589759 C 885.5608527248745 313.1645469930773 887.0920721920538 312.8599685038828 888.4223530192197 313.4109888642598 C 889.7526338463856 313.9620092246368 890.62 315.26011440847714 890.62 316.7 C 890.62 318.66613370939757 889.0261337093976 320.25999999999993 887.0600000000001 320.26" stroke-linecap="round" />
</g>
<g transform="matrix(0.62 0 0 0.52 831.06 217.1)" id="pIvHC5tK2RvCwWCno6IXc"  >
<path style="stroke: none; stroke-width: 1; stroke-dasharray: none; stroke-linecap: butt; stroke-dashoffset: 0; stroke-linejoin: miter; stroke-miterlimit: 4; fill: rgb(236,176,42); fill-rule: nonzero; opacity: 1;" vector-effect="non-scaling-stroke"  transform=" translate(-808.76, -333.81)" d="M 811.55 352.26 L 779 296.58 C 778.1422647225153 294.9347473782706 777.7743876546382 293.0780093470037 777.94 291.22999999999996 L 765.83 312.22999999999996 C 764.3808012820087 315.1008105849028 764.3808012820087 318.48918941509714 765.83 321.35999999999996 L 795 371.83 C 796.7633586431775 374.51941698695344 799.698983243568 376.21176188932776 802.91 376.39 L 837.5999999999999 376.39 C 838.9461648093782 375.6281505203759 840.0805455076433 374.54189506385546 840.8999999999999 373.22999999999996 L 852.7799999999999 352.22999999999996 L 811.55 352.22999999999996" stroke-linecap="round" />
</g>
<g transform="matrix(0.62 0 0 0.52 853.04 232.9)" id="p3oolBB_vWF6aUVfmlJyn"  >
<path style="stroke: none; stroke-width: 1; stroke-dasharray: none; stroke-linecap: butt; stroke-dashoffset: 0; stroke-linejoin: miter; stroke-miterlimit: 4; fill: rgb(199,151,50); fill-rule: nonzero; opacity: 1;" vector-effect="non-scaling-stroke"  transform=" translate(-844.18, -364.32)" d="M 835.59 376.4 L 837.59 376.4 C 838.9364196499866 375.6384933013892 840.0708769262836 374.55216451560176 840.89 373.23999999999995 L 852.77 352.23999999999995 L 840.14 352.23999999999995 L 835.59 376.37999999999994" stroke-linecap="round" />
</g>
<g transform="matrix(0.62 0 0 0.52 819.72 220.52)" id="R5nziPe2US2M42QE9FELn"  >
<path style="stroke: none; stroke-width: 1; stroke-dasharray: none; stroke-linecap: butt; stroke-dashoffset: 0; stroke-linejoin: miter; stroke-miterlimit: 4; fill: rgb(255,255,255); fill-rule: nonzero; opacity: 1;" vector-effect="non-scaling-stroke"  transform=" translate(-790.5, -340.41)" d="M 804.37 367.68 C 802.9301144084772 367.68 801.6320092246368 366.8126338463856 801.0809888642598 365.4823530192198 C 800.5299685038827 364.1520721920539 800.8345469930772 362.62085272487457 801.8526998589758 361.60269985897594 C 802.8708527248745 360.5845469930773 804.4020721920538 360.2799685038828 805.7323530192197 360.83098886425984 C 807.0626338463856 361.3820092246368 807.93 362.68011440847715 807.93 364.12 C 807.93 366.0861337093976 806.3361337093976 367.67999999999995 804.37 367.68 M 776.63 320.26 C 775.1901144084771 320.26 773.8920092246368 319.3926338463856 773.3409888642598 318.06235301921976 C 772.7899685038827 316.73207219205386 773.0945469930772 315.20085272487455 774.1126998589758 314.1826998589759 C 775.1308527248744 313.1645469930773 776.6620721920538 312.8599685038828 777.9923530192196 313.4109888642598 C 779.3226338463855 313.9620092246368 780.1899999999999 315.26011440847714 780.1899999999999 316.7 C 780.1899999999999 318.66613370939757 778.5961337093976 320.25999999999993 776.63 320.26" stroke-linecap="round" />
</g>
<g transform="matrix(0.62 0 0 0.52 530.85 206.66)" id="fkUxbMTbgrdPK1oNloS3T"  >
<path style="stroke: none; stroke-width: 1; stroke-dasharray: none; stroke-linecap: butt; stroke-dashoffset: 0; stroke-linejoin: miter; stroke-miterlimit: 4; fill: rgb(40,88,235); fill-rule: nonzero; opacity: 0.1;" vector-effect="non-scaling-stroke"  transform=" translate(-786.37, -298.95)" d="M 824 293.65 C 824.8652106012441 292.41790897449545 825.3423059352134 290.955280943349 825.37 289.45 C 825.37 280.33 806.79 272.95 783.87 272.95 C 760.95 272.95 742.37 280.33 742.37 289.45 C 742.411536396888 291.1552779647696 743.0123623228462 292.799643656866 744.08 294.13 C 718.5600000000001 296.98 701.37 302.32 701.37 308.45 C 701.37 317.56 739.37 324.95 786.37 324.95 C 833.37 324.95 871.37 317.56 871.37 308.45 C 871.32 302 852 296.35 824 293.65 Z" stroke-linecap="round" />
</g>
<g transform="matrix(0.87 0 0 0.76 277.78 153.12)" id="NoBo-tiWcB-aAlFV6gJAy"  >
<path style="stroke: none; stroke-width: 1; stroke-dasharray: none; stroke-linecap: butt; stroke-dashoffset: 0; stroke-linejoin: miter; stroke-miterlimit: 4; fill: rgb(40,88,235); fill-rule: nonzero; opacity: 1;" vector-effect="non-scaling-stroke"  transform=" translate(-567.33, -297)" d="M 718 257 C 703.65 186.28 642.15 133 567.33 133 C 507.88000000000005 133 456.63000000000005 166.82 431 216 C 369.5 222.15 321.33 274.42 321.33 338 C 321.33 405.64 376.66999999999996 461 444.33 461 L 710.8299999999999 461 C 767.1999999999999 461 813.3299999999999 414.87 813.3299999999999 358.5 C 813.5547814625367 304.7173782147595 771.6911078082584 260.1441811528771 718 257 Z M 600.12 317.45 L 600.12 395.35 L 534.52 395.35 L 534.52 317.45000000000005 L 464.82 317.45000000000005 L 567.32 215 L 669.82 317.5 Z" stroke-linecap="round" />
</g>
<g transform="matrix(0.87 0 0 0.76 270.45 299.84)" id="97Rx0vOBlgvPNJlgptrro"  >
<linearGradient id="SVGID_155" gradientUnits="userSpaceOnUse" gradientTransform="matrix(1 0 0 1 501.64 304.03)"  x1="517.81" y1="472.14" x2="647.31" y2="472.14">
<stop offset="0%" style="stop-color:rgb(128,128,128);stop-opacity: 0.25"/>
<stop offset="54%" style="stop-color:rgb(128,128,128);stop-opacity: 0.12"/>
<stop offset="100%" style="stop-color:rgb(128,128,128);stop-opacity: 0.1"/>
</linearGradient>
<path style="stroke: none; stroke-width: 1; stroke-dasharray: none; stroke-linecap: butt; stroke-dashoffset: 0; stroke-linejoin: miter; stroke-miterlimit: 4; fill: url(#SVGID_155); fill-rule: nonzero; opacity: 1;" vector-effect="non-scaling-stroke"  transform=" translate(-558.91, -490.34)" d="M 612.69 305.71 C 610.1790531464193 303.63456175273967 606.601530589199 303.4595521168347 603.9000000000001 305.28 C 601.9000000000001 306.76 601.0300000000001 309.21999999999997 600.21 311.53999999999996 C 599.01 314.96999999999997 597.07 318.29999999999995 596.75 321.92999999999995 C 595.86 331.92999999999995 588.85 340.34 586.75 350.13999999999993 C 585.98 353.63999999999993 585.83 357.31999999999994 584.38 360.5899999999999 C 583.6857173700628 362.02544448686734 582.8834097561686 363.4060821724437 581.98 364.7199999999999 C 578.4636398133662 370.24850186785847 575.4515119175328 376.08198955945585 572.98 382.15 C 571.24 382.6799999999999 569.8100000000001 384.3499999999999 568.4200000000001 385.6799999999999 C 566.6370772591282 387.3851656165233 564.5043840376054 388.6818430952092 562.1700000000001 389.4799999999999 C 561.218445338751 389.6927376032521 560.3308564964249 390.1279645645472 559.58 390.7499999999999 C 558.58 391.8099999999999 558.58 393.51999999999987 557.75 394.7499999999999 C 557.1598930593315 395.5556651206291 556.3755621515274 396.19895406694195 555.47 396.6199999999999 C 555.4087472319978 396.3358990664335 555.3620199049542 396.0488597717369 555.33 395.7599999999999 C 555.12 394.2299999999999 554.95 392.6999999999999 554.7900000000001 391.1699999999999 C 559.5997505789752 384.15161173346456 558.5995165332715 374.6790562582622 552.4300000000001 368.8199999999999 C 552.244899497709 366.43266317413014 552.3152987314122 364.03238453929356 552.6400000000001 361.65999999999985 C 552.9408129824858 360.49602250538703 552.5528563665222 359.2623204666228 551.6400000000001 358.47999999999985 C 551.1500000000001 358.16999999999985 550.5500000000001 358.09999999999985 550.0300000000001 357.83999999999986 C 549.2759827193508 357.3343499799563 548.6356888093189 356.6770269765725 548.1500000000001 355.90999999999985 C 545.2484190285123 352.62239131947547 540.399844059532 351.9043967683198 536.6700000000001 354.20999999999987 C 533.8700000000001 356.07999999999987 532.3900000000001 359.39999999999986 530.0000000000001 361.78999999999985 C 528.7600000000001 363.01999999999987 527.2900000000001 363.98999999999984 526.0600000000001 365.21999999999986 C 523.6001351296904 367.8572793449608 522.0024879404795 371.18164129107015 521.48 374.74999999999983 C 520.9666535661444 378.2988774319626 520.8225502027481 381.89140779384155 521.0500000000001 385.46999999999986 C 521.0251229789611 386.5547769769796 521.1805709998456 387.6361545135667 521.5100000000001 388.66999999999985 C 521.8665128046015 389.517975318362 522.3597295486408 390.3017169938216 522.9700000000001 390.98999999999984 C 525.9000867954254 394.81197368700475 529.7734276102024 397.8065761496748 534.2100000000002 399.67999999999984 C 534.2407823617397 399.8919950108883 534.2574856072976 400.10579655403035 534.2600000000001 400.3199999999998 C 534.2600000000001 400.6499999999998 534.2600000000001 400.97999999999985 534.1800000000001 401.3199999999998 L 533.69 401.23999999999984 C 531.8900000000001 401.0199999999998 529.99 401.23999999999984 528.32 400.54999999999984 C 525.47 399.3199999999998 524.32 395.6999999999998 521.5100000000001 394.27999999999986 C 521.2767240503629 394.1570910740354 521.0322909418314 394.0566391116252 520.7800000000001 393.97999999999985 C 520.1136501119744 389.31932610812953 518.7412427375225 384.78734696497645 516.71 380.53999999999985 C 515.71 378.53999999999985 514.58 376.45999999999987 514.46 374.1999999999999 C 514.5220757837515 372.098819530626 514.9942619635721 370.03003259889425 515.85 368.1099999999999 C 518.1104349040049 361.2410216880288 519.894664295092 354.22438925116995 521.19 347.1099999999999 Q 522.5500000000001 340.4199999999999 523.9300000000001 333.7299999999999 C 525.1714411935976 332.6010555437079 526.2666279049489 331.32109806817147 527.19 329.9199999999999 C 529.1170409472733 327.13315550515756 530.2444488684649 323.871972469318 530.45 320.4899999999999 C 530.6302042930022 317.08357025408395 529.4421771342727 313.74629396274366 527.1500000000001 311.2199999999999 C 526.1366905035464 309.98653450746565 524.6359075467041 309.2562264992698 523.0400000000001 309.2199999999999 C 521.6660157425954 309.3820296202261 520.4205822209175 310.1061188770156 519.6 311.2199999999999 C 518.3784976094788 312.92988803005346 517.4959205556714 314.8579794399095 517 316.9 C 516 320.21999999999997 515 323.67999999999995 515.45 327.12 C 515.86 329.97 517.25 333.06 515.83 335.56 C 511.15000000000003 343.75 507.92 352.96 504.45000000000005 361.74 C 503.55504056253307 363.8465401539323 502.82615281262406 366.019829316505 502.27000000000004 368.24 C 501.57525174742887 371.81804897559635 501.45373527486066 375.48379589807075 501.91 379.1 C 502.73326547783233 385.88123161734956 504.0399246366668 392.5949867326908 505.82000000000005 399.19000000000005 C 506.55000000000007 402.19 507.41 405.36 509.13000000000005 407.83 C 508.5196822348206 411.1806411978019 508.37163699621874 414.5991403436998 508.69000000000005 417.99 C 508.7307227502914 418.77366392044246 508.93510947866315 419.5401141518364 509.2900000000001 420.24 C 509.8636552312797 421.0454340346425 510.5585522690259 421.7571975053437 511.3500000000001 422.35 C 513.5203500792518 424.3689628027012 514.7125052808505 427.2272186988889 514.6200000000001 430.19 C 514.6682761656875 432.9283002382847 515.1997717245869 435.63655786324904 516.1900000000002 438.19 C 518.5800000000002 445.32 520.9800000000001 452.45 523.0700000000002 459.68 C 523.5230810317831 461.0184745627217 523.7725308879884 462.41741632387334 523.8100000000002 463.83 C 523.8100000000002 465.83 522.8600000000001 467.83 523.3000000000002 469.83 C 523.635500556143 470.7337804377136 523.9094596803991 471.65922772331004 524.1200000000002 472.59999999999997 C 524.1360350401117 473.326708275171 524.0416255587393 474.0516382214234 523.8400000000003 474.74999999999994 C 522.5400000000003 480.3999999999999 518.7800000000003 493.42999999999995 519.4300000000003 499.19999999999993 L 520.7200000000003 498.74999999999994 C 520.1700000000003 506.38999999999993 517.8100000000003 513.8699999999999 516.9500000000003 521.51 C 516.3849155641354 527.0725444651972 516.4452927075412 532.6809102304427 517.1300000000002 538.23 C 517.5027902455671 540.7104698532573 517.716559875448 543.2122425529576 517.7700000000002 545.72 C 517.7700000000002 547.97 517.4100000000002 550.19 517.3200000000002 552.4300000000001 C 517.274937267267 555.4389551187835 517.4520854215081 558.4471313228777 517.8500000000001 561.4300000000001 C 518.2415808832802 566.1096612575701 518.987046423521 570.7529421337788 520.0800000000002 575.32 C 522.1600000000002 583.08 520.7600000000001 591.1600000000001 520.9900000000001 599.2 C 521.2584596004644 604.8085743469117 521.2016977969027 610.4279928995265 520.8200000000002 616.0300000000001 C 520.6100000000001 618.4000000000001 520.2800000000002 620.7600000000001 520.2100000000002 623.1400000000001 C 520.0000000000001 630.2 522.0900000000001 637.2300000000001 521.3500000000001 644.2500000000001 C 521.0000000000001 647.5400000000001 520.1600000000001 651.2500000000001 522.2300000000001 653.8400000000001 C 522.8900000000001 654.6500000000001 523.7800000000001 655.2300000000001 524.4800000000001 656.0000000000001 C 525.2546583677907 656.7286400538338 525.5856575497037 657.8129477187209 525.3500000000001 658.8500000000001 C 525.0800000000002 659.6400000000001 524.3500000000001 660.2200000000001 524.1800000000002 661.0500000000002 C 523.9900000000001 662.3500000000001 525.4200000000002 663.2500000000002 526.6600000000002 663.6700000000002 L 527.0100000000002 663.7700000000002 C 526.9574857830535 664.6474476467869 527.2811608931444 665.5057322083763 527.9000000000002 666.1300000000002 C 528.6754456909446 666.7223948743367 529.5993879485585 667.0892034110673 530.5700000000002 667.1900000000002 L 546.5700000000002 670.2900000000002 C 550.1400000000002 670.9800000000002 554.0200000000002 671.6300000000002 557.3700000000001 670.4200000000002 C 557.4992202098347 670.9039273138711 557.7586188174525 671.3431756227708 558.1200000000001 671.6900000000002 C 558.892617184 672.2806967634124 559.812872150039 672.6474149077737 560.7800000000001 672.7500000000001 L 576.7800000000001 675.8500000000001 C 580.8600000000001 676.6400000000001 585.34 677.3700000000001 588.9800000000001 675.3500000000001 C 590.0294086102521 674.7896512313291 590.9150586595074 673.966031146613 591.5500000000002 672.9600000000002 C 592.5841124037637 671.0306341180109 592.7122332849012 668.7427612405546 591.9000000000002 666.7100000000002 C 591.5934676949428 665.6811193242081 590.9706716937036 664.7749161538657 590.1200000000002 664.1200000000001 C 588.9845941272665 663.4961449272816 587.6914912050718 663.2180582773473 586.4000000000002 663.3200000000002 C 585.3035150783187 663.399874745508 584.2030923773714 663.232419117103 583.1800000000002 662.8300000000002 C 582.8662258841211 662.6654342897994 582.5929660519583 662.4331634324609 582.3800000000002 662.1500000000002 C 583.1800000000002 661.1500000000002 583.9500000000003 660.1500000000002 584.6800000000002 659.1500000000002 C 583.9900000000001 658.9900000000002 583.6800000000002 658.0400000000002 583.5100000000002 657.3400000000003 C 581.4500000000003 646.9600000000003 584.3400000000003 636.3400000000003 584.7600000000002 625.7400000000002 C 584.9727734367693 620.4328893723626 584.556543849603 615.1192487555531 583.5200000000002 609.9100000000002 C 583.1300000000002 607.9100000000002 582.6600000000002 606.0100000000002 582.3800000000002 604.0300000000002 C 580.9100000000002 593.7000000000002 584.8400000000003 583.2100000000002 583.5900000000003 572.8500000000003 C 583.0000000000002 568.0100000000002 585.0800000000003 562.9500000000003 585.8200000000003 558.1300000000002 C 586.4700000000003 553.8500000000003 586.0500000000003 549.4900000000002 585.6300000000002 545.1300000000002 L 582.3200000000003 511.1300000000002 C 581.8700000000002 506.54000000000025 581.4000000000003 501.8400000000002 579.4400000000003 497.6600000000002 C 578.4611866820761 495.32292816237566 577.997331144949 492.80241903048625 578.0800000000003 490.2700000000002 C 582.0800000000003 487.9800000000002 585.7600000000002 484.8300000000002 590.2800000000003 484.8200000000002 C 591.1500000000003 481.5200000000002 588.6500000000003 471.11000000000024 587.1900000000003 468.0300000000002 C 581.4951599532043 455.8874645302359 579.2433207378008 442.4144787483669 580.6800000000003 429.08000000000027 C 581.2100000000003 424.2900000000002 579.3000000000003 419.4600000000002 579.9400000000003 414.68000000000023 C 580.0357685029218 413.5604945107453 580.34822945593 412.47027748992286 580.8600000000002 411.47000000000025 C 581.3843599278862 410.46278802152267 582.3884229062243 409.7946709269143 583.5200000000002 409.7000000000003 C 583.2400000000002 406.83000000000027 582.8700000000002 403.9400000000003 582.3800000000002 401.0700000000003 C 584.0258332225806 399.3907810640586 585.3779711247281 397.4470828297215 586.3800000000002 395.3200000000003 C 588.4600000000003 390.97000000000025 589.3800000000002 386.1700000000003 590.5900000000003 381.5100000000003 C 592.7900000000003 373.3000000000003 596.1500000000002 365.46000000000026 598.8100000000003 357.40000000000026 C 601.4700000000004 349.34000000000026 600.9500000000003 340.8200000000003 602.8600000000002 332.54000000000025 C 603.9384612245669 327.97842922755626 606.7316252091744 324.00712299815916 610.6600000000002 321.4500000000003 C 612.1800000000002 320.4500000000003 613.9100000000002 319.6800000000003 614.9600000000002 318.2000000000003 C 615.7514010033007 316.9833701978704 616.1686183773127 315.56135431477946 616.1600000000002 314.1100000000003 C 616.3422623535654 310.9277770487803 615.0649946799471 307.8358322480905 612.69 305.71 Z M 551.57 655.59 C 551.87 655.1800000000001 552.1600000000001 654.77 552.4300000000001 654.34 C 551.3700000000001 654.2800000000001 550.0300000000001 653.6600000000001 549.9000000000001 652.6 C 549.8679725512009 651.538766174369 549.9857999418867 650.4783196581963 550.2500000000001 649.45 C 550.5512907443783 647.6116550139852 550.4385510500009 645.7292437533206 549.9200000000001 643.94 C 549.5500000000001 642.7 549.0000000000001 641.5100000000001 548.6 640.2700000000001 C 548.2087161177119 638.885864918081 547.8981927453981 637.4801623401871 547.6700000000001 636.0600000000001 C 546.689727099993 630.9806928634376 545.1642305493116 626.0219908888049 543.1200000000001 621.2700000000001 C 541.1200000000001 616.6600000000001 542.6700000000001 611.6300000000001 542.6900000000002 606.6000000000001 C 542.6900000000002 604.2300000000001 542.3300000000002 601.8100000000002 542.9300000000002 599.5100000000001 C 543.2800000000002 598.1500000000001 543.9300000000002 596.8900000000001 544.3000000000002 595.5100000000001 C 545.1200000000002 592.3400000000001 544.0900000000001 589.0100000000001 543.0800000000002 585.9000000000001 C 547.0300000000002 576.5600000000001 547.5600000000002 565.9000000000001 548.3700000000001 555.7400000000001 Q 549.0500000000001 547.2200000000001 549.7300000000001 538.7400000000001 C 549.9300000000002 536.2100000000002 550.1600000000001 533.5800000000002 551.4900000000001 531.4200000000001 C 553.852132183776 538.6425020895762 555.2607146524691 546.1426154252663 555.6800000000002 553.73 C 555.7215126188036 555.9228222734806 555.9760423895901 558.1064197807557 556.4400000000002 560.25 C 557.0700000000002 562.62 558.3000000000002 564.77 559.1200000000001 567.07 C 560.9400000000002 572.13 560.7500000000001 577.6600000000001 561.5700000000002 582.97 C 561.9000000000002 585.12 562.4000000000002 587.24 562.7200000000001 589.39 C 564.1000000000001 598.88 561.8700000000001 608.49 559.6500000000001 617.8199999999999 C 558.2900000000001 623.54 558.5100000000001 629.8699999999999 558.2 635.7399999999999 C 557.9100000000001 641.3699999999999 557.61 646.9999999999999 557.75 652.6399999999999 C 557.75 654.3599999999999 557.86 656.1199999999999 557.84 657.8699999999999 C 557.2958286064577 657.8048662786889 556.7480309398061 657.7748042116166 556.2 657.7799999999999 C 555.1035150783185 657.8598747455077 554.0030923773712 657.6924191171026 552.98 657.2899999999998 C 552.3465918421824 656.8815564646229 551.8542925505958 656.2880041272492 551.57 655.59 Z" stroke-linecap="round" />
</g>
<g transform="matrix(0.87 0 0 0.76 284.33 434.83)" id="uxSMrEfAl-dRHXISBfXvK"  >
<path style="stroke: none; stroke-width: 1; stroke-dasharray: none; stroke-linecap: butt; stroke-dashoffset: 0; stroke-linejoin: miter; stroke-miterlimit: 4; fill: rgb(63,61,86); fill-rule: nonzero; opacity: 1;" vector-effect="non-scaling-stroke"  transform=" translate(-574.86, -668.23)" d="M 586.45 663.39 C 587.7401245903945 663.2907945988375 589.0315382050837 663.5650464148601 590.1700000000001 664.18 C 591.0155352961854 664.8355406388831 591.6373440124055 665.7368139466628 591.95 666.76 C 592.7578292743358 668.780802037568 592.6259289578105 671.0560824976288 591.59 672.97 C 590.9541595995271 673.9701753919534 590.0683027790803 674.7870939384354 589.02 675.34 C 585.38 677.34 580.9 676.63 576.8199999999999 675.85 L 560.8199999999999 672.78 C 559.855592510949 672.6958041058699 558.9324383538116 672.3500534852191 558.15 671.78 C 557.1535043970929 670.6846219195442 556.9645537432991 669.0765312489598 557.68 667.78 C 558.3775958834503 666.517487264646 559.417487264646 665.4775958834504 560.68 664.78 C 565.28 661.92 570.68 660.78 575.9599999999999 660.17 C 577.9599999999999 659.93 579.8299999999999 659.29 581.3299999999999 660.68 C 582.1299999999999 661.41 582.0899999999999 662.3199999999999 583.2099999999999 662.91 C 584.2412768556779 663.3073955409997 585.3478015638196 663.471325127391 586.45 663.39 Z" stroke-linecap="round" />
</g>
<g transform="matrix(0.87 0 0 0.76 258.01 430.65)" id="g2ofOFRBYJ4XYdqmTpJly"  >
<path style="stroke: none; stroke-width: 1; stroke-dasharray: none; stroke-linecap: butt; stroke-dashoffset: 0; stroke-linejoin: miter; stroke-miterlimit: 4; fill: rgb(63,61,86); fill-rule: nonzero; opacity: 1;" vector-effect="non-scaling-stroke"  transform=" translate(-544.62, -662.72)" d="M 556.22 657.89 C 557.5069466458642 657.7904599626605 558.7952510296092 658.0647889284714 559.9300000000001 658.68 C 560.7814580090342 659.3299170154509 561.404703987053 660.2332735453883 561.71 661.26 C 562.5265635350479 663.2783996423804 562.3981887277332 665.5561355093062 561.36 667.47 C 560.7213351826213 668.4678116345258 559.836175081333 669.284087681239 558.79 669.84 C 555.15 671.84 550.67 671.13 546.5799999999999 670.35 L 530.5799999999999 667.27 C 529.6154795194795 667.1863033151659 528.692195607041 666.840504097024 527.91 666.27 C 526.910218155661 665.1768977905338 526.717223525721 663.5686092077003 527.43 662.27 C 528.1493107382026 661.0069084642114 529.2051923724497 659.9683363649519 530.4799999999999 659.27 C 535.0699999999999 656.42 540.4799999999999 655.3199999999999 545.7599999999999 654.67 C 547.7599999999999 654.42 549.6299999999999 653.79 551.1299999999999 655.17 C 551.9199999999998 655.9 551.8899999999999 656.81 552.9999999999999 657.4 C 554.0236216762145 657.8004486454118 555.123595874189 657.9678360233645 556.22 657.89 Z" stroke-linecap="round" />
</g>
<g transform="matrix(0.87 0 0 0.76 263.98 365.33)" id="h4daxd9i3yGkAG6Qn0tNx"  >
<path style="stroke: none; stroke-width: 1; stroke-dasharray: none; stroke-linecap: butt; stroke-dashoffset: 0; stroke-linejoin: miter; stroke-miterlimit: 4; fill: rgb(70,69,91); fill-rule: nonzero; opacity: 1;" vector-effect="non-scaling-stroke"  transform=" translate(-551.47, -576.66)" d="M 552.28 487.89 C 543.0312329731963 487.9277305123756 533.7972476967619 488.63289551177036 524.65 490 C 524.0453354047421 490.05603078935206 523.4540600059489 490.21145175132057 522.9 490.46 C 520.9599999999999 491.46 520.9 494.18 520.9499999999999 496.35999999999996 C 521.0799999999999 505.22999999999996 518.05 513.8199999999999 517.05 522.62 C 516.4765056574614 528.1451942018639 516.5335391425436 533.7177011854932 517.2199999999999 539.23 C 517.582904534979 541.6982095855558 517.7966258224477 544.1860589474975 517.8599999999999 546.6800000000001 C 517.8599999999999 548.9000000000001 517.4899999999999 551.11 517.3999999999999 553.34 C 517.3535621395885 556.3154319787913 517.527370062035 559.2902214206645 517.9199999999998 562.24 C 518.3116997236709 566.8899688381792 519.0571915404141 571.503326269146 520.1499999999999 576.04 C 522.2199999999999 583.75 520.8199999999998 591.78 521.0399999999998 599.76 C 521.3068485467388 605.3321961597737 521.2434041086532 610.9153067113102 520.8499999999998 616.48 C 520.6399999999998 618.84 520.3099999999998 621.1800000000001 520.2399999999998 623.5500000000001 C 520.0299999999997 630.5500000000001 522.1099999999998 637.5500000000001 521.3699999999998 644.5500000000001 C 521.0199999999998 647.8100000000001 520.1699999999997 651.5500000000001 522.2399999999998 654.07 C 522.8999999999997 654.87 523.7899999999997 655.45 524.4799999999998 656.22 C 525.2478883478403 656.940434281996 525.5818732103859 658.0107039551533 525.3599999999998 659.0400000000001 C 525.0799999999998 659.83 524.3099999999998 660.4100000000001 524.1899999999998 661.2300000000001 C 523.9899999999998 662.5200000000001 525.4199999999998 663.4200000000002 526.6599999999999 663.8300000000002 C 536.3612989189944 666.8066746996544 546.8637128400301 663.031669773404 552.4499999999998 654.5600000000002 C 551.3899999999999 654.5000000000002 550.0499999999998 653.8800000000002 549.9199999999998 652.8300000000002 C 549.8879831140414 651.7753617889452 550.0058251021293 650.7215177240455 550.2699999999999 649.7000000000002 C 550.5765717011757 647.875251949305 550.4637204699354 646.004657298142 549.9399999999998 644.2300000000001 C 549.5799999999998 642.9900000000001 549.0199999999999 641.8100000000002 548.6299999999999 640.5800000000002 C 548.2398014502237 639.2057288605412 547.9292846187637 637.8100725643017 547.6999999999999 636.4000000000002 C 546.7261392520738 631.3493814138533 545.2037868843182 626.420178813411 543.16 621.7000000000002 C 541.16 617.1200000000001 542.7199999999999 612.1200000000001 542.74 607.1400000000002 C 542.74 604.7800000000002 542.39 602.3700000000002 542.98 600.0900000000003 C 543.33 598.7300000000002 543.98 597.4800000000002 544.36 596.0900000000003 C 545.1800000000001 592.9400000000003 544.15 589.6400000000002 543.14 586.5500000000003 C 547.14 577.2700000000003 547.64 566.6300000000003 548.4499999999999 556.5500000000003 L 549.8199999999999 539.5500000000003 C 550.02 537.0400000000003 550.26 534.4200000000003 551.5799999999999 532.2800000000003 C 553.9418878612373 539.4510945807842 555.3506280772199 546.9016156276037 555.77 554.4400000000003 C 555.8031909686227 556.6229152650742 556.0544392537507 558.7970504257153 556.52 560.9300000000003 C 557.15 563.2700000000003 558.37 565.4100000000003 559.1999999999999 567.7000000000003 C 561.0099999999999 572.7000000000003 560.8199999999999 578.2100000000003 561.64 583.4900000000002 C 561.97 585.6300000000002 562.46 587.7300000000002 562.78 589.8700000000002 C 564.16 599.3000000000002 561.92 608.8700000000002 559.6899999999999 618.1200000000002 C 558.3299999999999 623.8000000000002 558.54 630.1200000000002 558.2299999999999 635.9300000000002 C 557.93 641.5200000000002 557.6299999999999 647.1100000000001 557.7699999999999 652.7100000000002 C 557.8899999999999 657.8600000000001 558.2899999999998 663.3900000000001 555.5199999999999 667.7100000000002 C 558.6199999999999 669.2900000000002 561.8199999999998 670.9000000000002 565.2799999999999 671.2000000000002 C 569.3056217069042 671.413697574632 573.278951338719 670.2107304554717 576.5099999999999 667.8000000000002 C 579.7078886166566 665.393962832137 582.4883229871865 662.4783919186897 584.7399999999999 659.1700000000002 C 584.0399999999998 659.0100000000002 583.7399999999999 658.0600000000002 583.5699999999999 657.3700000000002 C 581.51 647.0600000000003 584.41 636.4700000000003 584.8399999999999 625.9700000000003 C 585.0519600288638 620.6998182834043 584.6390852361225 615.423077029832 583.6099999999999 610.2500000000002 C 583.2199999999999 608.2500000000002 582.7399999999999 606.3600000000002 582.4599999999999 604.4000000000002 C 581.0099999999999 594.1400000000002 584.9399999999999 583.7100000000002 583.6999999999999 573.4000000000002 C 583.1199999999999 568.5800000000002 585.1999999999999 563.5600000000002 585.9399999999999 558.7600000000002 C 586.5899999999999 554.5100000000002 586.18 550.1800000000002 585.76 545.9000000000002 L 582.47 512.1500000000002 C 582.03 507.5800000000002 581.5600000000001 502.9100000000002 579.6 498.7600000000002 C 577.26 493.7600000000002 578.71 487.6000000000002 578.46 482.0900000000002 C 570.1996707505838 485.726180993294 561.3031732903671 487.6971391777575 552.28 487.89 Z" stroke-linecap="round" />
</g>
<g transform="matrix(0.87 0 0 0.76 300.89 198.27)" id="P05vbiBGlO3G5KJax5ylY"  >
<path style="stroke: none; stroke-width: 1; stroke-dasharray: none; stroke-linecap: butt; stroke-dashoffset: 0; stroke-linejoin: miter; stroke-miterlimit: 4; fill: rgb(160,97,106); fill-rule: nonzero; opacity: 1;" vector-effect="non-scaling-stroke"  transform=" translate(-593.88, -356.51)" d="M 571.6 387.94 C 574.3216954372438 380.50666141611623 577.8564805993014 373.3968468586568 582.14 366.74 C 583.0432495327758 365.43295940708106 583.8455728743343 364.0589806846621 584.54 362.63 C 586 359.39 586.15 355.73 586.92 352.25 C 589.0699999999999 342.51 596.0899999999999 334.15 596.99 324.25 C 597.3100000000001 320.64 599.25 317.33 600.46 313.92 C 601.27 311.61 602.19 309.17 604.1500000000001 307.7 C 606.8517882722822 305.8983300359406 610.4125242118166 306.0686613679001 612.9300000000001 308.12 C 615.3549782427912 310.22004871079594 616.6666938049029 313.32752135230584 616.48 316.53000000000003 C 616.4839258332555 317.971318089002 616.0668543219218 319.382410035681 615.28 320.59000000000003 C 614.22 322.06000000000006 612.5 322.85 610.98 323.82000000000005 C 607.0600606201051 326.3470370065353 604.2633412743768 330.28607833854693 603.1700000000001 334.82000000000005 C 601.2500000000001 343.05000000000007 601.7700000000001 351.50000000000006 599.1 359.51000000000005 C 596.43 367.52000000000004 593.1 375.32000000000005 590.87 383.51000000000005 C 589.62 388.14000000000004 588.73 392.91 586.64 397.2300000000001 C 584.55 401.5500000000001 581 405.4500000000001 576.33 406.56000000000006 C 576.0356255374812 403.5864856149989 575.265832643072 400.67950455321716 574.0500000000001 397.95000000000005 C 572.65 394.79 570.42 391.15 571.6 387.94 Z" stroke-linecap="round" />
</g>
<g transform="matrix(0.87 0 0 0.76 233.31 202.36)" id="3q_M-wX_FF0sihRT6OOZl"  >
<path style="stroke: none; stroke-width: 1; stroke-dasharray: none; stroke-linecap: butt; stroke-dashoffset: 0; stroke-linejoin: miter; stroke-miterlimit: 4; fill: rgb(160,97,106); fill-rule: nonzero; opacity: 1;" vector-effect="non-scaling-stroke"  transform=" translate(-516.24, -361.89)" d="M 521.29 399.35 C 520.9038520378585 393.50703605819183 519.3964197029053 387.79305268043015 516.8499999999999 382.52 C 515.8499999999999 380.52000000000004 514.7299999999999 378.52000000000004 514.6099999999999 376.23 C 514.6710787273868 374.14156181831487 515.1434238874214 372.0856710138478 515.9999999999999 370.18 C 518.2641288984336 363.3419286229241 520.0517429436153 356.3551978407279 521.3499999999999 349.27000000000004 L 524.1099999999999 335.96999999999997 C 525.3450284162676 334.84880626056287 526.4366476142997 333.579169162544 527.3599999999999 332.19 C 529.2903996232236 329.42653604030005 530.4218262986767 326.1844969121668 530.6299999999999 322.82 C 530.8162780450693 319.42951392253883 529.6305753218566 316.106663129827 527.3399999999999 313.59999999999997 C 526.3145559237923 312.3899982477427 524.8159156793226 311.68261088174 523.2299999999999 311.65999999999997 C 521.8560157425952 311.82202962022615 520.6105822209173 312.54611887701566 519.7899999999998 313.65999999999997 C 518.5883124143668 315.3456168021772 517.7225425344418 317.24691536201254 517.2399999999999 319.26 C 516.2399999999999 322.56 515.2399999999999 325.99 515.68 329.40999999999997 C 516.0799999999999 332.23999999999995 517.4799999999999 335.30999999999995 516.05 337.78999999999996 C 511.35999999999996 345.93999999999994 508.12999999999994 355.08 504.65 363.78999999999996 C 503.75991855148595 365.88368054341345 503.03438780253134 368.04355549191433 502.47999999999996 370.25 C 501.7783661281145 373.80671898796425 501.6500793819002 377.4527633540547 502.09999999999997 381.04999999999995 C 502.91856042387786 387.8015879455837 504.2219266057968 394.48551708362953 505.9999999999999 401.0499999999999 C 506.99999999999994 405.16999999999996 508.24999999999994 409.65 511.7099999999999 412.11999999999995 C 514.56 407.56 517.44 403.09 521.29 399.35 Z" stroke-linecap="round" />
</g>
<g transform="matrix(0.87 0 0 0.76 254.68 218.63)" id="TOPDuhhNaWdGAgsPn5mHd"  >
<path style="stroke: none; stroke-width: 1; stroke-dasharray: none; stroke-linecap: butt; stroke-dashoffset: 0; stroke-linejoin: miter; stroke-miterlimit: 4; fill: rgb(160,97,106); fill-rule: nonzero; opacity: 1;" vector-effect="non-scaling-stroke"  transform=" translate(-17.17, -17.17)" d="M 0 17.17 C 0 7.687270000000002 7.68727 0 17.17 0 C 26.652730000000002 0 34.34 7.68727 34.34 17.17 C 34.34 26.652730000000002 26.652730000000005 34.34 17.17 34.34 C 7.687270000000002 34.34 0 26.652730000000005 0 17.17 z" stroke-linecap="round" />
</g>
<g transform="matrix(0.87 0 0 0.76 260.03 234.75)" id="WlFxZfTvSLCyU54D13N_H"  >
<path style="stroke: none; stroke-width: 1; stroke-dasharray: none; stroke-linecap: butt; stroke-dashoffset: 0; stroke-linejoin: miter; stroke-miterlimit: 4; fill: rgb(160,97,106); fill-rule: nonzero; opacity: 1;" vector-effect="non-scaling-stroke"  transform=" translate(-546.94, -404.59)" d="M 534.39 402.16 C 534.29 405.29 532.93 408.22 531.59 411.06 C 530.7800000000001 412.77 529.72 414.68 527.87 415.06 C 533.0769722024523 417.14275011216955 538.4810942687556 418.6939643196701 544 419.69 C 545.8891299460043 420.11356822803623 547.8348559199334 420.2250421119593 549.76 420.02 C 551.378849152718 419.7305350375927 552.9331517530042 419.15486740785707 554.35 418.32 C 560.6469842455589 414.74914113053285 564.950836875138 408.4796043093808 566.02 401.32 C 563.9015486589759 401.5967070784573 561.7601673369895 401.6536765345978 559.63 401.49 C 558.424834717851 401.52291505769125 557.2534572129936 401.0894695589519 556.36 400.28000000000003 C 555.7966288396785 399.496487802831 555.4766350730972 398.56433204800726 555.44 397.6 Q 554.87 393.34000000000003 554.5300000000001 389.06 C 550.3070251408323 389.22352298087867 546.1520454133994 390.176624453049 542.2800000000001 391.87 C 540.6800000000001 392.57 539.1200000000001 393.38 537.4700000000001 393.98 C 536.4700000000001 394.34000000000003 533.5800000000002 394.41 532.8800000000001 395.06 C 531.8 396.09 534.45 400 534.39 402.16 Z" stroke-linecap="round" />
</g>
<g transform="matrix(0.87 0 0 0.76 262.4 263.26)" id="PpPm_acuXRPOeHXy-tCTx"  >
<path style="stroke: none; stroke-width: 1; stroke-dasharray: none; stroke-linecap: butt; stroke-dashoffset: 0; stroke-linejoin: miter; stroke-miterlimit: 4; fill: rgb(47,46,65); fill-rule: nonzero; opacity: 1;" vector-effect="non-scaling-stroke"  transform=" translate(-549.67, -442.13)" d="M 543 411.76 C 542.1366592909766 407.20053776855394 538.4572082730967 403.70224134127 533.86 403.07 C 532.0600000000001 402.86 530.16 403.07 528.49 402.4 C 525.64 401.16999999999996 524.44 397.58 521.6800000000001 396.16999999999996 C 518.9200000000001 394.75999999999993 515.34 396.06999999999994 513.3000000000001 398.42999999999995 C 511.2600000000001 400.78999999999996 510.4 404 509.78 407 C 508.8184929860015 411.1602805041359 508.50480097855376 415.44403157358346 508.84999999999997 419.7 C 508.8975139834743 420.4806070449693 509.10515339958397 421.24308621232285 509.46 421.94 C 510.0329935687363 422.7398174591109 510.72421977852747 423.4479028447507 511.51 424.04 C 513.6786697918161 426.03500401877227 514.8722272540672 428.87472177299657 514.78 431.82 C 514.8152617364104 434.5587209457167 515.3437038992836 437.2686807553229 516.3399999999999 439.82 C 518.7299999999999 446.9 521.1299999999999 453.99 523.2099999999999 461.17 C 523.6639740787623 462.4979113863367 523.9134898372153 463.8871072306964 523.9499999999999 465.29 C 523.9 467.29 522.9499999999999 469.29 523.4399999999999 471.24 C 523.7663109284996 472.13913211496134 524.0368250340005 473.0575442015386 524.2499999999999 473.99 C 524.2665789140256 474.7134508720529 524.1721486760155 475.43516769113006 523.9699999999999 476.13 C 522.66 481.75 518.8999999999999 494.69 519.55 500.42 C 528.0799999999999 497.28000000000003 540.9499999999999 495.42 549.99 494.42 C 552.4764881838394 494.1335456529337 554.9770746363769 493.9866487184722 557.48 493.98 C 563.48 493.98 569.77 495.11 575.37 492.91 C 580.5600000000001 490.91 584.87 486.09000000000003 590.45 486.07000000000005 C 591.32 482.80000000000007 588.82 472.46000000000004 587.37 469.40000000000003 C 581.6816382238434 457.3482319855368 579.4388934532589 443.9575228537597 580.89 430.7100000000001 C 581.41 425.95000000000005 579.51 421.15000000000003 580.16 416.40000000000003 C 580.2524235029371 415.28750154201356 580.5615606184981 414.20382308196963 581.0699999999999 413.21000000000004 C 581.6033697367025 412.20640620131576 582.6079263546095 411.54046417371444 583.7399999999999 411.44000000000005 C 583.0752998978322 403.99264657796886 581.6170282545804 396.6375937382119 579.3899999999999 389.5 C 578.5799999999999 386.96000000000004 577.1199999999999 384.02000000000004 574.4599999999999 383.8500000000001 C 572.06 383.69000000000005 570.29 385.8500000000001 568.56 387.5400000000001 C 566.7741981010994 389.2343622430555 564.6417193971496 390.520673397278 562.31 391.31000000000006 C 561.3546608391256 391.5205216206829 560.4633245324709 391.9559051243181 559.7099999999999 392.58000000000004 C 558.7099999999999 393.63000000000005 558.7099999999999 395.34000000000003 557.8799999999999 396.58000000000004 C 556.4399999999998 398.80000000000007 552.7599999999999 399.01000000000005 551.8799999999999 401.49000000000007 C 551.6951282820448 402.21930489753174 551.5647685413044 402.96135265251627 551.4899999999999 403.7100000000001 C 551.0813255728867 405.16990343835175 550.2622319765625 406.48184148670146 549.1299999999999 407.49000000000007 C 547.4725712437428 409.39986375646805 545.3659474050236 410.8672836245481 543 411.76 Z" stroke-linecap="round" />
</g>
<g transform="matrix(0.87 0 0 0.76 251.66 215.25)" id="kHaWVXslaMdWz2GsDqS3N"  >
<path style="stroke: none; stroke-width: 1; stroke-dasharray: none; stroke-linecap: butt; stroke-dashoffset: 0; stroke-linejoin: miter; stroke-miterlimit: 4; fill: rgb(70,69,91); fill-rule: nonzero; opacity: 1;" vector-effect="non-scaling-stroke"  transform=" translate(-537.33, -378.88)" d="M 552.79 363.74 C 553.0908280615746 362.5850455429742 552.7019113260391 361.3599578260374 551.79 360.59000000000003 C 551.2628968734267 360.3424803616227 550.7220052291917 360.1254559364667 550.17 359.94000000000005 C 549.4197034710372 359.4290303719075 548.7830641346069 358.7685596164664 548.3 358 C 545.3943724482934 354.72441999183457 540.5529653209592 354.015303690708 536.8299999999999 356.32 C 534.02 358.18 532.55 361.48 530.15 363.84999999999997 C 528.92 365.08 527.4499999999999 366.03999999999996 526.2099999999999 367.27 C 523.7544418716592 369.8837800033724 522.1533778264806 373.18357648864253 521.6199999999999 376.72999999999996 C 521.1066377459779 380.25873791298505 520.9625256049543 383.8313784323152 521.1899999999999 387.39 C 521.16028684405 388.4685099232284 521.3158782791722 389.54412027907273 521.65 390.57 C 522.0090641204044 391.41058690708394 522.5021373356028 392.18734608171144 523.11 392.87 C 526.158201948034 396.85196940610524 530.2443037365998 399.91741071403857 534.92 401.73 C 539.62 403.39000000000004 545.11 403.19 549.31 400.5 C 549.7306184326964 400.26717692752493 550.0771769275249 399.92061843269636 550.31 399.5 C 550.5098000049996 398.8755937664054 550.5098000049996 398.20440623359457 550.31 397.58 C 549.80898499438 395.0891201671834 550.0488687825762 392.50602372327415 551 390.15 C 551.8337667382515 388.50946438533424 552.5749290588653 386.82348703438834 553.22 385.09999999999997 C 553.6309068121943 383.125567247269 553.6850945755064 381.09352612306964 553.38 379.09999999999997 C 552.89 374 552 368.86 552.79 363.74 Z" stroke-linecap="round" />
</g>
<g transform="matrix(0.62 0 0 0.52 544.56 102.82)" id="jY2yYh_OpOLQ7EmNYy_ag"  >
<path style="stroke: none; stroke-width: 1; stroke-dasharray: none; stroke-linecap: butt; stroke-dashoffset: 0; stroke-linejoin: miter; stroke-miterlimit: 4; fill: rgb(40,88,235); fill-rule: nonzero; opacity: 0.1;" vector-effect="non-scaling-stroke"  transform=" translate(-808.29, -99.95)" d="M 846 94.65 C 846.8652106012441 93.41790897449546 847.3423059352134 91.95528094334904 847.37 90.45 C 847.37 81.33 828.79 73.95 805.87 73.95 C 782.95 73.95 764.37 81.33 764.37 90.45 C 764.3886785292628 92.14596948755772 764.9610620154955 93.78937728852007 766 95.13 C 740.48 97.97999999999999 723.29 103.32 723.29 109.44999999999999 C 723.29 118.55999999999999 761.29 125.94999999999999 808.29 125.94999999999999 C 855.29 125.94999999999999 893.29 118.55999999999999 893.29 109.44999999999999 C 893.32 103 874 97.35 846 94.65 Z" stroke-linecap="round" />
</g>
<g transform="matrix(0.87 0 0 0.76 354.34 9.03)" id="qyb8A3hAYpnVya3B-GzCf"  >
<path style="stroke: rgb(108,99,255); stroke-width: 3; stroke-dasharray: none; stroke-linecap: butt; stroke-dashoffset: 0; stroke-linejoin: miter; stroke-miterlimit: 10; fill: none; fill-rule: nonzero; opacity: 0.1;" vector-effect="non-scaling-stroke"  transform=" translate(-655.28, -107.13)" d="M 628.74 98.79 C 631.07 97.44000000000001 634.22 98.73 635.82 100.91000000000001 C 637.4200000000001 103.09000000000002 637.82 105.91000000000001 638.2700000000001 108.53000000000002 C 639.1600000000001 114.45000000000002 639.8100000000001 121.24000000000001 635.82 125.69000000000001 C 642.34 105.92000000000002 661.09 90.78000000000002 681.82 88.57000000000002" stroke-linecap="round" />
</g>
<g transform="matrix(0.62 0 0 0.52 515.77 173.34)" id="0hSz4unc6vzCr0t4Musn9"  >
<path style="stroke: rgb(108,99,255); stroke-width: 3; stroke-dasharray: none; stroke-linecap: butt; stroke-dashoffset: 0; stroke-linejoin: miter; stroke-miterlimit: 10; fill: none; fill-rule: nonzero; opacity: 0.1;" vector-effect="non-scaling-stroke"  transform=" translate(-762.26, -235.1)" d="M 745.21 229.77 C 746.71 228.9 748.73 229.77 749.76 231.13000000000002 C 750.6772543833326 232.61056550044094 751.2195901251184 234.29249280091574 751.34 236.03000000000003 C 751.9100000000001 239.84000000000003 752.34 244.20000000000002 749.77 247.03000000000003 C 754.2446187141616 234.07697744890075 765.7156734362702 224.8108496581484 779.3199999999999 223.16000000000003" stroke-linecap="round" />
</g>
<g transform="matrix(0.87 0 0 0.76 398.76 345.11)" id="iYjvBKJjAlxiWxQUEyC5w"  >
<path style="stroke: none; stroke-width: 1; stroke-dasharray: none; stroke-linecap: butt; stroke-dashoffset: 0; stroke-linejoin: miter; stroke-miterlimit: 4; fill: rgb(40,88,235); fill-rule: nonzero; opacity: 0.1;" vector-effect="non-scaling-stroke"  transform=" translate(-706.32, -550)" d="M 708.32 566 L 708.32 541.7 L 719.5200000000001 552.9000000000001 L 722.32 550.0000000000001 L 706.32 534.0000000000001 L 690.32 550.0000000000001 L 693.12 552.7900000000001 L 704.32 541.7 L 704.32 566 Z" stroke-linecap="round" />
</g>
<g transform="matrix(0.87 0 0 0.76 188.12 405.82)" id="LZUcokuphoGISesTUakkw"  >
<path style="stroke: none; stroke-width: 1; stroke-dasharray: none; stroke-linecap: butt; stroke-dashoffset: 0; stroke-linejoin: miter; stroke-miterlimit: 4; fill: rgb(40,88,235); fill-rule: nonzero; opacity: 0.1;" vector-effect="non-scaling-stroke"  transform=" translate(-464.32, -630)" d="M 466.32 646 L 466.32 621.7 L 477.52 632.9000000000001 L 480.32 630.0000000000001 L 464.32 614.0000000000001 L 448.32 630.0000000000001 L 451.12 632.7900000000001 L 462.32 621.7 L 462.32 646 Z" stroke-linecap="round" />
</g>
<g transform="matrix(0.87 0 0 0.76 343.06 459.7)" id="Ogga4E0dmNf_z2q-GBGXW"  >
<path style="stroke: none; stroke-width: 1; stroke-dasharray: none; stroke-linecap: butt; stroke-dashoffset: 0; stroke-linejoin: miter; stroke-miterlimit: 4; fill: rgb(40,88,235); fill-rule: nonzero; opacity: 0.1;" vector-effect="non-scaling-stroke"  transform=" translate(-642.32, -701)" d="M 644.32 717 L 644.32 692.7 L 655.5200000000001 703.9000000000001 L 658.32 701.0000000000001 L 642.32 685.0000000000001 L 626.32 701.0000000000001 L 629.12 703.7900000000001 L 640.32 692.7 L 640.32 717 Z" stroke-linecap="round" />
</g>
</svg>