<?xml version="1.0" encoding="UTF-8" standalone="no" ?>
<!DOCTYPE svg PUBLIC "-//W3C//DTD SVG 1.1//EN" "http://www.w3.org/Graphics/SVG/1.1/DTD/svg11.dtd">
<svg xmlns="http://www.w3.org/2000/svg" xmlns:xlink="http://www.w3.org/1999/xlink" version="1.1" width="1000" height="650" viewBox="0 0 1000 650" xml:space="preserve">
<desc>Created with Fabric.js 4.6.0</desc>
<defs>
</defs>
<g transform="matrix(1.3 0 0 1.2 352.52 551.21)" id="_KIkWOQyW8Po9ANrhcQAv"  >
<path style="stroke: none; stroke-width: 1; stroke-dasharray: none; stroke-linecap: butt; stroke-dashoffset: 0; stroke-linejoin: miter; stroke-miterlimit: 4; fill: rgb(241,241,241); fill-rule: nonzero; opacity: 1;" vector-effect="non-scaling-stroke"  transform=" translate(-976.25, -670.97)" d="M 990.63733 719.30506 L 991.86225 719.2811300000001 C 991.3884961254845 705.6616053460413 989.935333709465 692.0938233923397 987.5140200000001 678.6828900000002 C 982.2171900000001 649.9702100000001 973.40948 631.1131200000001 961.3355100000001 622.63557 L 960.6321400000002 623.6379900000001 C 988.837 643.44128 990.623 718.54845 990.63733 719.30506 Z" stroke-linecap="round" />
</g>
<g transform="matrix(1.3 0 0 1.2 343.81 583.54)" id="bR0la3G6VCwpLL2HG6CjT"  >
<path style="stroke: none; stroke-width: 1; stroke-dasharray: none; stroke-linecap: butt; stroke-dashoffset: 0; stroke-linejoin: miter; stroke-miterlimit: 4; fill: rgb(241,241,241); fill-rule: nonzero; opacity: 1;" vector-effect="non-scaling-stroke"  transform=" translate(-969.51, -697.92)" d="M 975.32581 719.012 L 976.55073 718.98807 C 976.5244 717.63157 975.75882 685.6616 963.1729 676.82518 L 962.46952 677.82761 C 974.54768 686.30755 975.31983 718.686 975.32581 719.012 Z" stroke-linecap="round" />
</g>
<g transform="matrix(1.3 0 0 1.2 323.34 487.19)" id="rRsMjsrqEy_z8LXWMLHuI"  >
<path style="stroke: none; stroke-width: 1; stroke-dasharray: none; stroke-linecap: butt; stroke-dashoffset: 0; stroke-linejoin: miter; stroke-miterlimit: 4; fill: rgb(241,241,241); fill-rule: nonzero; opacity: 1;" vector-effect="non-scaling-stroke"  transform=" translate(-6.12, -6.12)" d="M 0 6.12461 C 0 2.7420799999999996 2.74208 0 6.12461 0 C 9.50714 0 12.24922 2.74208 12.24922 6.12461 C 12.24922 9.50714 9.50714 12.24922 6.12461 12.24922 C 2.7420799999999996 12.24922 0 9.50714 0 6.12461 z" stroke-linecap="round" />
</g>
<g transform="matrix(1.3 0 0 1.2 327.26 550.4)" id="GUTBq7i_84AXdT8sAzmXx"  >
<path style="stroke: none; stroke-width: 1; stroke-dasharray: none; stroke-linecap: butt; stroke-dashoffset: 0; stroke-linejoin: miter; stroke-miterlimit: 4; fill: rgb(241,241,241); fill-rule: nonzero; opacity: 1;" vector-effect="non-scaling-stroke"  transform=" translate(-6.12, -6.12)" d="M 0 6.12461 C 0 2.7420799999999996 2.74208 0 6.12461 0 C 9.50714 0 12.24922 2.74208 12.24922 6.12461 C 12.24922 9.50714 9.50714 12.24922 6.12461 12.24922 C 2.7420799999999996 12.24922 0 9.50714 0 6.12461 z" stroke-linecap="round" />
</g>
<g transform="matrix(1.3 0 0 1.2 360.14 499.7)" id="WrLE9KC53oKMotA9cut-J"  >
<path style="stroke: none; stroke-width: 1; stroke-dasharray: none; stroke-linecap: butt; stroke-dashoffset: 0; stroke-linejoin: miter; stroke-miterlimit: 4; fill: rgb(241,241,241); fill-rule: nonzero; opacity: 1;" vector-effect="non-scaling-stroke"  transform=" translate(-982.15, -628.04)" d="M 978.18063 627.42068 C 977.5668236716178 632.1450664705496 978.2044206304845 636.9478095294713 980.02963 641.3484 C 986.5418700657572 634.0694666991736 988.1738604056225 623.6454208264312 984.1978799999999 614.7244499999999 C 981.115058673487 618.3566592015334 979.040110973171 622.7347410896358 978.18063 627.42068 Z" stroke-linecap="round" />
</g>
<g transform="matrix(1.3 0 0 1.2 330.83 515.79)" id="6R7i-w83XOVW3JInWrRII"  >
<path style="stroke: none; stroke-width: 1; stroke-dasharray: none; stroke-linecap: butt; stroke-dashoffset: 0; stroke-linejoin: miter; stroke-miterlimit: 4; fill: rgb(241,241,241); fill-rule: nonzero; opacity: 1;" vector-effect="non-scaling-stroke"  transform=" translate(-959.45, -641.46)" d="M 958.161 645.27624 C 962.7061677236329 646.7038511450837 967.5465423622181 646.9128546657059 972.1978499999999 645.88234 C 966.1649459186149 638.201447814152 956.1847225168669 634.7781374671621 946.7074399999999 637.13889 C 949.7469359478341 640.8074151299876 953.696504312834 643.6134440096488 958.161 645.27624 Z" stroke-linecap="round" />
</g>
<g transform="matrix(1.3 0 0 1.2 330.04 573.14)" id="jhr5h0ZXax29_KuSKXeqi"  >
<path style="stroke: none; stroke-width: 1; stroke-dasharray: none; stroke-linecap: butt; stroke-dashoffset: 0; stroke-linejoin: miter; stroke-miterlimit: 4; fill: rgb(241,241,241); fill-rule: nonzero; opacity: 1;" vector-effect="non-scaling-stroke"  transform=" translate(-958.84, -689.25)" d="M 957.93488 691.92193 C 961.1206739617664 692.9225606302307 964.5133794072962 693.0690595016738 967.7735700000001 692.34677 C 963.5450079089708 686.9630798000824 956.5496810438018 684.5636140385537 949.9068800000001 686.21832 C 952.0373132607745 688.7896557865008 954.8056354102516 690.7564507410324 957.93488 691.92193 Z" stroke-linecap="round" />
</g>
<g transform="matrix(0.99 0 0 0.91 603.68 436.72)" id="gcGHCzRaQ-Sr5ktKkIlyN"  >
<path style="stroke: none; stroke-width: 1; stroke-dasharray: none; stroke-linecap: butt; stroke-dashoffset: 0; stroke-linejoin: miter; stroke-miterlimit: 4; fill: rgb(241,241,241); fill-rule: nonzero; opacity: 1;" vector-effect="non-scaling-stroke"  transform=" translate(-499.69, -688.26)" d="M 491.25005 718.87967 L 489.47211999999996 718.8449400000001 C 489.51034 716.87602 490.62154999999996 670.4727 508.8896 657.6469400000001 L 509.91051999999996 659.1019400000001 C 492.37949 671.41028 491.25873 718.40654 491.25005 718.87967 Z" stroke-linecap="round" />
</g>
<g transform="matrix(0.99 0 0 0.91 626.35 330.34)" id="wXKRmj-RiaGUB5Psucy9I"  >
<path style="stroke: none; stroke-width: 1; stroke-dasharray: none; stroke-linecap: butt; stroke-dashoffset: 0; stroke-linejoin: miter; stroke-miterlimit: 4; fill: rgb(241,241,241); fill-rule: nonzero; opacity: 1;" vector-effect="non-scaling-stroke"  transform=" translate(-8.89, -8.89)" d="M 0 8.88967 C 0 3.9800400000000007 3.98004 0 8.88967 0 C 13.7993 0 17.77934 3.98004 17.77934 8.88967 C 17.77934 13.7993 13.799300000000002 17.77934 8.88967 17.77934 C 3.9800400000000007 17.77934 0 13.799300000000002 0 8.88967 z" stroke-linecap="round" />
</g>
<g transform="matrix(0.99 0 0 0.91 622.01 400.12)" id="TMfREk9g-RILEChTR0Rqb"  >
<path style="stroke: none; stroke-width: 1; stroke-dasharray: none; stroke-linecap: butt; stroke-dashoffset: 0; stroke-linejoin: miter; stroke-miterlimit: 4; fill: rgb(241,241,241); fill-rule: nonzero; opacity: 1;" vector-effect="non-scaling-stroke"  transform=" translate(-8.89, -8.89)" d="M 0 8.88966 C 0 3.980039999999999 3.98004 0 8.88966 0 C 13.79928 0 17.77932 3.98004 17.77932 8.88966 C 17.77932 13.79928 13.79928 17.77932 8.88966 17.77932 C 3.980039999999999 17.77932 0 13.79928 0 8.88966 z" stroke-linecap="round" />
</g>
<g transform="matrix(0.99 0 0 0.91 618.07 361.92)" id="4cLLtZMTrr2VAmPRMAqTy"  >
<path style="stroke: none; stroke-width: 1; stroke-dasharray: none; stroke-linecap: butt; stroke-dashoffset: 0; stroke-linejoin: miter; stroke-miterlimit: 4; fill: rgb(241,241,241); fill-rule: nonzero; opacity: 1;" vector-effect="non-scaling-stroke"  transform=" translate(-514.29, -606.32)" d="M 516.16415 611.85472 C 509.5669972745894 613.926848394694 502.54136217325475 614.2302121045227 495.7901499999999 612.73446 C 504.54670183218474 601.58589737521 519.0326643352511 596.6170772414811 532.7886199999999 600.04364 C 528.3768891580609 605.3683791547064 522.6442189531598 609.4412323887466 516.16415 611.85472 Z" stroke-linecap="round" />
</g>
<g transform="matrix(0.99 0 0 0.91 618.96 425.24)" id="BNg0NQWjuLNXTbRFHLWOl"  >
<path style="stroke: none; stroke-width: 1; stroke-dasharray: none; stroke-linecap: butt; stroke-dashoffset: 0; stroke-linejoin: miter; stroke-miterlimit: 4; fill: rgb(241,241,241); fill-rule: nonzero; opacity: 1;" vector-effect="non-scaling-stroke"  transform=" translate(-515.18, -675.68)" d="M 516.4924 679.55937 C 511.868326213536 681.0117508116867 506.94392775596623 681.2243886525005 502.21187 680.1760099999999 C 508.3494895859742 672.3617634941623 518.5029726083803 668.879016287811 528.14478 671.2807599999999 C 525.0525222845197 675.0129678038769 521.0343942512925 677.8677077726348 516.4924 679.55937 Z" stroke-linecap="round" />
</g>
<g transform="matrix(0.66 0 0 1.2 150.6 329.66)" id="FyV1DNwNj7tRrJ2ttd-yG"  >
<path style="stroke: none; stroke-width: 1; stroke-dasharray: none; stroke-linecap: butt; stroke-dashoffset: 0; stroke-linejoin: miter; stroke-miterlimit: 4; fill: rgb(229,229,229); fill-rule: nonzero; opacity: 1;" vector-effect="non-scaling-stroke"  transform=" translate(-782.98, -481.33)" d="M 896.41455 526.4292 L 669.54305 526.4292 C 665.7708370491387 526.4248245880747 662.7139454119254 523.3679329508614 662.70957 519.59572 L 662.70957 443.06072000000006 C 662.7139454119254 439.28850704913873 665.7708370491387 436.2316154119255 669.54305 436.22724000000005 L 896.41455 436.22724000000005 C 900.1867880449546 436.2315549279777 903.2437150720224 439.2884819550454 903.24803 443.06072000000006 L 903.24803 519.59572 C 903.2437150720224 523.3679580449547 900.1867880449546 526.4248850720224 896.41455 526.4292 Z" stroke-linecap="round" />
</g>
<g transform="matrix(0.99 0 0 0.91 828.94 228.48)" id="EJWP0CdrmpBFGhYlg35Fk"  >
<path style="stroke: none; stroke-width: 1; stroke-dasharray: none; stroke-linecap: butt; stroke-dashoffset: 0; stroke-linejoin: miter; stroke-miterlimit: 4; fill: rgb(255,255,255); fill-rule: nonzero; opacity: 1;" vector-effect="non-scaling-stroke"  transform=" translate(-30.07, -3.42)" d="M 0 6.83348 L 0 0 L 60.13462 0 L 60.13462 6.83348 z" stroke-linecap="round" />
</g>
<g transform="matrix(1.03 0 0 0.95 876.21 372.16)" id="f2lWjSI9oJtU4cFk0d3sd"  >
<path style="stroke: none; stroke-width: 1; stroke-dasharray: none; stroke-linecap: butt; stroke-dashoffset: 0; stroke-linejoin: miter; stroke-miterlimit: 4; fill: rgb(40,88,235); fill-rule: nonzero; opacity: 1;" vector-effect="non-scaling-stroke"  transform=" translate(-4.1, -4.1)" d="M 0 4.10009 C 0 1.83567 1.83567 0 4.10009 0 C 6.364509999999999 0 8.20018 1.83567 8.20018 4.10009 C 8.20018 6.364509999999999 6.364509999999999 8.20018 4.10009 8.20018 C 1.83567 8.20018 0 6.364509999999999 0 4.10009 z" stroke-linecap="round" />
</g>
<g transform="matrix(1.3 0 0 1.2 191.13 299.06)" id="XFOPNcqjvlrbrag-ouhQo"  >
<path style="stroke: none; stroke-width: 1; stroke-dasharray: none; stroke-linecap: butt; stroke-dashoffset: 0; stroke-linejoin: miter; stroke-miterlimit: 4; fill: rgb(40,88,235); fill-rule: nonzero; opacity: 1;" vector-effect="non-scaling-stroke"  transform=" translate(-4.1, -4.1)" d="M 0 4.10009 C 0 1.83567 1.83567 0 4.10009 0 C 6.364509999999999 0 8.20018 1.83567 8.20018 4.10009 C 8.20018 6.364509999999999 6.364509999999999 8.20018 4.10009 8.20018 C 1.83567 8.20018 0 6.364509999999999 0 4.10009 z" stroke-linecap="round" />
</g>
<g transform="matrix(1.3 0 0 1.2 208.79 299.06)" id="OIAfnZH2YZswcGIBOqgnv"  >
<path style="stroke: none; stroke-width: 1; stroke-dasharray: none; stroke-linecap: butt; stroke-dashoffset: 0; stroke-linejoin: miter; stroke-miterlimit: 4; fill: rgb(40,88,235); fill-rule: nonzero; opacity: 1;" vector-effect="non-scaling-stroke"  transform=" translate(-4.1, -4.1)" d="M 0 4.10009 C 0 1.83567 1.83567 0 4.10009 0 C 6.364509999999999 0 8.20018 1.83567 8.20018 4.10009 C 8.20018 6.364509999999999 6.364509999999999 8.20018 4.10009 8.20018 C 1.83567 8.20018 0 6.364509999999999 0 4.10009 z" stroke-linecap="round" />
</g>
<g transform="matrix(0.66 0 0 1.2 150.6 446.09)" id="K5MAARZWjbCASgEVEmtcK"  >
<path style="stroke: none; stroke-width: 1; stroke-dasharray: none; stroke-linecap: butt; stroke-dashoffset: 0; stroke-linejoin: miter; stroke-miterlimit: 4; fill: rgb(229,229,229); fill-rule: nonzero; opacity: 1;" vector-effect="non-scaling-stroke"  transform=" translate(-782.98, -578.36)" d="M 896.41455 623.4646 L 669.54305 623.4646 C 665.7708370491387 623.4602245880747 662.7139454119254 620.4033329508613 662.70957 616.63112 L 662.70957 540.09612 C 662.7139454119254 536.3239070491387 665.7708370491387 533.2670154119254 669.54305 533.26264 L 896.41455 533.26264 C 900.1867880449546 533.2669549279776 903.2437150720224 536.3238819550454 903.24803 540.09612 L 903.24803 616.63112 C 903.2437150720224 620.4033580449546 900.1867880449546 623.4602850720224 896.41455 623.4646 Z" stroke-linecap="round" />
</g>
<g transform="matrix(0.99 0 0 0.91 828.94 317.06)" id="CU22K-S0bF2noHo5JhSx8"  >
<path style="stroke: none; stroke-width: 1; stroke-dasharray: none; stroke-linecap: butt; stroke-dashoffset: 0; stroke-linejoin: miter; stroke-miterlimit: 4; fill: rgb(255,255,255); fill-rule: nonzero; opacity: 1;" vector-effect="non-scaling-stroke"  transform=" translate(-30.07, -3.42)" d="M 0 6.83348 L 0 0 L 60.13462 0 L 60.13462 6.83348 z" stroke-linecap="round" />
</g>
<g transform="matrix(1.03 0 0 0.95 115.96 191.35)" id="uPlCkfHXfcysKiDCuKjfh"  >
<path style="stroke: none; stroke-width: 1; stroke-dasharray: none; stroke-linecap: butt; stroke-dashoffset: 0; stroke-linejoin: miter; stroke-miterlimit: 4; fill: rgb(40,88,235); fill-rule: nonzero; opacity: 1;" vector-effect="non-scaling-stroke"  transform=" translate(-4.1, -4.1)" d="M 0 4.10009 C 0 1.83567 1.83567 0 4.10009 0 C 6.364509999999999 0 8.20018 1.83567 8.20018 4.10009 C 8.20018 6.364509999999999 6.364509999999999 8.20018 4.10009 8.20018 C 1.83567 8.20018 0 6.364509999999999 0 4.10009 z" stroke-linecap="round" />
</g>
<g transform="matrix(1.3 0 0 1.2 191.13 415.49)" id="hziUspIUDC9GLG70mAaX2"  >
<path style="stroke: none; stroke-width: 1; stroke-dasharray: none; stroke-linecap: butt; stroke-dashoffset: 0; stroke-linejoin: miter; stroke-miterlimit: 4; fill: rgb(40,88,235); fill-rule: nonzero; opacity: 1;" vector-effect="non-scaling-stroke"  transform=" translate(-4.1, -4.1)" d="M 0 4.10009 C 0 1.83567 1.83567 0 4.10009 0 C 6.364509999999999 0 8.20018 1.83567 8.20018 4.10009 C 8.20018 6.364509999999999 6.364509999999999 8.20018 4.10009 8.20018 C 1.83567 8.20018 0 6.364509999999999 0 4.10009 z" stroke-linecap="round" />
</g>
<g transform="matrix(1.3 0 0 1.2 208.79 415.49)" id="NTW74MSCx9KGwC0ftkbze"  >
<path style="stroke: none; stroke-width: 1; stroke-dasharray: none; stroke-linecap: butt; stroke-dashoffset: 0; stroke-linejoin: miter; stroke-miterlimit: 4; fill: rgb(40,88,235); fill-rule: nonzero; opacity: 1;" vector-effect="non-scaling-stroke"  transform=" translate(-4.1, -4.1)" d="M 0 4.10009 C 0 1.83567 1.83567 0 4.10009 0 C 6.364509999999999 0 8.20018 1.83567 8.20018 4.10009 C 8.20018 6.364509999999999 6.364509999999999 8.20018 4.10009 8.20018 C 1.83567 8.20018 0 6.364509999999999 0 4.10009 z" stroke-linecap="round" />
</g>
<g transform="matrix(0.66 0 0 1.2 150.6 562.52)" id="YZYvz8_SKQG8xxzmuB_5h"  >
<path style="stroke: none; stroke-width: 1; stroke-dasharray: none; stroke-linecap: butt; stroke-dashoffset: 0; stroke-linejoin: miter; stroke-miterlimit: 4; fill: rgb(229,229,229); fill-rule: nonzero; opacity: 1;" vector-effect="non-scaling-stroke"  transform=" translate(-782.98, -675.4)" d="M 896.41455 720.5 L 669.54305 720.5 C 665.7708370491387 720.4956245880746 662.7139454119254 717.4387329508613 662.70957 713.66652 L 662.70957 637.13152 C 662.7139454119254 633.3593070491387 665.7708370491387 630.3024154119254 669.54305 630.29804 L 896.41455 630.29804 C 900.1867880449546 630.3023549279776 903.2437150720224 633.3592819550454 903.24803 637.13152 L 903.24803 713.66652 C 903.2437150720224 717.4387580449546 900.1867880449546 720.4956850720224 896.41455 720.5 Z" stroke-linecap="round" />
</g>
<g transform="matrix(0.99 0 0 0.91 786.07 305.83)" id="R9LXFBHMfrtN1JKmEiN0_"  >
<path style="stroke: none; stroke-width: 1; stroke-dasharray: none; stroke-linecap: butt; stroke-dashoffset: 0; stroke-linejoin: miter; stroke-miterlimit: 4; fill: rgb(255,255,255); fill-rule: nonzero; opacity: 1;" vector-effect="non-scaling-stroke"  transform=" translate(-30.07, -3.42)" d="M 0 6.83348 L 0 0 L 60.13462 0 L 60.13462 6.83348 z" stroke-linecap="round" />
</g>
<g transform="matrix(1.03 0 0 0.95 115.96 283.93)" id="pET2dsFdhG_nxuQYQ-cgY"  >
<path style="stroke: none; stroke-width: 1; stroke-dasharray: none; stroke-linecap: butt; stroke-dashoffset: 0; stroke-linejoin: miter; stroke-miterlimit: 4; fill: rgb(40,88,235); fill-rule: nonzero; opacity: 1;" vector-effect="non-scaling-stroke"  transform=" translate(-4.1, -4.1)" d="M 0 4.10009 C 0 1.83567 1.83567 0 4.10009 0 C 6.364509999999999 0 8.20018 1.83567 8.20018 4.10009 C 8.20018 6.364509999999999 6.364509999999999 8.20018 4.10009 8.20018 C 1.83567 8.20018 0 6.364509999999999 0 4.10009 z" stroke-linecap="round" />
</g>
<g transform="matrix(1.3 0 0 1.2 191.13 531.92)" id="PaGc_yF-vY41q4ywCInfN"  >
<path style="stroke: none; stroke-width: 1; stroke-dasharray: none; stroke-linecap: butt; stroke-dashoffset: 0; stroke-linejoin: miter; stroke-miterlimit: 4; fill: rgb(40,88,235); fill-rule: nonzero; opacity: 1;" vector-effect="non-scaling-stroke"  transform=" translate(-4.1, -4.1)" d="M 0 4.10009 C 0 1.83567 1.83567 0 4.10009 0 C 6.364509999999999 0 8.20018 1.83567 8.20018 4.10009 C 8.20018 6.364509999999999 6.364509999999999 8.20018 4.10009 8.20018 C 1.83567 8.20018 0 6.364509999999999 0 4.10009 z" stroke-linecap="round" />
</g>
<g transform="matrix(1.3 0 0 1.2 208.79 531.92)" id="Lsjv6ez-FRy4_986Os8KN"  >
<path style="stroke: none; stroke-width: 1; stroke-dasharray: none; stroke-linecap: butt; stroke-dashoffset: 0; stroke-linejoin: miter; stroke-miterlimit: 4; fill: rgb(40,88,235); fill-rule: nonzero; opacity: 1;" vector-effect="non-scaling-stroke"  transform=" translate(-4.1, -4.1)" d="M 0 4.10009 C 0 1.83567 1.83567 0 4.10009 0 C 6.364509999999999 0 8.20018 1.83567 8.20018 4.10009 C 8.20018 6.364509999999999 6.364509999999999 8.20018 4.10009 8.20018 C 1.83567 8.20018 0 6.364509999999999 0 4.10009 z" stroke-linecap="round" />
</g>
<g transform="matrix(0.99 0 0 0.91 725.58 188.22)" id="Ztd6dqw79G0VLsQiH6oa4"  >
<path style="stroke: none; stroke-width: 1; stroke-dasharray: none; stroke-linecap: butt; stroke-dashoffset: 0; stroke-linejoin: miter; stroke-miterlimit: 4; fill: rgb(63,61,86); fill-rule: nonzero; opacity: 1;" vector-effect="non-scaling-stroke"  transform=" translate(-623.41, -416.04)" d="M 624.16975 555.4751 C 619.8486270533548 555.4607030971305 615.5463845211791 554.9041797218615 611.36383 553.81857 L 610.53946 553.5904800000001 L 609.77473 553.2073300000001 C 582.1273199999999 539.34545 558.80273 521.0358500000001 540.4485999999999 498.7868200000001 C 525.2552485916249 480.26130277079324 513.4098486619762 459.22751495384654 505.445 436.63118999999995 C 495.92030703264373 409.5778762394843 491.33799364925204 381.0322702030209 491.91681000000005 352.3570800000001 C 491.92847 351.75517 491.93838 351.29042 491.93838 350.97023 C 491.93838 337.03102 499.67573 324.8004 511.65008 319.81101 C 520.81468 315.99242000000004 604.02485 281.81469000000004 610.0369900000001 279.34525 C 621.35949 273.67195000000004 633.43856 278.40725000000003 635.37156 279.23525 C 639.70736 281.00796 716.63008 312.47025 733.2530300000001 320.38569 C 750.3846400000001 328.54358 754.9555300000001 343.19895 754.9555300000001 350.57230000000004 C 754.9555300000001 383.95382000000006 749.17421 415.15151000000003 737.77205 443.29883000000007 C 728.5636622918126 466.08203058990597 715.512458462467 487.1153587991723 699.18705 505.48244000000005 C 667.68899 540.92889 636.1825699999999 553.49485 635.8785 553.6056000000001 C 632.1130757212005 554.9012383427937 628.1514148329588 555.5337845181384 624.16975 555.4751 Z M 616.76046 537.122 C 619.492 537.7344099999999 625.78081 538.6529999999999 629.87977 537.15775 C 635.08696 535.25875 661.4573 521.58416 686.09961 493.85301 C 720.14678 455.53801 737.4223499999999 407.37293 737.4476099999999 350.69552999999996 C 737.3868 349.54726999999997 736.5713599999999 341.35752999999994 725.72584 336.19325999999995 C 709.42522 328.43093999999996 629.4705899999999 295.73759999999993 628.6648399999999 295.4080799999999 L 628.4439399999999 295.3144299999999 C 626.7683699999999 294.6122699999999 621.4358599999999 293.1333199999999 617.7600699999999 295.0595199999999 L 617.0240699999999 295.4026399999999 C 616.1328599999999 295.7686399999999 527.8042899999999 332.0470899999999 518.3839999999999 335.9721499999999 C 511.7942299999999 338.7178699999999 509.4463199999999 345.51999999999987 509.4463199999999 350.9702499999999 C 509.4463199999999 351.3685499999999 509.4360199999999 351.94792999999993 509.4214499999999 352.6967199999999 C 508.66861 391.47757 517.64272 486.90515 616.76046 537.122 Z" stroke-linecap="round" />
</g>
<g transform="matrix(0.99 0 0 0.91 725.58 188.22)" id="oc6EhgJ5QKQoGO6hZuMzj"  >
<path style="stroke: none; stroke-width: 1; stroke-dasharray: none; stroke-linecap: butt; stroke-dashoffset: 0; stroke-linejoin: miter; stroke-miterlimit: 4; fill: rgb(40,88,235); fill-rule: nonzero; opacity: 1;" vector-effect="non-scaling-stroke"  transform=" translate(-623.41, -416.04)" d="M 613.69824 287.305 C 613.69824 287.305 524.56686 323.91253 515.0170700000001 327.89161 C 505.4672800000002 331.87069 500.6923900000001 341.42048 500.6923900000001 350.97027 C 500.6923900000001 360.52006000000006 493.53 485.132 613.69824 545.38167 C 613.69824 545.38167 624.60468 548.39939 632.8792400000001 545.38167 C 641.1538000000002 542.3639499999999 746.2015500000001 491.43174 746.2015500000001 350.57232999999997 C 746.2015500000001 350.57232999999997 746.2015500000001 336.24764 729.4894100000001 328.28947999999997 C 712.7772700000002 320.33131999999995 631.97694 287.305 631.97694 287.305 C 631.97694 287.305 622.05431 282.928 613.69824 287.305 Z" stroke-linecap="round" />
</g>
<g transform="matrix(0.99 0 0 0.91 769.34 186)" id="J6BIM9vD42h4-ySbDTXV6"  >
<path style="stroke: none; stroke-width: 1; stroke-dasharray: none; stroke-linecap: butt; stroke-dashoffset: 0; stroke-linejoin: miter; stroke-miterlimit: 4; fill: rgb(0,0,0); fill-rule: nonzero; opacity: 0.2;" vector-effect="non-scaling-stroke"  transform=" translate(-667.82, -413.6)" d="M 623.248 315.95433 L 623.248 511.24254 C 623.248 511.24254 713.1752 467.95517 712.3793800000001 354.15354 Z" stroke-linecap="round" />
</g>
<g transform="matrix(0.95 0 0 0.96 562.99 392.72)" id="inq4KN2rYr5lDGoD3q2Uw"  >
<path style="stroke: none; stroke-width: 1; stroke-dasharray: none; stroke-linecap: butt; stroke-dashoffset: 0; stroke-linejoin: miter; stroke-miterlimit: 4; fill: rgb(63,61,86); fill-rule: nonzero; opacity: 1;" vector-effect="non-scaling-stroke"  transform=" translate(-558.6, -423.05)" d="M 862.09649 208.674 L 255.09649000000002 208.674 C 250.2824251812962 208.6783777412649 246.3809886796087 212.57993504805253 246.37676000000002 217.394 L 246.37676000000002 628.714 C 246.38098867960866 633.5280649519475 250.2824251812962 637.4296222587352 255.09649000000002 637.4340000000001 L 862.09649 637.4340000000001 C 864.6480684727242 637.4341137648067 867.0714497890867 636.3156924959983 868.72686 634.3740000000001 C 868.7960773017085 634.2988550227334 868.8595682760232 634.2186305632434 868.9168 634.1340000000001 C 869.4373035575129 633.4975802339621 869.8587210079569 632.7862107209147 870.1668 632.0239500000001 C 870.6055497838016 630.9757477535227 870.8298535417832 629.8502676817914 870.82647 628.7139500000002 L 870.82647 217.39406 C 870.8212381780731 212.5763989734036 866.9141538611254 208.67375433173856 862.09649 208.674 Z M 868.33672 628.714 C 868.3376780618037 629.930597446112 867.9792595919307 631.1203740745351 867.30645 632.134 C 866.7087103056273 633.0262166243342 865.8975230722325 633.7549503828874 864.94658 634.254 C 864.0656081773263 634.7091716307586 863.088099418161 634.9458241728973 862.09649 634.9440000000001 L 255.09649000000002 634.9440000000001 C 251.65748521511327 634.93982890335 248.87066109665014 632.1530047848868 248.86649000000003 628.714 L 248.86649000000003 217.39406 C 248.87063355321243 213.95503568892073 251.65746572228622 211.16818115361764 255.09649000000002 211.16401 L 862.09649 211.16401 C 865.5390822786541 211.1635702214272 868.3315391237525 213.95147159169807 868.33672 217.39406 Z" stroke-linecap="round" />
</g>
<g transform="matrix(0.95 0 0 0.96 562.99 223.27)" id="UPjefhmk_n6QuPOPrTJiT"  >
<path style="stroke: none; stroke-width: 1; stroke-dasharray: none; stroke-linecap: butt; stroke-dashoffset: 0; stroke-linejoin: miter; stroke-miterlimit: 4; fill: rgb(63,61,86); fill-rule: nonzero; opacity: 1;" vector-effect="non-scaling-stroke"  transform=" translate(-310.98, -1.25)" d="M 0 2.49281 L 0 0 L 621.95676 0 L 621.95676 2.49281 z" stroke-linecap="round" />
</g>
<g transform="matrix(0.95 0 0 0.96 287.44 206.65)" id="DWjiWwrwQGLSJ3wEpH5qA"  >
<path style="stroke: none; stroke-width: 1; stroke-dasharray: none; stroke-linecap: butt; stroke-dashoffset: 0; stroke-linejoin: miter; stroke-miterlimit: 4; fill: rgb(63,61,86); fill-rule: nonzero; opacity: 1;" vector-effect="non-scaling-stroke"  transform=" translate(-7.48, -7.48)" d="M 0 7.47844 C 0 3.34821 3.34821 0 7.47844 0 C 11.60867 0 14.95688 3.34821 14.95688 7.47844 C 14.95688 11.60867 11.60867 14.95688 7.47844 14.95688 C 3.34821 14.95688 0 11.60867 0 7.47844 z" stroke-linecap="round" />
</g>
<g transform="matrix(0.95 0 0 0.96 307.88 206.65)" id="4kLSzN2y5d9lauuGFHDkv"  >
<path style="stroke: none; stroke-width: 1; stroke-dasharray: none; stroke-linecap: butt; stroke-dashoffset: 0; stroke-linejoin: miter; stroke-miterlimit: 4; fill: rgb(63,61,86); fill-rule: nonzero; opacity: 1;" vector-effect="non-scaling-stroke"  transform=" translate(-7.48, -7.48)" d="M 0 7.47844 C 0 3.34821 3.34821 0 7.47844 0 C 11.60867 0 14.95688 3.34821 14.95688 7.47844 C 14.95688 11.60867 11.60867 14.95688 7.47844 14.95688 C 3.34821 14.95688 0 11.60867 0 7.47844 z" stroke-linecap="round" />
</g>
<g transform="matrix(0.95 0 0 0.96 328.32 206.65)" id="9rCP_083i2BiB6f8h2A91"  >
<path style="stroke: none; stroke-width: 1; stroke-dasharray: none; stroke-linecap: butt; stroke-dashoffset: 0; stroke-linejoin: miter; stroke-miterlimit: 4; fill: rgb(63,61,86); fill-rule: nonzero; opacity: 1;" vector-effect="non-scaling-stroke"  transform=" translate(-7.48, -7.48)" d="M 0 7.47844 C 0 3.34821 3.34821 0 7.47844 0 C 11.60867 0 14.95688 3.34821 14.95688 7.47844 C 14.95688 11.60867 11.60867 14.95688 7.47844 14.95688 C 3.34821 14.95688 0 11.60867 0 7.47844 z" stroke-linecap="round" />
</g>
<g transform="matrix(0.95 0 0 0.96 563.09 264.62)" id="hsFGKlLC3ruxWwEv8zdcC"  >
<path style="stroke: none; stroke-width: 1; stroke-dasharray: none; stroke-linecap: butt; stroke-dashoffset: 0; stroke-linejoin: miter; stroke-miterlimit: 4; fill: rgb(63,61,86); fill-rule: nonzero; opacity: 1;" vector-effect="non-scaling-stroke"  transform=" translate(-558.7, -288.33)" d="M 714.6961 301.326 L 402.6961 301.326 C 395.5163982521997 301.326 389.6961 295.50570174780034 389.6961 288.326 C 389.6961 281.1462982521997 395.5163982521997 275.326 402.6961 275.326 L 714.6961 275.326 C 721.8758017478003 275.326 727.6961 281.1462982521997 727.6961 288.326 C 727.6961 295.50570174780034 721.8758017478003 301.326 714.6961 301.326 Z M 402.6961 277.326 C 396.62096775186126 277.326 391.6961 282.2508677518613 391.6961 288.326 C 391.6961 294.40113224813877 396.62096775186126 299.326 402.6961 299.326 L 714.6961 299.326 C 720.7712322481387 299.326 725.6961 294.40113224813877 725.6961 288.326 C 725.6961 282.2508677518613 720.7712322481387 277.326 714.6961 277.326 Z" stroke-linecap="round" />
</g>
<g transform="matrix(0.95 0 0 0.96 403.9 344.96)" id="uOxbujI0vsyJUO6ARQsrI"  >
<path style="stroke: none; stroke-width: 1; stroke-dasharray: none; stroke-linecap: butt; stroke-dashoffset: 0; stroke-linejoin: miter; stroke-miterlimit: 4; fill: rgb(204,204,204); fill-rule: nonzero; opacity: 1;" vector-effect="non-scaling-stroke"  transform=" translate(-391.3, -372.83)" d="M 405.30246 380.826 L 377.30246 380.826 C 372.8841820013536 380.826 369.30246 377.2442779986464 369.30246 372.826 C 369.30246 368.40772200135365 372.8841820013536 364.826 377.30246 364.826 L 405.30246 364.826 C 409.72073799864637 364.826 413.30246 368.40772200135365 413.30246 372.826 C 413.30246 377.24427799864634 409.72073799864637 380.826 405.30246 380.826 Z" stroke-linecap="round" />
</g>
<g transform="matrix(0.95 0 0 0.96 419.59 370.65)" id="qF3VoaBXoEDXd7qoNYhKk"  >
<path style="stroke: none; stroke-width: 1; stroke-dasharray: none; stroke-linecap: butt; stroke-dashoffset: 0; stroke-linejoin: miter; stroke-miterlimit: 4; fill: rgb(204,204,204); fill-rule: nonzero; opacity: 1;" vector-effect="non-scaling-stroke"  transform=" translate(-407.8, -399.83)" d="M 438.30246 407.826 L 377.30246 407.826 C 372.8841820013536 407.826 369.30246 404.2442779986464 369.30246 399.826 C 369.30246 395.40772200135365 372.8841820013536 391.826 377.30246 391.826 L 438.30246 391.826 C 442.72073799864637 391.826 446.30246 395.40772200135365 446.30246 399.826 C 446.30246 404.24427799864634 442.72073799864637 407.826 438.30246 407.826 Z" stroke-linecap="round" />
</g>
<g transform="matrix(0.95 0 0 0.96 408.66 457.18)" id="WE1GXTIqZ6YJZUpMVFZa0"  >
<path style="stroke: none; stroke-width: 1; stroke-dasharray: none; stroke-linecap: butt; stroke-dashoffset: 0; stroke-linejoin: miter; stroke-miterlimit: 4; fill: rgb(204,204,204); fill-rule: nonzero; opacity: 1;" vector-effect="non-scaling-stroke"  transform=" translate(-396.3, -490.83)" d="M 410.30246 498.826 L 382.30246 498.826 C 377.8841820013536 498.826 374.30246 495.2442779986464 374.30246 490.826 C 374.30246 486.40772200135365 377.8841820013536 482.826 382.30246 482.826 L 410.30246 482.826 C 414.72073799864637 482.826 418.30246 486.40772200135365 418.30246 490.826 C 418.30246 495.24427799864634 414.72073799864637 498.826 410.30246 498.826 Z" stroke-linecap="round" />
</g>
<g transform="matrix(0.95 0 0 0.96 424.35 482.86)" id="_6JGg2A6RFNjYEEobR7Ge"  >
<path style="stroke: none; stroke-width: 1; stroke-dasharray: none; stroke-linecap: butt; stroke-dashoffset: 0; stroke-linejoin: miter; stroke-miterlimit: 4; fill: rgb(204,204,204); fill-rule: nonzero; opacity: 1;" vector-effect="non-scaling-stroke"  transform=" translate(-412.8, -517.83)" d="M 443.30246 525.826 L 382.30246 525.826 C 377.8841820013536 525.826 374.30246 522.2442779986463 374.30246 517.826 C 374.30246 513.4077220013537 377.8841820013536 509.826 382.30246 509.826 L 443.30246 509.826 C 447.72073799864637 509.826 451.30246 513.4077220013537 451.30246 517.826 C 451.30246 522.2442779986463 447.72073799864637 525.826 443.30246 525.826 Z" stroke-linecap="round" />
</g>
<g transform="matrix(0.95 0 0 0.96 583.64 454.33)" id="bnUmH4-es4u9DmLxgUvZk"  >
<path style="stroke: none; stroke-width: 1; stroke-dasharray: none; stroke-linecap: butt; stroke-dashoffset: 0; stroke-linejoin: miter; stroke-miterlimit: 4; fill: rgb(204,204,204); fill-rule: nonzero; opacity: 1;" vector-effect="non-scaling-stroke"  transform=" translate(-580.3, -487.83)" d="M 594.30246 495.826 L 566.30246 495.826 C 561.8841820013537 495.826 558.30246 492.2442779986464 558.30246 487.826 C 558.30246 483.40772200135365 561.8841820013537 479.826 566.30246 479.826 L 594.30246 479.826 C 598.7207379986463 479.826 602.30246 483.40772200135365 602.30246 487.826 C 602.30246 492.24427799864634 598.7207379986463 495.826 594.30246 495.826 Z" stroke-linecap="round" />
</g>
<g transform="matrix(0.95 0 0 0.96 599.33 480.01)" id="wC9C-dGwmpZqp1ZoYqbUm"  >
<path style="stroke: none; stroke-width: 1; stroke-dasharray: none; stroke-linecap: butt; stroke-dashoffset: 0; stroke-linejoin: miter; stroke-miterlimit: 4; fill: rgb(204,204,204); fill-rule: nonzero; opacity: 1;" vector-effect="non-scaling-stroke"  transform=" translate(-596.8, -514.83)" d="M 627.30246 522.826 L 566.30246 522.826 C 561.8841820013537 522.826 558.30246 519.2442779986463 558.30246 514.826 C 558.30246 510.40772200135365 561.8841820013537 506.826 566.30246 506.826 L 627.30246 506.826 C 631.7207379986463 506.826 635.30246 510.40772200135365 635.30246 514.826 C 635.30246 519.2442779986463 631.7207379986463 522.826 627.30246 522.826 Z" stroke-linecap="round" />
</g>
<g transform="matrix(0.95 0 0 0.96 580.78 349.72)" id="1yFxgLCivuRuuvMb_yToS"  >
<path style="stroke: none; stroke-width: 1; stroke-dasharray: none; stroke-linecap: butt; stroke-dashoffset: 0; stroke-linejoin: miter; stroke-miterlimit: 4; fill: rgb(204,204,204); fill-rule: nonzero; opacity: 1;" vector-effect="non-scaling-stroke"  transform=" translate(-577.3, -377.83)" d="M 591.30246 385.826 L 563.30246 385.826 C 558.8841820013537 385.826 555.30246 382.2442779986464 555.30246 377.826 C 555.30246 373.40772200135365 558.8841820013537 369.826 563.30246 369.826 L 591.30246 369.826 C 595.7207379986463 369.826 599.30246 373.40772200135365 599.30246 377.826 C 599.30246 382.24427799864634 595.7207379986463 385.826 591.30246 385.826 Z" stroke-linecap="round" />
</g>
<g transform="matrix(0.95 0 0 0.96 596.47 375.39)" id="CP-Uo-YlfP6GgwI0U4cPi"  >
<path style="stroke: none; stroke-width: 1; stroke-dasharray: none; stroke-linecap: butt; stroke-dashoffset: 0; stroke-linejoin: miter; stroke-miterlimit: 4; fill: rgb(204,204,204); fill-rule: nonzero; opacity: 1;" vector-effect="non-scaling-stroke"  transform=" translate(-593.8, -404.83)" d="M 624.30246 412.826 L 563.30246 412.826 C 558.8841820013537 412.826 555.30246 409.2442779986464 555.30246 404.826 C 555.30246 400.40772200135365 558.8841820013537 396.826 563.30246 396.826 L 624.30246 396.826 C 628.7207379986463 396.826 632.30246 400.40772200135365 632.30246 404.826 C 632.30246 409.24427799864634 628.7207379986463 412.826 624.30246 412.826 Z" stroke-linecap="round" />
</g>
<g transform="matrix(0.95 0 0 0.96 758.6 344.02)" id="nSTz7YRCyaZP52Sl2rbV0"  >
<path style="stroke: none; stroke-width: 1; stroke-dasharray: none; stroke-linecap: butt; stroke-dashoffset: 0; stroke-linejoin: miter; stroke-miterlimit: 4; fill: rgb(204,204,204); fill-rule: nonzero; opacity: 1;" vector-effect="non-scaling-stroke"  transform=" translate(-764.3, -371.83)" d="M 778.30246 379.826 L 750.30246 379.826 C 745.8841820013537 379.826 742.30246 376.2442779986464 742.30246 371.826 C 742.30246 367.40772200135365 745.8841820013537 363.826 750.30246 363.826 L 778.30246 363.826 C 782.7207379986463 363.826 786.30246 367.40772200135365 786.30246 371.826 C 786.30246 376.24427799864634 782.7207379986463 379.826 778.30246 379.826 Z" stroke-linecap="round" />
</g>
<g transform="matrix(0.95 0 0 0.96 774.29 369.69)" id="mT7mseZXLXwVTb6UtyoAA"  >
<path style="stroke: none; stroke-width: 1; stroke-dasharray: none; stroke-linecap: butt; stroke-dashoffset: 0; stroke-linejoin: miter; stroke-miterlimit: 4; fill: rgb(204,204,204); fill-rule: nonzero; opacity: 1;" vector-effect="non-scaling-stroke"  transform=" translate(-780.8, -398.83)" d="M 811.30246 406.826 L 750.30246 406.826 C 745.8841820013537 406.826 742.30246 403.2442779986464 742.30246 398.826 C 742.30246 394.40772200135365 745.8841820013537 390.826 750.30246 390.826 L 811.30246 390.826 C 815.7207379986463 390.826 819.30246 394.40772200135365 819.30246 398.826 C 819.30246 403.24427799864634 815.7207379986463 406.826 811.30246 406.826 Z" stroke-linecap="round" />
</g>
<g transform="matrix(0.95 0 0 0.96 343.63 357.81)" id="5ouh22sYMpD2dfE9NhpPC"  >
<path style="stroke: none; stroke-width: 1; stroke-dasharray: none; stroke-linecap: butt; stroke-dashoffset: 0; stroke-linejoin: miter; stroke-miterlimit: 4; fill: rgb(40,88,235); fill-rule: nonzero; opacity: 1;" vector-effect="non-scaling-stroke"  transform=" translate(-30, -30)" d="M 0 30 C 0 13.431460000000001 13.43146 0 30 0 C 46.56854 0 60 13.43146 60 30 C 60 46.56854 46.56854 60 30 60 C 13.431460000000001 60 0 46.56854 0 30 z" stroke-linecap="round" />
</g>
<g transform="matrix(0.95 0 0 0.96 343.63 357.81)" id="or0PyGxgMpQGg6c3INyYH"  >
<path style="stroke: none; stroke-width: 1; stroke-dasharray: none; stroke-linecap: butt; stroke-dashoffset: 0; stroke-linejoin: miter; stroke-miterlimit: 4; fill: rgb(255,255,255); fill-rule: nonzero; opacity: 1;" vector-effect="non-scaling-stroke"  transform=" translate(-327.9, -386.33)" d="M 341.90088 399.82617 L 313.90088 399.82617 C 312.2447751071271 399.8243622883468 310.9026877116532 398.48227489287285 310.90088 396.82617 L 310.90088 375.82617 C 310.9026877116532 374.17006510712713 312.2447751071271 372.8279777116532 313.90088 372.82617 L 321.78319999999997 372.82617 C 322.8259199586082 372.8223149507885 323.7948725062897 373.3635439537075 324.33838 374.25342 L 326.53661999999997 377.82617 L 341.90088 377.82617 C 343.55698489287283 377.8279777116532 344.89907228834676 379.17006510712713 344.90088 380.82617 L 344.90088 396.82617 C 344.89907228834676 398.48227489287285 343.55698489287283 399.8243622883468 341.90088 399.82617 Z M 313.90088 374.82617 C 313.3488921773285 374.8268861885075 312.9015961885075 375.2741821773285 312.90088 375.82617 L 312.90088 396.82617 C 312.9015961885075 397.3781578226715 313.3488921773285 397.8254538114925 313.90088 397.82617 L 341.90088 397.82617 C 342.45286782267146 397.8254538114925 342.90016381149246 397.3781578226715 342.90088 396.82617 L 342.90088 380.82617 C 342.90016381149246 380.2741821773285 342.45286782267146 379.8268861885075 341.90088 379.82617 L 325.41943 379.82617 L 322.63525 375.30176 C 322.4539360600425 375.0051697530797 322.1308686554007 374.8248321627351 321.78325 374.82617 Z" stroke-linecap="round" />
</g>
<g transform="matrix(0.95 0 0 0.96 518.59 362.57)" id="QMFtyU-uv3xUqM7f8zUUA"  >
<path style="stroke: none; stroke-width: 1; stroke-dasharray: none; stroke-linecap: butt; stroke-dashoffset: 0; stroke-linejoin: miter; stroke-miterlimit: 4; fill: rgb(40,88,235); fill-rule: nonzero; opacity: 1;" vector-effect="non-scaling-stroke"  transform=" translate(-30, -30)" d="M 0 30 C 0 13.431460000000001 13.43146 0 30 0 C 46.56854 0 60 13.43146 60 30 C 60 46.56854 46.56854 60 30 60 C 13.431460000000001 60 0 46.56854 0 30 z" stroke-linecap="round" />
</g>
<g transform="matrix(0.95 0 0 0.96 518.59 362.57)" id="JFUrBNhmhF7APyuwsCCkN"  >
<path style="stroke: none; stroke-width: 1; stroke-dasharray: none; stroke-linecap: butt; stroke-dashoffset: 0; stroke-linejoin: miter; stroke-miterlimit: 4; fill: rgb(255,255,255); fill-rule: nonzero; opacity: 1;" vector-effect="non-scaling-stroke"  transform=" translate(-511.9, -391.33)" d="M 524.90088 410.32617 L 498.90088000000003 410.32617 C 497.24477510712717 410.3243622883468 495.90268771165324 408.98227489287285 495.90088000000003 407.32617 L 495.90088000000003 375.32617 C 495.90268771165324 373.67006510712713 497.24477510712717 372.3279777116532 498.90088000000003 372.32617 L 517.74023 372.32617 C 518.4236765497444 372.3267479420405 519.0865424267355 372.5601018430381 519.61963 372.98779 L 526.77979 378.74170000000004 C 527.4903034001894 379.3095917821121 527.9030514706011 380.17050556502807 527.90088 381.08008 L 527.90088 407.32617 C 527.8990722883468 408.98227489287285 526.556984892873 410.3243622883468 524.90088 410.32617 Z M 498.90088000000003 374.32617 C 498.34889217732854 374.3268861885075 497.90159618850754 374.7741821773285 497.90088000000003 375.32617 L 497.90088000000003 407.32617 C 497.90159618850754 407.8781578226715 498.34889217732854 408.3254538114925 498.90088000000003 408.32617 L 524.90088 408.32617 C 525.4528678226715 408.3254538114925 525.9001638114926 407.8781578226715 525.90088 407.32617 L 525.90088 381.08008 C 525.9016268785134 380.7769634072775 525.7641022739676 380.49005190028345 525.52734 380.30078000000003 L 518.36621 374.54639000000003 C 518.1886113449686 374.4040153297143 517.9678320496265 374.32634757185446 517.74021 374.32617000000005 Z" stroke-linecap="round" />
</g>
<g transform="matrix(0.95 0 0 0.96 518.59 356.85)" id="ajp_Rc5sa5F_Hz67VRkJL"  >
<path style="stroke: none; stroke-width: 1; stroke-dasharray: none; stroke-linecap: butt; stroke-dashoffset: 0; stroke-linejoin: miter; stroke-miterlimit: 4; fill: rgb(255,255,255); fill-rule: nonzero; opacity: 1;" vector-effect="non-scaling-stroke"  transform=" translate(-511.9, -385.33)" d="M 519.90088 386.32617 L 503.90088000000003 386.32617 C 503.34859525016924 386.32617 502.90088000000003 385.8784547498308 502.90088000000003 385.32617 C 502.90088000000003 384.7738852501692 503.34859525016924 384.32617 503.90088000000003 384.32617 L 519.90088 384.32617 C 520.4531647498309 384.32617 520.90088 384.7738852501692 520.90088 385.32617 C 520.90088 385.8784547498308 520.4531647498309 386.32617 519.90088 386.32617 Z" stroke-linecap="round" />
</g>
<g transform="matrix(0.95 0 0 0.96 518.59 362.57)" id="eRT6dlTrkyCDU5EE_ktFm"  >
<path style="stroke: none; stroke-width: 1; stroke-dasharray: none; stroke-linecap: butt; stroke-dashoffset: 0; stroke-linejoin: miter; stroke-miterlimit: 4; fill: rgb(255,255,255); fill-rule: nonzero; opacity: 1;" vector-effect="non-scaling-stroke"  transform=" translate(-511.9, -391.33)" d="M 519.90088 392.32617 L 503.90088000000003 392.32617 C 503.34859525016924 392.32617 502.90088000000003 391.8784547498308 502.90088000000003 391.32617 C 502.90088000000003 390.7738852501692 503.34859525016924 390.32617 503.90088000000003 390.32617 L 519.90088 390.32617 C 520.4531647498309 390.32617 520.90088 390.7738852501692 520.90088 391.32617 C 520.90088 391.8784547498308 520.4531647498309 392.32617 519.90088 392.32617 Z" stroke-linecap="round" />
</g>
<g transform="matrix(0.95 0 0 0.96 518.59 368.26)" id="MF-yXzfJED7RiC6mm2xdE"  >
<path style="stroke: none; stroke-width: 1; stroke-dasharray: none; stroke-linecap: butt; stroke-dashoffset: 0; stroke-linejoin: miter; stroke-miterlimit: 4; fill: rgb(255,255,255); fill-rule: nonzero; opacity: 1;" vector-effect="non-scaling-stroke"  transform=" translate(-511.9, -397.33)" d="M 519.90088 398.32617 L 503.90088000000003 398.32617 C 503.34859525016924 398.32617 502.90088000000003 397.8784547498308 502.90088000000003 397.32617 C 502.90088000000003 396.7738852501692 503.34859525016924 396.32617 503.90088000000003 396.32617 L 519.90088 396.32617 C 520.4531647498309 396.32617 520.90088 396.7738852501692 520.90088 397.32617 C 520.90088 397.8784547498308 520.4531647498309 398.32617 519.90088 398.32617 Z" stroke-linecap="round" />
</g>
<g transform="matrix(0.95 0 0 0.96 694.51 356.85)" id="jZxSVWLPgew4MAAXivNn-"  >
<path style="stroke: none; stroke-width: 1; stroke-dasharray: none; stroke-linecap: butt; stroke-dashoffset: 0; stroke-linejoin: miter; stroke-miterlimit: 4; fill: rgb(40,88,235); fill-rule: nonzero; opacity: 1;" vector-effect="non-scaling-stroke"  transform=" translate(-30, -30)" d="M 0 30 C 0 13.431460000000001 13.43146 0 30 0 C 46.56854 0 60 13.43146 60 30 C 60 46.56854 46.56854 60 30 60 C 13.431460000000001 60 0 46.56854 0 30 z" stroke-linecap="round" />
</g>
<g transform="matrix(0.95 0 0 0.96 694.51 356.85)" id="V2OYohleZpKT0KhSt0OzA"  >
<path style="stroke: none; stroke-width: 1; stroke-dasharray: none; stroke-linecap: butt; stroke-dashoffset: 0; stroke-linejoin: miter; stroke-miterlimit: 4; fill: rgb(255,255,255); fill-rule: nonzero; opacity: 1;" vector-effect="non-scaling-stroke"  transform=" translate(-696.9, -385.33)" d="M 710.90039 396.32617 L 682.90039 396.32617 C 681.2442851071271 396.3243622883468 679.9021977116532 394.98227489287285 679.90039 393.32617 L 679.90039 377.32617 C 679.9021977116532 375.67006510712713 681.2442851071271 374.3279777116532 682.90039 374.32617 L 710.90039 374.32617 C 712.5564948928729 374.3279777116532 713.8985822883468 375.67006510712713 713.90039 377.32617 L 713.90039 393.32617 C 713.8985822883468 394.98227489287285 712.5564948928729 396.3243622883468 710.90039 396.32617 Z M 682.90039 376.32617 C 682.3483337382504 376.3267212298297 681.9009412298296 376.7741137382504 681.90039 377.32617 L 681.90039 393.32617 C 681.9009412298296 393.8782262617496 682.3483337382504 394.3256187701703 682.90039 394.32617 L 710.90039 394.32617 C 711.4524462617496 394.3256187701703 711.8998387701704 393.8782262617496 711.90039 393.32617 L 711.90039 377.32617 C 711.8998387701704 376.7741137382504 711.4524462617496 376.3267212298297 710.90039 376.32617 Z" stroke-linecap="round" />
</g>
<g transform="matrix(0.95 0 0 0.96 694.51 353.83)" id="7ZCmrsY9eFD1U7zyE645O"  >
<path style="stroke: none; stroke-width: 1; stroke-dasharray: none; stroke-linecap: butt; stroke-dashoffset: 0; stroke-linejoin: miter; stroke-miterlimit: 4; fill: rgb(255,255,255); fill-rule: nonzero; opacity: 1;" vector-effect="non-scaling-stroke"  transform=" translate(-696.9, -382.15)" d="M 696.90039 387.96436 C 696.3385377834759 387.96515397649307 695.7877278095153 387.8083340281879 695.31055 387.51172 L 680.37012 378.17432 C 679.9029271530476 377.880947925207 679.7614550468243 377.2647134737333 680.0539090371603 376.7969453751541 C 680.3463630274964 376.32917727657485 680.9623184539269 376.18649522208545 681.43066 376.47803000000005 L 696.37109 385.81543000000005 C 696.6956343053529 386.01660030489046 697.1061156946471 386.01660030489046 697.43066 385.81543000000005 L 712.37012 376.47803000000005 C 712.8384615460732 376.18649522208545 713.4544169725036 376.32917727657485 713.7468709628397 376.7969453751541 C 714.0393249531758 377.2647134737333 713.8978528469524 377.880947925207 713.43066 378.17432 L 698.49121 387.51172 C 698.0137308340678 387.80846835600806 697.4625688615229 387.9652918528542 696.90039 387.96436 Z" stroke-linecap="round" />
</g>
<g transform="matrix(0.95 0 0 0.96 343.63 470.03)" id="jW4-k--vZTSCv4jX1J4EH"  >
<path style="stroke: none; stroke-width: 1; stroke-dasharray: none; stroke-linecap: butt; stroke-dashoffset: 0; stroke-linejoin: miter; stroke-miterlimit: 4; fill: rgb(40,88,235); fill-rule: nonzero; opacity: 1;" vector-effect="non-scaling-stroke"  transform=" translate(-30, -30)" d="M 0 30 C 0 13.431460000000001 13.43146 0 30 0 C 46.56854 0 60 13.43146 60 30 C 60 46.56854 46.56854 60 30 60 C 13.431460000000001 60 0 46.56854 0 30 z" stroke-linecap="round" />
</g>
<g transform="matrix(0.95 0 0 0.96 343.63 470.03)" id="RdgZitLN4AdKhm9AeqRIT"  >
<path style="stroke: none; stroke-width: 1; stroke-dasharray: none; stroke-linecap: butt; stroke-dashoffset: 0; stroke-linejoin: miter; stroke-miterlimit: 4; fill: rgb(255,255,255); fill-rule: nonzero; opacity: 1;" vector-effect="non-scaling-stroke"  transform=" translate(-327.9, -504.33)" d="M 341.90088 515.32617 L 313.90088 515.32617 C 312.2447751071271 515.3243622883468 310.9026877116532 513.982274892873 310.90088 512.32617 L 310.90088 496.32617000000005 C 310.9026877116532 494.6700651071272 312.2447751071271 493.32797771165326 313.90088 493.32617000000005 L 341.90088 493.32617000000005 C 343.55698489287283 493.32797771165326 344.89907228834676 494.6700651071272 344.90088 496.32617000000005 L 344.90088 512.32617 C 344.89907228834676 513.982274892873 343.55698489287283 515.3243622883468 341.90088 515.32617 Z M 313.90088 495.32617000000005 C 313.34882373825036 495.32672122982973 312.90143122982965 495.77411373825043 312.90088 496.32617000000005 L 312.90088 512.32617 C 312.90143122982965 512.8782262617497 313.34882373825036 513.3256187701704 313.90088 513.32617 L 341.90088 513.32617 C 342.4529362617496 513.3256187701704 342.9003287701703 512.8782262617497 342.90088 512.32617 L 342.90088 496.32617000000005 C 342.9003287701703 495.77411373825043 342.4529362617496 495.32672122982973 341.90088 495.32617000000005 Z" stroke-linecap="round" />
</g>
<g transform="matrix(0.95 0 0 0.96 343.15 473.58)" id="UV-6rYjhxBU-HH1aE2Mqk"  >
<path style="stroke: none; stroke-width: 1; stroke-dasharray: none; stroke-linecap: butt; stroke-dashoffset: 0; stroke-linejoin: miter; stroke-miterlimit: 4; fill: rgb(255,255,255); fill-rule: nonzero; opacity: 1;" vector-effect="non-scaling-stroke"  transform=" translate(-327.4, -508.08)" d="M 337.46289 515.32617 L 317.33889 515.32617 C 316.6242687268808 515.3263904575113 315.9638518746633 514.9452222271473 315.6065583656652 514.3263321229899 C 315.24926485666714 513.7074420188327 315.2494141594389 512.9449201396448 315.60695 512.32617 L 321.66848 501.82617000000005 C 322.0258022332701 501.2073645197902 322.68609261593065 500.8261748836012 323.40065500000003 500.8261748836012 C 324.11521738406935 500.8261748836012 324.7755077667299 501.2073645197902 325.13283 501.82617000000005 L 329.04783000000003 508.60742000000005 L 331.31590000000006 504.67871 C 331.67322223327017 504.05990451979017 332.3335126159307 503.6787148836012 333.04807500000004 503.6787148836012 C 333.7626373840694 503.6787148836012 334.42292776672997 504.05990451979017 334.7802500000001 504.67871 L 339.1952500000001 512.32617 C 339.55254858249896 512.94502927024 339.55251340440674 513.7075035879037 339.1951577191098 514.3263298863134 C 338.8378020338128 514.945156184723 338.17742712846825 515.3263019189579 337.4628300000001 515.32617 Z M 337.46289 513.32617 L 337.46289 513.32617 L 333.04789 505.67871 L 329.9141 511.10742000000005 C 329.7354568968585 511.4169008622282 329.40522982844385 511.6075169186202 329.04789 511.60742000000005 L 329.04789 511.60742000000005 C 328.69055017155614 511.6075169186202 328.36032310314147 511.4169008622282 328.18168 511.10742000000005 L 323.40092 502.82617000000005 L 317.33892 513.32617 Z" stroke-linecap="round" />
</g>
<g transform="matrix(0.95 0 0 0.96 354.08 465.27)" id="PWhw6r7vW2CAydYi4kX5b"  >
<path style="stroke: none; stroke-width: 1; stroke-dasharray: none; stroke-linecap: butt; stroke-dashoffset: 0; stroke-linejoin: miter; stroke-miterlimit: 4; fill: rgb(255,255,255); fill-rule: nonzero; opacity: 1;" vector-effect="non-scaling-stroke"  transform=" translate(-2, -2)" d="M 0 2 C 0 0.89543 0.89543 0 2 0 C 3.10457 0 4 0.89543 4 2 C 4 3.10457 3.10457 4 2 4 C 0.89543 4 0 3.10457 0 2 z" stroke-linecap="round" />
</g>
<g transform="matrix(0.95 0 0 0.96 520.49 467.17)" id="Hx1rxqo_DAh1jVRADjEkm"  >
<path style="stroke: none; stroke-width: 1; stroke-dasharray: none; stroke-linecap: butt; stroke-dashoffset: 0; stroke-linejoin: miter; stroke-miterlimit: 4; fill: rgb(40,88,235); fill-rule: nonzero; opacity: 1;" vector-effect="non-scaling-stroke"  transform=" translate(-30, -30)" d="M 0 30 C 0 13.431460000000001 13.43146 0 30 0 C 46.56854 0 60 13.43146 60 30 C 60 46.56854 46.56854 60 30 60 C 13.431460000000001 60 0 46.56854 0 30 z" stroke-linecap="round" />
</g>
<g transform="matrix(0.95 0 0 0.96 520.49 459.08)" id="94v6utA00debpBGv2c3JN"  >
<path style="stroke: none; stroke-width: 1; stroke-dasharray: none; stroke-linecap: butt; stroke-dashoffset: 0; stroke-linejoin: miter; stroke-miterlimit: 4; fill: rgb(255,255,255); fill-rule: nonzero; opacity: 1;" vector-effect="non-scaling-stroke"  transform=" translate(-513.9, -492.83)" d="M 513.90088 501.82617 C 508.93031725152287 501.82617 504.90088000000003 497.79673274847715 504.90088000000003 492.82617 C 504.90088000000003 487.8556072515228 508.93031725152287 483.82617 513.90088 483.82617 C 518.8714427484772 483.82617 522.90088 487.8556072515228 522.90088 492.82617 C 522.8952808830122 497.794411670098 518.869121670098 501.8205708830122 513.90088 501.82617 Z M 513.90088 485.82617 C 510.0348867511845 485.82617 506.90088000000003 488.96017675118446 506.90088000000003 492.82617 C 506.90088000000003 496.6921632488155 510.0348867511845 499.82617 513.90088 499.82617 C 517.7668732488156 499.82617 520.90088 496.6921632488155 520.90088 492.82617 C 520.8963723909887 488.9620454040765 517.7650045959235 485.8306776090113 513.90088 485.82617 Z" stroke-linecap="round" />
</g>
<g transform="matrix(0.95 0 0 0.96 520.49 476.68)" id="9sDU2uShB4wiN_bllr_PL"  >
<path style="stroke: none; stroke-width: 1; stroke-dasharray: none; stroke-linecap: butt; stroke-dashoffset: 0; stroke-linejoin: miter; stroke-miterlimit: 4; fill: rgb(255,255,255); fill-rule: nonzero; opacity: 1;" vector-effect="non-scaling-stroke"  transform=" translate(-513.9, -511.33)" d="M 521.90088 518.82617 L 505.90088000000003 518.82617 C 503.96885191827874 518.8238337287539 502.4032162712462 517.2581980817214 502.40088000000003 515.32617 C 502.40088000000003 508.97489537694594 507.5496053769459 503.82617000000005 513.90088 503.82617000000005 C 520.2521546230541 503.82617000000005 525.40088 508.97489537694594 525.40088 515.32617 C 525.3985437287539 517.2581980817214 523.8329080817214 518.8238337287539 521.90088 518.82617 Z M 513.90088 505.82617000000005 C 508.65664442237687 505.8321272257918 504.4068372257918 510.0819344223769 504.40088000000003 515.32617 C 504.40178385582664 516.1542224464365 505.07282755356357 516.8252661441735 505.90088000000003 516.82617 L 521.90088 516.82617 C 522.7289324464365 516.8252661441735 523.3999761441735 516.1542224464365 523.40088 515.32617 C 523.3949227742083 510.08193442237683 519.1451155776232 505.83212722579174 513.90088 505.82617 Z" stroke-linecap="round" />
</g>
<g transform="matrix(0.95 0 0 0.96 253.73 614.47)" id="lPaTiPofs2siFDjuK7FOt"  >
<path style="stroke: none; stroke-width: 1; stroke-dasharray: none; stroke-linecap: butt; stroke-dashoffset: 0; stroke-linejoin: miter; stroke-miterlimit: 4; fill: rgb(255,184,184); fill-rule: nonzero; opacity: 1;" vector-effect="non-scaling-stroke"  transform=" translate(-89.98, -447.55)" d="M 80.937 471.198 L 93.197 471.198 L 99.029 423.90999999999997 L 80.935 423.91099999999994 z" stroke-linecap="round" />
</g>
<g transform="matrix(-0.95 0 0 -0.96 260.96 640.71)" id="lg7Vns5jrGlU1baIqyaOD"  >
<path style="stroke: none; stroke-width: 1; stroke-dasharray: none; stroke-linecap: butt; stroke-dashoffset: 0; stroke-linejoin: miter; stroke-miterlimit: 4; fill: rgb(47,46,65); fill-rule: nonzero; opacity: 1;" vector-effect="non-scaling-stroke"  transform=" translate(-240.97, -683.81)" d="M 221.70288 676.36888 L 260.23361 676.36888 L 260.23361 691.25575 L 236.58973 691.25575 C 228.36794424913398 691.25575 221.70287000000002 684.5906757508661 221.70287 676.3688900000001 L 221.70287 676.3688900000001 Z" stroke-linecap="round" />
</g>
<g transform="matrix(0.95 0 0 0.96 209.99 614.47)" id="FcbYDgyC7J-4-0_vUrwSN"  >
<path style="stroke: none; stroke-width: 1; stroke-dasharray: none; stroke-linecap: butt; stroke-dashoffset: 0; stroke-linejoin: miter; stroke-miterlimit: 4; fill: rgb(255,184,184); fill-rule: nonzero; opacity: 1;" vector-effect="non-scaling-stroke"  transform=" translate(-43.98, -447.55)" d="M 34.937 471.198 L 47.196999999999996 471.198 L 53.028999999999996 423.90999999999997 L 34.934999999999995 423.91099999999994 z" stroke-linecap="round" />
</g>
<g transform="matrix(-0.95 0 0 -0.96 217.21 640.71)" id="Rn0dIvboa_s7MCNZ8jnSt"  >
<path style="stroke: none; stroke-width: 1; stroke-dasharray: none; stroke-linecap: butt; stroke-dashoffset: 0; stroke-linejoin: miter; stroke-miterlimit: 4; fill: rgb(47,46,65); fill-rule: nonzero; opacity: 1;" vector-effect="non-scaling-stroke"  transform=" translate(-194.97, -683.81)" d="M 175.70288 676.36888 L 214.23361 676.36888 L 214.23361 691.25575 L 190.58973 691.25575 C 182.36794424913398 691.25575 175.70287000000002 684.5906757508661 175.70287 676.3688900000001 L 175.70287 676.3688900000001 Z" stroke-linecap="round" />
</g>
<g transform="matrix(0.95 0 0 0.96 199.68 441.62)" id="0DI7FQOa1eui0L5AGIhH6"  >
<path style="stroke: none; stroke-width: 1; stroke-dasharray: none; stroke-linecap: butt; stroke-dashoffset: 0; stroke-linejoin: miter; stroke-miterlimit: 4; fill: rgb(255,184,184); fill-rule: nonzero; opacity: 1;" vector-effect="non-scaling-stroke"  transform=" translate(-176.54, -474.46)" d="M 179.8272 539.03387 C 182.50103047113322 537.3139496872637 184.2757155458868 534.4980299525056 184.67372623476754 531.3438132887268 C 185.07173692364827 528.189596624948 184.05218880216322 525.0210902425764 181.88942 522.69087 L 189.96192 408.13303 L 166.70891999999998 410.38812 L 166.07023999999998 522.5747700000001 C 162.3139385001382 526.5549649030172 162.12826881597366 532.7156246173458 165.638060681597 536.9148047139685 C 169.1478525472204 541.1139848105911 175.24370288160776 542.0243748633266 179.82724 539.0339 Z" stroke-linecap="round" />
</g>
<g transform="matrix(0.95 0 0 0.96 230.24 544.8)" id="-MrYevDZkf_P_CBVdQ_3A"  >
<path style="stroke: none; stroke-width: 1; stroke-dasharray: none; stroke-linecap: butt; stroke-dashoffset: 0; stroke-linejoin: miter; stroke-miterlimit: 4; fill: rgb(47,46,65); fill-rule: nonzero; opacity: 1;" vector-effect="non-scaling-stroke"  transform=" translate(-208.66, -582.96)" d="M 224.69537 656.05548 C 222.41939742711358 656.0481303069505 220.50437588268352 654.3486325186805 220.22662 652.08966 L 213.1004 592.48712 C 212.89303150839845 590.7516785567333 211.43718466115507 589.4352237377506 209.6896953480912 589.4029778846161 C 207.9422060350273 589.3707320314817 206.43878259593868 590.6325803963219 206.16753 592.35919 L 197.19053 649.42657 C 196.85464783731828 651.6196331519275 194.96383732525732 653.2362931324533 192.74522 653.22735 L 178.19521999999998 653.22735 C 176.99583895222023 653.227258390545 175.84610951773868 652.7484232422838 175.0012337633152 651.8971301871301 C 174.15635800889177 651.0458371319763 173.68623623808534 649.892517405128 173.69521999999998 648.69317 L 180.63946 522.159 C 180.6447767659381 519.9319112376851 182.2873849587263 518.0478634984892 184.49297 517.73908 L 238.48663000000002 509.90118999999993 C 239.7848491992474 509.7130764822995 241.10053851880056 510.1006608368905 242.0894465932863 510.96253124771397 C 243.07835466777206 511.8244016585374 243.64207513608093 513.0747932976328 243.63311000000002 514.38654 L 242.69122000000002 650.94318 C 242.6747180258706 653.3330335786576 240.79256055819067 655.2929209628261 238.40533000000002 655.40607 L 224.90899000000002 656.04963 Q 224.8017 656.05547 224.69537 656.05548 Z" stroke-linecap="round" />
</g>
<g transform="matrix(0.95 0 0 0.96 227.52 423.24)" id="n1DHiRNyH6AQymw5c_YnZ"  >
<path style="stroke: none; stroke-width: 1; stroke-dasharray: none; stroke-linecap: butt; stroke-dashoffset: 0; stroke-linejoin: miter; stroke-miterlimit: 4; fill: rgb(63,61,86); fill-rule: nonzero; opacity: 1;" vector-effect="non-scaling-stroke"  transform=" translate(-205.81, -455.14)" d="M 196.70269 526.93927 C 191.509152760791 526.9193454282996 186.3581079630089 526.0022083405942 181.47686 524.2283299999999 C 179.7847879306016 523.6049956395088 178.63368122301054 522.0251312697017 178.55885999999998 520.22345 C 178.09303999999997 509.88652999999994 175.36793999999998 456.67949999999996 167.43435 424.22444999999993 C 164.28115883872886 411.20580543765897 169.26571454049397 397.5681170190979 180.07081999999997 389.65120999999994 Q 180.71096 389.19120999999996 181.376 388.7478899999999 C 190.70574682307884 382.53704700380234 202.5879820643471 381.6056568784422 212.77150999999998 386.28694999999993 C 223.29191382797129 390.99428661942187 230.62051838367572 400.81835726630936 232.13503 412.2439499999999 L 245.07253 508.29472999999996 C 245.24045721950617 509.5081564820014 244.90394227942085 510.7374018471499 244.14138 511.69609999999994 C 243.39544794071932 512.6481731765074 242.29180714576916 513.2528051210925 241.08791 513.3689499999999 C 236.605 513.8162199999999 227.3074 515.5535199999999 215.40798 522.1648499999999 C 209.6857467225188 525.3347303018835 203.24413655873147 526.9789150431085 196.70269 526.93927 Z" stroke-linecap="round" />
</g>
<g transform="matrix(0.95 0 0 0.96 195.65 393.03)" id="2hVKjot9EihBZql0u_5rw"  >
<path style="stroke: none; stroke-width: 1; stroke-dasharray: none; stroke-linecap: butt; stroke-dashoffset: 0; stroke-linejoin: miter; stroke-miterlimit: 4; fill: rgb(63,61,86); fill-rule: nonzero; opacity: 1;" vector-effect="non-scaling-stroke"  transform=" translate(-172.28, -423.37)" d="M 180.886 447.32061 L 159.59536 441.54805 C 157.19853169729632 440.89529661390304 155.7823907100249 438.42557081751676 156.42975 436.02727999999996 L 163.91431 408.42238 C 165.57460356014482 402.29810896500567 171.5908301755437 398.4157622881501 177.85520543572832 399.4261448966282 C 184.11958069591296 400.43652750510637 188.61010959481845 406.0135113328774 188.26073 412.34922 L 186.55688 443.22536 C 186.48224041123154 444.5812171485474 185.79927844246637 445.8308505206704 184.6984134550328 446.6258448319215 C 183.59754846759924 447.42083914317254 182.1965367539114 447.6761561884567 180.886 447.32061000000004 Z" stroke-linecap="round" />
</g>
<g transform="matrix(0.95 0 0 0.96 226.37 322)" id="YqlBXC0H37T9Jy5oWgjBE"  >
<path style="stroke: none; stroke-width: 1; stroke-dasharray: none; stroke-linecap: butt; stroke-dashoffset: 0; stroke-linejoin: miter; stroke-miterlimit: 4; fill: rgb(255,184,184); fill-rule: nonzero; opacity: 1;" vector-effect="non-scaling-stroke"  transform=" translate(-24.56, -24.56)" d="M 0 24.56103 C 0 10.99635 10.99635 0 24.56103 0 C 38.12571 0 49.12206 10.99635 49.12206 24.56103 C 49.12206 38.12571 38.12571 49.12206 24.56103 49.12206 C 10.99635 49.12206 0 38.12571 0 24.56103 z" stroke-linecap="round" />
</g>
<g transform="matrix(0.95 0 0 0.96 290.04 388.25)" id="Xt7wvt4jL2yNcfJMUgD9u"  >
<path style="stroke: none; stroke-width: 1; stroke-dasharray: none; stroke-linecap: butt; stroke-dashoffset: 0; stroke-linejoin: miter; stroke-miterlimit: 4; fill: rgb(255,184,184); fill-rule: nonzero; opacity: 1;" vector-effect="non-scaling-stroke"  transform=" translate(-271.56, -418.34)" d="M 293.59007 396.93867 C 293.46731871786176 397.47824017658394 293.387307382867 398.02665001763444 293.35078000000004 398.5788 L 250.39333000000005 423.3608 L 239.95191000000005 417.34986 L 228.82075000000006 431.92213999999996 L 251.15789000000007 447.8427 L 300.1658 409.18 C 304.25838159374484 410.69442204265016 308.8610593199744 409.5185619280047 311.72577460774295 406.226738034667 C 314.5904898955115 402.9349141413293 315.1195249953631 398.2139596696288 313.05448643260917 394.36970239948374 C 310.9894478698552 390.5254451293387 306.76120226762544 388.3599825025617 302.43492653630557 388.9309785807589 C 298.1086508049857 389.50197465895616 294.5870146809685 392.69029212601623 293.59006999999997 396.93868000000003 Z" stroke-linecap="round" />
</g>
<g transform="matrix(0.95 0 0 0.96 247.39 384.77)" id="T_blWIgUPxKz5FLznTkjI"  >
<path style="stroke: none; stroke-width: 1; stroke-dasharray: none; stroke-linecap: butt; stroke-dashoffset: 0; stroke-linejoin: miter; stroke-miterlimit: 4; fill: rgb(63,61,86); fill-rule: nonzero; opacity: 1;" vector-effect="non-scaling-stroke"  transform=" translate(-226.71, -414.69)" d="M 246.83315 424.5566 L 228.32885 436.56514 C 226.24354021290895 437.91507890494125 223.45901859041106 437.3222898888181 222.10438 435.24003 L 206.53438 411.24782999999996 C 203.0799292666875 405.9251826719208 204.20166702411618 398.8534006275042 209.13368157507514 394.86102828551 C 214.06569612603408 390.8686559435158 221.2160281234595 391.24435423572515 225.7025 395.7316 L 247.5659 417.60009 C 248.52610073636677 418.56026224268714 249.00132788849268 419.90271328453287 248.85908223252687 421.2531511257921 C 248.71683657656104 422.6035889670514 247.97233361244088 423.8175621884556 246.83315 424.5566 Z" stroke-linecap="round" />
</g>
<g transform="matrix(0.95 0 0 0.96 225.96 315.6)" id="FETdp4tZg5157YH8A7hU0"  >
<path style="stroke: none; stroke-width: 1; stroke-dasharray: none; stroke-linecap: butt; stroke-dashoffset: 0; stroke-linejoin: miter; stroke-miterlimit: 4; fill: rgb(47,46,65); fill-rule: nonzero; opacity: 1;" vector-effect="non-scaling-stroke"  transform=" translate(-204.18, -341.94)" d="M 187.20575 368.11561 C 191.78775 372.99639 200.29707 370.37628 200.89409999999998 363.70844 C 200.94092264254994 363.19076100040263 200.93753015948332 362.66976535314586 200.88396999999998 362.15274 C 200.57569999999998 359.19917 198.86935999999997 356.51774 199.27808999999996 353.39914 C 199.37061149288857 352.622995098962 199.65978188130964 351.8833286988693 200.11819999999997 351.25023 C 203.76943999999997 346.36089 212.34046999999998 353.4371 215.7864 349.01093 C 217.89939999999999 346.29693 215.41559999999998 342.02380999999997 217.03706 338.99042999999995 C 219.17711 334.98684999999995 225.51587 336.96182999999996 229.49093 334.76926999999995 C 233.91368 332.32978999999995 233.64915 325.54402999999996 230.73779 321.41657999999995 C 227.18726999999998 316.38298999999995 220.96206999999998 313.69706999999994 214.81444 313.30996999999996 C 208.66681 312.92287 202.56152 314.58471999999995 196.82214 316.82142 C 190.30105999999998 319.36276 183.83445999999998 322.87493 179.82147999999998 328.60893999999996 C 174.94125999999997 335.58210999999994 174.47161999999997 344.95687999999996 176.91231 353.11069 C 178.397 358.07074 183.46408 364.12993 187.20575 368.11561 Z" stroke-linecap="round" />
</g>
</svg>