<?xml version="1.0" encoding="UTF-8" standalone="no" ?>
<!DOCTYPE svg PUBLIC "-//W3C//DTD SVG 1.1//EN" "http://www.w3.org/Graphics/SVG/1.1/DTD/svg11.dtd">
<svg xmlns="http://www.w3.org/2000/svg" xmlns:xlink="http://www.w3.org/1999/xlink" version="1.1" width="1000" height="450" viewBox="0 0 1000 450" xml:space="preserve">
<desc>Created with Fabric.js 4.6.0</desc>
<defs>
</defs>
<g transform="matrix(0.79 0 0 0.79 667.59 361.11)" id="X0iz8w-HnOLNg6E1H4Kk_"  >
<path style="stroke: none; stroke-width: 1; stroke-dasharray: none; stroke-linecap: butt; stroke-dashoffset: 0; stroke-linejoin: miter; stroke-miterlimit: 4; fill: rgb(241,241,241); fill-rule: nonzero; opacity: 1;" vector-effect="non-scaling-stroke"  transform=" translate(-976.25, -670.97)" d="M 990.63733 719.30506 L 991.86225 719.2811300000001 C 991.3884961254845 705.6616053460413 989.935333709465 692.0938233923397 987.5140200000001 678.6828900000002 C 982.2171900000001 649.9702100000001 973.40948 631.1131200000001 961.3355100000001 622.63557 L 960.6321400000002 623.6379900000001 C 988.837 643.44128 990.623 718.54845 990.63733 719.30506 Z" stroke-linecap="round" />
</g>
<g transform="matrix(0.79 0 0 0.79 662.28 382.38)" id="667RdGFJxK1ukxQMfJa6d"  >
<path style="stroke: none; stroke-width: 1; stroke-dasharray: none; stroke-linecap: butt; stroke-dashoffset: 0; stroke-linejoin: miter; stroke-miterlimit: 4; fill: rgb(241,241,241); fill-rule: nonzero; opacity: 1;" vector-effect="non-scaling-stroke"  transform=" translate(-969.51, -697.92)" d="M 975.32581 719.012 L 976.55073 718.98807 C 976.5244 717.63157 975.75882 685.6616 963.1729 676.82518 L 962.46952 677.82761 C 974.54768 686.30755 975.31983 718.686 975.32581 719.012 Z" stroke-linecap="round" />
</g>
<g transform="matrix(0.79 0 0 0.79 649.81 319)" id="XmpbTO8yr3-ZsH-kpRS_w"  >
<path style="stroke: none; stroke-width: 1; stroke-dasharray: none; stroke-linecap: butt; stroke-dashoffset: 0; stroke-linejoin: miter; stroke-miterlimit: 4; fill: rgb(241,241,241); fill-rule: nonzero; opacity: 1;" vector-effect="non-scaling-stroke"  transform=" translate(-6.12, -6.12)" d="M 0 6.12461 C 0 2.7420799999999996 2.74208 0 6.12461 0 C 9.50714 0 12.24922 2.74208 12.24922 6.12461 C 12.24922 9.50714 9.50714 12.24922 6.12461 12.24922 C 2.7420799999999996 12.24922 0 9.50714 0 6.12461 z" stroke-linecap="round" />
</g>
<g transform="matrix(0.79 0 0 0.79 652.2 360.58)" id="qum6jHt6wkVUgagY7B_gg"  >
<path style="stroke: none; stroke-width: 1; stroke-dasharray: none; stroke-linecap: butt; stroke-dashoffset: 0; stroke-linejoin: miter; stroke-miterlimit: 4; fill: rgb(241,241,241); fill-rule: nonzero; opacity: 1;" vector-effect="non-scaling-stroke"  transform=" translate(-6.12, -6.12)" d="M 0 6.12461 C 0 2.7420799999999996 2.74208 0 6.12461 0 C 9.50714 0 12.24922 2.74208 12.24922 6.12461 C 12.24922 9.50714 9.50714 12.24922 6.12461 12.24922 C 2.7420799999999996 12.24922 0 9.50714 0 6.12461 z" stroke-linecap="round" />
</g>
<g transform="matrix(0.79 0 0 0.79 672.23 327.22)" id="A_Pvivrr8rpezH9XYUsKu"  >
<path style="stroke: none; stroke-width: 1; stroke-dasharray: none; stroke-linecap: butt; stroke-dashoffset: 0; stroke-linejoin: miter; stroke-miterlimit: 4; fill: rgb(241,241,241); fill-rule: nonzero; opacity: 1;" vector-effect="non-scaling-stroke"  transform=" translate(-982.15, -628.04)" d="M 978.18063 627.42068 C 977.5668236716178 632.1450664705496 978.2044206304845 636.9478095294713 980.02963 641.3484 C 986.5418700657572 634.0694666991736 988.1738604056225 623.6454208264312 984.1978799999999 614.7244499999999 C 981.115058673487 618.3566592015334 979.040110973171 622.7347410896358 978.18063 627.42068 Z" stroke-linecap="round" />
</g>
<g transform="matrix(0.79 0 0 0.79 654.36 337.81)" id="Op_S71m94VZE00wjofl8N"  >
<path style="stroke: none; stroke-width: 1; stroke-dasharray: none; stroke-linecap: butt; stroke-dashoffset: 0; stroke-linejoin: miter; stroke-miterlimit: 4; fill: rgb(241,241,241); fill-rule: nonzero; opacity: 1;" vector-effect="non-scaling-stroke"  transform=" translate(-959.45, -641.46)" d="M 958.161 645.27624 C 962.7061677236329 646.7038511450837 967.5465423622181 646.9128546657059 972.1978499999999 645.88234 C 966.1649459186149 638.201447814152 956.1847225168669 634.7781374671621 946.7074399999999 637.13889 C 949.7469359478341 640.8074151299876 953.696504312834 643.6134440096488 958.161 645.27624 Z" stroke-linecap="round" />
</g>
<g transform="matrix(0.79 0 0 0.79 653.88 375.54)" id="8aQIvjwckdboWATFcl233"  >
<path style="stroke: none; stroke-width: 1; stroke-dasharray: none; stroke-linecap: butt; stroke-dashoffset: 0; stroke-linejoin: miter; stroke-miterlimit: 4; fill: rgb(241,241,241); fill-rule: nonzero; opacity: 1;" vector-effect="non-scaling-stroke"  transform=" translate(-958.84, -689.25)" d="M 957.93488 691.92193 C 961.1206739617664 692.9225606302307 964.5133794072962 693.0690595016738 967.7735700000001 692.34677 C 963.5450079089708 686.9630798000824 956.5496810438018 684.5636140385537 949.9068800000001 686.21832 C 952.0373132607745 688.7896557865008 954.8056354102516 690.7564507410324 957.93488 691.92193 Z" stroke-linecap="round" />
</g>
<g transform="matrix(0.7 0 0 0.68 251.8 383.92)" id="uMLfxhRcIPShDJppYJFUI"  >
<path style="stroke: none; stroke-width: 1; stroke-dasharray: none; stroke-linecap: butt; stroke-dashoffset: 0; stroke-linejoin: miter; stroke-miterlimit: 4; fill: rgb(241,241,241); fill-rule: nonzero; opacity: 1;" vector-effect="non-scaling-stroke"  transform=" translate(-489.91, -649.15)" d="M 469.0259 719.30505 L 467.24796999999995 719.2703300000001 C 467.9356009940689 699.50204087724 470.04481754975023 679.808854521852 473.55928000000006 660.34333 C 481.2474399999999 618.6678400000001 494.03153999999995 591.29742 511.55648999999994 578.99253 L 512.57741 580.44753 C 471.639 609.19135 469.04674 718.20687 469.0259 719.30505 Z" stroke-linecap="round" />
</g>
<g transform="matrix(0.79 0 0 0.79 292.48 374.76)" id="Je30r3iskt8JenqGU0Q35"  >
<path style="stroke: none; stroke-width: 1; stroke-dasharray: none; stroke-linecap: butt; stroke-dashoffset: 0; stroke-linejoin: miter; stroke-miterlimit: 4; fill: rgb(241,241,241); fill-rule: nonzero; opacity: 1;" vector-effect="non-scaling-stroke"  transform=" translate(-499.69, -688.26)" d="M 491.25005 718.87967 L 489.47211999999996 718.8449400000001 C 489.51034 716.87602 490.62154999999996 670.4727 508.8896 657.6469400000001 L 509.91051999999996 659.1019400000001 C 492.37949 671.41028 491.25873 718.40654 491.25005 718.87967 Z" stroke-linecap="round" />
</g>
<g transform="matrix(0.79 0 0 0.79 310.58 282.76)" id="q9-5fmjCU8GdDNt7fS0r4"  >
<path style="stroke: none; stroke-width: 1; stroke-dasharray: none; stroke-linecap: butt; stroke-dashoffset: 0; stroke-linejoin: miter; stroke-miterlimit: 4; fill: rgb(241,241,241); fill-rule: nonzero; opacity: 1;" vector-effect="non-scaling-stroke"  transform=" translate(-8.89, -8.89)" d="M 0 8.88967 C 0 3.9800400000000007 3.98004 0 8.88967 0 C 13.7993 0 17.77934 3.98004 17.77934 8.88967 C 17.77934 13.7993 13.799300000000002 17.77934 8.88967 17.77934 C 3.9800400000000007 17.77934 0 13.799300000000002 0 8.88967 z" stroke-linecap="round" />
</g>
<g transform="matrix(0.79 0 0 0.79 307.12 343.11)" id="mp3nhtF_VNzRwyIR0CNP1"  >
<path style="stroke: none; stroke-width: 1; stroke-dasharray: none; stroke-linecap: butt; stroke-dashoffset: 0; stroke-linejoin: miter; stroke-miterlimit: 4; fill: rgb(241,241,241); fill-rule: nonzero; opacity: 1;" vector-effect="non-scaling-stroke"  transform=" translate(-8.89, -8.89)" d="M 0 8.88966 C 0 3.980039999999999 3.98004 0 8.88966 0 C 13.79928 0 17.77932 3.98004 17.77932 8.88966 C 17.77932 13.79928 13.79928 17.77932 8.88966 17.77932 C 3.980039999999999 17.77932 0 13.79928 0 8.88966 z" stroke-linecap="round" />
</g>
<g transform="matrix(0.7 0 0 0.68 245.84 341.69)" id="-l9_N22om6MaKP5oO8J8E"  >
<path style="stroke: none; stroke-width: 1; stroke-dasharray: none; stroke-linecap: butt; stroke-dashoffset: 0; stroke-linejoin: miter; stroke-miterlimit: 4; fill: rgb(241,241,241); fill-rule: nonzero; opacity: 1;" vector-effect="non-scaling-stroke"  transform=" translate(-481.35, -586.83)" d="M 487.10638 585.938 C 487.99730965000145 592.7952844984892 487.07187703073 599.7663037840292 484.42267 606.15362 C 474.97036991093086 595.5884973129643 472.6015921066332 580.4583449407424 478.3726 567.50986 C 482.84719244787243 572.7818906746611 485.85888997432255 579.1365256271188 487.10638 585.938 Z" stroke-linecap="round" />
</g>
<g transform="matrix(0.79 0 0 0.79 303.97 310.07)" id="LsDshr8hyJR_AtV12spuR"  >
<path style="stroke: none; stroke-width: 1; stroke-dasharray: none; stroke-linecap: butt; stroke-dashoffset: 0; stroke-linejoin: miter; stroke-miterlimit: 4; fill: rgb(241,241,241); fill-rule: nonzero; opacity: 1;" vector-effect="non-scaling-stroke"  transform=" translate(-514.29, -606.32)" d="M 516.16415 611.85472 C 509.5669972745894 613.926848394694 502.54136217325475 614.2302121045227 495.7901499999999 612.73446 C 504.54670183218474 601.58589737521 519.0326643352511 596.6170772414811 532.7886199999999 600.04364 C 528.3768891580609 605.3683791547064 522.6442189531598 609.4412323887466 516.16415 611.85472 Z" stroke-linecap="round" />
</g>
<g transform="matrix(0.79 0 0 0.79 304.67 364.83)" id="x0wq5AT1fSsYfPTBPBguZ"  >
<path style="stroke: none; stroke-width: 1; stroke-dasharray: none; stroke-linecap: butt; stroke-dashoffset: 0; stroke-linejoin: miter; stroke-miterlimit: 4; fill: rgb(241,241,241); fill-rule: nonzero; opacity: 1;" vector-effect="non-scaling-stroke"  transform=" translate(-515.18, -675.68)" d="M 516.4924 679.55937 C 511.868326213536 681.0117508116867 506.94392775596623 681.2243886525005 502.21187 680.1760099999999 C 508.3494895859742 672.3617634941623 518.5029726083803 668.879016287811 528.14478 671.2807599999999 C 525.0525222845197 675.0129678038769 521.0343942512925 677.8677077726348 516.4924 679.55937 Z" stroke-linecap="round" />
</g>
<g transform="matrix(0.7 0 0 0.68 120.11 215.4)" id="HNOx89OSiagXmMdnsVv66"  >
<path style="stroke: none; stroke-width: 1; stroke-dasharray: none; stroke-linecap: butt; stroke-dashoffset: 0; stroke-linejoin: miter; stroke-miterlimit: 4; fill: rgb(255,183,183); fill-rule: nonzero; opacity: 1;" vector-effect="non-scaling-stroke"  transform=" translate(-300.73, -400.47)" d="M 331.67889 340.73408 L 327.4014 314.56584 L 315.324 311.54641 C 315.324 311.54641 305.73846000000003 308.59393 303.498 327.90148 C 301.25758 347.20917 302.99446 383.25759999999997 302.99446 383.25759999999997 L 276.47772 467.22825 C 270.8069667064605 469.92315982066594 268.264220453804 476.6058539982014 270.70918447176126 482.38877132500147 C 273.1541484897185 488.17168865180156 279.71955642750714 491.0035393869723 285.60362740209547 488.81317626097757 C 291.4876983766838 486.62281313498283 294.60326189214777 480.18719164541596 292.67166999999995 474.21317 L 327.14991 395.33532 Z" stroke-linecap="round" />
</g>
<g transform="matrix(0.7 0 0 0.68 229.45 189.29)" id="Q6LdygkRxpnyWvZT7hbJJ"  >
<path style="stroke: none; stroke-width: 1; stroke-dasharray: none; stroke-linecap: butt; stroke-dashoffset: 0; stroke-linejoin: miter; stroke-miterlimit: 4; fill: rgb(255,183,183); fill-rule: nonzero; opacity: 1;" vector-effect="non-scaling-stroke"  transform=" translate(-457.8, -361.95)" d="M 405.12225 320.14111 L 398.78158 294.39486000000005 L 408.70358000000004 286.87586000000005 C 408.70358000000004 286.87586000000005 416.36007000000006 280.39686000000006 426.00145000000003 297.27418000000006 C 435.64289 314.1516500000001 448.19945 347.98711000000003 448.19945 347.98711000000003 L 505.55679000000003 414.80286 C 511.8302911216461 415.0547802361971 516.7927469981297 420.20244036330433 516.8147304639718 426.48095904655514 C 516.836713929814 432.759477729806 511.91042709145 437.9417620809796 505.6388439039389 438.23760739669143 C 499.36726071642784 438.53345271240323 493.97501393463455 433.83791783823847 493.40587000000005 427.58521 L 430.726 368.57925 Z" stroke-linecap="round" />
</g>
<g transform="matrix(0.7 0 0 0.68 234.67 403.37)" id="4uWphR_IgIL6jRhSPQWIB"  >
<path style="stroke: none; stroke-width: 1; stroke-dasharray: none; stroke-linecap: butt; stroke-dashoffset: 0; stroke-linejoin: miter; stroke-miterlimit: 4; fill: rgb(255,183,183); fill-rule: nonzero; opacity: 1;" vector-effect="non-scaling-stroke"  transform=" translate(-278.3, -498.35)" d="M 267.689 526.093 L 282.072 526.092 L 288.915 470.614 L 267.68600000000004 470.61499999999995 z" stroke-linecap="round" />
</g>
<g transform="matrix(0.7 0 0 0.68 240.87 425.3)" id="e8JpcerKlqCwwf-BrgYNg"  >
<path style="stroke: none; stroke-width: 1; stroke-dasharray: none; stroke-linecap: butt; stroke-dashoffset: 0; stroke-linejoin: miter; stroke-miterlimit: 4; fill: rgb(47,46,65); fill-rule: nonzero; opacity: 1;" vector-effect="non-scaling-stroke"  transform=" translate(-474.21, -710.22)" d="M 451.01987 700.89677 L 479.34568 700.8956199999999 L 479.34683 700.8956199999999 C 489.3160250420525 700.8961501241558 497.39756524001706 708.9775649673697 497.39825 718.9467599999999 L 497.39825 719.5333599999999 L 451.02073 719.5350799999999 Z" stroke-linecap="round" />
</g>
<g transform="matrix(0.7 0 0 0.68 108.91 403.37)" id="RxOLyoZpfTejq2j7IsGHH"  >
<path style="stroke: none; stroke-width: 1; stroke-dasharray: none; stroke-linecap: butt; stroke-dashoffset: 0; stroke-linejoin: miter; stroke-miterlimit: 4; fill: rgb(255,183,183); fill-rule: nonzero; opacity: 1;" vector-effect="non-scaling-stroke"  transform=" translate(-97.63, -498.35)" d="M 87.016 526.093 L 101.399 526.092 L 108.242 470.614 L 87.013 470.61499999999995 z" stroke-linecap="round" />
</g>
<g transform="matrix(0.7 0 0 0.68 115.11 425.3)" id="mU4TyQ0FdUFu80lMGezFs"  >
<path style="stroke: none; stroke-width: 1; stroke-dasharray: none; stroke-linecap: butt; stroke-dashoffset: 0; stroke-linejoin: miter; stroke-miterlimit: 4; fill: rgb(47,46,65); fill-rule: nonzero; opacity: 1;" vector-effect="non-scaling-stroke"  transform=" translate(-293.54, -710.22)" d="M 270.34694 700.89677 L 298.67275 700.8956199999999 L 298.6739 700.8956199999999 C 308.6430950420525 700.8961501241558 316.72463524001705 708.9775649673697 316.72532 718.9467599999999 L 316.72532 719.5333599999999 L 270.3478 719.5350799999999 Z" stroke-linecap="round" />
</g>
<g transform="matrix(0.7 0 0 0.68 162.92 101.18)" id="pHqUKvi4fxximsvTcN2gH"  >
<path style="stroke: none; stroke-width: 1; stroke-dasharray: none; stroke-linecap: butt; stroke-dashoffset: 0; stroke-linejoin: miter; stroke-miterlimit: 4; fill: rgb(47,46,65); fill-rule: nonzero; opacity: 1;" vector-effect="non-scaling-stroke"  transform=" translate(-38.9, -38.9)" d="M 0 38.90176 C 0 17.41691 17.41691 0 38.90176 0 C 60.386610000000005 0 77.80352 17.41691 77.80352 38.90176 C 77.80352 60.386610000000005 60.386610000000005 77.80352 38.90176 77.80352 C 17.41691 77.80352 0 60.386610000000005 0 38.90176 z" stroke-linecap="round" />
</g>
<g transform="matrix(0.7 0 0 0.68 135.84 81.18)" id="ssmnHeM83DnaJxRN2Xeml"  >
<path style="stroke: none; stroke-width: 1; stroke-dasharray: none; stroke-linecap: butt; stroke-dashoffset: 0; stroke-linejoin: miter; stroke-miterlimit: 4; fill: rgb(47,46,65); fill-rule: nonzero; opacity: 1;" vector-effect="non-scaling-stroke"  transform=" translate(-16.1, -12.07)" d="M 0 12.07296 C 0 5.4052500000000006 7.207 0 16.09728 0 C 24.987560000000002 0 32.19456 5.40525 32.19456 12.07296 C 32.19456 18.74067 24.987560000000002 24.14592 16.09728 24.14592 C 7.207000000000001 24.14592 0 18.74067 0 12.07296 z" stroke-linecap="round" />
</g>
<g transform="matrix(0.7 0 0 0.68 180.84 74.31)" id="YdawqMmQn-4zDL4_vyBLL"  >
<path style="stroke: none; stroke-width: 1; stroke-dasharray: none; stroke-linecap: butt; stroke-dashoffset: 0; stroke-linejoin: miter; stroke-miterlimit: 4; fill: rgb(47,46,65); fill-rule: nonzero; opacity: 1;" vector-effect="non-scaling-stroke"  transform=" translate(-12.07, -16.1)" d="M 0 16.09728 C 0 7.207000000000001 5.40525 0 12.07296 0 C 18.74067 0 24.14592 7.207 24.14592 16.09728 C 24.14592 24.987560000000002 18.74067 32.19456 12.07296 32.19456 C 5.4052500000000006 32.19456 0 24.987560000000002 0 16.09728 z" stroke-linecap="round" />
</g>
<g transform="matrix(0.7 0 0 0.68 163.78 107.48)" id="wALmU9y_tdrcYyOrUCV4H"  >
<path style="stroke: none; stroke-width: 1; stroke-dasharray: none; stroke-linecap: butt; stroke-dashoffset: 0; stroke-linejoin: miter; stroke-miterlimit: 4; fill: rgb(255,183,183); fill-rule: nonzero; opacity: 1;" vector-effect="non-scaling-stroke"  transform=" translate(-33.02, -33.02)" d="M 0 33.01551 C 0 14.78155 14.78155 0 33.01551 0 C 51.24947 0 66.03102 14.78155 66.03102 33.01551 C 66.03102 51.24947 51.24947 66.03102 33.01551 66.03102 C 14.78155 66.03102 0 51.24947 0 33.01551 z" stroke-linecap="round" />
</g>
<g transform="matrix(0.7 0 0 0.68 162.04 92.3)" id="0ZZTfcgTJY5jnGx0vI39n"  >
<path style="stroke: none; stroke-width: 1; stroke-dasharray: none; stroke-linecap: butt; stroke-dashoffset: 0; stroke-linejoin: miter; stroke-miterlimit: 4; fill: rgb(47,46,65); fill-rule: nonzero; opacity: 1;" vector-effect="non-scaling-stroke"  transform=" translate(-360.96, -218.83)" d="M 328.77225 220.45121 C 336.31678568375196 225.6511384401772 345.27154380839096 228.41854800462278 354.4344 228.38193 C 351.16589652196075 230.64822907500024 347.44495118159256 232.17904847097805 343.5279 232.86893 C 355.710589409712 235.48218208864162 368.301524157468 235.55292775626475 380.51281 233.07674 C 383.2271697136844 232.64150707404994 385.8462735320285 231.74195813622262 388.25524 230.41755 C 390.68298609105494 229.0617235763301 392.42032022783025 226.73822911547126 393.03424 224.02616 C 393.84568 219.39058 390.23358 215.17905000000002 386.4798 212.34072 C 374.84143529090966 203.67488873314596 359.9263101694992 200.69443274783262 345.85135999999994 204.22203000000002 C 341.3129 205.39516 336.76636 207.37728 333.81853 211.02203000000003 C 330.8707 214.66678000000005 329.99748 220.28575000000004 332.80604 224.03886000000003 Z" stroke-linecap="round" />
</g>
<g transform="matrix(0.7 0 0 0.68 167.59 273.68)" id="fRQk3lnk3Biu9Q72dQLe-"  >
<path style="stroke: none; stroke-width: 1; stroke-dasharray: none; stroke-linecap: butt; stroke-dashoffset: 0; stroke-linejoin: miter; stroke-miterlimit: 4; fill: rgb(47,46,65); fill-rule: nonzero; opacity: 1;" vector-effect="non-scaling-stroke"  transform=" translate(-368.94, -486.48)" d="M 346.91765 284.15122 L 314.23974999999996 310.83822000000004 L 342.79189999999994 378.91722000000004 L 343.33653999999996 389.80985000000004 C 343.33653999999996 389.80985000000004 313.69674999999995 417.13785 295.35745 493.47813 C 277.01815 569.8184100000001 239.97786999999997 671.2562 239.97786999999997 671.2562 L 314.07858 689.3838400000001 L 365.59923 516.6942300000001 L 431.27592999999996 652.1744800000001 L 440.61893 692.2461000000002 L 497.89916 676.3446600000002 L 475.79244 568.80829 L 421.5723 401.88576 L 426.0247 355.77159 C 426.0247 355.77159 435.94656 332.75426 418.71004 308.38531 L 413.30355 285.48724 L 385.317 280.71681 Z" stroke-linecap="round" />
</g>
<g transform="matrix(0.79 0 0 0.79 515.46 211.41)" id="VifoHfmOb0agV-fBefCQk"  >
<path style="stroke: none; stroke-width: 1; stroke-dasharray: none; stroke-linecap: butt; stroke-dashoffset: 0; stroke-linejoin: miter; stroke-miterlimit: 4; fill: rgb(229,229,229); fill-rule: nonzero; opacity: 1;" vector-effect="non-scaling-stroke"  transform=" translate(-782.98, -481.33)" d="M 896.41455 526.4292 L 669.54305 526.4292 C 665.7708370491387 526.4248245880747 662.7139454119254 523.3679329508614 662.70957 519.59572 L 662.70957 443.06072000000006 C 662.7139454119254 439.28850704913873 665.7708370491387 436.2316154119255 669.54305 436.22724000000005 L 896.41455 436.22724000000005 C 900.1867880449546 436.2315549279777 903.2437150720224 439.2884819550454 903.24803 443.06072000000006 L 903.24803 519.59572 C 903.2437150720224 523.3679580449547 900.1867880449546 526.4248850720224 896.41455 526.4292 Z" stroke-linecap="round" />
</g>
<g transform="matrix(0.79 0 0 0.79 472.43 194.68)" id="Y8XnrgNyZZ3Va7Qg1gS5p"  >
<path style="stroke: none; stroke-width: 1; stroke-dasharray: none; stroke-linecap: butt; stroke-dashoffset: 0; stroke-linejoin: miter; stroke-miterlimit: 4; fill: rgb(255,255,255); fill-rule: nonzero; opacity: 1;" vector-effect="non-scaling-stroke"  transform=" translate(-30.07, -3.42)" d="M 0 6.83348 L 0 0 L 60.13462 0 L 60.13462 6.83348 z" stroke-linecap="round" />
</g>
<g transform="matrix(0.79 0 0 0.79 558.49 195.22)" id="UkN36nlM9bbAGebptmsrI"  >
<path style="stroke: none; stroke-width: 1; stroke-dasharray: none; stroke-linecap: butt; stroke-dashoffset: 0; stroke-linejoin: miter; stroke-miterlimit: 4; fill: rgb(40,88,235); fill-rule: nonzero; opacity: 1;" vector-effect="non-scaling-stroke"  transform=" translate(-4.1, -4.1)" d="M 0 4.10009 C 0 1.83567 1.83567 0 4.10009 0 C 6.364509999999999 0 8.20018 1.83567 8.20018 4.10009 C 8.20018 6.364509999999999 6.364509999999999 8.20018 4.10009 8.20018 C 1.83567 8.20018 0 6.364509999999999 0 4.10009 z" stroke-linecap="round" />
</g>
<g transform="matrix(0.79 0 0 0.79 569.25 195.22)" id="hGlJSI_Wh16GTNOJJago-"  >
<path style="stroke: none; stroke-width: 1; stroke-dasharray: none; stroke-linecap: butt; stroke-dashoffset: 0; stroke-linejoin: miter; stroke-miterlimit: 4; fill: rgb(40,88,235); fill-rule: nonzero; opacity: 1;" vector-effect="non-scaling-stroke"  transform=" translate(-4.1, -4.1)" d="M 0 4.10009 C 0 1.83567 1.83567 0 4.10009 0 C 6.364509999999999 0 8.20018 1.83567 8.20018 4.10009 C 8.20018 6.364509999999999 6.364509999999999 8.20018 4.10009 8.20018 C 1.83567 8.20018 0 6.364509999999999 0 4.10009 z" stroke-linecap="round" />
</g>
<g transform="matrix(0.79 0 0 0.79 580.01 195.22)" id="BuKeCF_6eQEV7ynsDEQBJ"  >
<path style="stroke: none; stroke-width: 1; stroke-dasharray: none; stroke-linecap: butt; stroke-dashoffset: 0; stroke-linejoin: miter; stroke-miterlimit: 4; fill: rgb(40,88,235); fill-rule: nonzero; opacity: 1;" vector-effect="non-scaling-stroke"  transform=" translate(-4.1, -4.1)" d="M 0 4.10009 C 0 1.83567 1.83567 0 4.10009 0 C 6.364509999999999 0 8.20018 1.83567 8.20018 4.10009 C 8.20018 6.364509999999999 6.364509999999999 8.20018 4.10009 8.20018 C 1.83567 8.20018 0 6.364509999999999 0 4.10009 z" stroke-linecap="round" />
</g>
<g transform="matrix(0.79 0 0 0.79 515.46 288)" id="8QCbbiN7NmZEWaarwdPfo"  >
<path style="stroke: none; stroke-width: 1; stroke-dasharray: none; stroke-linecap: butt; stroke-dashoffset: 0; stroke-linejoin: miter; stroke-miterlimit: 4; fill: rgb(229,229,229); fill-rule: nonzero; opacity: 1;" vector-effect="non-scaling-stroke"  transform=" translate(-782.98, -578.36)" d="M 896.41455 623.4646 L 669.54305 623.4646 C 665.7708370491387 623.4602245880747 662.7139454119254 620.4033329508613 662.70957 616.63112 L 662.70957 540.09612 C 662.7139454119254 536.3239070491387 665.7708370491387 533.2670154119254 669.54305 533.26264 L 896.41455 533.26264 C 900.1867880449546 533.2669549279776 903.2437150720224 536.3238819550454 903.24803 540.09612 L 903.24803 616.63112 C 903.2437150720224 620.4033580449546 900.1867880449546 623.4602850720224 896.41455 623.4646 Z" stroke-linecap="round" />
</g>
<g transform="matrix(0.79 0 0 0.79 472.43 271.28)" id="Cm6NuM2Ey3E9jr_gqhYoy"  >
<path style="stroke: none; stroke-width: 1; stroke-dasharray: none; stroke-linecap: butt; stroke-dashoffset: 0; stroke-linejoin: miter; stroke-miterlimit: 4; fill: rgb(255,255,255); fill-rule: nonzero; opacity: 1;" vector-effect="non-scaling-stroke"  transform=" translate(-30.07, -3.42)" d="M 0 6.83348 L 0 0 L 60.13462 0 L 60.13462 6.83348 z" stroke-linecap="round" />
</g>
<g transform="matrix(0.79 0 0 0.79 558.49 271.82)" id="SwuFz3KVkDdDvxteHd97X"  >
<path style="stroke: none; stroke-width: 1; stroke-dasharray: none; stroke-linecap: butt; stroke-dashoffset: 0; stroke-linejoin: miter; stroke-miterlimit: 4; fill: rgb(40,88,235); fill-rule: nonzero; opacity: 1;" vector-effect="non-scaling-stroke"  transform=" translate(-4.1, -4.1)" d="M 0 4.10009 C 0 1.83567 1.83567 0 4.10009 0 C 6.364509999999999 0 8.20018 1.83567 8.20018 4.10009 C 8.20018 6.364509999999999 6.364509999999999 8.20018 4.10009 8.20018 C 1.83567 8.20018 0 6.364509999999999 0 4.10009 z" stroke-linecap="round" />
</g>
<g transform="matrix(0.79 0 0 0.79 569.25 271.82)" id="IXUHqoUtEhkVTHjAI6O-8"  >
<path style="stroke: none; stroke-width: 1; stroke-dasharray: none; stroke-linecap: butt; stroke-dashoffset: 0; stroke-linejoin: miter; stroke-miterlimit: 4; fill: rgb(40,88,235); fill-rule: nonzero; opacity: 1;" vector-effect="non-scaling-stroke"  transform=" translate(-4.1, -4.1)" d="M 0 4.10009 C 0 1.83567 1.83567 0 4.10009 0 C 6.364509999999999 0 8.20018 1.83567 8.20018 4.10009 C 8.20018 6.364509999999999 6.364509999999999 8.20018 4.10009 8.20018 C 1.83567 8.20018 0 6.364509999999999 0 4.10009 z" stroke-linecap="round" />
</g>
<g transform="matrix(0.79 0 0 0.79 580.01 271.82)" id="eT1IY3ys31nl2JKQhtK9p"  >
<path style="stroke: none; stroke-width: 1; stroke-dasharray: none; stroke-linecap: butt; stroke-dashoffset: 0; stroke-linejoin: miter; stroke-miterlimit: 4; fill: rgb(40,88,235); fill-rule: nonzero; opacity: 1;" vector-effect="non-scaling-stroke"  transform=" translate(-4.1, -4.1)" d="M 0 4.10009 C 0 1.83567 1.83567 0 4.10009 0 C 6.364509999999999 0 8.20018 1.83567 8.20018 4.10009 C 8.20018 6.364509999999999 6.364509999999999 8.20018 4.10009 8.20018 C 1.83567 8.20018 0 6.364509999999999 0 4.10009 z" stroke-linecap="round" />
</g>
<g transform="matrix(0.79 0 0 0.79 515.46 364.61)" id="uy0xup1LJRRHeJpPAwrRS"  >
<path style="stroke: none; stroke-width: 1; stroke-dasharray: none; stroke-linecap: butt; stroke-dashoffset: 0; stroke-linejoin: miter; stroke-miterlimit: 4; fill: rgb(229,229,229); fill-rule: nonzero; opacity: 1;" vector-effect="non-scaling-stroke"  transform=" translate(-782.98, -675.4)" d="M 896.41455 720.5 L 669.54305 720.5 C 665.7708370491387 720.4956245880746 662.7139454119254 717.4387329508613 662.70957 713.66652 L 662.70957 637.13152 C 662.7139454119254 633.3593070491387 665.7708370491387 630.3024154119254 669.54305 630.29804 L 896.41455 630.29804 C 900.1867880449546 630.3023549279776 903.2437150720224 633.3592819550454 903.24803 637.13152 L 903.24803 713.66652 C 903.2437150720224 717.4387580449546 900.1867880449546 720.4956850720224 896.41455 720.5 Z" stroke-linecap="round" />
</g>
<g transform="matrix(0.79 0 0 0.79 472.43 347.88)" id="TDiVtuGoo_fn2K_UCV01p"  >
<path style="stroke: none; stroke-width: 1; stroke-dasharray: none; stroke-linecap: butt; stroke-dashoffset: 0; stroke-linejoin: miter; stroke-miterlimit: 4; fill: rgb(255,255,255); fill-rule: nonzero; opacity: 1;" vector-effect="non-scaling-stroke"  transform=" translate(-30.07, -3.42)" d="M 0 6.83348 L 0 0 L 60.13462 0 L 60.13462 6.83348 z" stroke-linecap="round" />
</g>
<g transform="matrix(0.79 0 0 0.79 558.49 348.42)" id="p_Ts0T6xMqz4j5OurhAL1"  >
<path style="stroke: none; stroke-width: 1; stroke-dasharray: none; stroke-linecap: butt; stroke-dashoffset: 0; stroke-linejoin: miter; stroke-miterlimit: 4; fill: rgb(40,88,235); fill-rule: nonzero; opacity: 1;" vector-effect="non-scaling-stroke"  transform=" translate(-4.1, -4.1)" d="M 0 4.10009 C 0 1.83567 1.83567 0 4.10009 0 C 6.364509999999999 0 8.20018 1.83567 8.20018 4.10009 C 8.20018 6.364509999999999 6.364509999999999 8.20018 4.10009 8.20018 C 1.83567 8.20018 0 6.364509999999999 0 4.10009 z" stroke-linecap="round" />
</g>
<g transform="matrix(0.79 0 0 0.79 569.25 348.42)" id="4dZobzBTZCLH4yDi-9Gq3"  >
<path style="stroke: none; stroke-width: 1; stroke-dasharray: none; stroke-linecap: butt; stroke-dashoffset: 0; stroke-linejoin: miter; stroke-miterlimit: 4; fill: rgb(40,88,235); fill-rule: nonzero; opacity: 1;" vector-effect="non-scaling-stroke"  transform=" translate(-4.1, -4.1)" d="M 0 4.10009 C 0 1.83567 1.83567 0 4.10009 0 C 6.364509999999999 0 8.20018 1.83567 8.20018 4.10009 C 8.20018 6.364509999999999 6.364509999999999 8.20018 4.10009 8.20018 C 1.83567 8.20018 0 6.364509999999999 0 4.10009 z" stroke-linecap="round" />
</g>
<g transform="matrix(0.79 0 0 0.79 580.01 348.42)" id="lLkbaCO2q1uiFddoQ5z_3"  >
<path style="stroke: none; stroke-width: 1; stroke-dasharray: none; stroke-linecap: butt; stroke-dashoffset: 0; stroke-linejoin: miter; stroke-miterlimit: 4; fill: rgb(40,88,235); fill-rule: nonzero; opacity: 1;" vector-effect="non-scaling-stroke"  transform=" translate(-4.1, -4.1)" d="M 0 4.10009 C 0 1.83567 1.83567 0 4.10009 0 C 6.364509999999999 0 8.20018 1.83567 8.20018 4.10009 C 8.20018 6.364509999999999 6.364509999999999 8.20018 4.10009 8.20018 C 1.83567 8.20018 0 6.364509999999999 0 4.10009 z" stroke-linecap="round" />
</g>
<g transform="matrix(0.79 0 0 0.79 389.86 159.87)" id="x7GH2g5eBGt1kRygqRMcQ"  >
<path style="stroke: none; stroke-width: 1; stroke-dasharray: none; stroke-linecap: butt; stroke-dashoffset: 0; stroke-linejoin: miter; stroke-miterlimit: 4; fill: rgb(63,61,86); fill-rule: nonzero; opacity: 1;" vector-effect="non-scaling-stroke"  transform=" translate(-623.41, -416.04)" d="M 624.16975 555.4751 C 619.8486270533548 555.4607030971305 615.5463845211791 554.9041797218615 611.36383 553.81857 L 610.53946 553.5904800000001 L 609.77473 553.2073300000001 C 582.1273199999999 539.34545 558.80273 521.0358500000001 540.4485999999999 498.7868200000001 C 525.2552485916249 480.26130277079324 513.4098486619762 459.22751495384654 505.445 436.63118999999995 C 495.92030703264373 409.5778762394843 491.33799364925204 381.0322702030209 491.91681000000005 352.3570800000001 C 491.92847 351.75517 491.93838 351.29042 491.93838 350.97023 C 491.93838 337.03102 499.67573 324.8004 511.65008 319.81101 C 520.81468 315.99242000000004 604.02485 281.81469000000004 610.0369900000001 279.34525 C 621.35949 273.67195000000004 633.43856 278.40725000000003 635.37156 279.23525 C 639.70736 281.00796 716.63008 312.47025 733.2530300000001 320.38569 C 750.3846400000001 328.54358 754.9555300000001 343.19895 754.9555300000001 350.57230000000004 C 754.9555300000001 383.95382000000006 749.17421 415.15151000000003 737.77205 443.29883000000007 C 728.5636622918126 466.08203058990597 715.512458462467 487.1153587991723 699.18705 505.48244000000005 C 667.68899 540.92889 636.1825699999999 553.49485 635.8785 553.6056000000001 C 632.1130757212005 554.9012383427937 628.1514148329588 555.5337845181384 624.16975 555.4751 Z M 616.76046 537.122 C 619.492 537.7344099999999 625.78081 538.6529999999999 629.87977 537.15775 C 635.08696 535.25875 661.4573 521.58416 686.09961 493.85301 C 720.14678 455.53801 737.4223499999999 407.37293 737.4476099999999 350.69552999999996 C 737.3868 349.54726999999997 736.5713599999999 341.35752999999994 725.72584 336.19325999999995 C 709.42522 328.43093999999996 629.4705899999999 295.73759999999993 628.6648399999999 295.4080799999999 L 628.4439399999999 295.3144299999999 C 626.7683699999999 294.6122699999999 621.4358599999999 293.1333199999999 617.7600699999999 295.0595199999999 L 617.0240699999999 295.4026399999999 C 616.1328599999999 295.7686399999999 527.8042899999999 332.0470899999999 518.3839999999999 335.9721499999999 C 511.7942299999999 338.7178699999999 509.4463199999999 345.51999999999987 509.4463199999999 350.9702499999999 C 509.4463199999999 351.3685499999999 509.4360199999999 351.94792999999993 509.4214499999999 352.6967199999999 C 508.66861 391.47757 517.64272 486.90515 616.76046 537.122 Z" stroke-linecap="round" />
</g>
<g transform="matrix(0.79 0 0 0.79 389.86 159.87)" id="hRR3kgWTr506YTk8zF-Re"  >
<path style="stroke: none; stroke-width: 1; stroke-dasharray: none; stroke-linecap: butt; stroke-dashoffset: 0; stroke-linejoin: miter; stroke-miterlimit: 4; fill: rgb(40,88,235); fill-rule: nonzero; opacity: 1;" vector-effect="non-scaling-stroke"  transform=" translate(-623.41, -416.04)" d="M 613.69824 287.305 C 613.69824 287.305 524.56686 323.91253 515.0170700000001 327.89161 C 505.4672800000002 331.87069 500.6923900000001 341.42048 500.6923900000001 350.97027 C 500.6923900000001 360.52006000000006 493.53 485.132 613.69824 545.38167 C 613.69824 545.38167 624.60468 548.39939 632.8792400000001 545.38167 C 641.1538000000002 542.3639499999999 746.2015500000001 491.43174 746.2015500000001 350.57232999999997 C 746.2015500000001 350.57232999999997 746.2015500000001 336.24764 729.4894100000001 328.28947999999997 C 712.7772700000002 320.33131999999995 631.97694 287.305 631.97694 287.305 C 631.97694 287.305 622.05431 282.928 613.69824 287.305 Z" stroke-linecap="round" />
</g>
<g transform="matrix(0.79 0 0 0.79 424.82 157.94)" id="cJAtkzhnkE9YqNEHC126x"  >
<path style="stroke: none; stroke-width: 1; stroke-dasharray: none; stroke-linecap: butt; stroke-dashoffset: 0; stroke-linejoin: miter; stroke-miterlimit: 4; fill: rgb(0,0,0); fill-rule: nonzero; opacity: 0.2;" vector-effect="non-scaling-stroke"  transform=" translate(-667.82, -413.6)" d="M 623.248 315.95433 L 623.248 511.24254 C 623.248 511.24254 713.1752 467.95517 712.3793800000001 354.15354 Z" stroke-linecap="round" />
</g>
<g transform="matrix(0.58 0 0 0.63 795.84 256.85)" id="j2cRknlumowPscWMPEakw"  >
<path style="stroke: none; stroke-width: 1; stroke-dasharray: none; stroke-linecap: butt; stroke-dashoffset: 0; stroke-linejoin: miter; stroke-miterlimit: 4; fill: rgb(63,61,86); fill-rule: nonzero; opacity: 1;" vector-effect="non-scaling-stroke"  transform=" translate(-558.6, -423.05)" d="M 862.09649 208.674 L 255.09649000000002 208.674 C 250.2824251812962 208.6783777412649 246.3809886796087 212.57993504805253 246.37676000000002 217.394 L 246.37676000000002 628.714 C 246.38098867960866 633.5280649519475 250.2824251812962 637.4296222587352 255.09649000000002 637.4340000000001 L 862.09649 637.4340000000001 C 864.6480684727242 637.4341137648067 867.0714497890867 636.3156924959983 868.72686 634.3740000000001 C 868.7960773017085 634.2988550227334 868.8595682760232 634.2186305632434 868.9168 634.1340000000001 C 869.4373035575129 633.4975802339621 869.8587210079569 632.7862107209147 870.1668 632.0239500000001 C 870.6055497838016 630.9757477535227 870.8298535417832 629.8502676817914 870.82647 628.7139500000002 L 870.82647 217.39406 C 870.8212381780731 212.5763989734036 866.9141538611254 208.67375433173856 862.09649 208.674 Z M 868.33672 628.714 C 868.3376780618037 629.930597446112 867.9792595919307 631.1203740745351 867.30645 632.134 C 866.7087103056273 633.0262166243342 865.8975230722325 633.7549503828874 864.94658 634.254 C 864.0656081773263 634.7091716307586 863.088099418161 634.9458241728973 862.09649 634.9440000000001 L 255.09649000000002 634.9440000000001 C 251.65748521511327 634.93982890335 248.87066109665014 632.1530047848868 248.86649000000003 628.714 L 248.86649000000003 217.39406 C 248.87063355321243 213.95503568892073 251.65746572228622 211.16818115361764 255.09649000000002 211.16401 L 862.09649 211.16401 C 865.5390822786541 211.1635702214272 868.3315391237525 213.95147159169807 868.33672 217.39406 Z" stroke-linecap="round" />
</g>
<g transform="matrix(0.58 0 0 0.63 795.84 145.37)" id="gvv_JXb3JYj6qgISzBFI1"  >
<path style="stroke: none; stroke-width: 1; stroke-dasharray: none; stroke-linecap: butt; stroke-dashoffset: 0; stroke-linejoin: miter; stroke-miterlimit: 4; fill: rgb(63,61,86); fill-rule: nonzero; opacity: 1;" vector-effect="non-scaling-stroke"  transform=" translate(-310.98, -1.25)" d="M 0 2.49281 L 0 0 L 621.95676 0 L 621.95676 2.49281 z" stroke-linecap="round" />
</g>
<g transform="matrix(0.58 0 0 0.63 627.93 134.42)" id="wM8NGRCrAkzG6QRNIU3tA"  >
<path style="stroke: none; stroke-width: 1; stroke-dasharray: none; stroke-linecap: butt; stroke-dashoffset: 0; stroke-linejoin: miter; stroke-miterlimit: 4; fill: rgb(63,61,86); fill-rule: nonzero; opacity: 1;" vector-effect="non-scaling-stroke"  transform=" translate(-7.48, -7.48)" d="M 0 7.47844 C 0 3.34821 3.34821 0 7.47844 0 C 11.60867 0 14.95688 3.34821 14.95688 7.47844 C 14.95688 11.60867 11.60867 14.95688 7.47844 14.95688 C 3.34821 14.95688 0 11.60867 0 7.47844 z" stroke-linecap="round" />
</g>
<g transform="matrix(0.58 0 0 0.63 640.38 134.42)" id="u5uehjULt7gMdj_8wStAt"  >
<path style="stroke: none; stroke-width: 1; stroke-dasharray: none; stroke-linecap: butt; stroke-dashoffset: 0; stroke-linejoin: miter; stroke-miterlimit: 4; fill: rgb(63,61,86); fill-rule: nonzero; opacity: 1;" vector-effect="non-scaling-stroke"  transform=" translate(-7.48, -7.48)" d="M 0 7.47844 C 0 3.34821 3.34821 0 7.47844 0 C 11.60867 0 14.95688 3.34821 14.95688 7.47844 C 14.95688 11.60867 11.60867 14.95688 7.47844 14.95688 C 3.34821 14.95688 0 11.60867 0 7.47844 z" stroke-linecap="round" />
</g>
<g transform="matrix(0.58 0 0 0.63 652.84 134.42)" id="FpmadAGhCz9dpl9OeZDlH"  >
<path style="stroke: none; stroke-width: 1; stroke-dasharray: none; stroke-linecap: butt; stroke-dashoffset: 0; stroke-linejoin: miter; stroke-miterlimit: 4; fill: rgb(63,61,86); fill-rule: nonzero; opacity: 1;" vector-effect="non-scaling-stroke"  transform=" translate(-7.48, -7.48)" d="M 0 7.47844 C 0 3.34821 3.34821 0 7.47844 0 C 11.60867 0 14.95688 3.34821 14.95688 7.47844 C 14.95688 11.60867 11.60867 14.95688 7.47844 14.95688 C 3.34821 14.95688 0 11.60867 0 7.47844 z" stroke-linecap="round" />
</g>
<g transform="matrix(0.58 0 0 0.63 795.9 172.56)" id="-E_plDS-TAe14U1-JQpgY"  >
<path style="stroke: none; stroke-width: 1; stroke-dasharray: none; stroke-linecap: butt; stroke-dashoffset: 0; stroke-linejoin: miter; stroke-miterlimit: 4; fill: rgb(63,61,86); fill-rule: nonzero; opacity: 1;" vector-effect="non-scaling-stroke"  transform=" translate(-558.7, -288.33)" d="M 714.6961 301.326 L 402.6961 301.326 C 395.5163982521997 301.326 389.6961 295.50570174780034 389.6961 288.326 C 389.6961 281.1462982521997 395.5163982521997 275.326 402.6961 275.326 L 714.6961 275.326 C 721.8758017478003 275.326 727.6961 281.1462982521997 727.6961 288.326 C 727.6961 295.50570174780034 721.8758017478003 301.326 714.6961 301.326 Z M 402.6961 277.326 C 396.62096775186126 277.326 391.6961 282.2508677518613 391.6961 288.326 C 391.6961 294.40113224813877 396.62096775186126 299.326 402.6961 299.326 L 714.6961 299.326 C 720.7712322481387 299.326 725.6961 294.40113224813877 725.6961 288.326 C 725.6961 282.2508677518613 720.7712322481387 277.326 714.6961 277.326 Z" stroke-linecap="round" />
</g>
<g transform="matrix(0.58 0 0 0.63 698.9 225.43)" id="P7uGgnPdu4yOdm7hdQwf7"  >
<path style="stroke: none; stroke-width: 1; stroke-dasharray: none; stroke-linecap: butt; stroke-dashoffset: 0; stroke-linejoin: miter; stroke-miterlimit: 4; fill: rgb(204,204,204); fill-rule: nonzero; opacity: 1;" vector-effect="non-scaling-stroke"  transform=" translate(-391.3, -372.83)" d="M 405.30246 380.826 L 377.30246 380.826 C 372.8841820013536 380.826 369.30246 377.2442779986464 369.30246 372.826 C 369.30246 368.40772200135365 372.8841820013536 364.826 377.30246 364.826 L 405.30246 364.826 C 409.72073799864637 364.826 413.30246 368.40772200135365 413.30246 372.826 C 413.30246 377.24427799864634 409.72073799864637 380.826 405.30246 380.826 Z" stroke-linecap="round" />
</g>
<g transform="matrix(0.58 0 0 0.63 708.46 242.32)" id="JHS0zdoBhukVDqusTme0_"  >
<path style="stroke: none; stroke-width: 1; stroke-dasharray: none; stroke-linecap: butt; stroke-dashoffset: 0; stroke-linejoin: miter; stroke-miterlimit: 4; fill: rgb(204,204,204); fill-rule: nonzero; opacity: 1;" vector-effect="non-scaling-stroke"  transform=" translate(-407.8, -399.83)" d="M 438.30246 407.826 L 377.30246 407.826 C 372.8841820013536 407.826 369.30246 404.2442779986464 369.30246 399.826 C 369.30246 395.40772200135365 372.8841820013536 391.826 377.30246 391.826 L 438.30246 391.826 C 442.72073799864637 391.826 446.30246 395.40772200135365 446.30246 399.826 C 446.30246 404.24427799864634 442.72073799864637 407.826 438.30246 407.826 Z" stroke-linecap="round" />
</g>
<g transform="matrix(0.58 0 0 0.63 701.8 299.25)" id="J-7kT-xBC7xafyQRybzTC"  >
<path style="stroke: none; stroke-width: 1; stroke-dasharray: none; stroke-linecap: butt; stroke-dashoffset: 0; stroke-linejoin: miter; stroke-miterlimit: 4; fill: rgb(204,204,204); fill-rule: nonzero; opacity: 1;" vector-effect="non-scaling-stroke"  transform=" translate(-396.3, -490.83)" d="M 410.30246 498.826 L 382.30246 498.826 C 377.8841820013536 498.826 374.30246 495.2442779986464 374.30246 490.826 C 374.30246 486.40772200135365 377.8841820013536 482.826 382.30246 482.826 L 410.30246 482.826 C 414.72073799864637 482.826 418.30246 486.40772200135365 418.30246 490.826 C 418.30246 495.24427799864634 414.72073799864637 498.826 410.30246 498.826 Z" stroke-linecap="round" />
</g>
<g transform="matrix(0.58 0 0 0.63 711.36 316.15)" id="vXKjacQhgclQIYH0qduGh"  >
<path style="stroke: none; stroke-width: 1; stroke-dasharray: none; stroke-linecap: butt; stroke-dashoffset: 0; stroke-linejoin: miter; stroke-miterlimit: 4; fill: rgb(204,204,204); fill-rule: nonzero; opacity: 1;" vector-effect="non-scaling-stroke"  transform=" translate(-412.8, -517.83)" d="M 443.30246 525.826 L 382.30246 525.826 C 377.8841820013536 525.826 374.30246 522.2442779986463 374.30246 517.826 C 374.30246 513.4077220013537 377.8841820013536 509.826 382.30246 509.826 L 443.30246 509.826 C 447.72073799864637 509.826 451.30246 513.4077220013537 451.30246 517.826 C 451.30246 522.2442779986463 447.72073799864637 525.826 443.30246 525.826 Z" stroke-linecap="round" />
</g>
<g transform="matrix(0.58 0 0 0.63 808.41 297.38)" id="ExJlUah2hDPUHiDRg5n2w"  >
<path style="stroke: none; stroke-width: 1; stroke-dasharray: none; stroke-linecap: butt; stroke-dashoffset: 0; stroke-linejoin: miter; stroke-miterlimit: 4; fill: rgb(204,204,204); fill-rule: nonzero; opacity: 1;" vector-effect="non-scaling-stroke"  transform=" translate(-580.3, -487.83)" d="M 594.30246 495.826 L 566.30246 495.826 C 561.8841820013537 495.826 558.30246 492.2442779986464 558.30246 487.826 C 558.30246 483.40772200135365 561.8841820013537 479.826 566.30246 479.826 L 594.30246 479.826 C 598.7207379986463 479.826 602.30246 483.40772200135365 602.30246 487.826 C 602.30246 492.24427799864634 598.7207379986463 495.826 594.30246 495.826 Z" stroke-linecap="round" />
</g>
<g transform="matrix(0.58 0 0 0.63 817.97 314.27)" id="a-Jf50uC3Aqu2ZLsIKfVO"  >
<path style="stroke: none; stroke-width: 1; stroke-dasharray: none; stroke-linecap: butt; stroke-dashoffset: 0; stroke-linejoin: miter; stroke-miterlimit: 4; fill: rgb(204,204,204); fill-rule: nonzero; opacity: 1;" vector-effect="non-scaling-stroke"  transform=" translate(-596.8, -514.83)" d="M 627.30246 522.826 L 566.30246 522.826 C 561.8841820013537 522.826 558.30246 519.2442779986463 558.30246 514.826 C 558.30246 510.40772200135365 561.8841820013537 506.826 566.30246 506.826 L 627.30246 506.826 C 631.7207379986463 506.826 635.30246 510.40772200135365 635.30246 514.826 C 635.30246 519.2442779986463 631.7207379986463 522.826 627.30246 522.826 Z" stroke-linecap="round" />
</g>
<g transform="matrix(0.58 0 0 0.63 806.67 228.55)" id="6LApabihOto4HbAPpKMqe"  >
<path style="stroke: none; stroke-width: 1; stroke-dasharray: none; stroke-linecap: butt; stroke-dashoffset: 0; stroke-linejoin: miter; stroke-miterlimit: 4; fill: rgb(204,204,204); fill-rule: nonzero; opacity: 1;" vector-effect="non-scaling-stroke"  transform=" translate(-577.3, -377.83)" d="M 591.30246 385.826 L 563.30246 385.826 C 558.8841820013537 385.826 555.30246 382.2442779986464 555.30246 377.826 C 555.30246 373.40772200135365 558.8841820013537 369.826 563.30246 369.826 L 591.30246 369.826 C 595.7207379986463 369.826 599.30246 373.40772200135365 599.30246 377.826 C 599.30246 382.24427799864634 595.7207379986463 385.826 591.30246 385.826 Z" stroke-linecap="round" />
</g>
<g transform="matrix(0.58 0 0 0.63 816.24 245.45)" id="5yjr8irM15y4KMgkiI2c0"  >
<path style="stroke: none; stroke-width: 1; stroke-dasharray: none; stroke-linecap: butt; stroke-dashoffset: 0; stroke-linejoin: miter; stroke-miterlimit: 4; fill: rgb(204,204,204); fill-rule: nonzero; opacity: 1;" vector-effect="non-scaling-stroke"  transform=" translate(-593.8, -404.83)" d="M 624.30246 412.826 L 563.30246 412.826 C 558.8841820013537 412.826 555.30246 409.2442779986464 555.30246 404.826 C 555.30246 400.40772200135365 558.8841820013537 396.826 563.30246 396.826 L 624.30246 396.826 C 628.7207379986463 396.826 632.30246 400.40772200135365 632.30246 404.826 C 632.30246 409.24427799864634 628.7207379986463 412.826 624.30246 412.826 Z" stroke-linecap="round" />
</g>
<g transform="matrix(0.58 0 0 0.63 915.03 224.8)" id="rg7HtzRtcBOcaXjbIl0pG"  >
<path style="stroke: none; stroke-width: 1; stroke-dasharray: none; stroke-linecap: butt; stroke-dashoffset: 0; stroke-linejoin: miter; stroke-miterlimit: 4; fill: rgb(204,204,204); fill-rule: nonzero; opacity: 1;" vector-effect="non-scaling-stroke"  transform=" translate(-764.3, -371.83)" d="M 778.30246 379.826 L 750.30246 379.826 C 745.8841820013537 379.826 742.30246 376.2442779986464 742.30246 371.826 C 742.30246 367.40772200135365 745.8841820013537 363.826 750.30246 363.826 L 778.30246 363.826 C 782.7207379986463 363.826 786.30246 367.40772200135365 786.30246 371.826 C 786.30246 376.24427799864634 782.7207379986463 379.826 778.30246 379.826 Z" stroke-linecap="round" />
</g>
<g transform="matrix(0.58 0 0 0.63 924.59 241.69)" id="whGTcyhUHpIWbCGrd3AER"  >
<path style="stroke: none; stroke-width: 1; stroke-dasharray: none; stroke-linecap: butt; stroke-dashoffset: 0; stroke-linejoin: miter; stroke-miterlimit: 4; fill: rgb(204,204,204); fill-rule: nonzero; opacity: 1;" vector-effect="non-scaling-stroke"  transform=" translate(-780.8, -398.83)" d="M 811.30246 406.826 L 750.30246 406.826 C 745.8841820013537 406.826 742.30246 403.2442779986464 742.30246 398.826 C 742.30246 394.40772200135365 745.8841820013537 390.826 750.30246 390.826 L 811.30246 390.826 C 815.7207379986463 390.826 819.30246 394.40772200135365 819.30246 398.826 C 819.30246 403.24427799864634 815.7207379986463 406.826 811.30246 406.826 Z" stroke-linecap="round" />
</g>
<g transform="matrix(0.58 0 0 0.63 662.17 233.87)" id="yV8vflMctzJOwH3mEclWp"  >
<path style="stroke: none; stroke-width: 1; stroke-dasharray: none; stroke-linecap: butt; stroke-dashoffset: 0; stroke-linejoin: miter; stroke-miterlimit: 4; fill: rgb(40,88,235); fill-rule: nonzero; opacity: 1;" vector-effect="non-scaling-stroke"  transform=" translate(-30, -30)" d="M 0 30 C 0 13.431460000000001 13.43146 0 30 0 C 46.56854 0 60 13.43146 60 30 C 60 46.56854 46.56854 60 30 60 C 13.431460000000001 60 0 46.56854 0 30 z" stroke-linecap="round" />
</g>
<g transform="matrix(0.58 0 0 0.63 662.17 233.87)" id="M9maKnI0Z-mylM7RRV-PN"  >
<path style="stroke: none; stroke-width: 1; stroke-dasharray: none; stroke-linecap: butt; stroke-dashoffset: 0; stroke-linejoin: miter; stroke-miterlimit: 4; fill: rgb(255,255,255); fill-rule: nonzero; opacity: 1;" vector-effect="non-scaling-stroke"  transform=" translate(-327.9, -386.33)" d="M 341.90088 399.82617 L 313.90088 399.82617 C 312.2447751071271 399.8243622883468 310.9026877116532 398.48227489287285 310.90088 396.82617 L 310.90088 375.82617 C 310.9026877116532 374.17006510712713 312.2447751071271 372.8279777116532 313.90088 372.82617 L 321.78319999999997 372.82617 C 322.8259199586082 372.8223149507885 323.7948725062897 373.3635439537075 324.33838 374.25342 L 326.53661999999997 377.82617 L 341.90088 377.82617 C 343.55698489287283 377.8279777116532 344.89907228834676 379.17006510712713 344.90088 380.82617 L 344.90088 396.82617 C 344.89907228834676 398.48227489287285 343.55698489287283 399.8243622883468 341.90088 399.82617 Z M 313.90088 374.82617 C 313.3488921773285 374.8268861885075 312.9015961885075 375.2741821773285 312.90088 375.82617 L 312.90088 396.82617 C 312.9015961885075 397.3781578226715 313.3488921773285 397.8254538114925 313.90088 397.82617 L 341.90088 397.82617 C 342.45286782267146 397.8254538114925 342.90016381149246 397.3781578226715 342.90088 396.82617 L 342.90088 380.82617 C 342.90016381149246 380.2741821773285 342.45286782267146 379.8268861885075 341.90088 379.82617 L 325.41943 379.82617 L 322.63525 375.30176 C 322.4539360600425 375.0051697530797 322.1308686554007 374.8248321627351 321.78325 374.82617 Z" stroke-linecap="round" />
</g>
<g transform="matrix(0.58 0 0 0.63 768.78 237)" id="iQ0EZoOqcVip4_m4cwPF8"  >
<path style="stroke: none; stroke-width: 1; stroke-dasharray: none; stroke-linecap: butt; stroke-dashoffset: 0; stroke-linejoin: miter; stroke-miterlimit: 4; fill: rgb(40,88,235); fill-rule: nonzero; opacity: 1;" vector-effect="non-scaling-stroke"  transform=" translate(-30, -30)" d="M 0 30 C 0 13.431460000000001 13.43146 0 30 0 C 46.56854 0 60 13.43146 60 30 C 60 46.56854 46.56854 60 30 60 C 13.431460000000001 60 0 46.56854 0 30 z" stroke-linecap="round" />
</g>
<g transform="matrix(0.58 0 0 0.63 768.78 237)" id="Znw1bcYslSRYPNdgE9yGq"  >
<path style="stroke: none; stroke-width: 1; stroke-dasharray: none; stroke-linecap: butt; stroke-dashoffset: 0; stroke-linejoin: miter; stroke-miterlimit: 4; fill: rgb(255,255,255); fill-rule: nonzero; opacity: 1;" vector-effect="non-scaling-stroke"  transform=" translate(-511.9, -391.33)" d="M 524.90088 410.32617 L 498.90088000000003 410.32617 C 497.24477510712717 410.3243622883468 495.90268771165324 408.98227489287285 495.90088000000003 407.32617 L 495.90088000000003 375.32617 C 495.90268771165324 373.67006510712713 497.24477510712717 372.3279777116532 498.90088000000003 372.32617 L 517.74023 372.32617 C 518.4236765497444 372.3267479420405 519.0865424267355 372.5601018430381 519.61963 372.98779 L 526.77979 378.74170000000004 C 527.4903034001894 379.3095917821121 527.9030514706011 380.17050556502807 527.90088 381.08008 L 527.90088 407.32617 C 527.8990722883468 408.98227489287285 526.556984892873 410.3243622883468 524.90088 410.32617 Z M 498.90088000000003 374.32617 C 498.34889217732854 374.3268861885075 497.90159618850754 374.7741821773285 497.90088000000003 375.32617 L 497.90088000000003 407.32617 C 497.90159618850754 407.8781578226715 498.34889217732854 408.3254538114925 498.90088000000003 408.32617 L 524.90088 408.32617 C 525.4528678226715 408.3254538114925 525.9001638114926 407.8781578226715 525.90088 407.32617 L 525.90088 381.08008 C 525.9016268785134 380.7769634072775 525.7641022739676 380.49005190028345 525.52734 380.30078000000003 L 518.36621 374.54639000000003 C 518.1886113449686 374.4040153297143 517.9678320496265 374.32634757185446 517.74021 374.32617000000005 Z" stroke-linecap="round" />
</g>
<g transform="matrix(0.58 0 0 0.63 768.78 233.25)" id="A4MQ6ieciqozOxvRmefZk"  >
<path style="stroke: none; stroke-width: 1; stroke-dasharray: none; stroke-linecap: butt; stroke-dashoffset: 0; stroke-linejoin: miter; stroke-miterlimit: 4; fill: rgb(255,255,255); fill-rule: nonzero; opacity: 1;" vector-effect="non-scaling-stroke"  transform=" translate(-511.9, -385.33)" d="M 519.90088 386.32617 L 503.90088000000003 386.32617 C 503.34859525016924 386.32617 502.90088000000003 385.8784547498308 502.90088000000003 385.32617 C 502.90088000000003 384.7738852501692 503.34859525016924 384.32617 503.90088000000003 384.32617 L 519.90088 384.32617 C 520.4531647498309 384.32617 520.90088 384.7738852501692 520.90088 385.32617 C 520.90088 385.8784547498308 520.4531647498309 386.32617 519.90088 386.32617 Z" stroke-linecap="round" />
</g>
<g transform="matrix(0.58 0 0 0.63 768.78 237)" id="MEBTcCSlUYWQNEuwV-_IJ"  >
<path style="stroke: none; stroke-width: 1; stroke-dasharray: none; stroke-linecap: butt; stroke-dashoffset: 0; stroke-linejoin: miter; stroke-miterlimit: 4; fill: rgb(255,255,255); fill-rule: nonzero; opacity: 1;" vector-effect="non-scaling-stroke"  transform=" translate(-511.9, -391.33)" d="M 519.90088 392.32617 L 503.90088000000003 392.32617 C 503.34859525016924 392.32617 502.90088000000003 391.8784547498308 502.90088000000003 391.32617 C 502.90088000000003 390.7738852501692 503.34859525016924 390.32617 503.90088000000003 390.32617 L 519.90088 390.32617 C 520.4531647498309 390.32617 520.90088 390.7738852501692 520.90088 391.32617 C 520.90088 391.8784547498308 520.4531647498309 392.32617 519.90088 392.32617 Z" stroke-linecap="round" />
</g>
<g transform="matrix(0.58 0 0 0.63 768.78 240.75)" id="Km7DrUCdq6-qtw13RI2h7"  >
<path style="stroke: none; stroke-width: 1; stroke-dasharray: none; stroke-linecap: butt; stroke-dashoffset: 0; stroke-linejoin: miter; stroke-miterlimit: 4; fill: rgb(255,255,255); fill-rule: nonzero; opacity: 1;" vector-effect="non-scaling-stroke"  transform=" translate(-511.9, -397.33)" d="M 519.90088 398.32617 L 503.90088000000003 398.32617 C 503.34859525016924 398.32617 502.90088000000003 397.8784547498308 502.90088000000003 397.32617 C 502.90088000000003 396.7738852501692 503.34859525016924 396.32617 503.90088000000003 396.32617 L 519.90088 396.32617 C 520.4531647498309 396.32617 520.90088 396.7738852501692 520.90088 397.32617 C 520.90088 397.8784547498308 520.4531647498309 398.32617 519.90088 398.32617 Z" stroke-linecap="round" />
</g>
<g transform="matrix(0.58 0 0 0.63 875.97 233.25)" id="OXRv_leS1EevDqbGyNLSw"  >
<path style="stroke: none; stroke-width: 1; stroke-dasharray: none; stroke-linecap: butt; stroke-dashoffset: 0; stroke-linejoin: miter; stroke-miterlimit: 4; fill: rgb(40,88,235); fill-rule: nonzero; opacity: 1;" vector-effect="non-scaling-stroke"  transform=" translate(-30, -30)" d="M 0 30 C 0 13.431460000000001 13.43146 0 30 0 C 46.56854 0 60 13.43146 60 30 C 60 46.56854 46.56854 60 30 60 C 13.431460000000001 60 0 46.56854 0 30 z" stroke-linecap="round" />
</g>
<g transform="matrix(0.58 0 0 0.63 875.97 233.25)" id="1qg5gHu_-U0S9dOtBGyYE"  >
<path style="stroke: none; stroke-width: 1; stroke-dasharray: none; stroke-linecap: butt; stroke-dashoffset: 0; stroke-linejoin: miter; stroke-miterlimit: 4; fill: rgb(255,255,255); fill-rule: nonzero; opacity: 1;" vector-effect="non-scaling-stroke"  transform=" translate(-696.9, -385.33)" d="M 710.90039 396.32617 L 682.90039 396.32617 C 681.2442851071271 396.3243622883468 679.9021977116532 394.98227489287285 679.90039 393.32617 L 679.90039 377.32617 C 679.9021977116532 375.67006510712713 681.2442851071271 374.3279777116532 682.90039 374.32617 L 710.90039 374.32617 C 712.5564948928729 374.3279777116532 713.8985822883468 375.67006510712713 713.90039 377.32617 L 713.90039 393.32617 C 713.8985822883468 394.98227489287285 712.5564948928729 396.3243622883468 710.90039 396.32617 Z M 682.90039 376.32617 C 682.3483337382504 376.3267212298297 681.9009412298296 376.7741137382504 681.90039 377.32617 L 681.90039 393.32617 C 681.9009412298296 393.8782262617496 682.3483337382504 394.3256187701703 682.90039 394.32617 L 710.90039 394.32617 C 711.4524462617496 394.3256187701703 711.8998387701704 393.8782262617496 711.90039 393.32617 L 711.90039 377.32617 C 711.8998387701704 376.7741137382504 711.4524462617496 376.3267212298297 710.90039 376.32617 Z" stroke-linecap="round" />
</g>
<g transform="matrix(0.58 0 0 0.63 875.97 231.26)" id="LxMWUOqNiQkS5GPUMiBbQ"  >
<path style="stroke: none; stroke-width: 1; stroke-dasharray: none; stroke-linecap: butt; stroke-dashoffset: 0; stroke-linejoin: miter; stroke-miterlimit: 4; fill: rgb(255,255,255); fill-rule: nonzero; opacity: 1;" vector-effect="non-scaling-stroke"  transform=" translate(-696.9, -382.15)" d="M 696.90039 387.96436 C 696.3385377834759 387.96515397649307 695.7877278095153 387.8083340281879 695.31055 387.51172 L 680.37012 378.17432 C 679.9029271530476 377.880947925207 679.7614550468243 377.2647134737333 680.0539090371603 376.7969453751541 C 680.3463630274964 376.32917727657485 680.9623184539269 376.18649522208545 681.43066 376.47803000000005 L 696.37109 385.81543000000005 C 696.6956343053529 386.01660030489046 697.1061156946471 386.01660030489046 697.43066 385.81543000000005 L 712.37012 376.47803000000005 C 712.8384615460732 376.18649522208545 713.4544169725036 376.32917727657485 713.7468709628397 376.7969453751541 C 714.0393249531758 377.2647134737333 713.8978528469524 377.880947925207 713.43066 378.17432 L 698.49121 387.51172 C 698.0137308340678 387.80846835600806 697.4625688615229 387.9652918528542 696.90039 387.96436 Z" stroke-linecap="round" />
</g>
<g transform="matrix(0.58 0 0 0.63 662.17 307.7)" id="XjRdl3sRKR3CmX1fxzvKc"  >
<path style="stroke: none; stroke-width: 1; stroke-dasharray: none; stroke-linecap: butt; stroke-dashoffset: 0; stroke-linejoin: miter; stroke-miterlimit: 4; fill: rgb(40,88,235); fill-rule: nonzero; opacity: 1;" vector-effect="non-scaling-stroke"  transform=" translate(-30, -30)" d="M 0 30 C 0 13.431460000000001 13.43146 0 30 0 C 46.56854 0 60 13.43146 60 30 C 60 46.56854 46.56854 60 30 60 C 13.431460000000001 60 0 46.56854 0 30 z" stroke-linecap="round" />
</g>
<g transform="matrix(0.58 0 0 0.63 662.17 307.7)" id="iKTxOXZkvdJJtWbBzp_Rt"  >
<path style="stroke: none; stroke-width: 1; stroke-dasharray: none; stroke-linecap: butt; stroke-dashoffset: 0; stroke-linejoin: miter; stroke-miterlimit: 4; fill: rgb(255,255,255); fill-rule: nonzero; opacity: 1;" vector-effect="non-scaling-stroke"  transform=" translate(-327.9, -504.33)" d="M 341.90088 515.32617 L 313.90088 515.32617 C 312.2447751071271 515.3243622883468 310.9026877116532 513.982274892873 310.90088 512.32617 L 310.90088 496.32617000000005 C 310.9026877116532 494.6700651071272 312.2447751071271 493.32797771165326 313.90088 493.32617000000005 L 341.90088 493.32617000000005 C 343.55698489287283 493.32797771165326 344.89907228834676 494.6700651071272 344.90088 496.32617000000005 L 344.90088 512.32617 C 344.89907228834676 513.982274892873 343.55698489287283 515.3243622883468 341.90088 515.32617 Z M 313.90088 495.32617000000005 C 313.34882373825036 495.32672122982973 312.90143122982965 495.77411373825043 312.90088 496.32617000000005 L 312.90088 512.32617 C 312.90143122982965 512.8782262617497 313.34882373825036 513.3256187701704 313.90088 513.32617 L 341.90088 513.32617 C 342.4529362617496 513.3256187701704 342.9003287701703 512.8782262617497 342.90088 512.32617 L 342.90088 496.32617000000005 C 342.9003287701703 495.77411373825043 342.4529362617496 495.32672122982973 341.90088 495.32617000000005 Z" stroke-linecap="round" />
</g>
<g transform="matrix(0.58 0 0 0.63 661.88 310.05)" id="84H99acmVI143LtXAXbay"  >
<path style="stroke: none; stroke-width: 1; stroke-dasharray: none; stroke-linecap: butt; stroke-dashoffset: 0; stroke-linejoin: miter; stroke-miterlimit: 4; fill: rgb(255,255,255); fill-rule: nonzero; opacity: 1;" vector-effect="non-scaling-stroke"  transform=" translate(-327.4, -508.08)" d="M 337.46289 515.32617 L 317.33889 515.32617 C 316.6242687268808 515.3263904575113 315.9638518746633 514.9452222271473 315.6065583656652 514.3263321229899 C 315.24926485666714 513.7074420188327 315.2494141594389 512.9449201396448 315.60695 512.32617 L 321.66848 501.82617000000005 C 322.0258022332701 501.2073645197902 322.68609261593065 500.8261748836012 323.40065500000003 500.8261748836012 C 324.11521738406935 500.8261748836012 324.7755077667299 501.2073645197902 325.13283 501.82617000000005 L 329.04783000000003 508.60742000000005 L 331.31590000000006 504.67871 C 331.67322223327017 504.05990451979017 332.3335126159307 503.6787148836012 333.04807500000004 503.6787148836012 C 333.7626373840694 503.6787148836012 334.42292776672997 504.05990451979017 334.7802500000001 504.67871 L 339.1952500000001 512.32617 C 339.55254858249896 512.94502927024 339.55251340440674 513.7075035879037 339.1951577191098 514.3263298863134 C 338.8378020338128 514.945156184723 338.17742712846825 515.3263019189579 337.4628300000001 515.32617 Z M 337.46289 513.32617 L 337.46289 513.32617 L 333.04789 505.67871 L 329.9141 511.10742000000005 C 329.7354568968585 511.4169008622282 329.40522982844385 511.6075169186202 329.04789 511.60742000000005 L 329.04789 511.60742000000005 C 328.69055017155614 511.6075169186202 328.36032310314147 511.4169008622282 328.18168 511.10742000000005 L 323.40092 502.82617000000005 L 317.33892 513.32617 Z" stroke-linecap="round" />
</g>
<g transform="matrix(0.58 0 0 0.63 668.54 304.57)" id="jbbtlELSHJBdRhkbOc_wg"  >
<path style="stroke: none; stroke-width: 1; stroke-dasharray: none; stroke-linecap: butt; stroke-dashoffset: 0; stroke-linejoin: miter; stroke-miterlimit: 4; fill: rgb(255,255,255); fill-rule: nonzero; opacity: 1;" vector-effect="non-scaling-stroke"  transform=" translate(-2, -2)" d="M 0 2 C 0 0.89543 0.89543 0 2 0 C 3.10457 0 4 0.89543 4 2 C 4 3.10457 3.10457 4 2 4 C 0.89543 4 0 3.10457 0 2 z" stroke-linecap="round" />
</g>
<g transform="matrix(0.58 0 0 0.63 769.94 305.82)" id="Ae4Ayc5axbSg0dI3dHTa3"  >
<path style="stroke: none; stroke-width: 1; stroke-dasharray: none; stroke-linecap: butt; stroke-dashoffset: 0; stroke-linejoin: miter; stroke-miterlimit: 4; fill: rgb(40,88,235); fill-rule: nonzero; opacity: 1;" vector-effect="non-scaling-stroke"  transform=" translate(-30, -30)" d="M 0 30 C 0 13.431460000000001 13.43146 0 30 0 C 46.56854 0 60 13.43146 60 30 C 60 46.56854 46.56854 60 30 60 C 13.431460000000001 60 0 46.56854 0 30 z" stroke-linecap="round" />
</g>
<g transform="matrix(0.58 0 0 0.63 769.94 300.5)" id="OeLFeIrZBXQx1UPT4AgXD"  >
<path style="stroke: none; stroke-width: 1; stroke-dasharray: none; stroke-linecap: butt; stroke-dashoffset: 0; stroke-linejoin: miter; stroke-miterlimit: 4; fill: rgb(255,255,255); fill-rule: nonzero; opacity: 1;" vector-effect="non-scaling-stroke"  transform=" translate(-513.9, -492.83)" d="M 513.90088 501.82617 C 508.93031725152287 501.82617 504.90088000000003 497.79673274847715 504.90088000000003 492.82617 C 504.90088000000003 487.8556072515228 508.93031725152287 483.82617 513.90088 483.82617 C 518.8714427484772 483.82617 522.90088 487.8556072515228 522.90088 492.82617 C 522.8952808830122 497.794411670098 518.869121670098 501.8205708830122 513.90088 501.82617 Z M 513.90088 485.82617 C 510.0348867511845 485.82617 506.90088000000003 488.96017675118446 506.90088000000003 492.82617 C 506.90088000000003 496.6921632488155 510.0348867511845 499.82617 513.90088 499.82617 C 517.7668732488156 499.82617 520.90088 496.6921632488155 520.90088 492.82617 C 520.8963723909887 488.9620454040765 517.7650045959235 485.8306776090113 513.90088 485.82617 Z" stroke-linecap="round" />
</g>
<g transform="matrix(0.58 0 0 0.63 769.94 312.08)" id="XqocRbkKL2I3AS2XlKRXy"  >
<path style="stroke: none; stroke-width: 1; stroke-dasharray: none; stroke-linecap: butt; stroke-dashoffset: 0; stroke-linejoin: miter; stroke-miterlimit: 4; fill: rgb(255,255,255); fill-rule: nonzero; opacity: 1;" vector-effect="non-scaling-stroke"  transform=" translate(-513.9, -511.33)" d="M 521.90088 518.82617 L 505.90088000000003 518.82617 C 503.96885191827874 518.8238337287539 502.4032162712462 517.2581980817214 502.40088000000003 515.32617 C 502.40088000000003 508.97489537694594 507.5496053769459 503.82617000000005 513.90088 503.82617000000005 C 520.2521546230541 503.82617000000005 525.40088 508.97489537694594 525.40088 515.32617 C 525.3985437287539 517.2581980817214 523.8329080817214 518.8238337287539 521.90088 518.82617 Z M 513.90088 505.82617000000005 C 508.65664442237687 505.8321272257918 504.4068372257918 510.0819344223769 504.40088000000003 515.32617 C 504.40178385582664 516.1542224464365 505.07282755356357 516.8252661441735 505.90088000000003 516.82617 L 521.90088 516.82617 C 522.7289324464365 516.8252661441735 523.3999761441735 516.1542224464365 523.40088 515.32617 C 523.3949227742083 510.08193442237683 519.1451155776232 505.83212722579174 513.90088 505.82617 Z" stroke-linecap="round" />
</g>
<g transform="matrix(0.58 0 0 0.63 607.39 402.74)" id="kneslnKbaLkFRW8OEsn-5"  >
<path style="stroke: none; stroke-width: 1; stroke-dasharray: none; stroke-linecap: butt; stroke-dashoffset: 0; stroke-linejoin: miter; stroke-miterlimit: 4; fill: rgb(255,184,184); fill-rule: nonzero; opacity: 1;" vector-effect="non-scaling-stroke"  transform=" translate(-89.98, -447.55)" d="M 80.937 471.198 L 93.197 471.198 L 99.029 423.90999999999997 L 80.935 423.91099999999994 z" stroke-linecap="round" />
</g>
<g transform="matrix(-0.58 0 0 -0.63 611.8 419.99)" id="lkebn52V9W5c8q8JjSpUN"  >
<path style="stroke: none; stroke-width: 1; stroke-dasharray: none; stroke-linecap: butt; stroke-dashoffset: 0; stroke-linejoin: miter; stroke-miterlimit: 4; fill: rgb(47,46,65); fill-rule: nonzero; opacity: 1;" vector-effect="non-scaling-stroke"  transform=" translate(-240.97, -683.81)" d="M 221.70288 676.36888 L 260.23361 676.36888 L 260.23361 691.25575 L 236.58973 691.25575 C 228.36794424913398 691.25575 221.70287000000002 684.5906757508661 221.70287 676.3688900000001 L 221.70287 676.3688900000001 Z" stroke-linecap="round" />
</g>
<g transform="matrix(0.58 0 0 0.63 580.74 402.74)" id="KFPJPS0Sov3rAxUc0VDjp"  >
<path style="stroke: none; stroke-width: 1; stroke-dasharray: none; stroke-linecap: butt; stroke-dashoffset: 0; stroke-linejoin: miter; stroke-miterlimit: 4; fill: rgb(255,184,184); fill-rule: nonzero; opacity: 1;" vector-effect="non-scaling-stroke"  transform=" translate(-43.98, -447.55)" d="M 34.937 471.198 L 47.196999999999996 471.198 L 53.028999999999996 423.90999999999997 L 34.934999999999995 423.91099999999994 z" stroke-linecap="round" />
</g>
<g transform="matrix(-0.58 0 0 -0.63 585.14 419.99)" id="h3_YHVWy3owUIjgRwTVkg"  >
<path style="stroke: none; stroke-width: 1; stroke-dasharray: none; stroke-linecap: butt; stroke-dashoffset: 0; stroke-linejoin: miter; stroke-miterlimit: 4; fill: rgb(47,46,65); fill-rule: nonzero; opacity: 1;" vector-effect="non-scaling-stroke"  transform=" translate(-194.97, -683.81)" d="M 175.70288 676.36888 L 214.23361 676.36888 L 214.23361 691.25575 L 190.58973 691.25575 C 182.36794424913398 691.25575 175.70287000000002 684.5906757508661 175.70287 676.3688900000001 L 175.70287 676.3688900000001 Z" stroke-linecap="round" />
</g>
<g transform="matrix(0.58 0 0 0.63 574.46 289.01)" id="o2aWgCU4mPAhOLClGytnz"  >
<path style="stroke: none; stroke-width: 1; stroke-dasharray: none; stroke-linecap: butt; stroke-dashoffset: 0; stroke-linejoin: miter; stroke-miterlimit: 4; fill: rgb(255,184,184); fill-rule: nonzero; opacity: 1;" vector-effect="non-scaling-stroke"  transform=" translate(-176.54, -474.46)" d="M 179.8272 539.03387 C 182.50103047113322 537.3139496872637 184.2757155458868 534.4980299525056 184.67372623476754 531.3438132887268 C 185.07173692364827 528.189596624948 184.05218880216322 525.0210902425764 181.88942 522.69087 L 189.96192 408.13303 L 166.70891999999998 410.38812 L 166.07023999999998 522.5747700000001 C 162.3139385001382 526.5549649030172 162.12826881597366 532.7156246173458 165.638060681597 536.9148047139685 C 169.1478525472204 541.1139848105911 175.24370288160776 542.0243748633266 179.82724 539.0339 Z" stroke-linecap="round" />
</g>
<g transform="matrix(0.58 0 0 0.63 593.07 356.89)" id="4yzrBBJv4Zkk2evUos9Qe"  >
<path style="stroke: none; stroke-width: 1; stroke-dasharray: none; stroke-linecap: butt; stroke-dashoffset: 0; stroke-linejoin: miter; stroke-miterlimit: 4; fill: rgb(47,46,65); fill-rule: nonzero; opacity: 1;" vector-effect="non-scaling-stroke"  transform=" translate(-208.66, -582.96)" d="M 224.69537 656.05548 C 222.41939742711358 656.0481303069505 220.50437588268352 654.3486325186805 220.22662 652.08966 L 213.1004 592.48712 C 212.89303150839845 590.7516785567333 211.43718466115507 589.4352237377506 209.6896953480912 589.4029778846161 C 207.9422060350273 589.3707320314817 206.43878259593868 590.6325803963219 206.16753 592.35919 L 197.19053 649.42657 C 196.85464783731828 651.6196331519275 194.96383732525732 653.2362931324533 192.74522 653.22735 L 178.19521999999998 653.22735 C 176.99583895222023 653.227258390545 175.84610951773868 652.7484232422838 175.0012337633152 651.8971301871301 C 174.15635800889177 651.0458371319763 173.68623623808534 649.892517405128 173.69521999999998 648.69317 L 180.63946 522.159 C 180.6447767659381 519.9319112376851 182.2873849587263 518.0478634984892 184.49297 517.73908 L 238.48663000000002 509.90118999999993 C 239.7848491992474 509.7130764822995 241.10053851880056 510.1006608368905 242.0894465932863 510.96253124771397 C 243.07835466777206 511.8244016585374 243.64207513608093 513.0747932976328 243.63311000000002 514.38654 L 242.69122000000002 650.94318 C 242.6747180258706 653.3330335786576 240.79256055819067 655.2929209628261 238.40533000000002 655.40607 L 224.90899000000002 656.04963 Q 224.8017 656.05547 224.69537 656.05548 Z" stroke-linecap="round" />
</g>
<g transform="matrix(0.58 0 0 0.63 591.42 276.92)" id="A3lbuhIIrv5m4_vqEk560"  >
<path style="stroke: none; stroke-width: 1; stroke-dasharray: none; stroke-linecap: butt; stroke-dashoffset: 0; stroke-linejoin: miter; stroke-miterlimit: 4; fill: rgb(63,61,86); fill-rule: nonzero; opacity: 1;" vector-effect="non-scaling-stroke"  transform=" translate(-205.81, -455.14)" d="M 196.70269 526.93927 C 191.509152760791 526.9193454282996 186.3581079630089 526.0022083405942 181.47686 524.2283299999999 C 179.7847879306016 523.6049956395088 178.63368122301054 522.0251312697017 178.55885999999998 520.22345 C 178.09303999999997 509.88652999999994 175.36793999999998 456.67949999999996 167.43435 424.22444999999993 C 164.28115883872886 411.20580543765897 169.26571454049397 397.5681170190979 180.07081999999997 389.65120999999994 Q 180.71096 389.19120999999996 181.376 388.7478899999999 C 190.70574682307884 382.53704700380234 202.5879820643471 381.6056568784422 212.77150999999998 386.28694999999993 C 223.29191382797129 390.99428661942187 230.62051838367572 400.81835726630936 232.13503 412.2439499999999 L 245.07253 508.29472999999996 C 245.24045721950617 509.5081564820014 244.90394227942085 510.7374018471499 244.14138 511.69609999999994 C 243.39544794071932 512.6481731765074 242.29180714576916 513.2528051210925 241.08791 513.3689499999999 C 236.605 513.8162199999999 227.3074 515.5535199999999 215.40798 522.1648499999999 C 209.6857467225188 525.3347303018835 203.24413655873147 526.9789150431085 196.70269 526.93927 Z" stroke-linecap="round" />
</g>
<g transform="matrix(0.58 0 0 0.63 571.99 257.05)" id="GGgi_f9eir8yr27Q1X6hd"  >
<path style="stroke: none; stroke-width: 1; stroke-dasharray: none; stroke-linecap: butt; stroke-dashoffset: 0; stroke-linejoin: miter; stroke-miterlimit: 4; fill: rgb(63,61,86); fill-rule: nonzero; opacity: 1;" vector-effect="non-scaling-stroke"  transform=" translate(-172.28, -423.37)" d="M 180.886 447.32061 L 159.59536 441.54805 C 157.19853169729632 440.89529661390304 155.7823907100249 438.42557081751676 156.42975 436.02727999999996 L 163.91431 408.42238 C 165.57460356014482 402.29810896500567 171.5908301755437 398.4157622881501 177.85520543572832 399.4261448966282 C 184.11958069591296 400.43652750510637 188.61010959481845 406.0135113328774 188.26073 412.34922 L 186.55688 443.22536 C 186.48224041123154 444.5812171485474 185.79927844246637 445.8308505206704 184.6984134550328 446.6258448319215 C 183.59754846759924 447.42083914317254 182.1965367539114 447.6761561884567 180.886 447.32061000000004 Z" stroke-linecap="round" />
</g>
<g transform="matrix(0.58 0 0 0.63 590.72 210.32)" id="bC9zNrvTqD8-QWDwOTzHv"  >
<path style="stroke: none; stroke-width: 1; stroke-dasharray: none; stroke-linecap: butt; stroke-dashoffset: 0; stroke-linejoin: miter; stroke-miterlimit: 4; fill: rgb(255,184,184); fill-rule: nonzero; opacity: 1;" vector-effect="non-scaling-stroke"  transform=" translate(-24.56, -24.56)" d="M 0 24.56103 C 0 10.99635 10.99635 0 24.56103 0 C 38.12571 0 49.12206 10.99635 49.12206 24.56103 C 49.12206 38.12571 38.12571 49.12206 24.56103 49.12206 C 10.99635 49.12206 0 38.12571 0 24.56103 z" stroke-linecap="round" />
</g>
<g transform="matrix(0.58 0 0 0.63 629.52 253.9)" id="rD1fSUae7ahclwlK4HAwN"  >
<path style="stroke: none; stroke-width: 1; stroke-dasharray: none; stroke-linecap: butt; stroke-dashoffset: 0; stroke-linejoin: miter; stroke-miterlimit: 4; fill: rgb(255,184,184); fill-rule: nonzero; opacity: 1;" vector-effect="non-scaling-stroke"  transform=" translate(-271.56, -418.34)" d="M 293.59007 396.93867 C 293.46731871786176 397.47824017658394 293.387307382867 398.02665001763444 293.35078000000004 398.5788 L 250.39333000000005 423.3608 L 239.95191000000005 417.34986 L 228.82075000000006 431.92213999999996 L 251.15789000000007 447.8427 L 300.1658 409.18 C 304.25838159374484 410.69442204265016 308.8610593199744 409.5185619280047 311.72577460774295 406.226738034667 C 314.5904898955115 402.9349141413293 315.1195249953631 398.2139596696288 313.05448643260917 394.36970239948374 C 310.9894478698552 390.5254451293387 306.76120226762544 388.3599825025617 302.43492653630557 388.9309785807589 C 298.1086508049857 389.50197465895616 294.5870146809685 392.69029212601623 293.59006999999997 396.93868000000003 Z" stroke-linecap="round" />
</g>
<g transform="matrix(0.58 0 0 0.63 603.53 251.62)" id="TbH86blWQHztPZWfYKut_"  >
<path style="stroke: none; stroke-width: 1; stroke-dasharray: none; stroke-linecap: butt; stroke-dashoffset: 0; stroke-linejoin: miter; stroke-miterlimit: 4; fill: rgb(63,61,86); fill-rule: nonzero; opacity: 1;" vector-effect="non-scaling-stroke"  transform=" translate(-226.71, -414.69)" d="M 246.83315 424.5566 L 228.32885 436.56514 C 226.24354021290895 437.91507890494125 223.45901859041106 437.3222898888181 222.10438 435.24003 L 206.53438 411.24782999999996 C 203.0799292666875 405.9251826719208 204.20166702411618 398.8534006275042 209.13368157507514 394.86102828551 C 214.06569612603408 390.8686559435158 221.2160281234595 391.24435423572515 225.7025 395.7316 L 247.5659 417.60009 C 248.52610073636677 418.56026224268714 249.00132788849268 419.90271328453287 248.85908223252687 421.2531511257921 C 248.71683657656104 422.6035889670514 247.97233361244088 423.8175621884556 246.83315 424.5566 Z" stroke-linecap="round" />
</g>
<g transform="matrix(0.58 0 0 0.63 590.47 206.1)" id="Gtv0MIiJZlKPRUqoKlEIA"  >
<path style="stroke: none; stroke-width: 1; stroke-dasharray: none; stroke-linecap: butt; stroke-dashoffset: 0; stroke-linejoin: miter; stroke-miterlimit: 4; fill: rgb(47,46,65); fill-rule: nonzero; opacity: 1;" vector-effect="non-scaling-stroke"  transform=" translate(-204.18, -341.94)" d="M 187.20575 368.11561 C 191.78775 372.99639 200.29707 370.37628 200.89409999999998 363.70844 C 200.94092264254994 363.19076100040263 200.93753015948332 362.66976535314586 200.88396999999998 362.15274 C 200.57569999999998 359.19917 198.86935999999997 356.51774 199.27808999999996 353.39914 C 199.37061149288857 352.622995098962 199.65978188130964 351.8833286988693 200.11819999999997 351.25023 C 203.76943999999997 346.36089 212.34046999999998 353.4371 215.7864 349.01093 C 217.89939999999999 346.29693 215.41559999999998 342.02380999999997 217.03706 338.99042999999995 C 219.17711 334.98684999999995 225.51587 336.96182999999996 229.49093 334.76926999999995 C 233.91368 332.32978999999995 233.64915 325.54402999999996 230.73779 321.41657999999995 C 227.18726999999998 316.38298999999995 220.96206999999998 313.69706999999994 214.81444 313.30996999999996 C 208.66681 312.92287 202.56152 314.58471999999995 196.82214 316.82142 C 190.30105999999998 319.36276 183.83445999999998 322.87493 179.82147999999998 328.60893999999996 C 174.94125999999997 335.58210999999994 174.47161999999997 344.95687999999996 176.91231 353.11069 C 178.397 358.07074 183.46408 364.12993 187.20575 368.11561 Z" stroke-linecap="round" />
</g>
</svg>