<svg xmlns="http://www.w3.org/2000/svg" xmlns:xlink="http://www.w3.org/1999/xlink" width="131" height="42" viewBox="0 0 131 42"><defs><clipPath id="a"><path d="M0,0H42.83V41.838H0Z" transform="translate(0 0.162)" fill="none"/></clipPath><clipPath id="b"><path d="M0,0H12.955V18.775H0Z" transform="translate(0.043 0.03)" fill="none"/></clipPath></defs><path d="M0,0H42.83V41.838H0Z" transform="translate(0 0.162)" fill="none"/><g clip-path="url(#a)"><path d="M26.569,41.838a14.066,14.066,0,0,1-2.548-.325l-.014,0a14.339,14.339,0,0,0-2.591-.328,14.337,14.337,0,0,0-2.592.328l-.014,0a14.064,14.064,0,0,1-2.549.325,4.591,4.591,0,0,1-1.464-.216,8.371,8.371,0,0,1-3.269-2.551l-.045-.048a13.77,13.77,0,0,0-1.787-1.708,13.97,13.97,0,0,0-2.213-1.238l-.024-.012a8.388,8.388,0,0,1-3.369-2.354,8.6,8.6,0,0,1-1.157-3.947l0-.012a14.846,14.846,0,0,0-.485-2.569,13.653,13.653,0,0,0-1.061-2.274A8.643,8.643,0,0,1,0,20.92a8.643,8.643,0,0,1,1.384-3.991,13.68,13.68,0,0,0,1.061-2.273A14.832,14.832,0,0,0,2.93,12.09l0-.015A8.6,8.6,0,0,1,4.089,8.126a8.4,8.4,0,0,1,3.37-2.354l.024-.011A13.888,13.888,0,0,0,9.695,4.523,13.831,13.831,0,0,0,11.5,2.8l.032-.034A8.371,8.371,0,0,1,14.8.216,4.591,4.591,0,0,1,16.26,0a14.065,14.065,0,0,1,2.549.325,14.415,14.415,0,0,0,2.606.329A14.414,14.414,0,0,0,24.021.325,14.066,14.066,0,0,1,26.569,0a4.594,4.594,0,0,1,1.465.216A8.385,8.385,0,0,1,31.3,2.767l.009.01a13.9,13.9,0,0,0,1.823,1.746A13.886,13.886,0,0,0,35.348,5.76l.024.012a8.4,8.4,0,0,1,3.37,2.354A8.6,8.6,0,0,1,39.9,12.075v.011l0,.019a14.662,14.662,0,0,0,.483,2.55,13.64,13.64,0,0,0,1.061,2.273A8.654,8.654,0,0,1,42.83,20.92a8.644,8.644,0,0,1-1.383,3.987,13.641,13.641,0,0,0-1.063,2.277,14.672,14.672,0,0,0-.483,2.554l0,.015,0,.012a8.6,8.6,0,0,1-1.157,3.947,8.388,8.388,0,0,1-3.369,2.354l-.024.012a13.971,13.971,0,0,0-2.213,1.238,13.838,13.838,0,0,0-1.809,1.731l-.023.025a8.385,8.385,0,0,1-3.27,2.551A4.594,4.594,0,0,1,26.569,41.838ZM21.416,3.145A17.237,17.237,0,0,0,9.048,8.351a17.98,17.98,0,0,0,0,25.138,17.291,17.291,0,0,0,24.734,0,17.981,17.981,0,0,0,0-25.138A17.234,17.234,0,0,0,21.416,3.145Z" transform="translate(0 0.162)" fill="#00b1a0"/></g><path d="M12.892,17a5.129,5.129,0,0,1-2.453-.716L2.356,11.829A3.876,3.876,0,0,1,0,8.669,3.872,3.872,0,0,1,2.269,5.451L10.227.782A5.041,5.041,0,0,1,12.753,0a2.8,2.8,0,0,1,2.23,1.022A4.566,4.566,0,0,1,15.875,3.9L16,13.021a4.294,4.294,0,0,1-1.036,3.152A2.835,2.835,0,0,1,12.892,17ZM12.751,2.277a2.753,2.753,0,0,0-1.342.462L3.452,7.408c-.793.466-1.144.954-1.139,1.232s.368.757,1.173,1.2L11.568,14.3a2.965,2.965,0,0,0,1.322.426.661.661,0,0,0,.329-.07c.242-.141.482-.691.47-1.6l-.125-9.126c-.013-.909-.267-1.453-.513-1.589A.637.637,0,0,0,12.751,2.277Z" transform="translate(16 12)" fill="#00b1a0"/><path d="M3.248,17h0a2.8,2.8,0,0,1-2.23-1.022A4.565,4.565,0,0,1,.125,13.1L0,3.978A4.291,4.291,0,0,1,1.036.828,2.836,2.836,0,0,1,3.108,0,5.131,5.131,0,0,1,5.562.716l8.082,4.457A3.873,3.873,0,0,1,16,8.33a3.871,3.871,0,0,1-2.269,3.218l-7.957,4.67A5.043,5.043,0,0,1,3.248,17ZM3.111,2.277a.666.666,0,0,0-.33.07c-.242.142-.482.691-.469,1.6l.124,9.126c.013.909.267,1.453.513,1.589a.639.639,0,0,0,.3.061,2.752,2.752,0,0,0,1.341-.462l7.959-4.67c.793-.466,1.143-.954,1.138-1.231s-.368-.757-1.173-1.2L4.433,2.7A2.956,2.956,0,0,0,3.111,2.277Z" transform="translate(11 13)" fill="#00b1a0"/><path d="M14.143,19a.858.858,0,0,1-.628-.224.818.818,0,0,1-.229-.615V5.225a.336.336,0,0,0-.172-.335q-.171-.084-.286.224L9.943,13.076a1.035,1.035,0,0,1-1.029.754H7.086a1.035,1.035,0,0,1-1.029-.754L3.171,5.113q-.114-.252-.286-.252t-.171.363V18.162a.82.82,0,0,1-.229.615A.86.86,0,0,1,1.857,19h-1a.859.859,0,0,1-.629-.224A.818.818,0,0,1,0,18.162V.838A.82.82,0,0,1,.229.224.86.86,0,0,1,.857,0H3.371A.986.986,0,0,1,4,.182a1.1,1.1,0,0,1,.343.489l3.371,9.752c.057.186.147.275.271.265s.224-.1.3-.265L11.657.671A1.094,1.094,0,0,1,12,.182.983.983,0,0,1,12.629,0h2.514a.862.862,0,0,1,.629.224A.822.822,0,0,1,16,.838V18.162a.82.82,0,0,1-.229.615.861.861,0,0,1-.629.224Z" transform="translate(50 12)" fill="#00b1a0"/><path d="M13.518,19l-.075,0a1.661,1.661,0,0,1-.656-.194l-8.13-4.7a.383.383,0,0,0-.185-.055.28.28,0,0,0-.164.055.559.559,0,0,0-.21.277l-1.145,3.76A.888.888,0,0,1,2,18.8H.635a.659.659,0,0,1-.553-.195.653.653,0,0,1-.034-.58L5.636.747A1.056,1.056,0,0,1,6.013.152,1.156,1.156,0,0,1,6.641,0H8.6a1.161,1.161,0,0,1,.628.152A1.062,1.062,0,0,1,9.6.747l5.336,16.536a.872.872,0,0,1-.224,1l-.643.526A.874.874,0,0,1,13.518,19ZM7.619,3.208c-.13,0-.223.1-.279.3l-2.207,7.3a.788.788,0,0,0-.028.539.638.638,0,0,0,.279.291l5.252,3.042a.583.583,0,0,0,.291.108.2.2,0,0,0,.155-.067.341.341,0,0,0,.084-.346L7.9,3.512C7.843,3.31,7.749,3.208,7.619,3.208Z" transform="translate(68 12)" fill="#00b1a0"/><path d="M.859,19a.862.862,0,0,1-.63-.224A.817.817,0,0,1,0,18.162v-.643a1.928,1.928,0,0,1,.1-.629,2.686,2.686,0,0,1,.387-.685L9.82,2.878a.223.223,0,0,0,.014-.251.3.3,0,0,0-.272-.112H1.718a.862.862,0,0,1-.63-.224.818.818,0,0,1-.229-.615V.838A.819.819,0,0,1,1.088.224.863.863,0,0,1,1.718,0H12.855a.865.865,0,0,1,.63.224.821.821,0,0,1,.229.615v.615a1.57,1.57,0,0,1-.157.671,4.878,4.878,0,0,1-.386.671L3.894,16.038q-.143.2-.071.321c.047.084.157.126.329.126h8.99a.865.865,0,0,1,.63.224.821.821,0,0,1,.229.615v.838a.819.819,0,0,1-.229.615.863.863,0,0,1-.63.224Z" transform="translate(85 12)" fill="#00b1a0"/><path d="M10.247,19a.785.785,0,0,1-.593-.224.846.846,0,0,1-.215-.615V10.9a.243.243,0,0,0-.27-.279H2.831c-.18,0-.27.093-.27.279v7.265a.847.847,0,0,1-.216.615A.785.785,0,0,1,1.753,19H.809a.785.785,0,0,1-.593-.224A.846.846,0,0,1,0,18.162V.838A.848.848,0,0,1,.216.224.786.786,0,0,1,.809,0h.944a.786.786,0,0,1,.593.224.849.849,0,0,1,.216.615V7.823c0,.187.09.28.27.28H9.169a.243.243,0,0,0,.27-.28V.838A.848.848,0,0,1,9.654.224.786.786,0,0,1,10.247,0h.944a.786.786,0,0,1,.593.224A.849.849,0,0,1,12,.838V18.162a.847.847,0,0,1-.216.615.785.785,0,0,1-.593.224Z" transform="translate(102 12)" fill="#00b1a0"/><g transform="translate(118 12)"><path d="M0,0H12.955V18.775H0Z" transform="translate(0.043 0.03)" fill="none"/><g clip-path="url(#b)"><path d="M12.264,18.775H10.928a1.141,1.141,0,0,1-1.076-.745L6.423,11.016a.621.621,0,0,0-.61-.386H3.052c-.193,0-.291.093-.291.276v7.041a.8.8,0,0,1-.233.608.892.892,0,0,1-.639.221H.872a.893.893,0,0,1-.64-.221A.8.8,0,0,1,0,17.947V.828A.8.8,0,0,1,.232.221.9.9,0,0,1,.872,0H6.83A5.938,5.938,0,0,1,9.01.4a5.412,5.412,0,0,1,1.758,1.1,5.088,5.088,0,0,1,1.163,1.67,5.151,5.151,0,0,1,.421,2.071,5.018,5.018,0,0,1-.791,2.788,5.341,5.341,0,0,1-2,1.85c-.309.165-.377.434-.2.8l3.488,7.1a.71.71,0,0,1,.03.7A.656.656,0,0,1,12.264,18.775ZM3.081,2.485c-.193,0-.291.093-.291.276V7.869c0,.183.1.276.291.276H6.655a3.116,3.116,0,0,0,1.12-.207,2.866,2.866,0,0,0,.944-.594,2.986,2.986,0,0,0,.653-.924A2.794,2.794,0,0,0,9.62,5.246,2.607,2.607,0,0,0,9.373,4.1a2.745,2.745,0,0,0-.653-.87,2.926,2.926,0,0,0-.944-.552,3.309,3.309,0,0,0-1.12-.194Z" transform="translate(0.043 0.03)" fill="#00b1a0"/></g></g></svg>