<?xml version="1.0" encoding="UTF-8" standalone="no" ?>
<!DOCTYPE svg PUBLIC "-//W3C//DTD SVG 1.1//EN" "http://www.w3.org/Graphics/SVG/1.1/DTD/svg11.dtd">
<svg xmlns="http://www.w3.org/2000/svg" xmlns:xlink="http://www.w3.org/1999/xlink" version="1.1" width="1000" height="450" viewBox="0 0 1000 450" xml:space="preserve">
<desc>Created with Fabric.js 4.6.0</desc>
<defs>
</defs>
<g transform="matrix(0.5 0 0 0.63 199.48 350.18)" id="LCf8NU7n-jQ-FNoBBVKAr"  >
<path style="stroke: none; stroke-width: 1; stroke-dasharray: none; stroke-linecap: butt; stroke-dashoffset: 0; stroke-linejoin: miter; stroke-miterlimit: 4; fill: rgb(63,61,86); fill-rule: nonzero; opacity: 1;" vector-effect="non-scaling-stroke"  transform=" translate(-493, -643.21)" d="M 479.90234 562.18555 C 477.76990362891866 562.1882392140162 476.0419687287885 563.9163933049647 476.03954999999996 566.0488300000001 L 476.03954999999996 720.36328 C 476.0419687287885 722.4957166950354 477.76990362891866 724.2238707859839 479.90234 724.2265600000001 L 506.09814 724.2265600000001 C 508.2305779950539 724.2238707971462 509.95851576212556 722.4957183127378 509.96094 720.36328 L 509.96094 566.04883 C 509.95851576212556 563.9163916872621 508.2305779950539 562.1882392028538 506.09814 562.1855499999999 Z" stroke-linecap="round" />
</g>
<g transform="matrix(0.5 0 0 0.63 307.75 350.18)" id="tk8LXRvcYyJhsyaPfWMU0"  >
<path style="stroke: none; stroke-width: 1; stroke-dasharray: none; stroke-linecap: butt; stroke-dashoffset: 0; stroke-linejoin: miter; stroke-miterlimit: 4; fill: rgb(63,61,86); fill-rule: nonzero; opacity: 1;" vector-effect="non-scaling-stroke"  transform=" translate(-710.84, -643.21)" d="M 697.74121 562.18555 C 695.6086780748803 562.1882001753487 693.8805801753487 563.9162980748804 693.87793 566.0488300000001 L 693.87793 720.36328 C 693.8805801753487 722.4958119251197 695.6086780748803 724.2239098246514 697.74121 724.2265600000001 L 723.93652 724.2265600000001 C 726.0690519251197 724.2239098246514 727.7971498246513 722.4958119251197 727.7998 720.36328 L 727.7998 566.04883 C 727.7971498246513 563.9162980748803 726.0690519251197 562.1882001753486 723.93652 562.1855499999999 Z" stroke-linecap="round" />
</g>
<g transform="matrix(0.5 0 0 0.63 312.15 219.29)" id="SpFRFoLJVcW0wQWB4shZm"  >
<path style="stroke: none; stroke-width: 1; stroke-dasharray: none; stroke-linecap: butt; stroke-dashoffset: 0; stroke-linejoin: miter; stroke-miterlimit: 4; fill: rgb(63,61,86); fill-rule: nonzero; opacity: 1;" vector-effect="non-scaling-stroke"  transform=" translate(-563.7, -263.8)" d="M 664.127 265.647 L 463.2729999999999 250.14 L 623.5129999999999 277.462 L 661.9119999999999 270.816 z" stroke-linecap="round" />
</g>
<g transform="matrix(0.5 0 0 0.63 312.88 219.94)" id="JyKE4m_lAqtQLJ5Mkay-M"  >
<path style="stroke: none; stroke-width: 1; stroke-dasharray: none; stroke-linecap: butt; stroke-dashoffset: 0; stroke-linejoin: miter; stroke-miterlimit: 4; fill: rgb(40,88,235); fill-rule: nonzero; opacity: 1;" vector-effect="non-scaling-stroke"  transform=" translate(-565.18, -264.8)" d="M 624.99 275.031 L 663.389 268.385 L 663.766 267.505 L 665.6039999999999 267.647 L 663.3889999999999 272.816 L 624.9899999999999 279.462 L 464.7499999999999 250.14 L 512.2369999999999 255.80599999999998 z" stroke-linecap="round" />
</g>
<g transform="matrix(0.5 0 0 0.63 86.07 219.29)" id="V5oKmxHMkf45LVcbqB0PE"  >
<path style="stroke: none; stroke-width: 1; stroke-dasharray: none; stroke-linecap: butt; stroke-dashoffset: 0; stroke-linejoin: miter; stroke-miterlimit: 4; fill: rgb(63,61,86); fill-rule: nonzero; opacity: 1;" vector-effect="non-scaling-stroke"  transform=" translate(-108.82, -263.8)" d="M 209.251 265.647 L 8.396000000000015 250.14 L 168.63700000000003 277.462 L 207.03600000000003 270.816 z" stroke-linecap="round" />
</g>
<g transform="matrix(0.5 0 0 0.63 84.98 219.94)" id="InHJNCoqweYjZXsyOMyE7"  >
<path style="stroke: none; stroke-width: 1; stroke-dasharray: none; stroke-linecap: butt; stroke-dashoffset: 0; stroke-linejoin: miter; stroke-miterlimit: 4; fill: rgb(40,88,235); fill-rule: nonzero; opacity: 1;" vector-effect="non-scaling-stroke"  transform=" translate(-106.61, -264.8)" d="M 166.422 275.031 L 204.82 268.385 L 205.19799999999998 267.505 L 207.03599999999997 267.647 L 204.81999999999996 272.816 L 166.42199999999997 279.462 L 6.180999999999955 250.14 L 53.66799999999996 255.80599999999998 z" stroke-linecap="round" />
</g>
<g transform="matrix(0.5 0 0 0.63 255.27 290.56)" id="VMuoS1KPVka0ESdY23aWK"  >
<path style="stroke: none; stroke-width: 1; stroke-dasharray: none; stroke-linecap: butt; stroke-dashoffset: 0; stroke-linejoin: miter; stroke-miterlimit: 4; fill: rgb(63,61,86); fill-rule: nonzero; opacity: 1;" vector-effect="non-scaling-stroke"  transform=" translate(-605.24, -549.61)" d="M 854.09532 520.07184 L 837.11132 520.8102799999999 L 681.5155199999999 586.4571799999999 L 672.61 593.91541 L 644.37962 617.54535 L 555.76731 617.54535 L 529.0802299999999 593.91541 L 518.9341299999999 584.9286099999999 L 369.68151999999986 521.5487099999999 L 356.3896799999999 520.07184 L 400.6958199999999 498.65720999999996 L 400.9321299999999 498.65720999999996 C 410.97482999999994 489.12397999999996 497.9478099999999 481.67321 603.7656299999999 481.67321 C 709.5834499999999 481.67321 796.5564199999999 489.12399999999997 806.5991299999998 498.65720999999996 L 807.5738699999998 498.65720999999996 Z" stroke-linecap="round" />
</g>
<g transform="matrix(0.5 0 0 0.63 142.78 241.17)" id="1HcA76uVumCkjO27HHQIx"  >
<path style="stroke: none; stroke-width: 1; stroke-dasharray: none; stroke-linecap: butt; stroke-dashoffset: 0; stroke-linejoin: miter; stroke-miterlimit: 4; fill: rgb(63,61,86); fill-rule: nonzero; opacity: 1;" vector-effect="non-scaling-stroke"  transform=" translate(-378.91, -472.07)" d="M 399.47889 499.75191 C 399.7938133138879 498.866516309603 399.9556338423612 497.93395162439543 399.95741 496.99422 L 399.95741 461.92146 C 399.9573989543365 457.33262057209436 396.2374094279156 453.61263552282014 391.64857 453.61263 L 388.27491000000003 453.61263 C 396.00840932534663 445.80768997915123 395.969818065876 433.2171709260891 388.18861858195027 425.45978508190564 C 380.4074190980246 417.70239923772215 367.81684090197547 417.70239923772215 360.0356414180498 425.45978508190564 C 352.2544419341241 433.21717092608907 352.21585067465344 445.80768997915123 359.94935000000004 453.61263 L 356.57576000000006 453.61263 C 354.3721179140048 453.6126220434677 352.2587288409177 454.48801124519065 350.70051764090977 456.04622056983305 C 349.1423064409018 457.6044298944755 348.2669146956351 459.7178179139968 348.2669200000001 461.92146 L 348.2669200000001 496.99422000000004 C 348.26640652356224 498.43035807025075 348.6402459138526 499.8418279540944 349.3515700000001 501.08943000000005 C 346.8438200000001 501.52913000000007 344.3360100000001 502.00643 341.8282600000001 502.55800000000005 C 338.6812576268966 503.26167307518006 336.44583960576705 506.0575318330711 336.4519200000001 509.28224000000006 L 336.4519200000001 517.6151900000001 C 336.45190343141047 521.4189037152172 339.5354062848111 524.5024379086689 343.3391200000001 524.50246 L 421.372 524.50246 L 421.372 503.82625 C 414.1667040806915 502.0115335007609 406.8546325854376 500.6507462313427 399.4788899999998 499.75190999999995 Z" stroke-linecap="round" />
</g>
<g transform="matrix(0.5 0 0 0.63 364.08 241.17)" id="ANN41Wgi2RUYBWgPfIntO"  >
<path style="stroke: none; stroke-width: 1; stroke-dasharray: none; stroke-linecap: butt; stroke-dashoffset: 0; stroke-linejoin: miter; stroke-miterlimit: 4; fill: rgb(63,61,86); fill-rule: nonzero; opacity: 1;" vector-effect="non-scaling-stroke"  transform=" translate(-824.19, -472.07)" d="M 861.27235 502.558 C 858.7646 502.00642999999997 856.25685 501.52907 853.7491 501.08943 C 854.4604240861474 499.84182795409436 854.8342634764379 498.4303580702507 854.83375 496.99422 L 854.83375 461.92146 C 854.833755304365 459.7178179139968 853.9583635590983 457.6044298944755 852.4001523590904 456.04622056983305 C 850.8419411590824 454.4880112451906 848.7285520859953 453.61262204346764 846.52491 453.61263 L 843.1513199999999 453.61263 C 850.8848294640836 445.80767242046903 850.8462341983075 433.2171315163658 843.0650196139707 425.4597330451092 C 835.2838050296339 417.70233457385257 822.693204970366 417.70233457385257 814.9119903860292 425.4597330451092 C 807.1307758016924 433.2171315163658 807.0921805359162 445.807672420469 814.8256899999999 453.61263 L 811.4521 453.61263 C 809.2484579140047 453.61262204346764 807.1350688409176 454.4880112451906 805.5768576409096 456.04622056983305 C 804.0186464409016 457.6044298944755 803.1432546956349 459.7178179139968 803.1432599999999 461.92146 L 803.1432599999999 496.99422000000004 C 803.1450361576387 497.9339516243955 803.306856686112 498.86651630960307 803.62178 499.75191000000007 C 796.2460306917735 500.65074540550006 788.9339524913046 502.01153267964946 781.7286499999999 503.8262500000001 L 781.7286499999999 524.50246 L 859.7614899999999 524.50246 C 863.5652037151889 524.5024379086689 866.6487065685894 521.4189037152172 866.6486899999999 517.6151900000001 L 866.6486899999999 509.2822400000001 C 866.654770394233 506.05753183307115 864.4193523731035 503.26167307518006 861.27235 502.558 Z" stroke-linecap="round" />
</g>
<g transform="matrix(0.5 0 0 0.63 411.7 226.84)" id="f9DjsgtfWQrbZ4eOPxCRy"  >
<path style="stroke: none; stroke-width: 1; stroke-dasharray: none; stroke-linecap: butt; stroke-dashoffset: 0; stroke-linejoin: miter; stroke-miterlimit: 4; fill: rgb(63,61,86); fill-rule: nonzero; opacity: 1;" vector-effect="non-scaling-stroke"  transform=" translate(-782.28, -263.8)" d="M 681.85 265.647 L 882.7040000000001 250.14 L 722.464 277.462 L 684.065 270.816 z" stroke-linecap="round" />
</g>
<g transform="matrix(0.5 0 0 0.63 252.69 350.06)" id="D0CL5meqqpL_qwWTxlqzt"  >
<path style="stroke: none; stroke-width: 1; stroke-dasharray: none; stroke-linecap: butt; stroke-dashoffset: 0; stroke-linejoin: miter; stroke-miterlimit: 4; fill: rgb(63,61,86); fill-rule: nonzero; opacity: 1;" vector-effect="non-scaling-stroke"  transform=" translate(-600.07, -643.02)" d="M 615.6533 610.89943 L 584.4936 610.89943 C 582.1627370290503 610.8994246956569 579.927338468459 611.8253533718279 578.2791685179974 613.4735214469246 C 576.6309985675358 615.1216895220214 575.7050673478232 617.3570870290457 575.70507 619.68795 L 575.70507 626.47923 C 575.7071070927606 630.1320895595504 577.9696847832186 633.4024102061563 581.38725 634.69223 C 580.0988892979221 636.2386978473689 579.3945734095432 638.1885238291915 579.39725 640.20134 L 579.39725 642.1492 C 579.3966145737171 644.9680554480134 580.7757182827623 647.6087384791524 583.08943 649.2189199999999 L 583.08943 675.1433099999999 L 617.05743 675.1433099999999 L 617.05743 649.21894 C 619.3711390735615 647.6087561508695 620.7502420049271 644.9680746088175 620.74961 642.14922 L 620.74961 640.20136 C 620.7522865904567 638.1885438291915 620.0479707020778 636.238717847369 618.75961 634.6922500000001 C 622.1771752167814 633.4024302061564 624.4397529072394 630.1321095595505 624.44179 626.4792500000001 L 624.44179 619.688 C 624.4418059130427 617.3571352964535 623.5158860383401 615.1217310061105 621.8677233018731 613.4735532667228 C 620.219560565406 611.8253755273349 617.9841647035947 610.8994353042913 615.6533 610.89943 Z" stroke-linecap="round" />
</g>
<g transform="matrix(0.5 0 0 0.63 252.69 384.87)" id="ElBT6vTnx4H9veKs0U189"  >
<path style="stroke: none; stroke-width: 1; stroke-dasharray: none; stroke-linecap: butt; stroke-dashoffset: 0; stroke-linejoin: miter; stroke-miterlimit: 4; fill: rgb(40,88,235); fill-rule: nonzero; opacity: 1;" vector-effect="non-scaling-stroke"  transform=" translate(-600.07, -697.67)" d="M 568.40771 671.47461 C 565.5192358593963 671.4779653916125 563.1784258756295 673.8185561862681 563.1748 676.70703 L 563.1748 718.6240300000001 C 563.1779794531667 721.5128477480904 565.5188925622773 723.8539800559688 568.40771 723.85743 L 631.73926 723.85743 C 634.627908891489 723.8537650974812 636.9685560730044 721.5126795271825 636.97168 718.6240300000001 L 636.97168 676.707 C 636.9681261467496 673.8186875642542 634.6275724357457 671.4781338532504 631.73926 671.47458 Z" stroke-linecap="round" />
</g>
<g transform="matrix(0.5 0 0 0.63 253.09 322.53)" id="TnNumPLWjP5v-n3xoxOaV"  >
<path style="stroke: none; stroke-width: 1; stroke-dasharray: none; stroke-linecap: butt; stroke-dashoffset: 0; stroke-linejoin: miter; stroke-miterlimit: 4; fill: rgb(40,88,235); fill-rule: nonzero; opacity: 1;" vector-effect="non-scaling-stroke"  transform=" translate(-600.85, -599.82)" d="M 672.61 593.91541 L 644.37962 617.54535 L 555.76731 617.54535 L 529.0802299999999 593.91541 L 555.61961 593.91541 L 556.77896 588.1334099999999 C 557.4796876643131 584.6267113706257 560.5577753185896 582.1018294128604 564.1338 582.1004099999999 L 638.2284099999999 582.1004099999999 C 641.8044337171588 582.1018263663274 644.8825201877876 584.6267107861311 645.5832399999999 588.1334099999999 L 646.74259 593.91541 Z" stroke-linecap="round" />
</g>
<g transform="matrix(0.5 0 0 0.63 252.69 384.87)" id="FvBRgoinjXHzthZ-apjsB"  >
<path style="stroke: none; stroke-width: 1; stroke-dasharray: none; stroke-linecap: butt; stroke-dashoffset: 0; stroke-linejoin: miter; stroke-miterlimit: 4; fill: rgb(63,61,86); fill-rule: nonzero; opacity: 1;" vector-effect="non-scaling-stroke"  transform=" translate(-20.68, -20.68)" d="M 0 20.6762 C 0 9.257050000000001 9.25705 0 20.6762 0 C 32.09535 0 41.3524 9.25705 41.3524 20.6762 C 41.3524 32.09535 32.09535 41.3524 20.6762 41.3524 C 9.257050000000001 41.3524 0 32.09535 0 20.6762 z" stroke-linecap="round" />
</g>
<g transform="matrix(0.5 0 0 0.63 252.69 384.87)" id="TcykRx40JWbotCynmk6Ww"  >
<path style="stroke: none; stroke-width: 1; stroke-dasharray: none; stroke-linecap: butt; stroke-dashoffset: 0; stroke-linejoin: miter; stroke-miterlimit: 4; fill: rgb(230,230,230); fill-rule: nonzero; opacity: 1;" vector-effect="non-scaling-stroke"  transform=" translate(-11.81, -11.81)" d="M 0 11.81497 C 0 5.289740000000001 5.28974 0 11.81497 0 C 18.3402 0 23.62994 5.28974 23.62994 11.81497 C 23.62994 18.3402 18.340200000000003 23.62994 11.81497 23.62994 C 5.289740000000001 23.62994 0 18.340200000000003 0 11.81497 z" stroke-linecap="round" />
</g>
<g transform="matrix(0.5 0 0 0.63 253.29 385.63)" id="N5vW88nRdYJlTK6j0w9Zn"  >
<path style="stroke: none; stroke-width: 1; stroke-dasharray: none; stroke-linecap: butt; stroke-dashoffset: 0; stroke-linejoin: miter; stroke-miterlimit: 4; fill: rgb(255,255,255); fill-rule: nonzero; opacity: 1;" vector-effect="non-scaling-stroke"  transform=" translate(-601.28, -698.88)" d="M 607.21506 688.26905 C 610.7992461032946 692.9668195129847 610.3558978420098 699.5914176109994 606.1776864652315 703.7696921485494 C 601.9994750884532 707.9479666860996 595.3748836931078 708.3914150886451 590.67706 704.8072999999999 C 593.4585268323432 708.4764471016995 598.1195188719175 710.1935225587798 602.6165690289765 709.2057280061367 C 607.1136191860355 708.2179334534936 610.6259419177754 704.7055576270213 611.6136684902573 700.2084925383942 C 612.601395062739 695.7114274497671 610.8842491475648 691.0504613670452 607.21506 688.26905 Z" stroke-linecap="round" />
</g>
<g transform="matrix(0.5 0 0 0.63 253.61 267.28)" id="4iE4W4zv9wCoZrLnWAxxG"  >
<path style="stroke: none; stroke-width: 1; stroke-dasharray: none; stroke-linecap: butt; stroke-dashoffset: 0; stroke-linejoin: miter; stroke-miterlimit: 4; fill: rgb(230,230,230); fill-rule: nonzero; opacity: 1;" vector-effect="non-scaling-stroke"  transform=" translate(-265.1, -1.69)" d="M 0 3.38212 L 0 0 L 530.19637 0 L 530.19637 3.38212 z" stroke-linecap="round" />
</g>
<g transform="matrix(0.5 0 0 0.63 361.78 203.49)" id="oUf2RYfY4zl2qdvZzFshg"  >
<path style="stroke: none; stroke-width: 1; stroke-dasharray: none; stroke-linecap: butt; stroke-dashoffset: 0; stroke-linejoin: miter; stroke-miterlimit: 4; fill: rgb(40,88,235); fill-rule: nonzero; opacity: 1;" vector-effect="non-scaling-stroke"  transform=" translate(-783.75, -264.8)" d="M 723.941 275.031 L 685.542 268.385 L 685.1650000000001 267.505 L 683.3270000000001 267.647 L 685.5420000000001 272.816 L 723.9410000000001 279.462 L 884.1810000000002 250.14 L 836.6940000000002 255.80599999999998 z" stroke-linecap="round" />
</g>
<g transform="matrix(0.5 0 0 0.63 194.7 219.29)" id="d4pF7NNlmp0vuOOqnCJ5R"  >
<path style="stroke: none; stroke-width: 1; stroke-dasharray: none; stroke-linecap: butt; stroke-dashoffset: 0; stroke-linejoin: miter; stroke-miterlimit: 4; fill: rgb(63,61,86); fill-rule: nonzero; opacity: 1;" vector-effect="non-scaling-stroke"  transform=" translate(-327.4, -263.8)" d="M 226.973 265.647 L 427.828 250.14 L 267.587 277.462 L 229.189 270.816 z" stroke-linecap="round" />
</g>
<g transform="matrix(0.5 0 0 0.63 195.81 219.94)" id="EWfIn802lDO4A5-RU5nep"  >
<path style="stroke: none; stroke-width: 1; stroke-dasharray: none; stroke-linecap: butt; stroke-dashoffset: 0; stroke-linejoin: miter; stroke-miterlimit: 4; fill: rgb(40,88,235); fill-rule: nonzero; opacity: 1;" vector-effect="non-scaling-stroke"  transform=" translate(-329.62, -264.8)" d="M 269.803 275.031 L 231.404 268.385 L 231.027 267.505 L 229.189 267.647 L 231.404 272.816 L 269.803 279.462 L 430.043 250.14 L 382.556 255.80599999999998 z" stroke-linecap="round" />
</g>
<g transform="matrix(0.5 0 0 0.63 253.24 319.01)" id="ItCocSnL6abAGFy0fjwaK"  >
<path style="stroke: none; stroke-width: 1; stroke-dasharray: none; stroke-linecap: butt; stroke-dashoffset: 0; stroke-linejoin: miter; stroke-miterlimit: 4; fill: rgb(230,230,230); fill-rule: nonzero; opacity: 1;" vector-effect="non-scaling-stroke"  transform=" translate(-29.54, -5.91)" d="M 0 11.81497 L 0 0 L 59.07485 0 L 59.07485 11.81497 z" stroke-linecap="round" />
</g>
<g transform="matrix(0.72 0 0 0.69 316.43 81.41)" id="gwBaX4zENtIl9HsGceHCU"  >
<path style="stroke: none; stroke-width: 1; stroke-dasharray: none; stroke-linecap: butt; stroke-dashoffset: 0; stroke-linejoin: miter; stroke-miterlimit: 4; fill: rgb(230,230,230); fill-rule: nonzero; opacity: 1;" vector-effect="non-scaling-stroke"  transform=" translate(-321.68, -245.44)" d="M 411.21655 173.93539 L 232.14569 173.93539 C 218.91661514867968 173.950319044949 208.19604664626226 184.67086517985666 208.18109 197.89994000000002 L 208.18109 292.97085000000004 C 208.19605765488632 306.19991863349065 218.91662132907638 316.92045546668106 232.14569 316.93539000000004 L 411.21655 316.93539000000004 C 424.44559523947834 316.9204224089729 435.16612240897285 306.1998952394784 435.18109 292.97085000000004 L 435.18109 197.89994 C 435.16613341756374 184.67088857388467 424.445601419873 173.95035210269603 411.21655 173.93538999999998 Z" stroke-linecap="round" />
</g>
<g transform="matrix(0.72 0 0 0.69 316.43 81.41)" id="8HGgzrA8YkhkkunMx1uIi"  >
<path style="stroke: none; stroke-width: 1; stroke-dasharray: none; stroke-linecap: butt; stroke-dashoffset: 0; stroke-linejoin: miter; stroke-miterlimit: 4; fill: rgb(255,255,255); fill-rule: nonzero; opacity: 1;" vector-effect="non-scaling-stroke"  transform=" translate(-321.68, -245.44)" d="M 232.14546 193.43538 C 229.68094044356982 193.43798152032105 227.68370152032105 195.43522044356982 227.68110000000001 197.89974 L 227.68110000000001 292.971 C 227.68370152032105 295.4355195564302 229.68094044356982 297.43275847967897 232.14546 297.43536 L 411.21675 297.43536 C 413.6812656511873 297.43275296919313 415.6784984896225 295.4355156570208 415.6811 292.971 L 415.6811 197.89974 C 415.6784984896225 195.43522434297924 413.6812656511873 193.4379870308069 411.21675 193.43538 Z" stroke-linecap="round" />
</g>
<g transform="matrix(0.72 0 0 0.69 311.52 81.41)" id="VjUzj1PMgel7VF1YhdwK2"  >
<path style="stroke: none; stroke-width: 1; stroke-dasharray: none; stroke-linecap: butt; stroke-dashoffset: 0; stroke-linejoin: miter; stroke-miterlimit: 4; fill: rgb(40,88,235); fill-rule: nonzero; opacity: 1;" vector-effect="non-scaling-stroke"  transform=" translate(-314.83, -245.44)" d="M 318.05769 287.4132 Q 317.96605999999997 287.4132 317.87361 287.40808000000004 C 316.3662808225416 287.32271909335975 315.11930591798085 286.2042833171792 314.87111 284.71508000000006 L 304.50727 222.53172000000006 L 295.35649 259.1348500000001 C 294.99712232574194 260.5723389536505 293.7055385909263 261.580780098133 292.22381 261.58078000000006 L 279.30761 261.58078000000006 C 277.5242549285589 261.58078000000006 276.07856000000004 260.1350850714412 276.07856000000004 258.3517300000001 C 276.07856000000004 256.5683749285589 277.5242549285589 255.12268000000006 279.30761 255.12268000000006 L 289.7027 255.12268000000006 L 302.00734 205.90381000000005 C 302.3782848211051 204.41945343299662 303.7400473779772 203.3991971945041 305.268833828609 203.4602419868756 C 306.79762027924073 203.5212867792471 308.0736988715573 204.64687261769433 308.32511 206.15608000000006 L 318.88653999999997 269.52432000000005 L 327.86762999999996 238.09032000000005 C 328.25654914895557 236.72904266870924 329.48685756088025 235.77986930520711 330.90226865004047 235.74911990207787 C 332.31767973920074 235.71837049894862 333.5880489655863 236.61321735237496 334.03571999999997 237.95632000000006 L 339.75789999999995 255.12267000000006 L 350.34671999999995 255.12267000000006 C 352.1300749570074 255.12267016183364 353.5757697069743 256.5683650429925 353.5757697069743 258.35172000000006 C 353.5757697069743 260.13507495700753 352.1300749570074 261.5807698381665 350.34671999999995 261.58077000000003 L 337.43051 261.58077000000003 C 336.0406364916833 261.5807636061246 334.80670530679294 260.6913768794969 334.36721 259.37282000000005 L 331.20971 249.90059000000005 L 321.161 285.07123 C 320.76502982699355 286.45689520286544 319.4988214612671 287.4124626473941 318.05769 287.4132 Z" stroke-linecap="round" />
</g>
<g transform="matrix(0.72 0 0 0.69 342.3 90.32)" id="c1ugb_xqG5XEWCARNKENL"  >
<path style="stroke: none; stroke-width: 1; stroke-dasharray: none; stroke-linecap: butt; stroke-dashoffset: 0; stroke-linejoin: miter; stroke-miterlimit: 4; fill: rgb(63,61,86); fill-rule: nonzero; opacity: 1;" vector-effect="non-scaling-stroke"  transform=" translate(-9.5, -9.5)" d="M 0 9.50011 C 0 4.25334 4.25334 0 9.50011 0 C 14.746879999999999 0 19.00022 4.25334 19.00022 9.50011 C 19.00022 14.746879999999999 14.746879999999999 19.00022 9.50011 19.00022 C 4.25334 19.00022 0 14.746879999999999 0 9.50011 z" stroke-linecap="round" />
</g>
<g transform="matrix(0.72 0 0 0.69 515.64 81.41)" id="hf0mmog-jsgipgMrwFGcr"  >
<path style="stroke: none; stroke-width: 1; stroke-dasharray: none; stroke-linecap: butt; stroke-dashoffset: 0; stroke-linejoin: miter; stroke-miterlimit: 4; fill: rgb(230,230,230); fill-rule: nonzero; opacity: 1;" vector-effect="non-scaling-stroke"  transform=" translate(-599.68, -245.44)" d="M 689.21655 173.93539 L 510.14563 173.93539 C 496.91657858012695 173.95035210269606 486.1960465824362 184.67088857388472 486.18109 197.89994000000004 L 486.18109 292.97085000000004 C 486.1960575910271 306.1998952394784 496.91658476052163 316.9204224089729 510.14563 316.93539000000004 L 689.21655 316.93539000000004 C 702.4455998022711 316.9204334069339 713.1661334069339 306.1998998022712 713.18109 292.97085000000004 L 713.18109 197.89994 C 713.166144415552 184.67088401108737 702.445605982675 173.95034110470974 689.2165500000001 173.93538999999998 Z" stroke-linecap="round" />
</g>
<g transform="matrix(0.72 0 0 0.69 515.64 81.41)" id="kRQacGdjRCl74r-6S0ozZ"  >
<path style="stroke: none; stroke-width: 1; stroke-dasharray: none; stroke-linecap: butt; stroke-dashoffset: 0; stroke-linejoin: miter; stroke-miterlimit: 4; fill: rgb(255,255,255); fill-rule: nonzero; opacity: 1;" vector-effect="non-scaling-stroke"  transform=" translate(-599.68, -245.44)" d="M 510.14546 193.43538 C 507.6809404435698 193.43798152032105 505.68370152032105 195.43522044356982 505.6811 197.89974 L 505.6811 292.971 C 505.68370152032105 295.4355195564302 507.6809404435698 297.43275847967897 510.14546 297.43536 L 689.21675 297.43536 C 691.6812656511873 297.4327529691931 693.6784984896225 295.43551565702074 693.6811 292.971 L 693.6811 197.89974 C 693.6784984896225 195.43522434297927 691.6812656511873 193.43798703080694 689.21675 193.43538 Z" stroke-linecap="round" />
</g>
<g transform="matrix(0.72 0 0 0.69 515.64 68.68)" id="wrIKfv9KlkJ6PKbmMLdRR"  >
<path style="stroke: none; stroke-width: 1; stroke-dasharray: none; stroke-linecap: butt; stroke-dashoffset: 0; stroke-linejoin: miter; stroke-miterlimit: 4; fill: rgb(40,88,235); fill-rule: nonzero; opacity: 1;" vector-effect="non-scaling-stroke"  transform=" translate(-23.62, -23.62)" d="M 0 23.62069 C 0 10.57534 10.57534 0 23.62069 0 C 36.666039999999995 0 47.24138 10.57534 47.24138 23.62069 C 47.24138 36.666039999999995 36.666039999999995 47.24138 23.62069 47.24138 C 10.57534 47.24138 0 36.666039999999995 0 23.62069 z" stroke-linecap="round" />
</g>
<g transform="matrix(0.72 0 0 0.69 515.64 98.99)" id="u47EeZJd9aebcu7C8w8nG"  >
<path style="stroke: none; stroke-width: 1; stroke-dasharray: none; stroke-linecap: butt; stroke-dashoffset: 0; stroke-linejoin: miter; stroke-miterlimit: 4; fill: rgb(40,88,235); fill-rule: nonzero; opacity: 1;" vector-effect="non-scaling-stroke"  transform=" translate(-443.68, -97.09)" d="M 443.68107 80.55459 L 443.68113 80.55459 C 461.074907413816 80.55459 475.17535 94.65503258618402 475.17535 112.04880999999999 L 475.17535 113.62355000000001 L 412.18685 113.62355000000001 L 412.18685 112.04881 C 412.18685 94.65503258618403 426.28729258618404 80.55459 443.68107 80.55459 Z" stroke-linecap="round" />
</g>
<g transform="matrix(0.72 0 0 0.69 481.23 81.68)" id="0vcHwKL4wMn0DSDD-pu52"  >
<path style="stroke: none; stroke-width: 1; stroke-dasharray: none; stroke-linecap: butt; stroke-dashoffset: 0; stroke-linejoin: miter; stroke-miterlimit: 4; fill: rgb(63,61,86); fill-rule: nonzero; opacity: 1;" vector-effect="non-scaling-stroke"  transform=" translate(-16.53, -16.53)" d="M 0 16.53448 C 0 7.402739999999998 7.40274 0 16.53448 0 C 25.66622 0 33.06896 7.40274 33.06896 16.53448 C 33.06896 25.66622 25.666219999999996 33.06896 16.53448 33.06896 C 7.402739999999998 33.06896 0 25.666219999999996 0 16.53448 z" stroke-linecap="round" />
</g>
<g transform="matrix(0.72 0 0 0.69 479.69 102.4)" id="8ravqI7ro884QLVSK4Yo9"  >
<path style="stroke: none; stroke-width: 1; stroke-dasharray: none; stroke-linecap: butt; stroke-dashoffset: 0; stroke-linejoin: miter; stroke-miterlimit: 4; fill: rgb(63,61,86); fill-rule: nonzero; opacity: 1;" vector-effect="non-scaling-stroke"  transform=" translate(-549.51, -275.98)" d="M 567.8456 269.96044 C 561.354404835904 264.2043925472076 552.0903265284638 262.79168298171913 544.1785440746721 266.35137332514165 C 536.2667616208805 269.91106366856417 531.1791267209486 277.7809344634248 531.1811 286.45663 L 531.1811 287.55894 L 563.46271 287.55894 L 563.46271 285.98418 C 563.4556694681371 280.3459188481374 564.969830885718 274.81018127011265 567.8456 269.96044 Z" stroke-linecap="round" />
</g>
<g transform="matrix(0.72 0 0 0.69 550.06 81.68)" id="-Cyk--COuLnJuRtcL3sg6"  >
<path style="stroke: none; stroke-width: 1; stroke-dasharray: none; stroke-linecap: butt; stroke-dashoffset: 0; stroke-linejoin: miter; stroke-miterlimit: 4; fill: rgb(63,61,86); fill-rule: nonzero; opacity: 1;" vector-effect="non-scaling-stroke"  transform=" translate(-16.53, -16.53)" d="M 0 16.53448 C 0 7.402739999999998 7.40274 0 16.53448 0 C 25.66622 0 33.06896 7.40274 33.06896 16.53448 C 33.06896 25.66622 25.666219999999996 33.06896 16.53448 33.06896 C 7.402739999999998 33.06896 0 25.666219999999996 0 16.53448 z" stroke-linecap="round" />
</g>
<g transform="matrix(0.72 0 0 0.69 551.59 102.4)" id="wJ034Z09MDG3AxHmsjQQJ"  >
<path style="stroke: none; stroke-width: 1; stroke-dasharray: none; stroke-linecap: butt; stroke-dashoffset: 0; stroke-linejoin: miter; stroke-miterlimit: 4; fill: rgb(63,61,86); fill-rule: nonzero; opacity: 1;" vector-effect="non-scaling-stroke"  transform=" translate(-649.85, -275.98)" d="M 631.5166 269.96044 C 638.007795164096 264.2043925472076 647.2718734715361 262.79168298171913 655.1836559253278 266.35137332514165 C 663.0954383791195 269.91106366856417 668.1830732790514 277.7809344634248 668.1811 286.45663 L 668.1811 287.55894 L 635.89949 287.55894 L 635.89949 285.98418 C 635.9065354778114 280.34591818706167 634.392373708143 274.810179321814 631.5166 269.96044 Z" stroke-linecap="round" />
</g>
<g transform="matrix(0.72 0 0 0.69 714.85 81.41)" id="siVO0iYCWkW8_6Kr_hEx9"  >
<path style="stroke: none; stroke-width: 1; stroke-dasharray: none; stroke-linecap: butt; stroke-dashoffset: 0; stroke-linejoin: miter; stroke-miterlimit: 4; fill: rgb(230,230,230); fill-rule: nonzero; opacity: 1;" vector-effect="non-scaling-stroke"  transform=" translate(-877.68, -245.44)" d="M 967.21655 173.93539 L 788.14569 173.93539 C 774.9166128672798 173.95031354593107 764.1960411472489 184.67086289844536 764.1810899999999 197.89994000000002 L 764.1810899999999 292.97085000000004 C 764.1960521558867 306.1999209148997 774.916619047681 316.92046096568635 788.14569 316.93539000000004 L 967.21655 316.93539000000004 C 980.4455998022711 316.9204334069339 991.1661334069339 306.1998998022712 991.18109 292.97085000000004 L 991.18109 197.89994 C 991.166144415552 184.67088401108737 980.445605982675 173.95034110470974 967.2165500000001 173.93538999999998 Z" stroke-linecap="round" />
</g>
<g transform="matrix(0.72 0 0 0.69 714.85 81.41)" id="TouX46DurnFIwCUfXn_rB"  >
<path style="stroke: none; stroke-width: 1; stroke-dasharray: none; stroke-linecap: butt; stroke-dashoffset: 0; stroke-linejoin: miter; stroke-miterlimit: 4; fill: rgb(255,255,255); fill-rule: nonzero; opacity: 1;" vector-effect="non-scaling-stroke"  transform=" translate(-877.68, -245.44)" d="M 788.14546 193.43538 C 785.6809404435697 193.43798152032102 783.6837015203209 195.4352204435698 783.6810999999999 197.89974 L 783.6810999999999 292.971 C 783.6837015203209 295.4355195564302 785.6809404435697 297.432758479679 788.14546 297.43536 L 967.21675 297.43536 C 969.6812656511873 297.4327529691931 971.6784984896225 295.43551565702074 971.6811 292.971 L 971.6811 197.89974 C 971.6784984896225 195.43522434297927 969.6812656511873 193.43798703080694 967.21675 193.43538 Z" stroke-linecap="round" />
</g>
<g transform="matrix(0.72 0 0 0.69 712.7 101.56)" id="iWAYjr2_22nDGUFv2YTPi"  >
<path style="stroke: none; stroke-width: 1; stroke-dasharray: none; stroke-linecap: butt; stroke-dashoffset: 0; stroke-linejoin: miter; stroke-miterlimit: 4; fill: rgb(40,88,235); fill-rule: nonzero; opacity: 1;" vector-effect="non-scaling-stroke"  transform=" translate(-874.68, -274.75)" d="M 874.683 289.39891 C 873.9056687527702 289.3989338706782 873.1601679719982 289.09015149195994 872.6105108379053 288.54049623324744 C 872.0608537038123 287.9908409745349 871.7520687815103 287.2453412473067 871.75209 286.46801 L 871.75209 263.02079 C 871.7550760467561 261.4042096735249 873.0664119157072 260.0952937856464 874.6829949999999 260.0952937856464 C 876.2995780842926 260.0952937856464 877.6109139532438 261.4042096735249 877.6139 263.02079 L 877.6139 286.468 C 877.6139238706781 287.2453312472298 877.3051414919598 287.99083202800165 876.7554862332473 288.5404891620946 C 876.2058309745348 289.09014629618764 875.4603312473067 289.3989312184897 874.683 289.39891 Z" stroke-linecap="round" />
</g>
<g transform="matrix(0.72 0 0 0.69 712.7 101.55)" id="I5rplKbpz1MHRSQrmvS5S"  >
<path style="stroke: none; stroke-width: 1; stroke-dasharray: none; stroke-linecap: butt; stroke-dashoffset: 0; stroke-linejoin: miter; stroke-miterlimit: 4; fill: rgb(40,88,235); fill-rule: nonzero; opacity: 1;" vector-effect="non-scaling-stroke"  transform=" translate(-874.68, -274.74)" d="M 884.94113 277.6753 L 864.4247300000001 277.6753 C 862.806038626721 277.6753 861.4938300000001 276.3630913732791 861.4938300000001 274.7444 C 861.4938300000001 273.1257086267209 862.806038626721 271.8135 864.4247300000001 271.8135 L 884.94113 271.8135 C 886.5598213732791 271.8135 887.87203 273.1257086267209 887.87203 274.7444 C 887.8720300000001 276.3630913732791 886.5598213732791 277.6753 884.94113 277.6753 Z" stroke-linecap="round" />
</g>
<g transform="matrix(0.72 0 0 0.69 735.81 58.24)" id="FdwRVvUhNtCZ2DFoYBUWh"  >
<path style="stroke: none; stroke-width: 1; stroke-dasharray: none; stroke-linecap: butt; stroke-dashoffset: 0; stroke-linejoin: miter; stroke-miterlimit: 4; fill: rgb(40,88,235); fill-rule: nonzero; opacity: 1;" vector-effect="non-scaling-stroke"  transform=" translate(-906.92, -211.73)" d="M 914.25016 221.98816 C 913.4728336312066 221.98816795660147 912.7273420968758 221.67938046741088 912.1776884125945 221.1297286584983 C 911.6280347283133 220.58007684958574 911.3192446955703 219.834586368816 911.31925 219.05725999999999 L 911.31925 207.33365 L 899.59564 207.33365 C 898.5485302381447 207.33365006659014 897.5809608888751 206.77502369702466 897.0574059887246 205.86820005380568 C 896.533851088574 204.96137641058672 896.533851088574 203.8441235894133 897.0574059887246 202.93729994619434 C 897.5809608888751 202.03047630297536 898.5485302381447 201.47184993340989 899.59564 201.47185000000002 L 914.25016 201.47185000000002 C 915.0274846361897 201.47184469560483 915.7729736014664 201.78063335564187 916.3226251229123 202.33028487708776 C 916.8722766443582 202.87993639853366 917.1810653043952 203.62542536381034 917.18106 204.40275000000003 L 917.18106 219.05726 C 917.1810653043951 219.8345846361897 916.8722766443582 220.58007360146635 916.3226251229123 221.12972512291225 C 915.7729736014664 221.67937664435814 915.0274846361897 221.98816530439518 914.25016 221.98816 Z" stroke-linecap="round" />
</g>
<g transform="matrix(0.72 0 0 0.69 734.71 59.28)" id="rcKprKJCE2ZKpZvAAxMnt"  >
<path style="stroke: none; stroke-width: 1; stroke-dasharray: none; stroke-linecap: butt; stroke-dashoffset: 0; stroke-linejoin: miter; stroke-miterlimit: 4; fill: rgb(40,88,235); fill-rule: nonzero; opacity: 1;" vector-effect="non-scaling-stroke"  transform=" translate(-905.39, -213.26)" d="M 896.53272 225.051 C 895.347290176383 225.05095581841687 894.2786060797247 224.33684717899206 893.8249729881236 223.24164816197413 C 893.3713398965224 222.1464491449562 893.6220885339659 220.88582946869707 894.4603000000001 220.04758999999999 L 912.1777400000001 202.33024999999998 C 913.3227863252368 201.1882350394851 915.1764440924792 201.18948250245657 916.3199522891214 202.33303760003164 C 917.4634604857637 203.47659269760672 917.4646319226104 205.3302505144536 916.32257 206.47525 L 898.60514 224.1926 C 898.0560454363621 224.74305268511594 897.310217296313 225.0519760092578 896.53272 225.051 Z" stroke-linecap="round" />
</g>
<g transform="matrix(0.72 0 0 0.69 712.7 74.36)" id="rL3M2qPxyLQ3KM5ZOJVak"  >
<path style="stroke: none; stroke-width: 1; stroke-dasharray: none; stroke-linecap: butt; stroke-dashoffset: 0; stroke-linejoin: miter; stroke-miterlimit: 4; fill: rgb(63,61,86); fill-rule: nonzero; opacity: 1;" vector-effect="non-scaling-stroke"  transform=" translate(-874.68, -235.18)" d="M 874.683 263.02079 C 859.3054209081538 263.02079 846.83943 250.55479909184615 846.83943 235.17721999999998 C 846.83943 219.79964090815378 859.3054209081538 207.33364999999998 874.683 207.33364999999998 C 890.0605790918462 207.33364999999998 902.52657 219.79964090815378 902.52657 235.17721999999998 C 902.5091721206287 250.54758688635602 890.053366886356 263.0033921206287 874.683 263.02079 Z M 874.683 213.19545999999997 C 865.7922021408768 213.1954559553776 857.7768474316146 218.5511407917066 854.3744845220489 226.76516618754135 C 850.9721216124833 234.9791915833761 852.8527879141737 244.43394517313519 859.1395313705193 250.72068862948072 C 865.4262748268648 257.0074320858262 874.8810284166238 258.8880983875167 883.0950538124587 255.48573547795107 C 891.3090792082934 252.08337256838544 896.6647640446223 244.0680178591232 896.66476 235.17721999999998 C 896.6509938643994 223.0427358717929 886.8174841282071 213.20922613560055 874.683 213.19546 Z" stroke-linecap="round" />
</g>
<g transform="matrix(0.89 0 0 0.87 562.84 408.25)" id="-RkaYlbJoE2jETek23YEj"  >
<path style="stroke: none; stroke-width: 1; stroke-dasharray: none; stroke-linecap: butt; stroke-dashoffset: 0; stroke-linejoin: miter; stroke-miterlimit: 4; fill: rgb(255,184,184); fill-rule: nonzero; opacity: 1;" vector-effect="non-scaling-stroke"  transform=" translate(-118.65, -616.3)" d="M 109.607 639.942 L 121.866 639.942 L 127.699 592.654 L 109.60499999999999 592.654 z" stroke-linecap="round" />
</g>
<g transform="matrix(-0.89 0 0 -0.87 569.59 432.23)" id="SbyBhZdOZDUV7OBuaF-nc"  >
<path style="stroke: none; stroke-width: 1; stroke-dasharray: none; stroke-linecap: butt; stroke-dashoffset: 0; stroke-linejoin: miter; stroke-miterlimit: 4; fill: rgb(47,46,65); fill-rule: nonzero; opacity: 1;" vector-effect="non-scaling-stroke"  transform=" translate(-270.8, -767.07)" d="M 251.53582 759.63143 L 290.06655 759.63143 L 290.06655 774.5183 L 266.42267 774.5183 C 258.20088977198145 774.5183 251.53581999999997 767.8532302280186 251.53581999999997 759.63145 L 251.53581999999997 759.63145 Z" stroke-linecap="round" />
</g>
<g transform="matrix(0.89 0 0 0.87 507.49 407.09)" id="FXhwG6tszJtkP1CEWiL-f"  >
<path style="stroke: none; stroke-width: 1; stroke-dasharray: none; stroke-linecap: butt; stroke-dashoffset: 0; stroke-linejoin: miter; stroke-miterlimit: 4; fill: rgb(255,184,184); fill-rule: nonzero; opacity: 1;" vector-effect="non-scaling-stroke"  transform=" translate(-56.47, -614.96)" d="M 44.379 637.585 L 56.532 639.205 L 68.564 593.1030000000001 L 50.62899999999999 590.7120000000001 z" stroke-linecap="round" />
</g>
<g transform="matrix(-0.88 -0.11 0.12 -0.86 510.94 432.06)" id="7AfSina8KMPReK0NSTjkB"  >
<path style="stroke: none; stroke-width: 1; stroke-dasharray: none; stroke-linecap: butt; stroke-dashoffset: 0; stroke-linejoin: miter; stroke-miterlimit: 4; fill: rgb(47,46,65); fill-rule: nonzero; opacity: 1;" vector-effect="non-scaling-stroke"  transform=" translate(-204.91, -766.88)" d="M 185.6415 759.43939 L 224.17223 759.43939 L 224.17223 774.32626 L 200.52836 774.32626 C 192.30657424913397 774.32626 185.6415 767.6611857508661 185.64149999999998 759.4394000000001 L 185.64149999999998 759.4394000000001 Z" stroke-linecap="round" />
</g>
<g transform="matrix(0.89 0 0 0.87 535.37 338.99)" id="_e1nbj3D2_Yjat_HKpZuV"  >
<path style="stroke: none; stroke-width: 1; stroke-dasharray: none; stroke-linecap: butt; stroke-dashoffset: 0; stroke-linejoin: miter; stroke-miterlimit: 4; fill: rgb(47,46,65); fill-rule: nonzero; opacity: 1;" vector-effect="non-scaling-stroke"  transform=" translate(-87.8, -536.64)" d="M 61.796 444.64 L 130.796 447.64 L 127.79599999999999 622.64 L 109.79599999999999 620.64 L 95.79599999999999 501.64 L 62.79599999999999 628.64 L 44.79599999999999 625.64 z" stroke-linecap="round" />
</g>
<g transform="matrix(0.89 0 0 0.87 544.27 217.57)" id="o13gxEe5F9jPJCetYc3Zv"  >
<path style="stroke: none; stroke-width: 1; stroke-dasharray: none; stroke-linecap: butt; stroke-dashoffset: 0; stroke-linejoin: miter; stroke-miterlimit: 4; fill: rgb(40,88,235); fill-rule: nonzero; opacity: 1;" vector-effect="non-scaling-stroke"  transform=" translate(-242.35, -520.18)" d="M 252.35236 463.83242 L 228.35236 458.92956000000004 L 213.35236 568.8324200000001 C 213.35236 568.8324200000001 257.35236 597.8324200000001 271.35236 567.8324200000001 Z" stroke-linecap="round" />
</g>
<g transform="matrix(0.89 0 0 0.87 543.85 135.99)" id="PJGZGcGzyRi7pQLbdN5MX"  >
<path style="stroke: none; stroke-width: 1; stroke-dasharray: none; stroke-linecap: butt; stroke-dashoffset: 0; stroke-linejoin: miter; stroke-miterlimit: 4; fill: rgb(255,184,184); fill-rule: nonzero; opacity: 1;" vector-effect="non-scaling-stroke"  transform=" translate(-24.56, -24.56)" d="M 0 24.56103 C 0 10.99635 10.99635 0 24.56103 0 C 38.12571 0 49.12206 10.99635 49.12206 24.56103 C 49.12206 38.12571 38.12571 49.12206 24.56103 49.12206 C 10.99635 49.12206 0 38.12571 0 24.56103 z" stroke-linecap="round" />
</g>
<g transform="matrix(0.89 0 0 0.87 515.04 227.79)" id="fSITSRnxV6How37_uBaqZ"  >
<path style="stroke: none; stroke-width: 1; stroke-dasharray: none; stroke-linecap: butt; stroke-dashoffset: 0; stroke-linejoin: miter; stroke-miterlimit: 4; fill: rgb(47,46,65); fill-rule: nonzero; opacity: 1;" vector-effect="non-scaling-stroke"  transform=" translate(-209.51, -531.94)" d="M 228.35236 457.83242 L 193.35236 468.83242 C 193.35236 468.83242 210.35236 553.83242 182.35236 597.83242 C 182.35236 597.83242 217.35236 634.83242 232.35236 551.83242 C 232.35236 551.83242 244.35236 484.83242 228.35236 457.83242 Z" stroke-linecap="round" />
</g>
<g transform="matrix(0.89 0 0 0.87 567.5 231.42)" id="VuhAGZOom55kcTiUQEt8i"  >
<path style="stroke: none; stroke-width: 1; stroke-dasharray: none; stroke-linecap: butt; stroke-dashoffset: 0; stroke-linejoin: miter; stroke-miterlimit: 4; fill: rgb(47,46,65); fill-rule: nonzero; opacity: 1;" vector-effect="non-scaling-stroke"  transform=" translate(-268.46, -536.11)" d="M 252.35236 463.83242 L 278.35236 479.83242 C 278.35236 479.83242 292.35236 596.83242 278.35236 607.83242 C 264.35236 618.83242 252.35236 463.83242 252.35236 463.83242 Z" stroke-linecap="round" />
</g>
<g transform="matrix(0.89 0 0 0.87 589.28 288.23)" id="hnjRy-SKKPkGsAtMbf0TX"  >
<path style="stroke: none; stroke-width: 1; stroke-dasharray: none; stroke-linecap: butt; stroke-dashoffset: 0; stroke-linejoin: miter; stroke-miterlimit: 4; fill: rgb(255,184,184); fill-rule: nonzero; opacity: 1;" vector-effect="non-scaling-stroke"  transform=" translate(-292.92, -601.45)" d="M 289.1621 624.79959 C 287.00494639521565 622.7494803760711 285.86665461081697 619.8491846078357 286.05351442914326 616.879109768197 C 286.24037424746956 613.9090349285583 287.7331910448359 611.1742731950293 290.13028 609.4106899999999 L 279.55963 575.2750699999999 L 297.39228 580.4548799999999 L 304.69641 612.0765199999998 C 307.452706209257 616.3946680274314 306.54366352642666 622.091917006598 302.58044646192684 625.3379117200308 C 298.617229397427 628.5839064334635 292.8525508255058 628.3526371266926 289.1621 624.7995899999999 Z" stroke-linecap="round" />
</g>
<g transform="matrix(0.89 0 0 0.87 506.1 279.99)" id="EzzJa4bmZAEhAyLNTVX6y"  >
<path style="stroke: none; stroke-width: 1; stroke-dasharray: none; stroke-linecap: butt; stroke-dashoffset: 0; stroke-linejoin: miter; stroke-miterlimit: 4; fill: rgb(255,184,184); fill-rule: nonzero; opacity: 1;" vector-effect="non-scaling-stroke"  transform=" translate(-199.47, -591.98)" d="M 199.338 614.92719 C 196.93614077121336 613.1700971884715 195.43592936460274 610.4393749212121 195.24104425661054 607.4698088421502 C 195.04615914861836 604.5002427630882 196.176619558435 601.5968761608025 198.32824 599.54095 L 183.47475 567.03937 L 201.82375 569.89374 L 213.11575 600.3202 C 216.40217532930473 604.2499752971048 216.22994806335947 610.0167400830194 212.71485998441733 613.7433848377699 C 209.1997719054752 617.4700295925205 203.45289595617507 617.9786111007905 199.33796999999998 614.9272 Z" stroke-linecap="round" />
</g>
<g transform="matrix(0.89 0 0 0.87 498.43 228.13)" id="cx1lJDmoGiFhHzhwIe1dY"  >
<path style="stroke: none; stroke-width: 1; stroke-dasharray: none; stroke-linecap: butt; stroke-dashoffset: 0; stroke-linejoin: miter; stroke-miterlimit: 4; fill: rgb(47,46,65); fill-rule: nonzero; opacity: 1;" vector-effect="non-scaling-stroke"  transform=" translate(-46.3, -409.14)" d="M 57.796 346.64 L 48.796 345.64 L 25.796 420.64 L 48.796 472.64 L 66.79599999999999 461.64 L 46.79599999999999 418.64 L 62.79599999999999 372.64 z" stroke-linecap="round" />
</g>
<g transform="matrix(0.89 0 0 0.87 582.09 235.09)" id="gArAFU5sAd-IOiXkH5lPz"  >
<path style="stroke: none; stroke-width: 1; stroke-dasharray: none; stroke-linecap: butt; stroke-dashoffset: 0; stroke-linejoin: miter; stroke-miterlimit: 4; fill: rgb(47,46,65); fill-rule: nonzero; opacity: 1;" vector-effect="non-scaling-stroke"  transform=" translate(-140.3, -417.14)" d="M 128.796 355.64 L 133.796 356.64 L 157.796 473.64 L 141.796 478.64 L 122.79599999999999 409.64 z" stroke-linecap="round" />
</g>
<g transform="matrix(0.89 0 0 0.87 540.38 126.4)" id="p9mfw9MquZ6V8uNZVLR2V"  >
<path style="stroke: none; stroke-width: 1; stroke-dasharray: none; stroke-linecap: butt; stroke-dashoffset: 0; stroke-linejoin: miter; stroke-miterlimit: 4; fill: rgb(47,46,65); fill-rule: nonzero; opacity: 1;" vector-effect="non-scaling-stroke"  transform=" translate(-237.98, -415.32)" d="M 225.00655 436.44921 C 225.68005295150067 431.5394761380199 228.88798789160748 427.346642126849 233.4507 425.41254 C 238.1784 423.47407999999996 243.51144000000002 424.29287999999997 248.60765 424.66364 C 253.70386 425.0344 259.37756 424.71241 263.05523 421.16508 C 266.41492999999997 417.92444 267.17047 412.5466 265.54804 408.16971 C 263.92561 403.79282 260.25195 400.39471000000003 256.0786 398.30371 C 251.82578584265858 396.3532915778145 247.2691225815377 395.14906183860495 242.60798 394.74371 C 235.79698 393.92083 228.80286999999998 393.81595000000004 222.16457 395.54783000000003 C 215.52627 397.27971 217.23787 400.99191 213.34776 406.64283000000006 C 209.45765 412.2937500000001 208.29228 419.9926700000001 211.25817 426.17894000000007 C 213.24271000000002 430.3183000000001 216.79905 433.45153000000005 220.26217 436.4647800000001" stroke-linecap="round" />
</g>
<g transform="matrix(0.41 0 0 0.41 818.48 272.29)" id="cLmXrDUxs91v_VUM0FxeY"  >
<path style="stroke: none; stroke-width: 1; stroke-dasharray: none; stroke-linecap: butt; stroke-dashoffset: 0; stroke-linejoin: miter; stroke-miterlimit: 4; fill: rgb(204,204,204); fill-rule: nonzero; opacity: 1;" vector-effect="non-scaling-stroke"  transform=" translate(-774.24, -426.29)" d="M 774.394 707.49843 L 774.39351 705.62374 C 778.12093 705.62282 781.90468 705.54592 785.6408299999999 705.39674 L 785.7158999999999 707.2696 C 781.95514 707.42061 778.14618 707.49752 774.394 707.49843 Z M 763.07528 707.28151 C 759.32772 707.13503 755.52523 706.91079 751.77394 706.61513 L 751.92134 704.74593 C 755.64834 705.0406700000001 759.4256799999999 705.26314 763.14852 705.4086500000001 Z M 797.01728 706.59041 L 796.86805 704.72121 C 800.5881400000001 704.4237300000001 804.35316 704.0456800000001 808.0576900000001 703.5980400000001 L 808.2829100000001 705.4599200000001 C 804.5532300000001 705.9102400000002 800.7630700000001 706.2901200000001 797.0172800000001 706.5903500000002 Z M 740.50703 705.4974100000001 C 736.7690299999999 705.0497700000001 732.99677 704.5215800000001 729.29403 703.9275200000001 L 729.5915200000001 702.07663 C 733.26907 702.66702 737.0166300000001 703.19156 740.72946 703.63553 Z M 819.49311 703.8771700000001 L 819.19379 702.02628 C 822.87043 701.4321600000001 826.59279 700.7520400000001 830.2575800000001 700.00693 L 830.6310500000001 701.84317 C 826.9420500000001 702.5947 823.1945300000001 703.2785299999999 819.4931700000001 703.87717 Z M 718.15382 701.9063400000001 C 714.4643599999999 701.1593900000001 710.74702 700.3273400000002 707.1037699999999 699.4357000000001 L 707.5495699999999 697.6141100000001 C 711.1685699999999 698.50111 714.8612099999999 699.3268100000001 718.52546 700.0682700000001 Z M 841.67882 699.3597700000001 L 841.23027 697.5400100000002 C 844.86027 696.6465800000002 848.5153700000001 695.6680600000002 852.09447 694.6309500000002 L 852.61626 696.4324000000003 C 849.01239 697.47591 845.33258 698.46084 841.67883 699.35976 Z M 696.16271 696.5193200000001 C 692.54784 695.4758000000002 688.9097099999999 694.3462200000001 685.34929 693.1617100000001 L 685.94152 691.38223 C 689.47808 692.55942 693.09203 693.68167 696.68261 694.7178700000001 Z M 863.42511 693.061 L 862.83105 691.2832900000001 C 866.36993 690.10062 869.93353 688.8291300000001 873.42389 687.50278 L 874.09027 689.25478 C 870.57605 690.59035 866.98779 691.871 863.42511 693.061 Z M 674.65167 689.3564200000001 C 671.1347599999999 688.0235900000001 667.59222 686.59927 664.1220099999999 685.12094 L 664.8566299999999 683.39633 C 668.3035299999999 684.86459 671.8226899999999 686.2798200000001 675.3162799999999 687.60251 Z M 884.56219 685.0331100000001 L 883.82619 683.3085000000001 C 887.25337 681.8448200000001 890.69429 680.2932400000001 894.05287 678.6958900000001 L 894.85842 680.3893700000001 C 891.477 681.99679 888.01227 683.55929 884.56219 685.0331 Z M 653.775 680.46352 C 650.36979 678.84694 646.9558499999999 677.14071 643.62846 675.39138 L 644.5008300000001 673.73269 C 647.80583 675.46914 651.1963900000001 677.1644500000001 654.5787100000001 678.77004 Z M 904.96336 675.33187 L 904.09006 673.67318 C 907.39188 671.93575 910.69913 670.10958 913.91947 668.24679 L 914.85868 669.86886 C 911.6163700000001 671.7444700000001 908.28715 673.58254 904.96342 675.33186 Z M 633.69836 669.91463 C 630.4313599999999 668.0262 627.16845 666.0508 623.99987 664.04336 L 625.00311 662.45974 C 628.1502 664.45345 631.3916 666.4160400000001 634.63659 668.29256 Z M 924.5296599999999 664.0104 L 923.5264299999999 662.42678 C 926.6689399999999 660.43578 929.8206099999999 658.34969 932.8935499999999 656.22506 L 933.9590399999998 657.76656 C 930.8660399999999 659.90584 927.6932299999999 662.00656 924.5297199999999 664.0104 Z M 614.548 657.78853 C 611.44809 655.64653 608.35586 653.41665 605.35708 651.16024 L 606.48392 649.66268 C 609.46304 651.9035200000001 612.53457 654.11873 615.61349 656.24703 Z M 943.13382 651.1483400000001 L 942.0061900000001 649.65078 C 944.97842 647.41543 947.95437 645.0821100000001 950.85153 642.7149300000001 L 952.03787 644.1667100000001 C 949.12137 646.5494600000001 946.12533 648.8983400000001 943.13387 651.1483400000001 Z M 596.4413099999999 644.1685400000001 C 593.53085 641.7903700000002 590.6286299999999 639.3207000000001 587.81521 636.8271700000001 L 589.05832 635.4248300000002 C 591.85342 637.9009600000002 594.73642 640.3550600000002 597.62765 642.7167600000001 Z M 960.6570099999999 636.8317500000002 L 959.4139099999999 635.4294000000002 C 962.2067599999999 632.9541800000002 964.9876399999998 630.3884000000002 967.6789099999999 627.8042800000002 L 968.9769099999999 629.1571900000001 C 966.2683499999998 631.7578300000001 963.4690899999998 634.3401100000001 960.6570799999998 636.8317500000002 Z M 579.49121 629.149 C 576.7872100000001 626.55116 574.09271 623.8581 571.48346 621.14491 L 572.8345300000001 619.8450399999999 C 575.4268800000001 622.5408399999999 578.1034500000001 625.2164999999999 580.7901 627.79604 Z M 976.9856500000001 621.15223 L 975.6345200000001 619.8523700000001 C 978.2186300000001 617.1648 980.7863100000001 614.3847800000001 983.26697 611.5882700000001 L 984.66931 612.8332 C 982.17218 615.64712 979.58722 618.44631 976.98565 621.15218 Z M 563.8033400000002 612.8296 C 561.3038900000001 610.01203 558.8346500000001 607.11305 556.4633400000001 604.21308 L 557.9151200000001 603.02674 C 560.2699500000001 605.90748 562.7231200000001 608.78724 565.2056800000001 611.5846700000001 Z M 992.0153400000002 604.2112500000001 L 990.5635600000002 603.0249100000001 C 992.9325600000002 600.1286100000001 995.2704600000002 597.14997 997.5131400000001 594.1722500000001 L 999.01068 595.3 C 996.75335 598.29781 994.399 601.29568 992.01532 604.2112 Z M 549.4762400000002 595.3137300000001 C 547.2170900000002 592.3140400000001 544.9885700000002 589.2292000000001 542.8529800000002 586.14344 L 544.3944900000002 585.0761200000001 C 546.5158900000002 588.14173 548.7293000000002 591.2064300000001 550.9738000000002 594.1859800000001 Z M 1005.6444900000001 586.1123100000001 L 1004.1029800000001 585.0468200000001 C 1006.2321300000001 581.9674800000001 1008.3247200000001 578.8094000000001 1010.3211800000001 575.6604700000001 L 1011.9048000000001 576.6637100000002 C 1009.89459 579.83364 1007.78833 583.01278 1005.64447 586.11226 Z M 536.6042000000001 576.7168100000001 C 534.5953900000001 573.5495700000001 532.6227600000001 570.2972500000001 530.7407100000001 567.0494500000001 L 532.3627800000002 566.1102400000001 C 534.2319800000001 569.3360700000001 536.1917800000001 572.5664200000001 538.1869100000001 575.7126000000001 Z M 1017.7825500000001 566.9688800000001 L 1016.1604800000001 566.0296700000001 C 1018.0370100000001 562.7864500000002 1019.8686700000001 559.4682100000001 1021.6051800000001 556.1682800000001 L 1023.2638700000001 557.0415700000001 C 1021.5163100000001 560.3634700000001 1019.6718700000001 563.7037500000001 1017.7824900000002 566.9688800000001 Z M 525.27316 557.155 C 523.52661 553.83859 521.82309 550.4397299999999 520.21016 547.05283 L 521.9027 546.2472799999999 C 523.50508 549.61128 525.1971599999999 552.9872799999999 526.9318099999999 556.28171 Z M 1028.34137 546.89816 L 1026.6478900000002 546.09262 C 1028.2525600000001 542.71671 1029.8114600000001 539.26022 1031.2797200000002 535.81839 L 1033.0043300000002 536.55439 C 1031.526 540.01906 1029.957 543.49935 1028.34137 546.89815 Z M 515.5603700000001 536.76028 C 514.0838700000002 533.30746 512.6613700000001 529.7850599999999 511.33176000000014 526.29013 L 513.0837600000001 525.62375 C 514.4046500000001 529.0939599999999 515.8175500000001 532.59348 517.28398 536.02249 Z M 1037.24622 526.0255999999999 L 1035.49322 525.36105 C 1036.82232 521.8542199999999 1038.09656 518.27963 1039.2783200000001 514.7380499999999 L 1041.0560300000002 515.3311899999999 C 1039.867 518.89748 1038.58453 522.495 1037.24621 526.02559 Z M 507.52014 515.62777 C 506.32648 512.0641700000001 505.19049 508.42739000000006 504.14377 504.81985000000003 L 505.9443 504.29806 C 506.98419 507.88088000000005 508.11239 511.49294000000003 509.29782 515.03274 Z M 1044.42102 504.51777000000004 L 1042.61957 503.99777000000006 C 1043.6539300000002 500.42044000000004 1044.63067 496.76535000000007 1045.52319 493.1321700000001 L 1047.3429500000002 493.5788900000001 C 1046.44494 497.23678 1045.46179 500.91756 1044.421 504.51778 Z M 501.20902 493.88377 C 500.30830000000003 490.2332 499.47117000000003 486.51768000000004 498.71964 482.83877 L 500.55683000000005 482.46346 C 501.30283000000003 486.1177 502.13450000000006 489.80946 503.02883 493.43525999999997 Z M 1049.81992 482.53209000000004 L 1047.98185 482.15861000000007 C 1048.7233099999999 478.50712000000004 1049.40067 474.7842800000001 1049.99571 471.09440000000006 L 1051.8465999999999 471.3928000000001 C 1051.24792 475.10744 1050.566 478.855 1049.81994 482.53213 Z M 496.67972 471.70131 C 496.07872 468.00039 495.54418999999996 464.22902 495.09105999999997 460.49154 L 496.95205999999996 460.26632 C 497.40243999999996 463.97915 497.93335999999994 467.72487 498.53065 471.40102 Z M 1053.42291 460.17848999999995 L 1051.56103 459.95509999999996 C 1052.00683 456.24409999999995 1052.38303 452.47918 1052.6777900000002 448.765 L 1054.5470000000003 448.91328999999996 C 1054.2494500000003 452.65263999999996 1053.8714000000002 456.44276999999994 1053.4229100000002 460.17842999999993 Z M 493.95462 449.22771 C 493.65207 445.48333 493.42141999999996 441.68084 493.26901 437.9255 L 495.14187 437.8495 C 495.29336 441.57968999999997 495.52267 445.35701 495.82286999999997 449.07667 Z M 1055.22062 437.61287 L 1053.34776 437.53872 C 1053.4942400000002 433.80303000000004 1053.56925 430.01972 1053.56925 426.29372 L 1053.56834 425.67263 L 1055.4430300000001 425.67263 L 1055.44395 426.28963000000005 C 1055.4440100000002 430.04403 1055.3690000000001 433.85204000000004 1055.2206800000001 437.61287000000004 Z M 494.907 426.60448 L 493.03231 426.60448 L 493.03276 426.2896 C 493.03276 422.63265 493.10376 418.92901 493.24422 415.28625 L 495.11708 415.35857 C 494.97794999999996 418.97757 494.90746 422.65645 494.90746 426.29372 Z M 1053.32119 414.43035000000003 C 1053.16646 410.70794 1052.9339799999998 406.93062000000003 1052.62825 403.20409 L 1054.49746 403.05123000000003 C 1054.8041 406.80291000000005 1055.03846 410.60497000000004 1055.19405 414.35253000000006 Z M 495.774 404.13094 L 493.9048 403.98449 C 494.19954 400.23049 494.57396 396.43989999999997 495.01699 392.71703 L 496.87886000000003 392.93856 C 496.43851 396.63668 496.06686 400.40258 495.774 404.13094 Z M 1051.48778 392.0154 C 1051.03557 388.31817 1050.50102 384.5724 1049.8968399999999 380.8825 L 1051.7477299999998 380.57998 C 1052.3546 384.29461 1052.8937899999999 388.06550999999996 1053.34783 391.78837999999996 Z M 498.4313 381.80016 L 496.58038000000005 381.50356 C 497.17447000000004 377.79168 497.85232 374.04275 498.59607000000005 370.36199 L 500.43323000000004 370.73272 C 499.695 374.38921 499.02173 378.11254 498.4313 381.80016 Z M 1047.85736 369.82192 C 1047.10492 366.15855999999997 1046.26916 362.46864999999997 1045.3729799999999 358.85335 L 1047.19275 358.40206 C 1048.0953299999999 362.04162 1048.9365799999998 365.75716 1049.6935999999998 369.44478 Z M 502.88054999999997 359.75592 L 501.05938999999995 359.31104 C 501.95098999999993 355.66231999999997 502.93044999999995 351.98064999999997 503.97029999999995 348.36764999999997 L 505.77178999999995 348.8862 C 504.73873999999995 352.47497999999996 503.76619999999997 356.13192999999995 502.88051999999993 359.75591999999995 Z M 1042.4465500000001 347.99417 C 1041.4030300000002 344.41367 1040.2715500000002 340.80292 1039.0816200000002 337.2627 L 1040.8592700000002 336.66586 C 1042.0566000000001 340.22986000000003 1043.1962700000001 343.86486 1044.2461700000001 347.46967 Z M 509.101 338.14373 L 507.322 337.55239 C 508.50834 333.98284 509.7862 330.38311 511.1204 326.85339 L 512.87428 327.51614 C 511.54873 331.02251 510.27911 334.598 509.101 338.14373 Z M 1035.28276 326.67626 C 1033.95085 323.18911 1032.53386 319.69188 1031.0710900000001 316.28118 L 1032.7938700000002 315.54247 C 1034.26671 318.97605999999996 1035.69377 322.49663 1037.0348700000002 326.00712999999996 Z M 517.07537 317.05376 L 515.34987 316.31963 C 516.82317 312.85628 518.38848 309.37417 520.00187 305.97121000000004 L 521.69578 306.77401000000003 C 520.09292 310.1545 518.5386 313.6133 517.07538 317.05376 Z M 1026.44109 306.06093 C 1024.8364100000001 302.70054999999996 1023.14116 299.32647 1021.4019000000001 296.03245999999996 L 1023.0587600000001 295.15691 C 1024.81076 298.47335 1026.51799 301.86991 1028.1327600000002 305.25359 Z M 526.72856 296.69246 L 525.06804 295.82192 C 526.81551 292.49129 528.65633 289.14921999999996 530.53884 285.88817 L 532.1627400000001 286.82552 C 530.2925600000001 290.06462999999997 528.4641000000001 293.38469 526.7285300000001 296.69243 Z M 1015.959 286.21224 C 1014.08431 282.98507 1012.12172 279.75649 1010.1243499999999 276.61535000000003 L 1011.7061299999999 275.60935000000006 C 1013.71724 278.7715600000001 1015.69265 282.02207000000004 1017.5801299999999 285.27035000000006 Z M 537.98955 277.18886000000003 L 536.40502 276.18651000000006 C 538.4161300000001 273.00692000000004 540.51921 269.82551000000007 542.65526 266.73107000000005 L 544.19768 267.79607000000004 C 542.07579 270.86995 539.98735 274.02984000000004 537.98955 277.18883000000005 Z M 1003.90615 267.25786000000005 C 1001.7797400000001 264.19362000000007 999.56264 261.13076000000007 997.31722 258.15575000000007 L 998.81295 257.0261700000001 C 1001.07395 260.0212900000001 1003.30562 263.1043000000001 1005.44582 266.1896300000001 Z M 550.77745 258.66244000000006 L 549.27895 257.53652000000005 C 551.5381 254.52952000000005 553.88836 251.52886000000007 556.26424 248.61703000000006 L 557.71694 249.80245000000005 C 555.3566500000001 252.69457000000006 553.02194 255.67550000000006 550.77742 258.66240000000005 Z M 990.36672 249.32232000000005 C 988.00228 246.43749000000005 985.5453699999999 243.56090000000006 983.06655 240.77263000000005 L 984.4670600000001 239.52682000000004 C 986.96334 242.33382000000003 989.4357500000001 245.22964000000005 991.81667 248.13415000000003 Z M 565.00482 241.229 L 563.60153 239.98685 C 566.09045 237.17477 568.6723000000001 234.37285 571.27563 231.65869 L 572.6286299999999 232.95669 C 570.0426299999999 235.65246000000002 567.4777499999999 238.43612000000002 565.0048499999999 241.22896 Z M 975.4286500000001 232.51913000000002 C 972.83447 229.82745000000003 970.15515 227.15546 967.4639300000001 224.57681000000002 L 968.7610500000001 223.22296000000003 C 971.4696600000001 225.81896000000003 974.1673000000001 228.50885000000002 976.77795 231.21838000000002 Z M 580.5750700000001 224.99698 L 579.2752100000001 223.64587 C 581.9802100000002 221.04297 584.7771000000001 218.45795 587.5873400000002 215.9617 L 588.8322100000001 217.36313 C 586.0402800000002 219.84290000000001 583.2621400000002 222.41147 580.5750100000001 224.99695000000003 Z M 959.18793 216.95764 C 956.38684 214.48108 953.50067 212.03058 950.6107800000001 209.67487 L 951.7952900000001 208.22171 C 954.7042900000001 210.59348 957.6098000000002 213.05997 960.4292000000002 215.55347 Z M 597.38653 210.06757 L 596.19836 208.61757 C 599.10699 206.23528 602.10028 203.8832 605.0945399999999 201.62589 L 606.2231999999999 203.12255 C 603.2485899999999 205.36477 600.2754499999999 207.70174 597.3864699999999 210.06754999999998 Z M 941.7453 202.74039 C 938.75476 200.49586 935.6799900000001 198.28384 932.60888 196.16565 L 933.67254 194.62231 C 936.76471 196.75469999999999 939.8596200000001 198.98137 942.87121 201.24099999999999 Z M 615.3303000000001 196.53682999999998 L 614.2620600000001 194.99624999999997 C 617.3523900000001 192.85470999999998 620.5228000000002 190.75069999999997 623.6854600000001 188.74233999999998 L 624.6905300000002 190.32503999999997 C 621.5489900000002 192.31960999999998 618.3995300000001 194.40943999999996 615.3303000000002 196.53678999999997 Z M 923.2125000000001 189.96164 C 920.0516700000001 187.96518999999998 916.8085000000001 186.00672999999998 913.5716900000001 184.14072 L 914.5090700000001 182.51683 C 917.76607 184.3952 921.0311700000001 186.36693 924.21397 188.37666 Z M 634.2902000000001 184.49634999999998 L 633.3496500000001 182.87429999999998 C 636.5910400000001 180.99454999999998 639.9184300000001 179.15279999999998 643.2385000000002 177.40122999999997 L 644.1136200000002 179.05898999999997 C 640.8150400000002 180.79906999999997 637.5100500000002 182.62845999999996 634.2902000000001 184.49628999999996 Z M 903.7029200000002 178.71158999999997 C 900.3920100000001 176.97693999999998 896.9995500000002 175.28576999999999 893.6190600000002 173.68522999999996 L 894.4209400000002 171.99085999999997 C 897.8243200000002 173.60192999999998 901.2405200000002 175.30452999999997 904.5725500000002 177.05108999999996 Z M 654.14435 174.0248 L 653.3374600000001 172.33225 C 656.7179500000001 170.72072 660.18046 169.15449999999998 663.6290900000001 167.67708 L 664.3668800000002 169.40028999999998 C 660.9415300000002 170.86756999999997 657.5019500000002 172.42328999999998 654.1443500000001 174.02473999999998 Z M 883.33655 169.07029 C 879.89105 167.60705 876.37048 166.19599 872.87189 164.87508 L 873.5346 163.12121 C 877.0560899999999 164.45081 880.60138 165.87194 884.06885 167.34479 Z M 674.76471 165.1941 L 674.0969200000001 163.44209999999998 C 677.60467 162.10470999999998 681.1911600000001 160.82044 684.7565300000001 159.62448999999998 L 685.3524100000001 161.40216999999998 C 681.8113400000001 162.58977 678.24908 163.86581999999999 674.76471 165.19403999999997 Z M 862.2415100000001 161.10737 C 858.69897 159.93247 855.0841 158.81437 851.4967600000001 157.78406 L 852.0148900000002 155.98260000000002 C 855.6261000000002 157.01972 859.2647100000002 158.14519 862.8310500000001 159.32787000000002 Z M 696.0867300000001 158.04175 L 695.56311 156.2421 C 699.1683300000001 155.1931 702.84729 154.20355999999998 706.49737 153.30052999999998 L 706.94775 155.12031 C 703.3219 156.01730999999998 699.6677500000001 157.00045 696.08675 158.04169 Z M 840.6261600000001 154.89969000000002 C 837.0067100000001 154.01682000000002 833.3126800000001 153.19526000000002 829.6475200000001 152.45791000000003 L 830.0173300000001 150.61982000000003 C 833.7072100000001 151.36220000000003 837.4259600000001 152.18970000000004 841.0701300000002 153.07808000000003 Z M 717.9171600000002 152.64277 L 717.5409400000002 150.80651 C 721.2161700000003 150.05405 724.9628800000002 149.3657 728.6770500000002 148.76017000000002 L 728.9791100000002 150.61017 C 725.28924 151.212 721.56775 151.8958 717.91717 152.64277 Z M 818.5795200000002 150.46233 C 814.8928100000003 149.87465 811.1447600000002 149.3538 807.4393200000002 148.91533 L 807.6599000000002 147.05344000000002 C 811.3900600000002 147.49511 815.1633200000002 148.01917000000003 818.8742600000003 148.61144000000002 Z M 740.1129000000002 149.02563 L 739.8859000000002 147.16463000000002 C 743.6151500000002 146.71063 747.4049000000002 146.32563000000002 751.1497000000002 146.02178 L 751.3017000000002 147.89008 C 747.5816100000002 148.19263 743.8170900000002 148.57435 740.1129800000002 149.02563 Z M 796.2469000000002 147.81687 C 792.5304600000002 147.52715 788.7526300000002 147.30837 785.0188100000003 147.16694999999999 L 785.0902200000003 145.29315999999997 C 788.8487600000003 145.43595999999997 792.6512200000003 145.65615999999997 796.3924600000003 145.94764999999998 Z M 762.5283300000002 147.2031 L 762.4514200000002 145.33024 C 766.1999000000002 145.17554 770.0084200000002 145.09406 773.7710700000002 145.08767 L 773.7738100000003 146.96236 C 770.0363800000002 146.96876999999998 766.2526300000003 147.04978 762.5283900000003 147.20309999999998 Z" stroke-linecap="round" />
</g>
<g transform="matrix(0.41 0 0 0.41 777.45 270.11)" id="Nb25Nul8VCR0imvDe6Hcb"  >
<path style="stroke: none; stroke-width: 1; stroke-dasharray: none; stroke-linecap: butt; stroke-dashoffset: 0; stroke-linejoin: miter; stroke-miterlimit: 4; fill: rgb(63,61,86); fill-rule: nonzero; opacity: 1;" vector-effect="non-scaling-stroke"  transform=" translate(-180.91, -180.91)" d="M 0 180.90894 C 0 80.99569 80.99569 0 180.90894 0 C 280.82219 0 361.81788 80.99569 361.81788 180.90894 C 361.81788 280.82219 280.82219 361.81788 180.90894 361.81788 C 80.99569 361.81788 0 280.82219 0 180.90894 z" stroke-linecap="round" />
</g>
<g transform="matrix(0.41 0 0 0.41 750.91 270.11)" id="jNyDDBKgZmlMOaqbXux4b"  >
<path style="stroke: none; stroke-width: 1; stroke-dasharray: none; stroke-linecap: butt; stroke-dashoffset: 0; stroke-linejoin: miter; stroke-miterlimit: 4; fill: rgb(255,255,255); fill-rule: nonzero; opacity: 1;" vector-effect="non-scaling-stroke"  transform=" translate(-96.08, -132.17)" d="M 0 132.16663 C 0 59.173019999999994 43.01586 0 96.07861 0 C 149.14136 0 192.15722 59.17302 192.15722 132.16663 C 192.15722 205.16024 149.14136 264.33326 96.07861 264.33326 C 43.015859999999996 264.33326 0 205.16024 0 132.16663 z" stroke-linecap="round" />
</g>
<g transform="matrix(0.41 0 0 0.41 737.75 281.41)" id="CaE0x9AlufBgLdMJIU_IS"  >
<path style="stroke: none; stroke-width: 1; stroke-dasharray: none; stroke-linecap: butt; stroke-dashoffset: 0; stroke-linejoin: miter; stroke-miterlimit: 4; fill: rgb(63,61,86); fill-rule: nonzero; opacity: 1;" vector-effect="non-scaling-stroke"  transform=" translate(-26.81, -42.18)" d="M 0 42.18085 C 0 18.88501 12.00516 0 26.81427 0 C 41.62338 0 53.62854 18.88501 53.62854 42.18085 C 53.62854 65.47668999999999 41.62338 84.3617 26.81427 84.3617 C 12.00516 84.3617 0 65.47668999999999 0 42.18085 z" stroke-linecap="round" />
</g>
<g transform="matrix(0.41 0 0 0.41 780.54 107.58)" id="KkwU8ADyE64ICCEEUFxAZ"  >
<path style="stroke: none; stroke-width: 1; stroke-dasharray: none; stroke-linecap: butt; stroke-dashoffset: 0; stroke-linejoin: miter; stroke-miterlimit: 4; fill: rgb(40,88,235); fill-rule: nonzero; opacity: 1;" vector-effect="non-scaling-stroke"  transform=" translate(-26.25, -26.25)" d="M 0 26.24586 C 0 11.750670000000001 11.75067 0 26.24586 0 C 40.74105 0 52.49172 11.75067 52.49172 26.24586 C 52.49172 40.74105 40.74105 52.49172 26.24586 52.49172 C 11.750670000000001 52.49172 0 40.74105 0 26.24586 z" stroke-linecap="round" />
</g>
<g transform="matrix(0.41 0 0 0.41 924.34 229.32)" id="aGreleR-5zPvV4TZgK1sU"  >
<path style="stroke: none; stroke-width: 1; stroke-dasharray: none; stroke-linecap: butt; stroke-dashoffset: 0; stroke-linejoin: miter; stroke-miterlimit: 4; fill: rgb(40,88,235); fill-rule: nonzero; opacity: 1;" vector-effect="non-scaling-stroke"  transform=" translate(-17.81, -17.81)" d="M 0 17.80969 C 0 7.97367 7.97367 0 17.80969 0 C 27.64571 0 35.61938 7.97367 35.61938 17.80969 C 35.61938 27.64571 27.64571 35.61938 17.80969 35.61938 C 7.97367 35.61938 0 27.64571 0 17.80969 z" stroke-linecap="round" />
</g>
<g transform="matrix(0.41 0 0 0.41 832.13 384.62)" id="C65buikrJzL5AHchsnrKm"  >
<path style="stroke: none; stroke-width: 1; stroke-dasharray: none; stroke-linecap: butt; stroke-dashoffset: 0; stroke-linejoin: miter; stroke-miterlimit: 4; fill: rgb(40,88,235); fill-rule: nonzero; opacity: 1;" vector-effect="non-scaling-stroke"  transform=" translate(-17.81, -17.81)" d="M 0 17.80969 C 0 7.97367 7.97367 0 17.80969 0 C 27.64571 0 35.61938 7.97367 35.61938 17.80969 C 35.61938 27.64571 27.64571 35.61938 17.80969 35.61938 C 7.97367 35.61938 0 27.64571 0 17.80969 z" stroke-linecap="round" />
</g>
</svg>