<?xml version="1.0" encoding="UTF-8" standalone="no" ?>
<!DOCTYPE svg PUBLIC "-//W3C//DTD SVG 1.1//EN" "http://www.w3.org/Graphics/SVG/1.1/DTD/svg11.dtd">
<svg xmlns="http://www.w3.org/2000/svg" xmlns:xlink="http://www.w3.org/1999/xlink" version="1.1" width="1000" height="450" viewBox="0 0 1000 450" xml:space="preserve">
<desc>Created with Fabric.js 4.6.0</desc>
<defs>
</defs>
<g transform="matrix(0.56 0 0.01 0.53 564.87 16.47)" id="aj0ePC0fUks4NSstGXuf9"  >
<path style="stroke: rgb(108,99,255); stroke-width: 3; stroke-dasharray: none; stroke-linecap: butt; stroke-dashoffset: 0; stroke-linejoin: miter; stroke-miterlimit: 10; fill: none; fill-rule: nonzero; opacity: 0.1;" vector-effect="non-scaling-stroke"  transform=" translate(-655.28, -107.13)" d="M 628.74 98.79 C 631.07 97.44000000000001 634.22 98.73 635.82 100.91000000000001 C 637.4200000000001 103.09000000000002 637.82 105.91000000000001 638.2700000000001 108.53000000000002 C 639.1600000000001 114.45000000000002 639.8100000000001 121.24000000000001 635.82 125.69000000000001 C 642.34 105.92000000000002 661.09 90.78000000000002 681.82 88.57000000000002" stroke-linecap="round" />
</g>
<g transform="matrix(1.24 0 0 1.04 663.25 122.09)" id="tug60tZmwA5BoMRuFkxdP"  >
<path style="stroke: rgb(108,99,255); stroke-width: 3; stroke-dasharray: none; stroke-linecap: butt; stroke-dashoffset: 0; stroke-linejoin: miter; stroke-miterlimit: 10; fill: none; fill-rule: nonzero; opacity: 0.1;" vector-effect="non-scaling-stroke"  transform=" translate(-762.26, -235.1)" d="M 745.21 229.77 C 746.71 228.9 748.73 229.77 749.76 231.13000000000002 C 750.6772543833326 232.61056550044094 751.2195901251184 234.29249280091574 751.34 236.03000000000003 C 751.9100000000001 239.84000000000003 752.34 244.20000000000002 749.77 247.03000000000003 C 754.2446187141616 234.07697744890075 765.7156734362702 224.8108496581484 779.3199999999999 223.16000000000003" stroke-linecap="round" />
</g>
<g transform="matrix(0.76 0 0 0.7 880.33 198.99)" id="7qV-I4MC0eKKnP4vXc3BT"  >
<path style="stroke: none; stroke-width: 1; stroke-dasharray: none; stroke-linecap: butt; stroke-dashoffset: 0; stroke-linejoin: miter; stroke-miterlimit: 4; fill: rgb(40,88,235); fill-rule: nonzero; opacity: 0.1;" vector-effect="non-scaling-stroke"  transform=" translate(-706.32, -550)" d="M 708.32 566 L 708.32 541.7 L 719.5200000000001 552.9000000000001 L 722.32 550.0000000000001 L 706.32 534.0000000000001 L 690.32 550.0000000000001 L 693.12 552.7900000000001 L 704.32 541.7 L 704.32 566 Z" stroke-linecap="round" />
</g>
<g transform="matrix(0.72 0 0 0.65 728.4 149.44)" id="TSAELY3gosRmvdo8Y7nZj"  >
<path style="stroke: none; stroke-width: 1; stroke-dasharray: none; stroke-linecap: butt; stroke-dashoffset: 0; stroke-linejoin: miter; stroke-miterlimit: 4; fill: rgb(63,61,86); fill-rule: nonzero; opacity: 1;" vector-effect="non-scaling-stroke"  transform=" translate(-735.95, -356.28)" d="M 979.45472 184.27953 L 492.45471999999995 184.27953 C 488.5905041497772 184.28381765573172 485.4590076557317 187.4153141497772 485.45471999999995 191.27953 L 485.45471999999995 521.27953 C 485.4590131551484 525.1437435687122 488.5905064312878 528.2752368448516 492.45471999999995 528.27953 L 979.45472 528.27953 C 983.3189358502227 528.2752423442683 986.4504323442683 525.1437458502228 986.45472 521.27953 L 986.45472 191.27953000000002 C 986.4504323442683 187.41531414977723 983.3189358502227 184.28381765573172 979.45472 184.27953 Z M 984.45472 521.27953 C 984.4536162755254 524.0404964422756 982.2156864422756 526.2784262755255 979.45472 526.27953 L 492.45471999999995 526.27953 C 489.69375355772434 526.2784262755255 487.4558237244745 524.0404964422756 487.45471999999995 521.27953 L 487.45471999999995 191.27953000000002 C 487.4558237244745 188.51856355772438 489.69375355772434 186.2806337244746 492.45471999999995 186.27953000000002 L 979.45472 186.27953000000002 C 982.2156864422756 186.2806337244746 984.4536162755254 188.51856355772438 984.45472 191.27953000000002 Z" stroke-linecap="round" />
</g>
<g transform="matrix(0.72 0 0 0.65 728.4 56.39)" id="MhkR8hDgDxLOSSdg7hRrL"  >
<path style="stroke: none; stroke-width: 1; stroke-dasharray: none; stroke-linecap: butt; stroke-dashoffset: 0; stroke-linejoin: miter; stroke-miterlimit: 4; fill: rgb(63,61,86); fill-rule: nonzero; opacity: 1;" vector-effect="non-scaling-stroke"  transform=" translate(-249.5, -1)" d="M 0 2 L 0 0 L 499 0 L 499 2 z" stroke-linecap="round" />
</g>
<g transform="matrix(0.72 0 0 0.65 561.1 47.25)" id="K5RXdp3_8hquni6i5IXlJ"  >
<path style="stroke: none; stroke-width: 1; stroke-dasharray: none; stroke-linecap: butt; stroke-dashoffset: 0; stroke-linejoin: miter; stroke-miterlimit: 4; fill: rgb(63,61,86); fill-rule: nonzero; opacity: 1;" vector-effect="non-scaling-stroke"  transform=" translate(-6, -6)" d="M 0 6 C 0 2.68629 2.68629 0 6 0 C 9.31371 0 12 2.68629 12 6 C 12 9.31371 9.31371 12 6 12 C 2.68629 12 0 9.31371 0 6 z" stroke-linecap="round" />
</g>
<g transform="matrix(0.72 0 0 0.65 573.52 47.25)" id="CdWY0Uatsb3eGRk8BvOHV"  >
<path style="stroke: none; stroke-width: 1; stroke-dasharray: none; stroke-linecap: butt; stroke-dashoffset: 0; stroke-linejoin: miter; stroke-miterlimit: 4; fill: rgb(63,61,86); fill-rule: nonzero; opacity: 1;" vector-effect="non-scaling-stroke"  transform=" translate(-6, -6)" d="M 0 6 C 0 2.68629 2.68629 0 6 0 C 9.31371 0 12 2.68629 12 6 C 12 9.31371 9.31371 12 6 12 C 2.68629 12 0 9.31371 0 6 z" stroke-linecap="round" />
</g>
<g transform="matrix(0.72 0 0 0.65 585.94 47.25)" id="zX2wVRfT75C5_7iwsGmGI"  >
<path style="stroke: none; stroke-width: 1; stroke-dasharray: none; stroke-linecap: butt; stroke-dashoffset: 0; stroke-linejoin: miter; stroke-miterlimit: 4; fill: rgb(63,61,86); fill-rule: nonzero; opacity: 1;" vector-effect="non-scaling-stroke"  transform=" translate(-6, -6)" d="M 0 6 C 0 2.68629 2.68629 0 6 0 C 9.31371 0 12 2.68629 12 6 C 12 9.31371 9.31371 12 6 12 C 2.68629 12 0 9.31371 0 6 z" stroke-linecap="round" />
</g>
<g transform="matrix(0.72 0 0 0.65 606.34 81.42)" id="IFzSGJjAU3Q_MTNwcM-cR"  >
<path style="stroke: none; stroke-width: 1; stroke-dasharray: none; stroke-linecap: butt; stroke-dashoffset: 0; stroke-linejoin: miter; stroke-miterlimit: 4; fill: rgb(204,204,204); fill-rule: nonzero; opacity: 1;" vector-effect="non-scaling-stroke"  transform=" translate(-566.32, -251.78)" d="M 608.32283 258.77953 L 524.32283 258.77953 C 520.4568367511844 258.77953 517.32283 255.64552324881558 517.32283 251.77953000000002 C 517.32283 247.91353675118447 520.4568367511844 244.77953000000002 524.32283 244.77953000000002 L 608.32283 244.77953000000002 C 612.1888232488155 244.77953000000002 615.32283 247.91353675118447 615.32283 251.77953000000002 C 615.32283 255.64552324881558 612.1888232488155 258.77953 608.32283 258.77953 Z" stroke-linecap="round" />
</g>
<g transform="matrix(0.72 0 0 0.65 647.72 103.55)" id="9V7SGemrwZDQFT62k0SCW"  >
<path style="stroke: none; stroke-width: 1; stroke-dasharray: none; stroke-linecap: butt; stroke-dashoffset: 0; stroke-linejoin: miter; stroke-miterlimit: 4; fill: rgb(204,204,204); fill-rule: nonzero; opacity: 1;" vector-effect="non-scaling-stroke"  transform=" translate(-623.82, -285.78)" d="M 723.32283 292.77953 L 524.32283 292.77953 C 520.4568367511844 292.77953 517.32283 289.64552324881555 517.32283 285.77953 C 517.32283 281.9135367511845 520.4568367511844 278.77953 524.32283 278.77953 L 723.32283 278.77953 C 727.1888232488155 278.77953 730.32283 281.91353675118444 730.32283 285.77953 C 730.32283 289.64552324881555 727.1888232488155 292.77953 723.32283 292.77953 Z" stroke-linecap="round" />
</g>
<g transform="matrix(0.72 0 0 0.65 786.78 163.27)" id="j8MsipPRfMMImM3xF2Rme"  >
<path style="stroke: none; stroke-width: 1; stroke-dasharray: none; stroke-linecap: butt; stroke-dashoffset: 0; stroke-linejoin: miter; stroke-miterlimit: 4; fill: rgb(40,88,235); fill-rule: nonzero; opacity: 1;" vector-effect="non-scaling-stroke"  transform=" translate(-817.09, -377.54)" d="M 787.54267 306.30254 C 768.4380345367838 334.1567622985857 766.3320662368104 370.300890288912 782.0725060201756 400.1853904765956 C 797.8129458035407 430.0698906642792 828.8102159599118 448.7782399638442 862.5866100000001 448.77954 L 862.5866100000001 369.33954 Z" stroke-linecap="round" />
</g>
<g transform="matrix(0.72 0 0 0.65 792.52 124.56)" id="BibjGmyCzoX94-4VjfzQ-"  >
<path style="stroke: none; stroke-width: 1; stroke-dasharray: none; stroke-linecap: butt; stroke-dashoffset: 0; stroke-linejoin: miter; stroke-miterlimit: 4; fill: rgb(204,204,204); fill-rule: nonzero; opacity: 1;" vector-effect="non-scaling-stroke"  transform=" translate(-825.06, -318.06)" d="M 862.58661 266.77953 C 832.5819345920359 266.76040271645405 804.5008414132355 281.549725421335 787.5426699999999 306.30253000000005 L 862.58661 369.33953 Z" stroke-linecap="round" />
</g>
<g transform="matrix(0.72 0 0 0.65 852.26 150.41)" id="-f3bJUICUW_3qi_wXLRSL"  >
<path style="stroke: none; stroke-width: 1; stroke-dasharray: none; stroke-linecap: butt; stroke-dashoffset: 0; stroke-linejoin: miter; stroke-miterlimit: 4; fill: rgb(63,61,86); fill-rule: nonzero; opacity: 1;" vector-effect="non-scaling-stroke"  transform=" translate(-908.09, -357.78)" d="M 862.58661 449.77953 L 861.58661 449.77953 L 861.58661 265.77953 L 862.58661 265.77953 C 913.3968069844329 265.77953 954.58661 306.969333015567 954.58661 357.77953 C 954.58661 408.589726984433 913.3968069844329 449.77953 862.58661 449.77953 Z M 863.58661 267.7849 L 863.58661 447.77416 C 912.8990611078401 447.225999934176 952.586414474715 407.0950277032665 952.586414474715 357.77953 C 952.586414474715 308.4640322967335 912.8990611078401 268.33306006582404 863.58661 267.7849 Z" stroke-linecap="round" />
</g>
<g transform="matrix(0.72 0 0 0.65 611.74 215.82)" id="AUcDWPSmZd_Lp943vLauu"  >
<path style="stroke: none; stroke-width: 1; stroke-dasharray: none; stroke-linecap: butt; stroke-dashoffset: 0; stroke-linejoin: miter; stroke-miterlimit: 4; fill: rgb(204,204,204); fill-rule: nonzero; opacity: 1;" vector-effect="non-scaling-stroke"  transform=" translate(-573.82, -458.28)" d="M 582.32283 487.27953 L 565.32283 487.27953 C 562.838709164951 487.2767304415061 560.8256295584938 485.263650835049 560.82283 482.77953 L 560.82283 433.77953 C 560.8256295584938 431.295409164951 562.838709164951 429.2823295584939 565.32283 429.27953 L 582.32283 429.27953 C 584.8069531164737 429.2823240594054 586.8200359405946 431.29540688352637 586.82283 433.77953 L 586.82283 482.77953 C 586.8200304415061 485.263650835049 584.806950835049 487.2767304415061 582.32283 487.27953 Z" stroke-linecap="round" />
</g>
<g transform="matrix(0.72 0 0 0.65 647.72 208.33)" id="GOTMpVyPauCRUVxHITyl5"  >
<path style="stroke: none; stroke-width: 1; stroke-dasharray: none; stroke-linecap: butt; stroke-dashoffset: 0; stroke-linejoin: miter; stroke-miterlimit: 4; fill: rgb(255,101,132); fill-rule: nonzero; opacity: 1;" vector-effect="non-scaling-stroke"  transform=" translate(-623.82, -446.78)" d="M 632.32283 487.27953 L 615.32283 487.27953 C 612.838709164951 487.2767304415061 610.8256295584938 485.263650835049 610.82283 482.77953 L 610.82283 410.77953 C 610.8256295584938 408.295409164951 612.838709164951 406.2823295584939 615.32283 406.27953 L 632.32283 406.27953 C 634.8069531164737 406.2823240594054 636.8200359405946 408.29540688352637 636.82283 410.77953 L 636.82283 482.77953 C 636.8200304415061 485.263650835049 634.806950835049 487.2767304415061 632.32283 487.27953 Z" stroke-linecap="round" />
</g>
<g transform="matrix(0.72 0 0 0.65 683.69 201.83)" id="KWUOvsOvA893NA3ADxzto"  >
<path style="stroke: none; stroke-width: 1; stroke-dasharray: none; stroke-linecap: butt; stroke-dashoffset: 0; stroke-linejoin: miter; stroke-miterlimit: 4; fill: rgb(40,88,235); fill-rule: nonzero; opacity: 1;" vector-effect="non-scaling-stroke"  transform=" translate(-673.82, -436.78)" d="M 682.32283 487.27953 L 665.32283 487.27953 C 662.838709164951 487.2767304415061 660.8256295584938 485.263650835049 660.82283 482.77953 L 660.82283 390.77953 C 660.8256295584938 388.295409164951 662.838709164951 386.2823295584939 665.32283 386.27953 L 682.32283 386.27953 C 684.8069531164737 386.2823240594054 686.8200359405946 388.29540688352637 686.82283 390.77953 L 686.82283 482.77953 C 686.8200304415061 485.263650835049 684.806950835049 487.2767304415061 682.32283 487.27953 Z" stroke-linecap="round" />
</g>
<g transform="matrix(0.72 0 0 0.65 611.74 195.97)" id="d5AnUtGjUWkrlLCuFxD72"  >
<path style="stroke: none; stroke-width: 1; stroke-dasharray: none; stroke-linecap: butt; stroke-dashoffset: 0; stroke-linejoin: miter; stroke-miterlimit: 4; fill: rgb(63,61,86); fill-rule: nonzero; opacity: 1;" vector-effect="non-scaling-stroke"  transform=" translate(-573.82, -427.78)" d="M 582.32283 487.77953 L 565.32283 487.77953 C 562.5627152572353 487.7763723334299 560.3259876665701 485.5396447427648 560.32283 482.77953 L 560.32283 372.77953 C 560.3259876665701 370.01941525723527 562.5627152572353 367.78268766657015 565.32283 367.77953 L 582.32283 367.77953 C 585.0829447427647 367.78268766657015 587.3196723334298 370.01941525723527 587.32283 372.77953 L 587.32283 482.77953 C 587.3196723334298 485.5396447427648 585.0829447427647 487.7763723334299 582.32283 487.77953 Z M 565.32283 369.77953 C 563.666725107127 369.78133771165324 562.3246377116532 371.12342510712716 562.32283 372.77953 L 562.32283 482.77953 C 562.3246432114298 484.4356326112681 563.6667273887319 485.7777167885702 565.32283 485.77953 L 582.32283 485.77953 C 583.9789348928729 485.7777222883468 585.3210222883467 484.4356348928729 585.32283 482.77953 L 585.32283 372.77953 C 585.3210222883467 371.12342510712716 583.9789348928729 369.78133771165324 582.32283 369.77953 Z" stroke-linecap="round" />
</g>
<g transform="matrix(0.72 0 0 0.65 647.72 195.97)" id="flK9YLuSChavEAeD854jl"  >
<path style="stroke: none; stroke-width: 1; stroke-dasharray: none; stroke-linecap: butt; stroke-dashoffset: 0; stroke-linejoin: miter; stroke-miterlimit: 4; fill: rgb(63,61,86); fill-rule: nonzero; opacity: 1;" vector-effect="non-scaling-stroke"  transform=" translate(-623.82, -427.78)" d="M 632.32283 487.77953 L 615.32283 487.77953 C 612.5627152572353 487.7763723334299 610.3259876665701 485.5396447427648 610.32283 482.77953 L 610.32283 372.77953 C 610.3259876665701 370.01941525723527 612.5627152572353 367.78268766657015 615.32283 367.77953 L 632.32283 367.77953 C 635.0829447427647 367.78268766657015 637.3196723334298 370.01941525723527 637.32283 372.77953 L 637.32283 482.77953 C 637.3196723334298 485.5396447427648 635.0829447427647 487.7763723334299 632.32283 487.77953 Z M 615.32283 369.77953 C 613.666725107127 369.78133771165324 612.3246377116532 371.12342510712716 612.32283 372.77953 L 612.32283 482.77953 C 612.3246432114298 484.4356326112681 613.6667273887319 485.7777167885702 615.32283 485.77953 L 632.32283 485.77953 C 633.9789348928729 485.7777222883468 635.3210222883467 484.4356348928729 635.32283 482.77953 L 635.32283 372.77953 C 635.3210222883467 371.12342510712716 633.9789348928729 369.78133771165324 632.32283 369.77953 Z" stroke-linecap="round" />
</g>
<g transform="matrix(0.72 0 0 0.65 683.69 195.97)" id="HcPxvylBty2ahVICS4-CI"  >
<path style="stroke: none; stroke-width: 1; stroke-dasharray: none; stroke-linecap: butt; stroke-dashoffset: 0; stroke-linejoin: miter; stroke-miterlimit: 4; fill: rgb(63,61,86); fill-rule: nonzero; opacity: 1;" vector-effect="non-scaling-stroke"  transform=" translate(-673.82, -427.78)" d="M 682.32283 487.77953 L 665.32283 487.77953 C 662.5627152572353 487.7763723334299 660.3259876665701 485.5396447427648 660.32283 482.77953 L 660.32283 372.77953 C 660.3259876665701 370.01941525723527 662.5627152572353 367.78268766657015 665.32283 367.77953 L 682.32283 367.77953 C 685.0829447427647 367.78268766657015 687.3196723334298 370.01941525723527 687.32283 372.77953 L 687.32283 482.77953 C 687.3196723334298 485.5396447427648 685.0829447427647 487.7763723334299 682.32283 487.77953 Z M 665.32283 369.77953 C 663.666725107127 369.78133771165324 662.3246377116532 371.12342510712716 662.32283 372.77953 L 662.32283 482.77953 C 662.3246432114298 484.4356326112681 663.6667273887319 485.7777167885702 665.32283 485.77953 L 682.32283 485.77953 C 683.9789348928729 485.7777222883468 685.3210222883467 484.4356348928729 685.32283 482.77953 L 685.32283 372.77953 C 685.3210222883467 371.12342510712716 683.9789348928729 369.78133771165324 682.32283 369.77953 Z" stroke-linecap="round" />
</g>
<g transform="matrix(-0.56 0 0 0.66 429.62 181)" id="umiVjWzVZii-WuQLn7Lcd"  >
<path style="stroke: none; stroke-width: 1; stroke-dasharray: none; stroke-linecap: butt; stroke-dashoffset: 0; stroke-linejoin: miter; stroke-miterlimit: 4; fill: rgb(160,97,106); fill-rule: nonzero; opacity: 1;" vector-effect="non-scaling-stroke"  transform=" translate(-503.67, -403.4)" d="M 490.66556 407.72364 C 490.66556 407.72364 511.78211000000005 383.99408999999997 516.16665 393.03709 C 520.5511899999999 402.08009 494.70552 415.82788 494.70552 415.82788 Z" stroke-linecap="round" />
</g>
<g transform="matrix(-0.56 0 0 0.66 466.43 208.27)" id="M9lVGnQdujrK7B4YT8Rgn"  >
<path style="stroke: none; stroke-width: 1; stroke-dasharray: none; stroke-linecap: butt; stroke-dashoffset: 0; stroke-linejoin: miter; stroke-miterlimit: 4; fill: rgb(208,205,225); fill-rule: nonzero; opacity: 1;" vector-effect="non-scaling-stroke"  transform=" translate(-437.87, -444.48)" d="M 501.72048 417.51121 C 501.72048 417.51121 492.33048 420.96121 489.61048 425.15121 C 486.89047999999997 429.35121 477.84048 433.73121 477.84048 433.73121 L 477.05048 434.20121 L 468.51048 439.29121 L 457.32048 445.95121 L 421.90047999999996 467.05121 L 375.15047999999996 485.77121 C 374.79047999999995 479.24121 374.44048 472.71121 374.11047999999994 466.53121 C 374.0104799999999 464.68120999999996 373.99047999999993 462.84121 374.03047999999995 461.00121 C 374.62047999999993 460.82121 375.22047999999995 460.66121000000004 375.83047999999997 460.53121 C 389.66042999999996 457.58121 395.54047999999995 453.29121 395.54047999999995 453.29121 L 422.58047999999997 436.98121 C 422.58047999999997 436.98121 443.81048 423.45121 457.28047999999995 417.10121 C 459.17042999999995 416.20121 460.91041999999993 415.45121 462.41041999999993 414.90121 C 474.6104199999999 410.42121 494.33046999999993 403.18120999999996 494.33046999999993 403.18120999999996 L 494.56046999999995 403.63120999999995 L 499.44046999999995 413.08120999999994 Z" stroke-linecap="round" />
</g>
<g transform="matrix(-0.56 0 0 0.66 466.43 208.27)" id="Y1qPwwTCshb17yGq0801I"  >
<path style="stroke: none; stroke-width: 1; stroke-dasharray: none; stroke-linecap: butt; stroke-dashoffset: 0; stroke-linejoin: miter; stroke-miterlimit: 4; fill: rgb(0,0,0); fill-rule: nonzero; opacity: 0.1;" vector-effect="non-scaling-stroke"  transform=" translate(-437.87, -444.48)" d="M 501.72048 417.51121 C 501.72048 417.51121 492.33048 420.96121 489.61048 425.15121 C 486.89047999999997 429.35121 477.84048 433.73121 477.84048 433.73121 L 477.05048 434.20121 L 468.51048 439.29121 L 457.32048 445.95121 L 421.90047999999996 467.05121 L 375.15047999999996 485.77121 C 374.79047999999995 479.24121 374.44048 472.71121 374.11047999999994 466.53121 C 374.0104799999999 464.68120999999996 373.99047999999993 462.84121 374.03047999999995 461.00121 C 374.62047999999993 460.82121 375.22047999999995 460.66121000000004 375.83047999999997 460.53121 C 389.66042999999996 457.58121 395.54047999999995 453.29121 395.54047999999995 453.29121 L 422.58047999999997 436.98121 C 422.58047999999997 436.98121 443.81048 423.45121 457.28047999999995 417.10121 C 459.17042999999995 416.20121 460.91041999999993 415.45121 462.41041999999993 414.90121 C 474.6104199999999 410.42121 494.33046999999993 403.18120999999996 494.33046999999993 403.18120999999996 L 494.56046999999995 403.63120999999995 L 499.44046999999995 413.08120999999994 Z" stroke-linecap="round" />
</g>
<g transform="matrix(-0.56 0 0 0.66 465.41 424.54)" id="rfYylubYk-YlFyT_PQI28"  >
<path style="stroke: none; stroke-width: 1; stroke-dasharray: none; stroke-linecap: butt; stroke-dashoffset: 0; stroke-linejoin: miter; stroke-miterlimit: 4; fill: rgb(160,97,106); fill-rule: nonzero; opacity: 1;" vector-effect="non-scaling-stroke"  transform=" translate(-316.75, -676.37)" d="M 308.754 666.368 L 308.754 687.368 L 324.754 687.368 L 322.754 665.368 z" stroke-linecap="round" />
</g>
<g transform="matrix(-0.56 0 0 0.66 501.76 425.53)" id="iRD_vmKM_9vo9jOhgFKKZ"  >
<path style="stroke: none; stroke-width: 1; stroke-dasharray: none; stroke-linecap: butt; stroke-dashoffset: 0; stroke-linejoin: miter; stroke-miterlimit: 4; fill: rgb(160,97,106); fill-rule: nonzero; opacity: 1;" vector-effect="non-scaling-stroke"  transform=" translate(-251.75, -677.87)" d="M 246.754 665.368 L 241.754 689.368 L 261.754 690.368 L 261.754 665.368 z" stroke-linecap="round" />
</g>
<g transform="matrix(-0.56 0 0 0.66 479.09 357.13)" id="yywYWTzJIUZcrP3dYAeoB"  >
<path style="stroke: none; stroke-width: 1; stroke-dasharray: none; stroke-linecap: butt; stroke-dashoffset: 0; stroke-linejoin: miter; stroke-miterlimit: 4; fill: rgb(47,46,65); fill-rule: nonzero; opacity: 1;" vector-effect="non-scaling-stroke"  transform=" translate(-415.22, -668.7)" d="M 377.69045 569.24125 C 377.69045 569.24125 372.69045 567.24125 371.69045 585.24125 C 370.69045 603.24125 369.69045 665.24125 369.69045 665.24125 C 369.69045 665.24125 359.69045 720.24125 363.69045 736.24125 C 367.69045 752.24125 367.69045 763.24125 367.69045 763.24125 L 385.69045 763.24125 L 386.69045 753.24125 L 387.69045 726.24125 C 387.69045 726.24125 397.69045 701.24125 394.69045 678.24125 L 418.69045 605.24125 L 430.69045 683.24125 C 430.69045 683.24125 425.69045 702.24125 426.69045 722.24125 C 427.69045 742.24125 427.69045 768.24125 427.69045 768.24125 L 447.69045 766.24125 L 463.69045 672.24125 C 463.69045 672.24125 472.69045 578.24125 463.69045 573.24125 C 454.69045 568.24125 377.69045 569.24125 377.69045 569.24125 Z" stroke-linecap="round" />
</g>
<g transform="matrix(-0.56 0 0 0.66 462.63 434.08)" id="5TaPhk7F35E0M4SrctpyJ"  >
<path style="stroke: none; stroke-width: 1; stroke-dasharray: none; stroke-linecap: butt; stroke-dashoffset: 0; stroke-linejoin: miter; stroke-miterlimit: 4; fill: rgb(47,46,65); fill-rule: nonzero; opacity: 1;" vector-effect="non-scaling-stroke"  transform=" translate(-444.65, -784.62)" d="M 437.69045 774.24125 C 437.69045 774.24125 428.69045 762.24125 424.69045 771.24125 C 420.69045 780.24125 411.69045 792.24125 418.69045 798.24125 C 425.69045 804.24125 434.69045 806.24125 437.69045 804.24125 C 440.69045 802.24125 471.69045 786.24125 471.69045 786.24125 C 471.69045 786.24125 477.69045 769.24125 465.69045 768.24125 C 453.69045 767.24125 449.69045 764.24125 449.69045 764.24125 Z" stroke-linecap="round" />
</g>
<g transform="matrix(-0.56 0 0 0.66 504.5 436.26)" id="pOflNu9B-SxilBla_tkpj"  >
<path style="stroke: none; stroke-width: 1; stroke-dasharray: none; stroke-linecap: butt; stroke-dashoffset: 0; stroke-linejoin: miter; stroke-miterlimit: 4; fill: rgb(47,46,65); fill-rule: nonzero; opacity: 1;" vector-effect="non-scaling-stroke"  transform=" translate(-369.79, -787.9)" d="M 368.69045 777.24125 C 368.69045 777.24125 368.69045 767.24125 364.69045 770.24125 C 360.69045 773.24125 357.69045 786.24125 357.69045 786.24125 C 357.69045 786.24125 333.69045 805.24125 356.69045 805.24125 C 379.69045 805.24125 394.69045 809.24125 392.69045 800.24125 C 390.69045 791.24125 387.69045 776.24125 387.69045 776.24125 C 387.69045 776.24125 377.69045 763.24125 368.69045 777.24125 Z" stroke-linecap="round" />
</g>
<g transform="matrix(-0.56 0 0 0.66 469.88 159.65)" id="abNJRODGtEg2u87WXTl8N"  >
<path style="stroke: none; stroke-width: 1; stroke-dasharray: none; stroke-linecap: butt; stroke-dashoffset: 0; stroke-linejoin: miter; stroke-miterlimit: 4; fill: rgb(160,97,106); fill-rule: nonzero; opacity: 1;" vector-effect="non-scaling-stroke"  transform=" translate(-25, -25)" d="M 0 25 C 0 11.19288 11.19288 0 25 0 C 38.80712 0 50 11.19288 50 25 C 50 38.80712 38.80712 50 25 50 C 11.19288 50 0 38.80712 0 25 z" stroke-linecap="round" />
</g>
<g transform="matrix(-0.56 0 0 0.66 475.35 177.91)" id="sp-fJU0vcnwvPH4wKCtpG"  >
<path style="stroke: none; stroke-width: 1; stroke-dasharray: none; stroke-linecap: butt; stroke-dashoffset: 0; stroke-linejoin: miter; stroke-miterlimit: 4; fill: rgb(160,97,106); fill-rule: nonzero; opacity: 1;" vector-effect="non-scaling-stroke"  transform=" translate(-421.92, -398.74)" d="M 412.19045 379.74125 C 412.19045 379.74125 408.19045 408.74125 402.19045 412.74125 C 396.19045 416.74125 442.19045 417.74125 442.19045 417.74125 C 442.19045 417.74125 439.19045 394.74125 442.19045 388.74125 Z" stroke-linecap="round" />
</g>
<g transform="matrix(-0.56 0 0 0.66 437.04 306.71)" id="yM04zRzeRe1d51irBxfuu"  >
<path style="stroke: none; stroke-width: 1; stroke-dasharray: none; stroke-linecap: butt; stroke-dashoffset: 0; stroke-linejoin: miter; stroke-miterlimit: 4; fill: rgb(160,97,106); fill-rule: nonzero; opacity: 1;" vector-effect="non-scaling-stroke"  transform=" translate(-490.41, -592.75)" d="M 490.69045 578.24125 C 490.69045 578.24125 505.69045 606.24125 495.69045 607.24125 C 485.69045 608.24125 481.69045 579.24125 481.69045 579.24125 Z" stroke-linecap="round" />
</g>
<g transform="matrix(-0.56 0 0 0.66 470.51 156.82)" id="nlg8fSsPgf2ZH50HCAVAy"  >
<path style="stroke: none; stroke-width: 1; stroke-dasharray: none; stroke-linecap: butt; stroke-dashoffset: 0; stroke-linejoin: miter; stroke-miterlimit: 4; fill: rgb(47,46,65); fill-rule: nonzero; opacity: 1;" vector-effect="non-scaling-stroke"  transform=" translate(-430.57, -366.97)" d="M 408.59286 389.39486 C 416.4050670233277 393.2035364929773 425.81242732491387 391.11210552946324 431.27504 384.35219 C 434.63857 379.95619 436.58880999999997 373.55490000000003 441.95252 372.18802 C 445.45441 371.2956 449.49291999999997 372.97983999999997 452.61967 371.16791 C 458.45432 367.78676 454.35658 357.06922000000003 459.77428 353.05375000000004 C 454.94213507279994 352.98694711745776 450.9670504034933 349.228938148955 450.62928 344.40815000000003 C 450.49078 346.28007 448.02978 347.11904000000004 446.23436 346.57156000000003 C 444.43893999999995 346.02408 443.02927 344.64318000000003 441.35294999999996 343.79867 C 438.42407999999995 342.32313 434.95802999999995 342.59179 431.69257999999996 342.89562 C 423.34849999999994 343.67199 414.34585999999996 344.73137 408.21630999999996 350.44583 C 402.45669 355.81541 400.542 364.40171 401.66369 372.19577 C 402.78538 379.98983 404.76594 382.54811 408.95817999999997 389.21376999999995 Z" stroke-linecap="round" />
</g>
<g transform="matrix(-0.56 0 0 0.66 475.2 239.32)" id="75MKELkO8ZD9DNuX-HeMM"  >
<path style="stroke: none; stroke-width: 1; stroke-dasharray: none; stroke-linecap: butt; stroke-dashoffset: 0; stroke-linejoin: miter; stroke-miterlimit: 4; fill: rgb(208,205,225); fill-rule: nonzero; opacity: 1;" vector-effect="non-scaling-stroke"  transform=" translate(-422.19, -491.24)" d="M 470.69045 423.24125 L 470.55045 424.24125 L 468.51045 439.29125 L 460.14045 500.95124999999996 L 459.69045 504.24125 C 459.69045 504.24125 460.68045 506.65125 461.92045 510.49125 C 464.02045000000004 516.96125 466.86045 527.49125 466.97045 537.41125 C 467.00406642319945 539.3586056040865 466.9105342536722 541.3060789910292 466.69045000000006 543.24125 C 465.19045000000006 555.99125 464.81045000000006 568.74125 464.72045 574.3212500000001 C 464.69045000000006 576.1812500000001 464.69045000000006 577.24125 464.69045000000006 577.24125 L 373.69045000000006 574.24125 C 374.2589642141595 572.9606338260335 374.7629298711852 571.6523256303111 375.20045000000005 570.3212500000001 C 378.48829262770045 560.6565544493237 379.6780662685486 550.4020011207532 378.69045000000006 540.24125 C 377.80045000000007 531.78125 376.4104500000001 508.73125000000005 375.15045000000003 485.77125 C 374.79045 479.24125000000004 374.44045000000006 472.71125 374.11045 466.53125 C 374.01045 464.68125 373.99045 462.84125 374.03045000000003 461.00125 C 374.52488595415645 439.2323200148193 384.6573935283544 418.8061225333559 401.69045000000006 405.24125000000004 C 401.69045000000006 405.24125000000004 403.53045000000003 405.32125 406.43045000000006 405.49125000000004 C 415.55045000000007 406.02125 435.19045000000006 407.40125000000006 441.36045000000007 409.67125000000004 C 441.64395461379945 409.7709867431414 441.92113269531546 409.8878690666723 442.19045000000006 410.02125000000007 C 445.1704500000001 411.4912500000001 451.40045000000003 414.40125000000006 457.28045000000003 417.10125000000005 C 464.23043 420.30125 470.69045 423.24125 470.69045 423.24125 Z" stroke-linecap="round" />
</g>
<g transform="matrix(-0.56 0 0 0.66 445.55 248.28)" id="gO44qPnANFdHZL1MFfgRF"  >
<path style="stroke: none; stroke-width: 1; stroke-dasharray: none; stroke-linecap: butt; stroke-dashoffset: 0; stroke-linejoin: miter; stroke-miterlimit: 4; fill: rgb(208,205,225); fill-rule: nonzero; opacity: 1;" vector-effect="non-scaling-stroke"  transform=" translate(-475.19, -504.74)" d="M 456.69045 424.24125 L 470.69045 424.24125 C 470.69045 424.24125 482.69045 438.24125 480.69045 452.24125 C 478.69045 466.24125 480.69045 473.24125 480.69045 473.24125 L 486.69045 504.24125 C 486.69045 504.24125 493.69045 536.24125 493.69045 549.24125 L 493.69045 583.24125 L 477.69045 585.24125 C 477.69045 585.24125 477.69045 575.24125 474.69045 571.24125 C 471.69045 567.24125 470.69045 557.24125 470.69045 557.24125 L 458.69045 493.24125000000004 Z" stroke-linecap="round" />
</g>
<g transform="matrix(1 0 0 1 89.6 -446.6)" id="ZBe4IY9emAUkIL2mLZkDu"  >
<path style="stroke: none; stroke-width: 1; stroke-dasharray: none; stroke-linecap: butt; stroke-dashoffset: 0; stroke-linejoin: miter; stroke-miterlimit: 4; fill: rgb(40,88,235); fill-rule: nonzero; opacity: 1;" vector-effect="non-scaling-stroke"  transform=" translate(-15.46, -14.92)" d="M 0 29.84223 L 0 0 L 30.9126 0 L 30.9126 29.84223 z" stroke-linecap="round" />
</g>
<g transform="matrix(1 0 0 1 83.35 -449.23)" id="ipO5Yepw4fobsTaKvUPd3"  >
<path style="stroke: none; stroke-width: 1; stroke-dasharray: none; stroke-linecap: butt; stroke-dashoffset: 0; stroke-linejoin: miter; stroke-miterlimit: 4; fill: rgb(63,61,86); fill-rule: nonzero; opacity: 1;" vector-effect="non-scaling-stroke"  transform=" translate(-236.94, -423.14)" d="M 257.77785 431.92009 L 227.429 443.65764 L 216.09787 414.35964 L 246.44674 402.62208000000004 Z M 228.37985 441.60587000000004 L 255.69385 431.04207 L 245.49585 404.67385 L 218.18185 415.23765000000003 Z" stroke-linecap="round" />
</g>
<g transform="matrix(1 0 0 1 825.28 -666.55)" id="wTZSs2e2FtPWBfcezi7Ja"  >
<path style="stroke: none; stroke-width: 1; stroke-dasharray: none; stroke-linecap: butt; stroke-dashoffset: 0; stroke-linejoin: miter; stroke-miterlimit: 4; fill: rgb(40,88,235); fill-rule: nonzero; opacity: 1;" vector-effect="non-scaling-stroke"  transform=" translate(-15.46, -14.92)" d="M 0 29.84223 L 0 0 L 30.9126 0 L 30.9126 29.84223 z" stroke-linecap="round" />
</g>
<g transform="matrix(1 0 0 1 828.15 -672.69)" id="vO4A6aEbv1Tn6yDEc29dY"  >
<path style="stroke: none; stroke-width: 1; stroke-dasharray: none; stroke-linecap: butt; stroke-dashoffset: 0; stroke-linejoin: miter; stroke-miterlimit: 4; fill: rgb(63,61,86); fill-rule: nonzero; opacity: 1;" vector-effect="non-scaling-stroke"  transform=" translate(-981.74, -199.68)" d="M 972.17481 220.16823 L 961.5954899999999 189.39645 L 991.30176 179.18345 L 1001.88109 209.95523 Z M 963.6098099999999 190.42439 L 973.1311999999999 218.11899 L 999.8668499999999 208.92729 L 990.3454599999999 181.23269 Z" stroke-linecap="round" />
</g>
<g transform="matrix(1 0 0 1 456.97 -752.44)" id="Cm986jzSFaeW8nYn_j-lD"  >
<path style="stroke: none; stroke-width: 1; stroke-dasharray: none; stroke-linecap: butt; stroke-dashoffset: 0; stroke-linejoin: miter; stroke-miterlimit: 4; fill: rgb(63,61,86); fill-rule: nonzero; opacity: 1;" vector-effect="non-scaling-stroke"  transform=" translate(-466.5, -1)" d="M 0 2 L 0 0 L 933 0 L 933 2 z" stroke-linecap="round" />
</g>
<g transform="matrix(1 0 0 1 9.53 -769.44)" id="k5g2Cnc3a_kiAIFxXjnC8"  >
<path style="stroke: none; stroke-width: 1; stroke-dasharray: none; stroke-linecap: butt; stroke-dashoffset: 0; stroke-linejoin: miter; stroke-miterlimit: 4; fill: rgb(63,61,86); fill-rule: nonzero; opacity: 1;" vector-effect="non-scaling-stroke"  transform=" translate(-9.06, -9.06)" d="M 0 9.06122 C 0 4.056850000000001 4.05685 0 9.06122 0 C 14.06559 0 18.12244 4.05685 18.12244 9.06122 C 18.12244 14.06559 14.06559 18.12244 9.06122 18.12244 C 4.056850000000001 18.12244 0 14.06559 0 9.06122 z" stroke-linecap="round" />
</g>
<g transform="matrix(1 0 0 1 37.47 -769.44)" id="KbmDyKxHIAYJvCPinWWZi"  >
<path style="stroke: none; stroke-width: 1; stroke-dasharray: none; stroke-linecap: butt; stroke-dashoffset: 0; stroke-linejoin: miter; stroke-miterlimit: 4; fill: rgb(63,61,86); fill-rule: nonzero; opacity: 1;" vector-effect="non-scaling-stroke"  transform=" translate(-9.06, -9.06)" d="M 0 9.06122 C 0 4.056850000000001 4.05685 0 9.06122 0 C 14.06559 0 18.12244 4.05685 18.12244 9.06122 C 18.12244 14.06559 14.06559 18.12244 9.06122 18.12244 C 4.056850000000001 18.12244 0 14.06559 0 9.06122 z" stroke-linecap="round" />
</g>
<g transform="matrix(1 0 0 1 65.41 -769.44)" id="PB0mAYEyyimTccrTBme4x"  >
<path style="stroke: none; stroke-width: 1; stroke-dasharray: none; stroke-linecap: butt; stroke-dashoffset: 0; stroke-linejoin: miter; stroke-miterlimit: 4; fill: rgb(63,61,86); fill-rule: nonzero; opacity: 1;" vector-effect="non-scaling-stroke"  transform=" translate(-9.06, -9.06)" d="M 0 9.06122 C 0 4.056850000000001 4.05685 0 9.06122 0 C 14.06559 0 18.12244 4.05685 18.12244 9.06122 C 18.12244 14.06559 14.06559 18.12244 9.06122 18.12244 C 4.056850000000001 18.12244 0 14.06559 0 9.06122 z" stroke-linecap="round" />
</g>
<g transform="matrix(1 0 0 1 443.53 -683.84)" id="McePDWY71t_FWY01eJLGK"  >
<path style="stroke: none; stroke-width: 1; stroke-dasharray: none; stroke-linecap: butt; stroke-dashoffset: 0; stroke-linejoin: miter; stroke-miterlimit: 4; fill: rgb(63,61,86); fill-rule: nonzero; opacity: 1;" vector-effect="non-scaling-stroke"  transform=" translate(-106.7, -1.2)" d="M 0 2.39779 L 0 0 L 213.40346 0 L 213.40346 2.39779 z" stroke-linecap="round" />
</g>
<g transform="matrix(1 0 0 1 443.53 -667.06)" id="s2bejssILi8vTM1L7e7f7"  >
<path style="stroke: none; stroke-width: 1; stroke-dasharray: none; stroke-linecap: butt; stroke-dashoffset: 0; stroke-linejoin: miter; stroke-miterlimit: 4; fill: rgb(63,61,86); fill-rule: nonzero; opacity: 1;" vector-effect="non-scaling-stroke"  transform=" translate(-106.7, -1.2)" d="M 0 2.39779 L 0 0 L 213.40346 0 L 213.40346 2.39779 z" stroke-linecap="round" />
</g>
<g transform="matrix(1 0 0 1 443.53 -650.27)" id="GCqS1oVu69TXhWgUWDjf1"  >
<path style="stroke: none; stroke-width: 1; stroke-dasharray: none; stroke-linecap: butt; stroke-dashoffset: 0; stroke-linejoin: miter; stroke-miterlimit: 4; fill: rgb(63,61,86); fill-rule: nonzero; opacity: 1;" vector-effect="non-scaling-stroke"  transform=" translate(-106.7, -1.2)" d="M 0 2.39779 L 0 0 L 213.40346 0 L 213.40346 2.39779 z" stroke-linecap="round" />
</g>
<g transform="matrix(1.03 0 0 0.94 583.84 275.43)" id="e3vQQ9p_qLpLrUto6kpeD"  >
<linearGradient id="SVGID_40" gradientUnits="userSpaceOnUse" gradientTransform="matrix(1 0 0 1 501.64 304.03)"  x1="517.81" y1="472.14" x2="647.31" y2="472.14">
<stop offset="0%" style="stop-color:rgb(128,128,128);stop-opacity: 0.25"/>
<stop offset="54%" style="stop-color:rgb(128,128,128);stop-opacity: 0.12"/>
<stop offset="100%" style="stop-color:rgb(128,128,128);stop-opacity: 0.1"/>
</linearGradient>
<path style="stroke: none; stroke-width: 1; stroke-dasharray: none; stroke-linecap: butt; stroke-dashoffset: 0; stroke-linejoin: miter; stroke-miterlimit: 4; fill: url(#SVGID_40); fill-rule: nonzero; opacity: 1;" vector-effect="non-scaling-stroke"  transform=" translate(-558.91, -490.34)" d="M 612.69 305.71 C 610.1790531464193 303.63456175273967 606.601530589199 303.4595521168347 603.9000000000001 305.28 C 601.9000000000001 306.76 601.0300000000001 309.21999999999997 600.21 311.53999999999996 C 599.01 314.96999999999997 597.07 318.29999999999995 596.75 321.92999999999995 C 595.86 331.92999999999995 588.85 340.34 586.75 350.13999999999993 C 585.98 353.63999999999993 585.83 357.31999999999994 584.38 360.5899999999999 C 583.6857173700628 362.02544448686734 582.8834097561686 363.4060821724437 581.98 364.7199999999999 C 578.4636398133662 370.24850186785847 575.4515119175328 376.08198955945585 572.98 382.15 C 571.24 382.6799999999999 569.8100000000001 384.3499999999999 568.4200000000001 385.6799999999999 C 566.6370772591282 387.3851656165233 564.5043840376054 388.6818430952092 562.1700000000001 389.4799999999999 C 561.218445338751 389.6927376032521 560.3308564964249 390.1279645645472 559.58 390.7499999999999 C 558.58 391.8099999999999 558.58 393.51999999999987 557.75 394.7499999999999 C 557.1598930593315 395.5556651206291 556.3755621515274 396.19895406694195 555.47 396.6199999999999 C 555.4087472319978 396.3358990664335 555.3620199049542 396.0488597717369 555.33 395.7599999999999 C 555.12 394.2299999999999 554.95 392.6999999999999 554.7900000000001 391.1699999999999 C 559.5997505789752 384.15161173346456 558.5995165332715 374.6790562582622 552.4300000000001 368.8199999999999 C 552.244899497709 366.43266317413014 552.3152987314122 364.03238453929356 552.6400000000001 361.65999999999985 C 552.9408129824858 360.49602250538703 552.5528563665222 359.2623204666228 551.6400000000001 358.47999999999985 C 551.1500000000001 358.16999999999985 550.5500000000001 358.09999999999985 550.0300000000001 357.83999999999986 C 549.2759827193508 357.3343499799563 548.6356888093189 356.6770269765725 548.1500000000001 355.90999999999985 C 545.2484190285123 352.62239131947547 540.399844059532 351.9043967683198 536.6700000000001 354.20999999999987 C 533.8700000000001 356.07999999999987 532.3900000000001 359.39999999999986 530.0000000000001 361.78999999999985 C 528.7600000000001 363.01999999999987 527.2900000000001 363.98999999999984 526.0600000000001 365.21999999999986 C 523.6001351296904 367.8572793449608 522.0024879404795 371.18164129107015 521.48 374.74999999999983 C 520.9666535661444 378.2988774319626 520.8225502027481 381.89140779384155 521.0500000000001 385.46999999999986 C 521.0251229789611 386.5547769769796 521.1805709998456 387.6361545135667 521.5100000000001 388.66999999999985 C 521.8665128046015 389.517975318362 522.3597295486408 390.3017169938216 522.9700000000001 390.98999999999984 C 525.9000867954254 394.81197368700475 529.7734276102024 397.8065761496748 534.2100000000002 399.67999999999984 C 534.2407823617397 399.8919950108883 534.2574856072976 400.10579655403035 534.2600000000001 400.3199999999998 C 534.2600000000001 400.6499999999998 534.2600000000001 400.97999999999985 534.1800000000001 401.3199999999998 L 533.69 401.23999999999984 C 531.8900000000001 401.0199999999998 529.99 401.23999999999984 528.32 400.54999999999984 C 525.47 399.3199999999998 524.32 395.6999999999998 521.5100000000001 394.27999999999986 C 521.2767240503629 394.1570910740354 521.0322909418314 394.0566391116252 520.7800000000001 393.97999999999985 C 520.1136501119744 389.31932610812953 518.7412427375225 384.78734696497645 516.71 380.53999999999985 C 515.71 378.53999999999985 514.58 376.45999999999987 514.46 374.1999999999999 C 514.5220757837515 372.098819530626 514.9942619635721 370.03003259889425 515.85 368.1099999999999 C 518.1104349040049 361.2410216880288 519.894664295092 354.22438925116995 521.19 347.1099999999999 Q 522.5500000000001 340.4199999999999 523.9300000000001 333.7299999999999 C 525.1714411935976 332.6010555437079 526.2666279049489 331.32109806817147 527.19 329.9199999999999 C 529.1170409472733 327.13315550515756 530.2444488684649 323.871972469318 530.45 320.4899999999999 C 530.6302042930022 317.08357025408395 529.4421771342727 313.74629396274366 527.1500000000001 311.2199999999999 C 526.1366905035464 309.98653450746565 524.6359075467041 309.2562264992698 523.0400000000001 309.2199999999999 C 521.6660157425954 309.3820296202261 520.4205822209175 310.1061188770156 519.6 311.2199999999999 C 518.3784976094788 312.92988803005346 517.4959205556714 314.8579794399095 517 316.9 C 516 320.21999999999997 515 323.67999999999995 515.45 327.12 C 515.86 329.97 517.25 333.06 515.83 335.56 C 511.15000000000003 343.75 507.92 352.96 504.45000000000005 361.74 C 503.55504056253307 363.8465401539323 502.82615281262406 366.019829316505 502.27000000000004 368.24 C 501.57525174742887 371.81804897559635 501.45373527486066 375.48379589807075 501.91 379.1 C 502.73326547783233 385.88123161734956 504.0399246366668 392.5949867326908 505.82000000000005 399.19000000000005 C 506.55000000000007 402.19 507.41 405.36 509.13000000000005 407.83 C 508.5196822348206 411.1806411978019 508.37163699621874 414.5991403436998 508.69000000000005 417.99 C 508.7307227502914 418.77366392044246 508.93510947866315 419.5401141518364 509.2900000000001 420.24 C 509.8636552312797 421.0454340346425 510.5585522690259 421.7571975053437 511.3500000000001 422.35 C 513.5203500792518 424.3689628027012 514.7125052808505 427.2272186988889 514.6200000000001 430.19 C 514.6682761656875 432.9283002382847 515.1997717245869 435.63655786324904 516.1900000000002 438.19 C 518.5800000000002 445.32 520.9800000000001 452.45 523.0700000000002 459.68 C 523.5230810317831 461.0184745627217 523.7725308879884 462.41741632387334 523.8100000000002 463.83 C 523.8100000000002 465.83 522.8600000000001 467.83 523.3000000000002 469.83 C 523.635500556143 470.7337804377136 523.9094596803991 471.65922772331004 524.1200000000002 472.59999999999997 C 524.1360350401117 473.326708275171 524.0416255587393 474.0516382214234 523.8400000000003 474.74999999999994 C 522.5400000000003 480.3999999999999 518.7800000000003 493.42999999999995 519.4300000000003 499.19999999999993 L 520.7200000000003 498.74999999999994 C 520.1700000000003 506.38999999999993 517.8100000000003 513.8699999999999 516.9500000000003 521.51 C 516.3849155641354 527.0725444651972 516.4452927075412 532.6809102304427 517.1300000000002 538.23 C 517.5027902455671 540.7104698532573 517.716559875448 543.2122425529576 517.7700000000002 545.72 C 517.7700000000002 547.97 517.4100000000002 550.19 517.3200000000002 552.4300000000001 C 517.274937267267 555.4389551187835 517.4520854215081 558.4471313228777 517.8500000000001 561.4300000000001 C 518.2415808832802 566.1096612575701 518.987046423521 570.7529421337788 520.0800000000002 575.32 C 522.1600000000002 583.08 520.7600000000001 591.1600000000001 520.9900000000001 599.2 C 521.2584596004644 604.8085743469117 521.2016977969027 610.4279928995265 520.8200000000002 616.0300000000001 C 520.6100000000001 618.4000000000001 520.2800000000002 620.7600000000001 520.2100000000002 623.1400000000001 C 520.0000000000001 630.2 522.0900000000001 637.2300000000001 521.3500000000001 644.2500000000001 C 521.0000000000001 647.5400000000001 520.1600000000001 651.2500000000001 522.2300000000001 653.8400000000001 C 522.8900000000001 654.6500000000001 523.7800000000001 655.2300000000001 524.4800000000001 656.0000000000001 C 525.2546583677907 656.7286400538338 525.5856575497037 657.8129477187209 525.3500000000001 658.8500000000001 C 525.0800000000002 659.6400000000001 524.3500000000001 660.2200000000001 524.1800000000002 661.0500000000002 C 523.9900000000001 662.3500000000001 525.4200000000002 663.2500000000002 526.6600000000002 663.6700000000002 L 527.0100000000002 663.7700000000002 C 526.9574857830535 664.6474476467869 527.2811608931444 665.5057322083763 527.9000000000002 666.1300000000002 C 528.6754456909446 666.7223948743367 529.5993879485585 667.0892034110673 530.5700000000002 667.1900000000002 L 546.5700000000002 670.2900000000002 C 550.1400000000002 670.9800000000002 554.0200000000002 671.6300000000002 557.3700000000001 670.4200000000002 C 557.4992202098347 670.9039273138711 557.7586188174525 671.3431756227708 558.1200000000001 671.6900000000002 C 558.892617184 672.2806967634124 559.812872150039 672.6474149077737 560.7800000000001 672.7500000000001 L 576.7800000000001 675.8500000000001 C 580.8600000000001 676.6400000000001 585.34 677.3700000000001 588.9800000000001 675.3500000000001 C 590.0294086102521 674.7896512313291 590.9150586595074 673.966031146613 591.5500000000002 672.9600000000002 C 592.5841124037637 671.0306341180109 592.7122332849012 668.7427612405546 591.9000000000002 666.7100000000002 C 591.5934676949428 665.6811193242081 590.9706716937036 664.7749161538657 590.1200000000002 664.1200000000001 C 588.9845941272665 663.4961449272816 587.6914912050718 663.2180582773473 586.4000000000002 663.3200000000002 C 585.3035150783187 663.399874745508 584.2030923773714 663.232419117103 583.1800000000002 662.8300000000002 C 582.8662258841211 662.6654342897994 582.5929660519583 662.4331634324609 582.3800000000002 662.1500000000002 C 583.1800000000002 661.1500000000002 583.9500000000003 660.1500000000002 584.6800000000002 659.1500000000002 C 583.9900000000001 658.9900000000002 583.6800000000002 658.0400000000002 583.5100000000002 657.3400000000003 C 581.4500000000003 646.9600000000003 584.3400000000003 636.3400000000003 584.7600000000002 625.7400000000002 C 584.9727734367693 620.4328893723626 584.556543849603 615.1192487555531 583.5200000000002 609.9100000000002 C 583.1300000000002 607.9100000000002 582.6600000000002 606.0100000000002 582.3800000000002 604.0300000000002 C 580.9100000000002 593.7000000000002 584.8400000000003 583.2100000000002 583.5900000000003 572.8500000000003 C 583.0000000000002 568.0100000000002 585.0800000000003 562.9500000000003 585.8200000000003 558.1300000000002 C 586.4700000000003 553.8500000000003 586.0500000000003 549.4900000000002 585.6300000000002 545.1300000000002 L 582.3200000000003 511.1300000000002 C 581.8700000000002 506.54000000000025 581.4000000000003 501.8400000000002 579.4400000000003 497.6600000000002 C 578.4611866820761 495.32292816237566 577.997331144949 492.80241903048625 578.0800000000003 490.2700000000002 C 582.0800000000003 487.9800000000002 585.7600000000002 484.8300000000002 590.2800000000003 484.8200000000002 C 591.1500000000003 481.5200000000002 588.6500000000003 471.11000000000024 587.1900000000003 468.0300000000002 C 581.4951599532043 455.8874645302359 579.2433207378008 442.4144787483669 580.6800000000003 429.08000000000027 C 581.2100000000003 424.2900000000002 579.3000000000003 419.4600000000002 579.9400000000003 414.68000000000023 C 580.0357685029218 413.5604945107453 580.34822945593 412.47027748992286 580.8600000000002 411.47000000000025 C 581.3843599278862 410.46278802152267 582.3884229062243 409.7946709269143 583.5200000000002 409.7000000000003 C 583.2400000000002 406.83000000000027 582.8700000000002 403.9400000000003 582.3800000000002 401.0700000000003 C 584.0258332225806 399.3907810640586 585.3779711247281 397.4470828297215 586.3800000000002 395.3200000000003 C 588.4600000000003 390.97000000000025 589.3800000000002 386.1700000000003 590.5900000000003 381.5100000000003 C 592.7900000000003 373.3000000000003 596.1500000000002 365.46000000000026 598.8100000000003 357.40000000000026 C 601.4700000000004 349.34000000000026 600.9500000000003 340.8200000000003 602.8600000000002 332.54000000000025 C 603.9384612245669 327.97842922755626 606.7316252091744 324.00712299815916 610.6600000000002 321.4500000000003 C 612.1800000000002 320.4500000000003 613.9100000000002 319.6800000000003 614.9600000000002 318.2000000000003 C 615.7514010033007 316.9833701978704 616.1686183773127 315.56135431477946 616.1600000000002 314.1100000000003 C 616.3422623535654 310.9277770487803 615.0649946799471 307.8358322480905 612.69 305.71 Z M 551.57 655.59 C 551.87 655.1800000000001 552.1600000000001 654.77 552.4300000000001 654.34 C 551.3700000000001 654.2800000000001 550.0300000000001 653.6600000000001 549.9000000000001 652.6 C 549.8679725512009 651.538766174369 549.9857999418867 650.4783196581963 550.2500000000001 649.45 C 550.5512907443783 647.6116550139852 550.4385510500009 645.7292437533206 549.9200000000001 643.94 C 549.5500000000001 642.7 549.0000000000001 641.5100000000001 548.6 640.2700000000001 C 548.2087161177119 638.885864918081 547.8981927453981 637.4801623401871 547.6700000000001 636.0600000000001 C 546.689727099993 630.9806928634376 545.1642305493116 626.0219908888049 543.1200000000001 621.2700000000001 C 541.1200000000001 616.6600000000001 542.6700000000001 611.6300000000001 542.6900000000002 606.6000000000001 C 542.6900000000002 604.2300000000001 542.3300000000002 601.8100000000002 542.9300000000002 599.5100000000001 C 543.2800000000002 598.1500000000001 543.9300000000002 596.8900000000001 544.3000000000002 595.5100000000001 C 545.1200000000002 592.3400000000001 544.0900000000001 589.0100000000001 543.0800000000002 585.9000000000001 C 547.0300000000002 576.5600000000001 547.5600000000002 565.9000000000001 548.3700000000001 555.7400000000001 Q 549.0500000000001 547.2200000000001 549.7300000000001 538.7400000000001 C 549.9300000000002 536.2100000000002 550.1600000000001 533.5800000000002 551.4900000000001 531.4200000000001 C 553.852132183776 538.6425020895762 555.2607146524691 546.1426154252663 555.6800000000002 553.73 C 555.7215126188036 555.9228222734806 555.9760423895901 558.1064197807557 556.4400000000002 560.25 C 557.0700000000002 562.62 558.3000000000002 564.77 559.1200000000001 567.07 C 560.9400000000002 572.13 560.7500000000001 577.6600000000001 561.5700000000002 582.97 C 561.9000000000002 585.12 562.4000000000002 587.24 562.7200000000001 589.39 C 564.1000000000001 598.88 561.8700000000001 608.49 559.6500000000001 617.8199999999999 C 558.2900000000001 623.54 558.5100000000001 629.8699999999999 558.2 635.7399999999999 C 557.9100000000001 641.3699999999999 557.61 646.9999999999999 557.75 652.6399999999999 C 557.75 654.3599999999999 557.86 656.1199999999999 557.84 657.8699999999999 C 557.2958286064577 657.8048662786889 556.7480309398061 657.7748042116166 556.2 657.7799999999999 C 555.1035150783185 657.8598747455077 554.0030923773712 657.6924191171026 552.98 657.2899999999998 C 552.3465918421824 656.8815564646229 551.8542925505958 656.2880041272492 551.57 655.59 Z" stroke-linecap="round" />
</g>
<g transform="matrix(1.03 0 0 0.94 600.25 442.11)" id="o6GpDs77hXOloM0FQlN4B"  >
<path style="stroke: none; stroke-width: 1; stroke-dasharray: none; stroke-linecap: butt; stroke-dashoffset: 0; stroke-linejoin: miter; stroke-miterlimit: 4; fill: rgb(63,61,86); fill-rule: nonzero; opacity: 1;" vector-effect="non-scaling-stroke"  transform=" translate(-574.86, -668.23)" d="M 586.45 663.39 C 587.7401245903945 663.2907945988375 589.0315382050837 663.5650464148601 590.1700000000001 664.18 C 591.0155352961854 664.8355406388831 591.6373440124055 665.7368139466628 591.95 666.76 C 592.7578292743358 668.780802037568 592.6259289578105 671.0560824976288 591.59 672.97 C 590.9541595995271 673.9701753919534 590.0683027790803 674.7870939384354 589.02 675.34 C 585.38 677.34 580.9 676.63 576.8199999999999 675.85 L 560.8199999999999 672.78 C 559.855592510949 672.6958041058699 558.9324383538116 672.3500534852191 558.15 671.78 C 557.1535043970929 670.6846219195442 556.9645537432991 669.0765312489598 557.68 667.78 C 558.3775958834503 666.517487264646 559.417487264646 665.4775958834504 560.68 664.78 C 565.28 661.92 570.68 660.78 575.9599999999999 660.17 C 577.9599999999999 659.93 579.8299999999999 659.29 581.3299999999999 660.68 C 582.1299999999999 661.41 582.0899999999999 662.3199999999999 583.2099999999999 662.91 C 584.2412768556779 663.3073955409997 585.3478015638196 663.471325127391 586.45 663.39 Z" stroke-linecap="round" />
</g>
<g transform="matrix(1.03 0 0 0.94 569.16 436.96)" id="SEGnNGQ63ZTvJirDFIQCV"  >
<path style="stroke: none; stroke-width: 1; stroke-dasharray: none; stroke-linecap: butt; stroke-dashoffset: 0; stroke-linejoin: miter; stroke-miterlimit: 4; fill: rgb(63,61,86); fill-rule: nonzero; opacity: 1;" vector-effect="non-scaling-stroke"  transform=" translate(-544.62, -662.72)" d="M 556.22 657.89 C 557.5069466458642 657.7904599626605 558.7952510296092 658.0647889284714 559.9300000000001 658.68 C 560.7814580090342 659.3299170154509 561.404703987053 660.2332735453883 561.71 661.26 C 562.5265635350479 663.2783996423804 562.3981887277332 665.5561355093062 561.36 667.47 C 560.7213351826213 668.4678116345258 559.836175081333 669.284087681239 558.79 669.84 C 555.15 671.84 550.67 671.13 546.5799999999999 670.35 L 530.5799999999999 667.27 C 529.6154795194795 667.1863033151659 528.692195607041 666.840504097024 527.91 666.27 C 526.910218155661 665.1768977905338 526.717223525721 663.5686092077003 527.43 662.27 C 528.1493107382026 661.0069084642114 529.2051923724497 659.9683363649519 530.4799999999999 659.27 C 535.0699999999999 656.42 540.4799999999999 655.3199999999999 545.7599999999999 654.67 C 547.7599999999999 654.42 549.6299999999999 653.79 551.1299999999999 655.17 C 551.9199999999998 655.9 551.8899999999999 656.81 552.9999999999999 657.4 C 554.0236216762145 657.8004486454118 555.123595874189 657.9678360233645 556.22 657.89 Z" stroke-linecap="round" />
</g>
<g transform="matrix(1.03 0 0 0.94 576.2 356.25)" id="YfDPxBPgBKPCSCS-91A3S"  >
<path style="stroke: none; stroke-width: 1; stroke-dasharray: none; stroke-linecap: butt; stroke-dashoffset: 0; stroke-linejoin: miter; stroke-miterlimit: 4; fill: rgb(70,69,91); fill-rule: nonzero; opacity: 1;" vector-effect="non-scaling-stroke"  transform=" translate(-551.47, -576.66)" d="M 552.28 487.89 C 543.0312329731963 487.9277305123756 533.7972476967619 488.63289551177036 524.65 490 C 524.0453354047421 490.05603078935206 523.4540600059489 490.21145175132057 522.9 490.46 C 520.9599999999999 491.46 520.9 494.18 520.9499999999999 496.35999999999996 C 521.0799999999999 505.22999999999996 518.05 513.8199999999999 517.05 522.62 C 516.4765056574614 528.1451942018639 516.5335391425436 533.7177011854932 517.2199999999999 539.23 C 517.582904534979 541.6982095855558 517.7966258224477 544.1860589474975 517.8599999999999 546.6800000000001 C 517.8599999999999 548.9000000000001 517.4899999999999 551.11 517.3999999999999 553.34 C 517.3535621395885 556.3154319787913 517.527370062035 559.2902214206645 517.9199999999998 562.24 C 518.3116997236709 566.8899688381792 519.0571915404141 571.503326269146 520.1499999999999 576.04 C 522.2199999999999 583.75 520.8199999999998 591.78 521.0399999999998 599.76 C 521.3068485467388 605.3321961597737 521.2434041086532 610.9153067113102 520.8499999999998 616.48 C 520.6399999999998 618.84 520.3099999999998 621.1800000000001 520.2399999999998 623.5500000000001 C 520.0299999999997 630.5500000000001 522.1099999999998 637.5500000000001 521.3699999999998 644.5500000000001 C 521.0199999999998 647.8100000000001 520.1699999999997 651.5500000000001 522.2399999999998 654.07 C 522.8999999999997 654.87 523.7899999999997 655.45 524.4799999999998 656.22 C 525.2478883478403 656.940434281996 525.5818732103859 658.0107039551533 525.3599999999998 659.0400000000001 C 525.0799999999998 659.83 524.3099999999998 660.4100000000001 524.1899999999998 661.2300000000001 C 523.9899999999998 662.5200000000001 525.4199999999998 663.4200000000002 526.6599999999999 663.8300000000002 C 536.3612989189944 666.8066746996544 546.8637128400301 663.031669773404 552.4499999999998 654.5600000000002 C 551.3899999999999 654.5000000000002 550.0499999999998 653.8800000000002 549.9199999999998 652.8300000000002 C 549.8879831140414 651.7753617889452 550.0058251021293 650.7215177240455 550.2699999999999 649.7000000000002 C 550.5765717011757 647.875251949305 550.4637204699354 646.004657298142 549.9399999999998 644.2300000000001 C 549.5799999999998 642.9900000000001 549.0199999999999 641.8100000000002 548.6299999999999 640.5800000000002 C 548.2398014502237 639.2057288605412 547.9292846187637 637.8100725643017 547.6999999999999 636.4000000000002 C 546.7261392520738 631.3493814138533 545.2037868843182 626.420178813411 543.16 621.7000000000002 C 541.16 617.1200000000001 542.7199999999999 612.1200000000001 542.74 607.1400000000002 C 542.74 604.7800000000002 542.39 602.3700000000002 542.98 600.0900000000003 C 543.33 598.7300000000002 543.98 597.4800000000002 544.36 596.0900000000003 C 545.1800000000001 592.9400000000003 544.15 589.6400000000002 543.14 586.5500000000003 C 547.14 577.2700000000003 547.64 566.6300000000003 548.4499999999999 556.5500000000003 L 549.8199999999999 539.5500000000003 C 550.02 537.0400000000003 550.26 534.4200000000003 551.5799999999999 532.2800000000003 C 553.9418878612373 539.4510945807842 555.3506280772199 546.9016156276037 555.77 554.4400000000003 C 555.8031909686227 556.6229152650742 556.0544392537507 558.7970504257153 556.52 560.9300000000003 C 557.15 563.2700000000003 558.37 565.4100000000003 559.1999999999999 567.7000000000003 C 561.0099999999999 572.7000000000003 560.8199999999999 578.2100000000003 561.64 583.4900000000002 C 561.97 585.6300000000002 562.46 587.7300000000002 562.78 589.8700000000002 C 564.16 599.3000000000002 561.92 608.8700000000002 559.6899999999999 618.1200000000002 C 558.3299999999999 623.8000000000002 558.54 630.1200000000002 558.2299999999999 635.9300000000002 C 557.93 641.5200000000002 557.6299999999999 647.1100000000001 557.7699999999999 652.7100000000002 C 557.8899999999999 657.8600000000001 558.2899999999998 663.3900000000001 555.5199999999999 667.7100000000002 C 558.6199999999999 669.2900000000002 561.8199999999998 670.9000000000002 565.2799999999999 671.2000000000002 C 569.3056217069042 671.413697574632 573.278951338719 670.2107304554717 576.5099999999999 667.8000000000002 C 579.7078886166566 665.393962832137 582.4883229871865 662.4783919186897 584.7399999999999 659.1700000000002 C 584.0399999999998 659.0100000000002 583.7399999999999 658.0600000000002 583.5699999999999 657.3700000000002 C 581.51 647.0600000000003 584.41 636.4700000000003 584.8399999999999 625.9700000000003 C 585.0519600288638 620.6998182834043 584.6390852361225 615.423077029832 583.6099999999999 610.2500000000002 C 583.2199999999999 608.2500000000002 582.7399999999999 606.3600000000002 582.4599999999999 604.4000000000002 C 581.0099999999999 594.1400000000002 584.9399999999999 583.7100000000002 583.6999999999999 573.4000000000002 C 583.1199999999999 568.5800000000002 585.1999999999999 563.5600000000002 585.9399999999999 558.7600000000002 C 586.5899999999999 554.5100000000002 586.18 550.1800000000002 585.76 545.9000000000002 L 582.47 512.1500000000002 C 582.03 507.5800000000002 581.5600000000001 502.9100000000002 579.6 498.7600000000002 C 577.26 493.7600000000002 578.71 487.6000000000002 578.46 482.0900000000002 C 570.1996707505838 485.726180993294 561.3031732903671 487.6971391777575 552.28 487.89 Z" stroke-linecap="round" />
</g>
<g transform="matrix(1.03 0 0 0.94 619.81 149.82)" id="c-thAJ43aALKBttUhRf7y"  >
<path style="stroke: none; stroke-width: 1; stroke-dasharray: none; stroke-linecap: butt; stroke-dashoffset: 0; stroke-linejoin: miter; stroke-miterlimit: 4; fill: rgb(160,97,106); fill-rule: nonzero; opacity: 1;" vector-effect="non-scaling-stroke"  transform=" translate(-593.88, -356.51)" d="M 571.6 387.94 C 574.3216954372438 380.50666141611623 577.8564805993014 373.3968468586568 582.14 366.74 C 583.0432495327758 365.43295940708106 583.8455728743343 364.0589806846621 584.54 362.63 C 586 359.39 586.15 355.73 586.92 352.25 C 589.0699999999999 342.51 596.0899999999999 334.15 596.99 324.25 C 597.3100000000001 320.64 599.25 317.33 600.46 313.92 C 601.27 311.61 602.19 309.17 604.1500000000001 307.7 C 606.8517882722822 305.8983300359406 610.4125242118166 306.0686613679001 612.9300000000001 308.12 C 615.3549782427912 310.22004871079594 616.6666938049029 313.32752135230584 616.48 316.53000000000003 C 616.4839258332555 317.971318089002 616.0668543219218 319.382410035681 615.28 320.59000000000003 C 614.22 322.06000000000006 612.5 322.85 610.98 323.82000000000005 C 607.0600606201051 326.3470370065353 604.2633412743768 330.28607833854693 603.1700000000001 334.82000000000005 C 601.2500000000001 343.05000000000007 601.7700000000001 351.50000000000006 599.1 359.51000000000005 C 596.43 367.52000000000004 593.1 375.32000000000005 590.87 383.51000000000005 C 589.62 388.14000000000004 588.73 392.91 586.64 397.2300000000001 C 584.55 401.5500000000001 581 405.4500000000001 576.33 406.56000000000006 C 576.0356255374812 403.5864856149989 575.265832643072 400.67950455321716 574.0500000000001 397.95000000000005 C 572.65 394.79 570.42 391.15 571.6 387.94 Z" stroke-linecap="round" />
</g>
<g transform="matrix(1.03 0 0 0.94 539.97 154.86)" id="NXvUrRdtsFZWB0ZQKZZ1-"  >
<path style="stroke: none; stroke-width: 1; stroke-dasharray: none; stroke-linecap: butt; stroke-dashoffset: 0; stroke-linejoin: miter; stroke-miterlimit: 4; fill: rgb(160,97,106); fill-rule: nonzero; opacity: 1;" vector-effect="non-scaling-stroke"  transform=" translate(-516.24, -361.89)" d="M 521.29 399.35 C 520.9038520378585 393.50703605819183 519.3964197029053 387.79305268043015 516.8499999999999 382.52 C 515.8499999999999 380.52000000000004 514.7299999999999 378.52000000000004 514.6099999999999 376.23 C 514.6710787273868 374.14156181831487 515.1434238874214 372.0856710138478 515.9999999999999 370.18 C 518.2641288984336 363.3419286229241 520.0517429436153 356.3551978407279 521.3499999999999 349.27000000000004 L 524.1099999999999 335.96999999999997 C 525.3450284162676 334.84880626056287 526.4366476142997 333.579169162544 527.3599999999999 332.19 C 529.2903996232236 329.42653604030005 530.4218262986767 326.1844969121668 530.6299999999999 322.82 C 530.8162780450693 319.42951392253883 529.6305753218566 316.106663129827 527.3399999999999 313.59999999999997 C 526.3145559237923 312.3899982477427 524.8159156793226 311.68261088174 523.2299999999999 311.65999999999997 C 521.8560157425952 311.82202962022615 520.6105822209173 312.54611887701566 519.7899999999998 313.65999999999997 C 518.5883124143668 315.3456168021772 517.7225425344418 317.24691536201254 517.2399999999999 319.26 C 516.2399999999999 322.56 515.2399999999999 325.99 515.68 329.40999999999997 C 516.0799999999999 332.23999999999995 517.4799999999999 335.30999999999995 516.05 337.78999999999996 C 511.35999999999996 345.93999999999994 508.12999999999994 355.08 504.65 363.78999999999996 C 503.75991855148595 365.88368054341345 503.03438780253134 368.04355549191433 502.47999999999996 370.25 C 501.7783661281145 373.80671898796425 501.6500793819002 377.4527633540547 502.09999999999997 381.04999999999995 C 502.91856042387786 387.8015879455837 504.2219266057968 394.48551708362953 505.9999999999999 401.0499999999999 C 506.99999999999994 405.16999999999996 508.24999999999994 409.65 511.7099999999999 412.11999999999995 C 514.56 407.56 517.44 403.09 521.29 399.35 Z" stroke-linecap="round" />
</g>
<g transform="matrix(1.03 0 0 0.94 565.23 174.97)" id="Ba5BICrCKSGeW9p_6hoZi"  >
<path style="stroke: none; stroke-width: 1; stroke-dasharray: none; stroke-linecap: butt; stroke-dashoffset: 0; stroke-linejoin: miter; stroke-miterlimit: 4; fill: rgb(160,97,106); fill-rule: nonzero; opacity: 1;" vector-effect="non-scaling-stroke"  transform=" translate(-17.17, -17.17)" d="M 0 17.17 C 0 7.687270000000002 7.68727 0 17.17 0 C 26.652730000000002 0 34.34 7.68727 34.34 17.17 C 34.34 26.652730000000002 26.652730000000005 34.34 17.17 34.34 C 7.687270000000002 34.34 0 26.652730000000005 0 17.17 z" stroke-linecap="round" />
</g>
<g transform="matrix(1.03 0 0 0.94 571.54 194.89)" id="iTMdvqVA66yVEjBObp7m3"  >
<path style="stroke: none; stroke-width: 1; stroke-dasharray: none; stroke-linecap: butt; stroke-dashoffset: 0; stroke-linejoin: miter; stroke-miterlimit: 4; fill: rgb(160,97,106); fill-rule: nonzero; opacity: 1;" vector-effect="non-scaling-stroke"  transform=" translate(-546.94, -404.59)" d="M 534.39 402.16 C 534.29 405.29 532.93 408.22 531.59 411.06 C 530.7800000000001 412.77 529.72 414.68 527.87 415.06 C 533.0769722024523 417.14275011216955 538.4810942687556 418.6939643196701 544 419.69 C 545.8891299460043 420.11356822803623 547.8348559199334 420.2250421119593 549.76 420.02 C 551.378849152718 419.7305350375927 552.9331517530042 419.15486740785707 554.35 418.32 C 560.6469842455589 414.74914113053285 564.950836875138 408.4796043093808 566.02 401.32 C 563.9015486589759 401.5967070784573 561.7601673369895 401.6536765345978 559.63 401.49 C 558.424834717851 401.52291505769125 557.2534572129936 401.0894695589519 556.36 400.28000000000003 C 555.7966288396785 399.496487802831 555.4766350730972 398.56433204800726 555.44 397.6 Q 554.87 393.34000000000003 554.5300000000001 389.06 C 550.3070251408323 389.22352298087867 546.1520454133994 390.176624453049 542.2800000000001 391.87 C 540.6800000000001 392.57 539.1200000000001 393.38 537.4700000000001 393.98 C 536.4700000000001 394.34000000000003 533.5800000000002 394.41 532.8800000000001 395.06 C 531.8 396.09 534.45 400 534.39 402.16 Z" stroke-linecap="round" />
</g>
<g transform="matrix(1.03 0 0 0.94 574.36 230.11)" id="8csfPint93c8xJyoXG0GV"  >
<path style="stroke: none; stroke-width: 1; stroke-dasharray: none; stroke-linecap: butt; stroke-dashoffset: 0; stroke-linejoin: miter; stroke-miterlimit: 4; fill: rgb(47,46,65); fill-rule: nonzero; opacity: 1;" vector-effect="non-scaling-stroke"  transform=" translate(-549.67, -442.13)" d="M 543 411.76 C 542.1366592909766 407.20053776855394 538.4572082730967 403.70224134127 533.86 403.07 C 532.0600000000001 402.86 530.16 403.07 528.49 402.4 C 525.64 401.16999999999996 524.44 397.58 521.6800000000001 396.16999999999996 C 518.9200000000001 394.75999999999993 515.34 396.06999999999994 513.3000000000001 398.42999999999995 C 511.2600000000001 400.78999999999996 510.4 404 509.78 407 C 508.8184929860015 411.1602805041359 508.50480097855376 415.44403157358346 508.84999999999997 419.7 C 508.8975139834743 420.4806070449693 509.10515339958397 421.24308621232285 509.46 421.94 C 510.0329935687363 422.7398174591109 510.72421977852747 423.4479028447507 511.51 424.04 C 513.6786697918161 426.03500401877227 514.8722272540672 428.87472177299657 514.78 431.82 C 514.8152617364104 434.5587209457167 515.3437038992836 437.2686807553229 516.3399999999999 439.82 C 518.7299999999999 446.9 521.1299999999999 453.99 523.2099999999999 461.17 C 523.6639740787623 462.4979113863367 523.9134898372153 463.8871072306964 523.9499999999999 465.29 C 523.9 467.29 522.9499999999999 469.29 523.4399999999999 471.24 C 523.7663109284996 472.13913211496134 524.0368250340005 473.0575442015386 524.2499999999999 473.99 C 524.2665789140256 474.7134508720529 524.1721486760155 475.43516769113006 523.9699999999999 476.13 C 522.66 481.75 518.8999999999999 494.69 519.55 500.42 C 528.0799999999999 497.28000000000003 540.9499999999999 495.42 549.99 494.42 C 552.4764881838394 494.1335456529337 554.9770746363769 493.9866487184722 557.48 493.98 C 563.48 493.98 569.77 495.11 575.37 492.91 C 580.5600000000001 490.91 584.87 486.09000000000003 590.45 486.07000000000005 C 591.32 482.80000000000007 588.82 472.46000000000004 587.37 469.40000000000003 C 581.6816382238434 457.3482319855368 579.4388934532589 443.9575228537597 580.89 430.7100000000001 C 581.41 425.95000000000005 579.51 421.15000000000003 580.16 416.40000000000003 C 580.2524235029371 415.28750154201356 580.5615606184981 414.20382308196963 581.0699999999999 413.21000000000004 C 581.6033697367025 412.20640620131576 582.6079263546095 411.54046417371444 583.7399999999999 411.44000000000005 C 583.0752998978322 403.99264657796886 581.6170282545804 396.6375937382119 579.3899999999999 389.5 C 578.5799999999999 386.96000000000004 577.1199999999999 384.02000000000004 574.4599999999999 383.8500000000001 C 572.06 383.69000000000005 570.29 385.8500000000001 568.56 387.5400000000001 C 566.7741981010994 389.2343622430555 564.6417193971496 390.520673397278 562.31 391.31000000000006 C 561.3546608391256 391.5205216206829 560.4633245324709 391.9559051243181 559.7099999999999 392.58000000000004 C 558.7099999999999 393.63000000000005 558.7099999999999 395.34000000000003 557.8799999999999 396.58000000000004 C 556.4399999999998 398.80000000000007 552.7599999999999 399.01000000000005 551.8799999999999 401.49000000000007 C 551.6951282820448 402.21930489753174 551.5647685413044 402.96135265251627 551.4899999999999 403.7100000000001 C 551.0813255728867 405.16990343835175 550.2622319765625 406.48184148670146 549.1299999999999 407.49000000000007 C 547.4725712437428 409.39986375646805 545.3659474050236 410.8672836245481 543 411.76 Z" stroke-linecap="round" />
</g>
<g transform="matrix(1.03 0 0 0.94 561.67 170.79)" id="5JFYKrUJFM-mSQFne7iFw"  >
<path style="stroke: none; stroke-width: 1; stroke-dasharray: none; stroke-linecap: butt; stroke-dashoffset: 0; stroke-linejoin: miter; stroke-miterlimit: 4; fill: rgb(70,69,91); fill-rule: nonzero; opacity: 1;" vector-effect="non-scaling-stroke"  transform=" translate(-537.33, -378.88)" d="M 552.79 363.74 C 553.0908280615746 362.5850455429742 552.7019113260391 361.3599578260374 551.79 360.59000000000003 C 551.2628968734267 360.3424803616227 550.7220052291917 360.1254559364667 550.17 359.94000000000005 C 549.4197034710372 359.4290303719075 548.7830641346069 358.7685596164664 548.3 358 C 545.3943724482934 354.72441999183457 540.5529653209592 354.015303690708 536.8299999999999 356.32 C 534.02 358.18 532.55 361.48 530.15 363.84999999999997 C 528.92 365.08 527.4499999999999 366.03999999999996 526.2099999999999 367.27 C 523.7544418716592 369.8837800033724 522.1533778264806 373.18357648864253 521.6199999999999 376.72999999999996 C 521.1066377459779 380.25873791298505 520.9625256049543 383.8313784323152 521.1899999999999 387.39 C 521.16028684405 388.4685099232284 521.3158782791722 389.54412027907273 521.65 390.57 C 522.0090641204044 391.41058690708394 522.5021373356028 392.18734608171144 523.11 392.87 C 526.158201948034 396.85196940610524 530.2443037365998 399.91741071403857 534.92 401.73 C 539.62 403.39000000000004 545.11 403.19 549.31 400.5 C 549.7306184326964 400.26717692752493 550.0771769275249 399.92061843269636 550.31 399.5 C 550.5098000049996 398.8755937664054 550.5098000049996 398.20440623359457 550.31 397.58 C 549.80898499438 395.0891201671834 550.0488687825762 392.50602372327415 551 390.15 C 551.8337667382515 388.50946438533424 552.5749290588653 386.82348703438834 553.22 385.09999999999997 C 553.6309068121943 383.125567247269 553.6850945755064 381.09352612306964 553.38 379.09999999999997 C 552.89 374 552 368.86 552.79 363.74 Z" stroke-linecap="round" />
</g>
<g transform="matrix(1 0 0 1 315.12 194.89)" id="0NTXTiGDj-rviSgZQB8Nv"  >
<path style="stroke: none; stroke-width: 1; stroke-dasharray: none; stroke-linecap: butt; stroke-dashoffset: 0; stroke-linejoin: miter; stroke-miterlimit: 4; fill: rgb(63,61,86); fill-rule: nonzero; opacity: 1;" vector-effect="non-scaling-stroke"  transform=" translate(-114, -114)" d="M 0 113.99999 C 0 51.03953 51.03953 0 113.99999 0 C 176.96044999999998 0 227.99998 51.03953 227.99998 113.99999 C 227.99998 176.96044999999998 176.96044999999998 227.99998 113.99999 227.99998 C 51.03953 227.99998 0 176.96044999999998 0 113.99999 z" stroke-linecap="round" />
</g>
<g transform="matrix(1 0 0 1 326.89 199.08)" id="20wnpnEaOGzNmd2dt5ygW"  >
<path style="stroke: none; stroke-width: 1; stroke-dasharray: none; stroke-linecap: butt; stroke-dashoffset: 0; stroke-linejoin: miter; stroke-miterlimit: 4; fill: rgb(242,242,242); fill-rule: nonzero; opacity: 1;" vector-effect="non-scaling-stroke"  transform=" translate(-816.91, -446.99)" d="M 775.99213 398.48812 L 775.99213 495.47934 C 775.9415191423626 496.3944494565538 776.3962411534541 497.2637566200294 777.176791890181 497.744097461287 C 777.9573426269079 498.2244383025447 778.9382940832776 498.2386260468098 779.73241 497.78105999999997 L 856.61574 449.28544 C 857.3796699829761 448.77573384077624 857.8384614881946 447.91808234006004 857.8384614881946 446.99972 C 857.8384614881946 446.08135765993995 857.3796699829761 445.22370615922375 856.61574 444.714 L 779.73241 396.21837 C 778.945428224882 395.7472387160962 777.9623745393785 395.7501892801158 777.17823505026 396.2260361700349 C 776.3940955611416 396.701883059954 775.9375861348115 397.57251639154765 775.99213 398.48812 Z" stroke-linecap="round" />
</g>
<g transform="matrix(1 0 0 1 200.62 407.23)" id="92q8akJhcvFbKN08SBBE-"  >
<path style="stroke: none; stroke-width: 1; stroke-dasharray: none; stroke-linecap: butt; stroke-dashoffset: 0; stroke-linejoin: miter; stroke-miterlimit: 4; fill: rgb(0,0,0); fill-rule: nonzero; opacity: 0.1;" vector-effect="non-scaling-stroke"  transform=" translate(-165, -24)" d="M 0 24 C 0 10.74517 73.87302 0 165 0 C 256.12698 0 330 10.74517 330 24 C 330 37.25483 256.12698 48 165 48 C 73.87302 48 0 37.25483 0 24 z" stroke-linecap="round" />
</g>
<g transform="matrix(1 0 0 1 205.51 268.54)" id="FnNrMTAgxS7FnJprNfwHl"  >
<path style="stroke: none; stroke-width: 1; stroke-dasharray: none; stroke-linecap: butt; stroke-dashoffset: 0; stroke-linejoin: miter; stroke-miterlimit: 4; fill: rgb(47,46,65); fill-rule: nonzero; opacity: 1;" vector-effect="non-scaling-stroke"  transform=" translate(-591.89, -583.81)" d="M 579.81065 526.78274 C 574.79799 528.47558 570.25675 532.43502 569.23026 537.62527 C 568.75444 540.03119 569.0461700000001 542.53227 568.64575 544.95188 C 567.7171000000001 550.56349 563.31217 554.8490999999999 559.24937 558.82988 C 555.18657 562.8106600000001 550.99097 567.43605 550.69445 573.11624 C 550.36975 579.33624 554.88065 585.16324 554.1000799999999 591.3425699999999 C 553.1932099999999 598.5216599999999 545.61061 603.1735699999999 543.73619 610.1627299999999 C 542.48455 614.8297299999999 544.0183 619.8569299999999 546.54169 623.9775699999999 C 551.35027 631.8298799999999 559.5695900000001 637.1607999999999 568.32254 640.01857 C 577.07549 642.87634 586.3976 643.47762 595.60476 643.57409 C 606.81555 643.69155 618.9875300000001 642.7290899999999 627.4107600000001 635.3300899999999 C 632.222181741295 631.0658680276483 635.243795490761 625.1404473870415 635.86976 618.7418899999999 C 636.6699600000001 610.1712499999999 633.09281 601.3154799999999 635.56025 593.06878 C 637.11312 587.8787799999999 641.00734 583.13878 640.42617 577.7527799999999 C 639.85794 572.4865299999999 635.25844 568.75371 632.1030499999999 564.4993199999999 C 629.1569499999999 560.5270999999999 627.36925 555.8361299999999 625.61718 551.2113799999998 L 619.6223699999999 535.3875499999998 C 618.4438899999999 532.2768499999999 617.1497999999999 529.0052299999998 614.52352 526.9635499999998 C 609.60687 523.1414499999998 601.7011 523.8923999999998 595.952 524.6806999999998 C 590.61855 525.412 584.93966 525.0506 579.81065 526.78274 Z" stroke-linecap="round" />
</g>
<g transform="matrix(1 0 0 1 202.87 279.49)" id="VKLJ__luk4cEzx5aO-7Lg"  >
<path style="stroke: none; stroke-width: 1; stroke-dasharray: none; stroke-linecap: butt; stroke-dashoffset: 0; stroke-linejoin: miter; stroke-miterlimit: 4; fill: rgb(255,185,185); fill-rule: nonzero; opacity: 1;" vector-effect="non-scaling-stroke"  transform=" translate(-589.25, -594.76)" d="M 581.68806 572.87747 C 581.68806 572.87747 584.3455399999999 581.51428 564.4144399999999 591.47983 C 544.4833399999999 601.44538 566.4075499999999 612.07531 566.4075499999999 612.07531 L 589.6605 617.39031 C 589.6605 617.39031 613.57782 614.06846 616.2352999999999 610.08223 C 618.8927799999999 606.096 623.54338 592.8086099999999 622.2146399999999 590.8154999999999 C 621.2204706942623 589.3964359749681 620.1093079013799 588.0630446375116 618.8927799999999 586.8292799999999 C 618.8927799999999 586.8292799999999 602.9478999999999 584.1718 603.6122699999999 576.8637299999999 C 604.2766399999998 569.5556599999999 581.68806 572.87747 581.68806 572.87747 Z" stroke-linecap="round" />
</g>
<g transform="matrix(1 0 0 1 202.87 279.49)" id="2SSDrPy3u5_3jGKJUbg2b"  >
<path style="stroke: none; stroke-width: 1; stroke-dasharray: none; stroke-linecap: butt; stroke-dashoffset: 0; stroke-linejoin: miter; stroke-miterlimit: 4; fill: rgb(0,0,0); fill-rule: nonzero; opacity: 0.1;" vector-effect="non-scaling-stroke"  transform=" translate(-589.25, -594.76)" d="M 581.68806 572.87747 C 581.68806 572.87747 584.3455399999999 581.51428 564.4144399999999 591.47983 C 544.4833399999999 601.44538 566.4075499999999 612.07531 566.4075499999999 612.07531 L 589.6605 617.39031 C 589.6605 617.39031 613.57782 614.06846 616.2352999999999 610.08223 C 618.8927799999999 606.096 623.54338 592.8086099999999 622.2146399999999 590.8154999999999 C 621.2204706942623 589.3964359749681 620.1093079013799 588.0630446375116 618.8927799999999 586.8292799999999 C 618.8927799999999 586.8292799999999 602.9478999999999 584.1718 603.6122699999999 576.8637299999999 C 604.2766399999998 569.5556599999999 581.68806 572.87747 581.68806 572.87747 Z" stroke-linecap="round" />
</g>
<g transform="matrix(1 0 0 1 208.26 249.97)" id="i4d1jgKfpUq0pIKTD4Xfe"  >
<path style="stroke: none; stroke-width: 1; stroke-dasharray: none; stroke-linecap: butt; stroke-dashoffset: 0; stroke-linejoin: miter; stroke-miterlimit: 4; fill: rgb(255,185,185); fill-rule: nonzero; opacity: 1;" vector-effect="non-scaling-stroke"  transform=" translate(-21.26, -21.26)" d="M 0 21.25984 C 0 9.51835 9.51835 0 21.25984 0 C 33.00133 0 42.51968 9.51835 42.51968 21.25984 C 42.51968 33.00133 33.00133 42.51968 21.25984 42.51968 C 9.51835 42.51968 0 33.00133 0 21.25984 z" stroke-linecap="round" />
</g>
<g transform="matrix(1 0 0 1 207.27 317.67)" id="t6bnV5h_pilDhK4U4LNlD"  >
<path style="stroke: none; stroke-width: 1; stroke-dasharray: none; stroke-linecap: butt; stroke-dashoffset: 0; stroke-linejoin: miter; stroke-miterlimit: 4; fill: rgb(255,101,132); fill-rule: nonzero; opacity: 1;" vector-effect="non-scaling-stroke"  transform=" translate(-593.65, -632.94)" d="M 592.318 610.08219 C 592.318 610.08219 566.71433 608.20974 566.2287699999999 590.54361 C 566.2287699999999 590.54361 557.1063899999999 589.48672 554.44891 592.1442 C 551.79143 594.8016799999999 543.1546099999999 596.7947899999999 543.1546099999999 603.43849 C 543.1546099999999 610.0821900000001 557.7707599999999 630.0133 557.7707599999999 630.0133 C 557.7707599999999 630.0133 565.7431999999999 656.5880999999999 562.4213499999998 661.2386899999999 C 559.0994999999998 665.8892799999999 558.4351299999998 677.8479399999999 558.4351299999998 677.8479399999999 C 558.4351299999998 677.8479399999999 591.6536299999998 675.1904599999999 596.9685899999998 677.8479399999999 C 602.2835499999999 680.5054199999998 623.5433999999998 680.5054199999998 624.8721399999998 677.8479399999999 C 626.2008799999999 675.1904599999999 623.5433999999998 641.9719399999999 623.5433999999998 641.9719399999999 C 623.5433999999998 641.9719399999999 629.5227299999998 633.9994999999999 628.1939899999998 624.6983199999999 L 644.13885 606.096 C 644.13885 606.096 638.15952 588.158 628.85834 588.158 C 628.85834 588.158 616.23534 584.83615 615.90312 586.49708 C 615.5708999999999 588.15801 622.21464 606.76034 592.318 610.08219 Z" stroke-linecap="round" />
</g>
<g transform="matrix(1 0 0 1 165.23 355.16)" id="V4GKY3eKPAgRKOyxaUgsM"  >
<path style="stroke: none; stroke-width: 1; stroke-dasharray: none; stroke-linecap: butt; stroke-dashoffset: 0; stroke-linejoin: miter; stroke-miterlimit: 4; fill: rgb(255,185,185); fill-rule: nonzero; opacity: 1;" vector-effect="non-scaling-stroke"  transform=" translate(-551.61, -670.43)" d="M 532.52467 668.54676 C 532.52467 668.54676 538.504 677.84794 553.78452 679.84105 C 569.0650400000001 681.83416 571.72252 676.5192 570.39377 675.19046 C 569.06502 673.8617200000001 553.12015 667.88239 553.12015 667.88239 L 543.81896 660.57432 Z" stroke-linecap="round" />
</g>
<g transform="matrix(1 0 0 1 242.82 355.2)" id="GqBGpY3wL1LLyLdAWI-_c"  >
<path style="stroke: none; stroke-width: 1; stroke-dasharray: none; stroke-linecap: butt; stroke-dashoffset: 0; stroke-linejoin: miter; stroke-miterlimit: 4; fill: rgb(255,185,185); fill-rule: nonzero; opacity: 1;" vector-effect="non-scaling-stroke"  transform=" translate(-629.2, -670.47)" d="M 641.48137 660.57432 L 624.2077499999999 670.53987 C 624.2077499999999 670.53987 601.61916 669.2111299999999 610.2559699999999 675.85487 C 618.8927799999999 682.4986100000001 634.8376699999999 679.84109 634.8376699999999 679.84109 L 650.1181799999999 672.53302 Z" stroke-linecap="round" />
</g>
<g transform="matrix(1 0 0 1 216.4 387.02)" id="xWHWvVBjfLYjQYMUlz9Ql"  >
<path style="stroke: none; stroke-width: 1; stroke-dasharray: none; stroke-linecap: butt; stroke-dashoffset: 0; stroke-linejoin: miter; stroke-miterlimit: 4; fill: rgb(47,46,65); fill-rule: nonzero; opacity: 1;" vector-effect="non-scaling-stroke"  transform=" translate(-602.78, -702.29)" d="M 555.11326 677.84794 C 555.11326 677.84794 539.16837 717.04578 558.43511 723.02511 C 577.70185 729.00444 630.85145 727.6757 642.81011 719.70326 C 654.76877 711.73082 658.0906200000001 701.1009 656.09751 697.77905 C 654.1044 694.4572 640.817 685.1560499999999 631.5158200000001 684.4916499999999 C 622.2146400000001 683.8272499999999 555.11326 677.84794 555.11326 677.84794 Z" stroke-linecap="round" />
</g>
<g transform="matrix(1 0 0 1 216.4 387.02)" id="RCIXxRe-bG4fKyfhgWD49"  >
<path style="stroke: none; stroke-width: 1; stroke-dasharray: none; stroke-linecap: butt; stroke-dashoffset: 0; stroke-linejoin: miter; stroke-miterlimit: 4; fill: rgb(0,0,0); fill-rule: nonzero; opacity: 0.05;" vector-effect="non-scaling-stroke"  transform=" translate(-602.78, -702.29)" d="M 555.11326 677.84794 C 555.11326 677.84794 539.16837 717.04578 558.43511 723.02511 C 577.70185 729.00444 630.85145 727.6757 642.81011 719.70326 C 654.76877 711.73082 658.0906200000001 701.1009 656.09751 697.77905 C 654.1044 694.4572 640.817 685.1560499999999 631.5158200000001 684.4916499999999 C 622.2146400000001 683.8272499999999 555.11326 677.84794 555.11326 677.84794 Z" stroke-linecap="round" />
</g>
<g transform="matrix(1 0 0 1 245.8 380.43)" id="dPfdIUCBkhjT-1GFKKLx2"  >
<path style="stroke: none; stroke-width: 1; stroke-dasharray: none; stroke-linecap: butt; stroke-dashoffset: 0; stroke-linejoin: miter; stroke-miterlimit: 4; fill: rgb(47,46,65); fill-rule: nonzero; opacity: 1;" vector-effect="non-scaling-stroke"  transform=" translate(-632.18, -695.7)" d="M 630.37766 680.28318 C 630.37766 680.28318 686.65853 659.90995 685.99416 684.49165 C 685.3297899999999 709.0733500000001 650.11816 715.71704 650.11816 715.71704 L 639.48824 717.04578 L 581.02367 719.03889 C 581.02367 719.03889 583.01678 708.4089700000001 578.3661900000001 707.08023 C 578.3661900000001 707.08023 593.6467000000001 703.09401 594.3110700000001 702.4296400000001 C 594.97544 701.7652700000001 632.84454 688.47787 635.5020200000001 687.8135000000001 C 638.1595000000002 687.1491300000001 646.1319400000001 681.8341600000001 652.1112700000001 682.4985 C 652.1112700000001 682.4985 658.7549700000001 677.1835 666.0630400000001 678.51228 L 645.4675700000001 679.8410200000001 Z" stroke-linecap="round" />
</g>
<g transform="matrix(1 0 0 1 245.8 380.43)" id="IrYWqgv1oEAaLjRT289RD"  >
<path style="stroke: none; stroke-width: 1; stroke-dasharray: none; stroke-linecap: butt; stroke-dashoffset: 0; stroke-linejoin: miter; stroke-miterlimit: 4; fill: rgb(0,0,0); fill-rule: nonzero; opacity: 0.1;" vector-effect="non-scaling-stroke"  transform=" translate(-632.18, -695.7)" d="M 630.37766 680.28318 C 630.37766 680.28318 686.65853 659.90995 685.99416 684.49165 C 685.3297899999999 709.0733500000001 650.11816 715.71704 650.11816 715.71704 L 639.48824 717.04578 L 581.02367 719.03889 C 581.02367 719.03889 583.01678 708.4089700000001 578.3661900000001 707.08023 C 578.3661900000001 707.08023 593.6467000000001 703.09401 594.3110700000001 702.4296400000001 C 594.97544 701.7652700000001 632.84454 688.47787 635.5020200000001 687.8135000000001 C 638.1595000000002 687.1491300000001 646.1319400000001 681.8341600000001 652.1112700000001 682.4985 C 652.1112700000001 682.4985 658.7549700000001 677.1835 666.0630400000001 678.51228 L 645.4675700000001 679.8410200000001 Z" stroke-linecap="round" />
</g>
<g transform="matrix(1 0 0 1 260.85 371.55)" id="-BgfIKz5Rk0iLrQlntGeb"  >
<path style="stroke: none; stroke-width: 1; stroke-dasharray: none; stroke-linecap: butt; stroke-dashoffset: 0; stroke-linejoin: miter; stroke-miterlimit: 4; fill: rgb(47,46,65); fill-rule: nonzero; opacity: 1;" vector-effect="non-scaling-stroke"  transform=" translate(-561.23, -536.32)" d="M 534.434 533.081 L 541.53 549.2710000000001 L 584.7139999999999 533.9900000000001 L 588.036 525.3540000000002 L 576.741 523.3600000000001 L 554.035 527.3470000000001 L 544.187 530.0040000000001 z" stroke-linecap="round" />
</g>
<g transform="matrix(1 0 0 1 260.85 371.55)" id="lPoZAda4kxCm_9gtL56sa"  >
<path style="stroke: none; stroke-width: 1; stroke-dasharray: none; stroke-linecap: butt; stroke-dashoffset: 0; stroke-linejoin: miter; stroke-miterlimit: 4; fill: rgb(0,0,0); fill-rule: nonzero; opacity: 0.1;" vector-effect="non-scaling-stroke"  transform=" translate(-561.23, -536.32)" d="M 534.434 533.081 L 541.53 549.2710000000001 L 584.7139999999999 533.9900000000001 L 588.036 525.3540000000002 L 576.741 523.3600000000001 L 554.035 527.3470000000001 L 544.187 530.0040000000001 z" stroke-linecap="round" />
</g>
<g transform="matrix(1 0 0 1 161.09 381.96)" id="1dDdz0dG8ArMSbSFLaICp"  >
<path style="stroke: none; stroke-width: 1; stroke-dasharray: none; stroke-linecap: butt; stroke-dashoffset: 0; stroke-linejoin: miter; stroke-miterlimit: 4; fill: rgb(47,46,65); fill-rule: nonzero; opacity: 1;" vector-effect="non-scaling-stroke"  transform=" translate(-547.47, -697.23)" d="M 528.53845 703.094 C 528.53845 703.094 541.1614500000001 719.0388800000001 555.77763 723.0251000000001 C 570.39381 727.0113200000001 578.36621 721.69636 578.36621 721.69636 L 573.71562 703.094 L 571.7225099999999 691.13534 L 563.0857 685.156 L 545.81207 677.18355 L 525.2166 670.53985 C 525.2166 670.53985 516.57979 669.21111 516.57979 670.53985 C 516.57979 671.86859 524.55223 691.7997 524.55223 691.7997 Z" stroke-linecap="round" />
</g>
<g transform="matrix(1 0 0 1 174.25 406.89)" id="m8XYahIRIcynfXFuPGnLx"  >
<path style="stroke: none; stroke-width: 1; stroke-dasharray: none; stroke-linecap: butt; stroke-dashoffset: 0; stroke-linejoin: miter; stroke-miterlimit: 4; fill: rgb(242,242,242); fill-rule: nonzero; opacity: 1;" vector-effect="non-scaling-stroke"  transform=" translate(-560.63, -722.16)" d="M 543.819 711.73082 C 543.819 711.73082 546.4764799999999 730.99755 549.7983399999999 732.32629 C 553.1202 733.6550299999999 563.08574 730.9975499999999 565.74322 729.66881 C 568.4006999999999 728.3400700000001 577.43376 722.20962 577.43376 722.20962 C 577.43376 722.20962 545.81207 710.40208 543.819 711.73082 Z" stroke-linecap="round" />
</g>
<g transform="matrix(1 0 0 1 221.05 407.09)" id="Ln7MyH3KPutUUxN9a2u2U"  >
<path style="stroke: none; stroke-width: 1; stroke-dasharray: none; stroke-linecap: butt; stroke-dashoffset: 0; stroke-linejoin: miter; stroke-miterlimit: 4; fill: rgb(255,185,185); fill-rule: nonzero; opacity: 1;" vector-effect="non-scaling-stroke"  transform=" translate(-521.43, -571.86)" d="M 518.277 563.223 L 530.9000000000001 565.216 L 529.5710000000001 580.496 L 511.96400000000017 576.22 z" stroke-linecap="round" />
</g>
<g transform="matrix(1 0 0 1 237.3 408.63)" id="RPPXjEpdB0hsNXC22h5e6"  >
<path style="stroke: none; stroke-width: 1; stroke-dasharray: none; stroke-linecap: butt; stroke-dashoffset: 0; stroke-linejoin: miter; stroke-miterlimit: 4; fill: rgb(242,242,242); fill-rule: nonzero; opacity: 1;" vector-effect="non-scaling-stroke"  transform=" translate(-623.68, -723.9)" d="M 612.18567 717.97655 C 612.18567 717.97655 606.2697499999999 725.0182199999999 612.2490799999999 729.0044399999999 L 616.2352999999999 732.32629 C 616.2352999999999 732.32629 629.52271 734.9837699999999 630.8514499999999 736.31251 C 632.1801899999998 737.64125 637.4951499999999 734.3194 637.4951499999999 734.3194 C 637.4951499999999 734.3194 638.1595199999998 714.3883 637.4951499999999 713.0595599999999 C 636.8307799999999 711.7308199999999 628.8583399999999 710.40208 628.1939699999998 711.7308199999999 C 627.5295999999997 713.0595599999998 619.5571499999999 715.0526699999999 614.9065599999998 713.7239299999999 Z" stroke-linecap="round" />
</g>
<g transform="matrix(1 0 0 1 166.86 382.41)" id="MHVOQN-ndZpbE_ZYFwNWi"  >
<path style="stroke: none; stroke-width: 1; stroke-dasharray: none; stroke-linecap: butt; stroke-dashoffset: 0; stroke-linejoin: miter; stroke-miterlimit: 4; fill: rgb(47,46,65); fill-rule: nonzero; opacity: 1;" vector-effect="non-scaling-stroke"  transform=" translate(-553.24, -697.68)" d="M 559.09948 682.49853 C 559.09948 682.49853 512.59357 655.25936 505.28547999999995 665.2249099999999 C 497.9773899999999 675.1904599999998 490.00496999999996 689.1422399999999 511.26480999999995 699.7721599999999 C 532.52465 710.4020799999998 598.9616599999999 732.3262899999999 598.9616599999999 732.3262899999999 C 598.9616599999999 732.3262899999999 608.92721 717.0457799999998 608.92721 713.0595599999998 C 608.92721 713.0595599999998 573.7156 697.1146799999998 567.73627 695.7859399999998 C 561.75694 694.4571999999997 537.83961 679.1766799999998 534.51776 677.8479399999998 C 531.1959099999999 676.5191999999997 526.54532 672.5329399999997 526.54532 672.5329399999997 Z" stroke-linecap="round" />
</g>
<g transform="matrix(1 0 0 1 157.75 321.72)" id="O20ONBNrV7-xaix_pVfHj"  >
<path style="stroke: none; stroke-width: 1; stroke-dasharray: none; stroke-linecap: butt; stroke-dashoffset: 0; stroke-linejoin: miter; stroke-miterlimit: 4; fill: rgb(255,101,132); fill-rule: nonzero; opacity: 1;" vector-effect="non-scaling-stroke"  transform=" translate(-544.13, -636.99)" d="M 545.81207 600.11664 L 543.15459 602.10975 C 543.15459 602.10975 537.17526 617.39027 536.51089 626.02708 C 535.84652 634.6638899999999 527.87408 661.2386899999999 528.53845 664.56054 C 529.20282 667.88239 529.86719 670.53987 533.8534500000001 673.86172 C 533.8534500000001 673.86172 539.1684500000001 661.90306 548.4696 663.89617 L 559.7638900000001 622.70523 Z" stroke-linecap="round" />
</g>
<g transform="matrix(1 0 0 1 254.92 323.38)" id="9ClSAOjMo_nDqYsuu79O3"  >
<path style="stroke: none; stroke-width: 1; stroke-dasharray: none; stroke-linecap: butt; stroke-dashoffset: 0; stroke-linejoin: miter; stroke-miterlimit: 4; fill: rgb(255,101,132); fill-rule: nonzero; opacity: 1;" vector-effect="non-scaling-stroke"  transform=" translate(-641.3, -638.65)" d="M 638.82389 600.11664 L 644.1388900000001 606.09597 C 644.1388900000001 606.09597 647.4607400000001 614.06842 647.4607400000001 616.06153 C 647.4607400000001 618.05464 654.1044400000001 647.2869199999999 654.7688100000001 648.6156599999999 C 655.4331800000002 649.9444 658.0906600000002 666.5536599999999 654.7688100000001 670.53987 C 651.4469600000001 674.52608 645.4676300000001 677.1835699999999 645.4676300000001 677.1835699999999 C 645.4676300000001 677.1835699999999 649.4538500000001 663.2317999999999 636.8308200000001 662.56743 L 638.1595600000002 657.2524299999999 L 626.2009000000002 617.3902299999999 Z" stroke-linecap="round" />
</g>
<g transform="matrix(1 0 0 1 206.44 348.63)" id="hsgnKj_DB4us0PHNL-K9e"  >
<path style="stroke: none; stroke-width: 1; stroke-dasharray: none; stroke-linecap: butt; stroke-dashoffset: 0; stroke-linejoin: miter; stroke-miterlimit: 4; fill: rgb(63,61,86); fill-rule: nonzero; opacity: 1;" vector-effect="non-scaling-stroke"  transform=" translate(-592.82, -663.9)" d="M 547.14082 645.85762 L 547.14082 680.85252 C 547.1408129011255 685.4505340170285 550.8321104054919 689.1969239852335 555.42962 689.26503 L 628.61473 690.3492600000001 C 633.183393389389 690.4169418739184 636.9709715651528 686.8258888342774 637.14658 682.2601000000001 L 638.4926899999999 647.2611 C 638.5797912602895 644.9964592341565 637.7495820246754 642.7924498927275 636.1900269997255 641.1480738554362 C 634.6304719747757 639.5036978181448 632.4734771440884 638.5580351656131 630.2073999999999 638.5251900000001 L 555.67617 637.4450300000001 C 553.4238854548465 637.4123857366096 551.2525685689924 638.2842507538282 549.6483006815977 639.8654451965656 C 548.044032794203 641.4466396393028 547.1408056574957 643.6050988968661 547.14082 645.85762 Z" stroke-linecap="round" />
</g>
<g transform="matrix(1 0 0 1 209.51 236.96)" id="usTgfMGuTnZahARhl5FeF"  >
<path style="stroke: none; stroke-width: 1; stroke-dasharray: none; stroke-linecap: butt; stroke-dashoffset: 0; stroke-linejoin: miter; stroke-miterlimit: 4; fill: rgb(47,46,65); fill-rule: nonzero; opacity: 1;" vector-effect="non-scaling-stroke"  transform=" translate(-22.88, -12.32)" d="M 0 12.32222 C 0 5.51685 10.24557 0 22.88412 0 C 35.52267 0 45.76824 5.51685 45.76824 12.32222 C 45.76824 19.127589999999998 35.52267 24.64444 22.88412 24.64444 C 10.245569999999999 24.64444 0 19.127589999999998 0 12.32222 z" stroke-linecap="round" />
</g>
<g transform="matrix(1 0 0 1 205.61 348.96)" id="Qu9ECNPZQHVo7rdg7qwj5"  >
<path style="stroke: none; stroke-width: 1; stroke-dasharray: none; stroke-linecap: butt; stroke-dashoffset: 0; stroke-linejoin: miter; stroke-miterlimit: 4; fill: rgb(242,242,242); fill-rule: nonzero; opacity: 1;" vector-effect="non-scaling-stroke"  transform=" translate(-5.31, -5.31)" d="M 0 5.31496 C 0 2.3795900000000003 2.37959 0 5.31496 0 C 8.25033 0 10.62992 2.37959 10.62992 5.31496 C 10.62992 8.25033 8.25033 10.62992 5.31496 10.62992 C 2.3795900000000003 10.62992 0 8.25033 0 5.31496 z" stroke-linecap="round" />
</g>
</svg>